<?xml version="1.0" encoding="utf-8"?>
<!-- Generator: Adobe Illustrator 24.3.0, SVG Export Plug-In . SVG Version: 6.00 Build 0)  -->
<svg version="1.1" id="Layer_1" xmlns="http://www.w3.org/2000/svg" xmlns:xlink="http://www.w3.org/1999/xlink" x="0px" y="0px"
	 viewBox="0 0 224.6 87.2" style="enable-background:new 0 0 224.6 87.2;" xml:space="preserve">
<style type="text/css">
	.st0{fill:#262626;}
</style>
<path class="st0" d="M224.2,30.3c0.4,0.1,0.6,0.7,0.2,0.9c-2.7,1.6-5.4,1.6-7.8,2c-21.4,3.8-42.8,8.1-64.4,10.7
	c-2.8,0.3-4.5,1.7-4.8,4.6c-0.3,3.8,0.5,7.5,1.7,11.1c0.3,0.8,0.7,1.7,1.7,1.8c1.2,0.1,4.5-0.5,5-1.4c1.3-2.3,0.5-4.3-0.5-7.5
	c-0.5-1.7,1.5-3,2.8-1.7c3.7,3.9,9.1,3,13.5,5c4.9,2.3,8.5,4.9,10.5,10c1.9,5.1,2.1,10.3,1.7,15.5c-0.3,4.6-3,6.3-7.9,5.5
	c-18.3-3.2-36.7-6.1-55.1-8.3c-13.8-1.7-27.8-2.7-41.6-4c-1-0.1-1.8-0.2-2.8,0.3c-1.3,0.7,0.6,2.1,1.2,3c0.8,1.2,1.8,2.3,2.6,3.5
	c1,1.4,2.6,3.2,0.4,4.4c-1.7,0.9-4.1,0.7-5.2-1.7c-1.3-2.8-3.1-5.2-4.6-7.9c-1.5-2.5-2.5-2.3-4.6-2.5c-15.2-0.9-30.5-0.8-45.7-3.3
	c-5.4-0.9-10.9-1.9-16.3-2.9c-2.2-0.4-4.2-1.8-3.9-4.1c0.2-1.5,1.6-1.8,3.3-2.4c15.6-6.4,32.2-7.2,48.7-8.2c5.3-0.3,3.7-1.3,1.9-4.2
	c-5.7-9.1-9.8-18.9-14.1-28.9c-1.2-2.9-2-3.6-3.1-7C35.5,8.8,35.7,5,37.3,2c1.5-2.8,4.6-2,7.1-1.4c8,1.8,14.6,6.2,20.9,11.3
	c1.6,1.3,3,2.8,4.9,3.6c2,0.9,2.8,2.6,3,4.9c1,10.1,6.2,18.7,10.2,27.7c0.9,1.9,1.2,1.9,4.2,1.3c21.1-3.8,42.6-5.5,63.8-8.5
	c23-3.2,45.8-7.9,68.8-10.6C221.4,30.2,222.6,29.9,224.2,30.3z M101.6,62.8c-0.7,2.7-1.2,5.1-1.8,7.4c-0.5,1.9-0.3,3,2.1,3.1
	c3.2,0.1,6.4,0.5,9.6,0.8c21.2,2.2,42.2,5.6,63.3,9c3.4,0.6,5.2-0.4,5.4-4.2c0.5-11.7-3.7-18-14.5-21.1c-2.4-0.7-5.2,0.2-4.7,3.1
	c1.4,7.1-6.4,2.6-7.7,6.4c-0.5,1.4-2.9,1-4.4,0.2c-0.8-0.5-1.2-1.5-1.7-2.4c-2.8-4.5-3-9.6-3.6-14.7c-0.3-2.4-0.9-3-3.3-1.8
	c-5.6,2.8-7.1,7.5-3.8,13.5c0.8,1.4,1.5,2.6,0.4,4c-1.1,1.4-2.6,1-4,0.4c-1.5-0.6-3.1-1-4.5,0c-3.4,2.6-4.8,1-6.5-2.2
	c-2.1-3.9-4.3-8-7.6-11.1c-1.1-1-2.5-1.8-3.9-0.7c-1.6,1.2,0.3,2,0.7,2.8c2.3,4.1,2,8.3,0.9,12.7c-0.5,1.9-1.8,3-3.7,3.2
	c-2.2,0.2-3-1.3-3.7-3C104,66.2,103.8,64.2,101.6,62.8z M63.7,51.8c5-0.6,9.3-1.1,13.6-1.6c2-0.2,3-0.1,1.5-2.9
	c-4.2-7.8-7.5-16-10.2-24.4c-0.6-2-1.7-4.2-3.3-5.6C60,12.8,54.5,8.4,47.9,5.8c-5.4-2.1-6.5,0.1-5.2,3.9c0.5,1.6,0.6,3.4,1.2,5.1
	c3.9,12.2,10.9,23,15.8,34.8C60.5,51.9,62.3,52.1,63.7,51.8z M9.5,64.2c18.7,4.6,36.7,4.4,54.6,6c2.5,0.1,2.9,0.5,1.5-2.2
	c-1.6-2.9-3.2-5.8-4.8-8.7c-1.3-2.5-3.1-3.4-6-3c-8.1,1-16.3,1.2-24.2,2.8C23.9,60.4,16.9,60.5,9.5,64.2z M80.2,54
	c-4.4,0.4-9.1,1-13.7,1.3c-3,0.2-3.1,1.4-1.7,3.6c2,3.2,4.1,6.4,6,9.6c0.8,1.3,1.9,2.2,3.5,2.3c5.5,0.5,11,1.4,16.5,1.5
	c3.1,0,3.3-0.5,1.6-2.7c-3.4-4.3-6.3-9-9-13.8C82.8,54.6,82.1,53.4,80.2,54z M108.1,65.3c1.5-4.7,0.1-8-2.6-10.3
	c-5.2-4.1-10.8-2.7-16.5-2.1c-1.9,0.2-2.5,1.1-1.3,3c2.1,3,3.9,6.1,6,9.1c0.6,0.8,0.8,2.6,2.4,1.9c1.2-0.5,1.2-1.9,1.3-3.1
	c0-0.7-0.2-1.5-0.1-2.2c0.1-1.7-1.3-4,1.3-4.9c2.6-0.9,4.5,0.7,6,2.6C105.8,61,106.8,63,108.1,65.3z M131.7,60
	c-1.5-4.1-0.5-9.4,2.5-12.8c-4.3,0.5-7.3,0.9-10.3,1.1c-4.4,0.4-4.8,1.7-3.2,5.9c1.6,4.3,5.3,7,9,7.9C131,62.5,132.2,61.3,131.7,60z
	"/>
</svg>
