<svg xmlns="http://www.w3.org/2000/svg" xmlns:xlink="http://www.w3.org/1999/xlink"><symbol viewBox="0 0 46 47.97" id="cd-icon--icon--link" xmlns="http://www.w3.org/2000/svg"><defs><style>.acls-1{fill:#1f1f1f}</style></defs><g id="aLayer_2" data-name="Layer 2"><g id="aText"><path class="acls-1" d="M44.56 8.392L37.46 1.44a4.916 4.916 0 00-6.953 0L13.511 18.435a4.916 4.916 0 000 6.953l3.476 3.476a1.093 1.093 0 001.545 0l2.318-2.318a1.092 1.092 0 000-1.545l-3.09-3.09L33.982 5.69l6.18 6.18-6.952 6.952 1.446 1.445a8.14 8.14 0 011.88 2.953l8.024-7.874a4.916 4.916 0 000-6.953z"/><path class="acls-1" d="M28.862 19.108a1.092 1.092 0 00-1.545 0l-2.318 2.317a1.093 1.093 0 000 1.545l.772.773 2.318 2.317-9.27 9.27-6.953 6.953-3.09-3.09-3.09-3.09 6.953-6.953-.386-.386-.002-.001-1.057-1.059a8.135 8.135 0 01-1.882-2.952l-7.874 7.875a4.922 4.922 0 000 6.952l6.952 6.953a4.922 4.922 0 006.953 0l8.508-8.509 8.487-8.486a4.922 4.922 0 000-6.953z"/></g></g></symbol><symbol viewBox="0 0 48 48" id="cd-icon--selected--highlighted" xmlns="http://www.w3.org/2000/svg"><path fill="#1a344a" d="M18.5 39.75a4 4 0 01-2.83-1.17l-12.5-12.5a4 4 0 015.66-5.66l9.67 9.67L39.17 9.42a4 4 0 015.66 5.66l-23.5 23.5a4 4 0 01-2.83 1.17z"/></symbol></svg>