<svg viewBox="0 0 426 208" xmlns="http://www.w3.org/2000/svg" fill-rule="evenodd" clip-rule="evenodd" stroke-linejoin="round" stroke-miterlimit="2"><path d="M186.7 15.2c.8-.6 1.7-1.4 2.8-2.3.4-.3.7-.6 1-.9.3-.3.5-.6.6-.9.2-.4.4-.8.5-1.3l.7-2.1h-.1c-.3.7-.7 1.3-1.3 1.8-.5.5-1.1.9-1.7 1.3-.6.4-1.3.9-1.8 1.4-.7.7-1.2 1.4-1.6 2.3v-.1c.4-1.3.8-2.3 1-3.2.2-.9.4-1.6.6-2.3.1-.6.3-1.2.6-1.7s.7-1 1.2-1.3c-1.3.4-2.5 1.2-3.2 2.3-.8 1.2-1.3 2.6-1.2 4.1v5.1c.5-.9 1.2-1.6 1.9-2.2zm3.4-6.2c.7-.7 1.3-1.4 1.9-2.2l1.6-2.1c.5-.6 1.1-1.2 1.7-1.8l-.1-.1c-.5.4-1 .7-1.6.9-.7.2-1.4.5-2.1.9-.8.5-1.6 1.2-2.1 2.1-.8 1.3-1.4 2.7-1.7 4.2.9-.5 1.7-1.1 2.4-1.9zM182 28c.5.7 1 1.5 1.6 2.1.7.8 1.3 1.7 1.8 2.6-.1-.4-.1-.8-.1-1.2v-1c.1-.7.2-1.3.4-1.9.3-.9.6-1.9.9-3 .3-1.1.6-2.2.8-3.3.2-1 .3-2 .2-3h-.1c-.2.7-.4 1.3-.8 1.9l-1.1 1.9c-.4.7-.7 1.4-1 2.1-.3.8-.4 1.6-.4 2.4 0 .4.1.8.2 1.2.1.3.1.6.2.9h-.1c-.2-1-.5-2.1-.8-3-.4-1-.7-1.9-1.1-2.7-.4-.8-.6-1.6-.9-2.3-.2-.5-.3-1.1-.4-1.7 0-.4 0-.8.1-1.2v-1.1h-.1c-.2.6-.4 1.2-.6 1.9-.2.8-.3 1.5-.3 2.3 0 1.2.1 2.4.4 3.5.3 1 .7 1.8 1.2 2.6zm13.2 19.7h.8c.4 0 .7 0 1.1-.1l1.3-.2c.5-.1 1.2-.3 2.1-.5.9-.2 2-.5 3.4-.8-.9-.2-1.7-.5-2.4-.7-.7-.3-1.4-.7-2-1.3-.8-.7-1.6-1.5-2.5-2.2-.6-.6-1.3-1.2-2-1.8-.2-.2-1.1-1-1.4-1.3l-.1.1 1 2c.1.1.1.2.2.3.2.4.5.9.7 1.3l.3.5c.3.6.7 1 1.2 1.4.9.7 2 1.3 3.1 1.5l-1.6-.2-1.2-.2c-.4 0-.7-.1-1.1-.1-.4 0-.9 0-1.3-.1s-.7-.1-1-.2l-1-.1c-.2 0-.3 0-.5-.1l-1.8-.3c-.6-.2-1.1-.4-1.6-.7-.6-.4-1.2-.8-1.8-1.3l-.1.1c.3.5.6 1 1 1.4l1.5 1.5c.7.5 1.4.9 2.1 1.2.9.4 1.9.6 2.9.7l.7.2zm-11.3-22.8h.1c0-.4.1-.8.2-1.2.1-.4.3-.8.5-1.2.3-.6.7-1.2 1.1-1.7l1.9-2.8c.5-.8.9-1.6 1.1-2.6.3-1 .5-1.7.6-2.1h-.1l-.3.6c-.1.2-.3.4-.5.6-.2.2-.4.5-.8.8l-1.3 1.2c-.8.7-1.4 1.5-1.9 2.4-.3.8-.6 1.6-.7 2.4h.2c0-.4 0-.8.1-1.1.1-.3 0-.8 0-1.4 0-.7-.1-1.6-.1-2.5 0-.9-.1-2.2-.1-3.8 0-.5.1-.9.3-1.4.2-.4.4-.9.5-1.2h-.1c-.9 1.1-1.6 2.3-2.1 3.7-.4 1.1-.5 2.2-.6 3.4 0 1.3.3 2.6.7 3.8.5 1.2 1 2.7 1.3 4.1zm7.6 18.8l3 .7 1.6.4c-.6-.6-1.1-1.3-1.5-2-.4-.6-.7-1.3-.9-2-.3-.8-.7-1.8-1.2-3.2-.1-.4-.3-.8-.5-1.2-.2-.3-.4-.7-.6-1.1-.2-.4-.5-.8-.8-1.2-.3-.4-.7-1-1.2-1.7l-.1.1c.1.5.4 1.3.6 2.6.2 1.3.5 2.4.8 3.6.2.8.5 1.6 1 2.3.6.8 1.3 1.5 2 2.1l-.1.1c-.6-.3-1.2-.7-1.8-1.2-.8-.7-1.7-1.2-2.6-1.7-1.5-.7-3-1.5-4.4-2.4-1.1-.7-1.9-1.7-2.4-2.9l-.1.1c.3 1.2.7 2.3 1.4 3.3.6.9 1.3 1.8 2.2 2.5.8.7 1.7 1.3 2.7 1.8.9.4 1.8.8 2.9 1zm-6.8-7.5l5.3 3.6c-.2-.4-.4-.9-.6-1.4-.2-.5-.3-1-.4-1.5-.1-.5-.2-1.1-.2-1.8s-.1-1.4-.2-2.4c-.2-1.6-.4-2.8-.5-3.7-.2-1-.4-1.9-.8-2.8h-.1c0 .7 0 1.4-.1 2.1-.1.5-.2 1.1-.3 1.6-.1.5-.2.9-.3 1.4-.1.5-.1.9-.1 1.4 0 .7.2 1.4.5 2.1.3.7.5 1.4.9 2.1l-.1.1c-.7-1.2-1.5-2.2-2.4-3.2-.8-.8-1.5-1.6-2.2-2.3-.6-.6-1.2-1.3-1.7-2.1s-.8-1.6-.9-2.5c-.1.2-.1.5-.1.7 0 .2-.1.5-.1.7 0 .9.2 1.7.4 2.5.3.8.6 1.6 1.1 2.4.4.7.9 1.3 1.5 1.9.4.4.8.8 1.4 1.1zm44.1-31.4l1.6 2.1c.6.8 1.2 1.5 1.9 2.2.7.8 1.6 1.4 2.5 2-.3-1.5-.9-2.9-1.7-4.2-.6-.8-1.3-1.5-2.1-2.1-.6-.4-1.3-.8-2.1-1-.6-.2-1.2-.5-1.6-.9l-.1.1c.5.5 1.1 1.1 1.6 1.8zm4.8 39.2c-.5.3-1.1.5-1.6.7-.6.1-1.2.3-1.8.3l-.5.1-1 .1c-.4 0-.7.1-1 .2-.3.1-.9.1-1.3.1s-.7.1-1.1.1l-1.2.2-1.6.2c1.1-.3 2.2-.8 3.1-1.5.5-.4.9-.9 1.2-1.5.1-.2.2-.3.3-.5.2-.4.5-.9.7-1.3l.2-.3 1-2-.1-.1c-.3.3-1.2 1.1-1.4 1.3-.6.6-1.3 1.2-2 1.8-.8.8-1.6 1.5-2.5 2.2-.6.6-1.2 1-2 1.3-.7.2-1.5.5-2.4.7l3.4.8c.9.2 1.5.4 2.1.5.5.1 1 .2 1.3.2.4.1.7.1 1.1.1h.8l.7-.1c1-.1 1.9-.4 2.9-.7.8-.3 1.5-.7 2.1-1.3.6-.4 1.1-.9 1.5-1.5.4-.4.7-.9 1-1.4l-.1-.1c-.6.6-1.2 1-1.8 1.4zm4-6.1c-1.4.9-2.8 1.7-4.3 2.4-.9.5-1.8 1-2.6 1.7-.5.5-1.1.9-1.8 1.2l-.1-.1c.7-.6 1.4-1.4 2-2.1.5-.7.8-1.5 1-2.3.2-1.1.5-2.3.8-3.6.3-1.3.5-2.1.6-2.6l-.1-.1-1.2 1.7c-.3.5-.6.9-.8 1.2-.2.3-.4.7-.6 1.1-.2.4-.3.8-.5 1.2-.5 1.3-.9 2.4-1.2 3.2-.3.7-.6 1.4-1 2-.4.7-1 1.4-1.5 2l1.6-.4 3-.7c1-.2 2-.5 2.9-1 1-.5 1.9-1.1 2.7-1.8.8-.7 1.6-1.6 2.2-2.5.6-1 1.1-2.1 1.4-3.3V35c-.6 1.2-1.4 2.2-2.5 2.9zm2.2-13.9c-.4.8-.7 1.7-1.1 2.7-.4 1-.6 2-.8 3h-.1c0-.3.1-.6.2-.9.1-.4.2-.8.2-1.2 0-.8-.1-1.7-.4-2.4-.3-.7-.6-1.4-1-2.1l-1.1-1.9c-.4-.6-.6-1.2-.8-1.9h-.1c-.1 1 0 2 .2 3 .2 1.1.5 2.2.8 3.3.3 1.1.6 2.1.9 3 .2.6.4 1.3.4 1.9v1c0 .4 0 .8-.1 1.2.5-.9 1.1-1.8 1.8-2.6.6-.7 1.1-1.4 1.6-2.1.5-.8.9-1.6 1.1-2.4.3-1.2.5-2.4.4-3.6 0-.8-.1-1.6-.4-2.3-.2-.6-.4-1.3-.6-1.9h.1v1.1c0 .4.1.8.1 1.2 0 .6-.1 1.1-.4 1.7-.2.6-.5 1.4-.9 2.2zm-2.2-5.1c-.4-.9-1.1-1.7-1.9-2.4l-1.2-1.2c-.3-.3-.6-.5-.8-.8-.2-.3-.3-.4-.5-.6l-.3-.6h-.1c.1.4.3 1.1.6 2.1.3.9.7 1.7 1.1 2.5l1.9 2.8c.4.6.8 1.1 1.1 1.7.2.4.4.8.5 1.2.1.4.2.8.2 1.2h.1c.3-1.4.7-2.9 1.3-4.2.5-1.2.7-2.5.7-3.8 0-1.1-.2-2.3-.6-3.4-.5-1.3-1.2-2.6-2.1-3.7h-.1c.1.4.3.8.5 1.2.2.4.3.9.3 1.4 0 1.6 0 2.8-.1 3.8-.1.8-.1 1.7-.1 2.5V20c0 .4 0 .7.1 1.1h-.1c.1-.6-.2-1.4-.5-2.2zm-3.2-11.6c.3.5.5 1.1.6 1.7.2.7.4 1.4.6 2.3.2.9.6 1.9 1 3.2v.1c-.4-.9-1-1.6-1.7-2.3l-1.8-1.5c-.6-.4-1.1-.8-1.7-1.3-.6-.5-1-1.1-1.3-1.8h-.1l.7 2.1c.1.4.3.9.5 1.3.2.3.4.6.7.9.2.2.6.5.9.9 1.1.9 2 1.7 2.8 2.3.8.6 1.4 1.3 1.9 2.2v-5.1c0-1.5-.4-2.9-1.2-4.1-.7-1.1-1.9-2-3.2-2.3V6c.6.4 1 .8 1.3 1.3zM226 49.1c-.4 0-.8 0-1.2-.1-.4-.1-.8-.2-1.3-.3l-1.5-.5c-.6-.2-1.2-.4-2-.7l-3.1-1.1c-.7-.2-1.4-.4-2.1-.4-.7 0-1.4.1-2.1.2-.7.2-1.2.3-1.6.4-.3-.1-.8-.2-1.5-.4s-1.4-.2-2.1-.2c-.7 0-1.4.1-2.1.4l-3.1 1.1c-1.6.6-2.8 1-3.6 1.2-.8.2-1.6.4-2.4.4-.3 0-.7 0-1-.1-.3 0-.6-.1-.9-.2 0 0-.7-.2-1.1-.4l-1.4-.6-.1.1c.8.8 1.6 1.4 2.6 2 1.2.7 2.6 1.1 4 1.2.5 0 1 0 1.6-.1.5-.1.9-.2 1.4-.4.5-.2 1-.4 1.5-.7.5-.3 1.2-.7 2-1.2s1.5-1 2.1-1.3c.6-.3 1.3-.5 1.9-.5.3 0 .6.1.9.2-1 .5-2.1 1.2-3.3 1.9-1.3.8-2.5 1.8-3.6 3l1.2 1.1c1.1-1.3 2.3-2.4 3.6-3.5 1-.9 2.1-1.6 3.3-2.1 1.2.5 2.4 1.2 3.4 2.1 1.3 1 2.5 2.2 3.6 3.5l1.2-1.1c-1.1-1.2-2.3-2.2-3.6-3-1.3-.8-2.4-1.4-3.3-1.9.3-.1.6-.1.9-.2.7 0 1.3.1 1.9.5.6.3 1.2.7 2.1 1.3l1.9 1.1c.5.3 1 .5 1.5.7.4.2.9.3 1.4.4.5.1.9.2 1.4.2h.3c1.1 0 2.3-.3 3.3-.7 1.3-.5 2.4-1.4 3.2-2.4v-.1c-.8.4-1.6.7-2.4 1-.5.2-1.1.3-1.8.2zm16.1-21v-.5c0-.2-.1-.5-.1-.7-.1.9-.4 1.8-.9 2.5s-1.1 1.4-1.7 2.1l-.1.1c-.6.7-1.3 1.4-2.1 2.2-.9 1-1.7 2-2.4 3.2l.9-2.1c.2-.7.4-1.4.4-2.1 0-.5 0-1-.1-1.4-.1-.4-.2-.9-.3-1.3-.1-.4-.2-1-.2-1.6-.1-.7-.1-1.4-.1-2.1h-.2c-.3.9-.6 1.9-.8 2.8-.1.9-.3 2.1-.5 3.7-.1.9-.2 1.7-.2 2.4s-.1 1.2-.2 1.8c-.1.5-.2 1-.4 1.5-.1.4-.3.8-.5 1.2l-.1.2 5.4-3.6c.5-.4 1-.8 1.4-1.3.5-.6 1-1.2 1.4-1.9.3-.5.5-.9.7-1.4.1-.3.3-.6.4-.9.3-.8.4-1.6.4-2.5l-.1-.3zM221 6.7c.1.1.3.1.4.2.1.1.2.2.2.3l.2.2c.1 0 .2 0 .2-.2V7c0-.2 0-.3-.1-.4-.2-.2-.4-.2-.6-.2l-.1-.1h-.2c-.1 0-.2 0-.2.2 0 .1.1.2.2.2zm-7.7-1.8h.1c.3-.1.6-.2.9-.2h1c.2 0 .3-.1.4-.2.1-.1.2-.2.2-.3-.2-.3-.5-.5-.9-.5-.2 0-.5-.1-.7-.1l-1.8.6c-.2 0-.4 0-.4.2.1.1.3.2.4.3.3.2.5.2.8.2zm-2.2 39.8c12.1 0 21.9-9.8 21.9-21.9C233 10.7 223.2.9 211.1.9c-12.1 0-21.9 9.8-21.9 21.9 0 12.1 9.8 21.9 21.9 21.9zm-20.8-21.3h3.3c0 1.5.3 2.9.7 4.3-.1 0-.2-.1-.2-.2l-.1-.1-.4-.5-.6.2c0 .3-.1.5-.4.4-.1-.1-.2-.1-.3-.1-.4 0-.7.2-.7.6-.1.3-.1.6-.1.8l.5 1.3c.1.1.2.2.4.1.1.2.3.3.4.5.1.1.2.2.4.1.1 0 .2-.1.2-.2h.1l.3.3c.1.1.2.2.4.3v-.1c.2.2.4.3.6.3.1.3.2.6.4.8.1.2.4.3.6.3.1 0 .2-.1.3-.1.1.3.2.5.4.7l.4.2c.1.1.2.1.3.2h.1c.1.2.2.4.4.6l.4.4h.1l.1.2-2.3 2.4c-3.5-3.7-5.6-8.6-5.7-13.7zm16-6.2l-.2-.1-.2-.2c1.3-1.1 2.9-1.8 4.6-1.9v2.3h-.1v-.1h-.7c-.1-.1-.1-.2-.1-.3-.2.1-.3.2-.3.3 0 .2-.1.3-.1.5-.1.2-.2.3-.4.4-.2 0-.3.1-.4.2l-.2-.1h-.4l-.2-.2c-.1 0-.1-.1-.1-.1h-.1c-.1 0-.2.1-.2.2l-.2-.2h.1v-.1c-.3-.3-.5-.4-.8-.6zm-1.2-1.1l-2.2-2.2c2.1-1.9 4.8-3 7.6-3.2v3.2c-2 .1-3.9.9-5.4 2.2zm1.3 10.5c.1-.1.1-.3.1-.5l-.2.2c.2-.2.3-.3.4-.5.1-.1.1-.3.2-.4.1.2.2.3.3.5l-2 2c-.8-.9-1.4-2.1-1.7-3.3.2 0 .3.1.5.1.2.1.3.3.5.4.1 0 .2 0 .3-.1l.3.2c0 .1 0 .3.1.4l.2.2c.1.1.2.1.3.3l.1-.1v-.5l.1.5.1.6c.2.1.3.1.4 0zm4.4 2.4l.2.2s-.2.2-.6.2c-.1 0-.2.1-.3.4-.1.3-.1.5-.1.7h-.1c-1.4-.2-2.8-.9-3.9-1.8l2-2c.8.7 1.7 1.1 2.7 1.2 0 .1 0 .2.1.3-.1.1-.2.2-.1.4-.1.1-.1.2.1.4zm-9.8.1c0-.4-.1-.8-.1-1.2-.1-.2-.1-.4-.2-.7 0-.3-.1-.7-.2-1-.2-.3-.4-.6-.7-.9v-.4c0-.1-.1-.3-.1-.4v-.1c0-.1 0-.2.1-.2l.8-.3c0-.2 0-.5.1-.7l.5.1c.1 0 .2-.1.2-.3 0-.2-.1-.3-.1-.5-.1-.2-.1-.3-.1-.5 0-.1.1-.2.2-.3.1-.1.3-.1.4-.1.2 0 .4.1.5.2.1.2.1.3.1.5v.7l.1.1c-.1.5-.3.7-.6.7-.1 0-.3-.1-.3-.2s-.1-.2-.2-.2h-.1c0 .1 0 .2.1.3.1.1.1.2.1.4 0 .3-.1.5-.5.4-.1.2 0 .3.3.3.1.3.2.4.3.4.1-.2.1-.3.1-.5s.1-.4.1-.6l.1.1.3-.1v.1h.1c.3 1.6 1 3.1 2.1 4.3l-3.1 3.1c-.1-.1-.2-.3-.2-.5.1-.3.4-.5.4-.8l.1-.6c-.3 0-.4-.3-.6-.6zm-1.8-4.6c0 .1.1.2.1.3 0 .1-.1.2-.1.2h-.1c-.1-.5-.2-1.1-.2-1.6h.6c0 .1 0 .2-.1.3-.1.1-.1.2-.2.3-.1.1-.1.2-.1.3.1 0 .1.1.1.2zm-.2-2.2c.1-2.8 1.2-5.5 3.2-7.6l2.2 2.2-.1.1c-.1 0-.3.1-.4.1-.1.1-.2.3-.3.4-.2.1-.5.2-.7.4l-.6.6c-.3.1-.5.2-.6.3-.1 0-.2.1-.2.2.1.2.1.4 0 .4l-.7.2-.3.3c0 .1-.1.2-.1.3 0 .1 0 .2-.1.2-.1.1-.3.2-.4.4-.1.2-.1.4 0 .7l.1.7c0 .1.1.1.1.2l-1.1-.1zm6.2 7.2c1.1 1 2.4 1.7 3.9 2-.1 0-.2.1-.3.1-.2.1-.4.2-.4.5 0 .2-.1.4-.3.5-.2.1-.2.2-.2.3.2.2.4.5.5.9.1.3.4.6.7.7l.4.1c.2 0 .3.1.4.2l.4.1c-2.7-.2-5.3-1.3-7.4-3.1l2.3-2.3zm-3-16.4l-2.2-2.2c2.9-2.7 6.7-4.3 10.6-4.4v3.1c-3.2.1-6.2 1.3-8.4 3.5zm-.8.8c-2.1 2.3-3.4 5.3-3.5 8.4h-3.1c.1-4 1.7-7.7 4.4-10.6l2.2 2.2zm-3.5 9.5c0 .5 0 1.1.1 1.6 0-.1-.1-.1-.1-.2-.2-.2-.3-.4-.4-.4-.1 0-.3.1-.3.2-.1.1-.1.2-.2.3-.2.2-.5.3-.8.4-.2.3-.4.6-.4.9-.1.1-.1.2 0 .3.1.1 0 .2-.1.3.1.2.1.3.1.4v.1h-.2c0 .1-.1.1-.1.2-.4-1.3-.6-2.7-.7-4.1h3.1zm12.6 20.2c-5.1-.1-10-2.2-13.8-5.7l2.4-2.4c3.1 2.9 7.1 4.6 11.4 4.7v3.4zm0-4.4c-3.9-.1-7.7-1.7-10.5-4.4.2.1.4.2.6.2.2 0 .4-.1.6-.2l.6-.3c.2 0 .5 0 .7-.2h.5c.2 0 .3-.2.3-.4s-.1-.3-.3-.4c-.2-.1-.3-.2-.3-.3 0-.1 0-.1-.1-.2l-.5-.5c2.3 2.1 5.3 3.4 8.4 3.5v3.2zm.6-8.2c-.2 0-.5 0-.7-.1 0-.1 0-.1-.1-.2.1-.1.2-.2.3-.2.1-.1.3-.2.4-.2v-.2l.5-.4c.1 0 .1-.1.2-.1s.3-.1.4-.1c.2.1.4.1.6.3.2.1.4.2.6.2l.1-.3c.1 0 .2.1.4.3.1 0 .3-.1.4-.1v-.4c.1 0 .1 0 .2.1h.3c.1 0 .3-.1.4-.2.1-.1.3-.2.4-.3h.1c.1.1.1.2.1.3 0 .4-.3.7-.6.9-.3.2-.7.3-1.1.4-.1.1-.1.2-.2.3-.1.2-.1.3-.2.3-.3 0-.6-.1-.9-.1-.1-.1-.2-.3-.2-.4-.2 0-.4 0-.5.1l-.6.1h-.3zm3.2-2.4c0-.2.2-.4.4-.5.2-.1.4-.1.6-.1 0 .1-.1.3-.4.4-.2.1-.4.2-.6.2zm2.2-1.8c.2.1.3.3.3.5 0 .1-.1.3-.2.3h-.1c-.1 0-.3-.2-.4-.5-.3-.1-.5-.3-.6-.5-.1-.2 0-.4.1-.4s.2-.1.3-.1c.1 0 .1.1.1.3l.5.4zm7-12.2c.1 0 .1 0 .1.1.2 0 .4.1.5.1.3.3.6.7.9 1.1l.4.4c.1 0 .3-.1.4-.1 0-.1 0-.1.1-.2.9 2 1.4 4.1 1.5 6.2h-3.1v-.1c0-.3 0-.6-.2-.8-.2-.3-.2-.7-.1-1.1.1-.2.1-.4 0-.6-.1 0-.2 0-.3.1-.1.1-.1.2-.2.3-.1.2-.1.3-.2.4 0 0 0 .1-.1.1 0 .1 0 .1-.1.2l-.1.6v.8h-1.6c.1-.1.3-.2.5-.2l.4-.2c-.1 0-.1-.1-.1-.2s0-.2.1-.2l.4-.2c.2-.2.3-.4.4-.7.3-.4.5-.9.6-1.4 0-.1-.1-.3-.2-.4v-.3c0-.5.2-1.4-.4-1.6-.1 0-.1-.1-.1-.2.2-.1.2-.4.1-.6h-.5c0-.1.1-.2.1-.2.1-.1.1-.2.1-.3 0-.1-.1-.2-.2-.2h-.1c-.1 0-.3 0-.4.1-.1 0-.1.1-.2.1h.1l-.1-.1c0-.3-.1-.5-.3-.7-.2-.2-.4-.3-.6-.4v-.3l.6-.6.9.3c0 .2.1.4.2.5.1.1.2.2.3.2.1.1.2.2.4.3.1-.1.2 0 .1 0zm-3 21.2c-.1-.1-.1-.1-.2-.1s-.1 0-.1-.1.1-.2.2-.3c.2-.1.3-.3.4-.5.1-.1.1-.3.1-.4 0-.1 0-.2-.1-.2s-.2-.1-.3-.2c-.1 0-.2-.1-.3-.1-.1-.1-.3-.1-.4-.2-.1-.1-.2-.2-.2-.4 0-.1.1-.2.1-.4l.1-.2.2-.1 1.7 1.7c0 .2.1.3.3.3l.2.2c-.6.5-1.2 1.1-1.9 1.5 0-.1.1-.1.1-.2l.1-.1v-.2zm-1-8c-.1 0-.3 0-.4.1-.2.1-.4.2-.4.4v.1c-.1 0-.2 0-.3.1-.1 0-.2.1-.4.1-.1 0-.2 0-.2-.1s.2-.2.6-.3l.4-.4c.1-.1.2-.1.3-.1.2-.1.4-.3.6-.5.1-.1.2-.3.3-.5h.1c0 .2.1.4.3.4.2 0 .3-.2.4-.5.2.1.4.1.6.1.2 0 .4-.1.5-.3h.9v.2c-.5 1.6-1.3 3.1-2.4 4.4v-.2c-.1-.2-.2-.4-.3-.7-.1 0-.2.2-.4.5s-.2.6-.3.6l-.7.1c-.2 0-.4.1-.7.1-.2 0-.4-.1-.6-.2l-.6-.3c-.2-.1-.4-.1-.6-.1-.3 0-.4-.1-.4-.2s.1-.2.3-.2c.2 0 .4 0 .6.1l.9.2c.3.1.6.1.8.2.1 0 .3.1.4.1l.4-.1c0-.1.1-.3.1-.4.1-.1.1-.3.1-.4.1-.3.2-.5.3-.8.1-.3.1-.6.1-.9 0-.2-.1-.4-.2-.4l-.1-.2zm2-4.4h1.7c0 .7-.1 1.4-.3 2.1-.1-.2-.2-.5-.4-.6l-.6-.6c0-.2-.1-.3-.1-.5 0-.1-.1-.1-.1-.2l-.2-.2zm.7 8.9c-.1 0-.2 0-.2.1 0 .2 0 .3-.1.5l-1.1-1.1c1.5-1.6 2.5-3.5 3.1-5.7h.1c.2.1.4.1.5 0 .1-.1.1-.1.1-.2s-.1-.3-.4-.6h-.1c.1-.6.2-1.3.2-1.9h3.1c-.1 4-1.7 7.8-4.4 10.6l-.1-.1c0-.3-.1-.7-.2-1-.1-.3-.3-.6-.5-.6zm-.8-15.8c0 .1 0 .3-.1.4 0 .1-.1.2-.1.4.2.2.4.4.6.5.2.2.4.3.6.5.1.3.3.5.3.8.1.3.1.5.2.8 0 .2-.1.4-.2.5-.1.3-.4.4-.7.4l-.1-.1c0-.2.1-.3.1-.4.1-.1.1-.3.1-.4.2-.1.3-.3.3-.4l-.2-.1c-.1-.1-.3-.2-.4-.3 0-.1-.1-.2-.4-.2-.1 0-.3 0-.4.1l-.4.2-.1-.3c0-.1.1-.2.1-.3l-.6-1c-.3-.1-.5-.2-.8-.2H218c-.2 0-.4 0-.6.2-.2.1-.3.3-.5.5-.1.1 0 .2-.2.2l-.2-.2 3.3-3.3.4.4.3.4c.4.2.7.5.9.9zm-7.9 21.8c.3.2.6.4.9.5-.9.2-1.8.3-2.8.3V36c.1.2.3.4.5.5.2.1.4.1.6.1.3 0 .5.1.5.2s0 .2-.1.3c-.1.1-.1.2-.1.3 0 .4.2.7.5.9zm-1.9 5.3v-3.3c1.2 0 2.4-.2 3.6-.5v.2c.3.2.5.4.7.7.1.2.4.3.8.3.2 0 .3 0 .5-.2.1-.1.2-.2.2-.3.1-.1.2-.2.4-.2.1 0 .2-.1.3-.2.2-.1.4-.2.5-.4.2-.2.4-.4.4-.6.1 0 .2-.1.3-.2.1-.2.2-.5.3-.8l.1-.1v-.1c1.2-.7 2.2-1.4 3.2-2.3l2.4 2.4c-3.7 3.4-8.6 5.5-13.7 5.6zm14.5-6.5l-2.4-2.4c2.9-3.1 4.6-7.1 4.7-11.4h3.3c0 5.2-2 10.1-5.6 13.8zm5.8-14.9h-3.3c-.1-3.5-1.3-6.9-3.4-9.7 0-.1-.1-.2-.2-.3l-.2-.2c-.3-.4-.6-.7-.9-1 0-.1-.1-.2-.1-.2l2.3-2.3c3.6 3.7 5.6 8.6 5.8 13.7zM211.6 2c5.1.1 10 2.2 13.8 5.7l-2 2c0-.1-.1-.2-.1-.3-.1-.1-.2-.2-.3-.2-.2-.1-.3-.3-.3-.5s-.1-.3-.2-.5c-.3-.1-.6-.4-.7-.7-.2-.3-.4-.5-.6-.5-.2.1-.3.1-.5 0-.1-.1-.3-.1-.5-.1s-.4 0-.5.1c-.2.1-.4.1-.6.2l-.1.1c-2.2-1.1-4.6-1.8-7.1-1.9.2-.3.2-.5.1-.6-.1-.1-.1 0-.3.2l-.1-3zm0 4.4c2.4.1 4.7.7 6.8 1.7v.1l.3.3c.1.1.2.2.2.3.1.2.1.4.2.6.1.1.1.2.2.4-.1.2 0 .4.1.6.1.2.3.4.4.6h.7c.1 0 .2.1.3.2.1.1.2.3.2.4 0 .1 0 .2.1.2l-.9.9c-.1-.4-.2-.8-.4-1.2-.2-.1-.4-.2-.6-.2 0-.1-.2-.3-.5-.6-.3-.4-.4-.6-.5-.6-.1 0-.2 0-.2.1s.1.2.1.3c0 .1.1.2.3.5 0 .1 0 .1-.1.1 0 .2.2.3.4.4l-.1.1.2.4c-2.1-1.5-4.6-2.4-7.2-2.5V6.4zm0 4.3c2.8.1 5.5 1.2 7.6 3.2l-2.2 2.3c-1.5-1.3-3.4-2.1-5.4-2.2v-3.3zm0 4.3c1.6.1 3.1.7 4.4 1.7l-.2.2s-.1.1-.1.2.2.2.3.2l-.9.9c-.1.1-.2.1-.3.2-.2.1-.3.2-.3.3 0 .1-.1.2-.1.2l-.3.3h-.1c-.1 0-.2-.1-.4-.3-.2-.2-.3-.3-.4-.3-.1 0-.3 0-.3.1-.1.1-.2.1-.3 0-.1-.1 0-.2.3-.3l.6-.3c.4-.3.6-.7.6-1.2 0-.2-.1-.4-.3-.4l-.2.2c-.2.1-.4.2-.5.4l-.4.4c-.1-.1-.3-.1-.4-.1h-.4l-.3-2.4zm-.6 5c0 .1.1.1.1.1.1 0 .2 0 .4.1.1.1.3.1.4 0 0 .1 0 .1.1.1.1.1.2.2.3.1l.1.1v.1l.1.3v.1h.4v.8h.1v.1c-.1.1-.2.3-.2.4 0 .1.1.1.2.1s.2 0 .3.1c.1.1.2.3.2.4v.6c0 .1 0 .2.1.2s.1.1.1.1c0 .2 0 .4-.1.5 0 .2-.1.3-.2.5h-.4c-.2 0-.4-.1-.5-.1-.1 0-.2.1-.3.4-.1.2-.2.4-.2.6-.1.2-.2.3-.3.3h-.4l-.2.4-.1.1c-.8-.1-1.6-.4-2.2-1l.4-.4c.2 0 .5-.1.7-.2h.1c.4-.2.4-.5.6-.8.2-.3.5-.5.2-.7.3-.6-1.2-.6-1.5-.5-.3.1-.1.5-.3.7-.2.2-.2.1-.4.2-.2.2-.4.5-.6.8-.1-.2-.2-.4-.2-.6h.1v-.1h.1v.1h.4c.1 0 .1-.3.1-.4.1-.3.2-.6.4-.9-.1 0-.1-.1-.2-.2 0-.1-.1-.1-.2-.1s-.1.1-.1.2-.1.2-.1.3c-.1.1-.2.1-.3.1 0-.1-.1-.2-.2-.2h-.1c-.1 0-.2.1-.3.1-.2 0-.5 0-.7.1h-.7c-.1-.1 0-.2.4-.3 0-.3.1-.7.4-.9.1.1.3.1.4.1l.1-.1h.1c.1 0 .2.1.3.4.1.3.1.4.2.4s.1 0 .2-.1v-.4c.1-.4.2-.7.2-.8v-.2c.1-.1.1-.3.2-.4h.1c.1-.1.2-.1.3-.2.1-.1.1-.3.1-.5l.8-.3c.4-.1.6-.3.6-.5l.5-.1c0 .8 0 .9.1.9zm-.5-18v3.3c-4.3.1-8.3 1.8-11.4 4.7l-2.4-2.4c3.8-3.4 8.7-5.5 13.8-5.6zM196 8.5l2.4 2.4c-2.9 3.1-4.6 7.1-4.7 11.4h-3.3c0-5.2 2.1-10.1 5.6-13.8z" fill="#5090cd" fill-rule="nonzero"/><g fill="#1b344a" fill-rule="nonzero"><path d="M60.64 91.625c.106 0 .16.053.16.133v3.674c0 .107-.054.16-.16.16h-4.287c-.4 5.272-3.622 7.908-9.692 7.908h-1.438c-1.837 0-3.435-.4-4.793-1.172a7.795 7.795 0 01-3.115-3.248c-.719-1.411-1.065-3.009-1.065-4.82 0-1.25.16-2.502.453-3.807.292-1.304.718-2.45 1.251-3.488h4.34a31.324 31.324 0 00-.825 3.701 22.298 22.298 0 00-.293 3.621c0 1.598.4 2.876 1.198 3.835.799.958 1.864 1.41 3.195 1.41h.985c1.704 0 2.956-.452 3.755-1.384.798-.905 1.198-2.21 1.198-3.86V79.27h4.899v12.355h4.233zM46.314 79.244c-.693 0-1.225-.213-1.625-.64-.399-.425-.585-1.011-.585-1.73 0-.746.186-1.331.585-1.757.4-.426.932-.64 1.625-.64.665 0 1.198.214 1.597.64.4.426.586 1.011.586 1.757 0 .719-.213 1.305-.612 1.73-.426.427-.932.64-1.571.64z"/><path d="M66.258 91.625c.106 0 .186.053.186.133v3.674c0 .107-.053.16-.186.16h-5.965c-.106 0-.16-.053-.16-.16v-3.674c0-.08.054-.133.16-.133h5.965z"/><path d="M71.902 91.625c.107 0 .187.053.187.133v3.674c0 .107-.054.16-.187.16h-5.964c-.106 0-.16-.053-.16-.16v-3.674c0-.08.054-.133.16-.133h5.964z"/><path d="M77.547 91.625c.107 0 .186.053.186.133v3.674c0 .107-.053.16-.186.16h-5.964c-.107 0-.16-.053-.16-.16v-3.674c0-.08.053-.133.16-.133h5.964z"/><path d="M77.2 95.592c-.106 0-.159-.053-.159-.16v-3.674c0-.08.053-.133.16-.133h5.059c-.826-.373-1.465-.985-1.944-1.864-.48-.879-.719-1.837-.719-2.902 0-2.477.826-4.42 2.45-5.831 1.624-1.412 3.86-2.13 6.683-2.13.959 0 1.97.106 3.035.319 1.065.213 1.89.48 2.503.746l-1.384 3.86a13.426 13.426 0 00-2.264-.772 10.234 10.234 0 00-2.023-.213c-1.358 0-2.397.346-3.142 1.065-.746.72-1.118 1.757-1.118 3.115 0 1.332.372 2.423 1.145 3.275.772.852 1.784 1.278 3.062 1.278h6.044v3.968H77.2v.053zM129.042 91.625c.106 0 .16.053.16.133v3.674c0 .107-.054.16-.16.16h-9.985c-3.035 0-5.405-.719-7.11-2.13-1.677-1.411-2.529-3.408-2.529-5.938 0-1.624.4-3.062 1.172-4.313.772-1.252 1.89-2.237 3.328-2.902 1.438-.693 3.169-1.012 5.14-1.012h.904v-1.598h4.953v13.926h4.127zm-9.053.026v-8.413h-.879c-1.49 0-2.662.372-3.461 1.118-.799.745-1.225 1.81-1.225 3.195 0 1.305.4 2.316 1.198 3.035.8.72 1.944 1.065 3.435 1.065h.932zm-3.062-16.055c-.666 0-1.225-.213-1.598-.64-.399-.425-.585-1.011-.585-1.73 0-.745.186-1.331.585-1.757.4-.426.932-.64 1.625-.64.665 0 1.198.214 1.597.64.4.426.586 1.012.586 1.757 0 .746-.186 1.331-.586 1.757a2.32 2.32 0 01-1.624.613zm5.591 0c-.665 0-1.224-.213-1.597-.64-.4-.425-.586-1.011-.586-1.73 0-.745.187-1.331.586-1.757.4-.426.932-.64 1.624-.64.692 0 1.225.214 1.598.64.4.426.585 1.012.585 1.757 0 .719-.213 1.305-.612 1.73-.4.427-.932.64-1.598.64z"/><path d="M134.66 91.625c.106 0 .186.053.186.133v3.674c0 .107-.053.16-.186.16h-5.964c-.107 0-.16-.053-.16-.16v-3.674c0-.08.053-.133.16-.133h5.964z"/><path d="M140.278 91.625c.107 0 .186.053.186.133v3.674c0 .107-.053.16-.186.16h-5.964c-.107 0-.16-.053-.16-.16v-3.674c0-.08.053-.133.16-.133h5.964z"/><path d="M145.923 91.625c.106 0 .186.053.186.133v3.674c0 .107-.053.16-.186.16h-5.964c-.107 0-.16-.053-.16-.16v-3.674c0-.08.053-.133.16-.133h5.964z"/><path d="M149.304 91.625c-.585-1.358-.878-2.876-.878-4.553 0-.959.16-1.997.479-3.089.32-1.118.719-2.05 1.198-2.849a15.124 15.124 0 013.382-1.411c1.198-.32 2.236-.48 3.142-.48 1.49 0 2.875.32 4.1.96 1.225.638 2.183 1.543 2.849 2.715.666 1.172 1.012 2.53 1.012 4.1 0 1.678-.4 3.169-1.172 4.447-.772 1.278-1.864 2.29-3.248 3.009-1.385.719-2.902 1.091-4.58 1.091h-10.011c-.107 0-.16-.053-.16-.16v-3.647c0-.08.053-.133.16-.133h3.727zm3.675-3.834c0 1.118.24 2.396.745 3.86h1.252c1.331 0 2.45-.452 3.328-1.33.905-.88 1.331-1.971 1.331-3.25 0-1.17-.293-2.103-.852-2.795-.559-.692-1.331-1.038-2.263-1.038-.985 0-2.024.292-3.062.905-.32 1.171-.48 2.37-.48 3.648zM178.753 91.625c.106 0 .16.053.16.133v3.674c0 .107-.054.16-.16.16h-9.026V70.537h4.899v21.088h4.127z"/><path d="M184.398 91.625c.106 0 .186.053.186.133v3.674c0 .107-.053.16-.186.16h-5.965c-.106 0-.16-.053-.16-.16v-3.674c0-.08.054-.133.16-.133h5.965z"/><path d="M190.016 91.625c.106 0 .186.053.186.133v3.674c0 .107-.053.16-.186.16h-5.965c-.106 0-.16-.053-.16-.16v-3.674c0-.08.054-.133.16-.133h5.965z"/><path d="M209.932 91.625c.106 0 .16.053.16.133v3.674c0 .107-.054.16-.16.16h-4.18c-1.039 0-2.104-.186-3.222-.532-1.118-.347-2.077-.8-2.876-1.332-2.023 1.225-4.073 1.864-6.124 1.864h-3.834c-.106 0-.16-.053-.16-.16v-3.674c0-.08.054-.133.16-.133h3.302c.506 0 1.038-.054 1.624-.187.586-.106 1.092-.266 1.464-.452-.665-.506-1.358-1.305-2.076-2.37a19.669 19.669 0 01-1.89-3.568c-.533-1.278-.906-2.53-1.093-3.728 1.278-1.065 2.77-1.917 4.447-2.529 1.677-.612 3.275-.932 4.82-.932 3.141 0 5.91.666 8.28 1.97 0 2.37-.48 4.58-1.438 6.55-.958 1.997-2.263 3.515-3.94 4.553.825.453 1.81.666 2.982.666h3.754v.027zm-10.224-2.663c2.582-1.544 3.967-3.7 4.153-6.523-.958-.4-2.183-.586-3.727-.586-.72 0-1.465.133-2.29.373-.826.24-1.465.532-1.944.878.32 1.225.825 2.343 1.491 3.409.692 1.065 1.465 1.89 2.317 2.45z"/><path d="M209.612 95.592c-.106 0-.16-.053-.16-.16v-3.674c0-.08.054-.133.16-.133h4.128V70.537h4.899v25.055h-9.027zM225.242 70.537h4.9v25.055h-4.9zM266.433 91.625c.106 0 .16.053.16.133v3.674c0 .107-.054.16-.16.16h-9.985c-3.036 0-5.405-.719-7.11-2.13-1.677-1.411-2.529-3.408-2.529-5.938 0-1.624.4-3.062 1.172-4.313.772-1.252 1.89-2.237 3.328-2.902 1.438-.693 3.168-1.012 5.139-1.012h.905v-1.598h4.953v13.926h4.127zm-9.027.026v-8.413h-.878c-1.491 0-2.663.372-3.462 1.118-.799.745-1.225 1.81-1.225 3.195 0 1.305.4 2.316 1.199 3.035.798.72 1.943 1.065 3.434 1.065h.932zm-3.088-16.055c-.666 0-1.225-.213-1.598-.64-.4-.425-.586-1.011-.586-1.73 0-.745.187-1.331.586-1.757.4-.426.932-.64 1.624-.64.666 0 1.198.214 1.598.64.4.426.586 1.012.586 1.757 0 .746-.187 1.331-.586 1.757-.426.4-.959.613-1.624.613zm5.618 0c-.666 0-1.225-.213-1.598-.64-.4-.425-.586-1.011-.586-1.73 0-.745.187-1.331.586-1.757.4-.426.932-.64 1.624-.64.693 0 1.225.214 1.598.64.4.426.586 1.012.586 1.757 0 .719-.213 1.305-.613 1.73-.426.427-.958.64-1.597.64z"/><path d="M272.05 91.625c.107 0 .187.053.187.133v3.674c0 .107-.053.16-.186.16h-5.965c-.106 0-.16-.053-.16-.16v-3.674c0-.08.054-.133.16-.133h5.965z"/><path d="M277.695 91.625c.107 0 .187.053.187.133v3.674c0 .107-.053.16-.187.16h-5.964c-.106 0-.16-.053-.16-.16v-3.674c0-.08.054-.133.16-.133h5.964z"/><path d="M283.314 91.625c.106 0 .186.053.186.133v3.674c0 .107-.053.16-.186.16h-5.965c-.106 0-.16-.053-.16-.16v-3.674c0-.08.054-.133.16-.133h5.965z"/><path d="M288.958 91.625c.107 0 .187.053.187.133v3.674c0 .107-.054.16-.187.16h-5.964c-.107 0-.16-.053-.16-.16v-3.674c0-.08.053-.133.16-.133h5.964z"/><path d="M294.576 91.625c.107 0 .187.053.187.133v3.674c0 .107-.054.16-.187.16h-5.964c-.106 0-.16-.053-.16-.16v-3.674c0-.08.054-.133.16-.133h5.964z"/><path d="M294.257 95.592c-.107 0-.16-.053-.16-.16v-3.674c0-.08.053-.133.16-.133h13.313c-.879-.826-1.544-2.397-2.024-4.713-.293-1.491-.745-2.53-1.331-3.115-.586-.586-1.464-.906-2.636-.906-.772 0-1.491.107-2.183.293-.666.187-1.412.506-2.21.959l-1.491-3.621c1.97-1.065 4.26-1.571 6.896-1.571 2.21 0 3.914.506 5.139 1.49 1.224.986 2.023 2.61 2.423 4.873.559 3.275 1.33 5.379 2.29 6.337h2.13c.106 0 .186.054.186.134v3.674c0 .106-.053.16-.186.16h-20.316v-.027z"/><path d="M320.27 91.625c.107 0 .187.053.187.133v3.674c0 .107-.053.16-.186.16h-5.965c-.106 0-.16-.053-.16-.16v-3.674c0-.08.054-.133.16-.133h5.965z"/><path d="M325.889 91.625c.106 0 .186.053.186.133v3.674c0 .107-.053.16-.186.16h-5.965c-.106 0-.16-.053-.16-.16v-3.674c0-.08.054-.133.16-.133h5.965z"/><path d="M329.297 91.625c-.586-1.358-.879-2.876-.879-4.553 0-.959.16-1.997.48-3.089.319-1.118.718-2.05 1.198-2.849a15.124 15.124 0 013.381-1.411c1.198-.32 2.237-.48 3.142-.48 1.491 0 2.876.32 4.1.96 1.225.638 2.184 1.543 2.85 2.715.665 1.172 1.011 2.53 1.011 4.1a9.67 9.67 0 01-.612 3.409c.4.426.852.718 1.358.905.506.186 1.145.266 1.917.266h.186c.107 0 .16.053.16.133v3.675c0 .106-.053.16-.16.16h-.186c-1.172 0-2.157-.16-3.009-.48-.852-.32-1.65-.905-2.423-1.704a8.814 8.814 0 01-2.876 1.65c-1.091.374-2.21.56-3.354.56h-10.012c-.106 0-.16-.053-.16-.16v-3.674c0-.08.054-.133.16-.133h3.728zm3.674-3.834c0 1.118.24 2.396.746 3.86h1.251c1.331 0 2.45-.452 3.328-1.33.906-.88 1.332-1.971 1.332-3.25 0-1.17-.293-2.103-.852-2.795-.56-.692-1.332-1.038-2.264-1.038-.985 0-2.023.292-3.062.905-.32 1.171-.479 2.37-.479 3.648z"/><path d="M353.047 91.625c.107 0 .187.053.187.133v3.674c0 .107-.054.16-.187.16h-5.964c-.106 0-.16-.053-.16-.16v-3.674c0-.08.054-.133.16-.133h5.964z"/><path d="M352.728 95.592c-.107 0-.16-.053-.16-.16v-3.674c0-.08.053-.133.16-.133h4.127V70.537h4.899v21.088h4.287c.106 0 .16.053.16.133v3.674c0 .107-.054.16-.16.16h-13.313z"/><path d="M365.721 95.592c-.106 0-.16-.053-.16-.16v-3.674c0-.08.054-.133.16-.133h4.127V70.537h4.9v25.055h-9.027zM381.35 70.537h4.9v25.055h-4.9z"/></g><path d="M94.558 143.292c-1.183 0-2.204-.161-3.037-.51-.833-.323-1.72-.968-2.607-1.936-.242-.242-.807-.994-1.694-2.23-1.048-1.452-1.881-2.447-2.473-2.93-.59-.511-1.155-.753-1.693-.753-.35 0-.806.188-1.344.565a6.29 6.29 0 00-1.37 1.29c-.377.484-.565.887-.565 1.236 0 .457.188.86.564 1.183.404.35 1.022.645 1.855.94 1.425.484 2.473.914 3.145 1.371.672.43 1.182.968 1.532 1.586.35.618.51 1.344.51 2.177 0 1.962-.806 3.467-2.392 4.489-1.585 1.021-3.978 1.532-7.176 1.532h-7.849c-1.263 0-2.419-.323-3.44-.968s-1.828-1.559-2.392-2.714c-.565-1.156-.86-2.473-.86-3.925 0-2.177.35-4.3 1.075-6.423h4.408c-.269.913-.457 1.8-.564 2.607a32.25 32.25 0 00-.135 3.09c0 .753.188 1.479.565 2.15.376.673.86 1.21 1.478 1.587.618.376 1.263.564 1.908.564h5.779c1.8 0 3.037-.134 3.682-.403s.995-.726.995-1.37c0-.377-.188-.7-.538-.968-.35-.27-.94-.511-1.747-.726-1.854-.484-3.145-1.102-3.897-1.908-.726-.78-1.075-1.855-1.075-3.199 0-1.156.43-2.365 1.263-3.655.833-1.264 1.935-2.339 3.252-3.226 1.344-.86 2.607-1.317 3.844-1.317.726 0 1.37.135 1.989.403.618.27 1.182.7 1.774 1.264.564.564 1.505 1.747 2.795 3.601 1.021 1.452 1.828 2.42 2.473 2.85.618.43 1.29.644 2.016.644h.161c.108 0 .188.054.188.135v3.71c0 .107-.054.16-.188.16h-.215v.027zM72.545 159.5c-.672 0-1.237-.215-1.613-.645-.403-.43-.591-1.022-.591-1.747 0-.753.188-1.344.591-1.774.403-.43.94-.645 1.64-.645.672 0 1.21.215 1.612.645.377.43.592 1.021.592 1.774 0 .752-.188 1.344-.592 1.774-.43.43-.967.618-1.64.618zm5.671 0c-.672 0-1.236-.215-1.613-.645-.403-.43-.59-1.022-.59-1.747 0-.753.187-1.344.59-1.774.404-.43.941-.645 1.64-.645s1.236.215 1.613.645c.403.43.591 1.021.591 1.774 0 .725-.215 1.317-.618 1.747-.43.457-.968.645-1.613.645z" fill="#1b344a" fill-rule="nonzero"/><path d="M100.417 139.287c.108 0 .189.054.189.135v3.709c0 .107-.054.161-.189.161h-6.02c-.108 0-.162-.054-.162-.161v-3.71c0-.08.054-.134.162-.134h6.02z" fill="#1b344a" fill-rule="nonzero"/><path d="M100.068 143.292c-.107 0-.161-.054-.161-.161v-3.71c0-.08.054-.134.161-.134h4.166v-12.471h4.946v16.476h-9.112zm6.612-19.325c-.699 0-1.236-.215-1.64-.645-.403-.43-.59-1.022-.59-1.747 0-.753.187-1.344.59-1.774.404-.43.941-.645 1.64-.645.672 0 1.21.215 1.613.645.403.43.591 1.021.591 1.774 0 .725-.215 1.317-.618 1.747-.403.43-.94.645-1.586.645zM124.473 139.287c.108 0 .162.054.162.135v3.709c0 .107-.054.161-.162.161h-9.111V118h4.945v21.287h4.166z" fill="#1b344a" fill-rule="nonzero"/><path d="M130.172 139.287c.107 0 .188.054.188.135v3.709c0 .107-.054.161-.188.161h-6.021c-.108 0-.161-.054-.161-.161v-3.71c0-.08.053-.134.16-.134h6.022z" fill="#1b344a" fill-rule="nonzero"/><path d="M135.843 139.287c.107 0 .188.054.188.135v3.709c0 .107-.054.161-.188.161h-6.02c-.108 0-.162-.054-.162-.161v-3.71c0-.08.054-.134.161-.134h6.02z" fill="#1b344a" fill-rule="nonzero"/><path d="M141.541 139.287c.108 0 .188.054.188.135v3.709c0 .107-.053.161-.188.161h-6.02c-.108 0-.162-.054-.162-.161v-3.71c0-.08.054-.134.161-.134h6.021z" fill="#1b344a" fill-rule="nonzero"/><path d="M176.268 139.287c.107 0 .188.054.188.135v3.709c0 .107-.054.161-.188.161h-11.235c-1.882 0-3.602-.833-5.215-2.5-1.236 1.667-3.09 2.5-5.563 2.5h-13.036c-.108 0-.162-.054-.162-.161v-3.71c0-.08.054-.134.162-.134h4.166v-9.864h4.945v9.864h2.823c1.102 0 1.908-.295 2.419-.913.51-.619.779-1.586.779-2.93v-6.02h4.946v6.423c0 .538-.027 1.048-.108 1.505.538.726 1.075 1.237 1.613 1.532.537.296 1.236.43 2.096.43h2.07v-12.498h4.945v12.471h4.355z" fill="#1b344a" fill-rule="nonzero"/><path d="M181.966 139.287c.107 0 .188.054.188.135v3.709c0 .107-.054.161-.188.161h-6.02c-.108 0-.162-.054-.162-.161v-3.71c0-.08.054-.134.161-.134h6.02z" fill="#1b344a" fill-rule="nonzero"/><path d="M187.664 139.287c.108 0 .188.054.188.135v3.709c0 .107-.053.161-.188.161h-6.02c-.108 0-.162-.054-.162-.161v-3.71c0-.08.054-.134.161-.134h6.021z" fill="#1b344a" fill-rule="nonzero"/><path d="M200.78 139.287c.108 0 .162.054.162.135v3.709c0 .107-.054.161-.161.161h-13.44c-.107 0-.16-.054-.16-.161v-3.71c0-.08.053-.134.16-.134h4.167v-12.471h4.945v12.471h4.328zm-6.853-15.32c-.7 0-1.237-.215-1.64-.645-.403-.43-.591-1.022-.591-1.747 0-.753.188-1.344.591-1.774.403-.43.94-.645 1.64-.645.672 0 1.21.215 1.612.645.404.43.592 1.021.592 1.774 0 .725-.215 1.317-.618 1.747-.404.43-.941.645-1.586.645z" fill="#1b344a" fill-rule="nonzero"/><path d="M200.431 143.292c-.107 0-.161-.054-.161-.161v-3.71c0-.08.054-.134.161-.134h4.166V118h4.946v25.292h-9.112zM215.16 151.41l1.882-.296a2.804 2.804 0 01-1.102-.914 2.29 2.29 0 01-.43-1.344c0-.94.322-1.666.994-2.204.672-.538 1.56-.806 2.688-.806 1.102 0 2.016.188 2.742.591l-.672 1.693c-.618-.295-1.21-.43-1.801-.43-.484 0-.86.135-1.156.43-.295.296-.43.672-.43 1.183 0 .672.323 1.156.995 1.505l.591-.107c1.075-.162 1.989-.296 2.688-.35v1.935c-.78.054-2.097.189-3.924.404-1.828.215-2.85.349-3.091.43v-1.72h.027zm1.076-33.41h4.945v25.292h-4.945V118zM227.847 118h4.946v25.292h-4.946zM258.65 151.302c-1.855 0-3.468-.403-4.839-1.183a7.869 7.869 0 01-3.144-3.279c-.726-1.424-1.076-3.037-1.076-4.865 0-1.263.162-2.526.457-3.843a14.69 14.69 0 011.264-3.521h4.38a31.62 31.62 0 00-.832 3.736 22.509 22.509 0 00-.296 3.655c0 1.613.403 2.903 1.21 3.87.806.968 1.88 1.425 3.225 1.425h.994c1.72 0 2.984-.457 3.79-1.398.807-.913 1.21-2.23 1.21-3.897V118h4.945v21.287h4.328c.107 0 .16.054.16.135v3.709c0 .107-.053.161-.16.161h-4.381c-.404 5.322-3.656 7.983-9.784 7.983h-1.452v.027z" fill="#1b344a" fill-rule="nonzero"/><path d="M279.937 139.287c.107 0 .188.054.188.135v3.709c0 .107-.054.161-.188.161h-6.02c-.108 0-.162-.054-.162-.161v-3.71c0-.08.054-.134.161-.134h6.021z" fill="#1b344a" fill-rule="nonzero"/><path d="M285.635 139.287c.108 0 .188.054.188.135v3.709c0 .107-.053.161-.188.161h-6.02c-.108 0-.162-.054-.162-.161v-3.71c0-.08.054-.134.161-.134h6.021z" fill="#1b344a" fill-rule="nonzero"/><path d="M291.306 139.287c.108 0 .189.054.189.135v3.709c0 .107-.054.161-.189.161h-6.02c-.108 0-.162-.054-.162-.161v-3.71c0-.08.054-.134.162-.134h6.02z" fill="#1b344a" fill-rule="nonzero"/><path d="M297.005 139.287c.107 0 .188.054.188.135v3.709c0 .107-.054.161-.188.161h-6.021c-.108 0-.161-.054-.161-.161v-3.71c0-.08.053-.134.16-.134h6.022z" fill="#1b344a" fill-rule="nonzero"/><path d="M300.445 139.287c-.618-1.344-.914-2.876-.914-4.569 0-.968.161-2.016.484-3.118.323-1.129.726-2.07 1.21-2.876a15.267 15.267 0 013.413-1.424c1.21-.323 2.258-.484 3.172-.484 1.505 0 2.903.322 4.139.968 1.236.645 2.204 1.558 2.876 2.741.672 1.183 1.021 2.554 1.021 4.14 0 1.209-.215 2.365-.618 3.44.403.43.86.725 1.37.914.512.188 1.157.268 1.936.268h.188c.108 0 .161.054.161.135v3.709c0 .107-.053.161-.16.161h-.189c-1.183 0-2.177-.161-3.037-.484-.86-.322-1.667-.913-2.446-1.72a8.898 8.898 0 01-2.903 1.667c-1.102.376-2.23.564-3.387.564h-10.106c-.107 0-.161-.054-.161-.161v-3.736c0-.08.054-.135.161-.135h3.79zm3.682-3.87c0 1.129.242 2.419.753 3.897h1.263c1.344 0 2.473-.457 3.36-1.344.914-.887 1.344-1.989 1.344-3.279 0-1.182-.296-2.123-.86-2.822-.565-.699-1.344-1.048-2.285-1.048-.994 0-2.043.295-3.09.914a13.835 13.835 0 00-.485 3.682z" fill="#1b344a" fill-rule="nonzero"/><path d="M338.827 139.287c.108 0 .161.054.161.135v3.709c0 .107-.053.161-.16.161h-4.22c-1.049 0-2.124-.188-3.253-.537-1.129-.35-2.097-.807-2.903-1.344-2.043 1.236-4.112 1.881-6.182 1.881h-3.843c-.108 0-.162-.054-.162-.161v-3.71c0-.08.054-.134.162-.134h3.332c.511 0 1.049-.053 1.64-.188.591-.107 1.102-.269 1.478-.457-.672-.51-1.37-1.317-2.096-2.392a20.79 20.79 0 01-1.909-3.602c-.537-1.29-.913-2.553-1.102-3.762 1.29-1.076 2.796-1.936 4.49-2.554 1.692-.618 3.305-.94 4.864-.94 3.172 0 5.967.671 8.36 1.988 0 2.392-.485 4.623-1.452 6.612-.968 2.016-2.285 3.548-3.978 4.597.833.456 1.828.671 3.01.671h3.763v.027zm-10.321-2.687c2.607-1.56 4.005-3.737 4.193-6.586-.968-.403-2.204-.59-3.763-.59-.726 0-1.478.133-2.312.375-.833.242-1.478.538-1.962.887a12.29 12.29 0 001.505 3.44c.7 1.076 1.479 1.91 2.339 2.474z" fill="#1b344a" fill-rule="nonzero"/><path d="M338.505 143.292c-.108 0-.162-.054-.162-.161v-3.71c0-.08.054-.134.162-.134h4.166V118h4.945v25.292h-9.111zM354.282 118h4.946v25.292h-4.946z" fill="#1b344a" fill-rule="nonzero"/><g fill-rule="nonzero"><path d="M20.228 191.878v-2.57l8.971-9.99c1.607-1.794 2.705-3.213 3.268-4.285.562-1.044.856-2.142.856-3.24 0-1.366-.401-2.517-1.205-3.455-.803-.937-1.874-1.392-3.186-1.392-1.902 0-3.294.482-4.178 1.446-.884.964-1.34 2.33-1.34 4.097h-3.561l-.027-.107c-.053-2.357.723-4.338 2.357-5.945 1.633-1.607 3.883-2.41 6.775-2.41 2.464 0 4.446.723 5.892 2.169 1.473 1.446 2.196 3.267 2.196 5.49 0 1.5-.455 3-1.34 4.472-.883 1.5-2.141 3.107-3.748 4.847l-7.204 7.847.027.107h9.748l.294-3.133h3.133v6.052H20.228zM59.461 181.38c0 3.509-.777 6.187-2.33 8.061-1.553 1.875-3.695 2.785-6.374 2.785-2.678 0-4.82-.937-6.373-2.812-1.58-1.874-2.357-4.552-2.357-8.034v-6.507c0-3.482.777-6.187 2.33-8.061 1.553-1.875 3.669-2.812 6.374-2.812 2.705 0 4.847.937 6.4 2.812 1.58 1.874 2.357 4.553 2.357 8.06v6.508h-.027zm-3.722-7.284c0-2.383-.429-4.15-1.286-5.356-.857-1.205-2.115-1.794-3.75-1.794-1.606 0-2.865.589-3.722 1.794-.857 1.205-1.285 2.973-1.285 5.356v8.034c0 2.384.428 4.178 1.312 5.383.857 1.205 2.116 1.821 3.723 1.821 1.633 0 2.892-.59 3.749-1.821.857-1.205 1.259-3 1.259-5.383v-8.034zM63.532 191.878v-2.57l8.971-9.99c1.607-1.794 2.705-3.213 3.267-4.285.563-1.044.857-2.142.857-3.24 0-1.366-.401-2.517-1.205-3.455-.803-.937-1.874-1.392-3.187-1.392-1.901 0-3.294.482-4.177 1.446-.884.964-1.34 2.33-1.34 4.097h-3.561l-.027-.107c-.054-2.357.723-4.338 2.357-5.945 1.633-1.607 3.883-2.41 6.775-2.41 2.464 0 4.446.723 5.892 2.169 1.473 1.446 2.196 3.267 2.196 5.49 0 1.5-.456 3-1.34 4.472-.883 1.5-2.142 3.107-3.749 4.847l-7.203 7.847.026.107h9.748l.295-3.133h3.133v6.052H63.532zM85.304 189.468l4.231-.536v-20.54l-4.311.08v-2.33l8.034-1.74v24.53l4.231.536v2.383H85.331v-2.383h-.027z" fill="#5090cd"/><path d="M140.364 191.851c-1.178 0-2.196-.16-3.026-.508-.83-.322-1.714-.964-2.598-1.929-.24-.24-.803-.99-1.687-2.222-1.044-1.446-1.874-2.437-2.463-2.92-.59-.481-1.152-.75-1.688-.75-.348 0-.803.188-1.339.563-.535.375-.99.804-1.365 1.286s-.563.91-.563 1.258c0 .456.188.857.563 1.179.375.321.99.642 1.82.91 1.42.482 2.464.937 3.134 1.366.67.428 1.178.964 1.526 1.58.349.616.51 1.339.51 2.17 0 1.954-.804 3.454-2.384 4.471-1.58 1.018-3.964 1.527-7.15 1.527h-7.82c-1.26 0-2.41-.321-3.428-.964-1.018-.643-1.821-1.553-2.384-2.705-.562-1.151-.857-2.464-.857-3.91 0-2.17.348-4.285 1.072-6.4h4.391c-.267.91-.455 1.794-.562 2.597-.08.83-.134 1.848-.134 3.08 0 .75.188 1.473.563 2.142.375.67.857 1.206 1.473 1.58.615.375 1.258.563 1.9.563h5.732c1.794 0 3.026-.134 3.669-.402.643-.268.99-.723.99-1.366 0-.375-.187-.696-.535-.964-.375-.267-.937-.508-1.74-.723-1.849-.482-3.134-1.098-3.857-1.901-.723-.777-1.098-1.848-1.098-3.187 0-1.152.428-2.357 1.259-3.642.83-1.259 1.928-2.33 3.24-3.214 1.34-.857 2.598-1.312 3.83-1.312.723 0 1.365.134 1.981.402.616.268 1.179.696 1.768 1.258.562.563 1.5 1.741 2.785 3.589 1.018 1.446 1.821 2.41 2.464 2.839a3.446 3.446 0 002.008.642h.161c.107 0 .188.054.188.134v3.696c0 .107-.054.16-.188.16h-.16v.027zM118.431 208c-.67 0-1.232-.214-1.607-.643-.401-.428-.589-1.017-.589-1.74 0-.75.188-1.34.59-1.768.401-.428.937-.643 1.633-.643.67 0 1.205.215 1.607.643.402.428.59 1.018.59 1.768s-.188 1.339-.59 1.767c-.429.402-.964.616-1.634.616zm5.65 0c-.669 0-1.231-.214-1.606-.643-.402-.428-.59-1.017-.59-1.74 0-.75.188-1.34.59-1.768.402-.428.937-.643 1.634-.643.696 0 1.232.215 1.607.643.401.428.589 1.018.589 1.768 0 .723-.215 1.312-.616 1.74-.429.429-.964.643-1.607.643z" fill="#1b344a"/><path d="M146.176 187.861c.107 0 .187.054.187.134v3.696c0 .107-.053.16-.187.16h-6c-.106 0-.16-.053-.16-.16v-3.696c0-.08.054-.134.16-.134h6z" fill="#1b344a"/><path d="M151.853 187.861c.107 0 .188.054.188.134v3.696c0 .107-.054.16-.188.16h-5.999c-.107 0-.16-.053-.16-.16v-3.696c0-.08.053-.134.16-.134h6z" fill="#1b344a"/><path d="M157.53 187.861c.108 0 .188.054.188.134v3.696c0 .107-.054.16-.187.16h-6c-.106 0-.16-.053-.16-.16v-3.696c0-.08.054-.134.16-.134h6z" fill="#1b344a"/><path d="M163.181 187.861c.107 0 .188.054.188.134v3.696c0 .107-.054.16-.188.16h-5.999c-.107 0-.16-.053-.16-.16v-3.696c0-.08.053-.134.16-.134h6z" fill="#1b344a"/><path d="M168.859 187.861c.107 0 .187.054.187.134v3.696c0 .107-.054.16-.187.16h-6c-.106 0-.16-.053-.16-.16v-3.696c0-.08.054-.134.16-.134h6z" fill="#1b344a"/><path d="M174.536 187.861c.107 0 .187.054.187.134v3.696c0 .107-.053.16-.187.16h-5.999c-.107 0-.16-.053-.16-.16v-3.696c0-.08.053-.134.16-.134h5.999z" fill="#1b344a"/><path d="M180.187 187.861c.107 0 .187.054.187.134v3.696c0 .107-.053.16-.187.16h-6c-.106 0-.16-.053-.16-.16v-3.696c0-.08.054-.134.16-.134h6z" fill="#1b344a"/><path d="M185.864 187.861c.107 0 .188.054.188.134v3.696c0 .107-.054.16-.188.16h-5.999c-.107 0-.16-.053-.16-.16v-3.696c0-.08.053-.134.16-.134h6z" fill="#1b344a"/><path d="M191.515 187.861c.107 0 .187.054.187.134v3.696c0 .107-.053.16-.187.16h-6c-.106 0-.16-.053-.16-.16v-3.696c0-.08.054-.134.16-.134h6z" fill="#1b344a"/><path d="M197.192 187.861c.107 0 .188.054.188.134v3.696c0 .107-.054.16-.188.16h-5.999c-.107 0-.16-.053-.16-.16v-3.696c0-.08.053-.134.16-.134h6z" fill="#1b344a"/><path d="M200.62 187.861c-.59-1.366-.884-2.892-.884-4.58 0-.963.161-2.008.482-3.106.322-1.125.723-2.062 1.205-2.865a15.212 15.212 0 013.402-1.42c1.205-.321 2.25-.482 3.16-.482 1.5 0 2.892.322 4.124.964 1.232.643 2.196 1.554 2.865 2.732.67 1.178 1.018 2.544 1.018 4.124a9.725 9.725 0 01-.616 3.428c.402.429.857.723 1.366.91.509.188 1.151.268 1.928.268h.187c.108 0 .161.054.161.134v3.696c0 .107-.053.16-.16.16h-.188c-1.178 0-2.17-.16-3.026-.481-.857-.322-1.66-.91-2.437-1.714a8.865 8.865 0 01-2.893 1.66 10.373 10.373 0 01-3.374.562h-10.07c-.106 0-.16-.053-.16-.16v-3.696c0-.08.054-.134.16-.134h3.75zm3.669-3.883c0 1.125.241 2.41.75 3.883h1.258c1.34 0 2.464-.455 3.348-1.339.91-.884 1.339-1.982 1.339-3.267 0-1.178-.295-2.116-.857-2.812-.562-.696-1.339-1.044-2.276-1.044-.991 0-2.036.294-3.08.91a13.93 13.93 0 00-.482 3.669z" fill="#1b344a"/><path d="M224.508 187.861c.107 0 .188.054.188.134v3.696c0 .107-.054.16-.188.16h-5.999c-.107 0-.16-.053-.16-.16v-3.696c0-.08.053-.134.16-.134h6z" fill="#1b344a"/><path d="M230.185 187.861c.108 0 .188.054.188.134v3.696c0 .107-.054.16-.188.16h-5.998c-.107 0-.161-.053-.161-.16v-3.696c0-.08.054-.134.16-.134h6z" fill="#1b344a"/><path d="M235.836 187.861c.107 0 .188.054.188.134v3.696c0 .107-.054.16-.188.16h-5.999c-.107 0-.16-.053-.16-.16v-3.696c0-.08.053-.134.16-.134h6z" fill="#1b344a"/><path d="M241.514 187.861c.107 0 .187.054.187.134v3.696c0 .107-.054.16-.187.16h-6c-.106 0-.16-.053-.16-.16v-3.696c0-.08.054-.134.16-.134h6z" fill="#1b344a"/><path d="M247.164 187.861c.107 0 .188.054.188.134v3.696c0 .107-.054.16-.188.16h-5.999c-.107 0-.16-.053-.16-.16v-3.696c0-.08.053-.134.16-.134h6z" fill="#1b344a"/><path d="M246.843 191.851c-.107 0-.16-.053-.16-.16v-3.696c0-.08.053-.134.16-.134h4.15v-21.21h4.928v25.2h-9.078zM271.668 187.861c.107 0 .16.054.16.134v3.696c0 .107-.053.16-.16.16h-9.078v-25.2h4.927v21.21h4.151z" fill="#1b344a"/><path d="M277.319 187.861c.107 0 .187.054.187.134v3.696c0 .107-.053.16-.187.16h-5.999c-.107 0-.16-.053-.16-.16v-3.696c0-.08.053-.134.16-.134h5.999z" fill="#1b344a"/><path d="M282.996 187.861c.107 0 .188.054.188.134v3.696c0 .107-.054.16-.188.16h-5.999c-.107 0-.16-.053-.16-.16v-3.696c0-.08.053-.134.16-.134h6z" fill="#1b344a"/><path d="M288.647 187.861c.107 0 .187.054.187.134v3.696c0 .107-.053.16-.187.16h-5.999c-.107 0-.16-.053-.16-.16v-3.696c0-.08.053-.134.16-.134h5.999z" fill="#1b344a"/><path d="M294.324 187.861c.107 0 .188.054.188.134v3.696c0 .107-.054.16-.188.16h-5.998c-.108 0-.161-.053-.161-.16v-3.696c0-.08.053-.134.16-.134h6z" fill="#1b344a"/><path d="M300.002 187.861c.107 0 .187.054.187.134v3.696c0 .107-.053.16-.187.16h-6c-.106 0-.16-.053-.16-.16v-3.696c0-.08.054-.134.16-.134h6z" fill="#1b344a"/><path d="M305.652 187.861c.107 0 .188.054.188.134v3.696c0 .107-.054.16-.188.16h-5.998c-.108 0-.161-.053-.161-.16v-3.696c0-.08.053-.134.16-.134h6z" fill="#1b344a"/><path d="M311.33 187.861c.107 0 .187.054.187.134v3.696c0 .107-.053.16-.187.16h-5.999c-.107 0-.16-.053-.16-.16v-3.696c0-.08.053-.134.16-.134h5.999z" fill="#1b344a"/><path d="M316.98 187.861c.108 0 .188.054.188.134v3.696c0 .107-.054.16-.188.16h-5.998c-.107 0-.161-.053-.161-.16v-3.696c0-.08.054-.134.16-.134h6z" fill="#1b344a"/><path d="M322.658 187.861c.107 0 .187.054.187.134v3.696c0 .107-.053.16-.187.16h-5.999c-.107 0-.16-.053-.16-.16v-3.696c0-.08.053-.134.16-.134h5.999z" fill="#1b344a"/><path d="M328.335 187.861c.107 0 .188.054.188.134v3.696c0 .107-.054.16-.188.16h-5.999c-.107 0-.16-.053-.16-.16v-3.696c0-.08.053-.134.16-.134h6z" fill="#1b344a"/><path d="M333.986 187.861c.107 0 .187.054.187.134v3.696c0 .107-.053.16-.187.16h-5.999c-.107 0-.16-.053-.16-.16v-3.696c0-.08.053-.134.16-.134h5.999z" fill="#1b344a"/><path d="M339.663 187.861c.107 0 .188.054.188.134v3.696c0 .107-.054.16-.188.16h-5.998c-.108 0-.161-.053-.161-.16v-3.696c0-.08.053-.134.16-.134h6z" fill="#1b344a"/><path d="M345.314 187.861c.107 0 .187.054.187.134v3.696c0 .107-.053.16-.187.16h-5.999c-.107 0-.16-.053-.16-.16v-3.696c0-.08.053-.134.16-.134h5.999z" fill="#1b344a"/><path d="M365.346 187.861c.107 0 .16.054.16.134v3.696c0 .107-.053.16-.16.16h-4.205c-1.044 0-2.115-.187-3.24-.535-1.125-.348-2.09-.804-2.893-1.34-2.035 1.233-4.097 1.875-6.159 1.875h-3.83c-.107 0-.16-.053-.16-.16v-3.696c0-.08.053-.134.16-.134h3.321c.509 0 1.045-.053 1.634-.187.589-.107 1.098-.268 1.473-.456-.67-.508-1.366-1.312-2.09-2.383a20.714 20.714 0 01-1.9-3.589c-.536-1.285-.911-2.544-1.099-3.749 1.286-1.071 2.786-1.928 4.473-2.544 1.687-.616 3.294-.937 4.847-.937 3.16 0 5.945.67 8.329 1.982 0 2.383-.482 4.606-1.446 6.587-.965 2.009-2.277 3.535-3.964 4.58.83.455 1.821.67 3 .67h3.749v.026zm-10.284-2.678c2.598-1.553 3.99-3.722 4.178-6.561-.964-.402-2.196-.59-3.75-.59-.723 0-1.472.135-2.303.376-.83.24-1.473.535-1.955.883.322 1.232.83 2.357 1.5 3.428.696 1.072 1.473 1.875 2.33 2.464z" fill="#1b344a"/><path d="M371.023 187.861c.107 0 .188.054.188.134v3.696c0 .107-.054.16-.188.16h-5.999c-.107 0-.16-.053-.16-.16v-3.696c0-.08.053-.134.16-.134h6z" fill="#1b344a"/><path d="M376.7 187.861c.108 0 .188.054.188.134v3.696c0 .107-.054.16-.187.16h-6c-.106 0-.16-.053-.16-.16v-3.696c0-.08.054-.134.16-.134h6z" fill="#1b344a"/><path d="M382.351 187.861c.107 0 .188.054.188.134v3.696c0 .107-.054.16-.188.16h-5.999c-.107 0-.16-.053-.16-.16v-3.696c0-.08.053-.134.16-.134h6z" fill="#1b344a"/><path d="M382.03 191.851c-.107 0-.16-.053-.16-.16v-3.696c0-.08.053-.134.16-.134h4.15v-21.21h4.928v25.2h-9.078zM397.75 166.651h4.927v25.2h-4.927z" fill="#1b344a"/></g></svg>
