<?xml version="1.0" encoding="utf-8"?>
<!-- Generator: Adobe Illustrator 24.3.0, SVG Export Plug-In . SVG Version: 6.00 Build 0)  -->
<svg version="1.1" id="Layer_1" xmlns="http://www.w3.org/2000/svg" xmlns:xlink="http://www.w3.org/1999/xlink" x="0px" y="0px"
   viewBox="0 0 426 208" style="enable-background:new 0 0 426 208;" xml:space="preserve">
<style type="text/css">
  .st0{enable-background:new    ;}
  .st1{fill:#1B344A;}
  .st2{fill:#5090CD;}
</style>
<g class="st0">
  <path class="st1" d="M143.3,111.3c-1.2,1.2-3,2.3-5.3,3.2c-2.3,1-5.2,1.4-8.7,1.4c-5,0-9.1-1.7-12.2-5c-3.1-3.3-4.7-7.7-4.7-13
    v-1.3c0-5.5,1.5-10,4.6-13.5c3.1-3.5,7.1-5.2,12.1-5.2c2.9,0,5.5,0.5,7.9,1.4c2.4,0.9,4.4,2.2,6,3.7v7.4h-5.5l-1-5
    c-0.7-0.6-1.6-1-2.7-1.4c-1.1-0.3-2.4-0.5-3.8-0.5c-3.2,0-5.7,1.2-7.5,3.6c-1.8,2.4-2.7,5.5-2.7,9.4v1.3c0,3.8,0.9,6.8,2.6,9
    c1.8,2.2,4.3,3.4,7.6,3.4c1.5,0,2.7-0.1,3.6-0.4c0.9-0.3,1.6-0.5,2.2-0.9v-6.3l-5.3-0.4v-5.2h12.7V111.3z"/>
  <path class="st1" d="M147,115.5V111l3.9-0.8V83.7L147,83v-4.5h3.9h7.4h4V83l-4,0.8v26.1h10.4l0.4-4.6h5.7v10.3H147z"/>
  <path class="st1" d="M210.7,97.3c0,5.4-1.5,9.9-4.6,13.4s-7.2,5.3-12.2,5.3c-5,0-9-1.8-12.1-5.3s-4.6-8-4.6-13.4v-0.6
    c0-5.4,1.5-9.9,4.6-13.4c3.1-3.6,7.1-5.3,12.1-5.3c5,0,9.1,1.8,12.2,5.3c3.1,3.6,4.7,8,4.7,13.4V97.3z M203.3,96.6
    c0-3.8-0.8-6.9-2.4-9.3c-1.6-2.4-3.9-3.6-7.1-3.6c-3.1,0-5.4,1.2-7,3.6c-1.5,2.4-2.3,5.5-2.3,9.3v0.6c0,3.9,0.8,7,2.3,9.4
    s3.9,3.6,7,3.6c3.1,0,5.5-1.2,7.1-3.6s2.4-5.5,2.4-9.4V96.6z"/>
  <path class="st1" d="M230.1,78.5c4.3,0,7.7,0.8,10.2,2.5s3.7,4.2,3.7,7.6c0,1.7-0.5,3.2-1.4,4.6s-2.2,2.4-3.9,3
    c2.2,0.5,3.9,1.5,5,3s1.7,3.4,1.7,5.4c0,3.5-1.2,6.2-3.5,8s-5.6,2.7-9.9,2.7h-18.2V111l3.9-0.8V83.7l-3.9-0.8v-4.5h3.9H230.1z
     M225,94h5.3c2,0,3.5-0.4,4.6-1.2s1.6-2,1.6-3.6c0-1.7-0.5-3-1.6-3.8s-2.7-1.2-4.8-1.2H225V94z M225,99.1v10.7h6.8
    c2,0,3.5-0.4,4.5-1.3c1-0.9,1.5-2.1,1.5-3.8c0-1.8-0.4-3.2-1.3-4.2c-0.9-1-2.3-1.4-4.2-1.4H225z"/>
  <path class="st1" d="M247.6,111l2.6-0.4l11.2-32.1h7.6l11.2,32.1l2.6,0.4v4.4h-12.6V111l2.6-0.5l-1.6-5.1h-12l-1.6,5.1l2.6,0.5v4.4
    h-12.6V111z M261,100h8.5l-4.2-13h-0.2L261,100z"/>
  <path class="st1" d="M285.4,115.5V111l3.9-0.8V83.7l-3.9-0.8v-4.5h3.9h7.4h4V83l-4,0.8v26.1h10.4l0.4-4.6h5.7v10.3H285.4z"/>
</g>
<g class="st0">
  <path class="st1" d="M2.4,129v-4.5h15.3v4.5l-4,0.8v10.7h15.1v-10.7l-4-0.8v-4.5h4h7.4h4v4.5l-4,0.8v26.5l4,0.8v4.4H24.9V157l4-0.8
    v-10.2H13.8v10.2l4,0.8v4.4H2.4V157l3.9-0.8v-26.5L2.4,129z"/>
  <path class="st1" d="M58,124.5v4.5l-4,0.8V149c0,2.4,0.7,4.3,2,5.5c1.3,1.2,3.1,1.8,5.4,1.8c2.3,0,4.1-0.6,5.5-1.8s2-3,2-5.5v-19.3
    l-3.9-0.8v-4.5h15.3v4.5l-4,0.8V149c0,4.1-1.4,7.3-4.1,9.6c-2.7,2.3-6.3,3.4-10.8,3.4c-4.4,0-8-1.1-10.7-3.4s-4.1-5.5-4.1-9.6
    v-19.3l-3.9-0.8v-4.5h3.9H54H58z"/>
  <path class="st1" d="M118,134.1l-0.2,0l-9.9,27.4h-5l-9.9-27.3l-0.2,0l0.7,16.2v5.8l4,0.8v4.4H82.4V157l3.9-0.8v-26.5l-3.9-0.8
    v-4.5h3.9H96l9.4,27.2h0.2l9.5-27.2h13.7v4.5l-4,0.8v26.5l4,0.8v4.4h-15.3V157l3.9-0.8v-5.8L118,134.1z"/>
  <path class="st1" d="M130.9,157l2.6-0.4l11.2-32.1h7.6l11.2,32.1l2.6,0.4v4.4h-12.6V157l2.6-0.5l-1.6-5.1h-12l-1.6,5.1l2.6,0.5v4.4
    h-12.6V157z M144.4,146h8.5l-4.2-13h-0.2L144.4,146z"/>
  <path class="st1" d="M206.5,124.5v4.5l-4,0.8v31.7h-7.4l-14.9-24.9l-0.2,0v19.7l4,0.8v4.4h-15.3V157l3.9-0.8v-26.5l-3.9-0.8v-4.5
    h3.9h7.4l14.9,24.9l0.2,0v-19.6l-4-0.8v-4.5h11.3H206.5z"/>
  <path class="st1" d="M208.8,129v-4.5h15.3v4.5l-4,0.8v26.5l4,0.8v4.4h-15.3V157l4-0.8v-26.5L208.8,129z"/>
  <path class="st1" d="M259.5,124.5v9.9h-5.7l-0.3-4.1h-6.8v26.1l4,0.8v4.4h-15.3V157l4-0.8v-26.1h-6.8l-0.3,4.1h-5.7v-9.9H259.5z"/>
  <path class="st1" d="M257,157l2.6-0.4l11.2-32.1h7.6l11.2,32.1l2.6,0.4v4.4h-12.6V157l2.6-0.5l-1.6-5.1h-12l-1.6,5.1l2.6,0.5v4.4
    H257V157z M270.4,146h8.5l-4.2-13h-0.2L270.4,146z"/>
  <path class="st1" d="M311.3,124.5c4.2,0,7.5,1,9.9,2.9s3.6,4.6,3.6,8c0,1.9-0.5,3.5-1.5,4.8s-2.5,2.5-4.4,3.3
    c2.2,0.6,3.8,1.7,4.7,3.2s1.4,3.4,1.4,5.6v1.9c0,0.8,0.2,1.4,0.5,1.9s0.9,0.7,1.6,0.8l0.9,0.1v4.5h-3.8c-2.4,0-4.1-0.7-5.1-2
    s-1.5-3-1.5-5.1v-2.1c0-1.8-0.5-3.2-1.4-4.2s-2.3-1.6-4-1.6H306v9.8l4,0.8v4.4h-15.3V157l3.9-0.8v-26.5l-3.9-0.8v-4.5h3.9H311.3z
     M306,140.8h5.1c2.1,0,3.6-0.4,4.6-1.3s1.5-2.1,1.5-3.8s-0.5-3-1.5-4s-2.5-1.5-4.5-1.5H306V140.8z"/>
  <path class="st1" d="M330.4,129v-4.5h15.3v4.5l-4,0.8v26.5l4,0.8v4.4h-15.3V157l4-0.8v-26.5L330.4,129z"/>
  <path class="st1" d="M348.2,157l2.6-0.4l11.2-32.1h7.6l11.2,32.1l2.6,0.4v4.4h-12.6V157l2.6-0.5l-1.6-5.1h-12l-1.6,5.1l2.6,0.5v4.4
    h-12.6V157z M361.6,146h8.5l-4.2-13h-0.2L361.6,146z"/>
  <path class="st1" d="M423.7,124.5v4.5l-4,0.8v31.7h-7.4l-14.9-24.9l-0.2,0v19.7l4,0.8v4.4h-15.3V157l3.9-0.8v-26.5l-3.9-0.8v-4.5
    h3.9h7.4l14.9,24.9l0.2,0v-19.6l-4-0.8v-4.5h11.3H423.7z"/>
</g>
<g class="st0">
  <path class="st1" d="M48,189.3c0,5.4-1.5,9.9-4.6,13.4s-7.2,5.3-12.2,5.3c-5,0-9-1.8-12.1-5.3s-4.6-8-4.6-13.4v-0.6
    c0-5.4,1.5-9.9,4.6-13.4c3.1-3.6,7.1-5.3,12.1-5.3c5,0,9.1,1.8,12.2,5.3c3.1,3.6,4.7,8,4.7,13.4V189.3z M40.6,188.6
    c0-3.8-0.8-6.9-2.4-9.3c-1.6-2.4-3.9-3.6-7.1-3.6c-3.1,0-5.4,1.2-7,3.6c-1.5,2.4-2.3,5.5-2.3,9.3v0.6c0,3.9,0.8,7,2.3,9.4
    s3.9,3.6,7,3.6c3.1,0,5.5-1.2,7.1-3.6s2.4-5.5,2.4-9.4V188.6z"/>
  <path class="st1" d="M63.4,175l-2.8,0.5l6.6,22.2l0.5,2h0.2l0.4-2l6.6-22.2l-2.8-0.5v-4.5h13.5v4.5l-3.1,0.4l-10.9,32.1h-7.6
    l-10.9-32.1l-3-0.4v-4.5h13.5V175z"/>
  <path class="st1" d="M111.5,191.2H99v10.6H111l0.3-4.4h5.6v10.1H87.7V203l3.9-0.8v-26.5l-3.9-0.8v-4.5h3.9h25.3v10.1h-5.7l-0.3-4.4
    H99v9.3h12.5V191.2z"/>
  <path class="st1" d="M137.5,170.5c4.2,0,7.5,1,9.9,2.9s3.6,4.6,3.6,8c0,1.9-0.5,3.5-1.5,4.8c-1,1.4-2.5,2.5-4.4,3.3
    c2.2,0.6,3.8,1.7,4.7,3.2c1,1.5,1.4,3.4,1.4,5.6v1.9c0,0.8,0.2,1.4,0.5,1.9c0.3,0.4,0.9,0.7,1.6,0.8l0.9,0.1v4.5h-3.8
    c-2.4,0-4.1-0.7-5.1-2c-1-1.3-1.5-3-1.5-5.1v-2.1c0-1.8-0.5-3.2-1.4-4.2c-1-1-2.3-1.6-4-1.6h-6.1v9.8l4,0.8v4.4h-15.3V203l3.9-0.8
    v-26.5l-3.9-0.8v-4.5h3.9H137.5z M132.2,186.8h5.1c2.1,0,3.6-0.4,4.6-1.3c1-0.9,1.5-2.1,1.5-3.8s-0.5-3-1.5-4c-1-1-2.5-1.5-4.5-1.5
    h-5.3V186.8z"/>
  <path class="st1" d="M167.3,175l-2.8,0.5l6.6,22.2l0.5,2h0.2l0.4-2l6.6-22.2l-2.8-0.5v-4.5h13.5v4.5l-3.1,0.4l-10.9,32.1h-7.6
    l-10.9-32.1l-3-0.4v-4.5h13.5V175z"/>
  <path class="st1" d="M191.6,175v-4.5h15.3v4.5l-4,0.8v26.5l4,0.8v4.4h-15.3V203l4-0.8v-26.5L191.6,175z"/>
  <path class="st1" d="M233.6,191.2h-12.5v10.6H233l0.3-4.4h5.6v10.1h-29.3V203l3.9-0.8v-26.5l-3.9-0.8v-4.5h3.9h25.3v10.1h-5.7
    l-0.3-4.4h-11.8v9.3h12.5V191.2z"/>
  <path class="st1" d="M290.8,175l-3,0.4l-7.5,32.1h-6.9l-6.8-24.4h-0.2l-6.8,24.4h-6.9l-7.5-32.1l-3-0.4v-4.5h13.6v4.5l-3.4,0.6
    l4.2,20.3l0.2,0l6.9-25.3h5.5l7,25.3l0.2,0l4.2-20.3l-3.4-0.6v-4.5h13.6V175z"/>
</g>
<g class="st0">
  <path class="st2" d="M306.8,207.5V204l12.1-13.5c2.2-2.4,3.6-4.3,4.4-5.8s1.2-2.9,1.2-4.4c0-1.8-0.5-3.4-1.6-4.7s-2.5-1.9-4.3-1.9
    c-2.6,0-4.4,0.7-5.6,2s-1.8,3.1-1.8,5.5h-4.8l-0.1-0.2c-0.1-3.2,1-5.9,3.2-8s5.2-3.2,9.1-3.2c3.3,0,6,1,8,2.9s3,4.4,3,7.4
    c0,2-0.6,4-1.8,6s-2.9,4.2-5,6.5l-9.7,10.6l0.1,0.1h13.1l0.4-4.2h4.2v8.2H306.8z"/>
  <path class="st2" d="M359.7,193.4c0,4.7-1,8.3-3.1,10.9s-5,3.8-8.6,3.8c-3.6,0-6.5-1.3-8.6-3.8s-3.2-6.1-3.2-10.8v-8.8
    c0-4.7,1-8.3,3.1-10.9s5-3.8,8.6-3.8c3.6,0,6.5,1.3,8.6,3.8s3.2,6.1,3.2,10.9V193.4z M354.7,183.5c0-3.2-0.6-5.6-1.7-7.2
    s-2.8-2.4-5.1-2.4c-2.2,0-3.9,0.8-5,2.4s-1.7,4-1.7,7.2v10.8c0,3.2,0.6,5.6,1.8,7.2s2.8,2.5,5,2.5c2.2,0,3.9-0.8,5-2.4
    s1.7-4,1.7-7.3V183.5z"/>
  <path class="st2" d="M365.2,207.5V204l12.1-13.5c2.2-2.4,3.6-4.3,4.4-5.8s1.2-2.9,1.2-4.4c0-1.8-0.5-3.4-1.6-4.7s-2.5-1.9-4.3-1.9
    c-2.6,0-4.4,0.7-5.6,2s-1.8,3.1-1.8,5.5h-4.8l-0.1-0.2c-0.1-3.2,1-5.9,3.2-8s5.2-3.2,9.1-3.2c3.3,0,6,1,8,2.9s3,4.4,3,7.4
    c0,2-0.6,4-1.8,6s-2.9,4.2-5,6.5l-9.7,10.6l0.1,0.1h13.1l0.4-4.2h4.2v8.2H365.2z"/>
  <path class="st2" d="M394.5,204.3l5.7-0.7v-27.7l-5.8,0.1v-3.1l10.8-2.3v33.1l5.7,0.7v3.2h-16.4V204.3z"/>
</g>
<path id="Path_878" class="st2" d="M186.7,15.2c0.8-0.6,1.7-1.4,2.8-2.3c0.4-0.3,0.7-0.6,1-0.9c0.3-0.3,0.5-0.6,0.6-0.9
  c0.2-0.4,0.4-0.8,0.5-1.3l0.7-2.1h-0.1c-0.3,0.7-0.7,1.3-1.3,1.8c-0.5,0.5-1.1,0.9-1.7,1.3c-0.6,0.4-1.3,0.9-1.8,1.4
  c-0.7,0.7-1.2,1.4-1.6,2.3v-0.1c0.4-1.3,0.8-2.3,1-3.2s0.4-1.6,0.6-2.3c0.1-0.6,0.3-1.2,0.6-1.7c0.3-0.5,0.7-1,1.2-1.3V5.9
  c-1.3,0.4-2.5,1.2-3.2,2.3c-0.8,1.2-1.3,2.6-1.2,4.1v5.1C185.3,16.5,186,15.8,186.7,15.2z M190.1,9c0.7-0.7,1.3-1.4,1.9-2.2l1.6-2.1
  c0.5-0.6,1.1-1.2,1.7-1.8l-0.1-0.1c-0.5,0.4-1,0.7-1.6,0.9c-0.7,0.2-1.4,0.5-2.1,0.9c-0.8,0.5-1.6,1.2-2.1,2.1
  c-0.8,1.3-1.4,2.7-1.7,4.2C188.6,10.4,189.4,9.8,190.1,9z M182,28c0.5,0.7,1,1.5,1.6,2.1c0.7,0.8,1.3,1.7,1.8,2.6l0,0
  c-0.1-0.4-0.1-0.8-0.1-1.2v-1c0.1-0.7,0.2-1.3,0.4-1.9c0.3-0.9,0.6-1.9,0.9-3s0.6-2.2,0.8-3.3c0.2-1,0.3-2,0.2-3h-0.1
  c-0.2,0.7-0.4,1.3-0.8,1.9l-1.1,1.9c-0.4,0.7-0.7,1.4-1,2.1c-0.3,0.8-0.4,1.6-0.4,2.4c0,0.4,0.1,0.8,0.2,1.2
  c0.1,0.3,0.1,0.6,0.2,0.9h-0.1c-0.2-1-0.5-2.1-0.8-3c-0.4-1-0.7-1.9-1.1-2.7s-0.6-1.6-0.9-2.3c-0.2-0.5-0.3-1.1-0.4-1.7
  c0-0.4,0-0.8,0.1-1.2c0-0.4,0-0.7,0-1.1h-0.1c-0.2,0.6-0.4,1.2-0.6,1.9c-0.2,0.8-0.3,1.5-0.3,2.3c0,1.2,0.1,2.4,0.4,3.5
  C181.1,26.4,181.5,27.2,182,28z M195.2,47.7c0.3,0,0.5,0,0.8,0c0.4,0,0.7,0,1.1-0.1l1.3-0.2c0.5-0.1,1.2-0.3,2.1-0.5
  c0.9-0.2,2-0.5,3.4-0.8c-0.9-0.2-1.7-0.5-2.4-0.7c-0.7-0.3-1.4-0.7-2-1.3c-0.8-0.7-1.6-1.5-2.5-2.2c-0.6-0.6-1.3-1.2-2-1.8
  c-0.2-0.2-1.1-1-1.4-1.3l-0.1,0.1c0.1,0.2,1,2,1,2c0.1,0.1,0.1,0.2,0.2,0.3c0.2,0.4,0.5,0.9,0.7,1.3l0.3,0.5c0.3,0.6,0.7,1,1.2,1.4
  c0.9,0.7,2,1.3,3.1,1.5l0,0l-1.6-0.2l-1.2-0.2c-0.4,0-0.7-0.1-1.1-0.1s-0.9,0-1.3-0.1s-0.7-0.1-1-0.2l-1-0.1c-0.2,0-0.3,0-0.5-0.1
  c-0.6-0.1-1.2-0.2-1.8-0.3c-0.6-0.2-1.1-0.4-1.6-0.7c-0.6-0.4-1.2-0.8-1.8-1.3l-0.1,0.1c0.3,0.5,0.6,1,1,1.4c0.5,0.5,1,1,1.5,1.5
  c0.7,0.5,1.4,0.9,2.1,1.2c0.9,0.4,1.9,0.6,2.9,0.7L195.2,47.7L195.2,47.7z M183.9,24.9h0.1c0-0.4,0.1-0.8,0.2-1.2
  c0.1-0.4,0.3-0.8,0.5-1.2c0.3-0.6,0.7-1.2,1.1-1.7l1.9-2.8c0.5-0.8,0.9-1.6,1.1-2.6c0.3-1,0.5-1.7,0.6-2.1h-0.1
  c-0.1,0.2-0.2,0.4-0.3,0.6c-0.1,0.2-0.3,0.4-0.5,0.6s-0.4,0.5-0.8,0.8l-1.3,1.2c-0.8,0.7-1.4,1.5-1.9,2.4c-0.3,0.8-0.6,1.6-0.7,2.4
  H184c0-0.4,0-0.8,0.1-1.1s0-0.8,0-1.4c0-0.7-0.1-1.6-0.1-2.5s-0.1-2.2-0.1-3.8c0-0.5,0.1-0.9,0.3-1.4c0.2-0.4,0.4-0.9,0.5-1.2h-0.1
  c-0.9,1.1-1.6,2.3-2.1,3.7c-0.4,1.1-0.5,2.2-0.6,3.4c0,1.3,0.3,2.6,0.7,3.8C183.1,22,183.6,23.5,183.9,24.9z M191.5,43.7l3,0.7
  l1.6,0.4c-0.6-0.6-1.1-1.3-1.5-2c-0.4-0.6-0.7-1.3-0.9-2c-0.3-0.8-0.7-1.8-1.2-3.2c-0.1-0.4-0.3-0.8-0.5-1.2
  c-0.2-0.3-0.4-0.7-0.6-1.1s-0.5-0.8-0.8-1.2s-0.7-1-1.2-1.7l-0.1,0.1c0.1,0.5,0.4,1.3,0.6,2.6s0.5,2.4,0.8,3.6
  c0.2,0.8,0.5,1.6,1,2.3c0.6,0.8,1.3,1.5,2,2.1l-0.1,0.1c-0.6-0.3-1.2-0.7-1.8-1.2c-0.8-0.7-1.7-1.2-2.6-1.7c-1.5-0.7-3-1.5-4.4-2.4
  c-1.1-0.7-1.9-1.7-2.4-2.9l-0.1,0.1c0.3,1.2,0.7,2.3,1.4,3.3c0.6,0.9,1.3,1.8,2.2,2.5c0.8,0.7,1.7,1.3,2.7,1.8
  C189.5,43.1,190.4,43.5,191.5,43.7L191.5,43.7z M184.7,36.2l5.3,3.6c-0.2-0.4-0.4-0.9-0.6-1.4c-0.2-0.5-0.3-1-0.4-1.5
  c-0.1-0.5-0.2-1.1-0.2-1.8s-0.1-1.4-0.2-2.4c-0.2-1.6-0.4-2.8-0.5-3.7c-0.2-1-0.4-1.9-0.8-2.8h-0.1c0,0.7,0,1.4-0.1,2.1
  c-0.1,0.5-0.2,1.1-0.3,1.6c-0.1,0.5-0.2,0.9-0.3,1.4c-0.1,0.5-0.1,0.9-0.1,1.4c0,0.7,0.2,1.4,0.5,2.1c0.3,0.7,0.5,1.4,0.9,2.1
  l-0.1,0.1c-0.7-1.2-1.5-2.2-2.4-3.2c-0.8-0.8-1.5-1.6-2.2-2.3c-0.6-0.6-1.2-1.3-1.7-2.1c-0.5-0.8-0.8-1.6-0.9-2.5
  c-0.1,0.2-0.1,0.5-0.1,0.7c0,0.2-0.1,0.5-0.1,0.7c0,0.9,0.2,1.7,0.4,2.5c0.3,0.8,0.6,1.6,1.1,2.4c0.4,0.7,0.9,1.3,1.5,1.9
  C183.7,35.5,184.1,35.9,184.7,36.2L184.7,36.2z M228.8,4.8l1.6,2.1c0.6,0.8,1.2,1.5,1.9,2.2c0.7,0.8,1.6,1.4,2.5,2
  c-0.3-1.5-0.9-2.9-1.7-4.2c-0.6-0.8-1.3-1.5-2.1-2.1c-0.6-0.4-1.3-0.8-2.1-1c-0.6-0.2-1.2-0.5-1.6-0.9l-0.1,0.1
  C227.7,3.5,228.3,4.1,228.8,4.8L228.8,4.8z M233.6,44c-0.5,0.3-1.1,0.5-1.6,0.7c-0.6,0.1-1.2,0.3-1.8,0.3l-0.5,0.1l-1,0.1
  c-0.4,0-0.7,0.1-1,0.2s-0.9,0.1-1.3,0.1s-0.7,0.1-1.1,0.1l-1.2,0.2l-1.6,0.2v0c1.1-0.3,2.2-0.8,3.1-1.5c0.5-0.4,0.9-0.9,1.2-1.5
  c0.1-0.2,0.2-0.3,0.3-0.5c0.2-0.4,0.5-0.9,0.7-1.3l0.2-0.3c0,0,0.9-1.8,1-2l-0.1-0.1c-0.3,0.3-1.2,1.1-1.4,1.3
  c-0.6,0.6-1.3,1.2-2,1.8c-0.8,0.8-1.6,1.5-2.5,2.2c-0.6,0.6-1.2,1-2,1.3c-0.7,0.2-1.5,0.5-2.4,0.7l3.4,0.8c0.9,0.2,1.5,0.4,2.1,0.5
  c0.5,0.1,1,0.2,1.3,0.2c0.4,0.1,0.7,0.1,1.1,0.1c0.3,0,0.5,0,0.8,0l0.7-0.1c1-0.1,1.9-0.4,2.9-0.7c0.8-0.3,1.5-0.7,2.1-1.3
  c0.6-0.4,1.1-0.9,1.5-1.5c0.4-0.4,0.7-0.9,1-1.4l-0.1-0.1C234.8,43.2,234.2,43.6,233.6,44L233.6,44z M237.6,37.9
  c-1.4,0.9-2.8,1.7-4.3,2.4c-0.9,0.5-1.8,1-2.6,1.7c-0.5,0.5-1.1,0.9-1.8,1.2l-0.1-0.1c0.7-0.6,1.4-1.4,2-2.1c0.5-0.7,0.8-1.5,1-2.3
  c0.2-1.1,0.5-2.3,0.8-3.6s0.5-2.1,0.6-2.6l-0.1-0.1l-1.2,1.7c-0.3,0.5-0.6,0.9-0.8,1.2s-0.4,0.7-0.6,1.1c-0.2,0.4-0.3,0.8-0.5,1.2
  c-0.5,1.3-0.9,2.4-1.2,3.2c-0.3,0.7-0.6,1.4-1,2c-0.4,0.7-1,1.4-1.5,2l1.6-0.4l3-0.7c1-0.2,2-0.5,2.9-1c1-0.5,1.9-1.1,2.7-1.8
  c0.8-0.7,1.6-1.6,2.2-2.5c0.6-1,1.1-2.1,1.4-3.3l0-0.1C239.5,36.2,238.7,37.2,237.6,37.9L237.6,37.9z M239.8,24
  c-0.4,0.8-0.7,1.7-1.1,2.7c-0.4,1-0.6,2-0.8,3h-0.1c0-0.3,0.1-0.6,0.2-0.9c0.1-0.4,0.2-0.8,0.2-1.2c0-0.8-0.1-1.7-0.4-2.4
  c-0.3-0.7-0.6-1.4-1-2.1l-1.1-1.9c-0.4-0.6-0.6-1.2-0.8-1.9h-0.1c-0.1,1,0,2,0.2,3c0.2,1.1,0.5,2.2,0.8,3.3c0.3,1.1,0.6,2.1,0.9,3
  c0.2,0.6,0.4,1.3,0.4,1.9v1c0,0.4,0,0.8-0.1,1.2h0c0.5-0.9,1.1-1.8,1.8-2.6c0.6-0.7,1.1-1.4,1.6-2.1c0.5-0.8,0.9-1.6,1.1-2.4
  c0.3-1.2,0.5-2.4,0.4-3.6c0-0.8-0.1-1.6-0.4-2.3c-0.2-0.6-0.4-1.3-0.6-1.9H241c0,0.4,0,0.7,0,1.1c0,0.4,0.1,0.8,0.1,1.2
  c0,0.6-0.1,1.1-0.4,1.7C240.5,22.4,240.2,23.2,239.8,24L239.8,24z M237.6,18.9c-0.4-0.9-1.1-1.7-1.9-2.4l-1.2-1.2
  c-0.3-0.3-0.6-0.5-0.8-0.8s-0.3-0.4-0.5-0.6c-0.1-0.2-0.2-0.4-0.3-0.6h-0.1c0.1,0.4,0.3,1.1,0.6,2.1c0.3,0.9,0.7,1.7,1.1,2.5
  l1.9,2.8c0.4,0.6,0.8,1.1,1.1,1.7c0.2,0.4,0.4,0.8,0.5,1.2c0.1,0.4,0.2,0.8,0.2,1.2h0.1c0.3-1.4,0.7-2.9,1.3-4.2
  c0.5-1.2,0.7-2.5,0.7-3.8c0-1.1-0.2-2.3-0.6-3.4c-0.5-1.3-1.2-2.6-2.1-3.7h-0.1c0.1,0.4,0.3,0.8,0.5,1.2c0.2,0.4,0.3,0.9,0.3,1.4
  c0,1.6,0,2.8-0.1,3.8c-0.1,0.8-0.1,1.7-0.1,2.5c0,0.6,0,1,0,1.4s0,0.7,0.1,1.1h-0.1C238.2,20.5,237.9,19.7,237.6,18.9L237.6,18.9z
   M234.4,7.3c0.3,0.5,0.5,1.1,0.6,1.7c0.2,0.7,0.4,1.4,0.6,2.3s0.6,1.9,1,3.2v0.1c-0.4-0.9-1-1.6-1.7-2.3c-0.6-0.5-1.2-1-1.8-1.5
  c-0.6-0.4-1.1-0.8-1.7-1.3c-0.6-0.5-1-1.1-1.3-1.8h-0.1l0.7,2.1c0.1,0.4,0.3,0.9,0.5,1.3c0.2,0.3,0.4,0.6,0.7,0.9
  c0.2,0.2,0.6,0.5,0.9,0.9c1.1,0.9,2,1.7,2.8,2.3c0.8,0.6,1.4,1.3,1.9,2.2v-5.1c0-1.5-0.4-2.9-1.2-4.1c-0.7-1.1-1.9-2-3.2-2.3V6
  C233.7,6.4,234.1,6.8,234.4,7.3L234.4,7.3z M226,49.1c-0.4,0-0.8,0-1.2-0.1c-0.4-0.1-0.8-0.2-1.3-0.3l0,0l-1.5-0.5
  c-0.6-0.2-1.2-0.4-2-0.7l-3.1-1.1c-0.7-0.2-1.4-0.4-2.1-0.4c-0.7,0-1.4,0.1-2.1,0.2c-0.7,0.2-1.2,0.3-1.6,0.4
  c-0.3-0.1-0.8-0.2-1.5-0.4c-0.7-0.2-1.4-0.2-2.1-0.2c-0.7,0-1.4,0.1-2.1,0.4l-3.1,1.1c-1.6,0.6-2.8,1-3.6,1.2
  c-0.8,0.2-1.6,0.4-2.4,0.4c-0.3,0-0.7,0-1-0.1c-0.3,0-0.6-0.1-0.9-0.2c0,0-0.7-0.2-1.1-0.4l-1.4-0.6l-0.1,0.1c0.8,0.8,1.6,1.4,2.6,2
  c1.2,0.7,2.6,1.1,4,1.2c0.5,0,1,0,1.6-0.1c0.5-0.1,0.9-0.2,1.4-0.4c0.5-0.2,1-0.4,1.5-0.7s1.2-0.7,2-1.2s1.5-1,2.1-1.3
  c0.6-0.3,1.3-0.5,1.9-0.5c0.3,0,0.6,0.1,0.9,0.2c-1,0.5-2.1,1.2-3.3,1.9c-1.3,0.8-2.5,1.8-3.6,3l1.2,1.1c1.1-1.3,2.3-2.4,3.6-3.5
  c1-0.9,2.1-1.6,3.3-2.1c1.2,0.5,2.4,1.2,3.4,2.1c1.3,1,2.5,2.2,3.6,3.5l1.2-1.1c-1.1-1.2-2.3-2.2-3.6-3c-1.3-0.8-2.4-1.4-3.3-1.9
  c0.3-0.1,0.6-0.1,0.9-0.2c0.7,0,1.3,0.1,1.9,0.5c0.6,0.3,1.2,0.7,2.1,1.3l1.9,1.1c0.5,0.3,1,0.5,1.5,0.7c0.4,0.2,0.9,0.3,1.4,0.4
  c0.5,0.1,0.9,0.2,1.4,0.2h0.3c1.1,0,2.3-0.3,3.3-0.7c1.3-0.5,2.4-1.4,3.2-2.4v-0.1c-0.8,0.4-1.6,0.7-2.4,1
  C227.3,49.1,226.7,49.2,226,49.1L226,49.1z M242.1,28.1c0-0.1,0-0.2,0-0.2v-0.3c0-0.2-0.1-0.5-0.1-0.7c-0.1,0.9-0.4,1.8-0.9,2.5
  c-0.5,0.7-1.1,1.4-1.7,2.1l-0.1,0.1c-0.6,0.7-1.3,1.4-2.1,2.2c-0.9,1-1.7,2-2.4,3.2l0,0c0.3-0.7,0.6-1.4,0.9-2.1
  c0.2-0.7,0.4-1.4,0.4-2.1c0-0.5,0-1-0.1-1.4c-0.1-0.4-0.2-0.9-0.3-1.3s-0.2-1-0.2-1.6c-0.1-0.7-0.1-1.4-0.1-2.1h-0.1v0l0,0h-0.1
  c-0.3,0.9-0.6,1.9-0.8,2.8c-0.1,0.9-0.3,2.1-0.5,3.7c-0.1,0.9-0.2,1.7-0.2,2.4s-0.1,1.2-0.2,1.8c-0.1,0.5-0.2,1-0.4,1.5
  c-0.1,0.4-0.3,0.8-0.5,1.2l-0.1,0.2l0,0l0,0l1.8-1.2l3.6-2.4c0.5-0.4,1-0.8,1.4-1.3c0.5-0.6,1-1.2,1.4-1.9c0.3-0.5,0.5-0.9,0.7-1.4
  c0.1-0.3,0.3-0.6,0.4-0.9c0.3-0.8,0.4-1.6,0.4-2.5l0,0L242.1,28.1L242.1,28.1z M221,6.7c0.1,0.1,0.3,0.1,0.4,0.2
  c0.1,0.1,0.2,0.2,0.2,0.3c0.1,0.1,0.1,0.1,0.2,0.2c0.1,0,0.2,0,0.2-0.2s0-0.1,0-0.1s0,0,0-0.1c0-0.2,0-0.3-0.1-0.4
  c-0.2-0.2-0.4-0.2-0.6-0.2c0,0-0.1-0.1-0.1-0.1H221c-0.1,0-0.2,0-0.2,0.2C220.8,6.6,220.9,6.7,221,6.7z M213.3,4.9h0.1
  c0.3-0.1,0.6-0.2,0.9-0.2h1c0.2,0,0.3-0.1,0.4-0.2c0.1-0.1,0.2-0.2,0.2-0.3c-0.2-0.3-0.5-0.5-0.9-0.5c-0.2,0-0.5-0.1-0.7-0.1
  c-0.3,0.1-0.6,0.2-0.9,0.3c-0.3,0.1-0.6,0.2-0.9,0.3c-0.2,0-0.4,0-0.4,0.2c0.1,0.1,0.3,0.2,0.4,0.3C212.8,4.9,213,4.9,213.3,4.9
  L213.3,4.9z M211.1,44.7c12.1,0,21.9-9.8,21.9-21.9c0-12.1-9.8-21.9-21.9-21.9c-12.1,0-21.9,9.8-21.9,21.9
  C189.2,34.9,199,44.7,211.1,44.7C211.1,44.7,211.1,44.7,211.1,44.7z M190.3,23.4h3.3c0,1.5,0.3,2.9,0.7,4.3c-0.1,0-0.2-0.1-0.2-0.2
  l-0.1-0.1l-0.4-0.5l-0.6,0.2c0,0.3-0.1,0.5-0.4,0.4c-0.1-0.1-0.2-0.1-0.3-0.1c-0.4,0-0.7,0.2-0.7,0.6c0,0,0,0,0,0l0,0
  c-0.1,0.3-0.1,0.6-0.1,0.8l0.5,1.3c0.1,0.1,0.2,0.2,0.4,0.1c0.1,0.2,0.3,0.3,0.4,0.5c0.1,0.1,0.2,0.2,0.4,0.1c0.1,0,0.2-0.1,0.2-0.2
  h0.1l0.3,0.3c0.1,0.1,0.2,0.2,0.4,0.3v-0.1c0.2,0.2,0.4,0.3,0.6,0.3c0.1,0.3,0.2,0.6,0.4,0.8c0.1,0.2,0.4,0.3,0.6,0.3
  c0.1,0,0.2-0.1,0.3-0.1c0.1,0.3,0.2,0.5,0.4,0.7l0.4,0.2c0.1,0.1,0.2,0.1,0.3,0.2h0.1c0.1,0.2,0.2,0.4,0.4,0.6
  c0.1,0.1,0.3,0.3,0.4,0.4l0,0l0,0h0.1l0.1,0.2l-2.3,2.4C192.5,33.4,190.4,28.5,190.3,23.4L190.3,23.4z M206.3,17.2l-0.2-0.1
  l-0.2-0.2c1.3-1.1,2.9-1.8,4.6-1.9v2.3l-0.1,0c0,0,0-0.1,0-0.1l0,0c-0.1,0-0.1,0-0.2,0h-0.1H210h-0.2h-0.1c-0.1-0.1-0.1-0.2-0.1-0.3
  l0,0c-0.2,0.1-0.3,0.2-0.3,0.3c0,0.2-0.1,0.3-0.1,0.5c-0.1,0.2-0.2,0.3-0.4,0.4c-0.2,0-0.3,0.1-0.4,0.2l-0.2-0.1h-0.4
  c-0.1-0.1-0.1-0.1-0.2-0.2c-0.1,0-0.1-0.1-0.1-0.1c-0.1,0-0.1,0-0.1,0c-0.1,0-0.2,0.1-0.2,0.2l-0.2-0.2h0.1v-0.1
  C206.8,17.5,206.6,17.4,206.3,17.2L206.3,17.2z M205.1,16.1l-2.2-2.2c2.1-1.9,4.8-3,7.6-3.2v3.2C208.5,14,206.6,14.8,205.1,16.1
  L205.1,16.1z M206.4,26.6c0.1-0.1,0.1-0.3,0.1-0.5l-0.2,0.2c0.2-0.2,0.3-0.3,0.4-0.5c0.1-0.1,0.1-0.3,0.2-0.4l0,0
  c0.1,0.2,0.2,0.3,0.3,0.5l-2,2c-0.8-0.9-1.4-2.1-1.7-3.3c0.2,0,0.3,0.1,0.5,0.1c0.2,0.1,0.3,0.3,0.5,0.4c0.1,0,0.2,0,0.3-0.1
  l0.3,0.2c0,0.1,0,0.3,0.1,0.4c0,0,0.1,0.1,0.2,0.2c0.1,0.1,0.2,0.1,0.3,0.3l0.1-0.1c0-0.1,0-0.2,0-0.3c0-0.1,0-0.2,0-0.2l0.1,0.5
  l0.1,0.6l0,0C206.2,26.7,206.3,26.7,206.4,26.6L206.4,26.6z M210.8,29c0.1,0.1,0.2,0.2,0.2,0.2s-0.2,0.2-0.6,0.2
  c-0.1,0-0.2,0.1-0.3,0.4s-0.1,0.5-0.1,0.7h-0.1l0,0c-1.4-0.2-2.8-0.9-3.9-1.8l2-2c0.8,0.7,1.7,1.1,2.7,1.2c0,0.1,0,0.2,0.1,0.3
  c-0.1,0.1-0.2,0.2-0.1,0.4C210.6,28.7,210.6,28.8,210.8,29L210.8,29z M201,29.1c0-0.4-0.1-0.8-0.1-1.2c-0.1-0.2-0.1-0.4-0.2-0.7
  c0-0.3-0.1-0.7-0.2-1c-0.2-0.3-0.4-0.6-0.7-0.9v-0.4c0-0.1-0.1-0.3-0.1-0.4v-0.1c0-0.1,0-0.2,0.1-0.2l0.8-0.3c0-0.2,0-0.5,0.1-0.7
  l0.5,0.1c0.1,0,0.2-0.1,0.2-0.3c0-0.2-0.1-0.3-0.1-0.5c-0.1-0.2-0.1-0.3-0.1-0.5c0-0.1,0.1-0.2,0.2-0.3c0.1-0.1,0.3-0.1,0.4-0.1
  c0.2,0,0.4,0.1,0.5,0.2c0.1,0.2,0.1,0.3,0.1,0.5c0,0.1,0,0.3,0,0.4c0,0.1,0,0.2,0,0.3l0.1,0.1c-0.1,0.5-0.3,0.7-0.6,0.7
  c-0.1,0-0.3-0.1-0.3-0.2c0-0.1-0.1-0.2-0.2-0.2c0,0-0.1,0-0.1,0c0,0,0,0,0,0l0,0c0,0.1,0,0.2,0.1,0.3c0.1,0.1,0.1,0.2,0.1,0.4
  c0,0.3-0.1,0.5-0.5,0.4c-0.1,0.2,0,0.3,0.3,0.3c0.1,0.3,0.2,0.4,0.3,0.4c0.1-0.2,0.1-0.3,0.1-0.5c0-0.2,0.1-0.4,0.1-0.6l0.1,0.1
  l0.3-0.1c0,0,0,0.1,0,0.1h0.1c0.3,1.6,1,3.1,2.1,4.3l-3.1,3.1c-0.1-0.1-0.2-0.3-0.2-0.5c0.1-0.3,0.4-0.5,0.4-0.8l0.1-0.6
  C201.3,29.7,201.2,29.4,201,29.1L201,29.1z M199.2,24.5c0,0.1,0.1,0.2,0.1,0.3c0,0.1-0.1,0.2-0.1,0.2h-0.1c-0.1-0.5-0.2-1.1-0.2-1.6
  h0.6c0,0.1,0,0.2-0.1,0.3c-0.1,0.1-0.1,0.2-0.2,0.3c-0.1,0.1-0.1,0.2-0.1,0.3C199.2,24.3,199.2,24.4,199.2,24.5L199.2,24.5z
   M199,22.3c0.1-2.8,1.2-5.5,3.2-7.6l2.2,2.2l-0.1,0.1c-0.1,0-0.3,0.1-0.4,0.1c-0.1,0.1-0.2,0.3-0.3,0.4c-0.2,0.1-0.5,0.2-0.7,0.4
  c-0.2,0.2-0.4,0.4-0.6,0.6c-0.3,0.1-0.5,0.2-0.6,0.3c-0.1,0-0.2,0.1-0.2,0.2c0.1,0.2,0.1,0.4,0,0.4l-0.7,0.2c-0.1,0-0.1,0-0.1,0.1
  l-0.2,0.2c0,0.1-0.1,0.2-0.1,0.3c0,0.1,0,0.2-0.1,0.2c-0.1,0.1-0.3,0.2-0.4,0.4c-0.1,0.2-0.1,0.4,0,0.7l0.1,0.7l0,0
  c0,0.1,0.1,0.1,0.1,0.2L199,22.3z M205.2,29.5c1.1,1,2.4,1.7,3.9,2c-0.1,0-0.2,0.1-0.3,0.1c-0.2,0.1-0.4,0.2-0.4,0.5
  c0,0.2-0.1,0.4-0.3,0.5c-0.2,0.1-0.2,0.2-0.2,0.3c0.2,0.2,0.4,0.5,0.5,0.9c0.1,0.3,0.4,0.6,0.7,0.7l0.4,0.1c0.2,0,0.3,0.1,0.4,0.2
  l0.4,0.1c-2.7-0.2-5.3-1.3-7.4-3.1L205.2,29.5z M202.2,13.1l-2.2-2.2c2.9-2.7,6.7-4.3,10.6-4.4v3.1C207.4,9.7,204.4,10.9,202.2,13.1
  L202.2,13.1z M201.4,13.9c-2.1,2.3-3.4,5.3-3.5,8.4h-3.1c0.1-4,1.7-7.7,4.4-10.6L201.4,13.9z M197.9,23.4c0,0.5,0,1.1,0.1,1.6
  c0-0.1-0.1-0.1-0.1-0.2c-0.2-0.2-0.3-0.4-0.4-0.4c-0.1,0-0.3,0.1-0.3,0.2c-0.1,0.1-0.1,0.2-0.2,0.3c-0.2,0.2-0.5,0.3-0.8,0.4
  c-0.2,0.3-0.4,0.6-0.4,0.9c-0.1,0.1-0.1,0.2,0,0.3c0.1,0.1,0,0.2-0.1,0.3c0.1,0.2,0.1,0.3,0.1,0.4s0,0.1,0,0.1c-0.1,0-0.1,0-0.2,0
  c0,0.1-0.1,0.1-0.1,0.2c-0.4-1.3-0.6-2.7-0.7-4.1L197.9,23.4z M210.5,43.6c-5.1-0.1-10-2.2-13.8-5.7l2.4-2.4
  c3.1,2.9,7.1,4.6,11.4,4.7V43.6z M210.5,39.2c-3.9-0.1-7.7-1.7-10.5-4.4c0.2,0.1,0.4,0.2,0.6,0.2c0.2,0,0.4-0.1,0.6-0.2
  c0.2-0.1,0.4-0.2,0.6-0.3c0.2,0,0.5,0,0.7-0.2c0.2,0,0.4,0,0.5,0c0.2,0,0.3-0.2,0.3-0.4c0-0.2-0.1-0.3-0.3-0.4
  c-0.2-0.1-0.3-0.2-0.3-0.3s0-0.1-0.1-0.2c-0.2-0.2-0.3-0.3-0.5-0.5l0,0c2.3,2.1,5.3,3.4,8.4,3.5L210.5,39.2z M211.1,31L211.1,31
  c-0.2,0-0.5,0-0.7-0.1c0-0.1,0-0.1-0.1-0.2c0.1-0.1,0.2-0.2,0.3-0.2c0.1-0.1,0.3-0.2,0.4-0.2v-0.2l0.5-0.4c0.1,0,0.1-0.1,0.2-0.1
  c0.1,0,0.3-0.1,0.4-0.1c0.2,0.1,0.4,0.1,0.6,0.3c0.2,0.1,0.4,0.2,0.6,0.2l0.1-0.3c0.1,0,0.2,0.1,0.4,0.3c0.1,0,0.3-0.1,0.4-0.1
  c0-0.1,0-0.2,0-0.4c0.1,0,0.1,0,0.2,0.1c0,0,0.1,0,0.1,0s0.1,0,0.1,0h0.1c0.1,0,0.3-0.1,0.4-0.2c0.1-0.1,0.3-0.2,0.4-0.3
  c0,0,0.1,0,0.1,0l0,0c0.1,0.1,0.1,0.2,0.1,0.3c0,0.4-0.3,0.7-0.6,0.9c-0.3,0.2-0.7,0.3-1.1,0.4c-0.1,0.1-0.1,0.2-0.2,0.3
  c-0.1,0.2-0.1,0.3-0.2,0.3c-0.3,0-0.6-0.1-0.9-0.1c-0.1-0.1-0.2-0.3-0.2-0.4c-0.2,0-0.4,0-0.5,0.1l-0.6,0.1
  C211.3,31,211.2,31,211.1,31L211.1,31z M214.3,28.6c0-0.2,0.2-0.4,0.4-0.5c0.2-0.1,0.4-0.1,0.6-0.1c0,0.1-0.1,0.3-0.4,0.4
  C214.7,28.5,214.5,28.6,214.3,28.6L214.3,28.6z M216.5,26.8c0.2,0.1,0.3,0.3,0.3,0.5c0,0.1-0.1,0.3-0.2,0.3h-0.1
  c-0.1,0-0.3-0.2-0.4-0.5c-0.3-0.1-0.5-0.3-0.6-0.5s0-0.4,0.1-0.4c0.1,0,0.2-0.1,0.3-0.1c0.1,0,0.1,0.1,0.1,0.3L216.5,26.8z
   M223.5,14.6c0.1,0,0.1,0,0.1,0.1c0.2,0,0.4,0.1,0.5,0.1c0.3,0.3,0.6,0.7,0.9,1.1c0,0,0.1,0.1,0.2,0.2s0.2,0.2,0.2,0.2
  c0.1,0,0.3-0.1,0.4-0.1c0-0.1,0-0.1,0.1-0.2c0.9,2,1.4,4.1,1.5,6.2h-3.1c0,0,0,0,0-0.1c0-0.3,0-0.6-0.2-0.8
  c-0.2-0.3-0.2-0.7-0.1-1.1c0.1-0.2,0.1-0.4,0-0.6c-0.1,0-0.2,0-0.3,0.1c-0.1,0.1-0.1,0.2-0.2,0.3c-0.1,0.2-0.1,0.3-0.2,0.4l0,0
  c0,0,0,0.1-0.1,0.1c0,0.1,0,0.1-0.1,0.2l-0.1,0.6c0,0.2,0,0.4,0,0.6l0,0c0,0.1,0,0.2,0,0.2h-1.6c0.1-0.1,0.3-0.2,0.5-0.2l0,0
  l0.4-0.2c-0.1,0-0.1-0.1-0.1-0.2c0-0.1,0-0.2,0.1-0.2l0.4-0.2c0.2-0.2,0.3-0.4,0.4-0.7c0.3-0.4,0.5-0.9,0.6-1.4
  c0-0.1-0.1-0.3-0.2-0.4c0-0.1,0-0.2,0-0.3c0-0.5,0.2-1.4-0.4-1.6c-0.1,0-0.1-0.1-0.1-0.2c0.2-0.1,0.2-0.4,0.1-0.6h-0.5
  c0-0.1,0.1-0.2,0.1-0.2c0.1-0.1,0.1-0.2,0.1-0.3c0-0.1-0.1-0.2-0.2-0.2c0,0,0,0,0,0h-0.1c-0.1,0-0.3,0-0.4,0.1
  c-0.1,0-0.1,0.1-0.2,0.1H222l-0.1-0.1c0-0.3-0.1-0.5-0.3-0.7c-0.2-0.2-0.4-0.3-0.6-0.4l0,0c0-0.1,0-0.2,0-0.3l0.6-0.6l0.9,0.3
  c0,0.2,0.1,0.4,0.2,0.5c0.1,0.1,0.2,0.2,0.3,0.2c0.1,0.1,0.2,0.2,0.4,0.3l0,0C223.5,14.5,223.6,14.6,223.5,14.6L223.5,14.6z
   M220.5,35.8c-0.1-0.1-0.1-0.1-0.2-0.1c-0.1,0-0.1,0-0.1-0.1s0.1-0.2,0.2-0.3c0.2-0.1,0.3-0.3,0.4-0.5c0.1-0.1,0.1-0.3,0.1-0.4
  c0-0.1,0-0.2-0.1-0.2c-0.1,0-0.2-0.1-0.3-0.2c-0.1,0-0.2-0.1-0.3-0.1c-0.1-0.1-0.3-0.1-0.4-0.2c-0.1-0.1-0.2-0.2-0.2-0.4
  c0-0.1,0.1-0.2,0.1-0.4l0.1-0.2l0.2-0.1l1.7,1.7c0,0.2,0.1,0.3,0.3,0.3l0.2,0.2c-0.6,0.5-1.2,1.1-1.9,1.5c0-0.1,0.1-0.1,0.1-0.2
  l0.1-0.1C220.5,35.9,220.5,35.8,220.5,35.8L220.5,35.8z M219.5,27.8c-0.1,0-0.3,0-0.4,0.1c-0.2,0.1-0.4,0.2-0.4,0.4c0,0,0,0.1,0,0.1
  l0,0c-0.1,0-0.2,0-0.3,0.1c-0.1,0-0.2,0.1-0.4,0.1c-0.1,0-0.2,0-0.2-0.1s0.2-0.2,0.6-0.3l0.4-0.4c0.1-0.1,0.2-0.1,0.3-0.1
  c0.2-0.1,0.4-0.3,0.6-0.5c0.1-0.1,0.2-0.3,0.3-0.5h0.1c0,0.2,0.1,0.4,0.3,0.4s0.3-0.2,0.4-0.5c0.2,0.1,0.4,0.1,0.6,0.1
  c0.2,0,0.4-0.1,0.5-0.3h0.9v0.1v0.1l0,0c-0.5,1.6-1.3,3.1-2.4,4.4v-0.2c-0.1-0.2-0.2-0.4-0.3-0.7c-0.1,0-0.2,0.2-0.4,0.5
  s-0.2,0.6-0.3,0.6l-0.7,0.1c-0.2,0-0.4,0.1-0.7,0.1c-0.2,0-0.4-0.1-0.6-0.2c-0.2-0.1-0.4-0.2-0.6-0.3c-0.2-0.1-0.4-0.1-0.6-0.1
  c-0.3,0-0.4-0.1-0.4-0.2s0.1-0.2,0.3-0.2c0.2,0,0.4,0,0.6,0.1l0.9,0.2c0.3,0.1,0.6,0.1,0.8,0.2c0.1,0,0.3,0.1,0.4,0.1l0.4-0.1
  c0-0.1,0.1-0.3,0.1-0.4c0.1-0.1,0.1-0.3,0.1-0.4c0.1-0.3,0.2-0.5,0.3-0.8c0.1-0.3,0.1-0.6,0.1-0.9c0-0.2-0.1-0.4-0.2-0.4L219.5,27.8
  z M221.5,23.4h1.7c0,0.7-0.1,1.4-0.3,2.1c-0.1-0.2-0.2-0.5-0.4-0.6l-0.6-0.6c0-0.2-0.1-0.3-0.1-0.5c0-0.1-0.1-0.1-0.1-0.2
  C221.6,23.5,221.5,23.4,221.5,23.4L221.5,23.4z M222.2,32.3c-0.1,0-0.2,0-0.2,0.1c0,0.2,0,0.3-0.1,0.5l-1.1-1.1
  c1.5-1.6,2.5-3.5,3.1-5.7l0.1,0c0.2,0.1,0.4,0.1,0.5,0c0.1-0.1,0.1-0.1,0.1-0.2c0-0.1-0.1-0.3-0.4-0.6h-0.1c0.1-0.6,0.2-1.3,0.2-1.9
  h3.1c-0.1,4-1.7,7.8-4.4,10.6l-0.1-0.1l0,0c0-0.3-0.1-0.7-0.2-1S222.4,32.3,222.2,32.3L222.2,32.3z M221.4,16.5L221.4,16.5
  c0,0.1,0,0.3-0.1,0.4c0,0.1-0.1,0.2-0.1,0.4c0.2,0.2,0.4,0.4,0.6,0.5c0.2,0.2,0.4,0.3,0.6,0.5c0.1,0.3,0.3,0.5,0.3,0.8
  c0.1,0.3,0.1,0.5,0.2,0.8c0,0.2-0.1,0.4-0.2,0.5c-0.1,0.3-0.4,0.4-0.7,0.4l-0.1-0.1c0-0.2,0.1-0.3,0.1-0.4c0.1-0.1,0.1-0.3,0.1-0.4
  c0.2-0.1,0.3-0.3,0.3-0.4l-0.2-0.1c-0.1-0.1-0.3-0.2-0.4-0.3c0-0.1-0.1-0.2-0.4-0.2c-0.1,0-0.3,0-0.4,0.1l-0.4,0.2l-0.1-0.3
  c0-0.1,0.1-0.2,0.1-0.3l-0.6-1c-0.3-0.1-0.5-0.2-0.8-0.2c-0.2,0-0.4,0-0.6,0c-0.2,0-0.4,0-0.6,0c-0.2,0-0.4,0-0.6,0.2
  c-0.2,0.1-0.3,0.3-0.5,0.5c-0.1,0.1,0,0.2-0.2,0.2c-0.1-0.1-0.1-0.1-0.2-0.2l3.3-3.3l0.1,0.1l0.3,0.3l0.3,0.4
  C220.9,15.8,221.2,16.1,221.4,16.5L221.4,16.5z M213.5,38.3c0.3,0.2,0.6,0.4,0.9,0.5c-0.9,0.2-1.8,0.3-2.8,0.3V36l0,0
  c0.1,0.2,0.3,0.4,0.5,0.5c0.2,0.1,0.4,0.1,0.6,0.1c0.3,0,0.5,0.1,0.5,0.2c0,0.1,0,0.2-0.1,0.3c-0.1,0.1-0.1,0.2-0.1,0.3
  C213,37.8,213.2,38.1,213.5,38.3L213.5,38.3z M211.6,43.6v-3.3c1.2,0,2.4-0.2,3.6-0.5v0.1c0,0,0,0.1,0,0.1c0.3,0.2,0.5,0.4,0.7,0.7
  c0.1,0.2,0.4,0.3,0.8,0.3c0.2,0,0.3,0,0.5-0.2c0.1-0.1,0.2-0.2,0.2-0.3c0.1-0.1,0.2-0.2,0.4-0.2c0.1,0,0.2-0.1,0.3-0.2
  c0.2-0.1,0.4-0.2,0.5-0.4c0.2-0.2,0.4-0.4,0.4-0.6c0.1,0,0.2-0.1,0.3-0.2c0.1-0.2,0.2-0.5,0.3-0.8l0.1-0.1c0,0,0-0.1,0-0.1
  c1.2-0.7,2.2-1.4,3.2-2.3l2.4,2.4C221.6,41.4,216.7,43.5,211.6,43.6L211.6,43.6z M226.1,37.1l-2.4-2.4c2.9-3.1,4.6-7.1,4.7-11.4h3.3
  C231.7,28.5,229.7,33.4,226.1,37.1L226.1,37.1z M231.9,22.2h-3.3c-0.1-3.5-1.3-6.9-3.4-9.7c0-0.1-0.1-0.2-0.2-0.3
  c-0.1-0.1-0.1-0.1-0.2-0.2c-0.3-0.4-0.6-0.7-0.9-1c0-0.1-0.1-0.2-0.1-0.2l2.3-2.3C229.7,12.2,231.7,17.1,231.9,22.2L231.9,22.2z
   M211.6,2c5.1,0.1,10,2.2,13.8,5.7l-2,2c0-0.1-0.1-0.2-0.1-0.3c-0.1-0.1-0.2-0.2-0.3-0.2c-0.2-0.1-0.3-0.3-0.3-0.5
  c0-0.2-0.1-0.3-0.2-0.5c-0.3-0.1-0.6-0.4-0.7-0.7c-0.2-0.3-0.4-0.5-0.6-0.5c-0.2,0.1-0.3,0.1-0.5,0c-0.1-0.1-0.3-0.1-0.5-0.1
  c-0.2,0-0.4,0-0.5,0.1c-0.2,0.1-0.4,0.1-0.6,0.2c0,0,0,0-0.1,0.1c-2.2-1.1-4.6-1.8-7.1-1.9c0.2-0.3,0.2-0.5,0.1-0.6s-0.1,0-0.3,0.2
  L211.6,2z M211.6,6.4c2.4,0.1,4.7,0.7,6.8,1.7c0,0,0,0,0,0.1l0.3,0.3c0.1,0.1,0.2,0.2,0.2,0.3c0.1,0.2,0.1,0.4,0.2,0.6
  c0.1,0.1,0.1,0.2,0.2,0.4c-0.1,0.2,0,0.4,0.1,0.6c0.1,0.2,0.3,0.4,0.4,0.6h0.3c0.1,0,0.2,0,0.4,0c0.1,0,0.2,0.1,0.3,0.2
  c0.1,0.1,0.2,0.3,0.2,0.4c0,0.1,0,0.2,0.1,0.2l-0.9,0.9l0,0c-0.1-0.4-0.2-0.8-0.4-1.2c-0.2-0.1-0.4-0.2-0.6-0.2
  c0-0.1-0.2-0.3-0.5-0.6c-0.3-0.4-0.4-0.6-0.5-0.6c-0.1,0-0.2,0-0.2,0.1c0,0.1,0.1,0.2,0.1,0.3s0.1,0.2,0.3,0.5c0,0.1,0,0.1-0.1,0.1
  l0,0c0,0.2,0.2,0.3,0.4,0.4l-0.1,0.1l0.2,0.4c-2.1-1.5-4.6-2.4-7.2-2.5L211.6,6.4z M211.6,10.7c2.8,0.1,5.5,1.2,7.6,3.2l-2.2,2.3
  c-1.5-1.3-3.4-2.1-5.4-2.2V10.7z M211.6,15c1.6,0.1,3.1,0.7,4.4,1.7c-0.1,0-0.1,0-0.1,0.1c0,0-0.1,0.1-0.1,0.1c0,0-0.1,0.1-0.1,0.2
  s0.2,0.2,0.3,0.2l-0.9,0.9l0,0c-0.1,0.1-0.2,0.1-0.3,0.2c-0.2,0.1-0.3,0.2-0.3,0.3c0,0.1-0.1,0.2-0.1,0.2l-0.3,0.3h-0.1
  c-0.1,0-0.2-0.1-0.4-0.3c-0.2-0.2-0.3-0.3-0.4-0.3c-0.1,0-0.3,0-0.3,0.1c-0.1,0.1-0.2,0.1-0.3,0c-0.1-0.1,0-0.2,0.3-0.3
  c0.2-0.1,0.4-0.2,0.6-0.3c0.4-0.3,0.6-0.7,0.6-1.2c0-0.2-0.1-0.4-0.3-0.4l-0.2,0.2c-0.2,0.1-0.4,0.2-0.5,0.4l-0.4,0.4
  c-0.1-0.1-0.3-0.1-0.4-0.1h-0.4l0,0L211.6,15z M211,20c0,0.1,0.1,0.1,0.1,0.1c0.1,0,0.2,0,0.4,0.1c0.1,0.1,0.3,0.1,0.4,0
  c0,0.1,0,0.1,0.1,0.1c0.1,0.1,0.2,0.2,0.3,0.1l0.1,0.1v0.1l0.1,0.3l0,0c0,0,0,0,0,0.1c0.1,0,0.2,0,0.2,0c0.1,0,0.1,0,0.2,0
  c0,0.1,0,0.1,0,0.2l0,0v0.2c0,0.1,0,0.2,0,0.3v0.1c0,0,0.1,0,0.1,0c0,0,0,0.1,0,0.1c-0.1,0.1-0.2,0.3-0.2,0.4c0,0.1,0.1,0.1,0.2,0.1
  c0.1,0,0.2,0,0.3,0.1c0.1,0.1,0.2,0.3,0.2,0.4v0.6c0,0.1,0,0.2,0.1,0.2c0.1,0,0.1,0.1,0.1,0.1c0,0.2,0,0.4-0.1,0.5
  c0,0.2-0.1,0.3-0.2,0.5c0,0-0.2,0-0.4,0c-0.2,0-0.4-0.1-0.5-0.1c-0.1,0-0.2,0.1-0.3,0.4c-0.1,0.2-0.2,0.4-0.2,0.6
  c-0.1,0.2-0.2,0.3-0.3,0.3c-0.1,0-0.2,0-0.3,0h-0.1l-0.2,0.4l-0.1,0.1c-0.8-0.1-1.6-0.4-2.2-1l0.4-0.4c0.2,0,0.5-0.1,0.7-0.2l0.1,0
  c0.4-0.2,0.4-0.5,0.6-0.8s0.5-0.5,0.2-0.7c0.3-0.6-1.2-0.6-1.5-0.5s-0.1,0.5-0.3,0.7s-0.2,0.1-0.4,0.2c-0.2,0.2-0.4,0.5-0.6,0.8l0,0
  c-0.1-0.2-0.2-0.4-0.2-0.6h0.1c0-0.1,0-0.1,0-0.1h0.1v0.1c0.2,0,0.3,0,0.4,0s0.1-0.3,0.1-0.4c0.1-0.3,0.2-0.6,0.4-0.9
  c-0.1,0-0.1-0.1-0.2-0.2c0-0.1-0.1-0.1-0.2-0.1c-0.1,0-0.1,0.1-0.1,0.2c0,0.1-0.1,0.2-0.1,0.3c-0.1,0.1-0.2,0.1-0.3,0.1
  c0-0.1-0.1-0.2-0.2-0.2c0,0,0,0,0,0h-0.1c-0.1,0-0.2,0.1-0.3,0.1c-0.2,0-0.5,0-0.7,0.1c-0.2,0-0.5,0-0.7,0c-0.1-0.1,0-0.2,0.4-0.3
  c0-0.3,0.1-0.7,0.4-0.9c0.1,0.1,0.3,0.1,0.4,0.1l0.1-0.1h0.1c0.1,0,0.2,0.1,0.3,0.4s0.1,0.4,0.2,0.4c0.1,0,0.1,0,0.2-0.1v-0.4
  c0.1-0.4,0.2-0.7,0.2-0.8v-0.2c0.1-0.1,0.1-0.3,0.2-0.4h0.1c0.1-0.1,0.2-0.1,0.3-0.2c0.1-0.1,0.1-0.3,0.1-0.5l0.8-0.3
  c0.4-0.1,0.6-0.3,0.6-0.5l0,0l0.5-0.1C210.9,19.9,210.9,20,211,20z M210.5,2v3.3c-4.3,0.1-8.3,1.8-11.4,4.7l-2.4-2.4
  C200.5,4.2,205.4,2.1,210.5,2L210.5,2z M196,8.5l2.4,2.4c-2.9,3.1-4.6,7.1-4.7,11.4h-3.3C190.4,17.1,192.5,12.2,196,8.5L196,8.5z"/>
</svg>
