<svg id="Layer_1" data-name="Layer 1" xmlns="http://www.w3.org/2000/svg" viewBox="0 0 426 208"><defs><style>.cls-1{fill:#5190cd;}.cls-2{isolation:isolate;}.cls-3{fill:#1b344a;}.cls-4{fill:#5090cd;}</style></defs><path id="Path_878" data-name="Path 878" class="cls-1" d="M193.21,11.93c.64-.49,1.37-1.13,2.26-1.86a7.21,7.21,0,0,0,.8-.72,2,2,0,0,0,.49-.73,4,4,0,0,0,.4-1l.56-1.69h-.08a3.66,3.66,0,0,1-1,1.45,8.37,8.37,0,0,1-1.38,1.05,10.63,10.63,0,0,0-1.45,1.13,6.1,6.1,0,0,0-1.29,1.85v-.08c.33-1,.65-1.85.81-2.58s.32-1.29.48-1.85a4,4,0,0,1,.49-1.37,3,3,0,0,1,1-1.05h0a4.68,4.68,0,0,0-2.57,1.85,5.31,5.31,0,0,0-1,3.31V13.7A6.61,6.61,0,0,1,193.21,11.93Zm2.74-5a16.19,16.19,0,0,0,1.53-1.77l1.29-1.7c.4-.48.89-1,1.37-1.45l-.08-.08a4,4,0,0,1-1.29.73,7.66,7.66,0,0,0-1.69.72,4.83,4.83,0,0,0-1.69,1.7A10.07,10.07,0,0,0,194,8.46,7.09,7.09,0,0,0,196,6.93Zm-6.53,15.32a13.46,13.46,0,0,0,1.29,1.69,11.91,11.91,0,0,1,1.45,2.1h0a4,4,0,0,1-.08-1v-.81a8.61,8.61,0,0,1,.32-1.53c.25-.73.49-1.53.73-2.42s.48-1.77.64-2.66a7.89,7.89,0,0,0,.16-2.42h-.08a5.06,5.06,0,0,1-.64,1.53l-.89,1.54a15.23,15.23,0,0,0-.8,1.69,5.23,5.23,0,0,0-.33,1.93,3.59,3.59,0,0,0,.17,1c.08.24.08.48.16.73h-.08a23,23,0,0,0-.65-2.42c-.32-.81-.56-1.53-.89-2.18s-.48-1.29-.72-1.85a7,7,0,0,1-.32-1.37,3.94,3.94,0,0,1,.08-1v-.89h-.08c-.17.49-.33,1-.49,1.53a7.42,7.42,0,0,0-.24,1.86,10.89,10.89,0,0,0,.32,2.82A8.43,8.43,0,0,0,189.42,22.25Zm10.64,15.88h.65a3.28,3.28,0,0,0,.88-.08l1-.16c.4-.09,1-.25,1.69-.41s1.62-.4,2.74-.64c-.72-.16-1.37-.41-1.93-.57a5,5,0,0,1-1.61-1c-.65-.57-1.29-1.21-2-1.78-.48-.48-1-1-1.61-1.45-.16-.16-.89-.81-1.13-1.05l-.08.08.81,1.62c.08.08.08.16.16.24.16.32.4.72.56,1l.24.4a3.53,3.53,0,0,0,1,1.13,6.06,6.06,0,0,0,2.5,1.21h0l-1.29-.16-1-.17c-.32,0-.56-.08-.88-.08a4.61,4.61,0,0,1-1-.08c-.32-.08-.57-.08-.81-.16l-.8-.08a.75.75,0,0,1-.41-.08l-1.45-.24a6,6,0,0,1-1.29-.57c-.48-.32-1-.64-1.45-1l-.08.08a5.68,5.68,0,0,0,.81,1.13l1.21,1.2a8.6,8.6,0,0,0,1.69,1,7.64,7.64,0,0,0,2.34.57l.56.16ZM191,19.75H191a4,4,0,0,1,.16-1,5.31,5.31,0,0,1,.41-1,8.42,8.42,0,0,1,.88-1.37L194,14.18a6,6,0,0,0,.88-2.09c.24-.81.41-1.37.49-1.69h-.08l-.25.48a2.12,2.12,0,0,1-.4.48A4.71,4.71,0,0,1,194,12L193,13a6.76,6.76,0,0,0-1.53,1.93,8.38,8.38,0,0,0-.57,1.94H191a3,3,0,0,1,.08-.89,5.2,5.2,0,0,0,0-1.13c0-.56-.08-1.29-.08-2S191,11,191,9.75a2.91,2.91,0,0,1,.24-1.13,7,7,0,0,0,.41-1h-.08a9.84,9.84,0,0,0-1.7,3,10.28,10.28,0,0,0-.48,2.74,9.86,9.86,0,0,0,.56,3.06A19.13,19.13,0,0,1,191,19.75Zm6.13,15.15,2.42.57,1.29.32a7.38,7.38,0,0,1-1.21-1.61,5.92,5.92,0,0,1-.73-1.62c-.24-.64-.56-1.45-1-2.57a4.73,4.73,0,0,0-.4-1,9,9,0,0,1-.48-.89,6.57,6.57,0,0,0-.65-1c-.24-.32-.56-.8-1-1.37l-.08.08c.08.41.32,1.05.48,2.1s.4,1.93.64,2.9a5.7,5.7,0,0,0,.81,1.86,10.82,10.82,0,0,0,1.61,1.69l-.08.08a7.19,7.19,0,0,1-1.45-1,11.47,11.47,0,0,0-2.1-1.37,31.18,31.18,0,0,1-3.54-1.93,5,5,0,0,1-1.94-2.34l-.08.08a7.86,7.86,0,0,0,1.13,2.66,8.46,8.46,0,0,0,1.77,2,10.74,10.74,0,0,0,2.18,1.45,10.06,10.06,0,0,0,2.34.8Zm-5.48-6,4.27,2.9c-.16-.32-.32-.73-.48-1.13a6.05,6.05,0,0,1-.33-1.21A7.28,7.28,0,0,1,194.9,28c0-.56-.08-1.13-.16-1.93-.16-1.29-.32-2.26-.4-3a9.89,9.89,0,0,0-.65-2.25h-.08a12,12,0,0,1-.08,1.69c-.08.4-.16.88-.24,1.29s-.16.72-.24,1.13A5.33,5.33,0,0,0,193,26a4.39,4.39,0,0,0,.4,1.69,13.69,13.69,0,0,0,.73,1.69l-.08.08a15.54,15.54,0,0,0-1.94-2.58c-.64-.64-1.21-1.29-1.77-1.85a9.35,9.35,0,0,1-1.37-1.7,4.53,4.53,0,0,1-.73-2,1.36,1.36,0,0,0-.08.56c0,.17-.08.41-.08.57a8.12,8.12,0,0,0,.32,2,10.46,10.46,0,0,0,.89,1.94A7,7,0,0,0,190.47,28a4.33,4.33,0,0,0,1.13.89ZM227.15,3.54l1.29,1.7A15.18,15.18,0,0,0,230,7a9.54,9.54,0,0,0,2,1.61,10.07,10.07,0,0,0-1.37-3.38,8.25,8.25,0,0,0-1.69-1.7,5.5,5.5,0,0,0-1.69-.8A3.32,3.32,0,0,1,225.94,2l-.08.08a13.6,13.6,0,0,1,1.29,1.45ZM231,35.14a8.48,8.48,0,0,1-1.29.57,9.33,9.33,0,0,1-1.45.24l-.41.08-.8.08a2.38,2.38,0,0,0-.81.16,4.27,4.27,0,0,1-1,.08c-.32,0-.56.08-.88.08l-1,.17-1.29.16h0a7.25,7.25,0,0,0,2.5-1.21,3.73,3.73,0,0,0,1-1.21c.08-.16.16-.24.24-.4.16-.33.4-.73.56-1l.16-.24.81-1.62-.08-.08c-.24.24-1,.89-1.13,1.05-.48.48-1,1-1.61,1.45a21.42,21.42,0,0,1-2,1.78,4.3,4.3,0,0,1-1.61,1c-.56.16-1.21.41-1.93.57l2.74.64c.72.16,1.21.32,1.69.41a6.75,6.75,0,0,0,1,.16,3.28,3.28,0,0,0,.88.08h.65l.56-.08a12.47,12.47,0,0,0,2.34-.57,4.42,4.42,0,0,0,1.69-1,4.19,4.19,0,0,0,1.21-1.2,5.68,5.68,0,0,0,.81-1.13l-.08-.08A9.29,9.29,0,0,1,231,35.14Zm3.22-4.91a30.13,30.13,0,0,1-3.46,1.93,11.47,11.47,0,0,0-2.1,1.37,4.45,4.45,0,0,1-1.45,1l-.08-.08a16.08,16.08,0,0,0,1.61-1.69,5.7,5.7,0,0,0,.81-1.86c.16-.88.4-1.85.64-2.9s.4-1.69.48-2.1l-.08-.08-1,1.37c-.25.41-.49.73-.65,1a9,9,0,0,0-.48.89c-.16.32-.24.64-.4,1-.41,1-.73,1.93-1,2.57a10.21,10.21,0,0,1-.81,1.62,11.29,11.29,0,0,1-1.21,1.61l1.29-.32,2.42-.57a8.11,8.11,0,0,0,2.34-.8,10.06,10.06,0,0,0,3.95-3.47A9.87,9.87,0,0,0,236.26,28v-.08a5.75,5.75,0,0,1-2,2.34ZM236,19c-.33.65-.57,1.37-.89,2.18a13.35,13.35,0,0,0-.65,2.42h-.08a2.33,2.33,0,0,1,.16-.73,4,4,0,0,0,.17-1A5.16,5.16,0,0,0,234.4,20a15.23,15.23,0,0,0-.8-1.69l-.89-1.54a5.06,5.06,0,0,1-.64-1.53H232a7.89,7.89,0,0,0,.17,2.42c.16.89.4,1.77.64,2.66s.48,1.69.73,2.42a5.23,5.23,0,0,1,.32,1.53v.81a4,4,0,0,1-.08,1h0a11.4,11.4,0,0,1,1.45-2.1c.48-.57.89-1.13,1.29-1.69a7.3,7.3,0,0,0,.89-1.94,9,9,0,0,0,.32-2.9,4.71,4.71,0,0,0-.32-1.85c-.17-.49-.33-1.05-.49-1.54H237v.89c0,.32.08.65.08,1a2.89,2.89,0,0,1-.32,1.37A13.77,13.77,0,0,1,236,19Zm-1.78-4.11A5.62,5.62,0,0,0,232.71,13l-1-1a4.34,4.34,0,0,1-.64-.65,2.23,2.23,0,0,0-.41-.48l-.24-.48h-.08c.08.32.24.88.49,1.69a15.25,15.25,0,0,0,.88,2l1.53,2.26a12.71,12.71,0,0,1,.89,1.37,5,5,0,0,1,.4,1,4,4,0,0,1,.17,1h.08a16.62,16.62,0,0,1,1-3.39,7.81,7.81,0,0,0,.57-3.06,8,8,0,0,0-.49-2.74,10.81,10.81,0,0,0-1.69-3h-.08a4.73,4.73,0,0,0,.4,1,2.47,2.47,0,0,1,.25,1.13c0,1.29,0,2.26-.08,3.06a15.17,15.17,0,0,0-.09,2V15.8a2.93,2.93,0,0,0,.09.88h-.09a3.88,3.88,0,0,0-.4-1.77Zm-2.58-9.35a4,4,0,0,1,.49,1.37c.16.56.32,1.13.48,1.85s.48,1.54.81,2.58v.08a6.36,6.36,0,0,0-1.37-1.85l-1.46-1.21a15.2,15.2,0,0,1-1.37-1.05,3.66,3.66,0,0,1-1-1.45h-.08l.56,1.69a5.39,5.39,0,0,0,.4,1,4,4,0,0,0,.57.73,6,6,0,0,1,.72.72c.89.73,1.61,1.37,2.26,1.86a5.45,5.45,0,0,1,1.53,1.77V9.59a5.87,5.87,0,0,0-1-3.31,4.32,4.32,0,0,0-2.58-1.85v.08a3.18,3.18,0,0,1,1,1Zm-6.77,33.7a4,4,0,0,1-1-.08c-.32-.09-.64-.17-1-.25h0l-1.21-.4c-.49-.16-1-.32-1.62-.56l-2.5-.89a6.23,6.23,0,0,0-1.69-.32,12.08,12.08,0,0,0-1.69.16c-.57.16-1,.24-1.29.32-.24-.08-.65-.16-1.21-.32a6.06,6.06,0,0,0-1.69-.16,4.27,4.27,0,0,0-1.7.32l-2.49.89a29.39,29.39,0,0,1-2.91,1,8.13,8.13,0,0,1-1.93.33,2.79,2.79,0,0,1-.81-.08,2.36,2.36,0,0,1-.72-.17,6.5,6.5,0,0,1-.89-.32l-1.13-.48-.08.08a10.45,10.45,0,0,0,2.1,1.61,6.62,6.62,0,0,0,4.51.89,6,6,0,0,0,1.13-.32,9.43,9.43,0,0,0,1.21-.57c.4-.24,1-.56,1.61-1s1.21-.8,1.69-1a3.55,3.55,0,0,1,1.54-.41,2.34,2.34,0,0,1,.72.16c-.81.41-1.69,1-2.66,1.54a13.67,13.67,0,0,0-2.9,2.41l1,.89a23.43,23.43,0,0,1,2.9-2.82A9,9,0,0,1,212.8,38a9.54,9.54,0,0,1,2.74,1.69,19.28,19.28,0,0,1,2.9,2.82l1-.89a13.92,13.92,0,0,0-2.9-2.41c-1-.65-1.94-1.13-2.66-1.54.24-.08.48-.08.72-.16a2.51,2.51,0,0,1,1.53.41,16.41,16.41,0,0,1,1.7,1l1.53.89a7.73,7.73,0,0,0,1.21.56,4.15,4.15,0,0,0,1.13.33,5.4,5.4,0,0,0,1.12.16H223a7.38,7.38,0,0,0,2.66-.57,6.26,6.26,0,0,0,2.58-1.93v-.08a19.86,19.86,0,0,1-1.94.8,2.7,2.7,0,0,1-1.45.17Zm13-16.93v-.41c0-.16-.08-.4-.08-.56a4.21,4.21,0,0,1-.73,2c-.4.57-.88,1.13-1.37,1.7l-.08.08c-.48.56-1.05,1.13-1.69,1.77A15.54,15.54,0,0,0,232,29.5h0l.73-1.69a6.38,6.38,0,0,0,.32-1.69A5,5,0,0,0,233,25c-.08-.33-.16-.73-.24-1a5.66,5.66,0,0,1-.16-1.29,12,12,0,0,1-.08-1.69h-.16c-.24.72-.49,1.53-.65,2.25s-.24,1.7-.4,3a18.73,18.73,0,0,0-.16,1.93,7.94,7.94,0,0,1-.16,1.45,5.88,5.88,0,0,1-.33,1.21,5,5,0,0,1-.4,1l-.08.16h0l1.45-1,2.9-1.93A6.64,6.64,0,0,0,235.61,28a10.08,10.08,0,0,0,1.13-1.53,8.55,8.55,0,0,0,.57-1.13c.08-.24.24-.48.32-.73a5.58,5.58,0,0,0,.32-2h0l-.08-.24Zm-17-17.25c.08.08.24.08.32.16s.16.16.16.24l.16.16c.09,0,.17,0,.17-.16V5.32c0-.16,0-.24-.08-.33a.62.62,0,0,0-.49-.16L221,4.75h-.16c-.08,0-.16,0-.16.16A.18.18,0,0,0,220.86,5.08Zm-6.21-1.46h.08a2.46,2.46,0,0,1,.73-.16h.8a.42.42,0,0,0,.33-.16c.08-.08.16-.16.16-.24a.84.84,0,0,0-.73-.4c-.16,0-.4-.08-.56-.08l-.73.24-.72.24c-.16,0-.32,0-.32.16s.24.16.32.24a1,1,0,0,0,.64.16Zm-1.77,32.09a17.66,17.66,0,1,0-17.66-17.66,17.65,17.65,0,0,0,17.66,17.66ZM196.11,18.54h2.66a12.11,12.11,0,0,0,.57,3.46.18.18,0,0,1-.17-.16l-.08-.08-.32-.4-.48.16c0,.24-.08.4-.32.32a.32.32,0,0,0-.25-.08c-.32,0-.56.16-.56.49h0a2,2,0,0,0-.08.64l.4,1.05c.08.08.16.16.32.08.08.16.25.24.33.4s.16.16.32.08a.17.17,0,0,0,.16-.16h.08l.24.24a1,1,0,0,0,.33.25v-.08a.69.69,0,0,0,.48.24,1.61,1.61,0,0,0,.32.64.58.58,0,0,0,.49.24c.08,0,.16-.08.24-.08a1.27,1.27,0,0,0,.32.57l.32.16c.08.08.16.08.24.16h.08a2,2,0,0,0,.33.48l.32.33h.08l.08.16-1.85,1.93a16.59,16.59,0,0,1-4.6-11Zm12.9-5-.16-.08-.16-.16a6.3,6.3,0,0,1,3.71-1.53v1.85h-.09v-.08h-.56a.29.29,0,0,1-.08-.24h0q-.24.12-.24.24c0,.16-.08.24-.08.4a.66.66,0,0,1-.33.33.42.42,0,0,0-.32.16l-.16-.08h-.32l-.16-.17a.08.08,0,0,1-.08-.08h-.08a.17.17,0,0,0-.16.17l-.17-.17h.08V14a3.34,3.34,0,0,0-.64-.48Zm-1-.89-1.77-1.77A10.21,10.21,0,0,1,212.4,8.3v2.58A7.27,7.27,0,0,0,208,12.65Zm1.05,8.47a.62.62,0,0,0,.08-.41l-.16.17a1.58,1.58,0,0,0,.32-.41c.08-.08.08-.24.16-.32h0c.08.16.16.24.25.4l-1.62,1.62a6.56,6.56,0,0,1-1.37-2.66c.16,0,.24.08.41.08s.24.24.4.32a.29.29,0,0,0,.24-.08L208,20a.48.48,0,0,0,.08.32l.16.16c.08.08.17.08.25.24l.08-.08v-.4l.08.4.08.49h0c.16.08.24.08.32,0Zm3.55,1.93.16.16a.71.71,0,0,1-.49.16c-.08,0-.16.09-.24.33a1.56,1.56,0,0,0-.08.56h-.08a6.52,6.52,0,0,1-3.14-1.45l1.61-1.61a3.83,3.83,0,0,0,2.18,1,.29.29,0,0,0,.08.24c-.08.08-.16.16-.08.32-.08.08-.08.16.08.32Zm-7.9.08c0-.32-.08-.64-.08-1s-.08-.33-.16-.57a2.86,2.86,0,0,0-.17-.8,4.06,4.06,0,0,0-.56-.73v-.32c0-.08-.08-.24-.08-.33v-.08c0-.08,0-.16.08-.16l.64-.24a1.22,1.22,0,0,1,.09-.56l.4.08c.08,0,.16-.08.16-.24S205,18,205,17.81a.72.72,0,0,1-.08-.4c0-.08.08-.16.16-.24a.48.48,0,0,1,.32-.08.66.66,0,0,1,.41.16.72.72,0,0,1,.08.4v.57l.08.08c-.08.4-.25.56-.49.56-.08,0-.24-.08-.24-.16a.17.17,0,0,0-.16-.16H205a.29.29,0,0,0,.08.24c.08.08.08.16.08.32s-.08.41-.4.32c-.08.17,0,.25.24.25.08.24.16.32.24.32a.72.72,0,0,0,.08-.4c0-.17.08-.33.08-.49l.08.08.24-.08v.08h.09a7,7,0,0,0,1.69,3.47l-2.5,2.5a.61.61,0,0,1-.16-.4c.08-.25.32-.41.32-.65l.08-.48c-.24,0-.32-.25-.48-.49Zm-1.45-3.71c0,.09.08.17.08.25a.28.28,0,0,1-.08.16h-.08a6.43,6.43,0,0,1-.17-1.29h.49a.29.29,0,0,1-.08.24c-.08.08-.08.16-.16.24a.29.29,0,0,0-.08.24c.08,0,.08.08.08.16Zm-.17-1.77a9.41,9.41,0,0,1,2.58-6.13l1.78,1.78-.08.08c-.08,0-.24.08-.33.08s-.16.24-.24.32a2,2,0,0,0-.56.32l-.48.49a1.28,1.28,0,0,0-.49.24.17.17,0,0,0-.16.16c.08.16.08.32,0,.32l-.56.16c-.08,0-.08,0-.08.09l-.17.16c0,.08-.08.16-.08.24s0,.16-.08.16-.24.16-.32.32a.7.7,0,0,0,0,.57l.08.56h0c0,.08.08.08.08.16Zm5,5.81a6.6,6.6,0,0,0,3.15,1.61c-.08,0-.16.08-.25.08s-.32.16-.32.4a.44.44,0,0,1-.24.4c-.16.09-.16.17-.16.25a1.55,1.55,0,0,1,.4.72,1,1,0,0,0,.57.57l.32.08a.42.42,0,0,1,.32.16l.32.08a10.38,10.38,0,0,1-6-2.5ZM205.7,10.23l-1.77-1.77a13.12,13.12,0,0,1,8.55-3.55v2.5a10,10,0,0,0-6.78,2.82Zm-.64.65a10.65,10.65,0,0,0-2.82,6.77h-2.5a12.93,12.93,0,0,1,3.55-8.54Zm-2.82,7.66a7,7,0,0,0,.08,1.29c0-.08-.08-.08-.08-.16-.16-.16-.24-.33-.32-.33s-.25.08-.25.17-.08.16-.16.24a1.61,1.61,0,0,1-.64.32,1.43,1.43,0,0,0-.32.73.14.14,0,0,0,0,.24c.08.08,0,.16-.09.24a.55.55,0,0,1,.09.32v.08h-.17c0,.08-.08.08-.08.16a14.88,14.88,0,0,1-.56-3.3ZM212.4,34.82a17,17,0,0,1-11.13-4.59l1.94-1.94a13.84,13.84,0,0,0,9.19,3.79v2.74Zm0-3.54a12.85,12.85,0,0,1-8.47-3.55.82.82,0,0,0,1,0l.48-.24a.79.79,0,0,0,.57-.16h.4c.16,0,.24-.17.24-.33s-.08-.24-.24-.32-.24-.16-.24-.24,0-.08-.08-.16l-.41-.41h0a10.71,10.71,0,0,0,6.78,2.83Zm.48-6.62h0a1.43,1.43,0,0,1-.57-.08c0-.08,0-.08-.08-.16.08-.08.17-.16.25-.16a.61.61,0,0,1,.32-.16v-.16l.4-.32c.08,0,.08-.08.16-.08s.24-.08.33-.08.32.08.48.24a1.14,1.14,0,0,0,.48.16l.08-.24c.08,0,.16.08.33.24.08,0,.24-.08.32-.08v-.32c.08,0,.08,0,.16.08h.24a.56.56,0,0,0,.32-.17c.08-.08.25-.16.33-.24h.08a.29.29,0,0,1,.08.24.91.91,0,0,1-.49.73,2.87,2.87,0,0,1-.88.32c-.08.08-.08.16-.16.24s-.08.25-.17.25-.48-.08-.72-.08a.63.63,0,0,1-.16-.33.64.64,0,0,0-.41.08l-.48.08Zm2.58-1.93a.53.53,0,0,1,.32-.4,1,1,0,0,1,.48-.08c0,.08-.08.24-.32.32a1.14,1.14,0,0,1-.48.16Zm1.77-1.45a.44.44,0,0,1,.24.4c0,.08-.08.24-.16.24h-.08c-.08,0-.24-.16-.32-.4a.82.82,0,0,1-.48-.4c-.08-.16,0-.32.08-.32s.16-.09.24-.09.08.09.08.25Zm5.65-9.84c.08,0,.08,0,.08.08a3.13,3.13,0,0,1,.4.09,8.5,8.5,0,0,1,.72.88l.17.16.16.16c.08,0,.24-.08.32-.08s0-.08.08-.16a13.68,13.68,0,0,1,1.21,5h-2.5v-.08a.86.86,0,0,0-.16-.64,1.13,1.13,0,0,1-.08-.89.53.53,0,0,0,0-.49.27.27,0,0,0-.24.09c-.08.08-.08.16-.16.24s-.09.24-.17.32h0a.08.08,0,0,1-.08.08c0,.08,0,.08-.08.16l-.08.49v.48h0v.16h-1.29a.62.62,0,0,1,.41-.16h0l.32-.16c-.08,0-.08-.08-.08-.16s0-.16.08-.16l.32-.17a1.29,1.29,0,0,0,.32-.56A2.86,2.86,0,0,0,223,15a.61.61,0,0,0-.16-.32v-.24c0-.41.16-1.13-.33-1.29-.08,0-.08-.08-.08-.16.16-.08.16-.33.08-.49h-.4a.28.28,0,0,1,.08-.16.29.29,0,0,0,.08-.24.17.17,0,0,0-.16-.16h-.08a.48.48,0,0,0-.32.08c-.08,0-.08.08-.16.08h.08l-.08-.08a.77.77,0,0,0-.25-.57,1.67,1.67,0,0,0-.48-.32h0v-.24l.48-.48.73.24a.61.61,0,0,0,.16.4c.08.08.16.16.24.16a1.1,1.1,0,0,0,.32.24h0c.09-.08.17,0,.09,0Zm-2.42,17.09c-.08-.08-.08-.08-.16-.08s-.09,0-.09-.08.09-.16.17-.24a.8.8,0,0,0,.32-.4.48.48,0,0,0,.08-.32c0-.08,0-.17-.08-.17s-.16-.08-.24-.16-.16-.08-.25-.08-.24-.08-.32-.16a.42.42,0,0,1-.16-.32c0-.08.08-.16.08-.32l.08-.16.16-.09,1.37,1.38c0,.16.08.24.25.24l.16.16a12.92,12.92,0,0,1-1.53,1.21c0-.08.08-.08.08-.16l.08-.08v-.17Zm-.81-6.44a.48.48,0,0,0-.32.08c-.16.08-.32.16-.32.32v.08h0a.31.31,0,0,0-.25.08c-.08,0-.16.08-.32.08s-.16,0-.16-.08.16-.16.48-.24l.33-.32a.27.27,0,0,1,.24-.09,2.12,2.12,0,0,0,.48-.4,1.75,1.75,0,0,0,.24-.4h.08c0,.16.09.32.25.32s.24-.16.32-.4a1,1,0,0,0,.48.08.47.47,0,0,0,.41-.24h.72v.16h0a10.12,10.12,0,0,1-1.93,3.54V24.5a5.3,5.3,0,0,1-.25-.56c-.08,0-.16.16-.32.4s-.16.49-.24.49l-.56.08c-.17,0-.33.08-.57.08a1.14,1.14,0,0,1-.48-.16l-.49-.25a1,1,0,0,0-.48-.08c-.24,0-.32-.08-.32-.16s.08-.16.24-.16a1,1,0,0,1,.48.08l.73.16c.24.08.48.08.64.16s.25.08.33.08l.32-.08c0-.08.08-.24.08-.32a.48.48,0,0,0,.08-.32c.08-.24.16-.4.24-.65a2.21,2.21,0,0,0,.08-.72c0-.16-.08-.32-.16-.32Zm1.61-3.55h1.37a6.16,6.16,0,0,1-.24,1.69c-.08-.16-.16-.4-.32-.48l-.48-.49c0-.16-.09-.24-.09-.4s-.08-.08-.08-.16l-.16-.16Zm.57,7.17c-.08,0-.16,0-.16.08a.75.75,0,0,1-.08.41l-.89-.89a10.7,10.7,0,0,0,2.5-4.6h.08a.32.32,0,0,0,.4,0c.08-.08.08-.08.08-.16s-.08-.24-.32-.48h-.08a9.93,9.93,0,0,0,.16-1.53H226a12.77,12.77,0,0,1-3.55,8.54l-.08-.08h0a2.84,2.84,0,0,0-.16-.8c-.08-.25-.24-.49-.4-.49ZM221.18,13h0a.48.48,0,0,1-.08.32c0,.08-.08.16-.08.32a2.12,2.12,0,0,0,.48.4c.17.16.33.25.49.41s.24.4.24.64.08.4.16.65a.61.61,0,0,1-.16.4.54.54,0,0,1-.56.32l-.08-.08c0-.16.08-.24.08-.32a.48.48,0,0,0,.08-.32.44.44,0,0,0,.24-.33l-.16-.08c-.08-.08-.24-.16-.33-.24s-.08-.16-.32-.16a.48.48,0,0,0-.32.08l-.32.16-.08-.24c0-.08.08-.16.08-.24l-.49-.81a1.88,1.88,0,0,0-.64-.16h-1a.59.59,0,0,0-.48.16c-.16.08-.24.24-.41.41s0,.16-.16.16l-.16-.16,2.66-2.66.08.08.24.24.25.32a1.55,1.55,0,0,1,.72.73Zm-6.37,17.57a3.54,3.54,0,0,0,.73.4,10.3,10.3,0,0,1-2.26.24V28.7h0a.93.93,0,0,0,.41.4,1,1,0,0,0,.48.08c.24,0,.4.08.4.16a.29.29,0,0,1-.08.24.29.29,0,0,0-.08.24.84.84,0,0,0,.4.73Zm-1.53,4.27V32.16a12,12,0,0,0,2.9-.4v.16a1.79,1.79,0,0,1,.57.56c.08.17.32.25.64.25a.44.44,0,0,0,.41-.17c.08-.08.16-.16.16-.24a.42.42,0,0,1,.32-.16c.08,0,.16-.08.24-.16a.87.87,0,0,0,.41-.32c.16-.16.32-.32.32-.49.08,0,.16-.08.24-.16a5.51,5.51,0,0,0,.24-.64l.08-.08v-.08a14.75,14.75,0,0,0,2.58-1.86l1.94,1.94a17,17,0,0,1-11.05,4.51ZM225,29.58,223,27.65a14,14,0,0,0,3.79-9.19h2.66A15.87,15.87,0,0,1,225,29.58Zm4.68-12H227a13.75,13.75,0,0,0-2.74-7.82c0-.08-.08-.16-.17-.24l-.16-.16a7.36,7.36,0,0,0-.72-.81.28.28,0,0,0-.08-.16L225,6.53a16.73,16.73,0,0,1,4.68,11ZM213.28,1.29a17,17,0,0,1,11.13,4.59l-1.62,1.61c0-.08-.08-.16-.08-.24s-.16-.16-.24-.16a.44.44,0,0,1-.24-.4c0-.16-.08-.24-.16-.41a1,1,0,0,1-.57-.56c-.16-.24-.32-.4-.48-.4a.36.36,0,0,1-.4,0,.62.62,0,0,0-.41-.08.6.6,0,0,0-.4.08c-.16.08-.32.08-.48.16l-.08.08A14,14,0,0,0,213.52,4c.17-.24.17-.41.08-.49s-.08,0-.24.17Zm0,3.54a14.15,14.15,0,0,1,5.48,1.37v.08l.25.25c.08.08.16.16.16.24s.08.32.16.48.08.16.16.32a.54.54,0,0,0,.08.49c.08.16.24.32.32.48h.57c.08,0,.16.08.24.16a.63.63,0,0,1,.16.33c0,.08,0,.16.08.16l-.73.72h0a4.51,4.51,0,0,0-.32-1,1,1,0,0,0-.48-.17c0-.08-.16-.24-.4-.48s-.33-.48-.41-.48-.16,0-.16.08.08.16.08.24.08.16.24.4c0,.08,0,.08-.08.08h0c0,.16.16.24.33.33l-.08.08.16.32a10.75,10.75,0,0,0-5.81-2Zm0,3.47a9.34,9.34,0,0,1,6.13,2.58l-1.77,1.85A7.29,7.29,0,0,0,213.28,11V8.3Zm0,3.47a6.43,6.43,0,0,1,3.55,1.37c-.08,0-.08,0-.08.08l-.08.08a.28.28,0,0,0-.08.16c0,.08.16.16.24.16l-.73.73h0c-.08.08-.16.08-.24.16s-.24.16-.24.24a.28.28,0,0,1-.08.16l-.24.24h-.08c-.08,0-.16-.08-.33-.24s-.24-.24-.32-.24-.24,0-.24.08a.15.15,0,0,1-.24,0q-.12-.12.24-.24l.48-.24a1.15,1.15,0,0,0,.49-1c0-.16-.08-.32-.24-.32l-.17.16a.8.8,0,0,0-.4.32l-.32.32a.48.48,0,0,0-.32-.08h-.33Zm-.48,4a.08.08,0,0,0,.08.08.6.6,0,0,1,.32.08.24.24,0,0,0,.32,0c0,.08,0,.08.08.08s.17.16.25.08l.08.08v.08l.08.24h0v.08h.32v.16h0v.49h.08v.08a.61.61,0,0,0-.16.32c0,.08.08.08.16.08a.29.29,0,0,1,.24.08.6.6,0,0,1,.16.33v.48c0,.08,0,.16.08.16a.08.08,0,0,1,.09.08c0,.16,0,.32-.09.4a.88.88,0,0,1-.16.41h-.32a3.46,3.46,0,0,1-.4-.08c-.08,0-.16.08-.24.32a1.16,1.16,0,0,0-.17.48q-.12.24-.24.24H213l-.16.33-.08.08a3,3,0,0,1-1.77-.81l.32-.32a1.48,1.48,0,0,0,.56-.16H212c.32-.16.32-.41.49-.65s.4-.4.16-.56c.24-.49-1-.49-1.21-.4s-.08.4-.24.56-.16.08-.33.16a4.06,4.06,0,0,0-.48.65h0a1.22,1.22,0,0,1-.16-.49h.08v-.08h.08V19h.32c.08,0,.08-.24.08-.32a2.76,2.76,0,0,1,.33-.73c-.08,0-.08-.08-.17-.16s-.08-.08-.16-.08-.08.08-.08.16-.08.16-.08.25a.29.29,0,0,1-.24.08.18.18,0,0,0-.16-.17h-.08c-.08,0-.16.09-.24.09a1.41,1.41,0,0,0-.57.08h-.56c-.08-.08,0-.17.32-.25a.87.87,0,0,1,.32-.72.49.49,0,0,0,.33.08l.08-.08h.08c.08,0,.16.08.24.32s.08.32.16.32.08,0,.16-.08v-.32c.08-.32.16-.56.16-.64v-.17c.08-.08.08-.24.16-.32h.08c.08-.08.16-.08.25-.16a.6.6,0,0,0,.08-.4l.64-.24c.32-.09.48-.25.48-.41h0l.41-.08C212.72,15.72,212.72,15.8,212.8,15.8Zm-.4-14.51V4a13.84,13.84,0,0,0-9.19,3.79L201.27,5.8A17.33,17.33,0,0,1,212.4,1.29ZM200.71,6.53l1.93,1.93a13.86,13.86,0,0,0-3.79,9.19h-2.66a16.18,16.18,0,0,1,4.52-11.12Z"/><g class="cls-2"><path class="cls-3" d="M104,62.1q5.25,0,8.28,2.69a9,9,0,0,1,3,7.06,8.91,8.91,0,0,1-3,7.05q-3,2.67-8.28,2.67H98.86v6.78l3.27.63v3.67H89.48V89l3.25-.63V66.42l-3.25-.63V62.1H104ZM98.86,76.85H104a5.05,5.05,0,0,0,3.87-1.4,5,5,0,0,0,1.31-3.55,5.15,5.15,0,0,0-1.31-3.64A5,5,0,0,0,104,66.82H98.86Z"/><path class="cls-3" d="M112,89l2.19-.32,9.29-26.56h6.28L139,88.66l2.18.32v3.67H130.77V89l2.12-.38-1.34-4.2h-9.9l-1.35,4.2,2.12.38v3.67H112Zm11.08-9.09h7l-3.44-10.76h-.12Z"/><path class="cls-3" d="M174.42,62.1v3.69l-3.27.63V92.65H165L152.7,72.08l-.12,0V88.35l3.27.63v3.67H143.2V89l3.25-.63V66.42l-3.25-.63V62.1h9.38l12.34,20.56.12,0V66.42l-3.27-.63V62.1h12.65Z"/><path class="cls-3" d="M204.32,77.6a16.22,16.22,0,0,1-3.84,11.1,13.64,13.64,0,0,1-20,0,16.3,16.3,0,0,1-3.81-11.1v-.46a16.38,16.38,0,0,1,3.8-11.08,12.53,12.53,0,0,1,10-4.4,12.7,12.7,0,0,1,10.06,4.4,16.22,16.22,0,0,1,3.85,11.08Zm-6.1-.5a13.6,13.6,0,0,0-2-7.7,6.56,6.56,0,0,0-5.83-3,6.4,6.4,0,0,0-5.76,2.94,14,14,0,0,0-1.9,7.72v.5a14.07,14.07,0,0,0,1.92,7.78,6.43,6.43,0,0,0,5.76,3,6.56,6.56,0,0,0,5.84-3,13.9,13.9,0,0,0,1.95-7.78Z"/><path class="cls-3" d="M220.5,62.1q5.2,0,8.16,2.38a8,8,0,0,1,3,6.58,6.62,6.62,0,0,1-1.23,4,8.66,8.66,0,0,1-3.63,2.75,6.63,6.63,0,0,1,3.89,2.66,8.39,8.39,0,0,1,1.18,4.6v1.56a2.68,2.68,0,0,0,.4,1.56,1.79,1.79,0,0,0,1.32.66l.76.11v3.69h-3.17c-2,0-3.41-.54-4.22-1.62a6.72,6.72,0,0,1-1.21-4.17V85.12a4.93,4.93,0,0,0-1.19-3.5,4.57,4.57,0,0,0-3.35-1.33h-5v8.06l3.27.63v3.67H206.78V89l3.25-.63V66.42l-3.25-.63V62.1H220.5Zm-4.34,13.47h4.24a5.86,5.86,0,0,0,3.84-1.09,3.93,3.93,0,0,0,1.28-3.15,4.36,4.36,0,0,0-1.27-3.28,5.2,5.2,0,0,0-3.75-1.23h-4.34Z"/><path class="cls-3" d="M236,89l2.18-.32,9.3-26.56h6.27L263,88.66l2.19.32v3.67H254.77V89l2.12-.38-1.34-4.2h-9.91l-1.34,4.2,2.12.38v3.67H236Zm11.08-9.09h7l-3.44-10.76h-.13Z"/><path class="cls-3" d="M296.67,70.05l-.12,0-8.18,22.62h-4.12l-8.14-22.54-.13,0,.59,13.41v4.81l3.27.63v3.67H267.19V89l3.25-.63V66.42l-3.25-.63V62.1h11.25l7.78,22.51h.13L294.2,62.1h11.29v3.69l-3.28.63V88.35l3.28.63v3.67H292.83V89l3.26-.63V83.54Z"/><path class="cls-3" d="M307.35,89l2.19-.32,9.29-26.56h6.28l9.23,26.56,2.18.32v3.67H326.11V89l2.12-.38-1.34-4.2H317l-1.35,4.2,2.12.38v3.67H307.35Zm11.08-9.09h7L322,69.13h-.12Z"/></g><path class="cls-3" d="M155.58,127.65a13.59,13.59,0,0,1-4.35,2.66,19,19,0,0,1-7.22,1.18,13.19,13.19,0,0,1-10.07-4.14,15.12,15.12,0,0,1-3.88-10.78v-1a16.18,16.18,0,0,1,3.83-11.16,12.75,12.75,0,0,1,10-4.3,18.18,18.18,0,0,1,6.56,1.14,14.31,14.31,0,0,1,4.94,3.1v6.15h-4.53l-.86-4.1a6.42,6.42,0,0,0-2.22-1.14,10.5,10.5,0,0,0-3.16-.43,7.35,7.35,0,0,0-6.23,3,12.56,12.56,0,0,0-2.22,7.74v1.09a11.68,11.68,0,0,0,2.18,7.44,7.5,7.5,0,0,0,6.29,2.78,11.56,11.56,0,0,0,3-.31,6.6,6.6,0,0,0,1.8-.74v-5.18l-4.37-.34v-4.3h10.52Z"/><path class="cls-3" d="M158.64,131.05v-3.67l3.25-.63V104.82l-3.25-.63V100.5h12.65v3.69l-3.27.63v21.53h8.62l.3-3.84h4.68v8.54Z"/><path class="cls-3" d="M211.23,116a16.26,16.26,0,0,1-3.84,11.1,13.66,13.66,0,0,1-20,0,16.34,16.34,0,0,1-3.81-11.1v-.46a16.31,16.31,0,0,1,3.8-11.08,12.53,12.53,0,0,1,10-4.41,12.73,12.73,0,0,1,10.07,4.41,16.25,16.25,0,0,1,3.85,11.08Zm-6.11-.51a13.68,13.68,0,0,0-2-7.7,6.57,6.57,0,0,0-5.84-3,6.4,6.4,0,0,0-5.76,2.94,14.07,14.07,0,0,0-1.9,7.72V116a14,14,0,0,0,1.93,7.77,6.39,6.39,0,0,0,5.76,3,6.53,6.53,0,0,0,5.83-3,13.87,13.87,0,0,0,2-7.77Z"/><path class="cls-3" d="M227.26,100.5c3.59,0,6.4.7,8.41,2.1a7.12,7.12,0,0,1,3,6.27,6.6,6.6,0,0,1-1.12,3.79,6.78,6.78,0,0,1-3.26,2.51,6.45,6.45,0,0,1,4.12,2.52,7.45,7.45,0,0,1,1.38,4.46,7.93,7.93,0,0,1-2.9,6.65q-2.9,2.25-8.2,2.25h-15v-3.67l3.25-.63V104.82l-3.25-.63V100.5h13.58Zm-4.2,12.8h4.41a6.16,6.16,0,0,0,3.78-1,3.46,3.46,0,0,0,1.32-2.93,3.66,3.66,0,0,0-1.34-3.13,6.52,6.52,0,0,0-4-1h-4.2Zm0,4.24v8.81h5.65a5.66,5.66,0,0,0,3.71-1.06,3.84,3.84,0,0,0,1.28-3.14,4.89,4.89,0,0,0-1.09-3.43,4.48,4.48,0,0,0-3.44-1.18Z"/><path class="cls-3" d="M241.78,127.38l2.18-.31,9.3-26.57h6.27l9.23,26.57,2.19.31v3.67H260.54v-3.67l2.12-.38-1.34-4.19h-9.91L250.07,127l2.12.38v3.67H241.78Zm11.08-9.09h7l-3.44-10.76h-.13Z"/><path class="cls-3" d="M273,131.05v-3.67l3.25-.63V104.82l-3.25-.63V100.5h12.65v3.69l-3.27.63v21.53H291l.29-3.84h4.68v8.54Z"/><g class="cls-2"><path class="cls-3" d="M56,141.93v-3.7H68.66v3.7l-3.27.63v8.81H77.85v-8.81l-3.27-.63v-3.7H87.23v3.7l-3.27.63v21.93l3.27.63v3.67H74.58v-3.67l3.27-.63v-8.4H65.39v8.4l3.27.63v3.67H56v-3.67l3.25-.63V142.56Z"/><path class="cls-3" d="M101.9,138.23v3.7l-3.27.63v15.95a5.87,5.87,0,0,0,1.62,4.52,6.33,6.33,0,0,0,4.46,1.5,6.46,6.46,0,0,0,4.51-1.49,5.85,5.85,0,0,0,1.64-4.53V142.56l-3.25-.63v-3.7h12.65v3.7l-3.27.63v15.95a9.7,9.7,0,0,1-3.39,7.93,13.53,13.53,0,0,1-8.89,2.79,13.39,13.39,0,0,1-8.84-2.79,9.71,9.71,0,0,1-3.37-7.93V142.56l-3.25-.63v-3.7H101.9Z"/><path class="cls-3" d="M151.55,146.19l-.13,0-8.18,22.62h-4.11L131,146.25l-.12,0,.59,13.41v4.81l3.27.63v3.67H122.07v-3.67l3.25-.63V142.56l-3.25-.63v-3.7h11.24l7.79,22.52h.12l7.85-22.52h11.29v3.7l-3.27.63v21.93l3.27.63v3.67H147.71v-3.67l3.25-.63v-4.81Z"/><path class="cls-3" d="M162.23,165.12l2.18-.32,9.3-26.57H180l9.24,26.57,2.18.32v3.67H181v-3.67l2.12-.38-1.34-4.2h-9.91l-1.34,4.2,2.12.38v3.67H162.23ZM173.31,156h7l-3.44-10.77h-.13Z"/><path class="cls-3" d="M224.64,138.23v3.7l-3.28.63v26.23h-6.1l-12.34-20.57-.13,0v16.25l3.27.63v3.67H193.41v-3.67l3.25-.63V142.56l-3.25-.63v-3.7h9.38l12.34,20.57.13,0V142.56l-3.28-.63v-3.7h12.66Z"/><path class="cls-3" d="M226.59,141.93v-3.7h12.65v3.7l-3.27.63v21.93l3.27.63v3.67H226.59v-3.67l3.27-.63V142.56Z"/><path class="cls-3" d="M268.47,138.23v8.15h-4.7l-.25-3.42H257.9v21.53l3.27.63v3.67H248.49v-3.67l3.28-.63V143h-5.61l-.25,3.42h-4.68v-8.15Z"/><path class="cls-3" d="M266.37,165.12l2.19-.32,9.29-26.57h6.27l9.24,26.57,2.18.32v3.67H285.13v-3.67l2.12-.38-1.34-4.2H276l-1.34,4.2,2.12.38v3.67H266.37ZM277.45,156h7L281,145.26h-.13Z"/><path class="cls-3" d="M311.28,138.23q5.21,0,8.16,2.39a8,8,0,0,1,3,6.57,6.59,6.59,0,0,1-1.24,4,8.54,8.54,0,0,1-3.63,2.75,6.62,6.62,0,0,1,3.9,2.66,8.45,8.45,0,0,1,1.18,4.6v1.55a2.62,2.62,0,0,0,.4,1.57,1.78,1.78,0,0,0,1.32.66l.76.1v3.7h-3.17c-2,0-3.41-.54-4.22-1.62a6.77,6.77,0,0,1-1.22-4.17v-1.75a4.92,4.92,0,0,0-1.18-3.49,4.53,4.53,0,0,0-3.35-1.33h-5v8.06l3.27.63v3.67H297.56v-3.67l3.25-.63V142.56l-3.25-.63v-3.7h13.72Zm-4.34,13.48h4.23a5.82,5.82,0,0,0,3.84-1.09,3.9,3.9,0,0,0,1.28-3.15,4.36,4.36,0,0,0-1.27-3.29,5.15,5.15,0,0,0-3.74-1.22h-4.34Z"/><path class="cls-3" d="M327.08,141.93v-3.7h12.65v3.7l-3.27.63v21.93l3.27.63v3.67H327.08v-3.67l3.27-.63V142.56Z"/><path class="cls-3" d="M370,153.74a16.22,16.22,0,0,1-3.84,11.1,13.64,13.64,0,0,1-20,0,16.3,16.3,0,0,1-3.81-11.1v-.46a16.38,16.38,0,0,1,3.8-11.08,12.54,12.54,0,0,1,10-4.41,12.72,12.72,0,0,1,10.06,4.41A16.22,16.22,0,0,1,370,153.28Zm-6.1-.5a13.6,13.6,0,0,0-2-7.7,6.53,6.53,0,0,0-5.83-3,6.4,6.4,0,0,0-5.76,2.94,14,14,0,0,0-1.9,7.72v.5a14.07,14.07,0,0,0,1.92,7.78,6.42,6.42,0,0,0,5.76,2.94,6.53,6.53,0,0,0,5.83-2.94,13.82,13.82,0,0,0,2-7.78Z"/></g><path class="cls-4" d="M170.21,206.75v-2.83l10-11.12a28.11,28.11,0,0,0,3.65-4.76,7.58,7.58,0,0,0,.95-3.61,5.71,5.71,0,0,0-1.34-3.85,4.44,4.44,0,0,0-3.55-1.57,6.06,6.06,0,0,0-4.66,1.62,6.51,6.51,0,0,0-1.49,4.57h-4l-.05-.12a8.62,8.62,0,0,1,2.62-6.63,10.25,10.25,0,0,1,7.54-2.69,9,9,0,0,1,6.58,2.4,8.2,8.2,0,0,1,2.44,6.12,9.76,9.76,0,0,1-1.47,5,32.62,32.62,0,0,1-4.17,5.4l-8,8.75,0,.1h10.85l.34-3.5H190v6.73Z"/><path class="cls-4" d="M213.89,195.11c0,3.9-.86,6.89-2.6,9a9.67,9.67,0,0,1-14.22,0c-1.75-2.09-2.63-5.07-2.63-9v-7.24q0-5.84,2.6-9a9.63,9.63,0,0,1,14.23,0q2.63,3.14,2.62,9ZM209.76,187q0-4-1.44-6a4.82,4.82,0,0,0-4.18-2,4.76,4.76,0,0,0-4.14,2q-1.42,2-1.42,6v9a10.32,10.32,0,0,0,1.44,6,5.3,5.3,0,0,0,8.32,0,10.42,10.42,0,0,0,1.42-6Z"/><path class="cls-4" d="M218.45,206.75v-2.83l10-11.12A28.48,28.48,0,0,0,232.1,188a7.58,7.58,0,0,0,1-3.61,5.71,5.71,0,0,0-1.34-3.85,4.44,4.44,0,0,0-3.55-1.57,6.06,6.06,0,0,0-4.66,1.62A6.51,6.51,0,0,0,222,185.2h-4l0-.12a8.61,8.61,0,0,1,2.61-6.63,10.25,10.25,0,0,1,7.54-2.69,9,9,0,0,1,6.58,2.4,8.21,8.21,0,0,1,2.45,6.12,9.77,9.77,0,0,1-1.48,5,32.62,32.62,0,0,1-4.17,5.4l-8,8.75.05.1H234.4l.33-3.5h3.51v6.73Z"/><path class="cls-4" d="M242.68,204.11l4.72-.59V180.63l-4.8.08v-2.58l8.94-1.93v27.32l4.7.59v2.64H242.68Z"/></svg>
