<svg id="Layer_1" data-name="Layer 1" xmlns="http://www.w3.org/2000/svg" viewBox="0 0 450 136"><defs><style>.cls-1{fill:#5090cd;}.cls-2{fill:#1b344a;}</style></defs><path class="cls-1" d="M212.34,16l2,1.95a14.53,14.53,0,0,0-3.93,9.48H207.6A17.27,17.27,0,0,1,212.34,16Zm12.09-5.4v2.77A14.49,14.49,0,0,0,215,17.35l-2-2A17.23,17.23,0,0,1,224.43,10.64Zm.38,15c0,.06.07.09.11.09a.46.46,0,0,1,.29.09.37.37,0,0,0,.32,0,.23.23,0,0,0,.06.12.25.25,0,0,0,.24.13.27.27,0,0,1,.07.08l0,.06a1.29,1.29,0,0,0,.1.22h0l0,0a.21.21,0,0,0,.19,0,.2.2,0,0,1,.15,0c0,.05,0,.09,0,.14h0s0,.09,0,.15a1.39,1.39,0,0,1,0,.27v.12a.05.05,0,0,1-.06.06.49.49,0,0,0-.2.35c0,.08.05.11.16.09a.22.22,0,0,1,.23.09.45.45,0,0,1,.13.36v.54a.2.2,0,0,0,.09.18q.09.06.09.12a2.15,2.15,0,0,1-.06.45.79.79,0,0,1-.18.39s-.15,0-.31,0a2,2,0,0,0-.44-.06c-.09,0-.17.12-.25.36a3.29,3.29,0,0,0-.19.55c0,.16-.13.24-.25.24a1.07,1.07,0,0,0-.25,0H225l-.2.32-.07.09a2.93,2.93,0,0,1-1.84-.8l.33-.32a3.28,3.28,0,0,0,.58-.14l.1,0c.33-.14.3-.4.46-.69s.41-.39.17-.6c.27-.48-1-.48-1.22-.38s-.09.41-.23.62-.19.11-.29.18a1.75,1.75,0,0,0-.46.63h0a2.72,2.72,0,0,1-.21-.46h0c0-.05,0-.08,0-.1h.06v.06c.16,0,.27,0,.31,0a2.77,2.77,0,0,0,.09-.33,4,4,0,0,1,.33-.72.25.25,0,0,1-.14-.18c0-.08-.07-.1-.14-.06a.19.19,0,0,0-.12.18.37.37,0,0,1-.11.24.32.32,0,0,1-.24.13.17.17,0,0,0-.19-.19.32.32,0,0,0-.24.13l-.57.06a1.3,1.3,0,0,1-.58,0c-.08-.08,0-.17.3-.25a.84.84,0,0,1,.31-.73.92.92,0,0,0,.36.12l.12-.12h.06c.12,0,.19.1.21.31s.07.3.16.3a.35.35,0,0,0,.24-.12v-.31c.08-.32.14-.55.18-.67V27a1,1,0,0,1,.19-.3h.07a.56.56,0,0,1,.28-.13,1,1,0,0,0,.12-.38c.12,0,.34-.12.64-.25s.46-.24.46-.37v0a3,3,0,0,1,.42-.06A.22.22,0,0,0,224.81,25.59Zm.54-4.17A6.43,6.43,0,0,1,229,22.84a.39.39,0,0,0-.13.06l-.12.09s-.06.07-.06.14.14.14.23.16l-.72.71h0a2,2,0,0,0-.27.19c-.16.09-.25.16-.27.22a1.13,1.13,0,0,0-.06.21l-.24.24h-.11c-.08,0-.2-.08-.37-.24s-.29-.25-.37-.25a.39.39,0,0,0-.28.09.16.16,0,0,1-.21,0c-.09-.08,0-.17.27-.27l.53-.22a1.16,1.16,0,0,0,.5-1c0-.21-.09-.32-.25-.32l-.19.18a1.62,1.62,0,0,0-.43.29l-.31.3a.87.87,0,0,0-.37-.07h-.36l0,0Zm0-3.56a10,10,0,0,1,6.33,2.63l-1.86,1.86a7.45,7.45,0,0,0-4.47-1.86Zm0-3.53A13.58,13.58,0,0,1,231,15.78s0,0,0,0l.24.26.21.24a4,4,0,0,0,.18.54l.19.3a.69.69,0,0,0,.09.51,4.45,4.45,0,0,0,.33.51l.24,0,.31,0q.12,0,.27.18a1.12,1.12,0,0,1,.21.36.64.64,0,0,1,.05.2l-.74.75h0a4.36,4.36,0,0,0-.36-1,.6.6,0,0,0-.48-.15s-.18-.21-.42-.52-.38-.46-.42-.46a.24.24,0,0,0-.18.06l.12.21.24.4c0,.09,0,.13-.12.13a.39.39,0,0,0,.3.3l-.06.12.18.36a10.92,10.92,0,0,0-6-2.1Zm0-3.69a17.23,17.23,0,0,1,11.43,4.75l-1.69,1.68a1.06,1.06,0,0,1-.09-.25c-.14-.12-.22-.19-.25-.19a.46.46,0,0,1-.28-.39.64.64,0,0,0-.15-.39,1.14,1.14,0,0,1-.61-.53c-.16-.28-.33-.42-.49-.42a.48.48,0,0,1-.39-.05,1.31,1.31,0,0,0-.4-.1,1.44,1.44,0,0,0-.43.06,3.46,3.46,0,0,1-.47.12l-.06.06a14.41,14.41,0,0,0-5.92-1.56c.16-.26.18-.42.06-.5s-.12,0-.26.15Zm16.82,16.83H239.4a14.39,14.39,0,0,0-2.8-8.11.86.86,0,0,0-.13-.25,1.07,1.07,0,0,0-.16-.14c-.23-.29-.47-.56-.71-.83a.84.84,0,0,1-.08-.2l1.91-1.9A17.22,17.22,0,0,1,242.17,27.47Zm-4.74,12.35-2-2a14.44,14.44,0,0,0,3.93-9.47h2.77A17.22,17.22,0,0,1,237.43,39.82Zm-12.08,5.4V42.44a14.09,14.09,0,0,0,3-.41l0,.06s0,0,0,.07a2.27,2.27,0,0,1,.61.58q.12.24.66.24a.52.52,0,0,0,.4-.12,2.25,2.25,0,0,1,.21-.24.75.75,0,0,1,.3-.18.39.39,0,0,0,.24-.18.8.8,0,0,0,.43-.37,1.09,1.09,0,0,0,.36-.48.36.36,0,0,0,.25-.15,1.93,1.93,0,0,0,.24-.64l.1-.06s0-.06,0-.09a14.72,14.72,0,0,0,2.61-2l2,2A17.23,17.23,0,0,1,225.35,45.22Zm1.52-4.37a2.22,2.22,0,0,0,.78.4,14.6,14.6,0,0,1-2.3.28V38.92h0a1.54,1.54,0,0,0,.38.41,1.85,1.85,0,0,0,.54.09c.27,0,.4.07.4.15a.54.54,0,0,1-.09.28.54.54,0,0,0-.09.27A.92.92,0,0,0,226.87,40.85Zm6.61-18.19v0a1,1,0,0,1-.06.3,2.33,2.33,0,0,1-.12.3,1.59,1.59,0,0,0,.49.43,5.21,5.21,0,0,1,.54.42,3.17,3.17,0,0,1,.27.7,3,3,0,0,1,.16.65,1.62,1.62,0,0,1-.19.42.7.7,0,0,1-.6.37l-.06-.06a.92.92,0,0,1,.12-.36.92.92,0,0,0,.12-.36.48.48,0,0,0,.24-.36l-.18-.09a2,2,0,0,1-.3-.27c0-.12-.12-.18-.37-.18a.49.49,0,0,0-.3.1l-.3.21-.12-.25a.54.54,0,0,0,.06-.25l-.49-.81a1.94,1.94,0,0,0-.66-.21,1.15,1.15,0,0,0-.49,0,1.24,1.24,0,0,1-.47,0,.6.6,0,0,0-.49.15,2.45,2.45,0,0,0-.4.39c-.06.08,0,.18-.15.14a1.27,1.27,0,0,1-.15-.16l2.75-2.75a.32.32,0,0,0,.06.08l.24.28.27.32C233.1,22.09,233.3,22.37,233.48,22.66Zm.64,13.15q-.18,0-.18.09a2.39,2.39,0,0,1-.06.38l-.9-.91a11,11,0,0,0,2.56-4.71l0,0c.21.08.34.08.4,0a.41.41,0,0,0,.1-.18c0-.12-.11-.28-.31-.48h-.07a11.75,11.75,0,0,0,.18-1.58h2.6a13.5,13.5,0,0,1-3.66,8.82l-.11-.11v0c0-.28-.08-.55-.13-.82S234.36,35.81,234.12,35.81Zm-.59-7.42H235a10.2,10.2,0,0,1-.24,1.77,1.9,1.9,0,0,0-.31-.54l-.49-.49q-.06-.3-.09-.42a.4.4,0,0,0-.09-.14A1.24,1.24,0,0,1,233.53,28.39Zm-1.61,3.68a.42.42,0,0,0-.37.06.53.53,0,0,0-.37.35.05.05,0,0,1-.06.06.55.55,0,0,0-.24.07l-.3.12q-.18,0-.18-.12c0-.13.18-.21.54-.25l.3-.35a.68.68,0,0,1,.28-.12,1.48,1.48,0,0,0,.46-.45,1.36,1.36,0,0,0,.22-.39h.06c0,.2.08.3.25.3s.24-.14.32-.42a1.83,1.83,0,0,0,.51.12.44.44,0,0,0,.44-.23h.76v.06l0,.05h0a10.15,10.15,0,0,1-2,3.63c0-.07,0-.13,0-.19s-.18-.55-.22-.55-.17.14-.29.42-.19.47-.23.55l-.61.12a2.23,2.23,0,0,1-.54.06,1.53,1.53,0,0,1-.51-.21,1.77,1.77,0,0,0-.52-.22,3.76,3.76,0,0,0-.52-.12q-.33-.06-.33-.18t.24-.18a2.58,2.58,0,0,1,.49.09l.73.18.66.18a1.91,1.91,0,0,0,.37.09l.36-.12a.74.74,0,0,1,.12-.33.78.78,0,0,0,.13-.33,3.49,3.49,0,0,0,.22-.67,3.61,3.61,0,0,0,.1-.73C232.11,32.22,232,32.11,231.92,32.07Zm.85,6.66a.23.23,0,0,0-.16-.06q-.09,0-.09-.12c0-.08.06-.16.19-.24a.91.91,0,0,0,.3-.43,1,1,0,0,0,.13-.36.15.15,0,0,0-.1-.15.59.59,0,0,1-.21-.15l-.28-.12a3,3,0,0,1-.33-.19.35.35,0,0,1-.18-.3,1.29,1.29,0,0,1,.09-.3,1.22,1.22,0,0,1,.07-.17l.13-.12,1.4,1.41c0,.16.1.25.29.28l.15.15a13.43,13.43,0,0,1-1.56,1.26.47.47,0,0,1,.1-.16l.07-.05A.35.35,0,0,0,232.77,38.73Zm2.5-17.63a.17.17,0,0,1,.12.06.74.74,0,0,1,.42.12,4.54,4.54,0,0,1,.74.91s.09.06.15.19.13.18.21.18a1,1,0,0,0,.32-.1l0-.17a13.44,13.44,0,0,1,1.22,5.18h-2.57s0,0,0,0a1.31,1.31,0,0,0-.14-.67,1.33,1.33,0,0,1-.09-.9.86.86,0,0,0,0-.51.36.36,0,0,0-.25.06,1,1,0,0,0-.15.27c-.06.14-.11.26-.15.34v0l-.05.11a.53.53,0,0,1-.06.15l-.12.49a1.1,1.1,0,0,0,0,.48h0c0,.07,0,.13,0,.19h-1.31a.75.75,0,0,1,.28-.18h0l.35-.18a.19.19,0,0,1-.12-.18q0-.18.06-.21l.36-.15a2.86,2.86,0,0,0,.32-.57,3.54,3.54,0,0,0,.47-1.2c0-.09-.12-.21-.14-.32a2.13,2.13,0,0,1,0-.25c0-.43.2-1.17-.35-1.3q-.06,0-.06-.18a.43.43,0,0,0,.12-.46h-.37a.61.61,0,0,1,.09-.22.56.56,0,0,0,.1-.27.17.17,0,0,0-.19-.18.68.68,0,0,0-.31.06.55.55,0,0,1-.19.06H234a1.47,1.47,0,0,0-.1-.13.89.89,0,0,0-.26-.59,1.11,1.11,0,0,0-.49-.36l0,0a.39.39,0,0,0,0-.26l.51-.51.73.26a.46.46,0,0,0,.2.42l.25.19a1.82,1.82,0,0,1,.29.21v0A.35.35,0,0,0,235.27,21.1Zm-5.85,10.18a.5.5,0,0,1,.24.45c0,.17-.08.25-.24.25s-.22-.15-.3-.43c-.29-.08-.45-.21-.49-.39s0-.29.06-.34l.25-.09c.08,0,.1.07.06.28Zm-1.88,1.48a.47.47,0,0,1,.31-.39,1.36,1.36,0,0,1,.48-.09q0,.18-.33.36a1.57,1.57,0,0,1-.4.18Zm-2.62,2h0a1.37,1.37,0,0,1-.61-.1l-.06-.16.29-.19a.85.85,0,0,1,.38-.15V34l.44-.34.16-.06.34-.12a2.21,2.21,0,0,1,.47.21,2,2,0,0,0,.47.22l.06-.25c.08,0,.2.08.36.25a.56.56,0,0,0,.31-.13.39.39,0,0,0,0-.3.46.46,0,0,1,.18.06.12.12,0,0,1,.09,0,.12.12,0,0,0,.09,0H228a.65.65,0,0,0,.33-.15l.34-.21a.07.07,0,0,1,.12,0,.35.35,0,0,1,.06.24.77.77,0,0,1-.51.73,9.21,9.21,0,0,1-.88.36.88.88,0,0,0-.16.28q-.09.21-.21.21a3.51,3.51,0,0,1-.74-.12,1,1,0,0,1-.19-.37,1.92,1.92,0,0,0-.44.06l-.5.12A.43.43,0,0,1,224.92,34.76Zm-.49,6.77a13.57,13.57,0,0,1-8.79-3.63,1.28,1.28,0,0,0,.5.13,1.32,1.32,0,0,0,.49-.13c.2-.08.38-.17.54-.25a1,1,0,0,0,.55-.12.86.86,0,0,0,.45,0,.3.3,0,0,0,.22-.31.43.43,0,0,0-.22-.33q-.21-.15-.21-.27s-.05-.09-.13-.16a2.69,2.69,0,0,1-.39-.43h0a11,11,0,0,0,7,2.9Zm0,3.69A17.23,17.23,0,0,1,213,40.47l2-2a14.43,14.43,0,0,0,9.48,3.93ZM213.89,28.39a9.81,9.81,0,0,0,.15,1.34.77.77,0,0,1-.1-.18c-.15-.19-.27-.29-.36-.29a.24.24,0,0,0-.25.15.8.8,0,0,1-.18.27,1.62,1.62,0,0,1-.68.31,1.52,1.52,0,0,0-.36.72.21.21,0,0,0,0,.25c.06.08,0,.16-.1.24.09.16.11.26.07.3s0,.11,0,.09a.14.14,0,0,0-.15,0,.39.39,0,0,0-.08.14,13.34,13.34,0,0,1-.55-3.37Zm2.9-7.9a11,11,0,0,0-2.9,7h-2.6A13.53,13.53,0,0,1,215,18.64Zm.65-.65L215.6,18a13.63,13.63,0,0,1,8.83-3.66v2.61A11,11,0,0,0,217.44,19.84ZM220,33.51a7.46,7.46,0,0,0,3.23,1.67l-.26.09a.49.49,0,0,0-.37.39c0,.25-.13.4-.27.46a.21.21,0,0,0-.15.28,1.67,1.67,0,0,1,.42.73.77.77,0,0,0,.61.55l.36.12a.66.66,0,0,1,.36.14,1.64,1.64,0,0,1,.32.05,10.05,10.05,0,0,1-6.11-2.62Zm-5.14-6a10.09,10.09,0,0,1,2.63-6.34L219.3,23l-.05.06a1.35,1.35,0,0,0-.32.11l-.27.36a2.74,2.74,0,0,0-.57.3,3.92,3.92,0,0,0-.46.49l-.45.21a.61.61,0,0,0-.22.15c.08.21.08.32,0,.34l-.6.15a.17.17,0,0,0-.12.06l-.19.18a.48.48,0,0,0-.06.21.56.56,0,0,1-.06.22,1.07,1.07,0,0,0-.3.3.74.74,0,0,0,0,.55l.08.6h0a1.21,1.21,0,0,1,0,.18Zm.27,1.89a.61.61,0,0,1,.06.25q0,.18-.12.15s0,0-.05,0a10.25,10.25,0,0,1-.16-1.37h.51a.76.76,0,0,1-.06.25,1.58,1.58,0,0,1-.15.24.4.4,0,0,0-.09.24A.53.53,0,0,0,215.08,29.36Zm1.47,3.8a6,6,0,0,0-.13-1,4.35,4.35,0,0,0-.18-.55,2.6,2.6,0,0,0-.19-.82,3.85,3.85,0,0,0-.57-.75v-.36a1.41,1.41,0,0,0-.13-.35v-.06c0-.09,0-.14.1-.16l.64-.22a1.63,1.63,0,0,1,.06-.56l.44.08c.12,0,.19-.08.19-.25a1.86,1.86,0,0,0-.12-.38,1.38,1.38,0,0,1-.12-.44q0-.12.18-.21a.7.7,0,0,1,.36-.1.44.44,0,0,1,.42.21.89.89,0,0,1,.12.45,1.69,1.69,0,0,1,0,.33,1.39,1.39,0,0,0,0,.27l.12.06q-.12.6-.48.6a.29.29,0,0,1-.27-.16.25.25,0,0,0-.21-.15.05.05,0,0,0-.06.06.61.61,0,0,0,.06.25.67.67,0,0,1,.06.3c0,.29-.13.39-.39.31-.08.15,0,.23.26.23.08.24.16.35.25.3a1,1,0,0,0,.13-.41,2,2,0,0,1,.12-.47l.06.06.26-.06a.29.29,0,0,0,0,.09h.07a7.42,7.42,0,0,0,1.74,3.59l-2.56,2.57a.46.46,0,0,1-.15-.41c.06-.24.31-.39.34-.65,0,0,.06-.48.06-.48A2.4,2.4,0,0,1,216.55,33.16Zm8.07-.11q.15.15.15.21t-.48.18c-.12,0-.2.11-.24.34s-.09.43-.13.58l-.1,0v0a6.36,6.36,0,0,1-3.22-1.5l1.64-1.64a3.81,3.81,0,0,0,2.28,1.05.5.5,0,0,0,.06.26.41.41,0,0,0-.12.3S224.52,32.94,224.62,33.05ZM221,31.11c.1-.09.05-.27.09-.39l-.21.19a1.69,1.69,0,0,0,.36-.45,1.45,1.45,0,0,1,.19-.33h0l.22.38-1.7,1.7a6.48,6.48,0,0,1-1.42-2.74,1.52,1.52,0,0,1,.43.12,4.75,4.75,0,0,1,.38.35.61.61,0,0,0,.25-.06l.24.18a.47.47,0,0,0,.06.3s.06.09.19.15a.52.52,0,0,1,.24.22l.12-.06a1.75,1.75,0,0,0,0-.25q0-.18,0-.18l.12.43.13.48h0A.36.36,0,0,0,221,31.11ZM220,22.35l-1.86-1.86a10,10,0,0,1,6.34-2.63v2.63A7.47,7.47,0,0,0,220,22.35Zm1,.93-.16-.1-.18-.18a6.5,6.5,0,0,1,3.82-1.58v1.92l-.09,0a.21.21,0,0,1,0-.06h0a.24.24,0,0,0-.15,0H224l-.13,0-.14,0-.08,0a.34.34,0,0,1-.09-.27h0q-.24.12-.27.24t-.09.42a.48.48,0,0,1-.31.34,1.06,1.06,0,0,0-.37.21l-.18-.12h-.31a.85.85,0,0,0-.18-.15.35.35,0,0,1-.12-.1s-.06,0-.06,0a.15.15,0,0,0-.16.14l-.18-.18,0,0v-.12A3.82,3.82,0,0,0,221,23.28ZM207.6,28.39h2.77a14.71,14.71,0,0,0,.57,3.59.34.34,0,0,1-.21-.15l-.09-.08-.3-.43-.5.18c0,.29-.1.39-.31.31a.32.32,0,0,0-.24-.13.56.56,0,0,0-.58.52,5,5,0,0,0-.09.7l.43,1.09q.12.18.36.06c.16.2.29.34.37.43a.41.41,0,0,0,.31.12.17.17,0,0,0,.19-.19h.06a2.26,2.26,0,0,1,.25.28,1.43,1.43,0,0,0,.32.27V34.9a.7.7,0,0,0,.51.22,1.48,1.48,0,0,0,.36.67.67.67,0,0,0,.48.25.35.35,0,0,0,.24-.12,2.07,2.07,0,0,0,.3.61,2.18,2.18,0,0,1,.31.18,1.63,1.63,0,0,1,.24.19h.12a1.09,1.09,0,0,0,.3.49,3,3,0,0,0,.37.3l0,0h.08l.12.13-2,2A17.27,17.27,0,0,1,207.6,28.39Zm17.29,17.76a18.22,18.22,0,1,0-18.22-18.22A18.24,18.24,0,0,0,224.89,46.15Zm1.82-33.09h.12a2.81,2.81,0,0,1,.73-.15h.85a.43.43,0,0,0,.36-.15,2.33,2.33,0,0,0,.19-.28,1.14,1.14,0,0,0-.73-.43,5.17,5.17,0,0,0-.61-.06,3.52,3.52,0,0,0-.73.22l-.72.28c-.21,0-.33,0-.37.13a2.2,2.2,0,0,0,.34.28A.9.9,0,0,0,226.71,13.06Zm6.4,1.45a1.5,1.5,0,0,1,.32.18,2.25,2.25,0,0,1,.21.24.26.26,0,0,0,.2.12q.18,0,.18-.12t0-.09s0,0,0-.09a.49.49,0,0,0-.12-.36.44.44,0,0,0-.52-.12.17.17,0,0,0-.12-.06h-.06c-.12,0-.17,0-.17.12A.19.19,0,0,0,233.11,14.51Zm17.57,17.78c0-.06,0-.13,0-.19l0-.28a4.38,4.38,0,0,0-.11-.57,5,5,0,0,1-.75,2.11,14.77,14.77,0,0,1-1.39,1.72l-.09.11c-.52.56-1.09,1.17-1.72,1.83a18.1,18.1,0,0,0-2,2.64l0,0a11.11,11.11,0,0,0,.71-1.72,5.61,5.61,0,0,0,.36-1.72,7,7,0,0,0-.09-1.18q-.09-.51-.21-1.11c-.08-.41-.15-.85-.21-1.33a14.61,14.61,0,0,1-.09-1.75H245s0,0,0,0v0h-.06a13.19,13.19,0,0,0-.65,2.36c-.11.72-.25,1.75-.41,3.08-.08.76-.15,1.42-.21,2s-.12,1-.2,1.48a6.88,6.88,0,0,1-.33,1.21c-.11.31-.26.63-.42,1l-.09.17,0,0v0l1.5-1,3-2A6.35,6.35,0,0,0,248.29,38a8.08,8.08,0,0,0,1.15-1.6,12.74,12.74,0,0,0,.58-1.17c.1-.26.21-.52.3-.78a6.47,6.47,0,0,0,.36-2.09h0ZM237.32,49.82a5.16,5.16,0,0,1-1-.09l-1.12-.22v0L234,49.12l-1.67-.61-2.58-.91a5.3,5.3,0,0,0-1.73-.3,8.46,8.46,0,0,0-1.76.21c-.6.13-1,.24-1.32.31s-.67-.18-1.27-.31a8.3,8.3,0,0,0-1.75-.21,5.24,5.24,0,0,0-1.72.3l-2.57.9c-1.32.48-2.31.82-3,1a6.66,6.66,0,0,1-2,.3,6.07,6.07,0,0,1-.85-.06,2.69,2.69,0,0,1-.72-.19,8.22,8.22,0,0,1-.88-.3l-1.15-.51-.06.06a11.78,11.78,0,0,0,2.12,1.63,6.67,6.67,0,0,0,3.35,1,8.56,8.56,0,0,0,1.3-.09,4.9,4.9,0,0,0,1.14-.33c.38-.16.8-.37,1.27-.61s1-.56,1.66-1,1.25-.79,1.72-1a3.18,3.18,0,0,1,1.59-.39,2.28,2.28,0,0,1,.73.12c-.81.44-1.72,1-2.75,1.58a14,14,0,0,0-3,2.49l1,.91a22,22,0,0,1,3-2.9,10,10,0,0,1,2.78-1.72,10.52,10.52,0,0,1,2.8,1.72,21.08,21.08,0,0,1,3,2.9l1-.91a13.67,13.67,0,0,0-3-2.49c-1-.61-2-1.14-2.78-1.58a3.52,3.52,0,0,1,.79-.12,3.25,3.25,0,0,1,1.61.39c.46.26,1,.61,1.73,1l1.57.93a7.41,7.41,0,0,0,1.24.61,8.89,8.89,0,0,0,1.13.33,6,6,0,0,0,1.18.12h.24a7.24,7.24,0,0,0,2.76-.61,7.17,7.17,0,0,0,2.69-2v-.06a18.65,18.65,0,0,1-2,.82A5,5,0,0,1,237.32,49.82Zm7-34.75a6.19,6.19,0,0,1,.54,1.42c.14.54.3,1.18.48,1.9s.46,1.61.82,2.66v.06a6.25,6.25,0,0,0-1.37-1.9A12.58,12.58,0,0,0,243.26,18a14.08,14.08,0,0,1-1.39-1.06,4.09,4.09,0,0,1-1.07-1.51h-.06c.24.73.44,1.3.58,1.73a6.85,6.85,0,0,0,.43,1.05,3,3,0,0,0,.51.73c.2.2.47.44.79.72.89.77,1.67,1.41,2.31,1.93a6.65,6.65,0,0,1,1.58,1.82V19.18a5.82,5.82,0,0,0-1-3.38,4.54,4.54,0,0,0-2.66-1.94v.06A3.74,3.74,0,0,1,244.31,15.07Zm2.67,9.6a5.88,5.88,0,0,0-1.56-2l-1-1q-.39-.36-.63-.63a5.59,5.59,0,0,1-.38-.48,2.52,2.52,0,0,1-.27-.52H243c.08.37.24,1,.47,1.75a7.8,7.8,0,0,0,1,2.12l1.61,2.29a14,14,0,0,1,.92,1.45,5.46,5.46,0,0,1,.45,1,5.88,5.88,0,0,1,.18,1h.08a25.85,25.85,0,0,1,1-3.53,8.55,8.55,0,0,0,.62-3.17,9.31,9.31,0,0,0-.45-2.81,10.41,10.41,0,0,0-1.74-3.05h-.06c.12.33.26.67.42,1a3,3,0,0,1,.23,1.15c0,1.29,0,2.33-.11,3.14s-.12,1.51-.12,2.11,0,.88,0,1.18,0,.61.06.94h-.06A14.34,14.34,0,0,0,247,24.67Zm1.83,4.23c-.29.68-.59,1.43-.88,2.23a15.06,15.06,0,0,0-.68,2.54h-.06a6.56,6.56,0,0,1,.14-.75,4.73,4.73,0,0,0,.15-1,5.37,5.37,0,0,0-.37-2,11,11,0,0,0-.85-1.76l-.94-1.57a5.25,5.25,0,0,1-.64-1.54h-.06a8,8,0,0,0,.16,2.48c.18.93.4,1.84.65,2.75s.49,1.73.72,2.47a6.79,6.79,0,0,1,.34,1.6v.85a6.45,6.45,0,0,1-.08,1h.05A13.83,13.83,0,0,1,247.93,34a17,17,0,0,0,1.35-1.78,8.18,8.18,0,0,0,1-2,9.81,9.81,0,0,0,.36-2.93,7.29,7.29,0,0,0-.29-1.93,13.89,13.89,0,0,0-.48-1.57h-.06q0,.54,0,.9a8.47,8.47,0,0,1,0,1,4.65,4.65,0,0,1-.29,1.39C249.35,27.59,249.11,28.22,248.81,28.9ZM247,40.46a32.88,32.88,0,0,1-3.61,2,9.92,9.92,0,0,0-2.18,1.39,5.43,5.43,0,0,1-1.46,1l-.06-.06A11.18,11.18,0,0,0,241.33,43a4.57,4.57,0,0,0,.81-1.9c.2-.93.41-1.91.63-3s.4-1.77.52-2.17l-.06-.07c-.41.57-.74,1-1,1.42s-.49.73-.67,1-.34.59-.49.88a7.35,7.35,0,0,0-.39,1c-.44,1.09-.79,2-1,2.63a8,8,0,0,1-.79,1.66,10.9,10.9,0,0,1-1.28,1.7l1.31-.3,2.53-.55a10.21,10.21,0,0,0,2.43-.85A10.55,10.55,0,0,0,246.1,43a9.9,9.9,0,0,0,1.79-2.11A8.91,8.91,0,0,0,249,38.14l-.06-.06A5.37,5.37,0,0,1,247,40.46Zm-3.38,5.1a5.08,5.08,0,0,1-1.37.58,10.62,10.62,0,0,1-1.52.27l-.43.05-.84.09-.85.13a9.81,9.81,0,0,1-1.09.1l-.88.09-1,.15-1.3.21v-.06a6.63,6.63,0,0,0,2.54-1.26,3.4,3.4,0,0,0,1-1.17c.07-.15.15-.29.22-.43l.6-1.08c0-.09.16-.25.16-.25s.75-1.49.84-1.64l-.06-.06c-.23.23-1,.93-1.18,1.07-.54.49-1.1.95-1.63,1.45-.68.65-1.37,1.27-2.05,1.87a4.6,4.6,0,0,1-1.69,1c-.56.18-1.23.37-2,.57,1.17.28,2.1.51,2.8.7s1.28.31,1.72.39l1.09.18a6.37,6.37,0,0,0,.9.06c.25,0,.47,0,.67,0l.57-.06a9.76,9.76,0,0,0,2.37-.62,6.9,6.9,0,0,0,1.79-1,8.78,8.78,0,0,0,1.27-1.22,6.67,6.67,0,0,0,.82-1.14l-.06-.06A8.78,8.78,0,0,1,243.6,45.56Zm-4-32.63L241,14.65a19.19,19.19,0,0,0,1.54,1.78,11.39,11.39,0,0,0,2.05,1.66,10.71,10.71,0,0,0-1.45-3.47,6,6,0,0,0-1.75-1.72,7.63,7.63,0,0,0-1.72-.79,3.46,3.46,0,0,1-1.36-.72l-.06.06A10,10,0,0,1,239.64,12.93ZM202.94,39.1l4.46,3a11.83,11.83,0,0,1-.5-1.15,6.43,6.43,0,0,1-.33-1.21c-.08-.44-.15-.93-.2-1.48s-.13-1.2-.21-2c-.16-1.33-.3-2.35-.41-3.08a13.42,13.42,0,0,0-.65-2.36H205a14.67,14.67,0,0,1-.09,1.76,11.75,11.75,0,0,1-.24,1.33c-.1.4-.19.77-.24,1.11a6,6,0,0,0-.1,1.18,5.23,5.23,0,0,0,.39,1.72,14.62,14.62,0,0,0,.74,1.72l-.06.06a18.25,18.25,0,0,0-2-2.69c-.66-.7-1.27-1.34-1.81-1.93a13.68,13.68,0,0,1-1.38-1.72,4.86,4.86,0,0,1-.76-2.11,4.38,4.38,0,0,0-.11.57,3.48,3.48,0,0,0,0,.57,6.47,6.47,0,0,0,.36,2.09,9.76,9.76,0,0,0,.91,2,9.58,9.58,0,0,0,1.17,1.6A6.07,6.07,0,0,0,202.94,39.1Zm5.64,6.22,2.53.55,1.31.3a10.9,10.9,0,0,1-1.28-1.7,7.81,7.81,0,0,1-.79-1.66c-.24-.66-.59-1.54-1-2.62a7,7,0,0,0-.39-1c-.15-.28-.31-.57-.49-.88s-.4-.64-.67-1-.59-.86-1-1.42l-.06.06c.12.4.29,1.13.52,2.17s.43,2,.63,3a4.52,4.52,0,0,0,.81,1.9,10.77,10.77,0,0,0,1.66,1.78l-.06.07a5.85,5.85,0,0,1-1.46-1,9.92,9.92,0,0,0-2.18-1.39,34.85,34.85,0,0,1-3.61-2,5.45,5.45,0,0,1-2-2.39l-.06.06a8.91,8.91,0,0,0,1.12,2.72A9.66,9.66,0,0,0,203.9,43a10.19,10.19,0,0,0,2.25,1.51A9.53,9.53,0,0,0,208.58,45.32Zm-6.29-15.64h.08a5.81,5.81,0,0,1,.18-1,5.67,5.67,0,0,1,.44-1,13.9,13.9,0,0,1,.93-1.45l1.61-2.3a7.87,7.87,0,0,0,1-2.11c.23-.81.39-1.39.47-1.75h-.06a2.43,2.43,0,0,1-.27.51,5.59,5.59,0,0,1-.38.48c-.16.18-.37.4-.63.64l-1,1a5.8,5.8,0,0,0-1.56,2,13.8,13.8,0,0,0-.59,2h-.06c0-.32,0-.64.06-.94s0-.69,0-1.17,0-1.31-.12-2.12-.11-1.85-.11-3.14a2.86,2.86,0,0,1,.24-1.15c.15-.36.29-.7.41-1h-.06a10.17,10.17,0,0,0-1.74,3.05,9.2,9.2,0,0,0-.45,2.8,8.55,8.55,0,0,0,.62,3.17A25.59,25.59,0,0,1,202.29,29.68Zm9.42,18.9c.2,0,.42,0,.67,0a6.37,6.37,0,0,0,.9-.06l1.09-.18c.44-.08,1-.21,1.72-.39l2.8-.7c-.76-.2-1.43-.39-2-.57a4.6,4.6,0,0,1-1.69-1.05c-.68-.6-1.37-1.22-2.05-1.86-.53-.5-1.09-1-1.63-1.46-.16-.14-.95-.84-1.18-1.07l-.06.06c.09.15.84,1.64.84,1.64s.11.16.16.25l.6,1.08c.07.14.15.28.22.43a3.32,3.32,0,0,0,1,1.17,6.5,6.5,0,0,0,2.53,1.26v.06l-1.3-.21-1-.15c-.3,0-.59-.07-.89-.09s-.73,0-1.08-.09-.57-.1-.85-.13l-.84-.1-.43-.05a10.62,10.62,0,0,1-1.52-.27,5.38,5.38,0,0,1-1.37-.57A8.9,8.9,0,0,1,205,44.44l-.06.06a7.68,7.68,0,0,0,.81,1.15A9.41,9.41,0,0,0,207,46.86a7.22,7.22,0,0,0,1.79,1,9.76,9.76,0,0,0,2.37.61Zm-11-16.37A18.25,18.25,0,0,0,202.07,34a13.25,13.25,0,0,1,1.47,2.14h.05a6.35,6.35,0,0,1-.08-1v-.84a6.69,6.69,0,0,1,.34-1.6c.23-.75.47-1.57.72-2.48s.47-1.82.65-2.75a8,8,0,0,0,.16-2.47h-.06a5.48,5.48,0,0,1-.64,1.54c-.3.5-.62,1-.94,1.57a10.91,10.91,0,0,0-.85,1.75,5.37,5.37,0,0,0-.37,2,4.64,4.64,0,0,0,.15,1,6.56,6.56,0,0,1,.14.75h-.06a14.7,14.7,0,0,0-.68-2.53c-.29-.81-.59-1.55-.88-2.24s-.54-1.3-.74-1.87a4.59,4.59,0,0,1-.29-1.39,8.28,8.28,0,0,1,0-1c0-.24,0-.55,0-.91h-.06a14.59,14.59,0,0,0-.48,1.57,7.29,7.29,0,0,0-.29,1.93,9.76,9.76,0,0,0,.36,2.93A8,8,0,0,0,200.72,32.21Zm6.77-15.79A18,18,0,0,0,209,14.64l1.33-1.72a9.94,9.94,0,0,1,1.42-1.48l-.06-.06a3.46,3.46,0,0,1-1.36.72,8.09,8.09,0,0,0-1.72.79,6.15,6.15,0,0,0-1.75,1.72,10.81,10.81,0,0,0-1.45,3.47A11,11,0,0,0,207.49,16.42Zm-2.85,5.17c.65-.53,1.42-1.17,2.31-1.94.32-.28.59-.52.79-.72a2.89,2.89,0,0,0,.52-.73,8.15,8.15,0,0,0,.42-1.05c.14-.43.34-1,.58-1.72h-.06a4.26,4.26,0,0,1-1.07,1.51,15.77,15.77,0,0,1-1.39,1,13.64,13.64,0,0,0-1.52,1.21,6.37,6.37,0,0,0-1.37,1.9V21c.36-1,.63-1.93.81-2.65s.35-1.36.49-1.91a6.37,6.37,0,0,1,.54-1.42,3.61,3.61,0,0,1,1.06-1.14v-.06a4.48,4.48,0,0,0-2.66,1.93,5.84,5.84,0,0,0-1,3.38V23.4A6.47,6.47,0,0,1,204.64,21.59Z"/><path class="cls-2" d="M22.34,89.67a5.11,5.11,0,0,1-2-.34A4.7,4.7,0,0,1,18.61,88c-.15-.15-.53-.67-1.14-1.5a12.4,12.4,0,0,0-1.65-2,1.79,1.79,0,0,0-1.13-.49,1.7,1.7,0,0,0-.91.37,3.91,3.91,0,0,0-.92.85,1.61,1.61,0,0,0-.38.85,1,1,0,0,0,.4.79,3.73,3.73,0,0,0,1.22.63,10.31,10.31,0,0,1,2,1A2.84,2.84,0,0,1,17.53,91a3.38,3.38,0,0,1-1.6,3,9,9,0,0,1-4.73,1H5.84a4.17,4.17,0,0,1-2.31-.63,4.42,4.42,0,0,1-1.62-1.81A6.09,6.09,0,0,1,1.34,90a13.24,13.24,0,0,1,.73-4.32H5a8.8,8.8,0,0,0-.37,1.75,17.93,17.93,0,0,0-.1,2.07,3.1,3.1,0,0,0,.37,1.46,3,3,0,0,0,1,1.07,2.4,2.4,0,0,0,1.32.47H11.2a7.74,7.74,0,0,0,2.49-.26,1,1,0,0,0,.65-.92.8.8,0,0,0-.48-.79A3.79,3.79,0,0,0,12.68,90a5.42,5.42,0,0,1-2.6-1.29,3,3,0,0,1-.73-2.19,4.32,4.32,0,0,1,.85-2.36A7.28,7.28,0,0,1,12.38,82,4.74,4.74,0,0,1,15,81.11a3.42,3.42,0,0,1,1.34.28,4.92,4.92,0,0,1,1.18.85,20.62,20.62,0,0,1,2,2.42,7.26,7.26,0,0,0,1.62,1.87A2.24,2.24,0,0,0,22.4,87h.24v2.48a.11.11,0,0,1-.12.1ZM7.57,100.57a1.42,1.42,0,0,1-1.08-.43A1.62,1.62,0,0,1,6.08,99a1.78,1.78,0,0,1,.39-1.19,1.46,1.46,0,0,1,1.1-.43,1.44,1.44,0,0,1,1.09.43A1.67,1.67,0,0,1,9.05,99a1.6,1.6,0,0,1-.41,1.18A1.3,1.3,0,0,1,7.57,100.57Zm3.81,0a1.5,1.5,0,0,1-1.11-.43,2,2,0,0,1,0-2.37,1.5,1.5,0,0,1,1.11-.43,1.4,1.4,0,0,1,1.08.43,1.74,1.74,0,0,1,.4,1.19,1.67,1.67,0,0,1-.42,1.18A1.45,1.45,0,0,1,11.38,100.57Z"/><path class="cls-2" d="M26.28,87h.12v2.48a.11.11,0,0,1-.12.1h-4s-.12,0-.12-.1V87.09h.12Z"/><path class="cls-2" d="M26.07,89.67s-.12,0-.12-.1V87.09h3V78.65h3.33V89.71Zm4.41-13a1.51,1.51,0,0,1-1.1-.44,2,2,0,0,1,0-2.36,1.6,1.6,0,0,1,2.19,0A1.64,1.64,0,0,1,32,75.06a1.6,1.6,0,0,1-.41,1.18A1.43,1.43,0,0,1,30.48,76.68Z"/><path class="cls-2" d="M42.43,87h.12v2.48a.11.11,0,0,1-.12.1H36.32V72.73h3.33V87Z"/><path class="cls-2" d="M46.26,87h.12v2.48a.11.11,0,0,1-.12.1h-4m-.1-.1v0Z"/><path class="cls-2" d="M50.08,87h.12v2.48a.11.11,0,0,1-.12.1H46.14a.1.1,0,0,1-.1-.1V87.09h.1Z"/><path class="cls-2" d="M53.91,87H54v2.48a.11.11,0,0,1-.12.1h-4s-.12,0-.12-.1V87.09h.12Z"/><path class="cls-2" d="M77.23,87h.12v2.48a.11.11,0,0,1-.12.1H69.68a4.84,4.84,0,0,1-3.51-1.67,4.33,4.33,0,0,1-3.72,1.67H53.69s-.12,0-.12-.1V87.09h3V80.36h3.33V87h2a2,2,0,0,0,1.64-.61,3,3,0,0,0,.51-2v-4h3.34v4.2a8.51,8.51,0,0,1,0,1,3.51,3.51,0,0,0,1.08,1,2.91,2.91,0,0,0,1.42.3h1.38V78.65H74.3V87Z"/><path class="cls-2" d="M81.06,87h.12v2.48a.11.11,0,0,1-.12.1h-4s-.11,0-.11-.1V87.09h.11Z"/><path class="cls-2" d="M84.86,87H85v2.48a.11.11,0,0,1-.12.1H80.92s-.12,0-.12-.1V87.09h.12Z"/><path class="cls-2" d="M93.68,87h.12v2.48a.11.11,0,0,1-.12.1h-9m0-.1V87.09h2.8V78.65h3.33V87Zm4.43-12.79a1.47,1.47,0,0,1-1.1-.44,1.94,1.94,0,0,1,0-2.36,1.43,1.43,0,0,1,1.1-.44,1.49,1.49,0,0,1,1.09.44,1.94,1.94,0,0,1,0,2.36A1.48,1.48,0,0,1,89.08,76.68Z"/><path class="cls-2" d="M93.46,89.67s-.12,0-.12-.1V87.09h2.92V72.73h3.31v17Z"/><path class="cls-2" d="M103.34,95.13l1.28-.2a1.93,1.93,0,0,1-.75-.51,1.48,1.48,0,0,1-.3-.91,1.85,1.85,0,0,1,.67-1.49,2.84,2.84,0,0,1,1.8-.54,3.63,3.63,0,0,1,1.83.4L107.44,93a2.74,2.74,0,0,0-1.22-.29,1,1,0,0,0-1.07.89,1.2,1.2,0,0,0,0,.19,1.05,1.05,0,0,0,.67,1h.4a15.69,15.69,0,0,1,1.81-.22v1.28l-2.64.28a18.44,18.44,0,0,0-2.07.29Zm.71-22.4h3.33v17h-3.33Z"/><path class="cls-2" d="M111.86,72.73h3.33v17h-3.33Z"/><path class="cls-2" d="M132.56,95.05a6.5,6.5,0,0,1-3.26-.79,5.3,5.3,0,0,1-2.1-2.2,7.15,7.15,0,0,1-.73-3.28,10.18,10.18,0,0,1,.31-2.58,10.89,10.89,0,0,1,.75-2.37h3a18.41,18.41,0,0,0-.55,2.53,15.37,15.37,0,0,0-.22,2.44,3.79,3.79,0,0,0,.83,2.59,2.64,2.64,0,0,0,2.15,1h.75a3.18,3.18,0,0,0,2.54-.93,4,4,0,0,0,.81-2.62V72.73h3.33V87h3v2.48a.11.11,0,0,1-.12.1h-2.92c-.28,3.59-2.47,5.38-6.59,5.38Z"/><path class="cls-2" d="M146.85,87H147v2.48a.11.11,0,0,1-.12.1h-3.94s-.12,0-.12-.1V87.09h.12Z"/><path class="cls-2" d="M150.66,87h.12v2.48a.11.11,0,0,1-.12.1h-3.95s-.11,0-.11-.1V87.09h.11Z"/><path class="cls-2" d="M154.48,87h.12v2.48a.11.11,0,0,1-.12.1h-3.94m-.1-.1v0Z"/><path class="cls-2" d="M158.31,87h.12v2.48a.11.11,0,0,1-.12.1h-3.94s-.12,0-.12-.1V87.09h.12Z"/><path class="cls-2" d="M160.62,87a7.26,7.26,0,0,1-.62-3.08,7.81,7.81,0,0,1,.34-2.09,7.51,7.51,0,0,1,.81-2,9.72,9.72,0,0,1,2.28-.95,8.55,8.55,0,0,1,2.13-.25,5.83,5.83,0,0,1,2.78.65,4.77,4.77,0,0,1,2,1.85,5.54,5.54,0,0,1,.59,2.74,6.51,6.51,0,0,1-.42,2.31,2.51,2.51,0,0,0,.93.61,4.09,4.09,0,0,0,1.3.18H173v2.48a.11.11,0,0,1-.12.1h0a5.51,5.51,0,0,1-2-.33,4.16,4.16,0,0,1-1.64-1.17,5.54,5.54,0,0,1-2,1.13,6.75,6.75,0,0,1-2.27.37h-6.94s-.12,0-.12-.1V87.09h.12Zm2.4-2.6a7.71,7.71,0,0,0,.51,2.6h.83a3.07,3.07,0,0,0,2.27-.91,3,3,0,0,0,.91-2.19,2.85,2.85,0,0,0-.58-2,1.85,1.85,0,0,0-1.53-.71,4.29,4.29,0,0,0-2.09.63A9.15,9.15,0,0,0,163,84.39Z"/><path class="cls-2" d="M186.39,87h.11v2.48a.1.1,0,0,1-.11.1h-2.82a7,7,0,0,1-2.19-.35,7.45,7.45,0,0,1-2-.89,8,8,0,0,1-4.16,1.24h-2.57s-.12,0-.12-.1V87.09h2.29A6.73,6.73,0,0,0,176,87a4.2,4.2,0,0,0,1-.3,7.68,7.68,0,0,1-1.4-1.61,13.5,13.5,0,0,1-1.22-2.47,11.07,11.07,0,0,1-.75-2.52,10.75,10.75,0,0,1,3-1.72,9.48,9.48,0,0,1,3.25-.63,11.34,11.34,0,0,1,5.62,1.36,10.18,10.18,0,0,1-1,4.44,7.24,7.24,0,0,1-2.66,3,4,4,0,0,0,2,.46Zm-6.93-1.82a5.31,5.31,0,0,0,2.82-4.41,6.53,6.53,0,0,0-2.52-.4,5.92,5.92,0,0,0-1.56.26,4.68,4.68,0,0,0-1.38.59,8.36,8.36,0,0,0,1,2.31A5,5,0,0,0,179.46,85.17Z"/><path class="cls-2" d="M186.17,89.57V87.09H189V72.73h3.33v17Z"/><path class="cls-2" d="M196.78,72.73h3.33v17h-3.33Z"/><path class="cls-2" d="M227.93,87h.12v2.48a.11.11,0,0,1-.12.1H225Q224.64,95,218.44,95h-1a6.48,6.48,0,0,1-3.23-.78A5.17,5.17,0,0,1,212.12,92a6.91,6.91,0,0,1-.73-3.28,11.8,11.8,0,0,1,.29-2.58,11.45,11.45,0,0,1,.85-2.36h3a18,18,0,0,0-.57,2.52,15.35,15.35,0,0,0-.2,2.44,3.91,3.91,0,0,0,.81,2.59,2.68,2.68,0,0,0,2.17,1h.67a3.13,3.13,0,0,0,2.52-.92,3.84,3.84,0,0,0,.83-2.63v-10H225V87Zm-9.7-8.34a1.49,1.49,0,0,1-1.11-.42,1.9,1.9,0,0,1,0-2.36,1.41,1.41,0,0,1,1.11-.44,1.34,1.34,0,0,1,1.06.44,1.57,1.57,0,0,1,.42,1.18,1.65,1.65,0,0,1-.42,1.18A1.46,1.46,0,0,1,218.23,78.65Z"/><path class="cls-2" d="M231.73,87h.12v2.48a.11.11,0,0,1-.12.1h-3.94m0-.1V87.09h0Z"/><path class="cls-2" d="M235.56,87h.12v2.48a.11.11,0,0,1-.12.1h-4V87.09h0Z"/><path class="cls-2" d="M239.38,87h.12v2.48a.11.11,0,0,1-.12.1h-3.94s-.12,0-.12-.1V87.09h.12Z"/><path class="cls-2" d="M239.17,89.67s-.12,0-.12-.1V87.09h3.55a2.83,2.83,0,0,1-1.32-1.26,3.94,3.94,0,0,1-.5-2,5,5,0,0,1,1.66-3.94A6.65,6.65,0,0,1,247,78.47a11.2,11.2,0,0,1,2.07.22,7.16,7.16,0,0,1,1.69.51l-.95,2.54a8.08,8.08,0,0,0-1.53-.51,7.21,7.21,0,0,0-1.38-.16,3.06,3.06,0,0,0-2.13.73,2.85,2.85,0,0,0-.75,2.11,3,3,0,0,0,.79,2.21,2.58,2.58,0,0,0,2.07.87h4.1v2.68Z"/><path class="cls-2" d="M274.28,87h.12v2.48a.11.11,0,0,1-.12.1h-6.76a7.29,7.29,0,0,1-4.83-1.44,5,5,0,0,1-1.7-3.94,5.62,5.62,0,0,1,.77-2.92,5.29,5.29,0,0,1,2.27-2,8.18,8.18,0,0,1,3.49-.65h.61V77.52h3.33V87Zm-6.11,0v-5.7h-.65a3.34,3.34,0,0,0-2.35.75,2.83,2.83,0,0,0-.82,2.19,2.57,2.57,0,0,0,.8,2,3.37,3.37,0,0,0,2.33.71ZM266.08,76.1a1.32,1.32,0,0,1-1.08-.43,1.59,1.59,0,0,1-.42-1.16,1.72,1.72,0,0,1,.4-1.19,1.45,1.45,0,0,1,1.1-.43,1.36,1.36,0,0,1,1.08.43,1.72,1.72,0,0,1,.4,1.19,1.57,1.57,0,0,1-.42,1.18,1.31,1.31,0,0,1-1.06.41Zm3.81,0a1.4,1.4,0,0,1-1.11-.43,1.64,1.64,0,0,1-.39-1.16,1.67,1.67,0,0,1,.39-1.19,1.4,1.4,0,0,1,1.11-.43,1.38,1.38,0,0,1,1.08.43,1.67,1.67,0,0,1,.39,1.19,1.54,1.54,0,0,1-.41,1.16,1.36,1.36,0,0,1-1.06.43Z"/><path class="cls-2" d="M278.09,87h.12v2.48a.11.11,0,0,1-.12.1h-3.95s-.11,0-.11-.1V87.09h.11Z"/><path class="cls-2" d="M281.91,87H282v2.48a.11.11,0,0,1-.12.1h-4m-.1-.1v0Z"/><path class="cls-2" d="M285.74,87h.12v2.48a.11.11,0,0,1-.12.1h-4a.1.1,0,0,1-.1-.1V87.09h.1Z"/><path class="cls-2" d="M288,87a7.4,7.4,0,0,1-.61-3.08,9.3,9.3,0,0,1,1.15-4.06,9.72,9.72,0,0,1,2.28-.95,8.55,8.55,0,0,1,2.13-.25,5.83,5.83,0,0,1,2.78.65,4.77,4.77,0,0,1,2,1.85,5.6,5.6,0,0,1,.67,2.78,5.71,5.71,0,0,1-.79,3,5.48,5.48,0,0,1-2.19,2,6.49,6.49,0,0,1-3.12.73h-6.78s-.12,0-.12-.1V87.09h.12Zm2.49-2.6A7.71,7.71,0,0,0,291,87h.83a3.07,3.07,0,0,0,2.27-.91,3,3,0,0,0,1-2.19,2.8,2.8,0,0,0-.59-2,1.87,1.87,0,0,0-1.54-.71,4.29,4.29,0,0,0-2.09.63A9.14,9.14,0,0,0,290.53,84.39Z"/><path class="cls-2" d="M308,87h.12v2.48a.11.11,0,0,1-.12.1h-6.13V72.73h3.33V87Z"/><path class="cls-2" d="M311.82,87h.12v2.48a.11.11,0,0,1-.12.1h-4s-.12,0-.12-.1V87.09h.12Z"/><path class="cls-2" d="M315.63,87h.14v2.48s0,.1-.14.1h-3.94s-.12,0-.12-.1V87.09h.12Z"/><path class="cls-2" d="M329.13,87h.12v2.48a.11.11,0,0,1-.12.1H326.3a7.66,7.66,0,0,1-2.19-.35,8.15,8.15,0,0,1-2-.89A7.93,7.93,0,0,1,318,89.57h-2.6m0-.1V87.09h2.25a6.73,6.73,0,0,0,1.1-.12,4.35,4.35,0,0,0,1-.3,7.68,7.68,0,0,1-1.4-1.61,15.21,15.21,0,0,1-1.28-2.47,10.55,10.55,0,0,1-.73-2.52,10.78,10.78,0,0,1,3-1.72,9.59,9.59,0,0,1,3.27-.63,11.29,11.29,0,0,1,5.6,1.36,10,10,0,0,1-1,4.44,7.51,7.51,0,0,1-2.66,3,4,4,0,0,0,2,.46Zm6.82-4.3a5.28,5.28,0,0,0,2.8-4.41,6.46,6.46,0,0,0-2.5-.4,5.9,5.9,0,0,0-1.56.24,4.54,4.54,0,0,0-1.3.61,8.61,8.61,0,0,0,1.1,2.31A5,5,0,0,0,322.21,85.17Z"/><path class="cls-2" d="M328.92,89.67s-.12,0-.12-.1V87.09h2.92V72.73h3.33v17Z"/><path class="cls-2" d="M339.51,72.73h3.33v17h-3.33Z"/><path class="cls-2" d="M367.42,87h.12v2.48a.11.11,0,0,1-.12.1h-6.76a7.29,7.29,0,0,1-4.83-1.44,5,5,0,0,1-1.69-3.94,5.52,5.52,0,0,1,.76-2.92,5.29,5.29,0,0,1,2.27-2,8.18,8.18,0,0,1,3.49-.65h.61V77.52h3.37V87Zm-6.11,0v-5.7h-.59a3.34,3.34,0,0,0-2.35.75,2.87,2.87,0,0,0-.82,2.19,2.57,2.57,0,0,0,.8,2,3.39,3.39,0,0,0,2.33.71ZM359.22,76.1a1.34,1.34,0,0,1-1.08-.43,1.59,1.59,0,0,1-.42-1.16,1.72,1.72,0,0,1,.4-1.19,1.46,1.46,0,0,1,1.1-.43,1.39,1.39,0,0,1,1.09.43,1.67,1.67,0,0,1,.39,1.19,1.6,1.6,0,0,1-.41,1.18A1.34,1.34,0,0,1,359.22,76.1Zm3.81,0a1.4,1.4,0,0,1-1.11-.43,1.69,1.69,0,0,1-.39-1.16,1.67,1.67,0,0,1,.39-1.19,1.4,1.4,0,0,1,1.11-.43,1.37,1.37,0,0,1,1.08.43,1.72,1.72,0,0,1,.4,1.19,1.59,1.59,0,0,1-.42,1.16,1.36,1.36,0,0,1-1.06.43Z"/><path class="cls-2" d="M371.23,87h.12v2.48a.11.11,0,0,1-.12.1h-3.94s-.12,0-.12-.1V87.09h.12Z"/><path class="cls-2" d="M375.05,87h.12v2.48a.11.11,0,0,1-.12.1h-3.94m-.1-.1v0Z"/><path class="cls-2" d="M378.88,87H379v2.48a.11.11,0,0,1-.12.1h-3.94a.1.1,0,0,1-.1-.1V87.09h.1Z"/><path class="cls-2" d="M382.71,87h.11v2.48a.1.1,0,0,1-.11.1h-3.95s-.12,0-.12-.1V87.09h.12Z"/><path class="cls-2" d="M386.51,87h.12v2.48a.11.11,0,0,1-.12.1h-3.94s-.12,0-.12-.1V87.09h.12Z"/><path class="cls-2" d="M386.19,89.57V87.09m.1,0h9a6.17,6.17,0,0,1-1.36-3.2,4.33,4.33,0,0,0-.9-2.11,2.37,2.37,0,0,0-1.78-.61,4.94,4.94,0,0,0-1.48.2,7.65,7.65,0,0,0-1.5.65l-1-2.46A9.85,9.85,0,0,1,392,78.49a5.37,5.37,0,0,1,3.49,1,5.25,5.25,0,0,1,1.64,3.31,8.32,8.32,0,0,0,1.56,4.28h1.55v2.48a.1.1,0,0,1-.11.1Z"/><path class="cls-2" d="M403.92,87H404v2.48a.11.11,0,0,1-.12.1h-4m0-.1V87.09h0Z"/><path class="cls-2" d="M407.75,87h.11v2.48a.1.1,0,0,1-.11.1H403.7s-.11,0-.11-.1V87.09h.11Z"/><path class="cls-2" d="M410.05,87a7.67,7.67,0,0,1-.23-5.17,7.48,7.48,0,0,1,.8-2,10,10,0,0,1,2.29-.95,8.66,8.66,0,0,1,2.09-.25,5.83,5.83,0,0,1,2.78.65,4.75,4.75,0,0,1,2,1.85,5.4,5.4,0,0,1,.67,2.78,6.29,6.29,0,0,1-.41,2.31,2.51,2.51,0,0,0,.93.61,4.09,4.09,0,0,0,1.3.18h.23v2.48a.1.1,0,0,1-.11.1h-.12a5.27,5.27,0,0,1-2-.33,4.23,4.23,0,0,1-1.66-1.17,5.71,5.71,0,0,1-2,1.13,6.75,6.75,0,0,1-2.27.37h-6.86s-.12,0-.12-.1V87.09h.12Zm2.49-2.6a7.71,7.71,0,0,0,.51,2.6h.83a3,3,0,0,0,2.26-.91,2.93,2.93,0,0,0,.93-2.19,2.8,2.8,0,0,0-.59-2,1.87,1.87,0,0,0-1.54-.71,4.29,4.29,0,0,0-2.09.63,9.14,9.14,0,0,0-.31,2.55Z"/><path class="cls-2" d="M426.16,87h.12v2.48a.11.11,0,0,1-.12.1h-4s-.12,0-.12-.1V87.09h.12Z"/><path class="cls-2" d="M425.83,89.57V87.09m.09,0h2.8V72.73h3.34V87h3v2.48a.11.11,0,0,1-.12.1Z"/><path class="cls-2" d="M434.74,89.67a.1.1,0,0,1-.1-.1V87.09h2.9V72.73h3.33v17Z"/><path class="cls-2" d="M445.35,72.73h3.31v17h-3.31Z"/><path class="cls-1" d="M94.34,118.34v-1.72l6.07-6.74A15.75,15.75,0,0,0,102.6,107a4.36,4.36,0,0,0,.59-2.17,3.44,3.44,0,0,0-.82-2.34,2.66,2.66,0,0,0-2.13-.95,3.62,3.62,0,0,0-2.82,1,3.9,3.9,0,0,0-.91,2.76H94.08a5.31,5.31,0,0,1,1.58-4,6.23,6.23,0,0,1,4.58-1.61,5.37,5.37,0,0,1,3.94,1.43,5,5,0,0,1,1.48,3.71,6,6,0,0,1-.89,3,20.49,20.49,0,0,1-2.52,3.27l-4.83,5.15h6.52l.2-2.11h2.13v4.08Z"/><path class="cls-1" d="M120.78,111.28a8.28,8.28,0,0,1-1.58,5.44,5.91,5.91,0,0,1-8.36.24l-.23-.24a8.17,8.17,0,0,1-1.6-5.42v-4.4a8.3,8.3,0,0,1,1.58-5.42,5.91,5.91,0,0,1,8.36-.23,2.5,2.5,0,0,1,.23.23,8.17,8.17,0,0,1,1.6,5.42Zm-2.5-4.91a6.27,6.27,0,0,0-.87-3.61,2.92,2.92,0,0,0-2.52-1.22,2.89,2.89,0,0,0-2.51,1.22,6.27,6.27,0,0,0-.87,3.61v5.42a6.42,6.42,0,0,0,.87,3.63,3.22,3.22,0,0,0,5.05,0,6.32,6.32,0,0,0,.85-3.63Z"/><path class="cls-1" d="M123.54,118.34v-1.72l6-6.74a17.15,17.15,0,0,0,2.2-2.88,4.57,4.57,0,0,0,.58-2.17,3.55,3.55,0,0,0-.81-2.34,2.7,2.7,0,0,0-2.15-.95,3.62,3.62,0,0,0-2.82,1,3.94,3.94,0,0,0-.91,2.76h-2.4a5.27,5.27,0,0,1,1.57-4,6.23,6.23,0,0,1,4.58-1.61,5.45,5.45,0,0,1,3.94,1.43,5,5,0,0,1,1.48,3.71,5.78,5.78,0,0,1-.91,3,20.18,20.18,0,0,1-2.38,3.13l-4.85,5.29h6.56l.2-2.11h2v4.08Z"/><path class="cls-1" d="M138.16,118.34v-1.72l6-6.74A17.75,17.75,0,0,0,146.4,107a4.68,4.68,0,0,0,.57-2.17,3.5,3.5,0,0,0-.81-2.34,2.7,2.7,0,0,0-2.15-.95,3.63,3.63,0,0,0-2.82,1,3.94,3.94,0,0,0-.9,2.76h-2.41a5.28,5.28,0,0,1,1.58-4A6.19,6.19,0,0,1,144,99.73a5.48,5.48,0,0,1,3.95,1.43,5,5,0,0,1,1.47,3.71,5.77,5.77,0,0,1-.9,3,19.63,19.63,0,0,1-2.39,3.13l-4.85,5.29h6.57l.19-2.11h2v4.08Z"/><path class="cls-2" d="M179.12,118.34a4.7,4.7,0,0,1-3.73-1.64c-.16-.18-.53-.67-1.12-1.52a10.88,10.88,0,0,0-1.68-2,1.74,1.74,0,0,0-1.12-.49,1.67,1.67,0,0,0-.91.37,3.58,3.58,0,0,0-.91.87,1.43,1.43,0,0,0-.37.83,1.05,1.05,0,0,0,.37.81,3.64,3.64,0,0,0,1.25.61,9.42,9.42,0,0,1,2.11.93,2.91,2.91,0,0,1,1,1,3.18,3.18,0,0,1,.34,1.48,3.41,3.41,0,0,1-1.6,3,9,9,0,0,1-4.81,1h-5.29a4.26,4.26,0,0,1-2.3-.65,4.49,4.49,0,0,1-1.62-1.81,6.05,6.05,0,0,1-.57-2.65,13.78,13.78,0,0,1,.73-4.31h3a10.5,10.5,0,0,0-.38,1.75c0,.7,0,1.4,0,2.09a2.9,2.9,0,0,0,.38,1.44,2.66,2.66,0,0,0,1,1.07,2.5,2.5,0,0,0,1.3.39h3.95a7.31,7.31,0,0,0,2.46-.28.94.94,0,0,0,.65-.92.84.84,0,0,0-.35-.65,3.72,3.72,0,0,0-1.19-.48,5.32,5.32,0,0,1-2.6-1.28,3,3,0,0,1-.73-2.15,4.39,4.39,0,0,1,.85-2.44,7.55,7.55,0,0,1,2.19-2.17,4.86,4.86,0,0,1,2.58-.87,3,3,0,0,1,1.32.28,3.65,3.65,0,0,1,1.18.83,18.43,18.43,0,0,1,1.88,2.42,8.44,8.44,0,0,0,1.65,2,2.48,2.48,0,0,0,1.36.42h.22v2.48a.1.1,0,0,1-.07.12h-.05Zm-14.79,10.88a1.4,1.4,0,0,1-1.08-.43,1.57,1.57,0,0,1-.4-1.17,1.61,1.61,0,0,1,.4-1.18,1.32,1.32,0,0,1,1.08-.43,1.37,1.37,0,0,1,1.08.41,1.76,1.76,0,0,1,.4,1.2,1.74,1.74,0,0,1-.4,1.19A1.44,1.44,0,0,1,164.33,129.22Zm3.81,0a1.36,1.36,0,0,1-1.09-.43,1.58,1.58,0,0,1-.41-1.17,1.64,1.64,0,0,1,.39-1.18,1.4,1.4,0,0,1,1.11-.43,1.35,1.35,0,0,1,1.08.43,1.56,1.56,0,0,1,.39,1.18,1.6,1.6,0,0,1-.39,1.17,1.42,1.42,0,0,1-1.08.43Z"/><path class="cls-2" d="M183,115.64h.12v2.48a.1.1,0,0,1-.07.12H179v-2.5h0Z"/><path class="cls-2" d="M186.87,115.64H187v2.48a.09.09,0,0,1-.07.12h-4a.11.11,0,0,1-.12-.07v-2.43h.12Z"/><path class="cls-2" d="M190.69,115.64h.12v2.48a.1.1,0,0,1-.07.12h-4a.1.1,0,0,1-.12-.07v-2.43h.12Z"/><path class="cls-2" d="M194.5,115.64h.12v2.48a.11.11,0,0,1-.08.12h-4v-2.5h0Z"/><path class="cls-2" d="M198.32,115.64h.12v2.48a.1.1,0,0,1-.07.12h-4.09v-2.5h0Z"/><path class="cls-2" d="M202.15,115.64h.12v2.48a.11.11,0,0,1-.08.12h-4a.09.09,0,0,1-.11-.07,0,0,0,0,1,0,0v-2.38h.11Z"/><path class="cls-2" d="M206,115.64h.12v2.48a.1.1,0,0,1-.07.12h-4a.1.1,0,0,1-.12-.07v-2.43H202Z"/><path class="cls-2" d="M209.78,115.64h.12v2.48a.1.1,0,0,1-.08.12h-4.08v-2.5h0Z"/><path class="cls-2" d="M213.6,115.64h.12v2.48a.1.1,0,0,1-.07.12h-4.09v-2.5h0Z"/><path class="cls-2" d="M217.43,115.64h.12v2.48a.1.1,0,0,1-.08.12h-4a.09.09,0,0,1-.11-.07,0,0,0,0,1,0,0v-2.38h.11Z"/><path class="cls-2" d="M219.71,115.64a7.93,7.93,0,0,1-.59-3.08,7.09,7.09,0,0,1,.34-2.09,8.2,8.2,0,0,1,.79-2,10.05,10.05,0,0,1,2.3-1,8.59,8.59,0,0,1,2.13-.33,5.6,5.6,0,0,1,2.78.67,4.66,4.66,0,0,1,2,1.83,5.52,5.52,0,0,1,.69,2.78,6.51,6.51,0,0,1-.42,2.31,2.16,2.16,0,0,0,.93.61,4.09,4.09,0,0,0,1.3.18h.14v2.48a.1.1,0,0,1-.08.12h0a5.75,5.75,0,0,1-2-.34,4.63,4.63,0,0,1-1.64-1.16,6.05,6.05,0,0,1-2,1.13,7.6,7.6,0,0,1-2.27.37h-6.8v-2.46h0Zm2.51-2.61a7.72,7.72,0,0,0,.51,2.61h.83a3.11,3.11,0,0,0,2.27-.91,2.91,2.91,0,0,0,.9-2.19,3,3,0,0,0-.57-2,2,2,0,0,0-1.54-.69,4.33,4.33,0,0,0-2.09.61A9.5,9.5,0,0,0,222.22,113Z"/><path class="cls-2" d="M235.9,115.64H236v2.48a.1.1,0,0,1-.07.12h-4.09v-2.5h0Z"/><path class="cls-2" d="M239.65,115.64h.12v2.48a.1.1,0,0,1-.08.12h-4.08v-2.5h0Z"/><path class="cls-2" d="M243.47,115.64h.12v2.48a.1.1,0,0,1-.07.12h-4.09a.11.11,0,0,1-.12-.07v-2.43h.12Z"/><path class="cls-2" d="M247.28,115.64h.14v2.48a.12.12,0,0,1-.14.12h-3.94a.1.1,0,0,1-.12-.07,0,0,0,0,1,0,0v-2.38h.12Z"/><path class="cls-2" d="M251.1,115.64h.12v2.48a.1.1,0,0,1-.07.12h-4.09v-2.5h0Z"/><path class="cls-2" d="M250.89,118.34v-2.6h2.76v-14.4H257v17Z"/><path class="cls-2" d="M267.61,115.64h.12v2.48a.11.11,0,0,1-.08.12h-6.12v-16.9h3.32v14.3Z"/><path class="cls-2" d="M271.39,115.64h.12v2.48a.1.1,0,0,1-.07.12h-4a.1.1,0,0,1-.12-.07v-2.43h.12Z"/><path class="cls-2" d="M275.34,115.64h.13v2.48a.12.12,0,0,1-.13.12h-3.95a.11.11,0,0,1-.12-.07v-2.43h.12Z"/><path class="cls-2" d="M279.06,115.64h.12v2.48a.1.1,0,0,1-.07.12h-4a.11.11,0,0,1-.1-.12v-2.38Z"/><path class="cls-2" d="M282.89,115.64H283v2.48a.11.11,0,0,1-.08.12h-4.08a.11.11,0,0,1-.1-.12v-2.38h.1Z"/><path class="cls-2" d="M286.71,115.64h.12v2.48a.1.1,0,0,1-.07.12h-4.09a.1.1,0,0,1-.12-.07v-2.43h.12Z"/><path class="cls-2" d="M290.52,115.64h.12v2.48a.1.1,0,0,1-.08.12h-4a.09.09,0,0,1-.11-.07,0,0,0,0,1,0,0v-2.38h.11Z"/><path class="cls-2" d="M294.34,115.64h.12v2.48a.1.1,0,0,1-.07.12h-4a.11.11,0,0,1-.1-.12v-2.38Z"/><path class="cls-2" d="M298.17,115.64h.12v2.48a.1.1,0,0,1-.08.12h-4.08a.1.1,0,0,1-.12-.07,0,0,0,0,1,0,0v-2.38h.12Z"/><path class="cls-2" d="M302,115.64h.12v2.48a.1.1,0,0,1-.07.12H298a.1.1,0,0,1-.12-.07v-2.43H298Z"/><path class="cls-2" d="M305.8,115.64h.12v2.48a.1.1,0,0,1-.08.12h-4s-.09,0-.09-.12v-2.38Z"/><path class="cls-2" d="M309.62,115.64h.12v2.48a.1.1,0,0,1-.07.12h-4a.11.11,0,0,1-.1-.12v-2.38h.1Z"/><path class="cls-2" d="M313.45,115.64h.12v2.48a.1.1,0,0,1-.08.12h-4.08a.1.1,0,0,1-.12-.07,0,0,0,0,1,0,0v-2.38h.12Z"/><path class="cls-2" d="M317.25,115.64h.12v2.48a.1.1,0,0,1-.07.12h-4a.1.1,0,0,1-.12-.07v-2.43h.12Z"/><path class="cls-2" d="M330.76,115.64h.12v2.48a.1.1,0,0,1-.08.12h-2.88a7.44,7.44,0,0,1-2.19-.36,8,8,0,0,1-2-.9,7.92,7.92,0,0,1-4.14,1.26H317a.11.11,0,0,1-.1-.12v-2.38m.1,0h2.24a6.73,6.73,0,0,0,1.11-.12,4.12,4.12,0,0,0,1-.3,7.26,7.26,0,0,1-1.4-1.62,15.44,15.44,0,0,1-1.3-2.4,11.72,11.72,0,0,1-.73-2.52,9.87,9.87,0,0,1,3-1.72,9.14,9.14,0,0,1,3.27-.63,11.12,11.12,0,0,1,5.6,1.34,10,10,0,0,1-1,4.44,7.65,7.65,0,0,1-2.66,3.09,4.3,4.3,0,0,0,2,.44Zm6.82-1.9a5.36,5.36,0,0,0,2.76-4.43,6.86,6.86,0,0,0-2.5-.4,5.15,5.15,0,0,0-1.56.26,3.83,3.83,0,0,0-1.3.59,8.05,8.05,0,0,0,1,2.31A5.32,5.32,0,0,0,323.84,113.84Z"/><path class="cls-2" d="M334.58,115.64h.12v2.48a.09.09,0,0,1-.07.12h-4.09a.11.11,0,0,1-.12-.07v-2.43h.12Z"/><path class="cls-2" d="M338.43,115.64h.12v2.48a.1.1,0,0,1-.08.12h-4.08a.1.1,0,0,1-.12-.07v-2.43h.12Z"/><path class="cls-2" d="M342.22,115.64h.11v2.48a.09.09,0,0,1-.07.12h-4a.11.11,0,0,1-.1-.12v-2.38Z"/><path class="cls-2" d="M342,118.34a.11.11,0,0,1-.1-.12v-2.48h2.9v-14.4h3.33v17Z"/><path class="cls-2" d="M352.61,101.34h3.31v17h-3.31Z"/></svg>