<svg id="Layer_1" data-name="Layer 1" xmlns="http://www.w3.org/2000/svg" viewBox="0 0 450 136"><defs><style>.cls-1{fill:#1b344a;}.cls-2{fill:#5090cd;}</style></defs><path class="cls-1" d="M24,95.37a11.09,11.09,0,0,1-3.64,2.23,15.91,15.91,0,0,1-6,1A11,11,0,0,1,5.9,95.12a12.65,12.65,0,0,1-3.25-9v-.88a13.54,13.54,0,0,1,3.2-9.35,10.69,10.69,0,0,1,8.38-3.6,15.14,15.14,0,0,1,5.49,1,11.83,11.83,0,0,1,4.14,2.59V81H20.07l-.73-3.43a5.1,5.1,0,0,0-1.85-1,8.88,8.88,0,0,0-2.65-.37,6.18,6.18,0,0,0-5.22,2.48,10.56,10.56,0,0,0-1.86,6.49v.91a9.84,9.84,0,0,0,1.83,6.24,6.31,6.31,0,0,0,5.27,2.32,9.61,9.61,0,0,0,2.51-.26,5.72,5.72,0,0,0,1.5-.61V89.43l-3.66-.28v-3.6H24Z"/><path class="cls-1" d="M26.59,98.22V95.15l2.72-.53V76.25l-2.72-.53V72.63h10.6v3.09l-2.75.53v18h7.23l.25-3.21h3.91v7.15Z"/><path class="cls-1" d="M71.08,85.62a13.63,13.63,0,0,1-3.22,9.3,10.64,10.64,0,0,1-8.42,3.67,10.56,10.56,0,0,1-8.38-3.67,13.71,13.71,0,0,1-3.19-9.3v-.39A13.68,13.68,0,0,1,51.06,76a10.51,10.51,0,0,1,8.36-3.69A10.66,10.66,0,0,1,67.85,76a13.61,13.61,0,0,1,3.23,9.28ZM66,85.2a11.43,11.43,0,0,0-1.65-6.45,5.48,5.48,0,0,0-4.89-2.48,5.35,5.35,0,0,0-4.82,2.46A11.76,11.76,0,0,0,53,85.2v.42a11.69,11.69,0,0,0,1.61,6.51,5.36,5.36,0,0,0,4.82,2.47,5.47,5.47,0,0,0,4.89-2.47A11.61,11.61,0,0,0,66,85.62Z"/><path class="cls-1" d="M84.51,72.63a12.17,12.17,0,0,1,7,1.76,6,6,0,0,1,2.53,5.25,5.63,5.63,0,0,1-.94,3.18,5.71,5.71,0,0,1-2.74,2.1A5.4,5.4,0,0,1,93.87,87,6.31,6.31,0,0,1,95,90.77a6.61,6.61,0,0,1-2.43,5.56c-1.61,1.26-3.91,1.89-6.87,1.89H73.13V95.15l2.73-.53V76.25l-2.73-.53V72.63H84.51ZM81,83.35h3.69a5.18,5.18,0,0,0,3.17-.84A2.93,2.93,0,0,0,89,80.05a3.07,3.07,0,0,0-1.11-2.62,5.45,5.45,0,0,0-3.33-.85H81Zm0,3.55v7.38h4.73a4.76,4.76,0,0,0,3.11-.88,3.2,3.2,0,0,0,1.07-2.63A4.09,4.09,0,0,0,89,87.9a3.71,3.71,0,0,0-2.88-1Z"/><path class="cls-1" d="M96.67,95.15l1.83-.27,7.79-22.25h5.25l7.74,22.25,1.82.27v3.07h-8.71V95.15l1.77-.32L113,91.31h-8.3l-1.13,3.52,1.78.32v3.07H96.67ZM106,87.53h5.87l-2.88-9h-.11Z"/><path class="cls-1" d="M122.79,98.22V95.15l2.73-.53V76.25l-2.73-.53V72.63h10.6v3.09l-2.74.53v18h7.22l.25-3.21H142v7.15Z"/><path class="cls-1" d="M152.71,75.72V72.63h10.6v3.09l-2.74.53v7.38H171V76.25l-2.74-.53V72.63h10.6v3.09l-2.75.53V94.62l2.75.53v3.07h-10.6V95.15l2.74-.53v-7H160.57v7l2.74.53v3.07h-10.6V95.15l2.72-.53V76.25Z"/><path class="cls-1" d="M191.15,72.63v3.09l-2.74.53V89.61a4.94,4.94,0,0,0,1.36,3.79,5.3,5.3,0,0,0,3.74,1.25,5.43,5.43,0,0,0,3.78-1.24,4.92,4.92,0,0,0,1.37-3.8V76.25l-2.73-.53V72.63h10.6v3.09l-2.74.53V89.61A8.08,8.08,0,0,1,201,96.25a13,13,0,0,1-14.85,0,8.13,8.13,0,0,1-2.82-6.64V76.25l-2.73-.53V72.63h10.6Z"/><path class="cls-1" d="M232.74,79.29l-.1,0-6.86,19h-3.44l-6.82-18.88-.11,0,.49,11.23v4l2.75.53v3.07h-10.6V95.15l2.72-.53V76.25l-2.72-.53V72.63h9.42L224,91.49h.1l6.58-18.86h9.46v3.09l-2.75.53V94.62l2.75.53v3.07h-10.6V95.15l2.72-.53v-4Z"/><path class="cls-1" d="M241.69,95.15l1.83-.27,7.79-22.25h5.25l7.74,22.25,1.82.27v3.07h-8.71V95.15l1.77-.32-1.12-3.52h-8.3l-1.13,3.52,1.78.32v3.07h-8.72ZM251,87.53h5.87l-2.88-9h-.11Z"/><path class="cls-1" d="M294,72.63v3.09l-2.74.53v22h-5.12L275.77,81h-.1V94.62l2.74.53v3.07h-10.6V95.15l2.73-.53V76.25l-2.73-.53V72.63h7.86L286,89.86l.11,0V76.25l-2.74-.53V72.63H294Z"/><path class="cls-1" d="M295.6,75.72V72.63h10.6v3.09l-2.74.53V94.62l2.74.53v3.07H295.6V95.15l2.74-.53V76.25Z"/><path class="cls-1" d="M330.69,72.63v6.82h-3.94l-.21-2.87h-4.71v18l2.74.53v3.07H314V95.15l2.75-.53v-18H312l-.21,2.87h-3.92V72.63Z"/><path class="cls-1" d="M332.09,95.15l1.83-.27,7.79-22.25H347l7.73,22.25,1.83.27v3.07h-8.72V95.15l1.77-.32-1.12-3.52h-8.3L339,94.83l1.77.32v3.07h-8.72Zm9.29-7.62h5.87l-2.89-9h-.1Z"/><path class="cls-1" d="M369.71,72.63a10.61,10.61,0,0,1,6.84,2A6.7,6.7,0,0,1,379,80.13a5.57,5.57,0,0,1-1,3.36,7.15,7.15,0,0,1-3,2.3A5.54,5.54,0,0,1,378.21,88a7.05,7.05,0,0,1,1,3.86v1.3a2.24,2.24,0,0,0,.34,1.31,1.49,1.49,0,0,0,1.11.55l.63.09v3.09h-2.66a4.16,4.16,0,0,1-3.53-1.35,5.66,5.66,0,0,1-1-3.5V91.91a4.12,4.12,0,0,0-1-2.92,3.79,3.79,0,0,0-2.81-1.12h-4.2v6.75l2.75.53v3.07h-10.6V95.15l2.72-.53V76.25l-2.72-.53V72.63h11.49Zm-3.64,11.28h3.55a4.85,4.85,0,0,0,3.22-.91,3.26,3.26,0,0,0,1.07-2.64,3.65,3.65,0,0,0-1.06-2.75,4.38,4.38,0,0,0-3.14-1h-3.64Z"/><path class="cls-1" d="M383,75.72V72.63h10.6v3.09l-2.74.53V94.62l2.74.53v3.07H383V95.15l2.74-.53V76.25Z"/><path class="cls-1" d="M395.24,95.15l1.82-.27,7.79-22.25h5.26l7.73,22.25,1.83.27v3.07H411V95.15l1.78-.32-1.13-3.52h-8.3l-1.12,3.52,1.77.32v3.07h-8.71Zm9.28-7.62h5.87l-2.89-9h-.1Z"/><path class="cls-1" d="M447.51,72.63v3.09l-2.74.53v22h-5.11L429.32,81h-.11V94.62l2.75.53v3.07h-10.6V95.15l2.72-.53V76.25l-2.72-.53V72.63h7.85l10.34,17.23.11,0V76.25l-2.75-.53V72.63h10.6Z"/><path class="cls-1" d="M108.37,120.62a13.58,13.58,0,0,1-3.22,9.3,11.44,11.44,0,0,1-16.79,0,13.66,13.66,0,0,1-3.19-9.3v-.39A13.72,13.72,0,0,1,88.35,111a10.51,10.51,0,0,1,8.36-3.69,10.66,10.66,0,0,1,8.43,3.69,13.61,13.61,0,0,1,3.23,9.28Zm-5.12-.42a11.43,11.43,0,0,0-1.65-6.45,5.48,5.48,0,0,0-4.89-2.48,5.35,5.35,0,0,0-4.82,2.46,11.76,11.76,0,0,0-1.59,6.47v.42a11.71,11.71,0,0,0,1.61,6.51,5.36,5.36,0,0,0,4.82,2.47,5.47,5.47,0,0,0,4.89-2.47,11.63,11.63,0,0,0,1.63-6.51Z"/><path class="cls-1" d="M119.39,110.72l-2,.35L122,126.42l.32,1.41h.11l.3-1.38,4.55-15.38-1.94-.35v-3.09h9.36v3.09l-2.15.28L125,133.22h-5.27L112.15,111l-2.11-.28v-3.09h9.35Z"/><path class="cls-1" d="M152.75,122h-8.66v7.31h8.26l.23-3h3.9v7H136.23v-3.07l2.73-.53V111.25l-2.73-.53v-3.09h20.22v7h-3.94l-.23-3.06h-8.19V118h8.66Z"/><path class="cls-1" d="M170.72,107.63a10.65,10.65,0,0,1,6.84,2,6.7,6.7,0,0,1,2.48,5.51,5.57,5.57,0,0,1-1,3.36,7.22,7.22,0,0,1-3,2.3,5.54,5.54,0,0,1,3.26,2.23,7,7,0,0,1,1,3.86v1.3a2.25,2.25,0,0,0,.33,1.31,1.52,1.52,0,0,0,1.11.55l.64.09v3.09h-2.66a4.16,4.16,0,0,1-3.53-1.35,5.66,5.66,0,0,1-1-3.5v-1.46a4.1,4.1,0,0,0-1-2.93,3.8,3.8,0,0,0-2.8-1.11h-4.2v6.75l2.74.53v3.07h-10.6v-3.07l2.73-.53V111.25l-2.73-.53v-3.09h11.5Zm-3.64,11.28h3.55a4.87,4.87,0,0,0,3.22-.91,3.29,3.29,0,0,0,1.07-2.64,3.65,3.65,0,0,0-1.06-2.75,4.38,4.38,0,0,0-3.14-1h-3.64Z"/><path class="cls-1" d="M192.94,110.72l-1.95.35,4.53,15.35.32,1.41h.1l.3-1.38,4.55-15.38-1.93-.35v-3.09h9.35v3.09l-2.14.28-7.54,22.22h-5.28L185.7,111l-2.11-.28v-3.09h9.35Z"/><path class="cls-1" d="M209.76,110.72v-3.09h10.6v3.09l-2.74.53v18.37l2.74.53v3.07h-10.6v-3.07l2.74-.53V111.25Z"/><path class="cls-1" d="M238.83,122h-8.66v7.31h8.26l.23-3h3.9v7H222.31v-3.07l2.73-.53V111.25l-2.73-.53v-3.09h20.22v7h-3.94l-.23-3.06h-8.19V118h8.66Z"/><path class="cls-1" d="M278.46,110.72l-2.11.27-5.19,22.23H266.4l-4.7-16.89h-.1l-4.7,16.89h-4.76L246.92,111l-2.09-.27v-3.09h9.42v3.09l-2.34.41,2.94,14,.1,0,4.8-17.54h3.78l4.84,17.54.1,0,2.92-14-2.34-.41v-3.09h9.41Z"/><path class="cls-2" d="M287.54,133.22v-2.37l8.39-9.32a23.43,23.43,0,0,0,3.05-4,6.29,6.29,0,0,0,.8-3,4.8,4.8,0,0,0-1.13-3.23,3.73,3.73,0,0,0-3-1.31,5.07,5.07,0,0,0-3.9,1.36,5.45,5.45,0,0,0-1.25,3.83h-3.32l0-.11a7.23,7.23,0,0,1,2.19-5.55,8.61,8.61,0,0,1,6.32-2.25,7.51,7.51,0,0,1,5.51,2,6.86,6.86,0,0,1,2.05,5.13,8.1,8.1,0,0,1-1.24,4.18,27.8,27.8,0,0,1-3.49,4.52l-6.73,7.33,0,.09h9.09l.28-2.94h2.94v5.64Z"/><path class="cls-2" d="M324.14,123.47q0,4.91-2.18,7.51A8.1,8.1,0,0,1,310,131c-1.46-1.74-2.19-4.25-2.19-7.5V117.4c0-3.26.72-5.76,2.18-7.51a8.06,8.06,0,0,1,11.91,0q2.21,2.63,2.2,7.51Zm-3.46-6.81a8.52,8.52,0,0,0-1.21-5,4.45,4.45,0,0,0-7,0,8.68,8.68,0,0,0-1.19,5v7.51a8.61,8.61,0,0,0,1.21,5,4.45,4.45,0,0,0,7,0,8.77,8.77,0,0,0,1.19-5Z"/><path class="cls-2" d="M328,133.22v-2.37l8.38-9.32a22.91,22.91,0,0,0,3.05-4,6.29,6.29,0,0,0,.8-3,4.8,4.8,0,0,0-1.13-3.23,3.73,3.73,0,0,0-3-1.31,5.07,5.07,0,0,0-3.9,1.36,5.45,5.45,0,0,0-1.25,3.83h-3.32l0-.11a7.22,7.22,0,0,1,2.18-5.55,8.61,8.61,0,0,1,6.32-2.25,7.51,7.51,0,0,1,5.51,2,6.86,6.86,0,0,1,2,5.13,8.1,8.1,0,0,1-1.24,4.18,27.24,27.24,0,0,1-3.49,4.52l-6.73,7.33,0,.09h9.08l.29-2.94h2.93v5.64Z"/><path class="cls-2" d="M347.84,133.22v-2.37l8.38-9.32a22.91,22.91,0,0,0,3-4,6.29,6.29,0,0,0,.8-3,4.79,4.79,0,0,0-1.12-3.23,3.74,3.74,0,0,0-3-1.31,5.09,5.09,0,0,0-3.9,1.36,5.45,5.45,0,0,0-1.25,3.83H347.5l0-.11a7.2,7.2,0,0,1,2.19-5.55,8.57,8.57,0,0,1,6.31-2.25,7.55,7.55,0,0,1,5.52,2,6.89,6.89,0,0,1,2,5.13,8.1,8.1,0,0,1-1.24,4.18,27.24,27.24,0,0,1-3.49,4.52l-6.73,7.33,0,.09h9.09l.28-2.94h2.93v5.64Z"/><path class="cls-2" d="M209.68,10.8l2.37,2.37a17.51,17.51,0,0,0-4.76,11.47h-3.36A20.84,20.84,0,0,1,209.68,10.8Zm14.63-6.53V7.62a17.6,17.6,0,0,0-11.48,4.76L210.46,10A20.88,20.88,0,0,1,224.31,4.27Zm.46,18.09c0,.08.08.12.13.12a.55.55,0,0,1,.36.11.45.45,0,0,0,.38.05.25.25,0,0,0,.08.14.27.27,0,0,0,.28.15.28.28,0,0,1,.09.1l0,.07a1,1,0,0,0,.12.27h0l0,.06a.25.25,0,0,0,.23,0,.34.34,0,0,1,.19,0,1,1,0,0,0,0,.17h.05a.57.57,0,0,0,0,.18,2,2,0,0,1,0,.32v.15c0,.05,0,.07-.07.07a.62.62,0,0,0-.24.44c0,.09.07.13.2.11a.22.22,0,0,1,.27.1.57.57,0,0,1,.16.44v.65a.25.25,0,0,0,.11.22c.07.05.11.1.11.15a3.32,3.32,0,0,1-.07.54.9.9,0,0,1-.23.47c0,.05-.17.05-.37,0a2.27,2.27,0,0,0-.53-.07c-.11,0-.21.15-.31.43a4,4,0,0,0-.22.67c-.06.19-.16.29-.31.29a1,1,0,0,0-.3,0H225l-.25.4-.08.11a3.64,3.64,0,0,1-2.23-1l.39-.39a3.69,3.69,0,0,0,.71-.17l.12-.05c.4-.17.36-.49.56-.83s.49-.48.2-.73c.33-.58-1.2-.59-1.47-.46s-.11.49-.28.75-.23.13-.35.22a1.89,1.89,0,0,0-.56.76h0a3.53,3.53,0,0,1-.25-.56l.06,0c0-.06,0-.11,0-.13h.08v.08q.28.07.36,0a2.52,2.52,0,0,0,.11-.41,4.85,4.85,0,0,1,.41-.86.33.33,0,0,1-.18-.22c0-.1-.08-.13-.17-.08a.25.25,0,0,0-.14.23.46.46,0,0,1-.14.29.4.4,0,0,1-.29.15.19.19,0,0,0-.22-.22.46.46,0,0,0-.29.14c-.1,0-.33,0-.7.08a1.52,1.52,0,0,1-.7,0c-.09-.1,0-.2.37-.3a1,1,0,0,1,.37-.88,1.19,1.19,0,0,0,.44.14l.15-.14h.07c.15,0,.23.12.26.37s.08.37.18.37a.4.4,0,0,0,.29-.15v-.37c.1-.4.17-.67.22-.82V24a1.06,1.06,0,0,1,.23-.36h.09a.71.71,0,0,1,.34-.16,1.28,1.28,0,0,0,.14-.45l.78-.3c.36-.15.55-.3.55-.45v0a2.76,2.76,0,0,1,.49-.07C224.69,22.28,224.72,22.34,224.77,22.36Zm.65-5.05A7.83,7.83,0,0,1,229.79,19a.53.53,0,0,0-.15.08.72.72,0,0,1-.15.11c-.05,0-.07.08-.07.17s.16.17.28.19l-.87.86h0a1.81,1.81,0,0,0-.33.23q-.3.15-.33.27a2.33,2.33,0,0,0-.07.25l-.29.29-.13,0q-.15,0-.45-.3t-.45-.3a.5.5,0,0,0-.34.11.2.2,0,0,1-.26,0c-.1-.1,0-.21.34-.34l.64-.26a1.4,1.4,0,0,0,.6-1.18c0-.25-.1-.38-.3-.38l-.23.22a1.9,1.9,0,0,0-.52.35l-.38.36a1,1,0,0,0-.45-.08h-.44l0,0Zm0-4.31a12.18,12.18,0,0,1,7.67,3.19l-2.26,2.25a9,9,0,0,0-5.41-2.25Zm0-4.26a16.36,16.36,0,0,1,6.83,1.74.43.43,0,0,1,0,0l.29.32a2.23,2.23,0,0,0,.26.29,5.28,5.28,0,0,0,.22.66c.05.09.12.21.22.36a.81.81,0,0,0,.11.61,5.49,5.49,0,0,0,.4.62l.3,0a1.78,1.78,0,0,1,.36,0c.1,0,.21.07.33.22A1.27,1.27,0,0,1,235,14a.59.59,0,0,1,.06.24l-.9.9h0a5.24,5.24,0,0,0-.43-1.22.7.7,0,0,0-.58-.19q-.07-.08-.51-.63c-.3-.37-.46-.56-.51-.56a.29.29,0,0,0-.22.07c0,.1.09.19.14.27s.15.23.3.48a.13.13,0,0,1-.15.15.47.47,0,0,0,.37.37l-.08.15.22.43a13.2,13.2,0,0,0-7.28-2.55Zm0-4.47A20.88,20.88,0,0,1,239.26,10l-2,2.05a2.45,2.45,0,0,1-.12-.31c-.16-.15-.26-.23-.3-.23a.56.56,0,0,1-.33-.47.76.76,0,0,0-.19-.47,1.43,1.43,0,0,1-.74-.65c-.19-.34-.39-.51-.58-.51a.66.66,0,0,1-.48-.05,1.43,1.43,0,0,0-.48-.13,1.64,1.64,0,0,0-.52.07,4.71,4.71,0,0,1-.58.15.46.46,0,0,1-.07.07,17.3,17.3,0,0,0-7.16-1.89c.19-.31.22-.51.07-.61s-.15,0-.32.18Zm20.37,20.37h-3.35a17.52,17.52,0,0,0-3.39-9.81.86.86,0,0,0-.17-.31,1,1,0,0,0-.19-.17c-.27-.35-.56-.68-.86-1a1.36,1.36,0,0,1-.09-.23l2.31-2.31A20.88,20.88,0,0,1,245.79,24.64Zm-5.74,15-2.37-2.37a17.6,17.6,0,0,0,4.76-11.48h3.35A20.88,20.88,0,0,1,240.05,39.6Zm-14.63,6.53V42.77a17.45,17.45,0,0,0,3.64-.5l0,.07a.28.28,0,0,1,0,.09,2.63,2.63,0,0,1,.74.7c.09.2.36.29.8.29.25,0,.41,0,.48-.14a2.32,2.32,0,0,1,.26-.3,1,1,0,0,1,.37-.22.45.45,0,0,0,.29-.22.87.87,0,0,0,.51-.44,1.29,1.29,0,0,0,.44-.58.4.4,0,0,0,.3-.19,2.19,2.19,0,0,0,.29-.76l.13-.08a.36.36,0,0,1,0-.11A17.87,17.87,0,0,0,236.89,38l2.37,2.37A20.84,20.84,0,0,1,225.42,46.13Zm1.85-5.29a2.7,2.7,0,0,0,.94.48,16.12,16.12,0,0,1-2.79.34V38.51h0a1.7,1.7,0,0,0,.47.49,1.93,1.93,0,0,0,.64.11c.33,0,.5.09.5.19a.71.71,0,0,1-.11.33.59.59,0,0,0-.11.33A1.1,1.1,0,0,0,227.27,40.84Zm8-22v0a1.18,1.18,0,0,1-.07.37,2.18,2.18,0,0,1-.15.36,2.19,2.19,0,0,0,.59.52,6.06,6.06,0,0,1,.66.51,3.36,3.36,0,0,1,.33.85,4.28,4.28,0,0,1,.18.78,1.63,1.63,0,0,1-.22.52.86.86,0,0,1-.73.44l-.08-.07a1.07,1.07,0,0,1,.15-.44,1.09,1.09,0,0,0,.15-.43.6.6,0,0,0,.29-.44l-.22-.11a2.32,2.32,0,0,1-.37-.32c0-.15-.14-.22-.44-.22a.59.59,0,0,0-.36.11l-.37.26-.15-.3a.68.68,0,0,0,.08-.31l-.59-1a2.34,2.34,0,0,0-.81-.25,1.17,1.17,0,0,0-.59,0,1.24,1.24,0,0,1-.57,0,.75.75,0,0,0-.58.19,2.47,2.47,0,0,0-.49.48c-.07.09,0,.2-.19.16a1.83,1.83,0,0,1-.18-.19L233.87,17l.08.11c.05.05.15.16.29.33s.21.25.32.39C234.81,18.13,235.05,18.47,235.27,18.82ZM236,34.74c-.14,0-.22,0-.22.11a2.58,2.58,0,0,1-.07.45l-1.09-1.09a13.19,13.19,0,0,0,3.1-5.7l.06-.05q.36.15.48,0a.46.46,0,0,0,.11-.21c0-.15-.12-.34-.37-.59H238a13.13,13.13,0,0,0,.22-1.91h3.15a16.35,16.35,0,0,1-4.43,10.69l-.14-.14v0c0-.34-.09-.67-.16-1S236.34,34.74,236,34.74Zm-.71-9h1.73a12.51,12.51,0,0,1-.29,2.15,2.46,2.46,0,0,0-.37-.66l-.6-.58c-.05-.25-.09-.42-.11-.52a.66.66,0,0,0-.1-.17A.92.92,0,0,1,235.33,25.75Zm-2,4.46a.49.49,0,0,0-.45.07.65.65,0,0,0-.44.43c0,.05,0,.07-.08.07a.63.63,0,0,0-.29.08,2.81,2.81,0,0,0-.37.15c-.15,0-.22-.05-.22-.15s.22-.25.66-.3l.36-.43a1,1,0,0,1,.35-.14,1.84,1.84,0,0,0,.55-.54,1.65,1.65,0,0,0,.27-.47h.07c0,.24.1.36.31.36s.28-.17.38-.5a2.89,2.89,0,0,0,.62.14.57.57,0,0,0,.54-.28h.91a.14.14,0,0,1,0,.07.14.14,0,0,1,0,.06h0a12.18,12.18,0,0,1-2.46,4.39l0-.22s-.22-.67-.26-.67-.21.17-.35.51-.24.56-.28.66l-.74.15a2.62,2.62,0,0,1-.66.07,1.71,1.71,0,0,1-.62-.26,1.89,1.89,0,0,0-.62-.25,4.94,4.94,0,0,0-.63-.15c-.27-.05-.4-.12-.4-.22s.1-.22.29-.22a3.32,3.32,0,0,1,.59.11l.88.22.81.22a2.8,2.8,0,0,0,.44.11l.44-.15a.91.91,0,0,1,.15-.4.87.87,0,0,0,.15-.4,3.81,3.81,0,0,0,.27-.81,4.57,4.57,0,0,0,.11-.88C233.6,30.4,233.53,30.26,233.38,30.21Zm1,8.07a.25.25,0,0,0-.18-.08c-.08,0-.11,0-.11-.14s.07-.2.22-.3a1.09,1.09,0,0,0,.37-.51,1.12,1.12,0,0,0,.15-.44c0-.1,0-.16-.11-.18a.77.77,0,0,1-.26-.19l-.33-.14a2.17,2.17,0,0,1-.41-.23.4.4,0,0,1-.22-.36,1.84,1.84,0,0,1,.11-.37c0-.06.05-.13.08-.2l.17-.14,1.69,1.7c0,.19.12.3.35.34l.18.19a16.33,16.33,0,0,1-1.89,1.52.55.55,0,0,1,.12-.19.18.18,0,0,1,.09-.06A.37.37,0,0,0,234.4,38.28Zm3-21.35a.21.21,0,0,1,.15.07.88.88,0,0,1,.51.15,5.59,5.59,0,0,1,.89,1.1c.05,0,.11.08.18.22s.16.22.26.22a.94.94,0,0,0,.38-.12l0-.2a16.29,16.29,0,0,1,1.47,6.27h-3.11s0,0,0-.05a1.56,1.56,0,0,0-.17-.82,1.56,1.56,0,0,1-.1-1.08,1.19,1.19,0,0,0,0-.63.43.43,0,0,0-.3.08,1.13,1.13,0,0,0-.18.33l-.19.4v0a.59.59,0,0,0,0,.14.86.86,0,0,1-.08.18l-.15.59a1.41,1.41,0,0,0,0,.58v0c0,.07,0,.15,0,.22h-1.58a1,1,0,0,1,.33-.22h-.05l.43-.22a.22.22,0,0,1-.14-.21c0-.15,0-.23.07-.26l.43-.18a3,3,0,0,0,.39-.68,4.67,4.67,0,0,0,.57-1.46c0-.11-.15-.26-.17-.38a1.22,1.22,0,0,1,0-.32c0-.51.23-1.4-.43-1.57,0,0-.08-.07-.08-.21a.51.51,0,0,0,.16-.56h-.46a.6.6,0,0,1,.12-.26.68.68,0,0,0,.11-.33.21.21,0,0,0-.23-.23.81.81,0,0,0-.37.08.56.56,0,0,1-.23.07h-.11l-.12-.16a1.11,1.11,0,0,0-.32-.71,1.37,1.37,0,0,0-.59-.44l0,0a.5.5,0,0,0,0-.32l.62-.62.89.32a.53.53,0,0,0,.24.51,2.15,2.15,0,0,0,.3.23,2.8,2.8,0,0,1,.36.26v0C237.31,16.88,237.38,16.93,237.43,16.93Zm-7.08,12.32a.61.61,0,0,1,.3.55.27.27,0,0,1-.3.3c-.14,0-.27-.17-.36-.52-.35-.09-.54-.25-.59-.47s0-.36.07-.41l.3-.11c.09,0,.12.09.07.33Zm-2.27,1.8a.61.61,0,0,1,.37-.48,1.7,1.7,0,0,1,.58-.11c0,.15-.13.3-.4.44a1.8,1.8,0,0,1-.48.22Zm-3.18,2.42v0a1.52,1.52,0,0,1-.73-.12,1.07,1.07,0,0,1-.07-.19,2.65,2.65,0,0,1,.34-.23,1,1,0,0,1,.46-.18v-.2l.54-.4a.55.55,0,0,1,.19-.07l.41-.15a2.33,2.33,0,0,1,.57.26,2.54,2.54,0,0,0,.57.25l.07-.29c.1,0,.25.1.44.29a.72.72,0,0,0,.37-.15.45.45,0,0,0,0-.36.53.53,0,0,1,.22.07.14.14,0,0,1,.11,0,.16.16,0,0,0,.11,0h.07a.88.88,0,0,0,.41-.19,3.61,3.61,0,0,1,.4-.26.11.11,0,0,1,.15,0,.44.44,0,0,1,.07.3,1,1,0,0,1-.62.88c-.42.19-.77.34-1.07.44a1.13,1.13,0,0,0-.18.33c-.07.17-.16.26-.26.26a4.19,4.19,0,0,1-.9-.15,1.73,1.73,0,0,1-.23-.44,2.21,2.21,0,0,0-.53.07l-.6.15A.65.65,0,0,1,224.9,33.47Zm-.59,8.19a16.41,16.41,0,0,1-10.64-4.39,1.19,1.19,0,0,0,1.19,0,5.12,5.12,0,0,0,.66-.31,1.31,1.31,0,0,0,.67-.14,1,1,0,0,0,.54,0,.34.34,0,0,0,.26-.37.48.48,0,0,0-.26-.4c-.17-.13-.26-.24-.26-.33s-.05-.11-.15-.19a4.36,4.36,0,0,1-.48-.53h0a13.29,13.29,0,0,0,8.46,3.51Zm0,4.47a20.84,20.84,0,0,1-13.85-5.75L212.83,38a17.5,17.5,0,0,0,11.48,4.76ZM211.55,25.75a14.26,14.26,0,0,0,.18,1.63c0-.06-.08-.14-.13-.21-.17-.24-.32-.36-.43-.36a.29.29,0,0,0-.3.18,1,1,0,0,1-.22.33,2,2,0,0,1-.82.37,1.87,1.87,0,0,0-.44.88.26.26,0,0,0,0,.29c.08.1,0,.2-.11.3.1.19.13.32.08.36s0,.14,0,.12a.15.15,0,0,0-.18,0,.5.5,0,0,0-.11.17,16.65,16.65,0,0,1-.66-4.09Zm3.51-9.56a13.27,13.27,0,0,0-3.51,8.45H208.4A16.45,16.45,0,0,1,212.83,14Zm.79-.79-2.23-2.23a16.4,16.4,0,0,1,10.69-4.43v3.15A13.29,13.29,0,0,0,215.85,15.4Zm3,16.56a9.09,9.09,0,0,0,3.91,2l-.32.1a.6.6,0,0,0-.44.48c0,.3-.16.49-.33.56s-.23.18-.19.33a2,2,0,0,1,.52.89.91.91,0,0,0,.73.66l.44.15a.88.88,0,0,1,.44.16l.38.07a12.19,12.19,0,0,1-7.39-3.17Zm-6.22-7.32A12.14,12.14,0,0,1,215.85,17l2.25,2.26-.06.07a2,2,0,0,0-.39.14c-.1.12-.2.26-.32.43a3.16,3.16,0,0,0-.7.37,4.27,4.27,0,0,0-.55.59l-.55.26a.61.61,0,0,0-.26.18c.1.24.1.38,0,.4l-.74.19a.21.21,0,0,0-.14.07l-.22.22a.59.59,0,0,0-.08.26.53.53,0,0,1-.07.25,1.45,1.45,0,0,0-.37.37.94.94,0,0,0,0,.66l.1.74h0l.06.22Zm.32,2.3a.59.59,0,0,1,.07.29q0,.22-.15.18h0a11.53,11.53,0,0,1-.19-1.67h.61a.73.73,0,0,1-.07.3,1.66,1.66,0,0,1-.19.3.5.5,0,0,0-.11.29A.67.67,0,0,0,213,26.94Zm1.78,4.59a9.41,9.41,0,0,0-.15-1.25c-.05-.19-.13-.42-.22-.66a3.39,3.39,0,0,0-.24-1,4,4,0,0,0-.69-.92v-.42a1.76,1.76,0,0,0-.15-.43v-.08a.18.18,0,0,1,.11-.19l.78-.26a1.66,1.66,0,0,1,.08-.68l.53.09c.15,0,.22-.1.22-.3a1.81,1.81,0,0,0-.14-.45,1.78,1.78,0,0,1-.15-.54c0-.1.08-.19.22-.26a.91.91,0,0,1,.44-.12.55.55,0,0,1,.51.26,1,1,0,0,1,.14.54,2.41,2.41,0,0,1,0,.4,1.35,1.35,0,0,0,0,.33l.15.07c-.1.48-.29.72-.59.72a.35.35,0,0,1-.32-.18c-.08-.13-.16-.19-.26-.19a.06.06,0,0,0-.07.07.63.63,0,0,0,.07.3.84.84,0,0,1,.07.37c0,.35-.15.47-.46.37-.1.19,0,.28.31.28.1.3.2.42.3.37a1.22,1.22,0,0,0,.16-.49,2.39,2.39,0,0,1,.15-.58l.07.07.31-.07s0,.07,0,.11H216a9.06,9.06,0,0,0,2.11,4.35L215,34.28a.56.56,0,0,1-.18-.49c.07-.3.37-.48.41-.79,0,0,.07-.59.07-.59A2.84,2.84,0,0,1,214.77,31.53Zm9.77-.14c.12.12.19.21.19.26s-.2.22-.59.22q-.22,0-.3.42c-.05.28-.09.51-.14.7l-.12,0a0,0,0,0,0,0,0,7.91,7.91,0,0,1-3.91-1.82l2-2a4.7,4.7,0,0,0,2.77,1.28.49.49,0,0,0,.07.31.5.5,0,0,0-.15.37S224.42,31.27,224.54,31.39Zm-4.38-2.34c.11-.11.06-.33.11-.47l-.26.23a1.94,1.94,0,0,0,.44-.55,2.36,2.36,0,0,1,.22-.4h0a4.25,4.25,0,0,0,.27.46l-2.07,2.06a8.06,8.06,0,0,1-1.71-3.31,1.82,1.82,0,0,1,.52.14c.07,0,.46.42.46.42a.66.66,0,0,0,.3-.07l.29.22a.53.53,0,0,0,.08.36c0,.05.07.11.22.19a.65.65,0,0,1,.3.25l.15-.07c0-.05,0-.15,0-.29s0-.22,0-.22l.14.51.15.59h0A.41.41,0,0,0,220.16,29.05Zm-1.27-10.61-2.25-2.25A12.18,12.18,0,0,1,224.31,13v3.19A9,9,0,0,0,218.89,18.44Zm1.21,1.13-.2-.12-.22-.22a7.94,7.94,0,0,1,4.63-1.92v2.34a.3.3,0,0,0-.11-.06l0-.07h0s-.08,0-.17,0h-.11l-.16,0a.45.45,0,0,1-.17,0l-.09,0a.39.39,0,0,1-.11-.33h0c-.2.1-.31.19-.34.29l-.11.51a.57.57,0,0,1-.37.41,1.13,1.13,0,0,0-.44.25l-.23-.14h-.37a1,1,0,0,0-.22-.19.48.48,0,0,1-.15-.11c0-.05-.07-.05-.07,0a.19.19,0,0,0-.19.17l-.22-.22.06,0V20A3.42,3.42,0,0,0,220.1,19.57Zm-16.17,6.18h3.36A17.34,17.34,0,0,0,208,30.1a.4.4,0,0,1-.26-.18l-.1-.1-.37-.52-.61.22c0,.35-.12.47-.36.37a.43.43,0,0,0-.3-.15.67.67,0,0,0-.7.63,6.55,6.55,0,0,0-.11.84l.52,1.33c.1.14.24.17.44.07a4.89,4.89,0,0,0,.44.51.5.5,0,0,0,.38.15c.15,0,.23-.07.23-.22h.07c.1.1.21.21.31.33a1.77,1.77,0,0,0,.38.33v-.07a.85.85,0,0,0,.62.26,1.83,1.83,0,0,0,.43.82.84.84,0,0,0,.58.3.43.43,0,0,0,.3-.15,2.59,2.59,0,0,0,.36.74l.37.22a2.15,2.15,0,0,1,.3.23H211a1.29,1.29,0,0,0,.37.59,2.88,2.88,0,0,0,.44.37l0,0h.09l.15.17-2.37,2.37A20.84,20.84,0,0,1,203.93,25.75Zm20.93,21.5a22.06,22.06,0,1,0-22.05-22A22.08,22.08,0,0,0,224.86,47.25Zm2.21-40h.15A3,3,0,0,1,228.1,7h1a.54.54,0,0,0,.44-.18,2.11,2.11,0,0,0,.22-.34,1.43,1.43,0,0,0-.88-.52,5.56,5.56,0,0,0-.74-.07,4.52,4.52,0,0,0-.88.27,9.29,9.29,0,0,0-.88.34c-.24,0-.39,0-.44.15a4,4,0,0,0,.4.35A1.21,1.21,0,0,0,227.07,7.2ZM234.82,9a2,2,0,0,1,.39.22,3,3,0,0,1,.25.29.3.3,0,0,0,.25.15q.21,0,.21-.15c0-.09,0-.13,0-.11s0,0,0-.11a.6.6,0,0,0-.14-.43.55.55,0,0,0-.64-.15.21.21,0,0,0-.14-.07h-.07c-.14,0-.22.05-.22.14S234.7,8.9,234.82,9Zm21.27,21.53a1.77,1.77,0,0,0,0-.23l0-.34c0-.22-.08-.45-.14-.69a6.17,6.17,0,0,1-.91,2.56,17.42,17.42,0,0,1-1.68,2.08,1.5,1.5,0,0,0-.11.13l-2.08,2.22a20.82,20.82,0,0,0-2.41,3.19l0,0a15.34,15.34,0,0,0,.86-2.08,6.84,6.84,0,0,0,.43-2.09,8.54,8.54,0,0,0-.11-1.42c-.07-.42-.16-.87-.25-1.36s-.19-1-.26-1.6a18.32,18.32,0,0,1-.11-2.13h-.07s0,0,0,.05v0h-.07a15.33,15.33,0,0,0-.79,2.86c-.14.87-.31,2.12-.5,3.72-.09.93-.18,1.72-.25,2.38s-.15,1.25-.25,1.79a7.39,7.39,0,0,1-.39,1.46c-.14.38-.32.77-.51,1.18,0,.07-.07.14-.11.2h0v0l1.82-1.2,3.65-2.39a7.89,7.89,0,0,0,1.42-1.28,10.47,10.47,0,0,0,1.39-1.93,13.53,13.53,0,0,0,.7-1.43c.13-.31.25-.62.37-.94a7.86,7.86,0,0,0,.43-2.53h0ZM239.91,51.7a6.47,6.47,0,0,1-1.21-.11c-.36-.08-.81-.16-1.35-.26v0l-1.47-.5-2-.73c-1.37-.49-2.41-.86-3.12-1.1a6.27,6.27,0,0,0-2.09-.37,10.11,10.11,0,0,0-2.13.26c-.73.15-1.26.28-1.61.38a15.1,15.1,0,0,0-1.53-.38,10.1,10.1,0,0,0-2.12-.26,6.37,6.37,0,0,0-2.08.36l-3.11,1.09c-1.61.58-2.8,1-3.58,1.23a7.83,7.83,0,0,1-2.41.37,7,7,0,0,1-1-.08,3.33,3.33,0,0,1-.88-.22,9.23,9.23,0,0,1-1.06-.36l-1.4-.62-.07.07a14.54,14.54,0,0,0,2.57,2,8,8,0,0,0,4.05,1.18,10.44,10.44,0,0,0,1.57-.11,6.1,6.1,0,0,0,1.39-.41q.69-.28,1.53-.72t2-1.17c.83-.53,1.52-1,2.08-1.27a3.85,3.85,0,0,1,1.94-.48,2.76,2.76,0,0,1,.88.15q-1.47.79-3.33,1.92a17,17,0,0,0-3.62,3l1.24,1.1a26.5,26.5,0,0,1,3.59-3.51,12.2,12.2,0,0,1,3.36-2.08,12.61,12.61,0,0,1,3.4,2.08,25.62,25.62,0,0,1,3.62,3.51l1.24-1.1a16.61,16.61,0,0,0-3.65-3c-1.27-.75-2.39-1.39-3.37-1.92a4.11,4.11,0,0,1,1-.15,3.85,3.85,0,0,1,1.94.48c.57.31,1.26.74,2.1,1.27l1.9,1.13a9,9,0,0,0,1.51.73,10.9,10.9,0,0,0,1.36.4,6.36,6.36,0,0,0,1.43.14h.3a9,9,0,0,0,3.33-.73,8.7,8.7,0,0,0,3.25-2.42v-.07a21.91,21.91,0,0,1-2.41,1A6.17,6.17,0,0,1,239.91,51.7Zm8.47-42.07a7.34,7.34,0,0,1,.66,1.72c.17.66.36,1.42.58,2.3s.55,1.95,1,3.22v.07a7.8,7.8,0,0,0-1.66-2.3,14.88,14.88,0,0,0-1.84-1.46c-.61-.42-1.17-.84-1.69-1.28a5,5,0,0,1-1.29-1.83h-.07c.29.88.53,1.57.7,2.08a9.43,9.43,0,0,0,.51,1.28,3.41,3.41,0,0,0,.63.88c.24.24.56.54,1,.88q1.62,1.38,2.79,2.34a8,8,0,0,1,1.92,2.19V14.6a7.1,7.1,0,0,0-1.25-4.09,5.5,5.5,0,0,0-3.22-2.34v.07A4.57,4.57,0,0,1,248.38,9.63Zm3.23,11.63a7,7,0,0,0-1.88-2.42l-1.27-1.17c-.31-.29-.56-.55-.76-.77s-.34-.41-.46-.58a2.77,2.77,0,0,1-.33-.62h-.07c.09.44.29,1.14.58,2.12a9.39,9.39,0,0,0,1.15,2.56l2,2.78a17.2,17.2,0,0,1,1.12,1.75,5.74,5.74,0,0,1,.54,1.24,7.18,7.18,0,0,1,.22,1.17h.09a30,30,0,0,1,1.28-4.27,10.57,10.57,0,0,0,.75-3.84,11,11,0,0,0-.55-3.4,12,12,0,0,0-2.11-3.69h-.07c.15.39.31.8.51,1.24a3.45,3.45,0,0,1,.28,1.39c0,1.56,0,2.82-.13,3.8a25.29,25.29,0,0,0-.14,2.56c0,.59,0,1.06,0,1.42s0,.75.07,1.14h-.07A16.33,16.33,0,0,0,251.61,21.26Zm2.22,5.11c-.36.83-.71,1.73-1.07,2.71a17.74,17.74,0,0,0-.82,3.07h-.08a6.64,6.64,0,0,1,.18-.91,5.76,5.76,0,0,0,.18-1.21,6.59,6.59,0,0,0-.45-2.45,13.88,13.88,0,0,0-1-2.12l-1.14-1.9a6.38,6.38,0,0,1-.77-1.87h-.08a10,10,0,0,0,.2,3q.33,1.68.78,3.33c.31,1.09.59,2.09.87,3A7.42,7.42,0,0,1,251,33v1a7.68,7.68,0,0,1-.09,1.17H251a16.75,16.75,0,0,1,1.78-2.6,20.49,20.49,0,0,0,1.64-2.16,9.89,9.89,0,0,0,1.16-2.45A11.81,11.81,0,0,0,256,24.4a9.42,9.42,0,0,0-.35-2.34,16.26,16.26,0,0,0-.59-1.9H255a10.67,10.67,0,0,0,.05,1.09c0,.3.05.69.05,1.18a5.4,5.4,0,0,1-.36,1.68C254.48,24.79,254.19,25.55,253.83,26.37Zm-2.22,14a38.76,38.76,0,0,1-4.37,2.45,12.43,12.43,0,0,0-2.64,1.69,6.24,6.24,0,0,1-1.77,1.16l-.07-.07a13.53,13.53,0,0,0,2-2.15,5.49,5.49,0,0,0,1-2.31c.25-1.12.5-2.31.77-3.58s.48-2.15.62-2.63l-.07-.08c-.49.69-.9,1.26-1.21,1.72s-.59.88-.81,1.25-.42.71-.59,1.06a9.43,9.43,0,0,0-.48,1.17c-.53,1.31-.95,2.37-1.24,3.18a10.5,10.5,0,0,1-1,2,12.94,12.94,0,0,1-1.55,2l1.59-.36,3.05-.67a11.76,11.76,0,0,0,2.95-1,12.72,12.72,0,0,0,2.72-1.83,11.2,11.2,0,0,0,2.17-2.56,10.72,10.72,0,0,0,1.36-3.29l-.07-.07A6.51,6.51,0,0,1,251.61,40.37Zm-4.09,6.18a6.09,6.09,0,0,1-1.66.69,11.87,11.87,0,0,1-1.84.33l-.52.06-1,.12c-.34,0-.68.1-1,.15s-.88.09-1.32.12-.71.06-1.07.11l-1.18.18-1.57.26V48.5A8,8,0,0,0,239.39,47a4.1,4.1,0,0,0,1.21-1.42c.09-.18.18-.35.28-.52.23-.44.47-.88.72-1.31a3,3,0,0,1,.2-.3s.9-1.81,1-2l-.08-.07c-.27.28-1.23,1.13-1.42,1.3-.65.59-1.33,1.15-2,1.76-.82.77-1.65,1.53-2.48,2.26a5.57,5.57,0,0,1-2,1.27c-.68.22-1.49.45-2.41.69l3.39.84c.86.22,1.55.38,2.08.48l1.32.22a9.22,9.22,0,0,0,1.09.07,6.65,6.65,0,0,0,.81,0l.69-.07a11.45,11.45,0,0,0,2.87-.75,8.77,8.77,0,0,0,2.17-1.26,10.94,10.94,0,0,0,1.54-1.47,8.24,8.24,0,0,0,1-1.39l-.07-.07A11.23,11.23,0,0,1,247.52,46.55ZM242.72,7l1.61,2.08a23,23,0,0,0,1.87,2.15,13.9,13.9,0,0,0,2.48,2,13.13,13.13,0,0,0-1.75-4.2A7.52,7.52,0,0,0,244.81,7a8.86,8.86,0,0,0-2.09-1,4.3,4.3,0,0,1-1.64-.88l-.08.07A11.71,11.71,0,0,1,242.72,7ZM198.29,38.72l5.4,3.58c-.24-.48-.44-.95-.61-1.39a7.21,7.21,0,0,1-.39-1.46c-.1-.53-.18-1.13-.25-1.79s-.16-1.45-.25-2.38c-.19-1.6-.36-2.85-.5-3.72a15.33,15.33,0,0,0-.79-2.86h-.07a18.32,18.32,0,0,1-.11,2.13,13.14,13.14,0,0,1-.29,1.6c-.12.49-.22.94-.29,1.35a7.7,7.7,0,0,0-.11,1.43,6.41,6.41,0,0,0,.47,2.08,17.43,17.43,0,0,0,.89,2.09l-.07.07a21.11,21.11,0,0,0-2.45-3.25l-2.19-2.34A19.66,19.66,0,0,1,195,31.78a6.17,6.17,0,0,1-.91-2.56,6.5,6.5,0,0,0-.14.69,5.12,5.12,0,0,0,0,.69,7.86,7.86,0,0,0,.43,2.53,12.85,12.85,0,0,0,1.1,2.37,11.85,11.85,0,0,0,1.42,1.94A7.91,7.91,0,0,0,198.29,38.72Zm6.84,7.53,3.05.67,1.59.37a13.36,13.36,0,0,1-1.55-2.06,10.5,10.5,0,0,1-1-2c-.29-.81-.71-1.87-1.24-3.18a9.43,9.43,0,0,0-.48-1.17c-.17-.34-.37-.7-.59-1.06s-.49-.78-.81-1.25-.72-1-1.21-1.72l-.07.08c.15.49.35,1.36.62,2.63s.52,2.46.77,3.58a5.49,5.49,0,0,0,1,2.31,13.53,13.53,0,0,0,2,2.15l-.07.08a6.6,6.6,0,0,1-1.77-1.17,12,12,0,0,0-2.64-1.68,40.2,40.2,0,0,1-4.37-2.46A6.51,6.51,0,0,1,196,37.48l-.07.07a10.62,10.62,0,0,0,1.36,3.29,11.2,11.2,0,0,0,2.17,2.56,12.72,12.72,0,0,0,2.72,1.83A11.5,11.5,0,0,0,205.13,46.25Zm-7.62-18.94h.09a7,7,0,0,1,.22-1.16,5.59,5.59,0,0,1,.54-1.25,17.2,17.2,0,0,1,1.12-1.75l2-2.78a9.26,9.26,0,0,0,1.15-2.56c.29-1,.49-1.68.58-2.12h-.07a2.77,2.77,0,0,1-.33.62c-.12.17-.27.37-.46.59s-.45.47-.76.76l-1.27,1.17a7.13,7.13,0,0,0-1.88,2.42,15.21,15.21,0,0,0-.72,2.41h-.07c0-.39.05-.77.07-1.13s0-.84,0-1.43a25.29,25.29,0,0,0-.14-2.56c-.09-1-.13-2.24-.13-3.8a3.45,3.45,0,0,1,.28-1.39c.2-.44.37-.85.51-1.24h-.07A12,12,0,0,0,196,15.8a11,11,0,0,0-.55,3.4,10.57,10.57,0,0,0,.75,3.84A30.34,30.34,0,0,1,197.51,27.31Zm11.4,22.89a6.75,6.75,0,0,0,.81,0,9.22,9.22,0,0,0,1.09-.07l1.32-.22c.53-.1,1.23-.26,2.08-.48l3.39-.84c-.92-.24-1.72-.47-2.41-.69a5.57,5.57,0,0,1-2-1.27c-.83-.73-1.66-1.49-2.48-2.26-.65-.6-1.33-1.17-2-1.77-.19-.16-1.15-1-1.42-1.29l-.08.08c.11.17,1,2,1,2a3,3,0,0,1,.2.3c.25.44.49.87.72,1.31.1.17.19.34.28.52A4,4,0,0,0,210.61,47a8,8,0,0,0,3.07,1.53v.07l-1.57-.26-1.18-.18c-.36,0-.71-.08-1.07-.11s-.88,0-1.32-.12-.68-.11-1-.15l-1-.12-.52-.06a11.87,11.87,0,0,1-1.84-.33,6.09,6.09,0,0,1-1.66-.69,11.23,11.23,0,0,1-1.76-1.35l-.07.07a8.24,8.24,0,0,0,1,1.39,10.94,10.94,0,0,0,1.54,1.47,8.47,8.47,0,0,0,2.17,1.26,11.45,11.45,0,0,0,2.87.75ZM195.6,30.39a21.47,21.47,0,0,0,1.64,2.15,16.75,16.75,0,0,1,1.78,2.6h.06A7.68,7.68,0,0,1,199,34v-1A7.42,7.42,0,0,1,199.4,31c.28-.9.56-1.9.87-3s.56-2.21.78-3.33a10,10,0,0,0,.2-3h-.08a6.12,6.12,0,0,1-.77,1.87l-1.14,1.9a14.35,14.35,0,0,0-1,2.12,6.58,6.58,0,0,0-.44,2.45,5.54,5.54,0,0,0,.17,1.21,6.64,6.64,0,0,1,.18.91h-.08a18,18,0,0,0-.82-3.07c-.36-1-.71-1.88-1.07-2.71s-.65-1.58-.89-2.26a5.34,5.34,0,0,1-.36-1.68,11.69,11.69,0,0,1,.05-1.17,10.88,10.88,0,0,0,.05-1.1h-.08a16.26,16.26,0,0,0-.59,1.9,9.42,9.42,0,0,0-.35,2.34,11.93,11.93,0,0,0,.44,3.55A10.06,10.06,0,0,0,195.6,30.39Zm8.2-19.12a24.44,24.44,0,0,0,1.87-2.16L207.28,7A11.21,11.21,0,0,1,209,5.24l-.08-.08a4.3,4.3,0,0,1-1.64.88,8.86,8.86,0,0,0-2.09,1,7.52,7.52,0,0,0-2.12,2.08,13.1,13.1,0,0,0-1.75,4.21A14.83,14.83,0,0,0,203.8,11.27Zm-3.45,6.25q1.17-1,2.79-2.34c.4-.34.72-.63,1-.88a3.41,3.41,0,0,0,.63-.88,9.43,9.43,0,0,0,.51-1.28c.17-.51.41-1.2.7-2.08h-.07a5,5,0,0,1-1.29,1.83c-.52.44-1.08.86-1.69,1.28a14.88,14.88,0,0,0-1.84,1.46,7.8,7.8,0,0,0-1.66,2.3v-.07c.44-1.27.77-2.34,1-3.22s.41-1.64.58-2.3a7.34,7.34,0,0,1,.66-1.72,4.57,4.57,0,0,1,1.28-1.39V8.16a5.5,5.5,0,0,0-3.22,2.34,7.1,7.1,0,0,0-1.25,4.09v5.12A8,8,0,0,1,200.35,17.52Z"/></svg>