<svg viewBox="0 0 426 208" xmlns="http://www.w3.org/2000/svg" fill-rule="evenodd" clip-rule="evenodd" stroke-linejoin="round" stroke-miterlimit="2"><path d="M186.7 15.2c.8-.6 1.7-1.4 2.8-2.3.4-.3.7-.6 1-.9.3-.3.5-.6.6-.9.2-.4.4-.8.5-1.3l.7-2.1h-.1c-.3.7-.7 1.3-1.3 1.8-.5.5-1.1.9-1.7 1.3-.6.4-1.3.9-1.8 1.4-.7.7-1.2 1.4-1.6 2.3v-.1c.4-1.3.8-2.3 1-3.2.2-.9.4-1.6.6-2.3.1-.6.3-1.2.6-1.7s.7-1 1.2-1.3c-1.3.4-2.5 1.2-3.2 2.3-.8 1.2-1.3 2.6-1.2 4.1v5.1c.5-.9 1.2-1.6 1.9-2.2zm3.4-6.2c.7-.7 1.3-1.4 1.9-2.2l1.6-2.1c.5-.6 1.1-1.2 1.7-1.8l-.1-.1c-.5.4-1 .7-1.6.9-.7.2-1.4.5-2.1.9-.8.5-1.6 1.2-2.1 2.1-.8 1.3-1.4 2.7-1.7 4.2.9-.5 1.7-1.1 2.4-1.9zM182 28c.5.7 1 1.5 1.6 2.1.7.8 1.3 1.7 1.8 2.6-.1-.4-.1-.8-.1-1.2v-1c.1-.7.2-1.3.4-1.9.3-.9.6-1.9.9-3 .3-1.1.6-2.2.8-3.3.2-1 .3-2 .2-3h-.1c-.2.7-.4 1.3-.8 1.9l-1.1 1.9c-.4.7-.7 1.4-1 2.1-.3.8-.4 1.6-.4 2.4 0 .4.1.8.2 1.2.1.3.1.6.2.9h-.1c-.2-1-.5-2.1-.8-3-.4-1-.7-1.9-1.1-2.7-.4-.8-.6-1.6-.9-2.3-.2-.5-.3-1.1-.4-1.7 0-.4 0-.8.1-1.2v-1.1h-.1c-.2.6-.4 1.2-.6 1.9-.2.8-.3 1.5-.3 2.3 0 1.2.1 2.4.4 3.5.3 1 .7 1.8 1.2 2.6zm13.2 19.7h.8c.4 0 .7 0 1.1-.1l1.3-.2c.5-.1 1.2-.3 2.1-.5.9-.2 2-.5 3.4-.8-.9-.2-1.7-.5-2.4-.7-.7-.3-1.4-.7-2-1.3-.8-.7-1.6-1.5-2.5-2.2-.6-.6-1.3-1.2-2-1.8-.2-.2-1.1-1-1.4-1.3l-.1.1 1 2c.1.1.1.2.2.3.2.4.5.9.7 1.3l.3.5c.3.6.7 1 1.2 1.4.9.7 2 1.3 3.1 1.5l-1.6-.2-1.2-.2c-.4 0-.7-.1-1.1-.1-.4 0-.9 0-1.3-.1s-.7-.1-1-.2l-1-.1c-.2 0-.3 0-.5-.1l-1.8-.3c-.6-.2-1.1-.4-1.6-.7-.6-.4-1.2-.8-1.8-1.3l-.1.1c.3.5.6 1 1 1.4l1.5 1.5c.7.5 1.4.9 2.1 1.2.9.4 1.9.6 2.9.7l.7.2zm-11.3-22.8h.1c0-.4.1-.8.2-1.2.1-.4.3-.8.5-1.2.3-.6.7-1.2 1.1-1.7l1.9-2.8c.5-.8.9-1.6 1.1-2.6.3-1 .5-1.7.6-2.1h-.1l-.3.6c-.1.2-.3.4-.5.6-.2.2-.4.5-.8.8l-1.3 1.2c-.8.7-1.4 1.5-1.9 2.4-.3.8-.6 1.6-.7 2.4h.2c0-.4 0-.8.1-1.1.1-.3 0-.8 0-1.4 0-.7-.1-1.6-.1-2.5 0-.9-.1-2.2-.1-3.8 0-.5.1-.9.3-1.4.2-.4.4-.9.5-1.2h-.1c-.9 1.1-1.6 2.3-2.1 3.7-.4 1.1-.5 2.2-.6 3.4 0 1.3.3 2.6.7 3.8.5 1.2 1 2.7 1.3 4.1zm7.6 18.8l3 .7 1.6.4c-.6-.6-1.1-1.3-1.5-2-.4-.6-.7-1.3-.9-2-.3-.8-.7-1.8-1.2-3.2-.1-.4-.3-.8-.5-1.2-.2-.3-.4-.7-.6-1.1-.2-.4-.5-.8-.8-1.2-.3-.4-.7-1-1.2-1.7l-.1.1c.1.5.4 1.3.6 2.6.2 1.3.5 2.4.8 3.6.2.8.5 1.6 1 2.3.6.8 1.3 1.5 2 2.1l-.1.1c-.6-.3-1.2-.7-1.8-1.2-.8-.7-1.7-1.2-2.6-1.7-1.5-.7-3-1.5-4.4-2.4-1.1-.7-1.9-1.7-2.4-2.9l-.1.1c.3 1.2.7 2.3 1.4 3.3.6.9 1.3 1.8 2.2 2.5.8.7 1.7 1.3 2.7 1.8.9.4 1.8.8 2.9 1zm-6.8-7.5l5.3 3.6c-.2-.4-.4-.9-.6-1.4-.2-.5-.3-1-.4-1.5-.1-.5-.2-1.1-.2-1.8s-.1-1.4-.2-2.4c-.2-1.6-.4-2.8-.5-3.7-.2-1-.4-1.9-.8-2.8h-.1c0 .7 0 1.4-.1 2.1-.1.5-.2 1.1-.3 1.6-.1.5-.2.9-.3 1.4-.1.5-.1.9-.1 1.4 0 .7.2 1.4.5 2.1.3.7.5 1.4.9 2.1l-.1.1c-.7-1.2-1.5-2.2-2.4-3.2-.8-.8-1.5-1.6-2.2-2.3-.6-.6-1.2-1.3-1.7-2.1s-.8-1.6-.9-2.5c-.1.2-.1.5-.1.7 0 .2-.1.5-.1.7 0 .9.2 1.7.4 2.5.3.8.6 1.6 1.1 2.4.4.7.9 1.3 1.5 1.9.4.4.8.8 1.4 1.1zm44.1-31.4l1.6 2.1c.6.8 1.2 1.5 1.9 2.2.7.8 1.6 1.4 2.5 2-.3-1.5-.9-2.9-1.7-4.2-.6-.8-1.3-1.5-2.1-2.1-.6-.4-1.3-.8-2.1-1-.6-.2-1.2-.5-1.6-.9l-.1.1c.5.5 1.1 1.1 1.6 1.8zm4.8 39.2c-.5.3-1.1.5-1.6.7-.6.1-1.2.3-1.8.3l-.5.1-1 .1c-.4 0-.7.1-1 .2-.3.1-.9.1-1.3.1s-.7.1-1.1.1l-1.2.2-1.6.2c1.1-.3 2.2-.8 3.1-1.5.5-.4.9-.9 1.2-1.5.1-.2.2-.3.3-.5.2-.4.5-.9.7-1.3l.2-.3 1-2-.1-.1c-.3.3-1.2 1.1-1.4 1.3-.6.6-1.3 1.2-2 1.8-.8.8-1.6 1.5-2.5 2.2-.6.6-1.2 1-2 1.3-.7.2-1.5.5-2.4.7l3.4.8c.9.2 1.5.4 2.1.5.5.1 1 .2 1.3.2.4.1.7.1 1.1.1h.8l.7-.1c1-.1 1.9-.4 2.9-.7.8-.3 1.5-.7 2.1-1.3.6-.4 1.1-.9 1.5-1.5.4-.4.7-.9 1-1.4l-.1-.1c-.6.6-1.2 1-1.8 1.4zm4-6.1c-1.4.9-2.8 1.7-4.3 2.4-.9.5-1.8 1-2.6 1.7-.5.5-1.1.9-1.8 1.2l-.1-.1c.7-.6 1.4-1.4 2-2.1.5-.7.8-1.5 1-2.3.2-1.1.5-2.3.8-3.6.3-1.3.5-2.1.6-2.6l-.1-.1-1.2 1.7c-.3.5-.6.9-.8 1.2-.2.3-.4.7-.6 1.1-.2.4-.3.8-.5 1.2-.5 1.3-.9 2.4-1.2 3.2-.3.7-.6 1.4-1 2-.4.7-1 1.4-1.5 2l1.6-.4 3-.7c1-.2 2-.5 2.9-1 1-.5 1.9-1.1 2.7-1.8.8-.7 1.6-1.6 2.2-2.5.6-1 1.1-2.1 1.4-3.3V35c-.6 1.2-1.4 2.2-2.5 2.9zm2.2-13.9c-.4.8-.7 1.7-1.1 2.7-.4 1-.6 2-.8 3h-.1c0-.3.1-.6.2-.9.1-.4.2-.8.2-1.2 0-.8-.1-1.7-.4-2.4-.3-.7-.6-1.4-1-2.1l-1.1-1.9c-.4-.6-.6-1.2-.8-1.9h-.1c-.1 1 0 2 .2 3 .2 1.1.5 2.2.8 3.3.3 1.1.6 2.1.9 3 .2.6.4 1.3.4 1.9v1c0 .4 0 .8-.1 1.2.5-.9 1.1-1.8 1.8-2.6.6-.7 1.1-1.4 1.6-2.1.5-.8.9-1.6 1.1-2.4.3-1.2.5-2.4.4-3.6 0-.8-.1-1.6-.4-2.3-.2-.6-.4-1.3-.6-1.9h.1v1.1c0 .4.1.8.1 1.2 0 .6-.1 1.1-.4 1.7-.2.6-.5 1.4-.9 2.2zm-2.2-5.1c-.4-.9-1.1-1.7-1.9-2.4l-1.2-1.2c-.3-.3-.6-.5-.8-.8-.2-.3-.3-.4-.5-.6l-.3-.6h-.1c.1.4.3 1.1.6 2.1.3.9.7 1.7 1.1 2.5l1.9 2.8c.4.6.8 1.1 1.1 1.7.2.4.4.8.5 1.2.1.4.2.8.2 1.2h.1c.3-1.4.7-2.9 1.3-4.2.5-1.2.7-2.5.7-3.8 0-1.1-.2-2.3-.6-3.4-.5-1.3-1.2-2.6-2.1-3.7h-.1c.1.4.3.8.5 1.2.2.4.3.9.3 1.4 0 1.6 0 2.8-.1 3.8-.1.8-.1 1.7-.1 2.5V20c0 .4 0 .7.1 1.1h-.1c.1-.6-.2-1.4-.5-2.2zm-3.2-11.6c.3.5.5 1.1.6 1.7.2.7.4 1.4.6 2.3.2.9.6 1.9 1 3.2v.1c-.4-.9-1-1.6-1.7-2.3l-1.8-1.5c-.6-.4-1.1-.8-1.7-1.3-.6-.5-1-1.1-1.3-1.8h-.1l.7 2.1c.1.4.3.9.5 1.3.2.3.4.6.7.9.2.2.6.5.9.9 1.1.9 2 1.7 2.8 2.3.8.6 1.4 1.3 1.9 2.2v-5.1c0-1.5-.4-2.9-1.2-4.1-.7-1.1-1.9-2-3.2-2.3V6c.6.4 1 .8 1.3 1.3zM226 49.1c-.4 0-.8 0-1.2-.1-.4-.1-.8-.2-1.3-.3l-1.5-.5c-.6-.2-1.2-.4-2-.7l-3.1-1.1c-.7-.2-1.4-.4-2.1-.4-.7 0-1.4.1-2.1.2-.7.2-1.2.3-1.6.4-.3-.1-.8-.2-1.5-.4s-1.4-.2-2.1-.2c-.7 0-1.4.1-2.1.4l-3.1 1.1c-1.6.6-2.8 1-3.6 1.2-.8.2-1.6.4-2.4.4-.3 0-.7 0-1-.1-.3 0-.6-.1-.9-.2 0 0-.7-.2-1.1-.4l-1.4-.6-.1.1c.8.8 1.6 1.4 2.6 2 1.2.7 2.6 1.1 4 1.2.5 0 1 0 1.6-.1.5-.1.9-.2 1.4-.4.5-.2 1-.4 1.5-.7.5-.3 1.2-.7 2-1.2s1.5-1 2.1-1.3c.6-.3 1.3-.5 1.9-.5.3 0 .6.1.9.2-1 .5-2.1 1.2-3.3 1.9-1.3.8-2.5 1.8-3.6 3l1.2 1.1c1.1-1.3 2.3-2.4 3.6-3.5 1-.9 2.1-1.6 3.3-2.1 1.2.5 2.4 1.2 3.4 2.1 1.3 1 2.5 2.2 3.6 3.5l1.2-1.1c-1.1-1.2-2.3-2.2-3.6-3-1.3-.8-2.4-1.4-3.3-1.9.3-.1.6-.1.9-.2.7 0 1.3.1 1.9.5.6.3 1.2.7 2.1 1.3l1.9 1.1c.5.3 1 .5 1.5.7.4.2.9.3 1.4.4.5.1.9.2 1.4.2h.3c1.1 0 2.3-.3 3.3-.7 1.3-.5 2.4-1.4 3.2-2.4v-.1c-.8.4-1.6.7-2.4 1-.5.2-1.1.3-1.8.2zm16.1-21v-.5c0-.2-.1-.5-.1-.7-.1.9-.4 1.8-.9 2.5s-1.1 1.4-1.7 2.1l-.1.1c-.6.7-1.3 1.4-2.1 2.2-.9 1-1.7 2-2.4 3.2l.9-2.1c.2-.7.4-1.4.4-2.1 0-.5 0-1-.1-1.4-.1-.4-.2-.9-.3-1.3-.1-.4-.2-1-.2-1.6-.1-.7-.1-1.4-.1-2.1h-.2c-.3.9-.6 1.9-.8 2.8-.1.9-.3 2.1-.5 3.7-.1.9-.2 1.7-.2 2.4s-.1 1.2-.2 1.8c-.1.5-.2 1-.4 1.5-.1.4-.3.8-.5 1.2l-.1.2 5.4-3.6c.5-.4 1-.8 1.4-1.3.5-.6 1-1.2 1.4-1.9.3-.5.5-.9.7-1.4.1-.3.3-.6.4-.9.3-.8.4-1.6.4-2.5l-.1-.3zM221 6.7c.1.1.3.1.4.2.1.1.2.2.2.3l.2.2c.1 0 .2 0 .2-.2V7c0-.2 0-.3-.1-.4-.2-.2-.4-.2-.6-.2l-.1-.1h-.2c-.1 0-.2 0-.2.2 0 .1.1.2.2.2zm-7.7-1.8h.1c.3-.1.6-.2.9-.2h1c.2 0 .3-.1.4-.2.1-.1.2-.2.2-.3-.2-.3-.5-.5-.9-.5-.2 0-.5-.1-.7-.1l-1.8.6c-.2 0-.4 0-.4.2.1.1.3.2.4.3.3.2.5.2.8.2zm-2.2 39.8c12.1 0 21.9-9.8 21.9-21.9C233 10.7 223.2.9 211.1.9c-12.1 0-21.9 9.8-21.9 21.9 0 12.1 9.8 21.9 21.9 21.9zm-20.8-21.3h3.3c0 1.5.3 2.9.7 4.3-.1 0-.2-.1-.2-.2l-.1-.1-.4-.5-.6.2c0 .3-.1.5-.4.4-.1-.1-.2-.1-.3-.1-.4 0-.7.2-.7.6-.1.3-.1.6-.1.8l.5 1.3c.1.1.2.2.4.1.1.2.3.3.4.5.1.1.2.2.4.1.1 0 .2-.1.2-.2h.1l.3.3c.1.1.2.2.4.3v-.1c.2.2.4.3.6.3.1.3.2.6.4.8.1.2.4.3.6.3.1 0 .2-.1.3-.1.1.3.2.5.4.7l.4.2c.1.1.2.1.3.2h.1c.1.2.2.4.4.6l.4.4h.1l.1.2-2.3 2.4c-3.5-3.7-5.6-8.6-5.7-13.7zm16-6.2l-.2-.1-.2-.2c1.3-1.1 2.9-1.8 4.6-1.9v2.3h-.1v-.1h-.7c-.1-.1-.1-.2-.1-.3-.2.1-.3.2-.3.3 0 .2-.1.3-.1.5-.1.2-.2.3-.4.4-.2 0-.3.1-.4.2l-.2-.1h-.4l-.2-.2c-.1 0-.1-.1-.1-.1h-.1c-.1 0-.2.1-.2.2l-.2-.2h.1v-.1c-.3-.3-.5-.4-.8-.6zm-1.2-1.1l-2.2-2.2c2.1-1.9 4.8-3 7.6-3.2v3.2c-2 .1-3.9.9-5.4 2.2zm1.3 10.5c.1-.1.1-.3.1-.5l-.2.2c.2-.2.3-.3.4-.5.1-.1.1-.3.2-.4.1.2.2.3.3.5l-2 2c-.8-.9-1.4-2.1-1.7-3.3.2 0 .3.1.5.1.2.1.3.3.5.4.1 0 .2 0 .3-.1l.3.2c0 .1 0 .3.1.4l.2.2c.1.1.2.1.3.3l.1-.1v-.5l.1.5.1.6c.2.1.3.1.4 0zm4.4 2.4l.2.2s-.2.2-.6.2c-.1 0-.2.1-.3.4-.1.3-.1.5-.1.7h-.1c-1.4-.2-2.8-.9-3.9-1.8l2-2c.8.7 1.7 1.1 2.7 1.2 0 .1 0 .2.1.3-.1.1-.2.2-.1.4-.1.1-.1.2.1.4zm-9.8.1c0-.4-.1-.8-.1-1.2-.1-.2-.1-.4-.2-.7 0-.3-.1-.7-.2-1-.2-.3-.4-.6-.7-.9v-.4c0-.1-.1-.3-.1-.4v-.1c0-.1 0-.2.1-.2l.8-.3c0-.2 0-.5.1-.7l.5.1c.1 0 .2-.1.2-.3 0-.2-.1-.3-.1-.5-.1-.2-.1-.3-.1-.5 0-.1.1-.2.2-.3.1-.1.3-.1.4-.1.2 0 .4.1.5.2.1.2.1.3.1.5v.7l.1.1c-.1.5-.3.7-.6.7-.1 0-.3-.1-.3-.2s-.1-.2-.2-.2h-.1c0 .1 0 .2.1.3.1.1.1.2.1.4 0 .3-.1.5-.5.4-.1.2 0 .3.3.3.1.3.2.4.3.4.1-.2.1-.3.1-.5s.1-.4.1-.6l.1.1.3-.1v.1h.1c.3 1.6 1 3.1 2.1 4.3l-3.1 3.1c-.1-.1-.2-.3-.2-.5.1-.3.4-.5.4-.8l.1-.6c-.3 0-.4-.3-.6-.6zm-1.8-4.6c0 .1.1.2.1.3 0 .1-.1.2-.1.2h-.1c-.1-.5-.2-1.1-.2-1.6h.6c0 .1 0 .2-.1.3-.1.1-.1.2-.2.3-.1.1-.1.2-.1.3.1 0 .1.1.1.2zm-.2-2.2c.1-2.8 1.2-5.5 3.2-7.6l2.2 2.2-.1.1c-.1 0-.3.1-.4.1-.1.1-.2.3-.3.4-.2.1-.5.2-.7.4l-.6.6c-.3.1-.5.2-.6.3-.1 0-.2.1-.2.2.1.2.1.4 0 .4l-.7.2-.3.3c0 .1-.1.2-.1.3 0 .1 0 .2-.1.2-.1.1-.3.2-.4.4-.1.2-.1.4 0 .7l.1.7c0 .1.1.1.1.2l-1.1-.1zm6.2 7.2c1.1 1 2.4 1.7 3.9 2-.1 0-.2.1-.3.1-.2.1-.4.2-.4.5 0 .2-.1.4-.3.5-.2.1-.2.2-.2.3.2.2.4.5.5.9.1.3.4.6.7.7l.4.1c.2 0 .3.1.4.2l.4.1c-2.7-.2-5.3-1.3-7.4-3.1l2.3-2.3zm-3-16.4l-2.2-2.2c2.9-2.7 6.7-4.3 10.6-4.4v3.1c-3.2.1-6.2 1.3-8.4 3.5zm-.8.8c-2.1 2.3-3.4 5.3-3.5 8.4h-3.1c.1-4 1.7-7.7 4.4-10.6l2.2 2.2zm-3.5 9.5c0 .5 0 1.1.1 1.6 0-.1-.1-.1-.1-.2-.2-.2-.3-.4-.4-.4-.1 0-.3.1-.3.2-.1.1-.1.2-.2.3-.2.2-.5.3-.8.4-.2.3-.4.6-.4.9-.1.1-.1.2 0 .3.1.1 0 .2-.1.3.1.2.1.3.1.4v.1h-.2c0 .1-.1.1-.1.2-.4-1.3-.6-2.7-.7-4.1h3.1zm12.6 20.2c-5.1-.1-10-2.2-13.8-5.7l2.4-2.4c3.1 2.9 7.1 4.6 11.4 4.7v3.4zm0-4.4c-3.9-.1-7.7-1.7-10.5-4.4.2.1.4.2.6.2.2 0 .4-.1.6-.2l.6-.3c.2 0 .5 0 .7-.2h.5c.2 0 .3-.2.3-.4s-.1-.3-.3-.4c-.2-.1-.3-.2-.3-.3 0-.1 0-.1-.1-.2l-.5-.5c2.3 2.1 5.3 3.4 8.4 3.5v3.2zm.6-8.2c-.2 0-.5 0-.7-.1 0-.1 0-.1-.1-.2.1-.1.2-.2.3-.2.1-.1.3-.2.4-.2v-.2l.5-.4c.1 0 .1-.1.2-.1s.3-.1.4-.1c.2.1.4.1.6.3.2.1.4.2.6.2l.1-.3c.1 0 .2.1.4.3.1 0 .3-.1.4-.1v-.4c.1 0 .1 0 .2.1h.3c.1 0 .3-.1.4-.2.1-.1.3-.2.4-.3h.1c.1.1.1.2.1.3 0 .4-.3.7-.6.9-.3.2-.7.3-1.1.4-.1.1-.1.2-.2.3-.1.2-.1.3-.2.3-.3 0-.6-.1-.9-.1-.1-.1-.2-.3-.2-.4-.2 0-.4 0-.5.1l-.6.1h-.3zm3.2-2.4c0-.2.2-.4.4-.5.2-.1.4-.1.6-.1 0 .1-.1.3-.4.4-.2.1-.4.2-.6.2zm2.2-1.8c.2.1.3.3.3.5 0 .1-.1.3-.2.3h-.1c-.1 0-.3-.2-.4-.5-.3-.1-.5-.3-.6-.5-.1-.2 0-.4.1-.4s.2-.1.3-.1c.1 0 .1.1.1.3l.5.4zm7-12.2c.1 0 .1 0 .1.1.2 0 .4.1.5.1.3.3.6.7.9 1.1l.4.4c.1 0 .3-.1.4-.1 0-.1 0-.1.1-.2.9 2 1.4 4.1 1.5 6.2h-3.1v-.1c0-.3 0-.6-.2-.8-.2-.3-.2-.7-.1-1.1.1-.2.1-.4 0-.6-.1 0-.2 0-.3.1-.1.1-.1.2-.2.3-.1.2-.1.3-.2.4 0 0 0 .1-.1.1 0 .1 0 .1-.1.2l-.1.6v.8h-1.6c.1-.1.3-.2.5-.2l.4-.2c-.1 0-.1-.1-.1-.2s0-.2.1-.2l.4-.2c.2-.2.3-.4.4-.7.3-.4.5-.9.6-1.4 0-.1-.1-.3-.2-.4v-.3c0-.5.2-1.4-.4-1.6-.1 0-.1-.1-.1-.2.2-.1.2-.4.1-.6h-.5c0-.1.1-.2.1-.2.1-.1.1-.2.1-.3 0-.1-.1-.2-.2-.2h-.1c-.1 0-.3 0-.4.1-.1 0-.1.1-.2.1h.1l-.1-.1c0-.3-.1-.5-.3-.7-.2-.2-.4-.3-.6-.4v-.3l.6-.6.9.3c0 .2.1.4.2.5.1.1.2.2.3.2.1.1.2.2.4.3.1-.1.2 0 .1 0zm-3 21.2c-.1-.1-.1-.1-.2-.1s-.1 0-.1-.1.1-.2.2-.3c.2-.1.3-.3.4-.5.1-.1.1-.3.1-.4 0-.1 0-.2-.1-.2s-.2-.1-.3-.2c-.1 0-.2-.1-.3-.1-.1-.1-.3-.1-.4-.2-.1-.1-.2-.2-.2-.4 0-.1.1-.2.1-.4l.1-.2.2-.1 1.7 1.7c0 .2.1.3.3.3l.2.2c-.6.5-1.2 1.1-1.9 1.5 0-.1.1-.1.1-.2l.1-.1v-.2zm-1-8c-.1 0-.3 0-.4.1-.2.1-.4.2-.4.4v.1c-.1 0-.2 0-.3.1-.1 0-.2.1-.4.1-.1 0-.2 0-.2-.1s.2-.2.6-.3l.4-.4c.1-.1.2-.1.3-.1.2-.1.4-.3.6-.5.1-.1.2-.3.3-.5h.1c0 .2.1.4.3.4.2 0 .3-.2.4-.5.2.1.4.1.6.1.2 0 .4-.1.5-.3h.9v.2c-.5 1.6-1.3 3.1-2.4 4.4v-.2c-.1-.2-.2-.4-.3-.7-.1 0-.2.2-.4.5s-.2.6-.3.6l-.7.1c-.2 0-.4.1-.7.1-.2 0-.4-.1-.6-.2l-.6-.3c-.2-.1-.4-.1-.6-.1-.3 0-.4-.1-.4-.2s.1-.2.3-.2c.2 0 .4 0 .6.1l.9.2c.3.1.6.1.8.2.1 0 .3.1.4.1l.4-.1c0-.1.1-.3.1-.4.1-.1.1-.3.1-.4.1-.3.2-.5.3-.8.1-.3.1-.6.1-.9 0-.2-.1-.4-.2-.4l-.1-.2zm2-4.4h1.7c0 .7-.1 1.4-.3 2.1-.1-.2-.2-.5-.4-.6l-.6-.6c0-.2-.1-.3-.1-.5 0-.1-.1-.1-.1-.2l-.2-.2zm.7 8.9c-.1 0-.2 0-.2.1 0 .2 0 .3-.1.5l-1.1-1.1c1.5-1.6 2.5-3.5 3.1-5.7h.1c.2.1.4.1.5 0 .1-.1.1-.1.1-.2s-.1-.3-.4-.6h-.1c.1-.6.2-1.3.2-1.9h3.1c-.1 4-1.7 7.8-4.4 10.6l-.1-.1c0-.3-.1-.7-.2-1-.1-.3-.3-.6-.5-.6zm-.8-15.8c0 .1 0 .3-.1.4 0 .1-.1.2-.1.4.2.2.4.4.6.5.2.2.4.3.6.5.1.3.3.5.3.8.1.3.1.5.2.8 0 .2-.1.4-.2.5-.1.3-.4.4-.7.4l-.1-.1c0-.2.1-.3.1-.4.1-.1.1-.3.1-.4.2-.1.3-.3.3-.4l-.2-.1c-.1-.1-.3-.2-.4-.3 0-.1-.1-.2-.4-.2-.1 0-.3 0-.4.1l-.4.2-.1-.3c0-.1.1-.2.1-.3l-.6-1c-.3-.1-.5-.2-.8-.2H218c-.2 0-.4 0-.6.2-.2.1-.3.3-.5.5-.1.1 0 .2-.2.2l-.2-.2 3.3-3.3.4.4.3.4c.4.2.7.5.9.9zm-7.9 21.8c.3.2.6.4.9.5-.9.2-1.8.3-2.8.3V36c.1.2.3.4.5.5.2.1.4.1.6.1.3 0 .5.1.5.2s0 .2-.1.3c-.1.1-.1.2-.1.3 0 .4.2.7.5.9zm-1.9 5.3v-3.3c1.2 0 2.4-.2 3.6-.5v.2c.3.2.5.4.7.7.1.2.4.3.8.3.2 0 .3 0 .5-.2.1-.1.2-.2.2-.3.1-.1.2-.2.4-.2.1 0 .2-.1.3-.2.2-.1.4-.2.5-.4.2-.2.4-.4.4-.6.1 0 .2-.1.3-.2.1-.2.2-.5.3-.8l.1-.1v-.1c1.2-.7 2.2-1.4 3.2-2.3l2.4 2.4c-3.7 3.4-8.6 5.5-13.7 5.6zm14.5-6.5l-2.4-2.4c2.9-3.1 4.6-7.1 4.7-11.4h3.3c0 5.2-2 10.1-5.6 13.8zm5.8-14.9h-3.3c-.1-3.5-1.3-6.9-3.4-9.7 0-.1-.1-.2-.2-.3l-.2-.2c-.3-.4-.6-.7-.9-1 0-.1-.1-.2-.1-.2l2.3-2.3c3.6 3.7 5.6 8.6 5.8 13.7zM211.6 2c5.1.1 10 2.2 13.8 5.7l-2 2c0-.1-.1-.2-.1-.3-.1-.1-.2-.2-.3-.2-.2-.1-.3-.3-.3-.5s-.1-.3-.2-.5c-.3-.1-.6-.4-.7-.7-.2-.3-.4-.5-.6-.5-.2.1-.3.1-.5 0-.1-.1-.3-.1-.5-.1s-.4 0-.5.1c-.2.1-.4.1-.6.2l-.1.1c-2.2-1.1-4.6-1.8-7.1-1.9.2-.3.2-.5.1-.6-.1-.1-.1 0-.3.2l-.1-3zm0 4.4c2.4.1 4.7.7 6.8 1.7v.1l.3.3c.1.1.2.2.2.3.1.2.1.4.2.6.1.1.1.2.2.4-.1.2 0 .4.1.6.1.2.3.4.4.6h.7c.1 0 .2.1.3.2.1.1.2.3.2.4 0 .1 0 .2.1.2l-.9.9c-.1-.4-.2-.8-.4-1.2-.2-.1-.4-.2-.6-.2 0-.1-.2-.3-.5-.6-.3-.4-.4-.6-.5-.6-.1 0-.2 0-.2.1s.1.2.1.3c0 .1.1.2.3.5 0 .1 0 .1-.1.1 0 .2.2.3.4.4l-.1.1.2.4c-2.1-1.5-4.6-2.4-7.2-2.5V6.4zm0 4.3c2.8.1 5.5 1.2 7.6 3.2l-2.2 2.3c-1.5-1.3-3.4-2.1-5.4-2.2v-3.3zm0 4.3c1.6.1 3.1.7 4.4 1.7l-.2.2s-.1.1-.1.2.2.2.3.2l-.9.9c-.1.1-.2.1-.3.2-.2.1-.3.2-.3.3 0 .1-.1.2-.1.2l-.3.3h-.1c-.1 0-.2-.1-.4-.3-.2-.2-.3-.3-.4-.3-.1 0-.3 0-.3.1-.1.1-.2.1-.3 0-.1-.1 0-.2.3-.3l.6-.3c.4-.3.6-.7.6-1.2 0-.2-.1-.4-.3-.4l-.2.2c-.2.1-.4.2-.5.4l-.4.4c-.1-.1-.3-.1-.4-.1h-.4l-.3-2.4zm-.6 5c0 .1.1.1.1.1.1 0 .2 0 .4.1.1.1.3.1.4 0 0 .1 0 .1.1.1.1.1.2.2.3.1l.1.1v.1l.1.3v.1h.4v.8h.1v.1c-.1.1-.2.3-.2.4 0 .1.1.1.2.1s.2 0 .3.1c.1.1.2.3.2.4v.6c0 .1 0 .2.1.2s.1.1.1.1c0 .2 0 .4-.1.5 0 .2-.1.3-.2.5h-.4c-.2 0-.4-.1-.5-.1-.1 0-.2.1-.3.4-.1.2-.2.4-.2.6-.1.2-.2.3-.3.3h-.4l-.2.4-.1.1c-.8-.1-1.6-.4-2.2-1l.4-.4c.2 0 .5-.1.7-.2h.1c.4-.2.4-.5.6-.8.2-.3.5-.5.2-.7.3-.6-1.2-.6-1.5-.5-.3.1-.1.5-.3.7-.2.2-.2.1-.4.2-.2.2-.4.5-.6.8-.1-.2-.2-.4-.2-.6h.1v-.1h.1v.1h.4c.1 0 .1-.3.1-.4.1-.3.2-.6.4-.9-.1 0-.1-.1-.2-.2 0-.1-.1-.1-.2-.1s-.1.1-.1.2-.1.2-.1.3c-.1.1-.2.1-.3.1 0-.1-.1-.2-.2-.2h-.1c-.1 0-.2.1-.3.1-.2 0-.5 0-.7.1h-.7c-.1-.1 0-.2.4-.3 0-.3.1-.7.4-.9.1.1.3.1.4.1l.1-.1h.1c.1 0 .2.1.3.4.1.3.1.4.2.4s.1 0 .2-.1v-.4c.1-.4.2-.7.2-.8v-.2c.1-.1.1-.3.2-.4h.1c.1-.1.2-.1.3-.2.1-.1.1-.3.1-.5l.8-.3c.4-.1.6-.3.6-.5l.5-.1c0 .8 0 .9.1.9zm-.5-18v3.3c-4.3.1-8.3 1.8-11.4 4.7l-2.4-2.4c3.8-3.4 8.7-5.5 13.8-5.6zM196 8.5l2.4 2.4c-2.9 3.1-4.6 7.1-4.7 11.4h-3.3c0-5.2 2.1-10.1 5.6-13.8z" fill="#5090cd" fill-rule="nonzero"/><g fill="#1b344a" fill-rule="nonzero"><path d="M21.491 129.02v-4.481h15.285v4.452l-3.942.766v10.662h15.059v-10.634l-3.97-.766v-4.48h15.313v4.452l-3.97.766v26.515l3.97.765v4.453H43.95v-4.453l3.97-.765v-10.124H32.863V156.3l3.941.766v4.452H21.52v-4.452l3.942-.766v-26.515l-3.97-.766zM76.931 124.539v4.452l-3.97.766v19.283c0 2.44.652 4.254 1.957 5.473 1.304 1.22 3.12 1.815 5.388 1.815 2.325 0 4.14-.595 5.445-1.786 1.333-1.191 1.985-3.035 1.985-5.473v-19.284l-3.942-.766v-4.48h15.285v4.452l-3.97.766v19.283c0 4.14-1.361 7.345-4.084 9.585-2.722 2.24-6.324 3.375-10.747 3.375-4.424 0-7.97-1.134-10.691-3.375-2.723-2.24-4.084-5.444-4.084-9.585v-19.283l-3.942-.766v-4.452h15.37zM136.937 134.152l-.142-.028-9.897 27.337h-4.962l-9.84-27.224-.142.029.709 16.192v5.814l3.941.765v4.453H101.32v-4.453l3.942-.765v-26.487l-3.942-.766v-4.48h13.612l9.415 27.224h.142l9.472-27.224h13.64v4.452l-3.97.766v26.515l3.97.765v4.453h-15.285v-4.453l3.942-.765v-5.814l.68-16.306zM149.869 157.037l2.637-.368 11.23-32.102h7.571l11.174 32.102 2.637.368v4.453h-12.591v-4.453l2.552-.453-1.616-5.077h-11.968l-1.616 5.077 2.552.453v4.453h-12.59v-4.453h.028zm13.385-10.974h8.479l-4.169-13.017h-.142l-4.168 13.017zM225.273 124.539v4.452l-3.97.766v31.733h-7.373l-14.917-24.842-.141.028V156.3l3.941.766v4.452h-15.285v-4.452l3.942-.766v-26.515l-3.942-.766v-4.48h11.344l14.916 24.842.142-.029v-19.567l-3.97-.766v-4.48h15.313zM227.655 129.02v-4.481h15.285v4.452l-3.942.766v26.515l3.942.765v4.453h-15.285v-4.453l3.942-.765v-26.487l-3.942-.766zM278.275 124.539v9.84h-5.672l-.312-4.14h-6.806v26.033l3.942.765v4.453h-15.314v-4.453l3.97-.765v-26.005h-6.777l-.312 4.14h-5.643v-9.868h32.924zM275.722 157.037l2.638-.368 11.23-32.102h7.571l11.173 32.102 2.638.368v4.453H298.38v-4.453l2.553-.453-1.617-5.077H287.35l-1.616 5.077 2.552.453v4.453h-12.591v-4.453h.028zm13.414-10.974h8.479l-4.169-13.017h-.142l-4.168 13.017zM330 124.539c4.197 0 7.486.964 9.869 2.864 2.382 1.928 3.573 4.566 3.573 7.94 0 1.872-.51 3.488-1.503 4.85-.993 1.36-2.467 2.467-4.396 3.317 2.184.653 3.743 1.702 4.708 3.205.964 1.503 1.446 3.346 1.446 5.558v1.872c0 .822.17 1.446.482 1.9.312.454.85.709 1.588.794l.908.113v4.452h-3.829c-2.41 0-4.112-.652-5.104-1.956-.993-1.305-1.475-2.978-1.475-5.048v-2.098c0-1.787-.482-3.205-1.446-4.226-.964-1.02-2.297-1.56-4.055-1.616h-6.07v9.727l3.943.765v4.452h-15.285v-4.452l3.941-.765v-26.402l-3.941-.766v-4.48H330zm-5.246 16.306h5.132c2.07 0 3.602-.454 4.651-1.333 1.021-.88 1.56-2.155 1.56-3.8s-.51-2.978-1.531-3.97c-1.021-.993-2.524-1.475-4.538-1.475h-5.246v10.578h-.028zM349.113 129.02v-4.481h15.285v4.452l-3.941.766v26.515l3.941.765v4.453h-15.285v-4.453l3.942-.765v-26.487l-3.942-.766zM400.98 143.284c0 5.416-1.56 9.868-4.65 13.413-3.091 3.545-7.147 5.303-12.138 5.303-4.99 0-9.017-1.758-12.08-5.303-3.063-3.545-4.594-7.997-4.594-13.413v-.568c0-5.388 1.531-9.84 4.594-13.385 3.063-3.544 7.09-5.331 12.08-5.331 4.991 0 9.047 1.787 12.166 5.331 3.091 3.545 4.65 8.026 4.65 13.385v.568h-.028zm-7.401-.596c0-3.828-.794-6.92-2.382-9.301-1.588-2.382-3.942-3.574-7.061-3.574-3.12 0-5.445 1.192-6.976 3.545-1.532 2.382-2.297 5.473-2.297 9.33v.596c0 3.885.765 7.032 2.325 9.386 1.56 2.382 3.857 3.573 6.948 3.573 3.12 0 5.473-1.19 7.06-3.573 1.56-2.382 2.355-5.501 2.355-9.386v-.596h.028z"/></g><g fill="#1b344a" fill-rule="nonzero"><path d="M79.526 78.539c4.225 0 7.571 1.077 10.01 3.261s3.658 5.02 3.658 8.536c0 3.545-1.22 6.38-3.658 8.507-2.439 2.156-5.785 3.233-10.01 3.233h-6.24v8.196l3.943.765v4.453H61.944v-4.453l3.941-.765V83.785l-3.941-.766v-4.48h17.582zm-6.24 17.837h6.24c2.07 0 3.63-.567 4.679-1.673 1.049-1.134 1.588-2.552 1.588-4.31 0-1.787-.539-3.233-1.588-4.396-1.05-1.163-2.61-1.73-4.68-1.73h-6.238v12.11zM89.196 111.037l2.637-.368 11.23-32.13h7.572l11.173 32.101 2.637.369v4.452h-12.591v-4.452l2.552-.454-1.616-5.076h-11.967l-1.617 5.076 2.552.454v4.452h-12.59v-4.424h.028zm13.385-10.974h8.479l-4.169-13.017h-.141l-4.17 13.017zM164.629 78.539v4.452l-3.942.766v31.733h-7.373l-14.917-24.842h-.17v19.624l3.97.765v4.453h-15.313v-4.453l3.942-.765V83.785l-3.942-.766v-4.48h11.343l14.917 24.842.141-.029V83.785l-3.97-.766v-4.48h15.314zM200.757 97.284c0 5.416-1.56 9.868-4.65 13.413-3.092 3.545-7.147 5.303-12.138 5.303s-9.018-1.758-12.08-5.303c-3.063-3.545-4.595-7.997-4.595-13.413v-.568c0-5.388 1.532-9.84 4.594-13.385 3.063-3.544 7.09-5.331 12.08-5.331 4.992 0 9.047 1.787 12.167 5.331 3.09 3.545 4.65 8.026 4.65 13.385v.568h-.028zm-7.373-.596c0-3.828-.794-6.92-2.382-9.301-1.588-2.382-3.942-3.574-7.061-3.574-3.12 0-5.445 1.192-6.977 3.545-1.53 2.382-2.297 5.473-2.297 9.33v.596c0 3.885.766 7.032 2.326 9.386 1.56 2.382 3.856 3.573 6.976 3.573s5.473-1.19 7.061-3.573c1.56-2.382 2.354-5.501 2.354-9.386v-.596zM220.324 78.539c4.197 0 7.487.964 9.869 2.864 2.382 1.928 3.573 4.566 3.573 7.94 0 1.872-.51 3.488-1.503 4.85-.993 1.36-2.467 2.467-4.396 3.317 2.184.653 3.744 1.702 4.708 3.205.964 1.503 1.446 3.346 1.446 5.558v1.872c0 .822.17 1.446.482 1.9.312.454.85.709 1.588.794l.908.113v4.452h-3.829c-2.41 0-4.112-.652-5.104-1.956-.993-1.305-1.475-2.978-1.475-5.048v-2.098c0-1.787-.482-3.205-1.446-4.226-.964-1.02-2.297-1.56-4.055-1.616h-6.069v9.727l3.942.765v4.452h-15.285v-4.452l3.942-.765V83.785l-3.942-.766v-4.48h16.646zm-5.246 16.306h5.133c2.07 0 3.601-.454 4.65-1.333 1.021-.88 1.56-2.155 1.56-3.8s-.51-2.978-1.531-3.97c-1.021-.993-2.524-1.475-4.538-1.475h-5.246v10.578h-.028zM239.069 111.037l2.637-.368 11.23-32.102h7.572l11.173 32.102 2.637.368v4.453h-12.59v-4.453l2.551-.453-1.616-5.077h-11.967l-1.617 5.077 2.553.453v4.453H239.04v-4.453h.028zm13.385-10.974h8.479l-4.169-13.017h-.141l-4.17 13.017zM312.375 88.152l-.142-.028-9.897 27.337h-4.963l-9.84-27.252-.142.057.71 16.192v5.814l3.941.765v4.453h-15.285v-4.453l3.942-.765V83.785l-3.942-.766v-4.48h13.612l9.415 27.224h.142l9.471-27.224h13.64v4.452l-3.97.766v26.515l3.97.765v4.453h-15.285v-4.453l3.942-.765v-5.814l.68-16.306zM325.306 111.037l2.637-.368 11.23-32.102h7.572l11.173 32.102 2.637.368v4.453h-12.59v-4.453l2.552-.453-1.617-5.077h-11.967l-1.616 5.077 2.552.453v4.453h-12.591v-4.453h.028zm13.385-10.974h8.48L343 87.046h-.141l-4.169 13.017z"/></g><g fill-rule="nonzero"><path d="M81.736 203.352c-1.19 1.19-2.947 2.24-5.242 3.203-2.296.963-5.214 1.416-8.728 1.416-4.988 0-9.04-1.672-12.157-5.015-3.117-3.344-4.675-7.68-4.675-13.007v-1.275c0-5.526 1.53-10.032 4.618-13.489 3.09-3.457 7.113-5.185 12.072-5.185 2.89 0 5.526.453 7.906 1.388 2.38.935 4.392 2.154 5.98 3.74v7.425h-5.47l-1.048-4.93c-.68-.567-1.559-1.05-2.664-1.39-1.105-.34-2.38-.51-3.825-.51-3.23 0-5.725 1.19-7.538 3.571-1.785 2.38-2.692 5.498-2.692 9.351v1.332c0 3.74.878 6.745 2.635 8.983 1.785 2.239 4.307 3.372 7.623 3.372 1.473 0 2.692-.113 3.599-.368.935-.255 1.643-.538 2.153-.879v-6.262l-5.27-.397v-5.185h12.695v14.111h.028zM85.448 207.461v-4.449l3.939-.765v-26.495l-3.939-.765v-4.449h15.274v4.449l-3.939.765v26.014h10.428l.34-4.648h5.64v10.315H85.447v.028zM148.952 189.297c0 5.413-1.559 9.862-4.648 13.404-3.088 3.542-7.14 5.299-12.128 5.299-4.987 0-9.011-1.757-12.072-5.3-3.06-3.541-4.59-7.99-4.59-13.403v-.567c0-5.384 1.53-9.832 4.59-13.375 3.06-3.542 7.085-5.327 12.072-5.327 4.987 0 9.04 1.785 12.157 5.327 3.088 3.543 4.647 8.02 4.647 13.375v.567h-.028zm-7.368-.595c0-3.825-.794-6.914-2.38-9.294-1.587-2.38-3.94-3.57-7.056-3.57-3.117 0-5.441 1.19-6.971 3.541-1.53 2.38-2.296 5.47-2.296 9.323v.595c0 3.882.766 7.028 2.324 9.38 1.559 2.38 3.854 3.57 6.971 3.57s5.47-1.19 7.056-3.57c1.558-2.38 2.352-5.498 2.352-9.38v-.595zM168.306 170.566c4.335 0 7.736.85 10.173 2.522 2.437 1.7 3.655 4.223 3.655 7.566 0 1.7-.453 3.23-1.36 4.563-.907 1.332-2.21 2.352-3.939 3.032 2.21.481 3.882 1.473 4.988 3.032 1.105 1.558 1.671 3.344 1.671 5.384 0 3.542-1.161 6.206-3.485 8.02-2.324 1.813-5.64 2.72-9.918 2.72h-18.136v-4.45l3.94-.764v-26.496l-3.94-.765v-4.449h16.35v.085zm-5.073 15.472h5.328c1.983 0 3.485-.396 4.562-1.218 1.077-.822 1.587-1.984 1.587-3.542 0-1.7-.538-2.976-1.615-3.769-1.077-.822-2.664-1.218-4.79-1.218h-5.072v9.747zm0 5.101v10.655h6.83c1.955 0 3.457-.425 4.477-1.275 1.02-.85 1.559-2.126 1.559-3.797 0-1.814-.454-3.203-1.332-4.138-.879-.963-2.267-1.445-4.166-1.445h-7.368zM185.846 203.04l2.636-.368 11.221-32.077h7.566l11.165 32.077 2.635.369v4.449h-12.581v-4.45l2.55-.453-1.615-5.072h-11.958l-1.616 5.072 2.55.454v4.449h-12.58v-4.45h.027zm13.376-10.994h8.472l-4.165-13.007h-.142l-4.165 13.007zM223.506 207.461v-4.449l3.94-.765v-26.495l-3.94-.765v-4.449h15.274v4.449l-3.939.765v26.014h10.428l.369-4.648h5.639v10.315h-27.77v.028z" fill="#1b344a"/><path d="M267.684 207.461v-3.428l12.1-13.432c2.154-2.409 3.627-4.336 4.392-5.753.765-1.417 1.162-2.862 1.162-4.364 0-1.842-.538-3.4-1.615-4.647-1.077-1.247-2.522-1.898-4.28-1.898-2.55 0-4.42.651-5.638 1.955-1.19 1.303-1.814 3.145-1.814 5.526h-4.789l-.056-.142c-.085-3.174.963-5.838 3.145-8.02 2.182-2.153 5.214-3.258 9.125-3.258 3.315 0 5.979.963 7.934 2.89s2.947 4.392 2.947 7.396c0 2.012-.595 4.024-1.785 6.036-1.19 2.012-2.862 4.194-5.044 6.517l-9.72 10.57.057.113h13.092l.396-4.222h4.223v8.133h-23.832v.028zM320.448 193.406c0 4.704-1.049 8.331-3.146 10.825-2.097 2.522-4.959 3.769-8.586 3.769-3.627 0-6.49-1.247-8.586-3.77-2.125-2.521-3.174-6.12-3.174-10.824v-8.756c0-4.704 1.049-8.303 3.146-10.825 2.097-2.522 4.959-3.797 8.557-3.797 3.628 0 6.518 1.275 8.615 3.797 2.125 2.522 3.174 6.15 3.174 10.825v8.756zm-4.988-9.805c0-3.202-.566-5.61-1.728-7.197-1.162-1.615-2.834-2.409-5.044-2.409-2.182 0-3.854.794-4.988 2.409-1.161 1.615-1.728 4.024-1.728 7.197v10.825c0 3.202.595 5.611 1.757 7.226 1.162 1.644 2.834 2.437 5.015 2.437 2.21 0 3.883-.822 5.044-2.437 1.134-1.615 1.7-4.052 1.7-7.254V183.6h-.028zM325.945 207.461v-3.428l12.1-13.432c2.154-2.409 3.627-4.336 4.392-5.753.765-1.417 1.162-2.862 1.162-4.364 0-1.842-.538-3.4-1.615-4.647-1.077-1.247-2.522-1.898-4.279-1.898-2.55 0-4.42.651-5.64 1.955-1.19 1.303-1.813 3.145-1.813 5.526h-4.789l-.056-.142c-.085-3.174.963-5.838 3.145-8.02 2.182-2.153 5.214-3.258 9.125-3.258 3.315 0 5.979.963 7.934 2.89s2.947 4.392 2.947 7.396c0 2.012-.595 4.024-1.785 6.036-1.19 2.012-2.862 4.194-5.044 6.517l-9.72 10.57.057.113h13.092l.396-4.222h4.223v8.133h-23.832v.028zM355.217 204.288l5.696-.709v-27.657l-5.809.113v-3.117l10.796-2.323v32.984l5.668.709v3.202h-16.379v-3.202h.028z" fill="#5090cd"/></g></svg>
