<svg id="Layer_1" data-name="Layer 1" xmlns="http://www.w3.org/2000/svg" viewBox="0 0 426 208"><defs><style>.cls-1{isolation:isolate;}.cls-2{fill:#1b344a;}.cls-3{fill:#5090cd;}.cls-4{fill:#5190cd;}</style></defs><g class="cls-1"><path class="cls-2" d="M109.92,107.25l2.58-.37,11-31.39h7.41l10.91,31.39,2.58.37v4.34H132.09v-4.34l2.5-.45-1.59-5H121.3l-1.59,5,2.51.45v4.34h-12.3ZM123,96.51h8.28l-4.06-12.72h-.15Z"/><path class="cls-2" d="M163.94,75.49q6.21,0,9.79,3.19a11.49,11.49,0,0,1,0,16.67q-3.58,3.15-9.79,3.15h-6.09v8l3.86.74v4.34h-15v-4.34l3.85-.74V80.6l-3.85-.75V75.49h17.18Zm-6.09,17.43h6.09a6,6,0,0,0,4.58-1.65,5.9,5.9,0,0,0,1.55-4.2,6.14,6.14,0,0,0-1.55-4.3,5.86,5.86,0,0,0-4.58-1.7h-6.09Z"/><path class="cls-2" d="M202.92,95.72H190.7V106h11.65l.32-4.32h5.51v9.87H179.62v-4.34l3.84-.74V80.6l-3.84-.75V75.49h28.51v9.89h-5.56l-.32-4.31H190.7v9.07h12.22Z"/><path class="cls-2" d="M228.26,75.49q6.15,0,9.65,2.81a9.44,9.44,0,0,1,3.49,7.78,7.84,7.84,0,0,1-1.46,4.73,10.31,10.31,0,0,1-4.29,3.25,7.8,7.8,0,0,1,4.6,3.14,9.93,9.93,0,0,1,1.4,5.44v1.83a3.16,3.16,0,0,0,.47,1.85,2.07,2.07,0,0,0,1.56.78l.89.13v4.36h-3.74q-3.54,0-5-1.91a8,8,0,0,1-1.44-4.93v-2.06a5.84,5.84,0,0,0-1.4-4.13,5.38,5.38,0,0,0-4-1.57h-5.92v9.52l3.87.74v4.34H212.05v-4.34l3.84-.74V80.6l-3.84-.75V75.49h16.21Zm-5.13,15.92h5a6.82,6.82,0,0,0,4.53-1.29,4.62,4.62,0,0,0,1.52-3.72,5.15,5.15,0,0,0-1.5-3.88,6.13,6.13,0,0,0-4.43-1.45h-5.13Z"/><path class="cls-2" d="M276.53,87.66h-5.38l-.74-4.81a7.52,7.52,0,0,0-2.69-1.68,10.57,10.57,0,0,0-3.83-.62A8.49,8.49,0,0,0,256.64,84a14.56,14.56,0,0,0-2.55,8.92v1.27a14.8,14.8,0,0,0,2.53,9,8.35,8.35,0,0,0,7.15,3.45,11.82,11.82,0,0,0,3.9-.62,6.65,6.65,0,0,0,2.74-1.69l.74-4.81h5.38v7.14a15.47,15.47,0,0,1-5.56,4,18.51,18.51,0,0,1-7.58,1.5,15.47,15.47,0,0,1-11.9-5q-4.63-5-4.63-12.92V92.94q0-7.86,4.61-12.91A15.36,15.36,0,0,1,263.39,75,18.2,18.2,0,0,1,271,76.49a16.23,16.23,0,0,1,5.58,4Zm-12.36,23.83-.21,1.08a3.82,3.82,0,0,1,2,1,3,3,0,0,1,.81,2.29,3.78,3.78,0,0,1-1.73,3.24,8.51,8.51,0,0,1-4.92,1.22l-.14-3.06a2.76,2.76,0,0,0,1.54-.38,1.35,1.35,0,0,0,.57-1.19,1.12,1.12,0,0,0-.61-1.09,5.83,5.83,0,0,0-2.08-.41l.58-2.69Z"/><path class="cls-2" d="M294.39,75.49v4.36l-3.87.75V99.44a6.92,6.92,0,0,0,1.92,5.34,7.44,7.44,0,0,0,5.27,1.78A7.65,7.65,0,0,0,303,104.8c1.29-1.18,1.93-3,1.93-5.36V80.6l-3.84-.75V75.49h14.95v4.36l-3.87.75V99.44q0,6.07-4,9.37t-10.5,3.3q-6.48,0-10.45-3.3t-4-9.37V80.6l-3.85-.75V75.49h15Z"/></g><g class="cls-1"><path class="cls-2" d="M29.72,127.63v-4.36h15v4.36l-3.86.75v10.41H55.53V128.38l-3.86-.75v-4.36h15v4.36l-3.87.75v25.9l3.87.75v4.34h-15V155l3.86-.75v-9.91H40.81v9.91l3.86.75v4.34h-15V155l3.85-.75v-25.9Z"/><path class="cls-2" d="M84,123.27v4.36l-3.87.75v18.84A6.92,6.92,0,0,0,82,152.56a7.48,7.48,0,0,0,5.27,1.77,7.6,7.6,0,0,0,5.33-1.76q1.94-1.75,1.93-5.35V128.38l-3.84-.75v-4.36h15v4.36l-3.87.75v18.84q0,6.08-4,9.37t-10.5,3.3q-6.47,0-10.45-3.3t-4-9.37V128.38L69,127.63v-4.36H84Z"/><path class="cls-2" d="M142.61,132.66l-.15,0-9.67,26.73h-4.86l-9.62-26.63-.15,0,.7,15.85v5.67l3.87.75v4.34h-15V155l3.84-.75v-25.9l-3.84-.75v-4.36h13.28l9.2,26.6h.15l9.27-26.6H153v4.36l-3.86.75v25.9L153,155v4.34h-15V155l3.85-.75v-5.67Z"/><path class="cls-2" d="M155.23,155l2.58-.37,11-31.39h7.42l10.91,31.39,2.57.37v4.34H177.4V155l2.5-.45-1.59-5h-11.7l-1.59,5,2.51.45v4.34h-12.3Zm13.09-10.74h8.28l-4.06-12.72h-.15Z"/><path class="cls-2" d="M229,123.27v4.36l-3.87.75v31h-7.22l-14.57-24.3-.15,0v19.19L207,155v4.34h-15V155l3.85-.75v-25.9l-3.85-.75v-4.36h11.09l14.58,24.29.14,0V128.38l-3.86-.75v-4.36H229Z"/><path class="cls-2" d="M231.27,127.63v-4.36h14.95v4.36l-3.86.75v25.9l3.86.75v4.34H231.27V155l3.87-.75v-25.9Z"/><path class="cls-2" d="M280.76,123.27v9.62h-5.55l-.3-4h-6.64v25.43l3.86.75v4.34h-15V155l3.87-.75V128.85h-6.62l-.3,4h-5.53v-9.62Z"/><path class="cls-2" d="M278.28,155l2.58-.37,11-31.39h7.42l10.91,31.39,2.57.37v4.34H300.45V155l2.5-.45-1.58-5H289.66l-1.58,5,2.5.45v4.34h-12.3Zm13.09-10.74h8.28l-4.06-12.72h-.15Z"/><path class="cls-2" d="M315.1,127.63v-4.36h14.95v4.36l-3.87.75v25.9l3.87.75v4.34H315.1V155l3.87-.75v-25.9Z"/><path class="cls-2" d="M349,123.27q6.15,0,9.64,2.81a9.44,9.44,0,0,1,3.5,7.77,7.87,7.87,0,0,1-1.46,4.74,10.31,10.31,0,0,1-4.29,3.25A7.83,7.83,0,0,1,361,145a10,10,0,0,1,1.4,5.45v1.83a3.16,3.16,0,0,0,.47,1.85,2.07,2.07,0,0,0,1.56.78l.89.12v4.37h-3.74c-2.36,0-4-.64-5-1.91a8,8,0,0,1-1.44-4.94v-2.05a5.82,5.82,0,0,0-1.4-4.13,5.39,5.39,0,0,0-4-1.58h-5.92v9.52l3.86.75v4.34H332.8V155l3.85-.75v-25.9l-3.85-.75v-4.36H349Zm-5.13,15.91h5a6.85,6.85,0,0,0,4.54-1.28,4.61,4.61,0,0,0,1.51-3.72,5.14,5.14,0,0,0-1.5-3.88,6.1,6.1,0,0,0-4.42-1.45h-5.13Z"/><path class="cls-2" d="M391,143.5H378.8v10.31h11.65l.32-4.31h5.51v9.87H367.71V155l3.85-.75v-25.9l-3.85-.75v-4.36h28.52v9.89h-5.56l-.32-4.31H378.8v9.07H391Z"/></g><g class="cls-1"><path class="cls-2" d="M70.47,180.44l-.15,0-9.67,26.72H55.79l-9.62-26.62-.15,0,.7,15.84v5.68l3.87.75v4.33h-15v-4.33l3.84-.75V176.15l-3.84-.74v-4.36H48.92l9.2,26.6h.15l9.27-26.6H80.88v4.36l-3.86.74v25.91l3.86.75v4.33H65.93v-4.33l3.85-.75v-5.68Z"/><path class="cls-2" d="M116.46,189.37a19.18,19.18,0,0,1-4.53,13.11,15,15,0,0,1-11.88,5.19,14.9,14.9,0,0,1-11.82-5.19q-4.5-5.17-4.5-13.11v-.55a19.36,19.36,0,0,1,4.49-13.09,14.83,14.83,0,0,1,11.8-5.21,15,15,0,0,1,11.89,5.21,19.15,19.15,0,0,1,4.55,13.09Zm-7.21-.6a16.16,16.16,0,0,0-2.33-9.1,7.75,7.75,0,0,0-6.9-3.49,7.52,7.52,0,0,0-6.8,3.47A16.51,16.51,0,0,0,91,188.77v.6a16.6,16.6,0,0,0,2.27,9.18,7.58,7.58,0,0,0,6.81,3.49,7.7,7.7,0,0,0,6.89-3.49,16.34,16.34,0,0,0,2.31-9.18Z"/><path class="cls-2" d="M156.26,171.05v4.36l-3.87.74v31h-7.22L130.6,182.85l-.15,0v19.19l3.86.75v4.33h-15v-4.33l3.85-.75V176.15l-3.85-.74v-4.36h11.09L145,195.34l.14,0V176.15l-3.86-.74v-4.36h14.95Z"/><path class="cls-2" d="M174.83,171.05a14.89,14.89,0,0,1,10.91,4.22A14.58,14.58,0,0,1,190,186.12v6a14.52,14.52,0,0,1-4.29,10.85,15,15,0,0,1-10.91,4.2H158.59v-4.33l3.84-.75V176.15l-3.84-.74v-4.36h16.24Zm-5.16,5.57v25h4.79a7.5,7.5,0,0,0,6.09-2.63,10.27,10.27,0,0,0,2.21-6.87v-6a10.21,10.21,0,0,0-2.21-6.82,7.53,7.53,0,0,0-6.09-2.63Z"/><path class="cls-2" d="M193.55,175.41v-4.36H208.5v4.36l-3.87.74v25.91l3.87.75v4.33H193.55v-4.33l3.86-.75V176.15Z"/><path class="cls-2" d="M210.88,202.81l2.58-.38,11-31.38h7.41l10.91,31.38,2.58.38v4.33H233v-4.33l2.51-.45-1.59-5h-11.7l-1.59,5,2.5.45v4.33H210.88ZM224,192.07h8.28l-4.07-12.72H228Z"/><path class="cls-2" d="M247.72,207.14v-4.33l3.84-.75V176.15l-3.84-.74v-4.36h15v4.36l-3.87.74v25.44H269l.35-4.54h5.53v10.09Z"/><path class="cls-3" d="M288.71,207.14V203.8l11.83-13.14a33.53,33.53,0,0,0,4.3-5.63,8.89,8.89,0,0,0,1.13-4.27,6.71,6.71,0,0,0-1.59-4.54,5.23,5.23,0,0,0-4.19-1.85c-2.5,0-4.33.63-5.5,1.91a7.64,7.64,0,0,0-1.76,5.4h-4.69l-.05-.15a10.18,10.18,0,0,1,3.09-7.83q3.21-3.18,8.91-3.18a10.6,10.6,0,0,1,7.77,2.84,9.7,9.7,0,0,1,2.89,7.23,11.45,11.45,0,0,1-1.75,5.9,37.75,37.75,0,0,1-4.92,6.37l-9.49,10.34.05.13h12.81l.4-4.14h4.14v7.95Z"/><path class="cls-3" d="M340.33,193.38q0,6.93-3.07,10.6a11.41,11.41,0,0,1-16.81,0q-3.1-3.69-3.1-10.59v-8.55q0-6.89,3.07-10.6a11.38,11.38,0,0,1,16.81,0q3.11,3.71,3.1,10.6Zm-4.88-9.59q0-4.69-1.7-7a5.7,5.7,0,0,0-4.95-2.37,5.61,5.61,0,0,0-4.88,2.37q-1.69,2.35-1.69,7v10.59q0,4.68,1.71,7.07a6.25,6.25,0,0,0,9.83,0q1.68-2.39,1.68-7.09Z"/><path class="cls-3" d="M345.71,207.14V203.8l11.83-13.14a33.53,33.53,0,0,0,4.3-5.63,8.89,8.89,0,0,0,1.13-4.27,6.71,6.71,0,0,0-1.59-4.54,5.23,5.23,0,0,0-4.19-1.85c-2.5,0-4.33.63-5.5,1.91a7.64,7.64,0,0,0-1.76,5.4h-4.69l-.05-.15a10.18,10.18,0,0,1,3.09-7.83q3.21-3.18,8.91-3.18a10.6,10.6,0,0,1,7.77,2.84,9.7,9.7,0,0,1,2.89,7.23,11.45,11.45,0,0,1-1.75,5.9,37.75,37.75,0,0,1-4.92,6.37l-9.49,10.34.05.13h12.81l.4-4.14h4.14v7.95Z"/><path class="cls-3" d="M374.35,204l5.58-.69V176.28l-5.68.1v-3l10.56-2.28v32.28l5.55.69v3.12h-16Z"/></g><path id="Path_878" data-name="Path 878" class="cls-4" d="M188.45,14.7c.8-.6,1.7-1.4,2.8-2.3a9,9,0,0,0,1-.9,2.36,2.36,0,0,0,.6-.9,5,5,0,0,0,.5-1.3l.7-2.1H194a4.63,4.63,0,0,1-1.3,1.8,10.92,10.92,0,0,1-1.7,1.3,12.38,12.38,0,0,0-1.8,1.4,7.33,7.33,0,0,0-1.6,2.3v-.1c.4-1.3.8-2.3,1-3.2s.4-1.6.6-2.3a4.92,4.92,0,0,1,.6-1.7A3.74,3.74,0,0,1,191,5.4h0a5.81,5.81,0,0,0-3.2,2.3,6.59,6.59,0,0,0-1.2,4.1v5.1A8.17,8.17,0,0,1,188.45,14.7Zm3.4-6.2a20,20,0,0,0,1.9-2.2l1.6-2.1c.5-.6,1.1-1.2,1.7-1.8l-.1-.1a5.07,5.07,0,0,1-1.6.9,9.49,9.49,0,0,0-2.1.9,6,6,0,0,0-2.1,2.1,12.81,12.81,0,0,0-1.7,4.2A8.76,8.76,0,0,0,191.85,8.5Zm-8.1,19a16.6,16.6,0,0,0,1.6,2.1,15.1,15.1,0,0,1,1.8,2.6h0a4.87,4.87,0,0,1-.1-1.2V30a10.62,10.62,0,0,1,.4-1.9q.45-1.35.9-3c.3-1.1.6-2.2.8-3.3a10.12,10.12,0,0,0,.2-3h-.1a6.39,6.39,0,0,1-.8,1.9l-1.1,1.9a20,20,0,0,0-1,2.1,6.72,6.72,0,0,0-.4,2.4,5,5,0,0,0,.2,1.2c.1.3.1.6.2.9h-.1a26.27,26.27,0,0,0-.8-3c-.4-1-.7-1.9-1.1-2.7s-.6-1.6-.9-2.3a8.47,8.47,0,0,1-.4-1.7,4.87,4.87,0,0,1,.1-1.2V17.2h-.1c-.2.6-.4,1.2-.6,1.9a9.08,9.08,0,0,0-.3,2.3,13.42,13.42,0,0,0,.4,3.5A10.34,10.34,0,0,0,183.75,27.5ZM197,47.2h.8a4.1,4.1,0,0,0,1.1-.1l1.3-.2c.5-.1,1.2-.3,2.1-.5s2-.5,3.4-.8c-.9-.2-1.7-.5-2.4-.7a6.25,6.25,0,0,1-2-1.3c-.8-.7-1.6-1.5-2.5-2.2-.6-.6-1.3-1.2-2-1.8-.2-.2-1.1-1-1.4-1.3l-.1.1,1,2c.1.1.1.2.2.3.2.4.5.9.7,1.3l.3.5a4.07,4.07,0,0,0,1.2,1.4,7.46,7.46,0,0,0,3.1,1.5h0l-1.6-.2L199,45c-.4,0-.7-.1-1.1-.1a5.7,5.7,0,0,1-1.3-.1c-.4-.1-.7-.1-1-.2l-1-.1a.9.9,0,0,1-.5-.1l-1.8-.3a7.74,7.74,0,0,1-1.6-.7,20.28,20.28,0,0,1-1.8-1.3l-.1.1a7.1,7.1,0,0,0,1,1.4l1.5,1.5a11.25,11.25,0,0,0,2.1,1.2,9.47,9.47,0,0,0,2.9.7l.7.2Zm-11.3-22.8h.1a5,5,0,0,1,.2-1.2,6.12,6.12,0,0,1,.5-1.2,9.91,9.91,0,0,1,1.1-1.7l1.9-2.8a7.56,7.56,0,0,0,1.1-2.6q.45-1.5.6-2.1h-.1l-.3.6a2.65,2.65,0,0,1-.5.6,5.93,5.93,0,0,1-.8.8l-1.3,1.2a8.76,8.76,0,0,0-1.9,2.4,10.88,10.88,0,0,0-.7,2.4h.2a3.75,3.75,0,0,1,.1-1.1,6.38,6.38,0,0,0,0-1.4c0-.7-.1-1.6-.1-2.5s-.1-2.2-.1-3.8a3.53,3.53,0,0,1,.3-1.4,10.41,10.41,0,0,0,.5-1.2h-.1a12.26,12.26,0,0,0-2.1,3.7,12.76,12.76,0,0,0-.6,3.4,12.17,12.17,0,0,0,.7,3.8A24.59,24.59,0,0,1,185.65,24.4Zm7.6,18.8,3,.7,1.6.4a9.51,9.51,0,0,1-1.5-2,7.22,7.22,0,0,1-.9-2c-.3-.8-.7-1.8-1.2-3.2a6.12,6.12,0,0,0-.5-1.2,10.91,10.91,0,0,1-.6-1.1,8.34,8.34,0,0,0-.8-1.2c-.3-.4-.7-1-1.2-1.7l-.1.1c.1.5.4,1.3.6,2.6s.5,2.4.8,3.6a6.71,6.71,0,0,0,1,2.3,13.36,13.36,0,0,0,2,2.1l-.1.1a9.39,9.39,0,0,1-1.8-1.2,14.52,14.52,0,0,0-2.6-1.7,37.51,37.51,0,0,1-4.4-2.4,6.19,6.19,0,0,1-2.4-2.9l-.1.1a9.68,9.68,0,0,0,1.4,3.3,10.41,10.41,0,0,0,2.2,2.5,12.71,12.71,0,0,0,2.7,1.8,12.37,12.37,0,0,0,2.9,1Zm-6.8-7.5,5.3,3.6c-.2-.4-.4-.9-.6-1.4a8.33,8.33,0,0,1-.4-1.5,9,9,0,0,1-.2-1.8c0-.7-.1-1.4-.2-2.4-.2-1.6-.4-2.8-.5-3.7a12.9,12.9,0,0,0-.8-2.8H189a14.77,14.77,0,0,1-.1,2.1c-.1.5-.2,1.1-.3,1.6s-.2.9-.3,1.4a6.6,6.6,0,0,0-.1,1.4,5.37,5.37,0,0,0,.5,2.1,18.94,18.94,0,0,0,.9,2.1l-.1.1a19.1,19.1,0,0,0-2.4-3.2c-.8-.8-1.5-1.6-2.2-2.3a12,12,0,0,1-1.7-2.1,5.81,5.81,0,0,1-.9-2.5,1.7,1.7,0,0,0-.1.7c0,.2-.1.5-.1.7a10.05,10.05,0,0,0,.4,2.5,12.81,12.81,0,0,0,1.1,2.4,9,9,0,0,0,1.5,1.9,5.26,5.26,0,0,0,1.4,1.1Zm44.1-31.4,1.6,2.1a20,20,0,0,0,1.9,2.2,12.21,12.21,0,0,0,2.5,2,12.81,12.81,0,0,0-1.7-4.2,10.45,10.45,0,0,0-2.1-2.1,6.81,6.81,0,0,0-2.1-1,4.17,4.17,0,0,1-1.6-.9l-.1.1a14.54,14.54,0,0,1,1.6,1.8Zm4.8,39.2a11.11,11.11,0,0,1-1.6.7,11.27,11.27,0,0,1-1.8.3l-.5.1-1,.1a3,3,0,0,0-1,.2,5.28,5.28,0,0,1-1.3.1c-.4,0-.7.1-1.1.1l-1.2.2-1.6.2h0a8.92,8.92,0,0,0,3.1-1.5,4.43,4.43,0,0,0,1.2-1.5c.1-.2.2-.3.3-.5.2-.4.5-.9.7-1.3l.2-.3,1-2-.1-.1c-.3.3-1.2,1.1-1.4,1.3-.6.6-1.3,1.2-2,1.8a26.22,26.22,0,0,1-2.5,2.2,5.33,5.33,0,0,1-2,1.3c-.7.2-1.5.5-2.4.7l3.4.8c.9.2,1.5.4,2.1.5a8.32,8.32,0,0,0,1.3.2,4.1,4.1,0,0,0,1.1.1h.8l.7-.1a15.29,15.29,0,0,0,2.9-.7,5.71,5.71,0,0,0,2.1-1.3,5.36,5.36,0,0,0,1.5-1.5,7.1,7.1,0,0,0,1-1.4l-.1-.1a11,11,0,0,1-1.8,1.4Zm4-6.1a36.23,36.23,0,0,1-4.3,2.4,14.52,14.52,0,0,0-2.6,1.7,5.67,5.67,0,0,1-1.8,1.2l-.1-.1a19.85,19.85,0,0,0,2-2.1,6.71,6.71,0,0,0,1-2.3c.2-1.1.5-2.3.8-3.6s.5-2.1.6-2.6l-.1-.1-1.2,1.7c-.3.5-.6.9-.8,1.2a10.91,10.91,0,0,0-.6,1.1c-.2.4-.3.8-.5,1.2-.5,1.3-.9,2.4-1.2,3.2a12.44,12.44,0,0,1-1,2,14.91,14.91,0,0,1-1.5,2l1.6-.4,3-.7a10,10,0,0,0,2.9-1,12.71,12.71,0,0,0,2.7-1.8,13.15,13.15,0,0,0,2.2-2.5,12.15,12.15,0,0,0,1.4-3.3v-.1a7.06,7.06,0,0,1-2.5,2.9Zm2.2-13.9c-.4.8-.7,1.7-1.1,2.7a16.66,16.66,0,0,0-.8,3h-.1a2.92,2.92,0,0,1,.2-.9,5,5,0,0,0,.2-1.2,6.37,6.37,0,0,0-.4-2.4,20,20,0,0,0-1-2.1l-1.1-1.9a6.39,6.39,0,0,1-.8-1.9h-.1a10.12,10.12,0,0,0,.2,3c.2,1.1.5,2.2.8,3.3s.6,2.1.9,3a6.46,6.46,0,0,1,.4,1.9v1a4.87,4.87,0,0,1-.1,1.2h0a15.1,15.1,0,0,1,1.8-2.6c.6-.7,1.1-1.4,1.6-2.1a8.56,8.56,0,0,0,1.1-2.4,11.07,11.07,0,0,0,.4-3.6,5.87,5.87,0,0,0-.4-2.3c-.2-.6-.4-1.3-.6-1.9h.1v1.1c0,.4.1.8.1,1.2a3.53,3.53,0,0,1-.4,1.7,17.12,17.12,0,0,1-.9,2.2Zm-2.2-5.1a7.21,7.21,0,0,0-1.9-2.4l-1.2-1.2a6,6,0,0,1-.8-.8,3.17,3.17,0,0,0-.5-.6l-.3-.6h-.1q.15.6.6,2.1a18.89,18.89,0,0,0,1.1,2.5l1.9,2.8a16.29,16.29,0,0,1,1.1,1.7,6.12,6.12,0,0,1,.5,1.2,5,5,0,0,1,.2,1.2h.1a20.44,20.44,0,0,1,1.3-4.2,9.86,9.86,0,0,0,.7-3.8,10.16,10.16,0,0,0-.6-3.4,13.59,13.59,0,0,0-2.1-3.7h-.1a6.12,6.12,0,0,0,.5,1.2,3.19,3.19,0,0,1,.3,1.4c0,1.6,0,2.8-.1,3.8a20.9,20.9,0,0,0-.1,2.5v1.4a4.1,4.1,0,0,0,.1,1.1h-.1a4.93,4.93,0,0,0-.5-2.2Zm-3.2-11.6a4.92,4.92,0,0,1,.6,1.7c.2.7.4,1.4.6,2.3s.6,1.9,1,3.2v.1a7.64,7.64,0,0,0-1.7-2.3l-1.8-1.5a19.23,19.23,0,0,1-1.7-1.3,4.63,4.63,0,0,1-1.3-1.8h-.1l.7,2.1a6.94,6.94,0,0,0,.5,1.3,5.5,5.5,0,0,0,.7.9,7.53,7.53,0,0,1,.9.9c1.1.9,2,1.7,2.8,2.3a6.74,6.74,0,0,1,1.9,2.2V11.8a7.3,7.3,0,0,0-1.2-4.1,5.37,5.37,0,0,0-3.2-2.3v.1a4,4,0,0,1,1.3,1.3Zm-8.4,41.8a4.87,4.87,0,0,1-1.2-.1c-.4-.1-.8-.2-1.3-.3h0l-1.5-.5c-.6-.2-1.2-.4-2-.7l-3.1-1.1a7.79,7.79,0,0,0-2.1-.4,14.92,14.92,0,0,0-2.1.2c-.7.2-1.2.3-1.6.4-.3-.1-.8-.2-1.5-.4a7.49,7.49,0,0,0-2.1-.2,5.22,5.22,0,0,0-2.1.4l-3.1,1.1a36.81,36.81,0,0,1-3.6,1.2,10,10,0,0,1-2.4.4,3.4,3.4,0,0,1-1-.1,2.92,2.92,0,0,1-.9-.2,8.2,8.2,0,0,1-1.1-.4l-1.4-.6-.1.1a12.84,12.84,0,0,0,2.6,2,9.31,9.31,0,0,0,4,1.2,9.15,9.15,0,0,0,1.6-.1,7.37,7.37,0,0,0,1.4-.4,10.09,10.09,0,0,0,1.5-.7c.5-.3,1.2-.7,2-1.2s1.5-1,2.1-1.3a4.49,4.49,0,0,1,1.9-.5,2.92,2.92,0,0,1,.9.2c-1,.5-2.1,1.2-3.3,1.9a16.89,16.89,0,0,0-3.6,3l1.2,1.1a29.77,29.77,0,0,1,3.6-3.5,11.55,11.55,0,0,1,3.3-2.1,12,12,0,0,1,3.4,2.1,23.77,23.77,0,0,1,3.6,3.5l1.2-1.1a16.89,16.89,0,0,0-3.6-3c-1.3-.8-2.4-1.4-3.3-1.9.3-.1.6-.1.9-.2a3.2,3.2,0,0,1,1.9.5,20.61,20.61,0,0,1,2.1,1.3l1.9,1.1a10.09,10.09,0,0,0,1.5.7,5.73,5.73,0,0,0,1.4.4,6.75,6.75,0,0,0,1.4.2h.3a9.28,9.28,0,0,0,3.3-.7,7.75,7.75,0,0,0,3.2-2.4v-.1a24.43,24.43,0,0,1-2.4,1,3.46,3.46,0,0,1-1.8.2Zm16.1-21v-.5c0-.2-.1-.5-.1-.7a5.38,5.38,0,0,1-.9,2.5c-.5.7-1.1,1.4-1.7,2.1l-.1.1c-.6.7-1.3,1.4-2.1,2.2a19.1,19.1,0,0,0-2.4,3.2h0l.9-2.1a7.79,7.79,0,0,0,.4-2.1,6.15,6.15,0,0,0-.1-1.4c-.1-.4-.2-.9-.3-1.3a7,7,0,0,1-.2-1.6,14.77,14.77,0,0,1-.1-2.1H237c-.3.9-.6,1.9-.8,2.8s-.3,2.1-.5,3.7a23.2,23.2,0,0,0-.2,2.4,9.91,9.91,0,0,1-.2,1.8,8.33,8.33,0,0,1-.4,1.5,6.12,6.12,0,0,1-.5,1.2l-.1.2h0l1.8-1.2,3.6-2.4a8.64,8.64,0,0,0,1.4-1.3,13.3,13.3,0,0,0,1.4-1.9,9.14,9.14,0,0,0,.7-1.4c.1-.3.3-.6.4-.9a6.9,6.9,0,0,0,.4-2.5h0l-.1-.3ZM222.75,6.2c.1.1.3.1.4.2s.2.2.2.3l.2.2c.1,0,.2,0,.2-.2V6.5c0-.2,0-.3-.1-.4a.73.73,0,0,0-.6-.2l-.1-.1h-.2c-.1,0-.2,0-.2.2A.22.22,0,0,0,222.75,6.2Zm-7.7-1.8h.1a2.92,2.92,0,0,1,.9-.2h1a.52.52,0,0,0,.4-.2c.1-.1.2-.2.2-.3a1.05,1.05,0,0,0-.9-.5c-.2,0-.5-.1-.7-.1l-.9.3-.9.3c-.2,0-.4,0-.4.2s.3.2.4.3a1.2,1.2,0,0,0,.8.2Zm-2.2,39.8A21.9,21.9,0,1,0,191,22.3a21.89,21.89,0,0,0,21.9,21.9Zm-20.8-21.3h3.3a15.47,15.47,0,0,0,.7,4.3.22.22,0,0,1-.2-.2l-.1-.1-.4-.5-.6.2c0,.3-.1.5-.4.4a.37.37,0,0,0-.3-.1c-.4,0-.7.2-.7.6h0a2.49,2.49,0,0,0-.1.8l.5,1.3c.1.1.2.2.4.1.1.2.3.3.4.5s.2.2.4.1a.22.22,0,0,0,.2-.2h.1l.3.3a1.38,1.38,0,0,0,.4.3v-.1a.86.86,0,0,0,.6.3,2,2,0,0,0,.4.8.71.71,0,0,0,.6.3c.1,0,.2-.1.3-.1a1.61,1.61,0,0,0,.4.7l.4.2c.1.1.2.1.3.2h.1a2.09,2.09,0,0,0,.4.6l.4.4h.1l.1.2-2.3,2.4a20.65,20.65,0,0,1-5.7-13.7Zm16-6.2-.2-.1-.2-.2a7.87,7.87,0,0,1,4.6-1.9v2.3h-.1v-.1h-.7a.37.37,0,0,1-.1-.3h0q-.3.15-.3.3c0,.2-.1.3-.1.5a.78.78,0,0,1-.4.4.52.52,0,0,0-.4.2l-.2-.1h-.4l-.2-.2a.1.1,0,0,1-.1-.1h-.1a.22.22,0,0,0-.2.2l-.2-.2h.1v-.1a4.17,4.17,0,0,0-.8-.6Zm-1.2-1.1-2.2-2.2a12.67,12.67,0,0,1,7.6-3.2v3.2a9,9,0,0,0-5.4,2.2Zm1.3,10.5a.75.75,0,0,0,.1-.5l-.2.2a1.76,1.76,0,0,0,.4-.5c.1-.1.1-.3.2-.4h0c.1.2.2.3.3.5l-2,2a8,8,0,0,1-1.7-3.3c.2,0,.3.1.5.1s.3.3.5.4a.37.37,0,0,0,.3-.1l.3.2a.6.6,0,0,0,.1.4l.2.2c.1.1.2.1.3.3l.1-.1V25l.1.5.1.6h0c.2.1.3.1.4,0Zm4.4,2.4.2.2a.88.88,0,0,1-.6.2c-.1,0-.2.1-.3.4a2,2,0,0,0-.1.7h-.1a8.22,8.22,0,0,1-3.9-1.8l2-2a4.74,4.74,0,0,0,2.7,1.2.37.37,0,0,0,.1.3c-.1.1-.2.2-.1.4-.1.1-.1.2.1.4Zm-9.8.1c0-.4-.1-.8-.1-1.2a6.37,6.37,0,0,1-.2-.7,3.55,3.55,0,0,0-.2-1,5.5,5.5,0,0,0-.7-.9v-.4c0-.1-.1-.3-.1-.4v-.1c0-.1,0-.2.1-.2l.8-.3a1.7,1.7,0,0,1,.1-.7l.5.1c.1,0,.2-.1.2-.3s-.1-.3-.1-.5a.9.9,0,0,1-.1-.5c0-.1.1-.2.2-.3a.6.6,0,0,1,.4-.1.76.76,0,0,1,.5.2.9.9,0,0,1,.1.5v.7l.1.1c-.1.5-.3.7-.6.7-.1,0-.3-.1-.3-.2a.22.22,0,0,0-.2-.2h-.1a.37.37,0,0,0,.1.3c.1.1.1.2.1.4s-.1.5-.5.4q-.15.3.3.3c.1.3.2.4.3.4a.9.9,0,0,0,.1-.5c0-.2.1-.4.1-.6l.1.1.3-.1v.1h.1a8.7,8.7,0,0,0,2.1,4.3l-3.1,3.1a.76.76,0,0,1-.2-.5c.1-.3.4-.5.4-.8l.1-.6c-.3,0-.4-.3-.6-.6ZM201,24c0,.1.1.2.1.3a.35.35,0,0,1-.1.2h-.1a8.75,8.75,0,0,1-.2-1.6h.6a.37.37,0,0,1-.1.3c-.1.1-.1.2-.2.3a.37.37,0,0,0-.1.3c.1,0,.1.1.1.2Zm-.2-2.2a11.58,11.58,0,0,1,3.2-7.6l2.2,2.2-.1.1c-.1,0-.3.1-.4.1s-.2.3-.3.4a2.51,2.51,0,0,0-.7.4l-.6.6a1.63,1.63,0,0,0-.6.3.22.22,0,0,0-.2.2c.1.2.1.4,0,.4l-.7.2c-.1,0-.1,0-.1.1l-.2.2c0,.1-.1.2-.1.3s0,.2-.1.2-.3.2-.4.4a.85.85,0,0,0,0,.7l.1.7h0c0,.1.1.1.1.2ZM207,29a8.1,8.1,0,0,0,3.9,2c-.1,0-.2.1-.3.1s-.4.2-.4.5a.55.55,0,0,1-.3.5c-.2.1-.2.2-.2.3a1.93,1.93,0,0,1,.5.9,1.21,1.21,0,0,0,.7.7l.4.1a.52.52,0,0,1,.4.2l.4.1a12.89,12.89,0,0,1-7.4-3.1Zm-3-16.4-2.2-2.2A16.29,16.29,0,0,1,212.35,6V9.1a12.32,12.32,0,0,0-8.4,3.5Zm-.8.8a13.22,13.22,0,0,0-3.5,8.4h-3.1A16.08,16.08,0,0,1,201,11.2Zm-3.5,9.5a8.6,8.6,0,0,0,.1,1.6c0-.1-.1-.1-.1-.2-.2-.2-.3-.4-.4-.4s-.3.1-.3.2-.1.2-.2.3a2,2,0,0,1-.8.4,1.8,1.8,0,0,0-.4.9.19.19,0,0,0,0,.3c.1.1,0,.2-.1.3a.76.76,0,0,1,.1.4v.1h-.2c0,.1-.1.1-.1.2a18.51,18.51,0,0,1-.7-4.1Zm12.6,20.2a21.1,21.1,0,0,1-13.8-5.7l2.4-2.4a17.21,17.21,0,0,0,11.4,4.7v3.4Zm0-4.4a15.83,15.83,0,0,1-10.5-4.4,1,1,0,0,0,1.2,0l.6-.3a1,1,0,0,0,.7-.2h.5c.2,0,.3-.2.3-.4s-.1-.3-.3-.4-.3-.2-.3-.3,0-.1-.1-.2l-.5-.5h0a13.22,13.22,0,0,0,8.4,3.5Zm.6-8.2h0a1.7,1.7,0,0,1-.7-.1c0-.1,0-.1-.1-.2.1-.1.2-.2.3-.2a.76.76,0,0,1,.4-.2v-.2l.5-.4c.1,0,.1-.1.2-.1s.3-.1.4-.1.4.1.6.3a1.42,1.42,0,0,0,.6.2l.1-.3c.1,0,.2.1.4.3.1,0,.3-.1.4-.1V29c.1,0,.1,0,.2.1h.3a.76.76,0,0,0,.4-.2c.1-.1.3-.2.4-.3h.1a.37.37,0,0,1,.1.3,1.15,1.15,0,0,1-.6.9,3.58,3.58,0,0,1-1.1.4c-.1.1-.1.2-.2.3s-.1.3-.2.3c-.3,0-.6-.1-.9-.1a.76.76,0,0,1-.2-.4.75.75,0,0,0-.5.1l-.6.1Zm3.2-2.4a.66.66,0,0,1,.4-.5,1.27,1.27,0,0,1,.6-.1c0,.1-.1.3-.4.4a1.42,1.42,0,0,1-.6.2Zm2.2-1.8a.55.55,0,0,1,.3.5c0,.1-.1.3-.2.3h-.1c-.1,0-.3-.2-.4-.5a1,1,0,0,1-.6-.5c-.1-.2,0-.4.1-.4s.2-.1.3-.1.1.1.1.3Zm7-12.2c.1,0,.1,0,.1.1a4.33,4.33,0,0,1,.5.1,10.63,10.63,0,0,1,.9,1.1l.2.2.2.2c.1,0,.3-.1.4-.1s0-.1.1-.2a17.08,17.08,0,0,1,1.5,6.2h-3.1v-.1a1.08,1.08,0,0,0-.2-.8,1.38,1.38,0,0,1-.1-1.1.64.64,0,0,0,0-.6.37.37,0,0,0-.3.1c-.1.1-.1.2-.2.3s-.1.3-.2.4h0a.1.1,0,0,1-.1.1c0,.1,0,.1-.1.2l-.1.6v.6h0v.2h-1.6a.76.76,0,0,1,.5-.2h0l.4-.2c-.1,0-.1-.1-.1-.2s0-.2.1-.2l.4-.2a1.61,1.61,0,0,0,.4-.7,3.51,3.51,0,0,0,.6-1.4.76.76,0,0,0-.2-.4v-.3c0-.5.2-1.4-.4-1.6-.1,0-.1-.1-.1-.2.2-.1.2-.4.1-.6h-.5a.35.35,0,0,1,.1-.2.37.37,0,0,0,.1-.3.22.22,0,0,0-.2-.2h-.1a.6.6,0,0,0-.4.1c-.1,0-.1.1-.2.1h.1l-.1-.1a.91.91,0,0,0-.3-.7,2.09,2.09,0,0,0-.6-.4h0v-.3l.6-.6.9.3a.76.76,0,0,0,.2.5c.1.1.2.2.3.2a1.38,1.38,0,0,0,.4.3h0c.1-.1.2,0,.1,0Zm-3,21.2c-.1-.1-.1-.1-.2-.1s-.1,0-.1-.1.1-.2.2-.3a1,1,0,0,0,.4-.5.6.6,0,0,0,.1-.4c0-.1,0-.2-.1-.2s-.2-.1-.3-.2-.2-.1-.3-.1-.3-.1-.4-.2a.52.52,0,0,1-.2-.4c0-.1.1-.2.1-.4l.1-.2.2-.1,1.7,1.7a.27.27,0,0,0,.3.3l.2.2a13.93,13.93,0,0,1-1.9,1.5c0-.1.1-.1.1-.2l.1-.1v-.2Zm-1-8a.6.6,0,0,0-.4.1c-.2.1-.4.2-.4.4v.1h0a.37.37,0,0,0-.3.1c-.1,0-.2.1-.4.1s-.2,0-.2-.1.2-.2.6-.3l.4-.4a.37.37,0,0,1,.3-.1,2.65,2.65,0,0,0,.6-.5,2.19,2.19,0,0,0,.3-.5h.1c0,.2.1.4.3.4s.3-.2.4-.5a1.27,1.27,0,0,0,.6.1.55.55,0,0,0,.5-.3h.9v.2h0a12.62,12.62,0,0,1-2.4,4.4v-.2a4.88,4.88,0,0,1-.3-.7c-.1,0-.2.2-.4.5s-.2.6-.3.6l-.7.1c-.2,0-.4.1-.7.1a1.42,1.42,0,0,1-.6-.2l-.6-.3a1.27,1.27,0,0,0-.6-.1c-.3,0-.4-.1-.4-.2s.1-.2.3-.2a1.27,1.27,0,0,1,.6.1l.9.2c.3.1.6.1.8.2s.3.1.4.1l.4-.1c0-.1.1-.3.1-.4a.6.6,0,0,0,.1-.4c.1-.3.2-.5.3-.8a2.77,2.77,0,0,0,.1-.9c0-.2-.1-.4-.2-.4Zm2-4.4H225a7.61,7.61,0,0,1-.3,2.1c-.1-.2-.2-.5-.4-.6l-.6-.6c0-.2-.1-.3-.1-.5s-.1-.1-.1-.2l-.2-.2Zm.7,8.9c-.1,0-.2,0-.2.1a.9.9,0,0,1-.1.5l-1.1-1.1a13.23,13.23,0,0,0,3.1-5.7h.1a.45.45,0,0,0,.5,0c.1-.1.1-.1.1-.2s-.1-.3-.4-.6h-.1a12.25,12.25,0,0,0,.2-1.9h3.1a15.88,15.88,0,0,1-4.4,10.6l-.1-.1h0a3.55,3.55,0,0,0-.2-1c-.1-.3-.3-.6-.5-.6Zm-.8-15.8h0a.6.6,0,0,1-.1.4c0,.1-.1.2-.1.4a2.65,2.65,0,0,0,.6.5c.2.2.4.3.6.5s.3.5.3.8.1.5.2.8a.76.76,0,0,1-.2.5.67.67,0,0,1-.7.4l-.1-.1c0-.2.1-.3.1-.4a.6.6,0,0,0,.1-.4.54.54,0,0,0,.3-.4l-.2-.1c-.1-.1-.3-.2-.4-.3s-.1-.2-.4-.2a.6.6,0,0,0-.4.1l-.4.2-.1-.3c0-.1.1-.2.1-.3l-.6-1a2.35,2.35,0,0,0-.8-.2h-1.2a.73.73,0,0,0-.6.2c-.2.1-.3.3-.5.5s0,.2-.2.2l-.2-.2,3.3-3.3.1.1.3.3.3.4a2,2,0,0,1,.9.9Zm-7.9,21.8a4.05,4.05,0,0,0,.9.5,12.65,12.65,0,0,1-2.8.3V35.5h0a1.21,1.21,0,0,0,.5.5,1.27,1.27,0,0,0,.6.1c.3,0,.5.1.5.2a.37.37,0,0,1-.1.3.37.37,0,0,0-.1.3,1.05,1.05,0,0,0,.5.9Zm-1.9,5.3V39.8a14.87,14.87,0,0,0,3.6-.5v.2a2.34,2.34,0,0,1,.7.7c.1.2.4.3.8.3a.55.55,0,0,0,.5-.2c.1-.1.2-.2.2-.3a.52.52,0,0,1,.4-.2c.1,0,.2-.1.3-.2a1,1,0,0,0,.5-.4c.2-.2.4-.4.4-.6.1,0,.2-.1.3-.2a6.89,6.89,0,0,0,.3-.8l.1-.1v-.1a18.6,18.6,0,0,0,3.2-2.3l2.4,2.4a21,21,0,0,1-13.7,5.6Zm14.5-6.5-2.4-2.4a17.21,17.21,0,0,0,4.7-11.4h3.3a19.69,19.69,0,0,1-5.6,13.8Zm5.8-14.9h-3.3A17,17,0,0,0,227,12c0-.1-.1-.2-.2-.3l-.2-.2a9,9,0,0,0-.9-1,.35.35,0,0,0-.1-.2l2.3-2.3a20.75,20.75,0,0,1,5.8,13.7ZM213.35,1.5a21.1,21.1,0,0,1,13.8,5.7l-2,2c0-.1-.1-.2-.1-.3s-.2-.2-.3-.2a.55.55,0,0,1-.3-.5c0-.2-.1-.3-.2-.5a1.21,1.21,0,0,1-.7-.7c-.2-.3-.4-.5-.6-.5a.45.45,0,0,1-.5,0,1.3,1.3,0,0,0-1,0c-.2.1-.4.1-.6.2l-.1.1a17.45,17.45,0,0,0-7.1-1.9c.2-.3.2-.5.1-.6s-.1,0-.3.2Zm0,4.4a17.49,17.49,0,0,1,6.8,1.7v.1l.3.3c.1.1.2.2.2.3s.1.4.2.6.1.2.2.4a.66.66,0,0,0,.1.6c.1.2.3.4.4.6h.7c.1,0,.2.1.3.2a.76.76,0,0,1,.2.4c0,.1,0,.2.1.2l-.9.9h0a5.64,5.64,0,0,0-.4-1.2,1.42,1.42,0,0,0-.6-.2c0-.1-.2-.3-.5-.6s-.4-.6-.5-.6-.2,0-.2.1.1.2.1.3.1.2.3.5c0,.1,0,.1-.1.1h0c0,.2.2.3.4.4l-.1.1.2.4a13.3,13.3,0,0,0-7.2-2.5Zm0,4.3a11.58,11.58,0,0,1,7.6,3.2l-2.2,2.3a9,9,0,0,0-5.4-2.2V10.2Zm0,4.3a8,8,0,0,1,4.4,1.7c-.1,0-.1,0-.1.1l-.1.1a.35.35,0,0,0-.1.2c0,.1.2.2.3.2l-.9.9h0c-.1.1-.2.1-.3.2s-.3.2-.3.3a.35.35,0,0,1-.1.2l-.3.3h-.1c-.1,0-.2-.1-.4-.3s-.3-.3-.4-.3-.3,0-.3.1a.19.19,0,0,1-.3,0q-.15-.15.3-.3l.6-.3a1.43,1.43,0,0,0,.6-1.2c0-.2-.1-.4-.3-.4l-.2.2a1,1,0,0,0-.5.4l-.4.4a.6.6,0,0,0-.4-.1h-.4Zm-.6,5a.1.1,0,0,0,.1.1.76.76,0,0,1,.4.1.3.3,0,0,0,.4,0c0,.1,0,.1.1.1s.2.2.3.1l.1.1v.1l.1.3h0v.1h.4v.2h0v.6h.1v.1a.76.76,0,0,0-.2.4c0,.1.1.1.2.1a.37.37,0,0,1,.3.1.76.76,0,0,1,.2.4V23c0,.1,0,.2.1.2a.1.1,0,0,1,.1.1.75.75,0,0,1-.1.5c0,.2-.1.3-.2.5h-.4a4.33,4.33,0,0,1-.5-.1c-.1,0-.2.1-.3.4a1.42,1.42,0,0,0-.2.6q-.15.3-.3.3h-.4l-.2.4-.1.1a3.72,3.72,0,0,1-2.2-1l.4-.4a1.85,1.85,0,0,0,.7-.2h.1c.4-.2.4-.5.6-.8s.5-.5.2-.7c.3-.6-1.2-.6-1.5-.5s-.1.5-.3.7-.2.1-.4.2a5.55,5.55,0,0,0-.6.8h0a1.42,1.42,0,0,1-.2-.6h.1v-.1h.1v.1h.4c.1,0,.1-.3.1-.4a3.55,3.55,0,0,1,.4-.9c-.1,0-.1-.1-.2-.2s-.1-.1-.2-.1-.1.1-.1.2-.1.2-.1.3a.37.37,0,0,1-.3.1.22.22,0,0,0-.2-.2h-.1c-.1,0-.2.1-.3.1a1.7,1.7,0,0,0-.7.1h-.7c-.1-.1,0-.2.4-.3a1.09,1.09,0,0,1,.4-.9.6.6,0,0,0,.4.1l.1-.1h.1c.1,0,.2.1.3.4s.1.4.2.4.1,0,.2-.1v-.4c.1-.4.2-.7.2-.8v-.2c.1-.1.1-.3.2-.4h.1c.1-.1.2-.1.3-.2a.75.75,0,0,0,.1-.5l.8-.3c.4-.1.6-.3.6-.5h0l.5-.1C212.65,19.4,212.65,19.5,212.75,19.5Zm-.5-18V4.8a17.21,17.21,0,0,0-11.4,4.7l-2.4-2.4a21.51,21.51,0,0,1,13.8-5.6ZM197.75,8l2.4,2.4a17.21,17.21,0,0,0-4.7,11.4h-3.3A20.13,20.13,0,0,1,197.75,8Z"/></svg>
