<svg id="Layer_1" data-name="Layer 1" xmlns="http://www.w3.org/2000/svg" viewBox="0 0 426 208"><defs><style>.cls-1{isolation:isolate}.cls-2{fill:#1c344a}.cls-3{fill:#5190cd}</style></defs><g class="cls-1"><path class="cls-2" d="M143.25 110.8A15.5 15.5 0 01138 114a22 22 0 01-8.7 1.4 16.05 16.05 0 01-12.2-5c-3.1-3.3-4.7-7.7-4.7-13v-1.3c0-5.5 1.5-10 4.6-13.5a15.32 15.32 0 0112.1-5.2 22.2 22.2 0 017.9 1.4 18 18 0 016 3.7v7.4h-5.5l-1-5a8.56 8.56 0 00-2.7-1.4 14.57 14.57 0 00-3.8-.5 8.85 8.85 0 00-7.5 3.6 15.2 15.2 0 00-2.7 9.4v1.3c0 3.8.9 6.8 2.6 9a9.29 9.29 0 007.6 3.4 11.91 11.91 0 003.6-.4 9.12 9.12 0 002.2-.9v-6.3l-5.3-.4v-5.2h12.7v14.3zM147 115v-4.5l3.9-.8V83.2l-3.9-.7V78h15.3v4.5l-4 .8v26.1h10.4l.4-4.6h5.7v10.3H147zM210.65 96.8c0 5.4-1.5 9.9-4.6 13.4a15.6 15.6 0 01-12.2 5.3 15.4 15.4 0 01-12.1-5.3c-3.1-3.5-4.6-8-4.6-13.4v-.6c0-5.4 1.5-9.9 4.6-13.4a15.08 15.08 0 0112.1-5.3 15.6 15.6 0 0112.2 5.3 19.73 19.73 0 014.7 13.4v.6zm-7.4-.7a16.46 16.46 0 00-2.4-9.3 8.7 8.7 0 00-14.1 0 17.31 17.31 0 00-2.3 9.3v.6a17.43 17.43 0 002.3 9.4 7.74 7.74 0 007 3.6 8 8 0 007.1-3.6 16.58 16.58 0 002.4-9.4zM230.05 78c4.3 0 7.7.8 10.2 2.5s3.7 4.2 3.7 7.6a8.3 8.3 0 01-1.4 4.6 7.4 7.4 0 01-3.9 3 8.21 8.21 0 015 3 9.13 9.13 0 011.7 5.4c0 3.5-1.2 6.2-3.5 8s-5.6 2.7-9.9 2.7h-18.2v-4.3l3.9-.8V83.2l-3.9-.8v-4.5h16.3zM225 93.5h5.3a7.63 7.63 0 004.6-1.2 4.13 4.13 0 001.6-3.6 4.39 4.39 0 00-1.6-3.8 8.1 8.1 0 00-4.8-1.2H225zm0 5.1v10.7h6.8a6.54 6.54 0 004.5-1.3 4.76 4.76 0 001.5-3.8 6 6 0 00-1.3-4.2c-.9-1-2.3-1.4-4.2-1.4zM247.55 110.5l2.6-.4 11.2-32.1H269l11.2 32.1 2.6.4v4.4h-12.6v-4.4l2.6-.5-1.6-5.1h-12l-1.6 5.1 2.6.5v4.4h-12.6v-4.4zm13.4-11h8.5l-4.2-13h-.2zM285.35 115v-4.5l3.9-.8V83.2l-3.9-.8v-4.5h15.3v4.6l-4 .8v26.1h10.4l.4-4.6h5.7v10.3h-27.8z"/></g><g class="cls-1"><path class="cls-2" d="M2.35 128.5V124h15.3v4.5l-4 .8V140h15.1v-10.7l-4-.8V124h15.4v4.5l-4 .8v26.5l4 .8v4.4h-15.3v-4.5l4-.8v-10.2h-15.1v10.2l4 .8v4.4H2.35v-4.4l3.9-.8v-26.5zM58 124v4.5l-4 .8v19.2a7.25 7.25 0 002 5.5 7.66 7.66 0 005.4 1.8 8.1 8.1 0 005.5-1.8c1.4-1.2 2-3 2-5.5v-19.3l-3.9-.8v-4.5h15.3v4.5l-4 .8v19.3a12 12 0 01-4.1 9.6c-2.7 2.3-6.3 3.4-10.8 3.4s-8-1.1-10.7-3.4a12 12 0 01-4.1-9.6v-19.3l-3.9-.8v-4.5H58zM118 133.6h-.2l-9.9 27.4h-5L93 133.7h-.2l.7 16.2v5.8l4 .8v4.4H82.35v-4.4l3.9-.8v-26.5l-3.9-.8v-4.5H96l9.4 27.2h.2l9.5-27.2h13.7v4.5l-4 .8v26.5l4 .8v4.4h-15.3v-4.4l3.9-.8v-5.8zM130.85 156.5l2.6-.4 11.2-32.1h7.6l11.2 32.1 2.6.4v4.4h-12.6v-4.4l2.6-.5-1.6-5.1h-12l-1.6 5.1 2.6.5v4.4h-12.6zm13.5-11h8.5l-4.2-13h-.2zM206.45 124v4.5l-4 .8V161h-7.4l-14.9-24.9H180v19.7l4 .8v4.4h-15.3v-4.5l3.9-.8v-26.5l-3.9-.8v-4.5H180l14.9 24.9h.2v-19.6l-4-.8v-4.5h15.4zM208.75 128.5V124h15.3v4.5l-4 .8v26.5l4 .8v4.4h-15.3v-4.5l4-.8v-26.5zM259.45 124v9.9h-5.7l-.3-4.1h-6.8v26.1l4 .8v4.4h-15.3v-4.6l4-.8v-26.1h-6.8l-.3 4.1h-5.7v-9.9h32.9zM257 156.5l2.6-.4 11.2-32.1h7.6l11.2 32.1 2.6.4v4.4h-12.6v-4.4l2.6-.5-1.6-5.1h-12L267 156l2.6.5v4.4H257zm13.4-11h8.5l-4.2-13h-.2zM311.25 124c4.2 0 7.5 1 9.9 2.9a9.67 9.67 0 013.6 8 7.64 7.64 0 01-1.5 4.8 10.87 10.87 0 01-4.4 3.3 7.54 7.54 0 014.7 3.2 10.81 10.81 0 011.4 5.6v1.9a3.56 3.56 0 00.5 1.9 2.08 2.08 0 001.6.8l.9.1v4.5h-3.8c-2.4 0-4.1-.7-5.1-2a8.14 8.14 0 01-1.5-5.1v-2.1a6.07 6.07 0 00-1.4-4.2 5.26 5.26 0 00-4-1.6H306v9.8l4 .8v4.4h-15.3v-4.5l3.9-.8v-26.5l-3.9-.8v-4.5h16.6zM306 140.3h5.1c2.1 0 3.6-.4 4.6-1.3a4.76 4.76 0 001.5-3.8 5.35 5.35 0 00-1.5-4 6.11 6.11 0 00-4.5-1.5H306zM330.35 128.5V124h15.3v4.5l-4 .8v26.5l4 .8v4.4h-15.3v-4.5l4-.8v-26.5zM348.15 156.5l2.6-.4L362 124h7.6l11.2 32.1 2.6.4v4.4h-12.6v-4.4l2.6-.5-1.6-5.1h-12l-1.6 5.1 2.6.5v4.4h-12.6v-4.4zm13.4-11h8.5l-4.2-13h-.2zM423.65 124v4.5l-4 .8V161h-7.4l-14.9-24.9h-.2v19.7l4 .8v4.4h-15.3v-4.5l3.9-.8v-26.5l-3.9-.8v-4.5h11.3l14.9 24.9h.2v-19.6l-4-.8v-4.5h15.4z"/></g><g class="cls-1"><path class="cls-2" d="M48 188.8c0 5.4-1.5 9.9-4.6 13.4a15.6 15.6 0 01-12.2 5.3 15.4 15.4 0 01-12.1-5.3c-3.1-3.5-4.6-8-4.6-13.4v-.6c0-5.4 1.5-9.9 4.6-13.4a15.08 15.08 0 0112.1-5.3 15.6 15.6 0 0112.2 5.3 19.73 19.73 0 014.7 13.4v.6zm-7.4-.7a16.46 16.46 0 00-2.4-9.3 7.91 7.91 0 00-7.1-3.6 7.85 7.85 0 00-7 3.6 17.31 17.31 0 00-2.3 9.3v.6a17.43 17.43 0 002.3 9.4 7.74 7.74 0 007 3.6 8 8 0 007.1-3.6 16.58 16.58 0 002.4-9.4zM63.35 174.5l-2.8.5 6.6 22.2.5 2h.2l.4-2 6.6-22.2-2.8-.5V170h13.5v4.5l-3.1.4-10.9 32.1H64l-10.9-32.1-3-.4V170h13.5v4.5zM111.45 190.7H99v10.6h12l.3-4.4h5.6V207H87.65v-4.5l3.9-.8v-26.5l-3.9-.8v-4.5h29.2V180h-5.7l-.3-4.4H99v9.3h12.5zM137.45 170c4.2 0 7.5 1 9.9 2.9a9.67 9.67 0 013.6 8 7.64 7.64 0 01-1.5 4.8 10.05 10.05 0 01-4.4 3.3 7.54 7.54 0 014.7 3.2 9.93 9.93 0 011.4 5.6v1.9a3.56 3.56 0 00.5 1.9 2.45 2.45 0 001.6.8l.9.1v4.5h-3.8c-2.4 0-4.1-.7-5.1-2a8.14 8.14 0 01-1.5-5.1v-2.1a6.07 6.07 0 00-1.4-4.2 5.42 5.42 0 00-4-1.6h-6.1v9.8l4 .8v4.4H121v-4.5l3.9-.8v-26.5l-3.9-.8v-4.5h16.5zm-5.3 16.3h5.1c2.1 0 3.6-.4 4.6-1.3a4.76 4.76 0 001.5-3.8 5.35 5.35 0 00-1.5-4 6.11 6.11 0 00-4.5-1.5h-5.3v10.6zM167.25 174.5l-2.8.5 6.6 22.2.5 2h.2l.4-2 6.6-22.2-2.8-.5V170h13.5v4.5l-3.1.4-10.9 32.1h-7.6L157 174.9l-3-.4V170h13.5v4.5zM191.55 174.5V170h15.3v4.5l-4 .8v26.5l4 .8v4.4h-15.3v-4.5l4-.8v-26.5zM233.55 190.7h-12.5v10.6H233l.3-4.4h5.6V207h-29.3v-4.5l3.9-.8v-26.5l-3.9-.8v-4.5h29.2V180h-5.7l-.3-4.4H221v9.3h12.5v5.8zM290.75 174.5l-3 .4-7.5 32.1h-6.9l-6.8-24.4h-.2l-6.8 24.4h-6.9l-7.5-32.1-3-.4V170h13.6v4.5l-3.4.6 4.2 20.3h.2l6.9-25.3h5.5l7 25.3h.2l4.2-20.3-3.4-.6V170h13.6v4.5z"/></g><g class="cls-1"><path class="cls-3" d="M306.75 207v-3.5l12.1-13.5a30.23 30.23 0 004.4-5.8 9.12 9.12 0 001.2-4.4 7.06 7.06 0 00-1.6-4.7 5.28 5.28 0 00-4.3-1.9c-2.6 0-4.4.7-5.6 2a7.75 7.75 0 00-1.8 5.5h-4.8l-.1-.2a10.2 10.2 0 013.2-8c2.2-2.1 5.2-3.2 9.1-3.2a11.22 11.22 0 018 2.9 9.8 9.8 0 013 7.4 11.58 11.58 0 01-1.8 6 42.14 42.14 0 01-5 6.5l-9.7 10.6.1.1h13.1l.4-4.2h4.2v8.2h-24.1zM359.65 192.9c0 4.7-1 8.3-3.1 10.9a10.43 10.43 0 01-8.6 3.8 10.72 10.72 0 01-8.6-3.8c-2.1-2.5-3.2-6.1-3.2-10.8v-8.8c0-4.7 1-8.3 3.1-10.9a10.43 10.43 0 018.6-3.8 10.72 10.72 0 018.6 3.8c2.1 2.5 3.2 6.1 3.2 10.9zm-5-9.9c0-3.2-.6-5.6-1.7-7.2a5.76 5.76 0 00-5.1-2.4 5.7 5.7 0 00-5 2.4c-1.1 1.6-1.7 4-1.7 7.2v10.8q0 4.8 1.8 7.2a5.9 5.9 0 005 2.5 5.7 5.7 0 005-2.4c1.1-1.6 1.7-4 1.7-7.3V183zM365.15 207v-3.5l12.1-13.5a30.23 30.23 0 004.4-5.8 9.12 9.12 0 001.2-4.4 7.06 7.06 0 00-1.6-4.7 5.28 5.28 0 00-4.3-1.9c-2.6 0-4.4.7-5.6 2a7.75 7.75 0 00-1.8 5.5h-4.8l-.1-.2a10.2 10.2 0 013.2-8c2.2-2.1 5.2-3.2 9.1-3.2a11.22 11.22 0 018 2.9 9.8 9.8 0 013 7.4 11.58 11.58 0 01-1.8 6 42.14 42.14 0 01-5 6.5l-9.7 10.6.1.1h13.1l.4-4.2h4.2v8.2h-24.1zM394.45 203.8l5.7-.7v-27.7l-5.8.1v-3.1l10.8-2.3v33.1l5.7.7v3.2h-16.4v-3.3z"/></g><path id="Path_878" data-name="Path 878" class="cls-3" d="M186.65 14.7c.8-.6 1.7-1.4 2.8-2.3a9 9 0 001-.9 2.36 2.36 0 00.6-.9 5 5 0 00.5-1.3l.7-2.1h-.1a4.63 4.63 0 01-1.3 1.8 10.92 10.92 0 01-1.7 1.3 12.38 12.38 0 00-1.8 1.4 7.33 7.33 0 00-1.6 2.3v-.1c.4-1.3.8-2.3 1-3.2s.4-1.6.6-2.3a4.92 4.92 0 01.6-1.7 3.74 3.74 0 011.2-1.3A5.81 5.81 0 00186 7.7a6.59 6.59 0 00-1.2 4.1v5.1a8.17 8.17 0 011.85-2.2zm3.4-6.2A20 20 0 00192 6.3l1.6-2.1c.5-.6 1.1-1.2 1.7-1.8l-.1-.1a5.07 5.07 0 01-1.6.9 9.49 9.49 0 00-2.1.9 6 6 0 00-2.1 2.1 12.81 12.81 0 00-1.7 4.2 8.76 8.76 0 002.35-1.9zm-8.1 19a16.6 16.6 0 001.6 2.1 15.1 15.1 0 011.8 2.6 4.87 4.87 0 01-.1-1.2v-1a10.62 10.62 0 01.4-1.9q.45-1.35.9-3c.3-1.1.6-2.2.8-3.3a10.12 10.12 0 00.2-3h-.1a6.39 6.39 0 01-.8 1.9l-1.1 1.9a20 20 0 00-1 2.1 6.72 6.72 0 00-.4 2.4 5 5 0 00.2 1.2c.1.3.1.6.2.9h-.1a26.27 26.27 0 00-.8-3c-.4-1-.7-1.9-1.1-2.7s-.6-1.6-.9-2.3a8.47 8.47 0 01-.4-1.7 4.87 4.87 0 01.1-1.2v-1.1h-.1c-.2.6-.4 1.2-.6 1.9a9.08 9.08 0 00-.3 2.3 13.42 13.42 0 00.4 3.5 10.34 10.34 0 001.25 2.6zm13.2 19.7h.8a4.1 4.1 0 001.1-.1l1.3-.2c.5-.1 1.2-.3 2.1-.5s2-.5 3.4-.8c-.9-.2-1.7-.5-2.4-.7a6.25 6.25 0 01-2-1.3c-.8-.7-1.6-1.5-2.5-2.2-.6-.6-1.3-1.2-2-1.8-.2-.2-1.1-1-1.4-1.3l-.1.1 1 2c.1.1.1.2.2.3.2.4.5.9.7 1.3l.3.5a4.07 4.07 0 001.2 1.4 7.46 7.46 0 003.1 1.5l-1.6-.2-1.2-.2c-.4 0-.7-.1-1.1-.1a5.7 5.7 0 01-1.3-.1c-.4-.1-.7-.1-1-.2l-1-.1a.9.9 0 01-.5-.1l-1.8-.3a7.74 7.74 0 01-1.6-.7 20.28 20.28 0 01-1.8-1.3l-.1.1a7.1 7.1 0 001 1.4l1.5 1.5a11.25 11.25 0 002.1 1.2 9.47 9.47 0 002.9.7l.7.2zm-11.3-22.8h.1a5 5 0 01.2-1.2 6.12 6.12 0 01.5-1.2 9.91 9.91 0 011.1-1.7l1.9-2.8a7.56 7.56 0 001.1-2.6q.45-1.5.6-2.1h-.1l-.3.6a2.65 2.65 0 01-.5.6 5.93 5.93 0 01-.8.8l-1.3 1.2a8.76 8.76 0 00-1.9 2.4 10.88 10.88 0 00-.7 2.4h.2a3.75 3.75 0 01.1-1.1 6.38 6.38 0 000-1.4c0-.7-.1-1.6-.1-2.5s-.1-2.2-.1-3.8a3.53 3.53 0 01.3-1.4 10.41 10.41 0 00.5-1.2h-.1a12.26 12.26 0 00-2.1 3.7 12.76 12.76 0 00-.6 3.4 12.17 12.17 0 00.7 3.8 24.59 24.59 0 011.3 4.1zm7.6 18.8l3 .7 1.6.4a9.51 9.51 0 01-1.5-2 7.22 7.22 0 01-.9-2c-.3-.8-.7-1.8-1.2-3.2a6.12 6.12 0 00-.5-1.2 10.91 10.91 0 01-.6-1.1 8.34 8.34 0 00-.8-1.2c-.3-.4-.7-1-1.2-1.7l-.1.1c.1.5.4 1.3.6 2.6s.5 2.4.8 3.6a6.71 6.71 0 001 2.3 13.36 13.36 0 002 2.1l-.1.1a9.39 9.39 0 01-1.8-1.2 14.52 14.52 0 00-2.6-1.7 37.51 37.51 0 01-4.4-2.4 6.19 6.19 0 01-2.4-2.9l-.1.1a9.68 9.68 0 001.4 3.3 10.41 10.41 0 002.2 2.5 12.71 12.71 0 002.7 1.8 12.37 12.37 0 002.9 1zm-6.8-7.5l5.3 3.6c-.2-.4-.4-.9-.6-1.4a8.33 8.33 0 01-.4-1.5 9 9 0 01-.2-1.8c0-.7-.1-1.4-.2-2.4-.2-1.6-.4-2.8-.5-3.7a12.9 12.9 0 00-.8-2.8h-.1a14.77 14.77 0 01-.1 2.1c-.1.5-.2 1.1-.3 1.6s-.2.9-.3 1.4a6.6 6.6 0 00-.1 1.4 5.37 5.37 0 00.5 2.1 18.94 18.94 0 00.9 2.1l-.1.1a19.1 19.1 0 00-2.4-3.2c-.8-.8-1.5-1.6-2.2-2.3a12 12 0 01-1.7-2.1 5.81 5.81 0 01-.9-2.5 1.7 1.7 0 00-.1.7c0 .2-.1.5-.1.7a10.05 10.05 0 00.4 2.5 12.81 12.81 0 001.1 2.4 9 9 0 001.5 1.9 5.26 5.26 0 001.4 1.1zm44.1-31.4l1.6 2.1a20 20 0 001.9 2.2 12.21 12.21 0 002.5 2 12.81 12.81 0 00-1.7-4.2A10.45 10.45 0 00231 4.3a6.81 6.81 0 00-2.1-1 4.17 4.17 0 01-1.6-.9l-.1.1a14.54 14.54 0 011.6 1.8zm4.8 39.2a11.11 11.11 0 01-1.6.7 11.27 11.27 0 01-1.8.3l-.5.1-1 .1a3 3 0 00-1 .2 5.28 5.28 0 01-1.3.1c-.4 0-.7.1-1.1.1l-1.2.2-1.6.2a8.92 8.92 0 003.1-1.5 4.43 4.43 0 001.2-1.5c.1-.2.2-.3.3-.5.2-.4.5-.9.7-1.3l.2-.3 1-2-.1-.1c-.3.3-1.2 1.1-1.4 1.3-.6.6-1.3 1.2-2 1.8a26.22 26.22 0 01-2.5 2.2 5.33 5.33 0 01-2 1.3c-.7.2-1.5.5-2.4.7l3.4.8c.9.2 1.5.4 2.1.5a8.32 8.32 0 001.3.2 4.1 4.1 0 001.1.1h.8l.7-.1a15.29 15.29 0 002.9-.7 5.71 5.71 0 002.1-1.3 5.36 5.36 0 001.5-1.5 7.1 7.1 0 001-1.4l-.1-.1a11 11 0 01-1.8 1.4zm4-6.1a36.23 36.23 0 01-4.3 2.4 14.52 14.52 0 00-2.6 1.7 5.67 5.67 0 01-1.8 1.2l-.1-.1a19.85 19.85 0 002-2.1 6.71 6.71 0 001-2.3c.2-1.1.5-2.3.8-3.6s.5-2.1.6-2.6l-.1-.1-1.2 1.7c-.3.5-.6.9-.8 1.2a10.91 10.91 0 00-.6 1.1c-.2.4-.3.8-.5 1.2-.5 1.3-.9 2.4-1.2 3.2a12.44 12.44 0 01-1 2 14.91 14.91 0 01-1.5 2l1.6-.4 3-.7a10 10 0 002.9-1 12.71 12.71 0 002.7-1.8 13.15 13.15 0 002.2-2.5 12.15 12.15 0 001.4-3.3v-.1a7.06 7.06 0 01-2.5 2.9zm2.2-13.9c-.4.8-.7 1.7-1.1 2.7a16.66 16.66 0 00-.8 3h-.1a2.92 2.92 0 01.2-.9 5 5 0 00.2-1.2 6.37 6.37 0 00-.4-2.4 20 20 0 00-1-2.1l-1.1-1.9a6.39 6.39 0 01-.8-1.9h-.1a10.12 10.12 0 00.2 3c.2 1.1.5 2.2.8 3.3s.6 2.1.9 3a6.46 6.46 0 01.4 1.9v1a4.87 4.87 0 01-.1 1.2 15.1 15.1 0 011.8-2.6c.6-.7 1.1-1.4 1.6-2.1a8.56 8.56 0 001.1-2.4 11.07 11.07 0 00.4-3.6 5.87 5.87 0 00-.4-2.3c-.2-.6-.4-1.3-.6-1.9h.1v1.1c0 .4.1.8.1 1.2a3.53 3.53 0 01-.4 1.7 17.12 17.12 0 01-.9 2.2zm-2.2-5.1a7.21 7.21 0 00-1.9-2.4l-1.2-1.2a6 6 0 01-.8-.8 3.17 3.17 0 00-.5-.6l-.3-.6h-.1q.15.6.6 2.1a18.89 18.89 0 001.1 2.5l1.9 2.8a16.29 16.29 0 011.1 1.7 6.12 6.12 0 01.5 1.2 5 5 0 01.2 1.2h.1a20.44 20.44 0 011.3-4.2 9.86 9.86 0 00.7-3.8 10.16 10.16 0 00-.6-3.4 13.59 13.59 0 00-2.1-3.7h-.1a6.12 6.12 0 00.5 1.2 3.19 3.19 0 01.3 1.4c0 1.6 0 2.8-.1 3.8a20.9 20.9 0 00-.1 2.5v1.4a4.1 4.1 0 00.1 1.1h-.1a4.93 4.93 0 00-.5-2.2zm-3.2-11.6a4.92 4.92 0 01.6 1.7c.2.7.4 1.4.6 2.3s.6 1.9 1 3.2v.1a7.64 7.64 0 00-1.7-2.3l-1.8-1.5a19.23 19.23 0 01-1.7-1.3 4.63 4.63 0 01-1.3-1.8H230l.7 2.1a6.94 6.94 0 00.5 1.3 5.5 5.5 0 00.7.9 7.53 7.53 0 01.9.9c1.1.9 2 1.7 2.8 2.3a6.74 6.74 0 011.9 2.2v-5.1a7.3 7.3 0 00-1.2-4.1 5.37 5.37 0 00-3.2-2.3v.1a4 4 0 011.3 1.3zM226 48.6a4.87 4.87 0 01-1.2-.1c-.4-.1-.8-.2-1.3-.3l-1.5-.5c-.6-.2-1.2-.4-2-.7l-3.1-1.1a7.79 7.79 0 00-2.1-.4 14.92 14.92 0 00-2.1.2c-.7.2-1.2.3-1.6.4-.3-.1-.8-.2-1.5-.4a7.49 7.49 0 00-2.1-.2 5.22 5.22 0 00-2.1.4l-3.1 1.1a36.81 36.81 0 01-3.6 1.2 10 10 0 01-2.4.4 3.4 3.4 0 01-1-.1 2.92 2.92 0 01-.9-.2 8.2 8.2 0 01-1.1-.4l-1.4-.6-.1.1a12.84 12.84 0 002.6 2 9.31 9.31 0 004 1.2 9.15 9.15 0 001.6-.1 7.37 7.37 0 001.4-.4 10.09 10.09 0 001.5-.7c.5-.3 1.2-.7 2-1.2s1.5-1 2.1-1.3a4.49 4.49 0 011.9-.5 2.92 2.92 0 01.9.2c-1 .5-2.1 1.2-3.3 1.9a16.89 16.89 0 00-3.6 3l1.2 1.1a29.77 29.77 0 013.6-3.5A11.55 11.55 0 01211 47a12 12 0 013.4 2.1 23.77 23.77 0 013.6 3.5l1.2-1.1a16.89 16.89 0 00-3.6-3c-1.3-.8-2.4-1.4-3.3-1.9.3-.1.6-.1.9-.2a3.2 3.2 0 011.9.5 20.61 20.61 0 012.1 1.3l1.9 1.1a10.09 10.09 0 001.5.7 5.73 5.73 0 001.4.4 6.75 6.75 0 001.4.2h.3a9.28 9.28 0 003.3-.7 7.75 7.75 0 003.2-2.4v-.1a24.43 24.43 0 01-2.4 1 3.46 3.46 0 01-1.8.2zm16.1-21v-.5c0-.2-.1-.5-.1-.7a5.38 5.38 0 01-.9 2.5c-.5.7-1.1 1.4-1.7 2.1l-.1.1c-.6.7-1.3 1.4-2.1 2.2a19.1 19.1 0 00-2.4 3.2l.9-2.1a7.79 7.79 0 00.4-2.1 6.15 6.15 0 00-.1-1.4c-.1-.4-.2-.9-.3-1.3a7 7 0 01-.2-1.6 14.77 14.77 0 01-.1-2.1h-.2c-.3.9-.6 1.9-.8 2.8s-.3 2.1-.5 3.7a23.2 23.2 0 00-.2 2.4 9.91 9.91 0 01-.2 1.8 8.33 8.33 0 01-.4 1.5 6.12 6.12 0 01-.5 1.2l-.1.2 1.8-1.2 3.6-2.4a8.64 8.64 0 001.4-1.3 13.3 13.3 0 001.4-1.9 9.14 9.14 0 00.7-1.4c.1-.3.3-.6.4-.9a6.9 6.9 0 00.4-2.5l-.1-.3zM221 6.2c.1.1.3.1.4.2s.2.2.2.3l.2.2c.1 0 .2 0 .2-.2v-.2c0-.2 0-.3-.1-.4a.73.73 0 00-.6-.2l-.1-.1h-.2c-.1 0-.2 0-.2.2a.22.22 0 00.2.2zm-7.7-1.8h.1a2.92 2.92 0 01.9-.2h1a.52.52 0 00.4-.2c.1-.1.2-.2.2-.3a1.05 1.05 0 00-.9-.5c-.2 0-.5-.1-.7-.1l-.9.3-.9.3c-.2 0-.4 0-.4.2s.3.2.4.3a1.2 1.2 0 00.8.2zm-2.2 39.8a21.9 21.9 0 10-21.9-21.9 21.89 21.89 0 0021.9 21.9zm-20.8-21.3h3.3a15.47 15.47 0 00.7 4.3.22.22 0 01-.2-.2l-.1-.1-.4-.5-.6.2c0 .3-.1.5-.4.4a.37.37 0 00-.3-.1c-.4 0-.7.2-.7.6a2.49 2.49 0 00-.1.8l.5 1.3c.1.1.2.2.4.1.1.2.3.3.4.5s.2.2.4.1a.22.22 0 00.2-.2h.1l.3.3a1.38 1.38 0 00.4.3v-.1a.86.86 0 00.6.3 2 2 0 00.4.8.71.71 0 00.6.3c.1 0 .2-.1.3-.1a1.61 1.61 0 00.4.7l.4.2c.1.1.2.1.3.2h.1a2.09 2.09 0 00.4.6l.4.4h.1l.1.2-2.3 2.4a20.65 20.65 0 01-5.7-13.7zm16-6.2l-.2-.1-.2-.2a7.87 7.87 0 014.6-1.9v2.3h-.1v-.1h-.7a.37.37 0 01-.1-.3q-.3.15-.3.3c0 .2-.1.3-.1.5a.78.78 0 01-.4.4.52.52 0 00-.4.2l-.2-.1h-.4l-.2-.2a.1.1 0 01-.1-.1h-.1a.22.22 0 00-.2.2l-.2-.2h.1v-.1a4.17 4.17 0 00-.8-.6zm-1.2-1.1l-2.2-2.2a12.67 12.67 0 017.6-3.2v3.2a9 9 0 00-5.4 2.2zm1.3 10.5a.75.75 0 00.1-.5l-.2.2a1.76 1.76 0 00.4-.5c.1-.1.1-.3.2-.4.1.2.2.3.3.5l-2 2a8 8 0 01-1.7-3.3c.2 0 .3.1.5.1s.3.3.5.4a.37.37 0 00.3-.1l.3.2a.6.6 0 00.1.4l.2.2c.1.1.2.1.3.3l.1-.1V25l.1.5.1.6c.2.1.3.1.4 0zm4.4 2.4l.2.2a.88.88 0 01-.6.2c-.1 0-.2.1-.3.4a2 2 0 00-.1.7h-.1a8.22 8.22 0 01-3.9-1.8l2-2a4.74 4.74 0 002.7 1.2.37.37 0 00.1.3c-.1.1-.2.2-.1.4-.1.1-.1.2.1.4zm-9.8.1c0-.4-.1-.8-.1-1.2a6.37 6.37 0 01-.2-.7 3.55 3.55 0 00-.2-1 5.5 5.5 0 00-.7-.9v-.4c0-.1-.1-.3-.1-.4v-.1c0-.1 0-.2.1-.2l.8-.3a1.7 1.7 0 01.1-.7l.5.1c.1 0 .2-.1.2-.3s-.1-.3-.1-.5a.9.9 0 01-.1-.5c0-.1.1-.2.2-.3a.6.6 0 01.4-.1.76.76 0 01.5.2.9.9 0 01.1.5v.7l.1.1c-.1.5-.3.7-.6.7-.1 0-.3-.1-.3-.2a.22.22 0 00-.2-.2h-.1a.37.37 0 00.1.3c.1.1.1.2.1.4s-.1.5-.5.4q-.15.3.3.3c.1.3.2.4.3.4a.9.9 0 00.1-.5c0-.2.1-.4.1-.6l.1.1.3-.1v.1h.1a8.7 8.7 0 002.1 4.3l-3.1 3.1a.76.76 0 01-.2-.5c.1-.3.4-.5.4-.8l.1-.6c-.3 0-.4-.3-.6-.6zm-1.8-4.6c0 .1.1.2.1.3a.35.35 0 01-.1.2h-.1a8.75 8.75 0 01-.2-1.6h.6a.37.37 0 01-.1.3c-.1.1-.1.2-.2.3a.37.37 0 00-.1.3c.1 0 .1.1.1.2zm-.2-2.2a11.58 11.58 0 013.2-7.6l2.2 2.2-.1.1c-.1 0-.3.1-.4.1s-.2.3-.3.4a2.51 2.51 0 00-.7.4l-.6.6a1.63 1.63 0 00-.6.3.22.22 0 00-.2.2c.1.2.1.4 0 .4l-.7.2c-.1 0-.1 0-.1.1l-.2.2c0 .1-.1.2-.1.3s0 .2-.1.2-.3.2-.4.4a.85.85 0 000 .7l.1.7c0 .1.1.1.1.2zm6.2 7.2a8.1 8.1 0 003.9 2c-.1 0-.2.1-.3.1s-.4.2-.4.5a.55.55 0 01-.3.5c-.2.1-.2.2-.2.3a1.93 1.93 0 01.5.9 1.21 1.21 0 00.7.7l.4.1a.52.52 0 01.4.2l.4.1a12.89 12.89 0 01-7.4-3.1zm-3-16.4l-2.2-2.2A16.29 16.29 0 01210.55 6v3.1a12.32 12.32 0 00-8.4 3.5zm-.8.8a13.22 13.22 0 00-3.5 8.4h-3.1a16.08 16.08 0 014.4-10.6zm-3.5 9.5a8.6 8.6 0 00.1 1.6c0-.1-.1-.1-.1-.2-.2-.2-.3-.4-.4-.4s-.3.1-.3.2-.1.2-.2.3a2 2 0 01-.8.4 1.8 1.8 0 00-.4.9.19.19 0 000 .3c.1.1 0 .2-.1.3a.76.76 0 01.1.4v.1h-.2c0 .1-.1.1-.1.2a18.51 18.51 0 01-.7-4.1zm12.6 20.2a21.1 21.1 0 01-13.8-5.7l2.4-2.4a17.21 17.21 0 0011.4 4.7v3.4zm0-4.4a15.83 15.83 0 01-10.5-4.4 1 1 0 001.2 0l.6-.3a1 1 0 00.7-.2h.5c.2 0 .3-.2.3-.4s-.1-.3-.3-.4-.3-.2-.3-.3 0-.1-.1-.2l-.5-.5a13.22 13.22 0 008.4 3.5zm.6-8.2a1.7 1.7 0 01-.7-.1c0-.1 0-.1-.1-.2.1-.1.2-.2.3-.2a.76.76 0 01.4-.2v-.2l.5-.4c.1 0 .1-.1.2-.1s.3-.1.4-.1.4.1.6.3a1.42 1.42 0 00.6.2l.1-.3c.1 0 .2.1.4.3.1 0 .3-.1.4-.1V29c.1 0 .1 0 .2.1h.3a.76.76 0 00.4-.2c.1-.1.3-.2.4-.3h.1a.37.37 0 01.1.3 1.15 1.15 0 01-.6.9 3.58 3.58 0 01-1.1.4c-.1.1-.1.2-.2.3s-.1.3-.2.3c-.3 0-.6-.1-.9-.1a.76.76 0 01-.2-.4.75.75 0 00-.5.1l-.6.1zm3.2-2.4a.66.66 0 01.4-.5 1.27 1.27 0 01.6-.1c0 .1-.1.3-.4.4a1.42 1.42 0 01-.6.2zm2.2-1.8a.55.55 0 01.3.5c0 .1-.1.3-.2.3h-.1c-.1 0-.3-.2-.4-.5a1 1 0 01-.6-.5c-.1-.2 0-.4.1-.4s.2-.1.3-.1.1.1.1.3zm7-12.2c.1 0 .1 0 .1.1a4.33 4.33 0 01.5.1 10.63 10.63 0 01.9 1.1l.2.2.2.2c.1 0 .3-.1.4-.1s0-.1.1-.2a17.08 17.08 0 011.5 6.2h-3.1v-.1a1.08 1.08 0 00-.2-.8 1.38 1.38 0 01-.1-1.1.64.64 0 000-.6.37.37 0 00-.3.1c-.1.1-.1.2-.2.3s-.1.3-.2.4a.1.1 0 01-.1.1c0 .1 0 .1-.1.2l-.1.6v.8h-1.6a.76.76 0 01.5-.2l.4-.2c-.1 0-.1-.1-.1-.2s0-.2.1-.2l.4-.2a1.61 1.61 0 00.4-.7 3.51 3.51 0 00.6-1.4.76.76 0 00-.2-.4v-.3c0-.5.2-1.4-.4-1.6-.1 0-.1-.1-.1-.2.2-.1.2-.4.1-.6h-.5a.35.35 0 01.1-.2.37.37 0 00.1-.3.22.22 0 00-.2-.2h-.1a.6.6 0 00-.4.1c-.1 0-.1.1-.2.1h.1l-.1-.1a.91.91 0 00-.3-.7 2.09 2.09 0 00-.6-.4v-.3l.6-.6.9.3a.76.76 0 00.2.5c.1.1.2.2.3.2a1.38 1.38 0 00.4.3c.1-.1.2 0 .1 0zm-3 21.2c-.1-.1-.1-.1-.2-.1s-.1 0-.1-.1.1-.2.2-.3a1 1 0 00.4-.5.6.6 0 00.1-.4c0-.1 0-.2-.1-.2s-.2-.1-.3-.2-.2-.1-.3-.1-.3-.1-.4-.2a.52.52 0 01-.2-.4c0-.1.1-.2.1-.4l.1-.2.2-.1 1.7 1.7a.27.27 0 00.3.3l.2.2a13.93 13.93 0 01-1.9 1.5c0-.1.1-.1.1-.2l.1-.1v-.2zm-1-8a.6.6 0 00-.4.1c-.2.1-.4.2-.4.4v.1a.37.37 0 00-.3.1c-.1 0-.2.1-.4.1s-.2 0-.2-.1.2-.2.6-.3l.4-.4a.37.37 0 01.3-.1 2.65 2.65 0 00.6-.5 2.19 2.19 0 00.3-.5h.1c0 .2.1.4.3.4s.3-.2.4-.5a1.27 1.27 0 00.6.1.55.55 0 00.5-.3h.9v.2a12.62 12.62 0 01-2.4 4.4v-.2a4.88 4.88 0 01-.3-.7c-.1 0-.2.2-.4.5s-.2.6-.3.6l-.7.1c-.2 0-.4.1-.7.1a1.42 1.42 0 01-.6-.2l-.6-.3a1.27 1.27 0 00-.6-.1c-.3 0-.4-.1-.4-.2s.1-.2.3-.2a1.27 1.27 0 01.6.1l.9.2c.3.1.6.1.8.2s.3.1.4.1l.4-.1c0-.1.1-.3.1-.4a.6.6 0 00.1-.4c.1-.3.2-.5.3-.8a2.77 2.77 0 00.1-.9c0-.2-.1-.4-.2-.4zm2-4.4h1.7a7.61 7.61 0 01-.3 2.1c-.1-.2-.2-.5-.4-.6l-.6-.6c0-.2-.1-.3-.1-.5s-.1-.1-.1-.2l-.2-.2zm.7 8.9c-.1 0-.2 0-.2.1a.9.9 0 01-.1.5l-1.1-1.1a13.23 13.23 0 003.1-5.7h.1a.45.45 0 00.5 0c.1-.1.1-.1.1-.2s-.1-.3-.4-.6h-.1a12.25 12.25 0 00.2-1.9h3.1a15.88 15.88 0 01-4.4 10.6l-.1-.1a3.55 3.55 0 00-.2-1c-.1-.3-.3-.6-.5-.6zm-.8-15.8a.6.6 0 01-.1.4c0 .1-.1.2-.1.4a2.65 2.65 0 00.6.5c.2.2.4.3.6.5s.3.5.3.8.1.5.2.8a.76.76 0 01-.2.5.67.67 0 01-.7.4l-.1-.1c0-.2.1-.3.1-.4a.6.6 0 00.1-.4.54.54 0 00.3-.4l-.2-.1c-.1-.1-.3-.2-.4-.3s-.1-.2-.4-.2a.6.6 0 00-.4.1l-.4.2-.1-.3c0-.1.1-.2.1-.3l-.6-1a2.35 2.35 0 00-.8-.2H218a.73.73 0 00-.6.2c-.2.1-.3.3-.5.5s0 .2-.2.2l-.2-.2 3.3-3.3.1.1.3.3.3.4a2 2 0 01.9.9zm-7.9 21.8a4.05 4.05 0 00.9.5 12.65 12.65 0 01-2.8.3v-3.1a1.21 1.21 0 00.5.5 1.27 1.27 0 00.6.1c.3 0 .5.1.5.2a.37.37 0 01-.1.3.37.37 0 00-.1.3 1.05 1.05 0 00.5.9zm-1.9 5.3v-3.3a14.87 14.87 0 003.6-.5v.2a2.34 2.34 0 01.7.7c.1.2.4.3.8.3a.55.55 0 00.5-.2c.1-.1.2-.2.2-.3a.52.52 0 01.4-.2c.1 0 .2-.1.3-.2a1 1 0 00.5-.4c.2-.2.4-.4.4-.6.1 0 .2-.1.3-.2a6.89 6.89 0 00.3-.8l.1-.1v-.1a18.6 18.6 0 003.2-2.3l2.4 2.4a21 21 0 01-13.7 5.6zm14.5-6.5l-2.4-2.4a17.21 17.21 0 004.7-11.4h3.3a19.69 19.69 0 01-5.6 13.8zm5.8-14.9h-3.3a17 17 0 00-3.4-9.7c0-.1-.1-.2-.2-.3l-.2-.2a9 9 0 00-.9-1 .35.35 0 00-.1-.2l2.3-2.3a20.75 20.75 0 015.8 13.7zM211.55 1.5a21.1 21.1 0 0113.8 5.7l-2 2c0-.1-.1-.2-.1-.3s-.2-.2-.3-.2a.55.55 0 01-.3-.5c0-.2-.1-.3-.2-.5a1.21 1.21 0 01-.7-.7c-.2-.3-.4-.5-.6-.5a.45.45 0 01-.5 0 1.3 1.3 0 00-1 0c-.2.1-.4.1-.6.2l-.1.1a17.45 17.45 0 00-7.1-1.9c.2-.3.2-.5.1-.6s-.1 0-.3.2zm0 4.4a17.49 17.49 0 016.8 1.7v.1l.3.3c.1.1.2.2.2.3s.1.4.2.6l.2.4a.66.66 0 00.1.6c.1.2.3.4.4.6h.7c.1 0 .2.1.3.2a.76.76 0 01.2.4c0 .1 0 .2.1.2l-.9.9a5.64 5.64 0 00-.4-1.2 1.42 1.42 0 00-.6-.2c0-.1-.2-.3-.5-.6s-.4-.6-.5-.6-.2 0-.2.1.1.2.1.3.1.2.3.5c0 .1 0 .1-.1.1 0 .2.2.3.4.4l-.1.1.2.4a13.3 13.3 0 00-7.2-2.5zm0 4.3a11.58 11.58 0 017.6 3.2L217 15.7a9 9 0 00-5.4-2.2v-3.3zm0 4.3a8 8 0 014.4 1.7c-.1 0-.1 0-.1.1l-.1.1a.35.35 0 00-.1.2c0 .1.2.2.3.2l-.9.9c-.1.1-.2.1-.3.2s-.3.2-.3.3a.35.35 0 01-.1.2l-.3.3H214c-.1 0-.2-.1-.4-.3s-.3-.3-.4-.3-.3 0-.3.1a.19.19 0 01-.3 0q-.15-.15.3-.3l.6-.3a1.43 1.43 0 00.6-1.2c0-.2-.1-.4-.3-.4l-.2.2a1 1 0 00-.5.4l-.4.4a.6.6 0 00-.4-.1h-.4zm-.6 5a.1.1 0 00.1.1.76.76 0 01.4.1.3.3 0 00.4 0c0 .1 0 .1.1.1s.2.2.3.1l.1.1v.1l.1.3v.1h.4v.8h.1v.1a.76.76 0 00-.2.4c0 .1.1.1.2.1a.37.37 0 01.3.1.76.76 0 01.2.4v.6c0 .1 0 .2.1.2a.1.1 0 01.1.1.75.75 0 01-.1.5c0 .2-.1.3-.2.5H213a4.33 4.33 0 01-.5-.1c-.1 0-.2.1-.3.4a1.42 1.42 0 00-.2.6q-.15.3-.3.3h-.4l-.2.4-.1.1a3.72 3.72 0 01-2.2-1l.4-.4a1.85 1.85 0 00.7-.2h.1c.4-.2.4-.5.6-.8s.5-.5.2-.7c.3-.6-1.2-.6-1.5-.5s-.1.5-.3.7-.2.1-.4.2a5.55 5.55 0 00-.6.8 1.42 1.42 0 01-.2-.6h.1v-.1h.1v.1h.4c.1 0 .1-.3.1-.4a3.55 3.55 0 01.4-.9c-.1 0-.1-.1-.2-.2s-.1-.1-.2-.1-.1.1-.1.2-.1.2-.1.3a.37.37 0 01-.3.1.22.22 0 00-.2-.2h-.1c-.1 0-.2.1-.3.1a1.7 1.7 0 00-.7.1h-.7c-.1-.1 0-.2.4-.3a1.09 1.09 0 01.4-.9.6.6 0 00.4.1l.1-.1h.1c.1 0 .2.1.3.4s.1.4.2.4.1 0 .2-.1v-.4c.1-.4.2-.7.2-.8v-.2c.1-.1.1-.3.2-.4h.1c.1-.1.2-.1.3-.2a.75.75 0 00.1-.5l.8-.3c.4-.1.6-.3.6-.5l.5-.1c-.05.8-.05.9.1.9zm-.5-18v3.3a17.21 17.21 0 00-11.4 4.7l-2.4-2.4a21.51 21.51 0 0113.8-5.6zM196 8l2.4 2.4a17.21 17.21 0 00-4.7 11.4h-3.3A20.13 20.13 0 01196 8z"/></svg>
