<svg id="Layer_1" data-name="Layer 1" xmlns="http://www.w3.org/2000/svg" viewBox="0 0 426 208"><defs><style>.cls-1{isolation:isolate}.cls-2{fill:#1b344a}.cls-3{fill:#5090cd}</style></defs><g class="cls-1"><path class="cls-2" d="M62.84 95.72c.12 0 .18 0 .18.14V100a.16.16 0 01-.18.18h-4.79Q57.39 109 47.24 109h-1.62a10.66 10.66 0 01-5.34-1.29 8.62 8.62 0 01-3.46-3.71 11.65 11.65 0 01-1.2-5.38 18.39 18.39 0 01.51-4.24 16.49 16.49 0 011.38-3.89h4.85a32.54 32.54 0 00-.92 4.14 25.57 25.57 0 00-.34 4 6.36 6.36 0 001.35 4.37 4.41 4.41 0 003.55 1.55h1.1a5.25 5.25 0 004.17-1.55 6.4 6.4 0 001.34-4.32V81.93h5.47v13.79zm-16-13.81A2.38 2.38 0 0145 81.2a2.71 2.71 0 01-.66-1.93 2.82 2.82 0 01.65-2 2.39 2.39 0 011.83-.71 2.3 2.3 0 011.76.7 2.75 2.75 0 01.66 2 2.67 2.67 0 01-.67 1.93 2.33 2.33 0 01-1.72.72z"/><path class="cls-2" d="M69.11 95.72c.13 0 .2 0 .2.14V100c0 .12-.07.18-.2.18h-6.64a.16.16 0 01-.18-.18v-4.14c0-.09.06-.14.18-.14z"/><path class="cls-2" d="M75.39 95.72c.13 0 .2 0 .2.14V100c0 .12-.07.18-.2.18h-6.64a.16.16 0 01-.18-.18v-4.14c0-.09.06-.14.18-.14z"/><path class="cls-2" d="M81.68 95.72c.13 0 .19 0 .19.14V100c0 .12-.06.18-.19.18H75a.16.16 0 01-.18-.18v-4.14c0-.09.06-.14.18-.14z"/><path class="cls-2" d="M81.32 100.13a.16.16 0 01-.18-.18v-4.09c0-.09.06-.14.18-.14H87a4.66 4.66 0 01-2.17-2.07 6.51 6.51 0 01-.83-3.23 8.15 8.15 0 012.72-6.49 11 11 0 017.44-2.36 17 17 0 013.39.36 12.69 12.69 0 012.79.84l-1.54 4.31a13.91 13.91 0 00-2.53-.85A10.8 10.8 0 0094 86a4.83 4.83 0 00-3.5 1.2 4.63 4.63 0 00-1.24 3.46 5.26 5.26 0 001.28 3.65A4.4 4.4 0 0094 95.72h6.73v4.41zM139.11 95.72c.12 0 .18 0 .18.14V100a.16.16 0 01-.18.18H128q-5.1 0-7.92-2.38a8.21 8.21 0 01-2.81-6.63 9 9 0 011.29-4.81 8.47 8.47 0 013.71-3.24 13.31 13.31 0 015.73-1.19h1v-1.8h5.53v15.59zm-10.07 0v-9.37h-1a5.55 5.55 0 00-3.87 1.23 4.62 4.62 0 00-1.35 3.58 4.29 4.29 0 001.32 3.37 5.58 5.58 0 003.86 1.19zm-3.43-17.9a2.38 2.38 0 01-1.8-.71 3.18 3.18 0 010-3.88 2.62 2.62 0 013.58 0 2.79 2.79 0 01.64 2 2.71 2.71 0 01-.66 1.95 2.33 2.33 0 01-1.76.64zm6.25 0a2.36 2.36 0 01-1.8-.71 2.72 2.72 0 01-.66-1.93 2.78 2.78 0 01.65-2 2.36 2.36 0 011.81-.71 2.31 2.31 0 011.79.71 2.78 2.78 0 01.65 2 2.68 2.68 0 01-.67 1.93 2.34 2.34 0 01-1.77.71z"/><path class="cls-2" d="M145.38 95.72c.13 0 .2 0 .2.14V100c0 .12-.07.18-.2.18h-6.65c-.11 0-.17-.06-.17-.18v-4.14c0-.09.06-.14.17-.14z"/><path class="cls-2" d="M151.66 95.72c.13 0 .2 0 .2.14V100c0 .12-.07.18-.2.18H145a.16.16 0 01-.18-.18v-4.14c0-.09.06-.14.18-.14z"/><path class="cls-2" d="M158 95.72c.13 0 .19 0 .19.14V100c0 .12-.06.18-.19.18h-6.7a.16.16 0 01-.18-.18v-4.14c0-.09.06-.14.18-.14z"/><path class="cls-2" d="M161.73 95.72a12.64 12.64 0 01-.45-8.51 14 14 0 011.33-3.21 16 16 0 013.78-1.56 13.79 13.79 0 013.51-.54 9.66 9.66 0 014.57 1.1 7.73 7.73 0 013.19 3 9 9 0 011.13 4.57 9.33 9.33 0 01-1.3 4.95 9 9 0 01-3.62 3.36 11 11 0 01-5.12 1.2h-11.16a.16.16 0 01-.18-.18v-4.04c0-.09.06-.14.18-.14zm4.1-4.29a13.37 13.37 0 00.84 4.29h1.38a5.09 5.09 0 003.73-1.49 4.92 4.92 0 001.5-3.61 4.8 4.8 0 00-.95-3.12 3.12 3.12 0 00-2.53-1.15 6.85 6.85 0 00-3.43 1 15 15 0 00-.54 4.08zM194.57 95.72c.12 0 .18 0 .18.14V100a.16.16 0 01-.18.18H184.5V72.2h5.5v23.52z"/><path class="cls-2" d="M200.86 95.72c.13 0 .19 0 .19.14V100c0 .12-.06.18-.19.18h-6.65a.16.16 0 01-.21-.18v-4.14c0-.09.06-.14.18-.14z"/><path class="cls-2" d="M207.14 95.72c.13 0 .2 0 .2.14V100c0 .12-.07.18-.2.18h-6.64a.16.16 0 01-.18-.18v-4.14c0-.09.06-.14.18-.14z"/><path class="cls-2" d="M229.35 95.72c.12 0 .18 0 .18.14V100a.16.16 0 01-.18.18h-4.67a12 12 0 01-3.59-.58 12.23 12.23 0 01-3.21-1.48 12.94 12.94 0 01-6.84 2.06h-4.26a.16.16 0 01-.18-.18v-4.14c0-.09.06-.14.18-.14h3.68a9.53 9.53 0 001.82-.2 6.87 6.87 0 001.63-.5 11.68 11.68 0 01-2.32-2.66 23 23 0 01-2.12-4 19.12 19.12 0 01-1.22-4.15 17 17 0 014.95-2.82 15.44 15.44 0 015.38-1 18.66 18.66 0 019.22 2.21 16.43 16.43 0 01-1.61 7.31 12.11 12.11 0 01-4.38 5.09 6.93 6.93 0 003.32.74zm-11.4-3a8.82 8.82 0 004.63-7.27 10.81 10.81 0 00-4.15-.67 9 9 0 00-2.55.41 7.46 7.46 0 00-2.15 1 13.74 13.74 0 001.66 3.81 9 9 0 002.61 2.74z"/><path class="cls-2" d="M229 100.13a.16.16 0 01-.18-.18v-4.09c0-.09.06-.14.18-.14h4.6V72.2h5.47v27.93zM246.42 72.2h5.48v27.93h-5.48zM292.35 95.72c.12 0 .18 0 .18.14V100a.16.16 0 01-.18.18H281.2q-5.1 0-7.92-2.38a8.19 8.19 0 01-2.82-6.63 8.91 8.91 0 011.3-4.81 8.44 8.44 0 013.7-3.24 13.36 13.36 0 015.74-1.14h1v-1.8h5.53v15.54zm-10.07 0v-9.37h-1a5.55 5.55 0 00-3.87 1.23 4.59 4.59 0 00-1.36 3.58 4.3 4.3 0 001.33 3.37 5.58 5.58 0 003.83 1.19zm-3.43-17.9a2.36 2.36 0 01-1.8-.71 2.72 2.72 0 01-.66-1.93 2.78 2.78 0 01.65-2 2.36 2.36 0 011.81-.71 2.31 2.31 0 011.78.7 2.79 2.79 0 01.64 2 2.71 2.71 0 01-.66 1.95 2.34 2.34 0 01-1.76.7zm6.25 0a2.35 2.35 0 01-1.8-.71 3.2 3.2 0 010-3.88 2.36 2.36 0 011.81-.71 2.31 2.31 0 011.79.71 2.78 2.78 0 01.65 2 2.69 2.69 0 01-.68 1.93 2.3 2.3 0 01-1.77.66z"/><path class="cls-2" d="M298.62 95.72c.13 0 .19 0 .19.14V100c0 .12-.06.18-.19.18H292a.16.16 0 01-.18-.18v-4.14c0-.09.06-.14.18-.14z"/><path class="cls-2" d="M304.9 95.72c.13 0 .2 0 .2.14V100c0 .12-.07.18-.2.18h-6.64a.16.16 0 01-.18-.18v-4.14c0-.09.06-.14.18-.14z"/><path class="cls-2" d="M311.18 95.72c.13 0 .2 0 .2.14V100c0 .12-.07.18-.2.18h-6.64a.16.16 0 01-.18-.18v-4.14c0-.09.06-.14.18-.14z"/><path class="cls-2" d="M317.47 95.72c.13 0 .2 0 .2.14V100c0 .12-.07.18-.2.18h-6.65c-.11 0-.17-.06-.17-.18v-4.14c0-.09.06-.14.17-.14z"/><path class="cls-2" d="M323.75 95.72c.13 0 .2 0 .2.14V100c0 .12-.07.18-.2.18h-6.64a.16.16 0 01-.18-.18v-4.14c0-.09.06-.14.18-.14z"/><path class="cls-2" d="M323.39 100.13a.16.16 0 01-.18-.18v-4.09c0-.09.06-.14.18-.14h14.85c-1-.91-1.72-2.67-2.24-5.26a7.09 7.09 0 00-1.48-3.46 4 4 0 00-2.94-1 8.58 8.58 0 00-2.42.32 11.4 11.4 0 00-2.46 1.06l-1.66-4a16.1 16.1 0 017.69-1.76 8.92 8.92 0 015.73 1.65 8.58 8.58 0 012.69 5.44q.94 5.48 2.57 7.06h2.38c.14 0 .2 0 .2.14V100c0 .12-.06.18-.2.18z"/><path class="cls-2" d="M352.39 95.72c.13 0 .2 0 .2.14V100c0 .12-.07.18-.2.18h-6.64a.16.16 0 01-.18-.18v-4.14c0-.09.06-.14.18-.14z"/><path class="cls-2" d="M358.67 95.72c.13 0 .2 0 .2.14V100c0 .12-.07.18-.2.18H352a.16.16 0 01-.18-.18v-4.14c0-.09.06-.14.18-.14z"/><path class="cls-2" d="M362.46 95.72a12.53 12.53 0 01-1-5.07 12.31 12.31 0 01.54-3.44 13.58 13.58 0 011.34-3.21 16 16 0 013.78-1.56 13.66 13.66 0 013.51-.54 9.66 9.66 0 014.57 1.1 7.73 7.73 0 013.19 3 9 9 0 011.13 4.57 10.61 10.61 0 01-.68 3.79 3.66 3.66 0 001.51 1 6.59 6.59 0 002.15.3h.19c.13 0 .18 0 .18.14v4.2c0 .12-.05.18-.18.18h-.19a9.53 9.53 0 01-3.37-.54 7.42 7.42 0 01-2.7-1.92 9.59 9.59 0 01-3.21 1.85 11.59 11.59 0 01-3.74.61h-11.17a.16.16 0 01-.18-.18v-4.14c0-.09.06-.14.18-.14zm4.09-4.29a13.41 13.41 0 00.85 4.29h1.38a5.09 5.09 0 003.73-1.49 4.92 4.92 0 001.5-3.61 4.75 4.75 0 00-1-3.12 3.09 3.09 0 00-2.53-1.15 6.91 6.91 0 00-3.43 1 15 15 0 00-.5 4.08z"/><path class="cls-2" d="M389 95.72c.13 0 .2 0 .2.14V100c0 .12-.07.18-.2.18h-6.64a.16.16 0 01-.18-.18v-4.14c0-.09.06-.14.18-.14z"/><path class="cls-2" d="M388.6 100.13a.16.16 0 01-.18-.18v-4.09c0-.09.06-.14.18-.14h4.6V72.2h5.47v23.52h4.78c.12 0 .18 0 .18.14V100a.16.16 0 01-.18.18z"/><path class="cls-2" d="M403.09 100.13a.16.16 0 01-.18-.18v-4.09c0-.09.06-.14.18-.14h4.6V72.2h5.47v27.93zM420.52 72.2H426v27.93h-5.48z"/></g><g class="cls-1"><path class="cls-2" d="M314.86 155.27a10.66 10.66 0 01-5.34-1.29 8.5 8.5 0 01-3.46-3.64 11.6 11.6 0 01-1.2-5.37 18.47 18.47 0 01.51-4.25 16.65 16.65 0 011.38-3.89h4.85a32.93 32.93 0 00-.92 4.14 25.67 25.67 0 00-.34 4 6.37 6.37 0 001.35 4.27 4.41 4.41 0 003.55 1.59h1.1a5.25 5.25 0 004.17-1.54 6.37 6.37 0 001.34-4.32V118.5h5.47V142h4.8q.18 0 .18.15v4.09a.16.16 0 01-.18.18h-4.83q-.66 8.84-10.81 8.83z"/><path class="cls-2" d="M338.38 142c.14 0 .2 0 .2.15v4.09c0 .12-.06.18-.2.18h-6.64a.16.16 0 01-.18-.18v-4.09q0-.15.18-.15z"/><path class="cls-2" d="M344.67 142c.13 0 .2 0 .2.15v4.09c0 .12-.07.18-.2.18H338a.16.16 0 01-.18-.18v-4.09q0-.15.18-.15z"/><path class="cls-2" d="M351 142c.13 0 .2 0 .2.15v4.09c0 .12-.07.18-.2.18h-6.64a.16.16 0 01-.18-.18v-4.09q0-.15.18-.15z"/><path class="cls-2" d="M357.24 142c.13 0 .19 0 .19.15v4.09c0 .12-.06.18-.19.18h-6.65a.16.16 0 01-.18-.18v-4.09q0-.15.18-.15z"/><path class="cls-2" d="M361 142a12.65 12.65 0 01-1-5.06 12.32 12.32 0 01.54-3.45 13.77 13.77 0 011.32-3.18 16 16 0 013.78-1.56 13.79 13.79 0 013.51-.54 9.66 9.66 0 014.57 1.08 7.73 7.73 0 013.19 3 9.06 9.06 0 011.13 4.57 10.57 10.57 0 01-.68 3.79 3.72 3.72 0 001.52 1 6.78 6.78 0 002.14.29h.2q.18 0 .18.15v4.09a.16.16 0 01-.18.18h-.2a9.24 9.24 0 01-3.36-.55A7.22 7.22 0 01375 144a9.47 9.47 0 01-3.21 1.84 11.55 11.55 0 01-3.74.62h-11.17a.16.16 0 01-.18-.18v-4.09q0-.15.18-.15zm4.1-4.29a13.27 13.27 0 00.9 4.29h1.38a5.05 5.05 0 003.73-1.49 4.88 4.88 0 001.5-3.61 4.77 4.77 0 00-.95-3.11 3.13 3.13 0 00-2.53-1.16 6.88 6.88 0 00-3.43 1 15.13 15.13 0 00-.58 4.1z"/><path class="cls-2" d="M403.45 142q.18 0 .18.15v4.09a.16.16 0 01-.18.18h-4.67a13.12 13.12 0 01-6.8-2.07 13 13 0 01-6.84 2.07h-4.26a.16.16 0 01-.18-.18v-4.09q0-.15.18-.15h3.68a8.79 8.79 0 001.82-.2 6.44 6.44 0 001.63-.5 11.6 11.6 0 01-2.32-2.65 22.7 22.7 0 01-2.11-4 18.79 18.79 0 01-1.23-4.15 16.76 16.76 0 014.95-2.83 15.41 15.41 0 015.38-1 18.73 18.73 0 019.23 2.21 16.5 16.5 0 01-1.62 7.31 12.24 12.24 0 01-4.38 5.08 6.93 6.93 0 003.32.73zm-11.4-3a8.78 8.78 0 004.63-7.27 11 11 0 00-4.15-.66 8.67 8.67 0 00-2.55.41 7 7 0 00-2.15 1 13.55 13.55 0 001.66 3.8 8.78 8.78 0 002.56 2.72z"/><path class="cls-2" d="M403.09 146.44a.16.16 0 01-.18-.18v-4.09q0-.15.18-.15h4.6V118.5h5.47v27.94zM420.52 118.5H426v27.94h-5.48zM135.78 146.33a9.1 9.1 0 01-3.36-.55 8.46 8.46 0 01-2.87-2.13c-.26-.28-.88-1.1-1.86-2.47A19.12 19.12 0 00125 138a3 3 0 00-1.87-.81 2.84 2.84 0 00-1.48.61 6 6 0 00-1.5 1.41 2.45 2.45 0 00-.61 1.38 1.66 1.66 0 00.64 1.3 6 6 0 002 1 17.39 17.39 0 013.46 1.5 4.59 4.59 0 012.24 4.14 5.51 5.51 0 01-2.62 4.93c-1.74 1.13-4.38 1.7-7.89 1.7h-8.64a7 7 0 01-6.43-4 9.61 9.61 0 01-.94-4.31 21.91 21.91 0 011.18-7.08h4.86a15.65 15.65 0 00-.61 2.88 31.28 31.28 0 00-.16 3.39 4.82 4.82 0 00.62 2.37 4.72 4.72 0 001.64 1.76 4 4 0 002.11.63h6.33a12.11 12.11 0 004.05-.45 1.53 1.53 0 001.08-1.5 1.27 1.27 0 00-.6-1.06 6.15 6.15 0 00-1.92-.8 8.69 8.69 0 01-4.27-2.09 5 5 0 01-1.2-3.52 7.36 7.36 0 011.38-4 12.36 12.36 0 013.59-3.54 7.75 7.75 0 014.22-1.44 5.07 5.07 0 012.18.46 6.71 6.71 0 011.94 1.37 33.87 33.87 0 013.07 4 13.52 13.52 0 002.71 3.13 3.87 3.87 0 002.23.7h.21c.13 0 .19 0 .19.15v4.07c0 .12-.06.18-.19.18zm-24.22 17.85a2.31 2.31 0 01-1.79-.71 2.7 2.7 0 01-.66-1.92 2.77 2.77 0 01.65-1.94 2.35 2.35 0 011.8-.71 2.31 2.31 0 011.77.7 2.78 2.78 0 01.65 2 2.64 2.64 0 01-.67 1.94 2.3 2.3 0 01-1.75.64zm6.23 0a2.29 2.29 0 01-1.79-.71 2.7 2.7 0 01-.67-1.92 2.73 2.73 0 01.66-1.94 2.32 2.32 0 011.8-.71 2.29 2.29 0 011.78.71 2.77 2.77 0 01.65 1.94 2.7 2.7 0 01-.67 1.92 2.3 2.3 0 01-1.76.71z"/><path class="cls-2" d="M142.22 141.93c.13 0 .19 0 .19.15v4.07c0 .12-.06.18-.19.18h-6.62a.16.16 0 01-.18-.18v-4.07q0-.15.18-.15z"/><path class="cls-2" d="M141.86 146.33a.16.16 0 01-.18-.18v-4.07q0-.15.18-.15h4.58V128.2h5.45v18.13zm7.26-21.28a2.37 2.37 0 01-1.81-.71 2.7 2.7 0 01-.66-1.92 2.77 2.77 0 01.65-1.94 2.36 2.36 0 011.82-.71 2.27 2.27 0 011.76.7 2.72 2.72 0 01.65 2 2.66 2.66 0 01-.67 1.92 2.28 2.28 0 01-1.74.66zM168.7 141.93q.18 0 .18.15v4.07a.16.16 0 01-.18.18h-10V118.5h5.46v23.43z"/><path class="cls-2" d="M175 141.93c.13 0 .2 0 .2.15v4.07c0 .12-.07.18-.2.18h-6.61a.16.16 0 01-.18-.18v-4.07q0-.15.18-.15z"/><path class="cls-2" d="M181.22 141.93c.14 0 .2 0 .2.15v4.07c0 .12-.06.18-.2.18h-6.61a.16.16 0 01-.18-.18v-4.07q0-.15.18-.15z"/><path class="cls-2" d="M187.48 141.93c.13 0 .2 0 .2.15v4.07c0 .12-.07.18-.2.18h-6.61a.16.16 0 01-.18-.18v-4.07q0-.15.18-.15z"/><path class="cls-2" d="M225.72 141.93c.13 0 .2 0 .2.15v4.07c0 .12-.07.18-.2.18h-12.37a7.91 7.91 0 01-5.75-2.75 7.16 7.16 0 01-6.11 2.75h-14.36a.16.16 0 01-.18-.18v-4.07q0-.15.18-.15h4.58v-10.87h5.45v10.87h3.11a3.29 3.29 0 002.68-1 5 5 0 00.85-3.23v-6.63h5.45v7.06a10.54 10.54 0 01-.11 1.65 5.86 5.86 0 001.79 1.68 4.89 4.89 0 002.31.48h2.27V128.2H221v13.73z"/><path class="cls-2" d="M232 141.93c.13 0 .2 0 .2.15v4.07c0 .12-.07.18-.2.18h-6.62c-.12 0-.17-.06-.17-.18v-4.07c0-.1.05-.15.17-.15z"/><path class="cls-2" d="M238.24 141.93c.13 0 .2 0 .2.15v4.07c0 .12-.07.18-.2.18h-6.62c-.11 0-.17-.06-.17-.18v-4.07c0-.1.06-.15.17-.15z"/><path class="cls-2" d="M237.88 146.33a.16.16 0 01-.18-.18v-4.07q0-.15.18-.15h4.58V128.2h5.46v18.13zm7.27-21.28a2.36 2.36 0 01-1.81-.71 2.7 2.7 0 01-.66-1.92 2.73 2.73 0 01.65-1.94 2.35 2.35 0 011.82-.71 2.3 2.3 0 011.76.7 2.77 2.77 0 01.65 2 2.66 2.66 0 01-.67 1.92 2.31 2.31 0 01-1.74.66zM252.68 141.93h6.63l-4.72-18.49h5.7l4.37 18.49h.25a3.27 3.27 0 002.67-1 5 5 0 00.85-3.23v-19.2h5.46v19.62a8.46 8.46 0 01-2.07 6 7.37 7.37 0 01-5.7 2.23h-13.44zm5.13 13.34l2.09-.33a3.16 3.16 0 01-1.2-1 2.44 2.44 0 01-.46-1.49 3 3 0 011.09-2.43 4.5 4.5 0 012.95-.9 6.17 6.17 0 013 .66l-.73 1.86a4.64 4.64 0 00-2-.48 1.75 1.75 0 00-1.27.47 1.72 1.72 0 00-.49 1.3 1.78 1.78 0 001.09 1.65l.67-.11c1.19-.19 2.18-.32 3-.38v2.13c-.87.06-2.31.21-4.31.45s-3.15.39-3.41.46zM280.84 118.5h5.46v27.83h-5.46z"/></g><g class="cls-1"><path class="cls-3" d="M1.9 189.36v-2.82l10-11.07a27.75 27.75 0 003.62-4.74 7.48 7.48 0 001-3.59 5.61 5.61 0 00-1.34-3.83 4.41 4.41 0 00-3.53-1.56 6 6 0 00-4.63 1.61 6.46 6.46 0 00-1.48 4.55H1.51v-.12a8.54 8.54 0 012.6-6.6 10.21 10.21 0 017.5-2.68 8.91 8.91 0 016.55 2.4 8.17 8.17 0 012.4 6.09 9.58 9.58 0 01-1.48 5 32.18 32.18 0 01-4.14 5.37l-8 8.71v.11h10.8l.33-3.49h3.53v6.7zM45.39 177.77c0 3.89-.86 6.86-2.59 8.93a8.73 8.73 0 01-7.08 3.1 8.77 8.77 0 01-7.08-3.11Q26 183.57 26 177.77v-7.2c0-3.88.86-6.85 2.59-8.93a8.66 8.66 0 017.06-3.13 8.75 8.75 0 017.1 3.13c1.74 2.08 2.61 5.05 2.61 8.93zm-4.12-8.08c0-2.63-.47-4.61-1.43-5.94a4.8 4.8 0 00-4.16-2 4.75 4.75 0 00-4.12 2 10.29 10.29 0 00-1.42 5.94v8.92a10.22 10.22 0 001.44 6 4.78 4.78 0 004.14 2 4.72 4.72 0 004.14-2c1-1.34 1.41-3.33 1.41-6zM49.92 189.36v-2.82l10-11.07a27.93 27.93 0 003.63-4.74 7.48 7.48 0 00.95-3.59 5.66 5.66 0 00-1.34-3.83 4.42 4.42 0 00-3.53-1.56 6 6 0 00-4.63 1.61 6.46 6.46 0 00-1.49 4.55h-3.99v-.12a8.57 8.57 0 012.6-6.6 10.25 10.25 0 017.51-2.68 8.92 8.92 0 016.55 2.4 8.16 8.16 0 012.39 6.09 9.66 9.66 0 01-1.47 5 31.76 31.76 0 01-4.1 5.33L55 186v.11h10.8l.33-3.49h3.49v6.7zM74 186.73l4.7-.58v-22.79l-4.78.08v-2.57l8.9-1.92v27.2l4.68.58v2.63H74z"/><path class="cls-2" d="M135.11 189.36a9.12 9.12 0 01-3.37-.55 8.44 8.44 0 01-2.88-2.14c-.26-.28-.89-1.1-1.87-2.48a19.16 19.16 0 00-2.73-3.24 3 3 0 00-1.86-.82 2.89 2.89 0 00-1.49.61 6.22 6.22 0 00-1.51 1.42 2.44 2.44 0 00-.61 1.39 1.68 1.68 0 00.64 1.31 6 6 0 002 1 16.76 16.76 0 013.48 1.51 4.57 4.57 0 012.25 4.15 5.53 5.53 0 01-2.63 5q-2.62 1.71-7.93 1.71h-8.67a7 7 0 01-3.8-1.07 7.14 7.14 0 01-2.65-3 9.66 9.66 0 01-.94-4.33 22.18 22.18 0 011.18-7.11h4.88a15.92 15.92 0 00-.61 2.89 29.4 29.4 0 00-.16 3.41 4.89 4.89 0 00.62 2.38 4.64 4.64 0 001.64 1.76 3.94 3.94 0 002.12.64h6.36a12.25 12.25 0 004.07-.45 1.55 1.55 0 001.08-1.51 1.3 1.3 0 00-.6-1.07 5.91 5.91 0 00-1.93-.79 8.72 8.72 0 01-4.29-2.11 5 5 0 01-1.2-3.53 7.33 7.33 0 011.39-4 12.47 12.47 0 013.6-3.56 7.78 7.78 0 014.23-1.44 5.38 5.38 0 012.2.45 6.93 6.93 0 011.94 1.39 32.26 32.26 0 013.08 4 13.39 13.39 0 002.72 3.14 3.91 3.91 0 002.24.71h.18c.13 0 .19 0 .19.14v4.09c0 .12-.06.18-.19.18zm-24.31 17.92a2.36 2.36 0 01-1.8-.71 2.71 2.71 0 01-.66-1.93 2.82 2.82 0 01.65-1.95 2.64 2.64 0 013.59 0 2.79 2.79 0 01.64 2 2.71 2.71 0 01-.66 2 2.34 2.34 0 01-1.76.59zm6.25 0a2.35 2.35 0 01-1.8-.71 2.71 2.71 0 01-.66-1.93 2.77 2.77 0 01.65-1.95 2.36 2.36 0 011.81-.71 2.31 2.31 0 011.79.71 2.82 2.82 0 01.65 1.95 2.67 2.67 0 01-.68 1.93 2.3 2.3 0 01-1.76.71z"/><path class="cls-2" d="M141.57 185c.13 0 .2 0 .2.14v4.09c0 .12-.07.18-.2.18h-6.64a.16.16 0 01-.18-.18v-4.09c0-.1.06-.14.18-.14z"/><path class="cls-2" d="M147.86 185c.13 0 .19 0 .19.14v4.09c0 .12-.06.18-.19.18h-6.65a.16.16 0 01-.18-.18v-4.09c0-.1.06-.14.18-.14z"/><path class="cls-2" d="M154.14 185c.13 0 .2 0 .2.14v4.09c0 .12-.07.18-.2.18h-6.64a.16.16 0 01-.18-.18v-4.09c0-.1.06-.14.18-.14z"/><path class="cls-2" d="M160.42 185c.13 0 .2 0 .2.14v4.09c0 .12-.07.18-.2.18h-6.64a.16.16 0 01-.18-.18v-4.09c0-.1.06-.14.18-.14z"/><path class="cls-2" d="M166.71 185c.13 0 .19 0 .19.14v4.09c0 .12-.06.18-.19.18h-6.65a.16.16 0 01-.18-.18v-4.09c0-.1.06-.14.18-.14z"/><path class="cls-2" d="M173 185c.13 0 .2 0 .2.14v4.09c0 .12-.07.18-.2.18h-6.64a.16.16 0 01-.18-.18v-4.09c0-.1.06-.14.18-.14z"/><path class="cls-2" d="M179.27 185c.14 0 .2 0 .2.14v4.09c0 .12-.06.18-.2.18h-6.64a.16.16 0 01-.18-.18v-4.09c0-.1.06-.14.18-.14z"/><path class="cls-2" d="M185.56 185c.13 0 .2 0 .2.14v4.09c0 .12-.07.18-.2.18h-6.64a.16.16 0 01-.18-.18v-4.09c0-.1.06-.14.18-.14z"/><path class="cls-2" d="M191.84 185c.13 0 .2 0 .2.14v4.09c0 .12-.07.18-.2.18h-6.64a.16.16 0 01-.18-.18v-4.09c0-.1.06-.14.18-.14z"/><path class="cls-2" d="M198.13 185c.13 0 .19 0 .19.14v4.09c0 .12-.06.18-.19.18h-6.65a.16.16 0 01-.18-.18v-4.09c0-.1.06-.14.18-.14z"/><path class="cls-2" d="M201.92 185a12.53 12.53 0 01-1-5.07 12.31 12.31 0 01.54-3.44 13.4 13.4 0 011.33-3.18 15.78 15.78 0 013.77-1.56 13.79 13.79 0 013.51-.54 9.78 9.78 0 014.57 1.07 7.75 7.75 0 013.19 3.05 9 9 0 011.13 4.57 10.61 10.61 0 01-.68 3.79 3.79 3.79 0 001.52 1 6.52 6.52 0 002.14.3h.2c.12 0 .18 0 .18.14v4.09a.16.16 0 01-.18.18H222a9.47 9.47 0 01-3.36-.54 7.37 7.37 0 01-2.71-1.92 9.31 9.31 0 01-3.21 1.84 11.27 11.27 0 01-3.73.62h-11.22a.16.16 0 01-.18-.18v-4.09c0-.1.06-.14.18-.14zm4.09-4.3a13.37 13.37 0 00.84 4.3h1.39a5.08 5.08 0 003.72-1.49 4.92 4.92 0 001.5-3.61 4.78 4.78 0 00-1-3.12 3.13 3.13 0 00-2.53-1.16 6.8 6.8 0 00-3.43 1 15 15 0 00-.5 4.03z"/><path class="cls-2" d="M228.42 185c.13 0 .19 0 .19.14v4.09c0 .12-.06.18-.19.18h-6.65a.16.16 0 01-.18-.18v-4.09c0-.1.06-.14.18-.14z"/><path class="cls-2" d="M234.7 185c.13 0 .2 0 .2.14v4.09c0 .12-.07.18-.2.18h-6.64a.16.16 0 01-.18-.18v-4.09c0-.1.06-.14.18-.14z"/><path class="cls-2" d="M241 185c.13 0 .2 0 .2.14v4.09c0 .12-.07.18-.2.18h-6.64a.16.16 0 01-.18-.18v-4.09c0-.1.06-.14.18-.14z"/><path class="cls-2" d="M247.27 185c.13 0 .19 0 .19.14v4.09c0 .12-.06.18-.19.18h-6.65a.16.16 0 01-.18-.18v-4.09c0-.1.06-.14.18-.14z"/><path class="cls-2" d="M253.55 185c.13 0 .2 0 .2.14v4.09c0 .12-.07.18-.2.18h-6.64a.16.16 0 01-.18-.18v-4.09c0-.1.06-.14.18-.14z"/><path class="cls-2" d="M253.19 189.36a.16.16 0 01-.18-.18v-4.09c0-.1.06-.14.18-.14h4.6v-23.52h5.47v27.93zM280.7 185c.12 0 .18 0 .18.14v4.09a.16.16 0 01-.18.18h-10.07v-27.98h5.47V185z"/><path class="cls-2" d="M287 185c.13 0 .2 0 .2.14v4.09c0 .12-.07.18-.2.18h-6.64a.16.16 0 01-.18-.18v-4.09c0-.1.06-.14.18-.14z"/><path class="cls-2" d="M293.27 185c.13 0 .19 0 .19.14v4.09c0 .12-.06.18-.19.18h-6.65a.16.16 0 01-.18-.18v-4.09c0-.1.06-.14.18-.14z"/><path class="cls-2" d="M299.55 185c.13 0 .2 0 .2.14v4.09c0 .12-.07.18-.2.18h-6.64a.16.16 0 01-.18-.18v-4.09c0-.1.06-.14.18-.14z"/><path class="cls-2" d="M305.83 185c.13 0 .2 0 .2.14v4.09c0 .12-.07.18-.2.18h-6.64a.16.16 0 01-.18-.18v-4.09c0-.1.06-.14.18-.14z"/><path class="cls-2" d="M312.12 185c.13 0 .19 0 .19.14v4.09c0 .12-.06.18-.19.18h-6.65a.16.16 0 01-.18-.18v-4.09c0-.1.06-.14.18-.14z"/><path class="cls-2" d="M318.4 185c.13 0 .2 0 .2.14v4.09c0 .12-.07.18-.2.18h-6.64a.16.16 0 01-.18-.18v-4.09c0-.1.06-.14.18-.14z"/><path class="cls-2" d="M324.69 185c.13 0 .19 0 .19.14v4.09c0 .12-.06.18-.19.18H318a.16.16 0 01-.18-.18v-4.09c0-.1.06-.14.18-.14z"/><path class="cls-2" d="M331 185c.13 0 .2 0 .2.14v4.09c0 .12-.07.18-.2.18h-6.64a.16.16 0 01-.18-.18v-4.09c0-.1.06-.14.18-.14z"/><path class="cls-2" d="M337.25 185c.13 0 .2 0 .2.14v4.09c0 .12-.07.18-.2.18h-6.64a.16.16 0 01-.18-.18v-4.09c0-.1.06-.14.18-.14z"/><path class="cls-2" d="M343.54 185c.13 0 .19 0 .19.14v4.09c0 .12-.06.18-.19.18h-6.65a.16.16 0 01-.18-.18v-4.09c0-.1.06-.14.18-.14z"/><path class="cls-2" d="M349.82 185c.13 0 .2 0 .2.14v4.09c0 .12-.07.18-.2.18h-6.64a.16.16 0 01-.18-.18v-4.09c0-.1.06-.14.18-.14z"/><path class="cls-2" d="M356.1 185c.14 0 .2 0 .2.14v4.09c0 .12-.06.18-.2.18h-6.64a.16.16 0 01-.18-.18v-4.09c0-.1.06-.14.18-.14z"/><path class="cls-2" d="M362.39 185c.13 0 .2 0 .2.14v4.09c0 .12-.07.18-.2.18h-6.64a.16.16 0 01-.18-.18v-4.09c0-.1.06-.14.18-.14z"/><path class="cls-2" d="M384.6 185c.12 0 .18 0 .18.14v4.09a.16.16 0 01-.18.18h-4.67a12 12 0 01-3.59-.58 12.23 12.23 0 01-3.21-1.48 13.06 13.06 0 01-6.84 2.06H362a.16.16 0 01-.18-.18v-4.09c0-.1.06-.14.18-.14h3.68a9.53 9.53 0 001.82-.2 6.87 6.87 0 001.63-.5 11.68 11.68 0 01-2.32-2.66 23 23 0 01-2.12-4 18.74 18.74 0 01-1.22-4.15 16.74 16.74 0 014.95-2.82 15.44 15.44 0 015.38-1 18.66 18.66 0 019.22 2.21 16.46 16.46 0 01-1.61 7.31 12.18 12.18 0 01-4.38 5.08 6.9 6.9 0 003.32.74zm-11.4-3a8.84 8.84 0 004.63-7.28 11 11 0 00-4.15-.66 9 9 0 00-2.55.41 7.33 7.33 0 00-2.15 1 13.74 13.74 0 001.66 3.81 9 9 0 002.56 2.72z"/><path class="cls-2" d="M390.88 185c.13 0 .2 0 .2.14v4.09c0 .12-.07.18-.2.18h-6.64a.16.16 0 01-.18-.18v-4.09c0-.1.06-.14.18-.14z"/><path class="cls-2" d="M397.17 185c.13 0 .19 0 .19.14v4.09c0 .12-.06.18-.19.18h-6.65a.16.16 0 01-.18-.18v-4.09c0-.1.06-.14.18-.14z"/><path class="cls-2" d="M403.45 185c.13 0 .2 0 .2.14v4.09c0 .12-.07.18-.2.18h-6.64a.16.16 0 01-.18-.18v-4.09c0-.1.06-.14.18-.14z"/><path class="cls-2" d="M403.09 189.36a.16.16 0 01-.18-.18v-4.09c0-.1.06-.14.18-.14h4.6v-23.52h5.47v27.93zM420.52 161.43H426v27.93h-5.48z"/></g><path id="Path_878" data-name="Path 878" d="M186.65 14.7c.8-.6 1.7-1.4 2.8-2.3a9 9 0 001-.9 2.36 2.36 0 00.6-.9 5 5 0 00.5-1.3l.7-2.1h-.1a4.63 4.63 0 01-1.3 1.8 10.92 10.92 0 01-1.7 1.3 12.38 12.38 0 00-1.8 1.4 7.33 7.33 0 00-1.6 2.3v-.1c.4-1.3.8-2.3 1-3.2s.4-1.6.6-2.3a4.92 4.92 0 01.6-1.7 3.74 3.74 0 011.2-1.3A5.81 5.81 0 00186 7.7a6.59 6.59 0 00-1.2 4.1v5.1a8.17 8.17 0 011.85-2.2zm3.4-6.2A20 20 0 00192 6.3l1.6-2.1c.5-.6 1.1-1.2 1.7-1.8l-.1-.1a5.07 5.07 0 01-1.6.9 9.49 9.49 0 00-2.1.9 6 6 0 00-2.1 2.1 12.81 12.81 0 00-1.7 4.2 8.76 8.76 0 002.35-1.9zm-8.1 19a16.6 16.6 0 001.6 2.1 15.1 15.1 0 011.8 2.6 4.87 4.87 0 01-.1-1.2v-1a10.62 10.62 0 01.4-1.9q.45-1.35.9-3c.3-1.1.6-2.2.8-3.3a10.12 10.12 0 00.2-3h-.1a6.39 6.39 0 01-.8 1.9l-1.1 1.9a20 20 0 00-1 2.1 6.72 6.72 0 00-.4 2.4 5 5 0 00.2 1.2c.1.3.1.6.2.9h-.1a26.27 26.27 0 00-.8-3c-.4-1-.7-1.9-1.1-2.7s-.6-1.6-.9-2.3a8.47 8.47 0 01-.4-1.7 4.87 4.87 0 01.1-1.2v-1.1h-.1c-.2.6-.4 1.2-.6 1.9a9.08 9.08 0 00-.3 2.3 13.42 13.42 0 00.4 3.5 10.34 10.34 0 001.25 2.6zm13.2 19.7h.8a4.1 4.1 0 001.1-.1l1.3-.2c.5-.1 1.2-.3 2.1-.5s2-.5 3.4-.8c-.9-.2-1.7-.5-2.4-.7a6.25 6.25 0 01-2-1.3c-.8-.7-1.6-1.5-2.5-2.2-.6-.6-1.3-1.2-2-1.8-.2-.2-1.1-1-1.4-1.3l-.1.1 1 2c.1.1.1.2.2.3.2.4.5.9.7 1.3l.3.5a4.07 4.07 0 001.2 1.4 7.46 7.46 0 003.1 1.5l-1.6-.2-1.2-.2c-.4 0-.7-.1-1.1-.1a5.7 5.7 0 01-1.3-.1c-.4-.1-.7-.1-1-.2l-1-.1a.9.9 0 01-.5-.1l-1.8-.3a7.74 7.74 0 01-1.6-.7 20.28 20.28 0 01-1.8-1.3l-.1.1a7.1 7.1 0 001 1.4l1.5 1.5a11.25 11.25 0 002.1 1.2 9.47 9.47 0 002.9.7l.7.2zm-11.3-22.8h.1a5 5 0 01.2-1.2 6.12 6.12 0 01.5-1.2 9.91 9.91 0 011.1-1.7l1.9-2.8a7.56 7.56 0 001.1-2.6q.45-1.5.6-2.1h-.1l-.3.6a2.65 2.65 0 01-.5.6 5.93 5.93 0 01-.8.8l-1.3 1.2a8.76 8.76 0 00-1.9 2.4 10.88 10.88 0 00-.7 2.4h.2a3.75 3.75 0 01.1-1.1 6.38 6.38 0 000-1.4c0-.7-.1-1.6-.1-2.5s-.1-2.2-.1-3.8a3.53 3.53 0 01.3-1.4 10.41 10.41 0 00.5-1.2h-.1a12.26 12.26 0 00-2.1 3.7 12.76 12.76 0 00-.6 3.4 12.17 12.17 0 00.7 3.8 24.59 24.59 0 011.3 4.1zm7.6 18.8l3 .7 1.6.4a9.51 9.51 0 01-1.5-2 7.22 7.22 0 01-.9-2c-.3-.8-.7-1.8-1.2-3.2a6.12 6.12 0 00-.5-1.2 10.91 10.91 0 01-.6-1.1 8.34 8.34 0 00-.8-1.2c-.3-.4-.7-1-1.2-1.7l-.1.1c.1.5.4 1.3.6 2.6s.5 2.4.8 3.6a6.71 6.71 0 001 2.3 13.36 13.36 0 002 2.1l-.1.1a9.39 9.39 0 01-1.8-1.2 14.52 14.52 0 00-2.6-1.7 37.51 37.51 0 01-4.4-2.4 6.19 6.19 0 01-2.4-2.9l-.1.1a9.68 9.68 0 001.4 3.3 10.41 10.41 0 002.2 2.5 12.71 12.71 0 002.7 1.8 12.37 12.37 0 002.9 1zm-6.8-7.5l5.3 3.6c-.2-.4-.4-.9-.6-1.4a8.33 8.33 0 01-.4-1.5 9 9 0 01-.2-1.8c0-.7-.1-1.4-.2-2.4-.2-1.6-.4-2.8-.5-3.7a12.9 12.9 0 00-.8-2.8h-.1a14.77 14.77 0 01-.1 2.1c-.1.5-.2 1.1-.3 1.6s-.2.9-.3 1.4a6.6 6.6 0 00-.1 1.4 5.37 5.37 0 00.5 2.1 18.94 18.94 0 00.9 2.1l-.1.1a19.1 19.1 0 00-2.4-3.2c-.8-.8-1.5-1.6-2.2-2.3a12 12 0 01-1.7-2.1 5.81 5.81 0 01-.9-2.5 1.7 1.7 0 00-.1.7c0 .2-.1.5-.1.7a10.05 10.05 0 00.4 2.5 12.81 12.81 0 001.1 2.4 9 9 0 001.5 1.9 5.26 5.26 0 001.4 1.1zm44.1-31.4l1.6 2.1a20 20 0 001.9 2.2 12.21 12.21 0 002.5 2 12.81 12.81 0 00-1.7-4.2A10.45 10.45 0 00231 4.3a6.81 6.81 0 00-2.1-1 4.17 4.17 0 01-1.6-.9l-.1.1a14.54 14.54 0 011.6 1.8zm4.8 39.2a11.11 11.11 0 01-1.6.7 11.27 11.27 0 01-1.8.3l-.5.1-1 .1a3 3 0 00-1 .2 5.28 5.28 0 01-1.3.1c-.4 0-.7.1-1.1.1l-1.2.2-1.6.2a8.92 8.92 0 003.1-1.5 4.43 4.43 0 001.2-1.5c.1-.2.2-.3.3-.5.2-.4.5-.9.7-1.3l.2-.3 1-2-.1-.1c-.3.3-1.2 1.1-1.4 1.3-.6.6-1.3 1.2-2 1.8a26.22 26.22 0 01-2.5 2.2 5.33 5.33 0 01-2 1.3c-.7.2-1.5.5-2.4.7l3.4.8c.9.2 1.5.4 2.1.5a8.32 8.32 0 001.3.2 4.1 4.1 0 001.1.1h.8l.7-.1a15.29 15.29 0 002.9-.7 5.71 5.71 0 002.1-1.3 5.36 5.36 0 001.5-1.5 7.1 7.1 0 001-1.4l-.1-.1a11 11 0 01-1.8 1.4zm4-6.1a36.23 36.23 0 01-4.3 2.4 14.52 14.52 0 00-2.6 1.7 5.67 5.67 0 01-1.8 1.2l-.1-.1a19.85 19.85 0 002-2.1 6.71 6.71 0 001-2.3c.2-1.1.5-2.3.8-3.6s.5-2.1.6-2.6l-.1-.1-1.2 1.7c-.3.5-.6.9-.8 1.2a10.91 10.91 0 00-.6 1.1c-.2.4-.3.8-.5 1.2-.5 1.3-.9 2.4-1.2 3.2a12.44 12.44 0 01-1 2 14.91 14.91 0 01-1.5 2l1.6-.4 3-.7a10 10 0 002.9-1 12.71 12.71 0 002.7-1.8 13.15 13.15 0 002.2-2.5 12.15 12.15 0 001.4-3.3v-.1a7.06 7.06 0 01-2.5 2.9zm2.2-13.9c-.4.8-.7 1.7-1.1 2.7a16.66 16.66 0 00-.8 3h-.1a2.92 2.92 0 01.2-.9 5 5 0 00.2-1.2 6.37 6.37 0 00-.4-2.4 20 20 0 00-1-2.1l-1.1-1.9a6.39 6.39 0 01-.8-1.9h-.1a10.12 10.12 0 00.2 3c.2 1.1.5 2.2.8 3.3s.6 2.1.9 3a6.46 6.46 0 01.4 1.9v1a4.87 4.87 0 01-.1 1.2 15.1 15.1 0 011.8-2.6c.6-.7 1.1-1.4 1.6-2.1a8.56 8.56 0 001.1-2.4 11.07 11.07 0 00.4-3.6 5.87 5.87 0 00-.4-2.3c-.2-.6-.4-1.3-.6-1.9h.1v1.1c0 .4.1.8.1 1.2a3.53 3.53 0 01-.4 1.7 17.12 17.12 0 01-.9 2.2zm-2.2-5.1a7.21 7.21 0 00-1.9-2.4l-1.2-1.2a6 6 0 01-.8-.8 3.17 3.17 0 00-.5-.6l-.3-.6h-.1q.15.6.6 2.1a18.89 18.89 0 001.1 2.5l1.9 2.8a16.29 16.29 0 011.1 1.7 6.12 6.12 0 01.5 1.2 5 5 0 01.2 1.2h.1a20.44 20.44 0 011.3-4.2 9.86 9.86 0 00.7-3.8 10.16 10.16 0 00-.6-3.4 13.59 13.59 0 00-2.1-3.7h-.1a6.12 6.12 0 00.5 1.2 3.19 3.19 0 01.3 1.4c0 1.6 0 2.8-.1 3.8a20.9 20.9 0 00-.1 2.5v1.4a4.1 4.1 0 00.1 1.1h-.1a4.93 4.93 0 00-.5-2.2zm-3.2-11.6a4.92 4.92 0 01.6 1.7c.2.7.4 1.4.6 2.3s.6 1.9 1 3.2v.1a7.64 7.64 0 00-1.7-2.3l-1.8-1.5a19.23 19.23 0 01-1.7-1.3 4.63 4.63 0 01-1.3-1.8H230l.7 2.1a6.94 6.94 0 00.5 1.3 5.5 5.5 0 00.7.9 7.53 7.53 0 01.9.9c1.1.9 2 1.7 2.8 2.3a6.74 6.74 0 011.9 2.2v-5.1a7.3 7.3 0 00-1.2-4.1 5.37 5.37 0 00-3.2-2.3v.1a4 4 0 011.3 1.3zM226 48.6a4.87 4.87 0 01-1.2-.1c-.4-.1-.8-.2-1.3-.3l-1.5-.5c-.6-.2-1.2-.4-2-.7l-3.1-1.1a7.79 7.79 0 00-2.1-.4 14.92 14.92 0 00-2.1.2c-.7.2-1.2.3-1.6.4-.3-.1-.8-.2-1.5-.4a7.49 7.49 0 00-2.1-.2 5.22 5.22 0 00-2.1.4l-3.1 1.1a36.81 36.81 0 01-3.6 1.2 10 10 0 01-2.4.4 3.4 3.4 0 01-1-.1 2.92 2.92 0 01-.9-.2 8.2 8.2 0 01-1.1-.4l-1.4-.6-.1.1a12.84 12.84 0 002.6 2 9.31 9.31 0 004 1.2 9.15 9.15 0 001.6-.1 7.37 7.37 0 001.4-.4 10.09 10.09 0 001.5-.7c.5-.3 1.2-.7 2-1.2s1.5-1 2.1-1.3a4.49 4.49 0 011.9-.5 2.92 2.92 0 01.9.2c-1 .5-2.1 1.2-3.3 1.9a16.89 16.89 0 00-3.6 3l1.2 1.1a29.77 29.77 0 013.6-3.5A11.55 11.55 0 01211 47a12 12 0 013.4 2.1 23.77 23.77 0 013.6 3.5l1.2-1.1a16.89 16.89 0 00-3.6-3c-1.3-.8-2.4-1.4-3.3-1.9.3-.1.6-.1.9-.2a3.2 3.2 0 011.9.5 20.61 20.61 0 012.1 1.3l1.9 1.1a10.09 10.09 0 001.5.7 5.73 5.73 0 001.4.4 6.75 6.75 0 001.4.2h.3a9.28 9.28 0 003.3-.7 7.75 7.75 0 003.2-2.4v-.1a24.43 24.43 0 01-2.4 1 3.46 3.46 0 01-1.8.2zm16.1-21v-.5c0-.2-.1-.5-.1-.7a5.38 5.38 0 01-.9 2.5c-.5.7-1.1 1.4-1.7 2.1l-.1.1c-.6.7-1.3 1.4-2.1 2.2a19.1 19.1 0 00-2.4 3.2l.9-2.1a7.79 7.79 0 00.4-2.1 6.15 6.15 0 00-.1-1.4c-.1-.4-.2-.9-.3-1.3a7 7 0 01-.2-1.6 14.77 14.77 0 01-.1-2.1h-.2c-.3.9-.6 1.9-.8 2.8s-.3 2.1-.5 3.7a23.2 23.2 0 00-.2 2.4 9.91 9.91 0 01-.2 1.8 8.33 8.33 0 01-.4 1.5 6.12 6.12 0 01-.5 1.2l-.1.2 1.8-1.2 3.6-2.4a8.64 8.64 0 001.4-1.3 13.3 13.3 0 001.4-1.9 9.14 9.14 0 00.7-1.4c.1-.3.3-.6.4-.9a6.9 6.9 0 00.4-2.5l-.1-.3zM221 6.2c.1.1.3.1.4.2s.2.2.2.3l.2.2c.1 0 .2 0 .2-.2v-.2c0-.2 0-.3-.1-.4a.73.73 0 00-.6-.2l-.1-.1h-.2c-.1 0-.2 0-.2.2a.22.22 0 00.2.2zm-7.7-1.8h.1a2.92 2.92 0 01.9-.2h1a.52.52 0 00.4-.2c.1-.1.2-.2.2-.3a1.05 1.05 0 00-.9-.5c-.2 0-.5-.1-.7-.1l-.9.3-.9.3c-.2 0-.4 0-.4.2s.3.2.4.3a1.2 1.2 0 00.8.2zm-2.2 39.8a21.9 21.9 0 10-21.9-21.9 21.89 21.89 0 0021.9 21.9zm-20.8-21.3h3.3a15.47 15.47 0 00.7 4.3.22.22 0 01-.2-.2l-.1-.1-.4-.5-.6.2c0 .3-.1.5-.4.4a.37.37 0 00-.3-.1c-.4 0-.7.2-.7.6a2.49 2.49 0 00-.1.8l.5 1.3c.1.1.2.2.4.1.1.2.3.3.4.5s.2.2.4.1a.22.22 0 00.2-.2h.1l.3.3a1.38 1.38 0 00.4.3v-.1a.86.86 0 00.6.3 2 2 0 00.4.8.71.71 0 00.6.3c.1 0 .2-.1.3-.1a1.61 1.61 0 00.4.7l.4.2c.1.1.2.1.3.2h.1a2.09 2.09 0 00.4.6l.4.4h.1l.1.2-2.3 2.4a20.65 20.65 0 01-5.7-13.7zm16-6.2l-.2-.1-.2-.2a7.87 7.87 0 014.6-1.9v2.3h-.1v-.1h-.7a.37.37 0 01-.1-.3q-.3.15-.3.3c0 .2-.1.3-.1.5a.78.78 0 01-.4.4.52.52 0 00-.4.2l-.2-.1h-.4l-.2-.2a.1.1 0 01-.1-.1h-.1a.22.22 0 00-.2.2l-.2-.2h.1v-.1a4.17 4.17 0 00-.8-.6zm-1.2-1.1l-2.2-2.2a12.67 12.67 0 017.6-3.2v3.2a9 9 0 00-5.4 2.2zm1.3 10.5a.75.75 0 00.1-.5l-.2.2a1.76 1.76 0 00.4-.5c.1-.1.1-.3.2-.4.1.2.2.3.3.5l-2 2a8 8 0 01-1.7-3.3c.2 0 .3.1.5.1s.3.3.5.4a.37.37 0 00.3-.1l.3.2a.6.6 0 00.1.4l.2.2c.1.1.2.1.3.3l.1-.1V25l.1.5.1.6c.2.1.3.1.4 0zm4.4 2.4l.2.2a.88.88 0 01-.6.2c-.1 0-.2.1-.3.4a2 2 0 00-.1.7h-.1a8.22 8.22 0 01-3.9-1.8l2-2a4.74 4.74 0 002.7 1.2.37.37 0 00.1.3c-.1.1-.2.2-.1.4-.1.1-.1.2.1.4zm-9.8.1c0-.4-.1-.8-.1-1.2a6.37 6.37 0 01-.2-.7 3.55 3.55 0 00-.2-1 5.5 5.5 0 00-.7-.9v-.4c0-.1-.1-.3-.1-.4v-.1c0-.1 0-.2.1-.2l.8-.3a1.7 1.7 0 01.1-.7l.5.1c.1 0 .2-.1.2-.3s-.1-.3-.1-.5a.9.9 0 01-.1-.5c0-.1.1-.2.2-.3a.6.6 0 01.4-.1.76.76 0 01.5.2.9.9 0 01.1.5v.7l.1.1c-.1.5-.3.7-.6.7-.1 0-.3-.1-.3-.2a.22.22 0 00-.2-.2h-.1a.37.37 0 00.1.3c.1.1.1.2.1.4s-.1.5-.5.4q-.15.3.3.3c.1.3.2.4.3.4a.9.9 0 00.1-.5c0-.2.1-.4.1-.6l.1.1.3-.1v.1h.1a8.7 8.7 0 002.1 4.3l-3.1 3.1a.76.76 0 01-.2-.5c.1-.3.4-.5.4-.8l.1-.6c-.3 0-.4-.3-.6-.6zm-1.8-4.6c0 .1.1.2.1.3a.35.35 0 01-.1.2h-.1a8.75 8.75 0 01-.2-1.6h.6a.37.37 0 01-.1.3c-.1.1-.1.2-.2.3a.37.37 0 00-.1.3c.1 0 .1.1.1.2zm-.2-2.2a11.58 11.58 0 013.2-7.6l2.2 2.2-.1.1c-.1 0-.3.1-.4.1s-.2.3-.3.4a2.51 2.51 0 00-.7.4l-.6.6a1.63 1.63 0 00-.6.3.22.22 0 00-.2.2c.1.2.1.4 0 .4l-.7.2c-.1 0-.1 0-.1.1l-.2.2c0 .1-.1.2-.1.3s0 .2-.1.2-.3.2-.4.4a.85.85 0 000 .7l.1.7c0 .1.1.1.1.2zm6.2 7.2a8.1 8.1 0 003.9 2c-.1 0-.2.1-.3.1s-.4.2-.4.5a.55.55 0 01-.3.5c-.2.1-.2.2-.2.3a1.93 1.93 0 01.5.9 1.21 1.21 0 00.7.7l.4.1a.52.52 0 01.4.2l.4.1a12.89 12.89 0 01-7.4-3.1zm-3-16.4l-2.2-2.2A16.29 16.29 0 01210.55 6v3.1a12.32 12.32 0 00-8.4 3.5zm-.8.8a13.22 13.22 0 00-3.5 8.4h-3.1a16.08 16.08 0 014.4-10.6zm-3.5 9.5a8.6 8.6 0 00.1 1.6c0-.1-.1-.1-.1-.2-.2-.2-.3-.4-.4-.4s-.3.1-.3.2-.1.2-.2.3a2 2 0 01-.8.4 1.8 1.8 0 00-.4.9.19.19 0 000 .3c.1.1 0 .2-.1.3a.76.76 0 01.1.4v.1h-.2c0 .1-.1.1-.1.2a18.51 18.51 0 01-.7-4.1zm12.6 20.2a21.1 21.1 0 01-13.8-5.7l2.4-2.4a17.21 17.21 0 0011.4 4.7v3.4zm0-4.4a15.83 15.83 0 01-10.5-4.4 1 1 0 001.2 0l.6-.3a1 1 0 00.7-.2h.5c.2 0 .3-.2.3-.4s-.1-.3-.3-.4-.3-.2-.3-.3 0-.1-.1-.2l-.5-.5a13.22 13.22 0 008.4 3.5zm.6-8.2a1.7 1.7 0 01-.7-.1c0-.1 0-.1-.1-.2.1-.1.2-.2.3-.2a.76.76 0 01.4-.2v-.2l.5-.4c.1 0 .1-.1.2-.1s.3-.1.4-.1.4.1.6.3a1.42 1.42 0 00.6.2l.1-.3c.1 0 .2.1.4.3.1 0 .3-.1.4-.1V29c.1 0 .1 0 .2.1h.3a.76.76 0 00.4-.2c.1-.1.3-.2.4-.3h.1a.37.37 0 01.1.3 1.15 1.15 0 01-.6.9 3.58 3.58 0 01-1.1.4c-.1.1-.1.2-.2.3s-.1.3-.2.3c-.3 0-.6-.1-.9-.1a.76.76 0 01-.2-.4.75.75 0 00-.5.1l-.6.1zm3.2-2.4a.66.66 0 01.4-.5 1.27 1.27 0 01.6-.1c0 .1-.1.3-.4.4a1.42 1.42 0 01-.6.2zm2.2-1.8a.55.55 0 01.3.5c0 .1-.1.3-.2.3h-.1c-.1 0-.3-.2-.4-.5a1 1 0 01-.6-.5c-.1-.2 0-.4.1-.4s.2-.1.3-.1.1.1.1.3zm7-12.2c.1 0 .1 0 .1.1a4.33 4.33 0 01.5.1 10.63 10.63 0 01.9 1.1l.2.2.2.2c.1 0 .3-.1.4-.1s0-.1.1-.2a17.08 17.08 0 011.5 6.2h-3.1v-.1a1.08 1.08 0 00-.2-.8 1.38 1.38 0 01-.1-1.1.64.64 0 000-.6.37.37 0 00-.3.1c-.1.1-.1.2-.2.3s-.1.3-.2.4a.1.1 0 01-.1.1c0 .1 0 .1-.1.2l-.1.6v.8h-1.6a.76.76 0 01.5-.2l.4-.2c-.1 0-.1-.1-.1-.2s0-.2.1-.2l.4-.2a1.61 1.61 0 00.4-.7 3.51 3.51 0 00.6-1.4.76.76 0 00-.2-.4v-.3c0-.5.2-1.4-.4-1.6-.1 0-.1-.1-.1-.2.2-.1.2-.4.1-.6h-.5a.35.35 0 01.1-.2.37.37 0 00.1-.3.22.22 0 00-.2-.2h-.1a.6.6 0 00-.4.1c-.1 0-.1.1-.2.1h.1l-.1-.1a.91.91 0 00-.3-.7 2.09 2.09 0 00-.6-.4v-.3l.6-.6.9.3a.76.76 0 00.2.5c.1.1.2.2.3.2a1.38 1.38 0 00.4.3c.1-.1.2 0 .1 0zm-3 21.2c-.1-.1-.1-.1-.2-.1s-.1 0-.1-.1.1-.2.2-.3a1 1 0 00.4-.5.6.6 0 00.1-.4c0-.1 0-.2-.1-.2s-.2-.1-.3-.2-.2-.1-.3-.1-.3-.1-.4-.2a.52.52 0 01-.2-.4c0-.1.1-.2.1-.4l.1-.2.2-.1 1.7 1.7a.27.27 0 00.3.3l.2.2a13.93 13.93 0 01-1.9 1.5c0-.1.1-.1.1-.2l.1-.1v-.2zm-1-8a.6.6 0 00-.4.1c-.2.1-.4.2-.4.4v.1a.37.37 0 00-.3.1c-.1 0-.2.1-.4.1s-.2 0-.2-.1.2-.2.6-.3l.4-.4a.37.37 0 01.3-.1 2.65 2.65 0 00.6-.5 2.19 2.19 0 00.3-.5h.1c0 .2.1.4.3.4s.3-.2.4-.5a1.27 1.27 0 00.6.1.55.55 0 00.5-.3h.9v.2a12.62 12.62 0 01-2.4 4.4v-.2a4.88 4.88 0 01-.3-.7c-.1 0-.2.2-.4.5s-.2.6-.3.6l-.7.1c-.2 0-.4.1-.7.1a1.42 1.42 0 01-.6-.2l-.6-.3a1.27 1.27 0 00-.6-.1c-.3 0-.4-.1-.4-.2s.1-.2.3-.2a1.27 1.27 0 01.6.1l.9.2c.3.1.6.1.8.2s.3.1.4.1l.4-.1c0-.1.1-.3.1-.4a.6.6 0 00.1-.4c.1-.3.2-.5.3-.8a2.77 2.77 0 00.1-.9c0-.2-.1-.4-.2-.4zm2-4.4h1.7a7.61 7.61 0 01-.3 2.1c-.1-.2-.2-.5-.4-.6l-.6-.6c0-.2-.1-.3-.1-.5s-.1-.1-.1-.2l-.2-.2zm.7 8.9c-.1 0-.2 0-.2.1a.9.9 0 01-.1.5l-1.1-1.1a13.23 13.23 0 003.1-5.7h.1a.45.45 0 00.5 0c.1-.1.1-.1.1-.2s-.1-.3-.4-.6h-.1a12.25 12.25 0 00.2-1.9h3.1a15.88 15.88 0 01-4.4 10.6l-.1-.1a3.55 3.55 0 00-.2-1c-.1-.3-.3-.6-.5-.6zm-.8-15.8a.6.6 0 01-.1.4c0 .1-.1.2-.1.4a2.65 2.65 0 00.6.5c.2.2.4.3.6.5s.3.5.3.8.1.5.2.8a.76.76 0 01-.2.5.67.67 0 01-.7.4l-.1-.1c0-.2.1-.3.1-.4a.6.6 0 00.1-.4.54.54 0 00.3-.4l-.2-.1c-.1-.1-.3-.2-.4-.3s-.1-.2-.4-.2a.6.6 0 00-.4.1l-.4.2-.1-.3c0-.1.1-.2.1-.3l-.6-1a2.35 2.35 0 00-.8-.2H218a.73.73 0 00-.6.2c-.2.1-.3.3-.5.5s0 .2-.2.2l-.2-.2 3.3-3.3.1.1.3.3.3.4a2 2 0 01.9.9zm-7.9 21.8a4.05 4.05 0 00.9.5 12.65 12.65 0 01-2.8.3v-3.1a1.21 1.21 0 00.5.5 1.27 1.27 0 00.6.1c.3 0 .5.1.5.2a.37.37 0 01-.1.3.37.37 0 00-.1.3 1.05 1.05 0 00.5.9zm-1.9 5.3v-3.3a14.87 14.87 0 003.6-.5v.2a2.34 2.34 0 01.7.7c.1.2.4.3.8.3a.55.55 0 00.5-.2c.1-.1.2-.2.2-.3a.52.52 0 01.4-.2c.1 0 .2-.1.3-.2a1 1 0 00.5-.4c.2-.2.4-.4.4-.6.1 0 .2-.1.3-.2a6.89 6.89 0 00.3-.8l.1-.1v-.1a18.6 18.6 0 003.2-2.3l2.4 2.4a21 21 0 01-13.7 5.6zm14.5-6.5l-2.4-2.4a17.21 17.21 0 004.7-11.4h3.3a19.69 19.69 0 01-5.6 13.8zm5.8-14.9h-3.3a17 17 0 00-3.4-9.7c0-.1-.1-.2-.2-.3l-.2-.2a9 9 0 00-.9-1 .35.35 0 00-.1-.2l2.3-2.3a20.75 20.75 0 015.8 13.7zM211.55 1.5a21.1 21.1 0 0113.8 5.7l-2 2c0-.1-.1-.2-.1-.3s-.2-.2-.3-.2a.55.55 0 01-.3-.5c0-.2-.1-.3-.2-.5a1.21 1.21 0 01-.7-.7c-.2-.3-.4-.5-.6-.5a.45.45 0 01-.5 0 1.3 1.3 0 00-1 0c-.2.1-.4.1-.6.2l-.1.1a17.45 17.45 0 00-7.1-1.9c.2-.3.2-.5.1-.6s-.1 0-.3.2zm0 4.4a17.49 17.49 0 016.8 1.7v.1l.3.3c.1.1.2.2.2.3s.1.4.2.6l.2.4a.66.66 0 00.1.6c.1.2.3.4.4.6h.7c.1 0 .2.1.3.2a.76.76 0 01.2.4c0 .1 0 .2.1.2l-.9.9a5.64 5.64 0 00-.4-1.2 1.42 1.42 0 00-.6-.2c0-.1-.2-.3-.5-.6s-.4-.6-.5-.6-.2 0-.2.1.1.2.1.3.1.2.3.5c0 .1 0 .1-.1.1 0 .2.2.3.4.4l-.1.1.2.4a13.3 13.3 0 00-7.2-2.5zm0 4.3a11.58 11.58 0 017.6 3.2L217 15.7a9 9 0 00-5.4-2.2v-3.3zm0 4.3a8 8 0 014.4 1.7c-.1 0-.1 0-.1.1l-.1.1a.35.35 0 00-.1.2c0 .1.2.2.3.2l-.9.9c-.1.1-.2.1-.3.2s-.3.2-.3.3a.35.35 0 01-.1.2l-.3.3H214c-.1 0-.2-.1-.4-.3s-.3-.3-.4-.3-.3 0-.3.1a.19.19 0 01-.3 0q-.15-.15.3-.3l.6-.3a1.43 1.43 0 00.6-1.2c0-.2-.1-.4-.3-.4l-.2.2a1 1 0 00-.5.4l-.4.4a.6.6 0 00-.4-.1h-.4zm-.6 5a.1.1 0 00.1.1.76.76 0 01.4.1.3.3 0 00.4 0c0 .1 0 .1.1.1s.2.2.3.1l.1.1v.1l.1.3v.1h.4v.8h.1v.1a.76.76 0 00-.2.4c0 .1.1.1.2.1a.37.37 0 01.3.1.76.76 0 01.2.4v.6c0 .1 0 .2.1.2a.1.1 0 01.1.1.75.75 0 01-.1.5c0 .2-.1.3-.2.5H213a4.33 4.33 0 01-.5-.1c-.1 0-.2.1-.3.4a1.42 1.42 0 00-.2.6q-.15.3-.3.3h-.4l-.2.4-.1.1a3.72 3.72 0 01-2.2-1l.4-.4a1.85 1.85 0 00.7-.2h.1c.4-.2.4-.5.6-.8s.5-.5.2-.7c.3-.6-1.2-.6-1.5-.5s-.1.5-.3.7-.2.1-.4.2a5.55 5.55 0 00-.6.8 1.42 1.42 0 01-.2-.6h.1v-.1h.1v.1h.4c.1 0 .1-.3.1-.4a3.55 3.55 0 01.4-.9c-.1 0-.1-.1-.2-.2s-.1-.1-.2-.1-.1.1-.1.2-.1.2-.1.3a.37.37 0 01-.3.1.22.22 0 00-.2-.2h-.1c-.1 0-.2.1-.3.1a1.7 1.7 0 00-.7.1h-.7c-.1-.1 0-.2.4-.3a1.09 1.09 0 01.4-.9.6.6 0 00.4.1l.1-.1h.1c.1 0 .2.1.3.4s.1.4.2.4.1 0 .2-.1v-.4c.1-.4.2-.7.2-.8v-.2c.1-.1.1-.3.2-.4h.1c.1-.1.2-.1.3-.2a.75.75 0 00.1-.5l.8-.3c.4-.1.6-.3.6-.5l.5-.1c-.05.8-.05.9.1.9zm-.5-18v3.3a17.21 17.21 0 00-11.4 4.7l-2.4-2.4a21.51 21.51 0 0113.8-5.6zM196 8l2.4 2.4a17.21 17.21 0 00-4.7 11.4h-3.3A20.13 20.13 0 01196 8z" fill="#5190cd"/></svg>
