<svg version="1.1" id="Layer_1" xmlns="http://www.w3.org/2000/svg" x="0" y="0" viewBox="0 0 426 208" xml:space="preserve"><style>.st0{enable-background:new}.st1{fill:#1b344a}.st2{fill:#5090cd}</style><g class="st0"><path class="st1" d="M143.3 111.3c-1.2 1.2-3 2.3-5.3 3.2-2.3 1-5.2 1.4-8.7 1.4-5 0-9.1-1.7-12.2-5-3.1-3.3-4.7-7.7-4.7-13v-1.3c0-5.5 1.5-10 4.6-13.5 3.1-3.5 7.1-5.2 12.1-5.2 2.9 0 5.5.5 7.9 1.4 2.4.9 4.4 2.2 6 3.7v7.4h-5.5l-1-5c-.7-.6-1.6-1-2.7-1.4-1.1-.3-2.4-.5-3.8-.5-3.2 0-5.7 1.2-7.5 3.6-1.8 2.4-2.7 5.5-2.7 9.4v1.3c0 3.8.9 6.8 2.6 9 1.8 2.2 4.3 3.4 7.6 3.4 1.5 0 2.7-.1 3.6-.4.9-.3 1.6-.5 2.2-.9v-6.3l-5.3-.4V97h12.7v14.3zM147 115.5V111l3.9-.8V83.7L147 83v-4.5h15.3V83l-4 .8v26.1h10.4l.4-4.6h5.7v10.3H147zM210.7 97.3c0 5.4-1.5 9.9-4.6 13.4s-7.2 5.3-12.2 5.3c-5 0-9-1.8-12.1-5.3s-4.6-8-4.6-13.4v-.6c0-5.4 1.5-9.9 4.6-13.4 3.1-3.6 7.1-5.3 12.1-5.3s9.1 1.8 12.2 5.3c3.1 3.6 4.7 8 4.7 13.4v.6zm-7.4-.7c0-3.8-.8-6.9-2.4-9.3-1.6-2.4-3.9-3.6-7.1-3.6-3.1 0-5.4 1.2-7 3.6-1.5 2.4-2.3 5.5-2.3 9.3v.6c0 3.9.8 7 2.3 9.4s3.9 3.6 7 3.6 5.5-1.2 7.1-3.6 2.4-5.5 2.4-9.4v-.6zM230.1 78.5c4.3 0 7.7.8 10.2 2.5s3.7 4.2 3.7 7.6c0 1.7-.5 3.2-1.4 4.6s-2.2 2.4-3.9 3c2.2.5 3.9 1.5 5 3s1.7 3.4 1.7 5.4c0 3.5-1.2 6.2-3.5 8s-5.6 2.7-9.9 2.7h-18.2V111l3.9-.8V83.7l-3.9-.8v-4.5h16.3zM225 94h5.3c2 0 3.5-.4 4.6-1.2s1.6-2 1.6-3.6c0-1.7-.5-3-1.6-3.8s-2.7-1.2-4.8-1.2H225V94zm0 5.1v10.7h6.8c2 0 3.5-.4 4.5-1.3s1.5-2.1 1.5-3.8c0-1.8-.4-3.2-1.3-4.2s-2.3-1.4-4.2-1.4H225zM247.6 111l2.6-.4 11.2-32.1h7.6l11.2 32.1 2.6.4v4.4h-12.6V111l2.6-.5-1.6-5.1h-12l-1.6 5.1 2.6.5v4.4h-12.6V111zm13.4-11h8.5l-4.2-13h-.2l-4.1 13zM285.4 115.5V111l3.9-.8V83.7l-3.9-.8v-4.5h15.3V83l-4 .8v26.1h10.4l.4-4.6h5.7v10.3h-27.8z"/></g><g class="st0"><path class="st1" d="M2.4 129v-4.5h15.3v4.5l-4 .8v10.7h15.1v-10.7l-4-.8v-4.5h15.4v4.5l-4 .8v26.5l4 .8v4.4H24.9V157l4-.8V146H13.8v10.2l4 .8v4.4H2.4V157l3.9-.8v-26.5l-3.9-.7zM58 124.5v4.5l-4 .8V149c0 2.4.7 4.3 2 5.5 1.3 1.2 3.1 1.8 5.4 1.8 2.3 0 4.1-.6 5.5-1.8s2-3 2-5.5v-19.3l-3.9-.8v-4.5h15.3v4.5l-4 .8V149c0 4.1-1.4 7.3-4.1 9.6-2.7 2.3-6.3 3.4-10.8 3.4-4.4 0-8-1.1-10.7-3.4s-4.1-5.5-4.1-9.6v-19.3l-3.9-.8v-4.5H58zM118 134.1h-.2l-9.9 27.4h-5L93 134.2h-.2l.7 16.2v5.8l4 .8v4.4H82.4V157l3.9-.8v-26.5l-3.9-.8v-4.5H96l9.4 27.2h.2l9.5-27.2h13.7v4.5l-4 .8v26.5l4 .8v4.4h-15.3V157l3.9-.8v-5.8l.6-16.3zM130.9 157l2.6-.4 11.2-32.1h7.6l11.2 32.1 2.6.4v4.4h-12.6V157l2.6-.5-1.6-5.1h-12l-1.6 5.1 2.6.5v4.4h-12.6V157zm13.5-11h8.5l-4.2-13h-.2l-4.1 13zM206.5 124.5v4.5l-4 .8v31.7h-7.4l-14.9-24.9h-.2v19.7l4 .8v4.4h-15.3V157l3.9-.8v-26.5l-3.9-.8v-4.5H180l14.9 24.9h.2v-19.6l-4-.8v-4.5h15.4zM208.8 129v-4.5h15.3v4.5l-4 .8v26.5l4 .8v4.4h-15.3V157l4-.8v-26.5l-4-.7zM259.5 124.5v9.9h-5.7l-.3-4.1h-6.8v26.1l4 .8v4.4h-15.3V157l4-.8v-26.1h-6.8l-.3 4.1h-5.7v-9.9h32.9zM257 157l2.6-.4 11.2-32.1h7.6l11.2 32.1 2.6.4v4.4h-12.6V157l2.6-.5-1.6-5.1h-12l-1.6 5.1 2.6.5v4.4H257V157zm13.4-11h8.5l-4.2-13h-.2l-4.1 13zM311.3 124.5c4.2 0 7.5 1 9.9 2.9s3.6 4.6 3.6 8c0 1.9-.5 3.5-1.5 4.8s-2.5 2.5-4.4 3.3c2.2.6 3.8 1.7 4.7 3.2s1.4 3.4 1.4 5.6v1.9c0 .8.2 1.4.5 1.9s.9.7 1.6.8l.9.1v4.5h-3.8c-2.4 0-4.1-.7-5.1-2s-1.5-3-1.5-5.1v-2.1c0-1.8-.5-3.2-1.4-4.2s-2.3-1.6-4-1.6H306v9.8l4 .8v4.4h-15.3V157l3.9-.8v-26.5l-3.9-.8v-4.5H311.3zm-5.3 16.3h5.1c2.1 0 3.6-.4 4.6-1.3s1.5-2.1 1.5-3.8-.5-3-1.5-4-2.5-1.5-4.5-1.5H306v10.6zM330.4 129v-4.5h15.3v4.5l-4 .8v26.5l4 .8v4.4h-15.3V157l4-.8v-26.5l-4-.7zM348.2 157l2.6-.4 11.2-32.1h7.6l11.2 32.1 2.6.4v4.4h-12.6V157l2.6-.5-1.6-5.1h-12l-1.6 5.1 2.6.5v4.4h-12.6V157zm13.4-11h8.5l-4.2-13h-.2l-4.1 13zM423.7 124.5v4.5l-4 .8v31.7h-7.4l-14.9-24.9h-.2v19.7l4 .8v4.4h-15.3V157l3.9-.8v-26.5l-3.9-.8v-4.5h11.3l14.9 24.9h.2v-19.6l-4-.8v-4.5h15.4z"/></g><g class="st0"><path class="st1" d="M48 189.3c0 5.4-1.5 9.9-4.6 13.4s-7.2 5.3-12.2 5.3c-5 0-9-1.8-12.1-5.3s-4.6-8-4.6-13.4v-.6c0-5.4 1.5-9.9 4.6-13.4 3.1-3.6 7.1-5.3 12.1-5.3s9.1 1.8 12.2 5.3c3.1 3.6 4.7 8 4.7 13.4v.6zm-7.4-.7c0-3.8-.8-6.9-2.4-9.3-1.6-2.4-3.9-3.6-7.1-3.6-3.1 0-5.4 1.2-7 3.6-1.5 2.4-2.3 5.5-2.3 9.3v.6c0 3.9.8 7 2.3 9.4s3.9 3.6 7 3.6 5.5-1.2 7.1-3.6 2.4-5.5 2.4-9.4v-.6zM63.4 175l-2.8.5 6.6 22.2.5 2h.2l.4-2 6.6-22.2-2.8-.5v-4.5h13.5v4.5l-3.1.4-10.9 32.1H64l-10.9-32.1-3-.4v-4.5h13.5v4.5zM111.5 191.2H99v10.6h12l.3-4.4h5.6v10.1H87.7V203l3.9-.8v-26.5l-3.9-.8v-4.5h29.2v10.1h-5.7l-.3-4.4H99v9.3h12.5v5.8zM137.5 170.5c4.2 0 7.5 1 9.9 2.9s3.6 4.6 3.6 8c0 1.9-.5 3.5-1.5 4.8-1 1.4-2.5 2.5-4.4 3.3 2.2.6 3.8 1.7 4.7 3.2 1 1.5 1.4 3.4 1.4 5.6v1.9c0 .8.2 1.4.5 1.9.3.4.9.7 1.6.8l.9.1v4.5h-3.8c-2.4 0-4.1-.7-5.1-2s-1.5-3-1.5-5.1v-2.1c0-1.8-.5-3.2-1.4-4.2-1-1-2.3-1.6-4-1.6h-6.1v9.8l4 .8v4.4H121V203l3.9-.8v-26.5l-3.9-.8v-4.5h16.5zm-5.3 16.3h5.1c2.1 0 3.6-.4 4.6-1.3 1-.9 1.5-2.1 1.5-3.8s-.5-3-1.5-4-2.5-1.5-4.5-1.5h-5.3v10.6zM167.3 175l-2.8.5 6.6 22.2.5 2h.2l.4-2 6.6-22.2-2.8-.5v-4.5h13.5v4.5l-3.1.4-10.9 32.1h-7.6L157 175.4l-3-.4v-4.5h13.5v4.5zM191.6 175v-4.5h15.3v4.5l-4 .8v26.5l4 .8v4.4h-15.3V203l4-.8v-26.5l-4-.7zM233.6 191.2h-12.5v10.6H233l.3-4.4h5.6v10.1h-29.3V203l3.9-.8v-26.5l-3.9-.8v-4.5h29.2v10.1h-5.7l-.3-4.4H221v9.3h12.5v5.8zM290.8 175l-3 .4-7.5 32.1h-6.9l-6.8-24.4h-.2l-6.8 24.4h-6.9l-7.5-32.1-3-.4v-4.5h13.6v4.5l-3.4.6 4.2 20.3h.2l6.9-25.3h5.5l7 25.3h.2l4.2-20.3-3.4-.6v-4.5h13.6v4.5z"/></g><g class="st0"><path class="st2" d="M306.8 207.5V204l12.1-13.5c2.2-2.4 3.6-4.3 4.4-5.8s1.2-2.9 1.2-4.4c0-1.8-.5-3.4-1.6-4.7s-2.5-1.9-4.3-1.9c-2.6 0-4.4.7-5.6 2s-1.8 3.1-1.8 5.5h-4.8l-.1-.2c-.1-3.2 1-5.9 3.2-8s5.2-3.2 9.1-3.2c3.3 0 6 1 8 2.9s3 4.4 3 7.4c0 2-.6 4-1.8 6s-2.9 4.2-5 6.5l-9.7 10.6.1.1h13.1l.4-4.2h4.2v8.2h-24.1zM359.7 193.4c0 4.7-1 8.3-3.1 10.9s-5 3.8-8.6 3.8c-3.6 0-6.5-1.3-8.6-3.8s-3.2-6.1-3.2-10.8v-8.8c0-4.7 1-8.3 3.1-10.9s5-3.8 8.6-3.8c3.6 0 6.5 1.3 8.6 3.8s3.2 6.1 3.2 10.9v8.7zm-5-9.9c0-3.2-.6-5.6-1.7-7.2s-2.8-2.4-5.1-2.4c-2.2 0-3.9.8-5 2.4s-1.7 4-1.7 7.2v10.8c0 3.2.6 5.6 1.8 7.2s2.8 2.5 5 2.5 3.9-.8 5-2.4 1.7-4 1.7-7.3v-10.8zM365.2 207.5V204l12.1-13.5c2.2-2.4 3.6-4.3 4.4-5.8s1.2-2.9 1.2-4.4c0-1.8-.5-3.4-1.6-4.7s-2.5-1.9-4.3-1.9c-2.6 0-4.4.7-5.6 2s-1.8 3.1-1.8 5.5h-4.8l-.1-.2c-.1-3.2 1-5.9 3.2-8s5.2-3.2 9.1-3.2c3.3 0 6 1 8 2.9s3 4.4 3 7.4c0 2-.6 4-1.8 6s-2.9 4.2-5 6.5l-9.7 10.6.1.1h13.1l.4-4.2h4.2v8.2h-24.1zM394.5 204.3l5.7-.7v-27.7l-5.8.1v-3.1l10.8-2.3v33.1l5.7.7v3.2h-16.4v-3.3z"/></g><path id="Path_878" class="st2" d="M186.7 15.2c.8-.6 1.7-1.4 2.8-2.3.4-.3.7-.6 1-.9.3-.3.5-.6.6-.9.2-.4.4-.8.5-1.3l.7-2.1h-.1c-.3.7-.7 1.3-1.3 1.8-.5.5-1.1.9-1.7 1.3-.6.4-1.3.9-1.8 1.4-.7.7-1.2 1.4-1.6 2.3v-.1c.4-1.3.8-2.3 1-3.2s.4-1.6.6-2.3c.1-.6.3-1.2.6-1.7s.7-1 1.2-1.3c-1.3.4-2.5 1.2-3.2 2.3-.8 1.2-1.3 2.6-1.2 4.1v5.1c.5-.9 1.2-1.6 1.9-2.2zm3.4-6.2c.7-.7 1.3-1.4 1.9-2.2l1.6-2.1c.5-.6 1.1-1.2 1.7-1.8l-.1-.1c-.5.4-1 .7-1.6.9-.7.2-1.4.5-2.1.9-.8.5-1.6 1.2-2.1 2.1-.8 1.3-1.4 2.7-1.7 4.2.9-.5 1.7-1.1 2.4-1.9zM182 28c.5.7 1 1.5 1.6 2.1.7.8 1.3 1.7 1.8 2.6-.1-.4-.1-.8-.1-1.2v-1c.1-.7.2-1.3.4-1.9.3-.9.6-1.9.9-3s.6-2.2.8-3.3c.2-1 .3-2 .2-3h-.1c-.2.7-.4 1.3-.8 1.9l-1.1 1.9c-.4.7-.7 1.4-1 2.1-.3.8-.4 1.6-.4 2.4 0 .4.1.8.2 1.2.1.3.1.6.2.9h-.1c-.2-1-.5-2.1-.8-3-.4-1-.7-1.9-1.1-2.7s-.6-1.6-.9-2.3c-.2-.5-.3-1.1-.4-1.7 0-.4 0-.8.1-1.2v-1.1h-.1c-.2.6-.4 1.2-.6 1.9-.2.8-.3 1.5-.3 2.3 0 1.2.1 2.4.4 3.5.3 1 .7 1.8 1.2 2.6zm13.2 19.7h.8c.4 0 .7 0 1.1-.1l1.3-.2c.5-.1 1.2-.3 2.1-.5.9-.2 2-.5 3.4-.8-.9-.2-1.7-.5-2.4-.7-.7-.3-1.4-.7-2-1.3-.8-.7-1.6-1.5-2.5-2.2-.6-.6-1.3-1.2-2-1.8-.2-.2-1.1-1-1.4-1.3l-.1.1 1 2c.1.1.1.2.2.3.2.4.5.9.7 1.3l.3.5c.3.6.7 1 1.2 1.4.9.7 2 1.3 3.1 1.5l-1.6-.2-1.2-.2c-.4 0-.7-.1-1.1-.1s-.9 0-1.3-.1-.7-.1-1-.2l-1-.1c-.2 0-.3 0-.5-.1l-1.8-.3c-.6-.2-1.1-.4-1.6-.7-.6-.4-1.2-.8-1.8-1.3l-.1.1c.3.5.6 1 1 1.4l1.5 1.5c.7.5 1.4.9 2.1 1.2.9.4 1.9.6 2.9.7l.7.2zm-11.3-22.8h.1c0-.4.1-.8.2-1.2.1-.4.3-.8.5-1.2.3-.6.7-1.2 1.1-1.7l1.9-2.8c.5-.8.9-1.6 1.1-2.6.3-1 .5-1.7.6-2.1h-.1l-.3.6c-.1.2-.3.4-.5.6s-.4.5-.8.8l-1.3 1.2c-.8.7-1.4 1.5-1.9 2.4-.3.8-.6 1.6-.7 2.4h.2c0-.4 0-.8.1-1.1s0-.8 0-1.4c0-.7-.1-1.6-.1-2.5s-.1-2.2-.1-3.8c0-.5.1-.9.3-1.4.2-.4.4-.9.5-1.2h-.1c-.9 1.1-1.6 2.3-2.1 3.7-.4 1.1-.5 2.2-.6 3.4 0 1.3.3 2.6.7 3.8.5 1.2 1 2.7 1.3 4.1zm7.6 18.8l3 .7 1.6.4c-.6-.6-1.1-1.3-1.5-2-.4-.6-.7-1.3-.9-2-.3-.8-.7-1.8-1.2-3.2-.1-.4-.3-.8-.5-1.2-.2-.3-.4-.7-.6-1.1s-.5-.8-.8-1.2-.7-1-1.2-1.7l-.1.1c.1.5.4 1.3.6 2.6s.5 2.4.8 3.6c.2.8.5 1.6 1 2.3.6.8 1.3 1.5 2 2.1l-.1.1c-.6-.3-1.2-.7-1.8-1.2-.8-.7-1.7-1.2-2.6-1.7-1.5-.7-3-1.5-4.4-2.4-1.1-.7-1.9-1.7-2.4-2.9l-.1.1c.3 1.2.7 2.3 1.4 3.3.6.9 1.3 1.8 2.2 2.5.8.7 1.7 1.3 2.7 1.8.9.4 1.8.8 2.9 1zm-6.8-7.5l5.3 3.6c-.2-.4-.4-.9-.6-1.4-.2-.5-.3-1-.4-1.5-.1-.5-.2-1.1-.2-1.8s-.1-1.4-.2-2.4c-.2-1.6-.4-2.8-.5-3.7-.2-1-.4-1.9-.8-2.8h-.1c0 .7 0 1.4-.1 2.1-.1.5-.2 1.1-.3 1.6-.1.5-.2.9-.3 1.4-.1.5-.1.9-.1 1.4 0 .7.2 1.4.5 2.1.3.7.5 1.4.9 2.1l-.1.1c-.7-1.2-1.5-2.2-2.4-3.2-.8-.8-1.5-1.6-2.2-2.3-.6-.6-1.2-1.3-1.7-2.1s-.8-1.6-.9-2.5c-.1.2-.1.5-.1.7 0 .2-.1.5-.1.7 0 .9.2 1.7.4 2.5.3.8.6 1.6 1.1 2.4.4.7.9 1.3 1.5 1.9.4.4.8.8 1.4 1.1zm44.1-31.4l1.6 2.1c.6.8 1.2 1.5 1.9 2.2.7.8 1.6 1.4 2.5 2-.3-1.5-.9-2.9-1.7-4.2-.6-.8-1.3-1.5-2.1-2.1-.6-.4-1.3-.8-2.1-1-.6-.2-1.2-.5-1.6-.9l-.1.1c.5.5 1.1 1.1 1.6 1.8zm4.8 39.2c-.5.3-1.1.5-1.6.7-.6.1-1.2.3-1.8.3l-.5.1-1 .1c-.4 0-.7.1-1 .2s-.9.1-1.3.1-.7.1-1.1.1l-1.2.2-1.6.2c1.1-.3 2.2-.8 3.1-1.5.5-.4.9-.9 1.2-1.5.1-.2.2-.3.3-.5.2-.4.5-.9.7-1.3l.2-.3 1-2-.1-.1c-.3.3-1.2 1.1-1.4 1.3-.6.6-1.3 1.2-2 1.8-.8.8-1.6 1.5-2.5 2.2-.6.6-1.2 1-2 1.3-.7.2-1.5.5-2.4.7l3.4.8c.9.2 1.5.4 2.1.5.5.1 1 .2 1.3.2.4.1.7.1 1.1.1h.8l.7-.1c1-.1 1.9-.4 2.9-.7.8-.3 1.5-.7 2.1-1.3.6-.4 1.1-.9 1.5-1.5.4-.4.7-.9 1-1.4l-.1-.1c-.6.6-1.2 1-1.8 1.4zm4-6.1c-1.4.9-2.8 1.7-4.3 2.4-.9.5-1.8 1-2.6 1.7-.5.5-1.1.9-1.8 1.2l-.1-.1c.7-.6 1.4-1.4 2-2.1.5-.7.8-1.5 1-2.3.2-1.1.5-2.3.8-3.6s.5-2.1.6-2.6l-.1-.1-1.2 1.7c-.3.5-.6.9-.8 1.2s-.4.7-.6 1.1c-.2.4-.3.8-.5 1.2-.5 1.3-.9 2.4-1.2 3.2-.3.7-.6 1.4-1 2-.4.7-1 1.4-1.5 2l1.6-.4 3-.7c1-.2 2-.5 2.9-1 1-.5 1.9-1.1 2.7-1.8.8-.7 1.6-1.6 2.2-2.5.6-1 1.1-2.1 1.4-3.3V35c-.6 1.2-1.4 2.2-2.5 2.9zm2.2-13.9c-.4.8-.7 1.7-1.1 2.7-.4 1-.6 2-.8 3h-.1c0-.3.1-.6.2-.9.1-.4.2-.8.2-1.2 0-.8-.1-1.7-.4-2.4-.3-.7-.6-1.4-1-2.1l-1.1-1.9c-.4-.6-.6-1.2-.8-1.9h-.1c-.1 1 0 2 .2 3 .2 1.1.5 2.2.8 3.3.3 1.1.6 2.1.9 3 .2.6.4 1.3.4 1.9v1c0 .4 0 .8-.1 1.2.5-.9 1.1-1.8 1.8-2.6.6-.7 1.1-1.4 1.6-2.1.5-.8.9-1.6 1.1-2.4.3-1.2.5-2.4.4-3.6 0-.8-.1-1.6-.4-2.3-.2-.6-.4-1.3-.6-1.9h.1v1.1c0 .4.1.8.1 1.2 0 .6-.1 1.1-.4 1.7-.2.6-.5 1.4-.9 2.2zm-2.2-5.1c-.4-.9-1.1-1.7-1.9-2.4l-1.2-1.2c-.3-.3-.6-.5-.8-.8s-.3-.4-.5-.6l-.3-.6h-.1c.1.4.3 1.1.6 2.1.3.9.7 1.7 1.1 2.5l1.9 2.8c.4.6.8 1.1 1.1 1.7.2.4.4.8.5 1.2.1.4.2.8.2 1.2h.1c.3-1.4.7-2.9 1.3-4.2.5-1.2.7-2.5.7-3.8 0-1.1-.2-2.3-.6-3.4-.5-1.3-1.2-2.6-2.1-3.7h-.1c.1.4.3.8.5 1.2.2.4.3.9.3 1.4 0 1.6 0 2.8-.1 3.8-.1.8-.1 1.7-.1 2.5V20c0 .4 0 .7.1 1.1h-.1c.1-.6-.2-1.4-.5-2.2zm-3.2-11.6c.3.5.5 1.1.6 1.7.2.7.4 1.4.6 2.3s.6 1.9 1 3.2v.1c-.4-.9-1-1.6-1.7-2.3l-1.8-1.5c-.6-.4-1.1-.8-1.7-1.3-.6-.5-1-1.1-1.3-1.8h-.1l.7 2.1c.1.4.3.9.5 1.3.2.3.4.6.7.9.2.2.6.5.9.9 1.1.9 2 1.7 2.8 2.3.8.6 1.4 1.3 1.9 2.2v-5.1c0-1.5-.4-2.9-1.2-4.1-.7-1.1-1.9-2-3.2-2.3V6c.6.4 1 .8 1.3 1.3zM226 49.1c-.4 0-.8 0-1.2-.1-.4-.1-.8-.2-1.3-.3l-1.5-.5c-.6-.2-1.2-.4-2-.7l-3.1-1.1c-.7-.2-1.4-.4-2.1-.4-.7 0-1.4.1-2.1.2-.7.2-1.2.3-1.6.4-.3-.1-.8-.2-1.5-.4s-1.4-.2-2.1-.2c-.7 0-1.4.1-2.1.4l-3.1 1.1c-1.6.6-2.8 1-3.6 1.2-.8.2-1.6.4-2.4.4-.3 0-.7 0-1-.1-.3 0-.6-.1-.9-.2 0 0-.7-.2-1.1-.4l-1.4-.6-.1.1c.8.8 1.6 1.4 2.6 2 1.2.7 2.6 1.1 4 1.2.5 0 1 0 1.6-.1.5-.1.9-.2 1.4-.4.5-.2 1-.4 1.5-.7s1.2-.7 2-1.2 1.5-1 2.1-1.3c.6-.3 1.3-.5 1.9-.5.3 0 .6.1.9.2-1 .5-2.1 1.2-3.3 1.9-1.3.8-2.5 1.8-3.6 3l1.2 1.1c1.1-1.3 2.3-2.4 3.6-3.5 1-.9 2.1-1.6 3.3-2.1 1.2.5 2.4 1.2 3.4 2.1 1.3 1 2.5 2.2 3.6 3.5l1.2-1.1c-1.1-1.2-2.3-2.2-3.6-3-1.3-.8-2.4-1.4-3.3-1.9.3-.1.6-.1.9-.2.7 0 1.3.1 1.9.5.6.3 1.2.7 2.1 1.3l1.9 1.1c.5.3 1 .5 1.5.7.4.2.9.3 1.4.4.5.1.9.2 1.4.2h.3c1.1 0 2.3-.3 3.3-.7 1.3-.5 2.4-1.4 3.2-2.4v-.1c-.8.4-1.6.7-2.4 1-.5.2-1.1.3-1.8.2zm16.1-21v-.5c0-.2-.1-.5-.1-.7-.1.9-.4 1.8-.9 2.5s-1.1 1.4-1.7 2.1l-.1.1c-.6.7-1.3 1.4-2.1 2.2-.9 1-1.7 2-2.4 3.2l.9-2.1c.2-.7.4-1.4.4-2.1 0-.5 0-1-.1-1.4-.1-.4-.2-.9-.3-1.3s-.2-1-.2-1.6c-.1-.7-.1-1.4-.1-2.1h-.2c-.3.9-.6 1.9-.8 2.8-.1.9-.3 2.1-.5 3.7-.1.9-.2 1.7-.2 2.4s-.1 1.2-.2 1.8c-.1.5-.2 1-.4 1.5-.1.4-.3.8-.5 1.2l-.1.2 1.8-1.2 3.6-2.4c.5-.4 1-.8 1.4-1.3.5-.6 1-1.2 1.4-1.9.3-.5.5-.9.7-1.4.1-.3.3-.6.4-.9.3-.8.4-1.6.4-2.5l-.1-.3zM221 6.7c.1.1.3.1.4.2.1.1.2.2.2.3l.2.2c.1 0 .2 0 .2-.2v-.1V7c0-.2 0-.3-.1-.4-.2-.2-.4-.2-.6-.2l-.1-.1h-.2c-.1 0-.2 0-.2.2 0 .1.1.2.2.2zm-7.7-1.8h.1c.3-.1.6-.2.9-.2h1c.2 0 .3-.1.4-.2.1-.1.2-.2.2-.3-.2-.3-.5-.5-.9-.5-.2 0-.5-.1-.7-.1l-.9.3-.9.3c-.2 0-.4 0-.4.2.1.1.3.2.4.3.3.2.5.2.8.2zm-2.2 39.8c12.1 0 21.9-9.8 21.9-21.9C233 10.7 223.2.9 211.1.9c-12.1 0-21.9 9.8-21.9 21.9 0 12.1 9.8 21.9 21.9 21.9zm-20.8-21.3h3.3c0 1.5.3 2.9.7 4.3-.1 0-.2-.1-.2-.2l-.1-.1-.4-.5-.6.2c0 .3-.1.5-.4.4-.1-.1-.2-.1-.3-.1-.4 0-.7.2-.7.6-.1.3-.1.6-.1.8l.5 1.3c.1.1.2.2.4.1.1.2.3.3.4.5.1.1.2.2.4.1.1 0 .2-.1.2-.2h.1l.3.3c.1.1.2.2.4.3v-.1c.2.2.4.3.6.3.1.3.2.6.4.8.1.2.4.3.6.3.1 0 .2-.1.3-.1.1.3.2.5.4.7l.4.2c.1.1.2.1.3.2h.1c.1.2.2.4.4.6l.4.4h.1l.1.2-2.3 2.4c-3.5-3.7-5.6-8.6-5.7-13.7zm16-6.2l-.2-.1-.2-.2c1.3-1.1 2.9-1.8 4.6-1.9v2.3h-.1v-.1H209.7c-.1-.1-.1-.2-.1-.3-.2.1-.3.2-.3.3 0 .2-.1.3-.1.5-.1.2-.2.3-.4.4-.2 0-.3.1-.4.2l-.2-.1h-.4l-.2-.2c-.1 0-.1-.1-.1-.1h-.1c-.1 0-.2.1-.2.2l-.2-.2h.1v-.1c-.3-.3-.5-.4-.8-.6zm-1.2-1.1l-2.2-2.2c2.1-1.9 4.8-3 7.6-3.2v3.2c-2 .1-3.9.9-5.4 2.2zm1.3 10.5c.1-.1.1-.3.1-.5l-.2.2c.2-.2.3-.3.4-.5.1-.1.1-.3.2-.4.1.2.2.3.3.5l-2 2c-.8-.9-1.4-2.1-1.7-3.3.2 0 .3.1.5.1.2.1.3.3.5.4.1 0 .2 0 .3-.1l.3.2c0 .1 0 .3.1.4l.2.2c.1.1.2.1.3.3l.1-.1v-.3-.2l.1.5.1.6c.2.1.3.1.4 0zm4.4 2.4l.2.2s-.2.2-.6.2c-.1 0-.2.1-.3.4s-.1.5-.1.7h-.1c-1.4-.2-2.8-.9-3.9-1.8l2-2c.8.7 1.7 1.1 2.7 1.2 0 .1 0 .2.1.3-.1.1-.2.2-.1.4-.1.1-.1.2.1.4zm-9.8.1c0-.4-.1-.8-.1-1.2-.1-.2-.1-.4-.2-.7 0-.3-.1-.7-.2-1-.2-.3-.4-.6-.7-.9v-.4c0-.1-.1-.3-.1-.4v-.1c0-.1 0-.2.1-.2l.8-.3c0-.2 0-.5.1-.7l.5.1c.1 0 .2-.1.2-.3 0-.2-.1-.3-.1-.5-.1-.2-.1-.3-.1-.5 0-.1.1-.2.2-.3.1-.1.3-.1.4-.1.2 0 .4.1.5.2.1.2.1.3.1.5v.7l.1.1c-.1.5-.3.7-.6.7-.1 0-.3-.1-.3-.2s-.1-.2-.2-.2h-.1c0 .1 0 .2.1.3.1.1.1.2.1.4 0 .3-.1.5-.5.4-.1.2 0 .3.3.3.1.3.2.4.3.4.1-.2.1-.3.1-.5s.1-.4.1-.6l.1.1.3-.1v.1h.1c.3 1.6 1 3.1 2.1 4.3l-3.1 3.1c-.1-.1-.2-.3-.2-.5.1-.3.4-.5.4-.8l.1-.6c-.3 0-.4-.3-.6-.6zm-1.8-4.6c0 .1.1.2.1.3 0 .1-.1.2-.1.2h-.1c-.1-.5-.2-1.1-.2-1.6h.6c0 .1 0 .2-.1.3-.1.1-.1.2-.2.3-.1.1-.1.2-.1.3.1 0 .1.1.1.2zm-.2-2.2c.1-2.8 1.2-5.5 3.2-7.6l2.2 2.2-.1.1c-.1 0-.3.1-.4.1-.1.1-.2.3-.3.4-.2.1-.5.2-.7.4l-.6.6c-.3.1-.5.2-.6.3-.1 0-.2.1-.2.2.1.2.1.4 0 .4l-.7.2c-.1 0-.1 0-.1.1l-.2.2c0 .1-.1.2-.1.3 0 .1 0 .2-.1.2-.1.1-.3.2-.4.4-.1.2-.1.4 0 .7l.1.7c0 .1.1.1.1.2l-1.1-.1zm6.2 7.2c1.1 1 2.4 1.7 3.9 2-.1 0-.2.1-.3.1-.2.1-.4.2-.4.5 0 .2-.1.4-.3.5-.2.1-.2.2-.2.3.2.2.4.5.5.9.1.3.4.6.7.7l.4.1c.2 0 .3.1.4.2l.4.1c-2.7-.2-5.3-1.3-7.4-3.1l2.3-2.3zm-3-16.4l-2.2-2.2c2.9-2.7 6.7-4.3 10.6-4.4v3.1c-3.2.1-6.2 1.3-8.4 3.5zm-.8.8c-2.1 2.3-3.4 5.3-3.5 8.4h-3.1c.1-4 1.7-7.7 4.4-10.6l2.2 2.2zm-3.5 9.5c0 .5 0 1.1.1 1.6 0-.1-.1-.1-.1-.2-.2-.2-.3-.4-.4-.4-.1 0-.3.1-.3.2-.1.1-.1.2-.2.3-.2.2-.5.3-.8.4-.2.3-.4.6-.4.9-.1.1-.1.2 0 .3.1.1 0 .2-.1.3.1.2.1.3.1.4v.1h-.2c0 .1-.1.1-.1.2-.4-1.3-.6-2.7-.7-4.1h3.1zm12.6 20.2c-5.1-.1-10-2.2-13.8-5.7l2.4-2.4c3.1 2.9 7.1 4.6 11.4 4.7v3.4zm0-4.4c-3.9-.1-7.7-1.7-10.5-4.4.2.1.4.2.6.2.2 0 .4-.1.6-.2l.6-.3c.2 0 .5 0 .7-.2h.5c.2 0 .3-.2.3-.4s-.1-.3-.3-.4c-.2-.1-.3-.2-.3-.3s0-.1-.1-.2l-.5-.5c2.3 2.1 5.3 3.4 8.4 3.5v3.2zm.6-8.2c-.2 0-.5 0-.7-.1 0-.1 0-.1-.1-.2.1-.1.2-.2.3-.2.1-.1.3-.2.4-.2v-.2l.5-.4c.1 0 .1-.1.2-.1s.3-.1.4-.1c.2.1.4.1.6.3.2.1.4.2.6.2l.1-.3c.1 0 .2.1.4.3.1 0 .3-.1.4-.1v-.4c.1 0 .1 0 .2.1H214.7c.1 0 .3-.1.4-.2.1-.1.3-.2.4-.3h.1c.1.1.1.2.1.3 0 .4-.3.7-.6.9-.3.2-.7.3-1.1.4-.1.1-.1.2-.2.3-.1.2-.1.3-.2.3-.3 0-.6-.1-.9-.1-.1-.1-.2-.3-.2-.4-.2 0-.4 0-.5.1l-.6.1h-.3zm3.2-2.4c0-.2.2-.4.4-.5.2-.1.4-.1.6-.1 0 .1-.1.3-.4.4-.2.1-.4.2-.6.2zm2.2-1.8c.2.1.3.3.3.5 0 .1-.1.3-.2.3h-.1c-.1 0-.3-.2-.4-.5-.3-.1-.5-.3-.6-.5s0-.4.1-.4.2-.1.3-.1c.1 0 .1.1.1.3l.5.4zm7-12.2c.1 0 .1 0 .1.1.2 0 .4.1.5.1.3.3.6.7.9 1.1l.2.2.2.2c.1 0 .3-.1.4-.1 0-.1 0-.1.1-.2.9 2 1.4 4.1 1.5 6.2h-3.1v-.1c0-.3 0-.6-.2-.8-.2-.3-.2-.7-.1-1.1.1-.2.1-.4 0-.6-.1 0-.2 0-.3.1-.1.1-.1.2-.2.3-.1.2-.1.3-.2.4 0 0 0 .1-.1.1 0 .1 0 .1-.1.2l-.1.6v.8h-1.6c.1-.1.3-.2.5-.2l.4-.2c-.1 0-.1-.1-.1-.2s0-.2.1-.2l.4-.2c.2-.2.3-.4.4-.7.3-.4.5-.9.6-1.4 0-.1-.1-.3-.2-.4v-.3c0-.5.2-1.4-.4-1.6-.1 0-.1-.1-.1-.2.2-.1.2-.4.1-.6h-.5c0-.1.1-.2.1-.2.1-.1.1-.2.1-.3 0-.1-.1-.2-.2-.2h-.1c-.1 0-.3 0-.4.1-.1 0-.1.1-.2.1h.1l-.1-.1c0-.3-.1-.5-.3-.7-.2-.2-.4-.3-.6-.4v-.3l.6-.6.9.3c0 .2.1.4.2.5.1.1.2.2.3.2.1.1.2.2.4.3.1-.1.2 0 .1 0zm-3 21.2c-.1-.1-.1-.1-.2-.1s-.1 0-.1-.1.1-.2.2-.3c.2-.1.3-.3.4-.5.1-.1.1-.3.1-.4 0-.1 0-.2-.1-.2s-.2-.1-.3-.2c-.1 0-.2-.1-.3-.1-.1-.1-.3-.1-.4-.2-.1-.1-.2-.2-.2-.4 0-.1.1-.2.1-.4l.1-.2.2-.1 1.7 1.7c0 .2.1.3.3.3l.2.2c-.6.5-1.2 1.1-1.9 1.5 0-.1.1-.1.1-.2l.1-.1v-.2zm-1-8c-.1 0-.3 0-.4.1-.2.1-.4.2-.4.4v.1c-.1 0-.2 0-.3.1-.1 0-.2.1-.4.1-.1 0-.2 0-.2-.1s.2-.2.6-.3l.4-.4c.1-.1.2-.1.3-.1.2-.1.4-.3.6-.5.1-.1.2-.3.3-.5h.1c0 .2.1.4.3.4s.3-.2.4-.5c.2.1.4.1.6.1.2 0 .4-.1.5-.3h.9v.2c-.5 1.6-1.3 3.1-2.4 4.4v-.2c-.1-.2-.2-.4-.3-.7-.1 0-.2.2-.4.5s-.2.6-.3.6l-.7.1c-.2 0-.4.1-.7.1-.2 0-.4-.1-.6-.2l-.6-.3c-.2-.1-.4-.1-.6-.1-.3 0-.4-.1-.4-.2s.1-.2.3-.2c.2 0 .4 0 .6.1l.9.2c.3.1.6.1.8.2.1 0 .3.1.4.1l.4-.1c0-.1.1-.3.1-.4.1-.1.1-.3.1-.4.1-.3.2-.5.3-.8.1-.3.1-.6.1-.9 0-.2-.1-.4-.2-.4l-.1-.2zm2-4.4h1.7c0 .7-.1 1.4-.3 2.1-.1-.2-.2-.5-.4-.6l-.6-.6c0-.2-.1-.3-.1-.5 0-.1-.1-.1-.1-.2l-.2-.2zm.7 8.9c-.1 0-.2 0-.2.1 0 .2 0 .3-.1.5l-1.1-1.1c1.5-1.6 2.5-3.5 3.1-5.7h.1c.2.1.4.1.5 0 .1-.1.1-.1.1-.2s-.1-.3-.4-.6h-.1c.1-.6.2-1.3.2-1.9h3.1c-.1 4-1.7 7.8-4.4 10.6l-.1-.1c0-.3-.1-.7-.2-1s-.3-.6-.5-.6zm-.8-15.8c0 .1 0 .3-.1.4 0 .1-.1.2-.1.4.2.2.4.4.6.5.2.2.4.3.6.5.1.3.3.5.3.8.1.3.1.5.2.8 0 .2-.1.4-.2.5-.1.3-.4.4-.7.4l-.1-.1c0-.2.1-.3.1-.4.1-.1.1-.3.1-.4.2-.1.3-.3.3-.4l-.2-.1c-.1-.1-.3-.2-.4-.3 0-.1-.1-.2-.4-.2-.1 0-.3 0-.4.1l-.4.2-.1-.3c0-.1.1-.2.1-.3l-.6-1c-.3-.1-.5-.2-.8-.2H218c-.2 0-.4 0-.6.2-.2.1-.3.3-.5.5-.1.1 0 .2-.2.2l-.2-.2 3.3-3.3.1.1.3.3.3.4c.4.2.7.5.9.9zm-7.9 21.8c.3.2.6.4.9.5-.9.2-1.8.3-2.8.3V36c.1.2.3.4.5.5.2.1.4.1.6.1.3 0 .5.1.5.2s0 .2-.1.3c-.1.1-.1.2-.1.3 0 .4.2.7.5.9zm-1.9 5.3v-3.3c1.2 0 2.4-.2 3.6-.5v.2c.3.2.5.4.7.7.1.2.4.3.8.3.2 0 .3 0 .5-.2.1-.1.2-.2.2-.3.1-.1.2-.2.4-.2.1 0 .2-.1.3-.2.2-.1.4-.2.5-.4.2-.2.4-.4.4-.6.1 0 .2-.1.3-.2.1-.2.2-.5.3-.8l.1-.1v-.1c1.2-.7 2.2-1.4 3.2-2.3l2.4 2.4c-3.7 3.4-8.6 5.5-13.7 5.6zm14.5-6.5l-2.4-2.4c2.9-3.1 4.6-7.1 4.7-11.4h3.3c0 5.2-2 10.1-5.6 13.8zm5.8-14.9h-3.3c-.1-3.5-1.3-6.9-3.4-9.7 0-.1-.1-.2-.2-.3l-.2-.2c-.3-.4-.6-.7-.9-1 0-.1-.1-.2-.1-.2l2.3-2.3c3.6 3.7 5.6 8.6 5.8 13.7zM211.6 2c5.1.1 10 2.2 13.8 5.7l-2 2c0-.1-.1-.2-.1-.3-.1-.1-.2-.2-.3-.2-.2-.1-.3-.3-.3-.5s-.1-.3-.2-.5c-.3-.1-.6-.4-.7-.7-.2-.3-.4-.5-.6-.5-.2.1-.3.1-.5 0-.1-.1-.3-.1-.5-.1s-.4 0-.5.1c-.2.1-.4.1-.6.2l-.1.1c-2.2-1.1-4.6-1.8-7.1-1.9.2-.3.2-.5.1-.6s-.1 0-.3.2l-.1-3zm0 4.4c2.4.1 4.7.7 6.8 1.7v.1l.3.3c.1.1.2.2.2.3.1.2.1.4.2.6.1.1.1.2.2.4-.1.2 0 .4.1.6.1.2.3.4.4.6h.7c.1 0 .2.1.3.2.1.1.2.3.2.4 0 .1 0 .2.1.2l-.9.9c-.1-.4-.2-.8-.4-1.2-.2-.1-.4-.2-.6-.2 0-.1-.2-.3-.5-.6-.3-.4-.4-.6-.5-.6-.1 0-.2 0-.2.1s.1.2.1.3.1.2.3.5c0 .1 0 .1-.1.1 0 .2.2.3.4.4l-.1.1.2.4c-2.1-1.5-4.6-2.4-7.2-2.5V6.4zm0 4.3c2.8.1 5.5 1.2 7.6 3.2l-2.2 2.3c-1.5-1.3-3.4-2.1-5.4-2.2v-3.3zm0 4.3c1.6.1 3.1.7 4.4 1.7-.1 0-.1 0-.1.1l-.1.1s-.1.1-.1.2.2.2.3.2l-.9.9c-.1.1-.2.1-.3.2-.2.1-.3.2-.3.3 0 .1-.1.2-.1.2l-.3.3h-.1c-.1 0-.2-.1-.4-.3-.2-.2-.3-.3-.4-.3-.1 0-.3 0-.3.1-.1.1-.2.1-.3 0-.1-.1 0-.2.3-.3l.6-.3c.4-.3.6-.7.6-1.2 0-.2-.1-.4-.3-.4l-.2.2c-.2.1-.4.2-.5.4l-.4.4c-.1-.1-.3-.1-.4-.1h-.4l-.3-2.4zm-.6 5c0 .1.1.1.1.1.1 0 .2 0 .4.1.1.1.3.1.4 0 0 .1 0 .1.1.1.1.1.2.2.3.1l.1.1v.1l.1.3v.1h.4V21.8h.1v.1c-.1.1-.2.3-.2.4 0 .1.1.1.2.1s.2 0 .3.1c.1.1.2.3.2.4v.6c0 .1 0 .2.1.2s.1.1.1.1c0 .2 0 .4-.1.5 0 .2-.1.3-.2.5h-.4c-.2 0-.4-.1-.5-.1-.1 0-.2.1-.3.4-.1.2-.2.4-.2.6-.1.2-.2.3-.3.3h-.4l-.2.4-.1.1c-.8-.1-1.6-.4-2.2-1l.4-.4c.2 0 .5-.1.7-.2h.1c.4-.2.4-.5.6-.8s.5-.5.2-.7c.3-.6-1.2-.6-1.5-.5s-.1.5-.3.7-.2.1-.4.2c-.2.2-.4.5-.6.8-.1-.2-.2-.4-.2-.6h.1v-.1h.1v.1h.4c.1 0 .1-.3.1-.4.1-.3.2-.6.4-.9-.1 0-.1-.1-.2-.2 0-.1-.1-.1-.2-.1s-.1.1-.1.2-.1.2-.1.3c-.1.1-.2.1-.3.1 0-.1-.1-.2-.2-.2h-.1c-.1 0-.2.1-.3.1-.2 0-.5 0-.7.1h-.7c-.1-.1 0-.2.4-.3 0-.3.1-.7.4-.9.1.1.3.1.4.1l.1-.1h.1c.1 0 .2.1.3.4s.1.4.2.4.1 0 .2-.1v-.4c.1-.4.2-.7.2-.8v-.2c.1-.1.1-.3.2-.4h.1c.1-.1.2-.1.3-.2.1-.1.1-.3.1-.5l.8-.3c.4-.1.6-.3.6-.5l.5-.1c0 .8 0 .9.1.9zm-.5-18v3.3c-4.3.1-8.3 1.8-11.4 4.7l-2.4-2.4c3.8-3.4 8.7-5.5 13.8-5.6zM196 8.5l2.4 2.4c-2.9 3.1-4.6 7.1-4.7 11.4h-3.3c0-5.2 2.1-10.1 5.6-13.8z"/></svg>
