<svg viewBox="0 0 426 208" xmlns="http://www.w3.org/2000/svg" fill-rule="evenodd" clip-rule="evenodd" stroke-linejoin="round" stroke-miterlimit="2"><g fill-rule="nonzero"><path d="M64.78 180.21l-9.925 27.223H49.75l-9.925-27.224h-.284l.85 16.164v5.672l3.971.85v4.538H29.049v-4.537l3.97-.851v-26.373l-3.97-.85v-4.538H42.66l9.359 27.224h.283l9.358-27.224h13.612v4.537l-3.97.85v26.658l3.97.85v4.538H59.96v-4.538l3.97-.85v-5.672l.85-16.448zM111.854 189.284c0 5.388-1.417 9.925-4.537 13.328-3.12 3.403-7.09 5.388-12.194 5.388-5.104 0-9.074-1.701-12.194-5.388-3.12-3.403-4.537-7.94-4.537-13.328v-.567c0-5.388 1.418-9.926 4.537-13.329 3.12-3.403 7.09-5.388 12.194-5.388 5.105 0 9.075 1.702 12.194 5.388 3.12 3.687 4.537 7.94 4.537 13.329v.567zm-7.373-.567c0-3.687-.85-6.806-2.268-9.359-1.702-2.268-3.97-3.686-7.09-3.686-3.12 0-5.388 1.134-7.09 3.686-1.417 2.27-2.268 5.389-2.268 9.359v.567c0 3.97.85 7.09 2.269 9.358 1.418 2.269 3.97 3.687 7.09 3.687 3.119 0 5.387-1.135 7.089-3.687 1.701-2.269 2.268-5.388 2.268-9.358v-.567zM152.407 170.567v4.538l-3.97.85v31.762h-7.374l-15.03-24.956h-.283v19.568l3.97.85v4.538h-15.313v-4.538l4.253-.85v-26.374l-3.97-.85v-4.538h11.344l15.03 24.956h.283v-19.568l-3.97-.85v-4.538h15.03zM171.407 170.567c4.537 0 8.224 1.418 11.06 4.254 2.835 2.836 4.253 6.523 4.253 11.06v6.239c0 4.537-1.418 8.224-4.254 11.06-2.835 2.835-6.522 4.253-11.06 4.253h-16.73v-4.537l3.97-.851v-26.373l-3.97-.85v-4.538h16.73v.283zm-5.105 5.672v25.522h4.821c2.552 0 4.821-.85 6.239-2.552 1.418-1.701 2.269-4.254 2.269-7.09v-6.238c0-2.836-.851-5.105-2.27-7.09-1.417-1.701-3.686-2.552-6.238-2.552h-4.82zM190.69 175.105v-4.538h15.314v4.538l-3.97.85v26.374l3.97.85v4.538H190.69v-4.538l3.97-.85v-26.374l-3.97-.85zM208.272 202.896l2.553-.284 11.343-32.045h7.657l11.06 32.045 2.552.284v4.537h-12.478v-4.537l2.552-.567-1.701-5.105H219.9l-1.702 5.105 2.552.567v4.537h-12.478v-4.537zm13.329-10.776h8.507l-4.254-13.045h-.283l-3.97 13.045zM245.989 207.433v-4.537l3.97-.851v-26.373l-3.97-.85v-4.538h15.313v4.537l-3.97.85v26.09h10.493l.283-4.537h5.672v10.21h-27.791z" fill="#1b344a"/><path d="M289.377 207.433v-3.403l12.194-13.328c2.269-2.552 3.686-4.254 4.537-5.672.85-1.418 1.134-2.836 1.134-4.254 0-1.701-.567-3.403-1.701-4.537-1.134-1.134-2.552-1.985-4.254-1.985-2.552 0-4.537.567-5.671 1.985-1.135 1.418-1.702 3.12-1.702 5.388h-5.104v-.283c0-3.12.85-5.956 3.12-7.94 2.268-2.27 5.104-3.12 9.074-3.12 3.403 0 5.955.85 7.94 2.836 1.985 1.985 2.836 4.537 2.836 7.373 0 1.985-.567 3.97-1.702 5.955-1.134 1.985-2.836 4.254-5.104 6.522l-9.642 10.493h13.045l.283-4.254h4.254v8.224h-23.537zM342.123 193.254c0 4.82-1.134 8.224-3.12 10.776-1.984 2.552-5.104 3.687-8.507 3.687-3.686 0-6.522-1.135-8.507-3.687-1.985-2.552-3.12-6.239-3.12-10.776v-8.791c0-4.821 1.135-8.224 3.12-10.776 1.985-2.552 4.82-3.687 8.507-3.687 3.687 0 6.523 1.135 8.508 3.687 1.985 2.552 3.12 6.239 3.12 10.776v8.791zm-4.82-9.642c0-3.12-.568-5.671-1.702-7.09-1.135-1.7-2.836-2.552-5.105-2.552-2.268 0-3.97.851-5.104 2.553-1.135 1.701-1.702 3.97-1.702 7.09v10.775c0 3.12.567 5.672 1.702 7.373 1.134 1.702 2.836 2.553 5.104 2.553 2.269 0 3.97-.851 5.105-2.553 1.134-1.701 1.701-3.97 1.701-7.373v-10.776zM347.795 207.433v-3.403l12.194-13.328c2.268-2.552 3.686-4.254 4.537-5.672.85-1.418 1.134-2.836 1.134-4.254 0-1.701-.567-3.403-1.701-4.537-1.134-1.134-2.552-1.985-4.254-1.985-2.552 0-4.537.567-5.671 1.985-1.135 1.418-1.702 3.12-1.702 5.388h-4.82v-.283c0-3.12.85-5.956 3.119-7.94 2.268-2.27 5.104-3.12 9.074-3.12 3.403 0 5.955.85 7.94 2.836 1.986 1.985 2.836 4.537 2.836 7.373 0 1.985-.567 3.97-1.701 5.955-1.135 1.985-2.836 4.254-5.105 6.522l-9.641 10.493h13.044l.284-4.254h4.254v8.224h-23.821zM377.004 204.314l5.671-.851v-27.791h-5.671v-3.12l10.776-2.268v32.895l5.671.851v3.12h-16.447v-2.836z" fill="#5090cd"/></g><g fill="#1b344a" fill-rule="nonzero"><path d="M22.464 124.284V120h15.423v4.284l-3.998.857v10.853h15.137v-10.853l-3.999-.857V120H60.45v4.284l-3.998.857v26.561l3.998.857v4.57H45.027v-4.57l3.999-.857v-9.996H33.889v10.282l3.998.857v4.57H22.464v-4.57l3.999-.857V125.14l-3.999-.857zM78.443 120v4.284l-3.998.857v19.421c0 2.57.571 4.284 1.999 5.427 1.428 1.142 3.142 1.713 5.427 1.713 2.284 0 4.284-.57 5.426-1.713 1.428-1.143 2-3.142 2-5.427v-19.421l-4-.857V120h15.423v4.284l-3.998.857v19.421c0 4.284-1.428 7.426-3.998 9.71-2.857 2.286-6.284 3.428-10.853 3.428-4.57 0-7.997-1.142-10.854-3.427-2.856-2.285-3.998-5.427-3.998-9.71V125.14l-3.998-.857V120h15.422zM138.706 129.71l-9.996 27.419h-5.141l-9.996-27.418h-.286l.857 16.28v5.711l3.998.857v4.57H102.72v-4.57l3.998-.857v-26.561l-3.998-.857V120h13.709l9.425 27.418h.285L135.564 120h13.71v4.284l-3.713.857v26.561l3.998.857v4.57h-15.423v-4.57l3.999-.857v-5.712l.571-16.28zM151.844 152.56l2.57-.286L165.84 120h7.711l11.139 32.274 2.57.285v4.57h-12.567v-4.57l2.57-.571-1.713-5.141h-11.995l-1.714 5.14 2.57.572v4.57h-12.566v-4.57zm13.423-10.854h8.569l-4.284-13.138h-.286l-3.999 13.138zM227.815 120v4.284l-3.998.857v31.988h-7.426l-15.137-25.134h-.286v19.707l3.999.857v4.57h-15.423v-4.57l3.998-.857v-26.561l-3.712-.857V120h11.424l15.137 25.133h.286v-19.992l-4.285-.857V120h15.423zM230.1 124.284V120h15.423v4.284l-3.999.857v26.561l3.999.857v4.57H230.1v-4.57l3.999-.857v-26.561l-3.999-.857zM280.938 120v9.996h-5.712l-.286-4.284h-6.854v26.276l3.998.857v4.57h-15.423v-4.57l3.999-.857v-26.276h-6.855l-.285 4.284h-5.712V120h33.13zM278.653 152.56l2.57-.286L292.648 120h7.711l11.139 32.274 2.57.285v4.57h-12.566v-4.57l2.57-.571-1.714-5.141h-11.995l-1.714 5.14 2.57.572v4.57h-12.566v-4.57zm13.424-10.854h8.568l-4.284-13.138h-.286l-3.998 13.138zM316.353 124.284V120h15.423v4.284l-3.999.857v26.561l3.999.857v4.57h-15.423v-4.57l3.999-.857v-26.561l-3.999-.857zM351.483 120c4.284 0 7.425.857 9.996 2.856 2.285 2 3.713 4.57 3.713 7.997 0 2-.572 3.427-1.428 4.855-1.143 1.428-2.57 2.57-4.284 3.428 2.284.57 3.712 1.713 4.855 3.141.857 1.428 1.428 3.428 1.428 5.712v2c0 .856.285 1.428.571 1.999.286.571.857.857 1.714.857h.857v4.57h-3.999c-2.57 0-4.284-.572-5.14-2a9.863 9.863 0 01-1.429-5.14v-2a7.015 7.015 0 00-1.428-4.284c-.857-1.142-2.285-1.428-3.998-1.714h-5.998v9.71l3.998.858v4.57H335.49v-4.57l3.998-.857V125.14l-4.855-.857V120h16.85zm-5.427 16.28h5.141c2 0 3.713-.572 4.57-1.428 1.142-.857 1.428-2.285 1.428-3.713s-.286-2.856-1.143-3.999c-1.142-.857-2.57-1.428-4.57-1.428h-5.426v10.568zM394.61 140.85h-12.568v10.567h11.996l.285-4.57h5.713v10.282h-29.418v-4.57l3.999-.857v-26.561l-3.999-.857V120h29.418v9.996h-5.713l-.285-4.284h-11.996v9.425h12.567v5.712z"/></g><path d="M186.7 15.2c.8-.6 1.7-1.4 2.8-2.3.4-.3.7-.6 1-.9.3-.3.5-.6.6-.9.2-.4.4-.8.5-1.3l.7-2.1h-.1c-.3.7-.7 1.3-1.3 1.8-.5.5-1.1.9-1.7 1.3-.6.4-1.3.9-1.8 1.4-.7.7-1.2 1.4-1.6 2.3v-.1c.4-1.3.8-2.3 1-3.2.2-.9.4-1.6.6-2.3.1-.6.3-1.2.6-1.7s.7-1 1.2-1.3c-1.3.4-2.5 1.2-3.2 2.3-.8 1.2-1.3 2.6-1.2 4.1v5.1c.5-.9 1.2-1.6 1.9-2.2zm3.4-6.2c.7-.7 1.3-1.4 1.9-2.2l1.6-2.1c.5-.6 1.1-1.2 1.7-1.8l-.1-.1c-.5.4-1 .7-1.6.9-.7.2-1.4.5-2.1.9-.8.5-1.6 1.2-2.1 2.1-.8 1.3-1.4 2.7-1.7 4.2.9-.5 1.7-1.1 2.4-1.9zM182 28c.5.7 1 1.5 1.6 2.1.7.8 1.3 1.7 1.8 2.6-.1-.4-.1-.8-.1-1.2v-1c.1-.7.2-1.3.4-1.9.3-.9.6-1.9.9-3 .3-1.1.6-2.2.8-3.3.2-1 .3-2 .2-3h-.1c-.2.7-.4 1.3-.8 1.9l-1.1 1.9c-.4.7-.7 1.4-1 2.1-.3.8-.4 1.6-.4 2.4 0 .4.1.8.2 1.2.1.3.1.6.2.9h-.1c-.2-1-.5-2.1-.8-3-.4-1-.7-1.9-1.1-2.7-.4-.8-.6-1.6-.9-2.3-.2-.5-.3-1.1-.4-1.7 0-.4 0-.8.1-1.2v-1.1h-.1c-.2.6-.4 1.2-.6 1.9-.2.8-.3 1.5-.3 2.3 0 1.2.1 2.4.4 3.5.3 1 .7 1.8 1.2 2.6zm13.2 19.7h.8c.4 0 .7 0 1.1-.1l1.3-.2c.5-.1 1.2-.3 2.1-.5.9-.2 2-.5 3.4-.8-.9-.2-1.7-.5-2.4-.7-.7-.3-1.4-.7-2-1.3-.8-.7-1.6-1.5-2.5-2.2-.6-.6-1.3-1.2-2-1.8-.2-.2-1.1-1-1.4-1.3l-.1.1 1 2c.1.1.1.2.2.3.2.4.5.9.7 1.3l.3.5c.3.6.7 1 1.2 1.4.9.7 2 1.3 3.1 1.5l-1.6-.2-1.2-.2c-.4 0-.7-.1-1.1-.1-.4 0-.9 0-1.3-.1s-.7-.1-1-.2l-1-.1c-.2 0-.3 0-.5-.1l-1.8-.3c-.6-.2-1.1-.4-1.6-.7-.6-.4-1.2-.8-1.8-1.3l-.1.1c.3.5.6 1 1 1.4l1.5 1.5c.7.5 1.4.9 2.1 1.2.9.4 1.9.6 2.9.7l.7.2zm-11.3-22.8h.1c0-.4.1-.8.2-1.2.1-.4.3-.8.5-1.2.3-.6.7-1.2 1.1-1.7l1.9-2.8c.5-.8.9-1.6 1.1-2.6.3-1 .5-1.7.6-2.1h-.1l-.3.6c-.1.2-.3.4-.5.6-.2.2-.4.5-.8.8l-1.3 1.2c-.8.7-1.4 1.5-1.9 2.4-.3.8-.6 1.6-.7 2.4h.2c0-.4 0-.8.1-1.1.1-.3 0-.8 0-1.4 0-.7-.1-1.6-.1-2.5 0-.9-.1-2.2-.1-3.8 0-.5.1-.9.3-1.4.2-.4.4-.9.5-1.2h-.1c-.9 1.1-1.6 2.3-2.1 3.7-.4 1.1-.5 2.2-.6 3.4 0 1.3.3 2.6.7 3.8.5 1.2 1 2.7 1.3 4.1zm7.6 18.8l3 .7 1.6.4c-.6-.6-1.1-1.3-1.5-2-.4-.6-.7-1.3-.9-2-.3-.8-.7-1.8-1.2-3.2-.1-.4-.3-.8-.5-1.2-.2-.3-.4-.7-.6-1.1-.2-.4-.5-.8-.8-1.2-.3-.4-.7-1-1.2-1.7l-.1.1c.1.5.4 1.3.6 2.6.2 1.3.5 2.4.8 3.6.2.8.5 1.6 1 2.3.6.8 1.3 1.5 2 2.1l-.1.1c-.6-.3-1.2-.7-1.8-1.2-.8-.7-1.7-1.2-2.6-1.7-1.5-.7-3-1.5-4.4-2.4-1.1-.7-1.9-1.7-2.4-2.9l-.1.1c.3 1.2.7 2.3 1.4 3.3.6.9 1.3 1.8 2.2 2.5.8.7 1.7 1.3 2.7 1.8.9.4 1.8.8 2.9 1zm-6.8-7.5l5.3 3.6c-.2-.4-.4-.9-.6-1.4-.2-.5-.3-1-.4-1.5-.1-.5-.2-1.1-.2-1.8s-.1-1.4-.2-2.4c-.2-1.6-.4-2.8-.5-3.7-.2-1-.4-1.9-.8-2.8h-.1c0 .7 0 1.4-.1 2.1-.1.5-.2 1.1-.3 1.6-.1.5-.2.9-.3 1.4-.1.5-.1.9-.1 1.4 0 .7.2 1.4.5 2.1.3.7.5 1.4.9 2.1l-.1.1c-.7-1.2-1.5-2.2-2.4-3.2-.8-.8-1.5-1.6-2.2-2.3-.6-.6-1.2-1.3-1.7-2.1s-.8-1.6-.9-2.5c-.1.2-.1.5-.1.7 0 .2-.1.5-.1.7 0 .9.2 1.7.4 2.5.3.8.6 1.6 1.1 2.4.4.7.9 1.3 1.5 1.9.4.4.8.8 1.4 1.1zm44.1-31.4l1.6 2.1c.6.8 1.2 1.5 1.9 2.2.7.8 1.6 1.4 2.5 2-.3-1.5-.9-2.9-1.7-4.2-.6-.8-1.3-1.5-2.1-2.1-.6-.4-1.3-.8-2.1-1-.6-.2-1.2-.5-1.6-.9l-.1.1c.5.5 1.1 1.1 1.6 1.8zm4.8 39.2c-.5.3-1.1.5-1.6.7-.6.1-1.2.3-1.8.3l-.5.1-1 .1c-.4 0-.7.1-1 .2-.3.1-.9.1-1.3.1s-.7.1-1.1.1l-1.2.2-1.6.2c1.1-.3 2.2-.8 3.1-1.5.5-.4.9-.9 1.2-1.5.1-.2.2-.3.3-.5.2-.4.5-.9.7-1.3l.2-.3 1-2-.1-.1c-.3.3-1.2 1.1-1.4 1.3-.6.6-1.3 1.2-2 1.8-.8.8-1.6 1.5-2.5 2.2-.6.6-1.2 1-2 1.3-.7.2-1.5.5-2.4.7l3.4.8c.9.2 1.5.4 2.1.5.5.1 1 .2 1.3.2.4.1.7.1 1.1.1h.8l.7-.1c1-.1 1.9-.4 2.9-.7.8-.3 1.5-.7 2.1-1.3.6-.4 1.1-.9 1.5-1.5.4-.4.7-.9 1-1.4l-.1-.1c-.6.6-1.2 1-1.8 1.4zm4-6.1c-1.4.9-2.8 1.7-4.3 2.4-.9.5-1.8 1-2.6 1.7-.5.5-1.1.9-1.8 1.2l-.1-.1c.7-.6 1.4-1.4 2-2.1.5-.7.8-1.5 1-2.3.2-1.1.5-2.3.8-3.6.3-1.3.5-2.1.6-2.6l-.1-.1-1.2 1.7c-.3.5-.6.9-.8 1.2-.2.3-.4.7-.6 1.1-.2.4-.3.8-.5 1.2-.5 1.3-.9 2.4-1.2 3.2-.3.7-.6 1.4-1 2-.4.7-1 1.4-1.5 2l1.6-.4 3-.7c1-.2 2-.5 2.9-1 1-.5 1.9-1.1 2.7-1.8.8-.7 1.6-1.6 2.2-2.5.6-1 1.1-2.1 1.4-3.3V35c-.6 1.2-1.4 2.2-2.5 2.9zm2.2-13.9c-.4.8-.7 1.7-1.1 2.7-.4 1-.6 2-.8 3h-.1c0-.3.1-.6.2-.9.1-.4.2-.8.2-1.2 0-.8-.1-1.7-.4-2.4-.3-.7-.6-1.4-1-2.1l-1.1-1.9c-.4-.6-.6-1.2-.8-1.9h-.1c-.1 1 0 2 .2 3 .2 1.1.5 2.2.8 3.3.3 1.1.6 2.1.9 3 .2.6.4 1.3.4 1.9v1c0 .4 0 .8-.1 1.2.5-.9 1.1-1.8 1.8-2.6.6-.7 1.1-1.4 1.6-2.1.5-.8.9-1.6 1.1-2.4.3-1.2.5-2.4.4-3.6 0-.8-.1-1.6-.4-2.3-.2-.6-.4-1.3-.6-1.9h.1v1.1c0 .4.1.8.1 1.2 0 .6-.1 1.1-.4 1.7-.2.6-.5 1.4-.9 2.2zm-2.2-5.1c-.4-.9-1.1-1.7-1.9-2.4l-1.2-1.2c-.3-.3-.6-.5-.8-.8-.2-.3-.3-.4-.5-.6l-.3-.6h-.1c.1.4.3 1.1.6 2.1.3.9.7 1.7 1.1 2.5l1.9 2.8c.4.6.8 1.1 1.1 1.7.2.4.4.8.5 1.2.1.4.2.8.2 1.2h.1c.3-1.4.7-2.9 1.3-4.2.5-1.2.7-2.5.7-3.8 0-1.1-.2-2.3-.6-3.4-.5-1.3-1.2-2.6-2.1-3.7h-.1c.1.4.3.8.5 1.2.2.4.3.9.3 1.4 0 1.6 0 2.8-.1 3.8-.1.8-.1 1.7-.1 2.5V20c0 .4 0 .7.1 1.1h-.1c.1-.6-.2-1.4-.5-2.2zm-3.2-11.6c.3.5.5 1.1.6 1.7.2.7.4 1.4.6 2.3.2.9.6 1.9 1 3.2v.1c-.4-.9-1-1.6-1.7-2.3l-1.8-1.5c-.6-.4-1.1-.8-1.7-1.3-.6-.5-1-1.1-1.3-1.8h-.1l.7 2.1c.1.4.3.9.5 1.3.2.3.4.6.7.9.2.2.6.5.9.9 1.1.9 2 1.7 2.8 2.3.8.6 1.4 1.3 1.9 2.2v-5.1c0-1.5-.4-2.9-1.2-4.1-.7-1.1-1.9-2-3.2-2.3V6c.6.4 1 .8 1.3 1.3zM226 49.1c-.4 0-.8 0-1.2-.1-.4-.1-.8-.2-1.3-.3l-1.5-.5c-.6-.2-1.2-.4-2-.7l-3.1-1.1c-.7-.2-1.4-.4-2.1-.4-.7 0-1.4.1-2.1.2-.7.2-1.2.3-1.6.4-.3-.1-.8-.2-1.5-.4s-1.4-.2-2.1-.2c-.7 0-1.4.1-2.1.4l-3.1 1.1c-1.6.6-2.8 1-3.6 1.2-.8.2-1.6.4-2.4.4-.3 0-.7 0-1-.1-.3 0-.6-.1-.9-.2 0 0-.7-.2-1.1-.4l-1.4-.6-.1.1c.8.8 1.6 1.4 2.6 2 1.2.7 2.6 1.1 4 1.2.5 0 1 0 1.6-.1.5-.1.9-.2 1.4-.4.5-.2 1-.4 1.5-.7.5-.3 1.2-.7 2-1.2s1.5-1 2.1-1.3c.6-.3 1.3-.5 1.9-.5.3 0 .6.1.9.2-1 .5-2.1 1.2-3.3 1.9-1.3.8-2.5 1.8-3.6 3l1.2 1.1c1.1-1.3 2.3-2.4 3.6-3.5 1-.9 2.1-1.6 3.3-2.1 1.2.5 2.4 1.2 3.4 2.1 1.3 1 2.5 2.2 3.6 3.5l1.2-1.1c-1.1-1.2-2.3-2.2-3.6-3-1.3-.8-2.4-1.4-3.3-1.9.3-.1.6-.1.9-.2.7 0 1.3.1 1.9.5.6.3 1.2.7 2.1 1.3l1.9 1.1c.5.3 1 .5 1.5.7.4.2.9.3 1.4.4.5.1.9.2 1.4.2h.3c1.1 0 2.3-.3 3.3-.7 1.3-.5 2.4-1.4 3.2-2.4v-.1c-.8.4-1.6.7-2.4 1-.5.2-1.1.3-1.8.2zm16.1-21v-.5c0-.2-.1-.5-.1-.7-.1.9-.4 1.8-.9 2.5s-1.1 1.4-1.7 2.1l-.1.1c-.6.7-1.3 1.4-2.1 2.2-.9 1-1.7 2-2.4 3.2l.9-2.1c.2-.7.4-1.4.4-2.1 0-.5 0-1-.1-1.4-.1-.4-.2-.9-.3-1.3-.1-.4-.2-1-.2-1.6-.1-.7-.1-1.4-.1-2.1h-.2c-.3.9-.6 1.9-.8 2.8-.1.9-.3 2.1-.5 3.7-.1.9-.2 1.7-.2 2.4s-.1 1.2-.2 1.8c-.1.5-.2 1-.4 1.5-.1.4-.3.8-.5 1.2l-.1.2 5.4-3.6c.5-.4 1-.8 1.4-1.3.5-.6 1-1.2 1.4-1.9.3-.5.5-.9.7-1.4.1-.3.3-.6.4-.9.3-.8.4-1.6.4-2.5l-.1-.3zM221 6.7c.1.1.3.1.4.2.1.1.2.2.2.3l.2.2c.1 0 .2 0 .2-.2V7c0-.2 0-.3-.1-.4-.2-.2-.4-.2-.6-.2l-.1-.1h-.2c-.1 0-.2 0-.2.2 0 .1.1.2.2.2zm-7.7-1.8h.1c.3-.1.6-.2.9-.2h1c.2 0 .3-.1.4-.2.1-.1.2-.2.2-.3-.2-.3-.5-.5-.9-.5-.2 0-.5-.1-.7-.1l-1.8.6c-.2 0-.4 0-.4.2.1.1.3.2.4.3.3.2.5.2.8.2zm-2.2 39.8c12.1 0 21.9-9.8 21.9-21.9C233 10.7 223.2.9 211.1.9c-12.1 0-21.9 9.8-21.9 21.9 0 12.1 9.8 21.9 21.9 21.9zm-20.8-21.3h3.3c0 1.5.3 2.9.7 4.3-.1 0-.2-.1-.2-.2l-.1-.1-.4-.5-.6.2c0 .3-.1.5-.4.4-.1-.1-.2-.1-.3-.1-.4 0-.7.2-.7.6-.1.3-.1.6-.1.8l.5 1.3c.1.1.2.2.4.1.1.2.3.3.4.5.1.1.2.2.4.1.1 0 .2-.1.2-.2h.1l.3.3c.1.1.2.2.4.3v-.1c.2.2.4.3.6.3.1.3.2.6.4.8.1.2.4.3.6.3.1 0 .2-.1.3-.1.1.3.2.5.4.7l.4.2c.1.1.2.1.3.2h.1c.1.2.2.4.4.6l.4.4h.1l.1.2-2.3 2.4c-3.5-3.7-5.6-8.6-5.7-13.7zm16-6.2l-.2-.1-.2-.2c1.3-1.1 2.9-1.8 4.6-1.9v2.3h-.1v-.1h-.7c-.1-.1-.1-.2-.1-.3-.2.1-.3.2-.3.3 0 .2-.1.3-.1.5-.1.2-.2.3-.4.4-.2 0-.3.1-.4.2l-.2-.1h-.4l-.2-.2c-.1 0-.1-.1-.1-.1h-.1c-.1 0-.2.1-.2.2l-.2-.2h.1v-.1c-.3-.3-.5-.4-.8-.6zm-1.2-1.1l-2.2-2.2c2.1-1.9 4.8-3 7.6-3.2v3.2c-2 .1-3.9.9-5.4 2.2zm1.3 10.5c.1-.1.1-.3.1-.5l-.2.2c.2-.2.3-.3.4-.5.1-.1.1-.3.2-.4.1.2.2.3.3.5l-2 2c-.8-.9-1.4-2.1-1.7-3.3.2 0 .3.1.5.1.2.1.3.3.5.4.1 0 .2 0 .3-.1l.3.2c0 .1 0 .3.1.4l.2.2c.1.1.2.1.3.3l.1-.1v-.5l.1.5.1.6c.2.1.3.1.4 0zm4.4 2.4l.2.2s-.2.2-.6.2c-.1 0-.2.1-.3.4-.1.3-.1.5-.1.7h-.1c-1.4-.2-2.8-.9-3.9-1.8l2-2c.8.7 1.7 1.1 2.7 1.2 0 .1 0 .2.1.3-.1.1-.2.2-.1.4-.1.1-.1.2.1.4zm-9.8.1c0-.4-.1-.8-.1-1.2-.1-.2-.1-.4-.2-.7 0-.3-.1-.7-.2-1-.2-.3-.4-.6-.7-.9v-.4c0-.1-.1-.3-.1-.4v-.1c0-.1 0-.2.1-.2l.8-.3c0-.2 0-.5.1-.7l.5.1c.1 0 .2-.1.2-.3 0-.2-.1-.3-.1-.5-.1-.2-.1-.3-.1-.5 0-.1.1-.2.2-.3.1-.1.3-.1.4-.1.2 0 .4.1.5.2.1.2.1.3.1.5v.7l.1.1c-.1.5-.3.7-.6.7-.1 0-.3-.1-.3-.2s-.1-.2-.2-.2h-.1c0 .1 0 .2.1.3.1.1.1.2.1.4 0 .3-.1.5-.5.4-.1.2 0 .3.3.3.1.3.2.4.3.4.1-.2.1-.3.1-.5s.1-.4.1-.6l.1.1.3-.1v.1h.1c.3 1.6 1 3.1 2.1 4.3l-3.1 3.1c-.1-.1-.2-.3-.2-.5.1-.3.4-.5.4-.8l.1-.6c-.3 0-.4-.3-.6-.6zm-1.8-4.6c0 .1.1.2.1.3 0 .1-.1.2-.1.2h-.1c-.1-.5-.2-1.1-.2-1.6h.6c0 .1 0 .2-.1.3-.1.1-.1.2-.2.3-.1.1-.1.2-.1.3.1 0 .1.1.1.2zm-.2-2.2c.1-2.8 1.2-5.5 3.2-7.6l2.2 2.2-.1.1c-.1 0-.3.1-.4.1-.1.1-.2.3-.3.4-.2.1-.5.2-.7.4l-.6.6c-.3.1-.5.2-.6.3-.1 0-.2.1-.2.2.1.2.1.4 0 .4l-.7.2-.3.3c0 .1-.1.2-.1.3 0 .1 0 .2-.1.2-.1.1-.3.2-.4.4-.1.2-.1.4 0 .7l.1.7c0 .1.1.1.1.2l-1.1-.1zm6.2 7.2c1.1 1 2.4 1.7 3.9 2-.1 0-.2.1-.3.1-.2.1-.4.2-.4.5 0 .2-.1.4-.3.5-.2.1-.2.2-.2.3.2.2.4.5.5.9.1.3.4.6.7.7l.4.1c.2 0 .3.1.4.2l.4.1c-2.7-.2-5.3-1.3-7.4-3.1l2.3-2.3zm-3-16.4l-2.2-2.2c2.9-2.7 6.7-4.3 10.6-4.4v3.1c-3.2.1-6.2 1.3-8.4 3.5zm-.8.8c-2.1 2.3-3.4 5.3-3.5 8.4h-3.1c.1-4 1.7-7.7 4.4-10.6l2.2 2.2zm-3.5 9.5c0 .5 0 1.1.1 1.6 0-.1-.1-.1-.1-.2-.2-.2-.3-.4-.4-.4-.1 0-.3.1-.3.2-.1.1-.1.2-.2.3-.2.2-.5.3-.8.4-.2.3-.4.6-.4.9-.1.1-.1.2 0 .3.1.1 0 .2-.1.3.1.2.1.3.1.4v.1h-.2c0 .1-.1.1-.1.2-.4-1.3-.6-2.7-.7-4.1h3.1zm12.6 20.2c-5.1-.1-10-2.2-13.8-5.7l2.4-2.4c3.1 2.9 7.1 4.6 11.4 4.7v3.4zm0-4.4c-3.9-.1-7.7-1.7-10.5-4.4.2.1.4.2.6.2.2 0 .4-.1.6-.2l.6-.3c.2 0 .5 0 .7-.2h.5c.2 0 .3-.2.3-.4s-.1-.3-.3-.4c-.2-.1-.3-.2-.3-.3 0-.1 0-.1-.1-.2l-.5-.5c2.3 2.1 5.3 3.4 8.4 3.5v3.2zm.6-8.2c-.2 0-.5 0-.7-.1 0-.1 0-.1-.1-.2.1-.1.2-.2.3-.2.1-.1.3-.2.4-.2v-.2l.5-.4c.1 0 .1-.1.2-.1s.3-.1.4-.1c.2.1.4.1.6.3.2.1.4.2.6.2l.1-.3c.1 0 .2.1.4.3.1 0 .3-.1.4-.1v-.4c.1 0 .1 0 .2.1h.3c.1 0 .3-.1.4-.2.1-.1.3-.2.4-.3h.1c.1.1.1.2.1.3 0 .4-.3.7-.6.9-.3.2-.7.3-1.1.4-.1.1-.1.2-.2.3-.1.2-.1.3-.2.3-.3 0-.6-.1-.9-.1-.1-.1-.2-.3-.2-.4-.2 0-.4 0-.5.1l-.6.1h-.3zm3.2-2.4c0-.2.2-.4.4-.5.2-.1.4-.1.6-.1 0 .1-.1.3-.4.4-.2.1-.4.2-.6.2zm2.2-1.8c.2.1.3.3.3.5 0 .1-.1.3-.2.3h-.1c-.1 0-.3-.2-.4-.5-.3-.1-.5-.3-.6-.5-.1-.2 0-.4.1-.4s.2-.1.3-.1c.1 0 .1.1.1.3l.5.4zm7-12.2c.1 0 .1 0 .1.1.2 0 .4.1.5.1.3.3.6.7.9 1.1l.4.4c.1 0 .3-.1.4-.1 0-.1 0-.1.1-.2.9 2 1.4 4.1 1.5 6.2h-3.1v-.1c0-.3 0-.6-.2-.8-.2-.3-.2-.7-.1-1.1.1-.2.1-.4 0-.6-.1 0-.2 0-.3.1-.1.1-.1.2-.2.3-.1.2-.1.3-.2.4 0 0 0 .1-.1.1 0 .1 0 .1-.1.2l-.1.6v.8h-1.6c.1-.1.3-.2.5-.2l.4-.2c-.1 0-.1-.1-.1-.2s0-.2.1-.2l.4-.2c.2-.2.3-.4.4-.7.3-.4.5-.9.6-1.4 0-.1-.1-.3-.2-.4v-.3c0-.5.2-1.4-.4-1.6-.1 0-.1-.1-.1-.2.2-.1.2-.4.1-.6h-.5c0-.1.1-.2.1-.2.1-.1.1-.2.1-.3 0-.1-.1-.2-.2-.2h-.1c-.1 0-.3 0-.4.1-.1 0-.1.1-.2.1h.1l-.1-.1c0-.3-.1-.5-.3-.7-.2-.2-.4-.3-.6-.4v-.3l.6-.6.9.3c0 .2.1.4.2.5.1.1.2.2.3.2.1.1.2.2.4.3.1-.1.2 0 .1 0zm-3 21.2c-.1-.1-.1-.1-.2-.1s-.1 0-.1-.1.1-.2.2-.3c.2-.1.3-.3.4-.5.1-.1.1-.3.1-.4 0-.1 0-.2-.1-.2s-.2-.1-.3-.2c-.1 0-.2-.1-.3-.1-.1-.1-.3-.1-.4-.2-.1-.1-.2-.2-.2-.4 0-.1.1-.2.1-.4l.1-.2.2-.1 1.7 1.7c0 .2.1.3.3.3l.2.2c-.6.5-1.2 1.1-1.9 1.5 0-.1.1-.1.1-.2l.1-.1v-.2zm-1-8c-.1 0-.3 0-.4.1-.2.1-.4.2-.4.4v.1c-.1 0-.2 0-.3.1-.1 0-.2.1-.4.1-.1 0-.2 0-.2-.1s.2-.2.6-.3l.4-.4c.1-.1.2-.1.3-.1.2-.1.4-.3.6-.5.1-.1.2-.3.3-.5h.1c0 .2.1.4.3.4.2 0 .3-.2.4-.5.2.1.4.1.6.1.2 0 .4-.1.5-.3h.9v.2c-.5 1.6-1.3 3.1-2.4 4.4v-.2c-.1-.2-.2-.4-.3-.7-.1 0-.2.2-.4.5s-.2.6-.3.6l-.7.1c-.2 0-.4.1-.7.1-.2 0-.4-.1-.6-.2l-.6-.3c-.2-.1-.4-.1-.6-.1-.3 0-.4-.1-.4-.2s.1-.2.3-.2c.2 0 .4 0 .6.1l.9.2c.3.1.6.1.8.2.1 0 .3.1.4.1l.4-.1c0-.1.1-.3.1-.4.1-.1.1-.3.1-.4.1-.3.2-.5.3-.8.1-.3.1-.6.1-.9 0-.2-.1-.4-.2-.4l-.1-.2zm2-4.4h1.7c0 .7-.1 1.4-.3 2.1-.1-.2-.2-.5-.4-.6l-.6-.6c0-.2-.1-.3-.1-.5 0-.1-.1-.1-.1-.2l-.2-.2zm.7 8.9c-.1 0-.2 0-.2.1 0 .2 0 .3-.1.5l-1.1-1.1c1.5-1.6 2.5-3.5 3.1-5.7h.1c.2.1.4.1.5 0 .1-.1.1-.1.1-.2s-.1-.3-.4-.6h-.1c.1-.6.2-1.3.2-1.9h3.1c-.1 4-1.7 7.8-4.4 10.6l-.1-.1c0-.3-.1-.7-.2-1-.1-.3-.3-.6-.5-.6zm-.8-15.8c0 .1 0 .3-.1.4 0 .1-.1.2-.1.4.2.2.4.4.6.5.2.2.4.3.6.5.1.3.3.5.3.8.1.3.1.5.2.8 0 .2-.1.4-.2.5-.1.3-.4.4-.7.4l-.1-.1c0-.2.1-.3.1-.4.1-.1.1-.3.1-.4.2-.1.3-.3.3-.4l-.2-.1c-.1-.1-.3-.2-.4-.3 0-.1-.1-.2-.4-.2-.1 0-.3 0-.4.1l-.4.2-.1-.3c0-.1.1-.2.1-.3l-.6-1c-.3-.1-.5-.2-.8-.2H218c-.2 0-.4 0-.6.2-.2.1-.3.3-.5.5-.1.1 0 .2-.2.2l-.2-.2 3.3-3.3.4.4.3.4c.4.2.7.5.9.9zm-7.9 21.8c.3.2.6.4.9.5-.9.2-1.8.3-2.8.3V36c.1.2.3.4.5.5.2.1.4.1.6.1.3 0 .5.1.5.2s0 .2-.1.3c-.1.1-.1.2-.1.3 0 .4.2.7.5.9zm-1.9 5.3v-3.3c1.2 0 2.4-.2 3.6-.5v.2c.3.2.5.4.7.7.1.2.4.3.8.3.2 0 .3 0 .5-.2.1-.1.2-.2.2-.3.1-.1.2-.2.4-.2.1 0 .2-.1.3-.2.2-.1.4-.2.5-.4.2-.2.4-.4.4-.6.1 0 .2-.1.3-.2.1-.2.2-.5.3-.8l.1-.1v-.1c1.2-.7 2.2-1.4 3.2-2.3l2.4 2.4c-3.7 3.4-8.6 5.5-13.7 5.6zm14.5-6.5l-2.4-2.4c2.9-3.1 4.6-7.1 4.7-11.4h3.3c0 5.2-2 10.1-5.6 13.8zm5.8-14.9h-3.3c-.1-3.5-1.3-6.9-3.4-9.7 0-.1-.1-.2-.2-.3l-.2-.2c-.3-.4-.6-.7-.9-1 0-.1-.1-.2-.1-.2l2.3-2.3c3.6 3.7 5.6 8.6 5.8 13.7zM211.6 2c5.1.1 10 2.2 13.8 5.7l-2 2c0-.1-.1-.2-.1-.3-.1-.1-.2-.2-.3-.2-.2-.1-.3-.3-.3-.5s-.1-.3-.2-.5c-.3-.1-.6-.4-.7-.7-.2-.3-.4-.5-.6-.5-.2.1-.3.1-.5 0-.1-.1-.3-.1-.5-.1s-.4 0-.5.1c-.2.1-.4.1-.6.2l-.1.1c-2.2-1.1-4.6-1.8-7.1-1.9.2-.3.2-.5.1-.6-.1-.1-.1 0-.3.2l-.1-3zm0 4.4c2.4.1 4.7.7 6.8 1.7v.1l.3.3c.1.1.2.2.2.3.1.2.1.4.2.6.1.1.1.2.2.4-.1.2 0 .4.1.6.1.2.3.4.4.6h.7c.1 0 .2.1.3.2.1.1.2.3.2.4 0 .1 0 .2.1.2l-.9.9c-.1-.4-.2-.8-.4-1.2-.2-.1-.4-.2-.6-.2 0-.1-.2-.3-.5-.6-.3-.4-.4-.6-.5-.6-.1 0-.2 0-.2.1s.1.2.1.3c0 .1.1.2.3.5 0 .1 0 .1-.1.1 0 .2.2.3.4.4l-.1.1.2.4c-2.1-1.5-4.6-2.4-7.2-2.5V6.4zm0 4.3c2.8.1 5.5 1.2 7.6 3.2l-2.2 2.3c-1.5-1.3-3.4-2.1-5.4-2.2v-3.3zm0 4.3c1.6.1 3.1.7 4.4 1.7l-.2.2s-.1.1-.1.2.2.2.3.2l-.9.9c-.1.1-.2.1-.3.2-.2.1-.3.2-.3.3 0 .1-.1.2-.1.2l-.3.3h-.1c-.1 0-.2-.1-.4-.3-.2-.2-.3-.3-.4-.3-.1 0-.3 0-.3.1-.1.1-.2.1-.3 0-.1-.1 0-.2.3-.3l.6-.3c.4-.3.6-.7.6-1.2 0-.2-.1-.4-.3-.4l-.2.2c-.2.1-.4.2-.5.4l-.4.4c-.1-.1-.3-.1-.4-.1h-.4l-.3-2.4zm-.6 5c0 .1.1.1.1.1.1 0 .2 0 .4.1.1.1.3.1.4 0 0 .1 0 .1.1.1.1.1.2.2.3.1l.1.1v.1l.1.3v.1h.4v.8h.1v.1c-.1.1-.2.3-.2.4 0 .1.1.1.2.1s.2 0 .3.1c.1.1.2.3.2.4v.6c0 .1 0 .2.1.2s.1.1.1.1c0 .2 0 .4-.1.5 0 .2-.1.3-.2.5h-.4c-.2 0-.4-.1-.5-.1-.1 0-.2.1-.3.4-.1.2-.2.4-.2.6-.1.2-.2.3-.3.3h-.4l-.2.4-.1.1c-.8-.1-1.6-.4-2.2-1l.4-.4c.2 0 .5-.1.7-.2h.1c.4-.2.4-.5.6-.8.2-.3.5-.5.2-.7.3-.6-1.2-.6-1.5-.5-.3.1-.1.5-.3.7-.2.2-.2.1-.4.2-.2.2-.4.5-.6.8-.1-.2-.2-.4-.2-.6h.1v-.1h.1v.1h.4c.1 0 .1-.3.1-.4.1-.3.2-.6.4-.9-.1 0-.1-.1-.2-.2 0-.1-.1-.1-.2-.1s-.1.1-.1.2-.1.2-.1.3c-.1.1-.2.1-.3.1 0-.1-.1-.2-.2-.2h-.1c-.1 0-.2.1-.3.1-.2 0-.5 0-.7.1h-.7c-.1-.1 0-.2.4-.3 0-.3.1-.7.4-.9.1.1.3.1.4.1l.1-.1h.1c.1 0 .2.1.3.4.1.3.1.4.2.4s.1 0 .2-.1v-.4c.1-.4.2-.7.2-.8v-.2c.1-.1.1-.3.2-.4h.1c.1-.1.2-.1.3-.2.1-.1.1-.3.1-.5l.8-.3c.4-.1.6-.3.6-.5l.5-.1c0 .8 0 .9.1.9zm-.5-18v3.3c-4.3.1-8.3 1.8-11.4 4.7l-2.4-2.4c3.8-3.4 8.7-5.5 13.8-5.6zM196 8.5l2.4 2.4c-2.9 3.1-4.6 7.1-4.7 11.4h-3.3c0-5.2 2.1-10.1 5.6-13.8z" fill="#5090cd" fill-rule="nonzero"/><g fill="#1b344a" fill-rule="nonzero"><path d="M106.3 101.77l2.542-.282 11.3-31.923h7.628l11.018 31.923 2.542.282v4.52H128.9v-4.52l2.543-.565-1.696-4.802h-11.865l-1.695 5.085 2.543.565v4.52H106.3v-4.803zm13.277-10.735h8.475l-4.237-12.995h-.283l-3.955 12.995zM161.388 69.565c4.237 0 7.627 1.13 9.887 3.108 2.543 2.26 3.673 5.085 3.673 8.475 0 3.39-1.13 6.215-3.673 8.475-2.542 2.26-5.65 3.107-9.887 3.107h-6.215v8.193l3.955.847v4.52h-15.255v-4.52l3.955-.847V74.65l-3.955-.847v-4.238h17.515zm-6.498 17.798h6.498c1.977 0 3.672-.565 4.802-1.695a6.94 6.94 0 001.413-4.238c0-1.695-.565-3.107-1.695-4.52-1.13-1.13-2.543-1.695-4.803-1.695h-6.215v12.148zM200.938 90.188h-12.43v10.452h11.865l.283-4.52h5.65v10.17h-29.098v-4.52l3.955-.847V74.65l-3.955-.847v-4.238h29.098v9.888h-5.65l-.283-4.52h-11.865v9.322h12.43v5.933zM226.929 69.565c4.237 0 7.345.848 9.887 2.825 2.26 1.978 3.673 4.52 3.673 7.91 0 1.978-.565 3.39-1.413 4.803-1.13 1.412-2.542 2.542-4.237 3.39 2.26.565 3.672 1.695 4.802 3.107.848 1.413 1.413 3.39 1.413 5.65v1.978c0 .847.282 1.412.565 1.977.282.565.847.848 1.695.848h.847v4.52h-3.955c-2.542 0-4.237-.565-5.085-1.978a9.756 9.756 0 01-1.412-5.085v-1.977a6.94 6.94 0 00-1.413-4.238c-.847-1.13-2.26-1.412-3.955-1.695h-5.933v9.605l3.956.848v4.52h-15.256v-4.52l3.955-.848V74.65l-4.802-.847v-4.238h16.668zm-5.65 16.103h5.367c1.978 0 3.673-.565 4.52-1.413 1.13-.847 1.413-2.26 1.413-3.672 0-1.413-.565-3.108-1.413-3.955-1.13-.848-2.542-1.413-4.52-1.413h-5.368v10.453zM276.084 81.995h-5.368l-.847-4.802c-.848-.848-1.695-1.413-2.825-1.695-1.13-.283-2.543-.565-3.955-.565-3.108 0-5.65 1.13-7.345 3.39-1.695 2.26-2.543 5.367-2.543 9.04v1.412c0 3.673.848 6.78 2.543 9.04 1.695 2.26 4.237 3.39 7.345 3.39 1.412 0 2.825-.282 3.955-.565 1.13-.282 2.26-1.13 2.825-1.695l.847-4.802h5.368v7.345c-1.412 1.695-3.39 3.107-5.65 4.237-2.26 1.13-4.803 1.413-7.628 1.413-4.802 0-9.04-1.695-12.147-5.085-3.108-3.39-4.803-7.91-4.803-13.278v-1.412c0-5.368 1.695-9.605 4.803-13.278 3.107-3.39 7.062-5.085 12.147-5.085 2.825 0 5.368.565 7.628 1.413 2.26 1.13 4.238 2.542 5.65 4.237v7.345zm-11.3 24.295l-.283 1.413c1.13.282 1.978.565 2.825 1.412.848.565 1.13 1.695 1.13 3.108 0 1.695-.847 3.108-2.26 4.238-1.412 1.13-3.672 1.695-6.497 1.695l-.283-3.956c.848 0 1.413-.282 1.978-.565.565-.282.847-.847.847-1.695 0-.565-.282-1.13-.847-1.412-.565-.283-1.413-.565-2.825-.565l.847-3.673h5.368zM294.164 69.565v4.238l-3.955.847v19.21c0 2.543.565 4.238 1.978 5.368 1.412 1.13 3.107 1.695 5.367 1.695s4.238-.565 5.368-1.695c1.412-1.13 1.977-3.108 1.977-5.368V74.65l-3.955-.847v-4.238H316.2v4.238l-3.955.847v19.21c0 4.238-1.412 7.345-3.955 9.605-2.825 2.26-6.215 3.39-10.735 3.39s-7.91-1.13-10.735-3.39c-2.825-2.26-3.955-5.367-3.955-9.605V74.65l-3.955-.847v-4.238h15.255z"/></g></svg>
