<?xml version="1.0" encoding="utf-8"?>
<!-- Generator: Adobe Illustrator 21.0.2, SVG Export Plug-In . SVG Version: 6.00 Build 0)  -->
<svg version="1.1" id="Layer_1" xmlns="http://www.w3.org/2000/svg" xmlns:xlink="http://www.w3.org/1999/xlink" x="0px" y="0px"
	 viewBox="0 0 432.8 200" style="enable-background:new 0 0 432.8 200;" xml:space="preserve">
<style type="text/css">
	.st0{clip-path:url(#SVGID_5_);fill:url(#SVGID_7_);}
	.st1{fill:#00F2A5;}
	.st2{clip-path:url(#SVGID_8_);fill:url(#SVGID_9_);}
	.st3{fill:#4D4C4D;}
	.st4{clip-path:url(#SVGID_10_);fill:url(#SVGID_11_);}
	.st5{fill:url(#SVGID_12_);}
	.st6{fill:url(#SVGID_13_);}
	.st7{fill:#002856;}
</style>
<g>
	<linearGradient id="SVGID_5_" gradientUnits="userSpaceOnUse" x1="37.8549" y1="85.285" x2="188.5869" y2="85.285">
		<stop  offset="0" style="stop-color:#3D5D77"/>
		<stop  offset="0.5301" style="stop-color:#243759"/>
		<stop  offset="1" style="stop-color:#101A42"/>
	</linearGradient>
	<path id="SVGID_3_" style="fill:url(#SVGID_5_);" d="M67.9,47.5l-0.1,9.2c-11.6,1.5-21.8,4.3-30,8l30,0v42.7v30.9
		c4.4,2.1,9.1,4.2,14,6.1v-36.9V64.7l24.2,0c-0.3,13.6-1.9,28.7-1.9,41.8c0,0.3,0,0.6,0,0.9c0.2,7.4,3.6,16,17.4,16
		c0.2,0,0.3,0,0.5,0l0,0.1c25.7,0,23.8,0.1,40.8,0.1c17.6,0,25.7-9.3,25.7-20.9c0-13.4-9-16.3-18.9-19.3l-5.7-1.7
		c-9.1-2.8-12.4-4.5-12.4-9.1c0-2.7,1.8-6.4,6.6-7.8c0.8-0.2,1.7-0.4,2.6-0.5c0.6-0.1,1.1-0.1,1.8-0.1c5.1,0,8.1,1.5,9.9,4.1
		c0.3,0.4,0.5,0.9,0.8,1.3c0.7,1.5,1.1,3.2,1.4,5.1l12,0.1l1.4,0c0,0,0,0,0,0c-0.5-15.6-13-21.3-25.1-21.3c-6.5,0-13.8,1.9-18.7,6.3
		c-0.4,0.4-0.9,0.8-1.3,1.3c-2.9,3.1-4.8,7.3-4.8,12.8c0,13,9.8,16,18,18.5l7.9,2.5c7.1,2.1,10.8,3.8,10.8,8.6c0,4.4-2.9,11-12,11
		c-1.7,0-35.5-0.2-35.8-0.2c-4.4-0.4-5.9-2.8-7-4.6c-1.1-1.8-1.5-4.4-1.5-5.9c0-13.8,0.3-25.5,0.6-37.2h0.1v-1.8l5.3,0.1h9.3
		c0-0.7,0.1-3.3,0.1-5.5c0.1-1.9,0.1-3.5,0.1-3.5h-14.7v-0.1h-0.1l0.2-6.8c0.1-5.7,0.4-14.2,0.4-14.2l-12-3.1c0,0-1,22-1,23.9
		l-0.9,0.1c0,0-0.7,0-1.7,0c-2.9,0-8.6,0.1-8.6,0.1H81.8v-0.2v-6c0-8.5,2.8-11.2,8.1-11.2c3.3,0,7.3,1.3,10.3,2.4l0.6-11.3
		c-5.9-2.2-11.1-3-13.7-3C76.6,26.2,67.9,32.3,67.9,47.5"/>
	<path class="st1" d="M196,83.4c27.6,15,43.8,34,40.2,51.1c-5.7,27.4-60.1,39.2-121.6,26.5C53.1,148.2,7.8,115.7,13.5,88.4
		c1.8-8.7,8.5-15.8,18.7-21c-14.1,5.5-23.4,13.6-25.6,24c-5.9,28.4,43.8,62.7,111,76.6c67.2,13.9,126.5,2.2,132.3-26.2
		C254.1,122.3,232,100,196,83.4"/>
	<g>
		<path class="st3" d="M221.8,41.8h17.9V45h-14.4v7.8H238v3.1h-12.7v11.7h-3.5V41.8z"/>
		<path class="st3" d="M243.6,41.8h3.2v3.6h-3.2V41.8z M243.6,48.9h3.2v18.7h-3.2V48.9z"/>
		<path class="st3" d="M252.2,48.8h3v2.7c0.9-1.1,1.8-1.9,2.8-2.4s2.1-0.7,3.3-0.7c2.7,0,4.5,0.9,5.4,2.8c0.5,1,0.8,2.5,0.8,4.4
			v12.1h-3.2V55.8c0-1.1-0.2-2.1-0.5-2.8c-0.6-1.2-1.6-1.8-3.1-1.8c-0.8,0-1.4,0.1-1.8,0.2c-0.9,0.3-1.6,0.8-2.3,1.5
			c-0.5,0.6-0.9,1.3-1,1.9s-0.2,1.6-0.2,2.8v9.9h-3.2V48.8z"/>
		<path class="st3" d="M282.9,56.3c0.7-0.1,1.2-0.4,1.5-0.9c0.1-0.3,0.2-0.7,0.2-1.2c0-1.1-0.4-1.9-1.1-2.4
			c-0.8-0.5-1.9-0.7-3.3-0.7c-1.6,0-2.8,0.4-3.5,1.3c-0.4,0.5-0.6,1.2-0.8,2.2h-3c0.1-2.3,0.8-3.9,2.3-4.9c1.4-0.9,3.1-1.4,5-1.4
			c2.2,0,4,0.4,5.4,1.3c1.4,0.8,2.1,2.2,2.1,3.9v10.8c0,0.3,0.1,0.6,0.2,0.8c0.1,0.2,0.4,0.3,0.9,0.3c0.1,0,0.3,0,0.5,0
			s0.4,0,0.6-0.1v2.3c-0.5,0.1-0.9,0.2-1.1,0.3s-0.6,0.1-1.1,0.1c-1.1,0-1.9-0.4-2.4-1.2c-0.3-0.4-0.4-1-0.5-1.7
			c-0.6,0.8-1.6,1.6-2.8,2.2s-2.5,0.9-4,0.9c-1.7,0-3.2-0.5-4.3-1.6c-1.1-1.1-1.7-2.4-1.7-4c0-1.7,0.5-3.1,1.6-4.1s2.5-1.6,4.3-1.8
			L282.9,56.3z M276.2,64.8c0.7,0.5,1.5,0.8,2.4,0.8c1.1,0,2.2-0.3,3.2-0.8c1.8-0.9,2.6-2.3,2.6-4.2v-2.5c-0.4,0.2-0.9,0.5-1.5,0.6
			c-0.6,0.2-1.2,0.3-1.8,0.4l-1.9,0.2c-1.1,0.2-2,0.4-2.6,0.7c-1,0.5-1.5,1.4-1.5,2.6C275.2,63.6,275.6,64.3,276.2,64.8z"/>
		<path class="st3" d="M293.4,48.8h3v2.7c0.9-1.1,1.8-1.9,2.8-2.4s2.1-0.7,3.3-0.7c2.7,0,4.5,0.9,5.4,2.8c0.5,1,0.8,2.5,0.8,4.4
			v12.1h-3.2V55.8c0-1.1-0.2-2.1-0.5-2.8c-0.6-1.2-1.6-1.8-3.1-1.8c-0.8,0-1.4,0.1-1.8,0.2c-0.9,0.3-1.6,0.8-2.3,1.5
			c-0.5,0.6-0.9,1.3-1,1.9s-0.2,1.6-0.2,2.8v9.9h-3.2V48.8z"/>
		<path class="st3" d="M326.4,49.8c1.3,1,2.1,2.8,2.4,5.3h-3.1c-0.2-1.2-0.6-2.1-1.3-2.9s-1.7-1.2-3.2-1.2c-2,0-3.5,1-4.3,2.9
			c-0.6,1.3-0.8,2.9-0.8,4.7c0,1.9,0.4,3.5,1.2,4.8c0.8,1.3,2.1,1.9,3.8,1.9c1.3,0,2.4-0.4,3.1-1.2c0.8-0.8,1.3-1.9,1.6-3.3h3.1
			c-0.4,2.5-1.2,4.3-2.6,5.5s-3.2,1.7-5.4,1.7c-2.5,0-4.4-0.9-5.9-2.7c-1.5-1.8-2.2-4-2.2-6.7c0-3.3,0.8-5.9,2.4-7.7
			s3.7-2.8,6.1-2.8C323.4,48.3,325.1,48.8,326.4,49.8z"/>
		<path class="st3" d="M332.6,41.8h3.2v3.6h-3.2V41.8z M332.6,48.9h3.2v18.7h-3.2V48.9z"/>
		<path class="st3" d="M351.2,56.3c0.7-0.1,1.2-0.4,1.5-0.9c0.1-0.3,0.2-0.7,0.2-1.2c0-1.1-0.4-1.9-1.1-2.4
			c-0.8-0.5-1.9-0.7-3.3-0.7c-1.6,0-2.8,0.4-3.5,1.3c-0.4,0.5-0.6,1.2-0.8,2.2h-3c0.1-2.3,0.8-3.9,2.3-4.9c1.4-0.9,3.1-1.4,5-1.4
			c2.2,0,4,0.4,5.4,1.3c1.4,0.8,2.1,2.2,2.1,3.9v10.8c0,0.3,0.1,0.6,0.2,0.8c0.1,0.2,0.4,0.3,0.9,0.3c0.1,0,0.3,0,0.5,0
			s0.4,0,0.6-0.1v2.3c-0.5,0.1-0.9,0.2-1.1,0.3s-0.6,0.1-1.1,0.1c-1.1,0-1.9-0.4-2.4-1.2c-0.3-0.4-0.4-1-0.5-1.7
			c-0.6,0.8-1.6,1.6-2.8,2.2s-2.5,0.9-4,0.9c-1.7,0-3.2-0.5-4.3-1.6c-1.1-1.1-1.7-2.4-1.7-4c0-1.7,0.5-3.1,1.6-4.1s2.5-1.6,4.3-1.8
			L351.2,56.3z M344.6,64.8c0.7,0.5,1.5,0.8,2.4,0.8c1.1,0,2.2-0.3,3.2-0.8c1.8-0.9,2.6-2.3,2.6-4.2v-2.5c-0.4,0.2-0.9,0.5-1.5,0.6
			c-0.6,0.2-1.2,0.3-1.8,0.4l-1.9,0.2c-1.1,0.2-2,0.4-2.6,0.7c-1,0.5-1.5,1.4-1.5,2.6C343.6,63.6,343.9,64.3,344.6,64.8z"/>
		<path class="st3" d="M361.8,41.8h3.2v25.8h-3.2V41.8z"/>
		<path class="st3" d="M283.3,85v3.1h-8.7v22.7H271V88.1h-8.7V85H283.3z"/>
		<path class="st3" d="M285.4,92h3v3.3c0.2-0.6,0.8-1.4,1.8-2.3s2.1-1.4,3.3-1.4c0.1,0,0.2,0,0.3,0s0.4,0,0.7,0.1V95
			c-0.2,0-0.4-0.1-0.5-0.1s-0.3,0-0.5,0c-1.6,0-2.8,0.5-3.7,1.5s-1.3,2.2-1.3,3.5v10.8h-3.2V92z"/>
		<path class="st3" d="M308,99.5c0.7-0.1,1.2-0.4,1.5-0.9c0.1-0.3,0.2-0.7,0.2-1.2c0-1.1-0.4-1.9-1.1-2.4c-0.8-0.5-1.9-0.7-3.3-0.7
			c-1.6,0-2.8,0.4-3.5,1.3c-0.4,0.5-0.6,1.2-0.8,2.2h-3c0.1-2.3,0.8-3.9,2.3-4.9c1.4-0.9,3.1-1.4,5-1.4c2.2,0,4,0.4,5.4,1.3
			c1.4,0.8,2.1,2.2,2.1,3.9v10.8c0,0.3,0.1,0.6,0.2,0.8c0.1,0.2,0.4,0.3,0.9,0.3c0.1,0,0.3,0,0.5,0s0.4,0,0.6-0.1v2.3
			c-0.5,0.1-0.9,0.2-1.1,0.3s-0.6,0.1-1.1,0.1c-1.1,0-1.9-0.4-2.4-1.2c-0.3-0.4-0.4-1-0.5-1.7c-0.6,0.8-1.6,1.6-2.8,2.2
			s-2.5,0.9-4,0.9c-1.7,0-3.2-0.5-4.3-1.6c-1.1-1.1-1.7-2.4-1.7-4c0-1.7,0.5-3.1,1.6-4.1s2.5-1.6,4.3-1.8L308,99.5z M301.3,108
			c0.7,0.5,1.5,0.8,2.4,0.8c1.1,0,2.2-0.3,3.2-0.8c1.8-0.9,2.6-2.3,2.6-4.2v-2.5c-0.4,0.2-0.9,0.5-1.5,0.6c-0.6,0.2-1.2,0.3-1.8,0.4
			l-1.9,0.2c-1.1,0.2-2,0.4-2.6,0.7c-1,0.5-1.5,1.4-1.5,2.6C300.3,106.8,300.6,107.5,301.3,108z"/>
		<path class="st3" d="M330.9,93c1.3,1,2.1,2.8,2.4,5.3h-3.1c-0.2-1.2-0.6-2.1-1.3-2.9s-1.7-1.2-3.2-1.2c-2,0-3.5,1-4.3,2.9
			c-0.6,1.3-0.8,2.9-0.8,4.7c0,1.9,0.4,3.5,1.2,4.8c0.8,1.3,2.1,1.9,3.8,1.9c1.3,0,2.4-0.4,3.1-1.2s1.3-1.9,1.6-3.3h3.1
			c-0.4,2.5-1.2,4.3-2.6,5.5s-3.2,1.7-5.4,1.7c-2.5,0-4.4-0.9-5.9-2.7s-2.2-4-2.2-6.7c0-3.3,0.8-5.9,2.4-7.7s3.7-2.8,6.1-2.8
			C327.9,91.5,329.6,92,330.9,93z"/>
		<path class="st3" d="M337,85h3v15l8.1-8h4l-7.2,7l7.6,11.8h-4l-5.9-9.6l-2.6,2.5v7.1h-3V85z"/>
		<path class="st3" d="M355.6,85h3.2v3.6h-3.2V85z M355.6,92.1h3.2v18.7h-3.2V92.1z"/>
		<path class="st3" d="M364.2,92h3v2.7c0.9-1.1,1.8-1.9,2.8-2.4s2.1-0.7,3.3-0.7c2.7,0,4.5,0.9,5.4,2.8c0.5,1,0.8,2.5,0.8,4.4v12.1
			h-3.2V99c0-1.1-0.2-2.1-0.5-2.8c-0.6-1.2-1.6-1.8-3.1-1.8c-0.8,0-1.4,0.1-1.8,0.2c-0.9,0.3-1.6,0.8-2.3,1.5
			c-0.5,0.6-0.9,1.3-1,1.9s-0.2,1.6-0.2,2.8v9.9h-3.2V92z"/>
		<path class="st3" d="M395.3,92.8c0.6,0.4,1.2,1,1.8,1.8v-2.4h2.9v17.1c0,2.4-0.4,4.3-1.1,5.7c-1.3,2.6-3.8,3.8-7.4,3.8
			c-2,0-3.7-0.5-5.1-1.4c-1.4-0.9-2.1-2.3-2.3-4.3h3.2c0.2,0.8,0.5,1.5,0.9,2c0.7,0.7,1.8,1.1,3.4,1.1c2.4,0,4-0.9,4.7-2.6
			c0.4-1,0.6-2.8,0.6-5.4c-0.6,1-1.4,1.7-2.3,2.1c-0.9,0.5-2.1,0.7-3.5,0.7c-2,0-3.8-0.7-5.3-2.2s-2.3-3.8-2.3-7.2
			c0-3.2,0.8-5.6,2.3-7.4s3.4-2.7,5.6-2.7C392.9,91.7,394.2,92.1,395.3,92.8z M395.7,96.2c-1-1.1-2.2-1.7-3.7-1.7
			c-2.2,0-3.7,1-4.5,3.1c-0.4,1.1-0.6,2.6-0.6,4.4c0,2.1,0.4,3.7,1.3,4.8c0.9,1.1,2,1.7,3.5,1.7c2.3,0,3.9-1,4.8-3.1
			c0.5-1.2,0.8-2.5,0.8-4.1C397.1,99,396.6,97.3,395.7,96.2z"/>
		<path class="st3" d="M309.8,145.7c0.1,1.5,0.4,2.7,1,3.6c1.1,1.7,3.1,2.6,5.9,2.6c1.3,0,2.4-0.2,3.5-0.6c2-0.7,3-2,3-3.9
			c0-1.4-0.4-2.4-1.3-3c-0.9-0.6-2.2-1.1-4.1-1.5l-3.4-0.8c-2.2-0.5-3.8-1.1-4.7-1.7c-1.6-1.1-2.4-2.7-2.4-4.8
			c0-2.3,0.8-4.2,2.3-5.7c1.6-1.5,3.8-2.2,6.6-2.2c2.6,0,4.9,0.7,6.7,2s2.8,3.4,2.8,6.3h-3.3c-0.2-1.4-0.5-2.4-1.1-3.2
			c-1-1.3-2.8-2-5.2-2c-2,0-3.4,0.4-4.3,1.3s-1.3,1.9-1.3,3c0,1.3,0.5,2.2,1.5,2.8c0.7,0.4,2.2,0.8,4.5,1.4l3.5,0.8
			c1.7,0.4,3,0.9,3.9,1.6c1.6,1.2,2.4,3,2.4,5.3c0,2.9-1,4.9-3,6.1s-4.4,1.8-7.1,1.8c-3.1,0-5.6-0.8-7.4-2.5
			c-1.8-1.6-2.6-3.8-2.6-6.6H309.8z"/>
		<path class="st3" d="M343.3,135.8c1.2,0.6,2.2,1.4,2.8,2.4c0.6,0.9,1,2.1,1.3,3.3c0.2,0.9,0.3,2.2,0.3,4.1H334
			c0.1,1.9,0.5,3.5,1.3,4.6c0.8,1.2,2.1,1.7,3.9,1.7c1.6,0,2.9-0.5,3.9-1.6c0.5-0.6,0.9-1.4,1.2-2.2h3.1c-0.1,0.7-0.4,1.5-0.8,2.3
			s-1,1.5-1.5,2.1c-1,0.9-2.1,1.6-3.5,1.9c-0.8,0.2-1.6,0.3-2.6,0.3c-2.3,0-4.3-0.9-5.9-2.6c-1.6-1.7-2.4-4.1-2.4-7.2
			c0-3,0.8-5.5,2.4-7.4c1.6-1.9,3.8-2.8,6.4-2.8C340.8,134.8,342,135.1,343.3,135.8z M344.4,143.1c-0.1-1.4-0.4-2.5-0.9-3.3
			c-0.9-1.5-2.3-2.3-4.3-2.3c-1.4,0-2.6,0.5-3.6,1.6c-1,1-1.5,2.4-1.6,4H344.4z"/>
		<path class="st3" d="M352.3,135.2h3v3.3c0.2-0.6,0.8-1.4,1.8-2.3s2.1-1.4,3.3-1.4c0.1,0,0.2,0,0.3,0s0.4,0,0.7,0.1v3.3
			c-0.2,0-0.4-0.1-0.5-0.1s-0.3,0-0.5,0c-1.6,0-2.8,0.5-3.7,1.5s-1.3,2.2-1.3,3.5v10.8h-3.2V135.2z"/>
		<path class="st3" d="M366.4,135.2l5,15.3l5.2-15.3h3.5l-7.1,18.8h-3.4l-6.9-18.8H366.4z"/>
		<path class="st3" d="M383.4,128.2h3.2v3.6h-3.2V128.2z M383.4,135.3h3.2v18.7h-3.2V135.3z"/>
		<path class="st3" d="M404.4,136.2c1.3,1,2.1,2.8,2.4,5.3h-3.1c-0.2-1.2-0.6-2.1-1.3-2.9s-1.7-1.2-3.2-1.2c-2,0-3.5,1-4.3,2.9
			c-0.6,1.3-0.8,2.9-0.8,4.7c0,1.9,0.4,3.5,1.2,4.8c0.8,1.3,2.1,1.9,3.8,1.9c1.3,0,2.4-0.4,3.1-1.2s1.3-1.9,1.6-3.3h3.1
			c-0.4,2.5-1.2,4.3-2.6,5.5s-3.2,1.7-5.4,1.7c-2.5,0-4.4-0.9-5.9-2.7s-2.2-4-2.2-6.7c0-3.3,0.8-5.9,2.4-7.7s3.7-2.8,6.1-2.8
			C401.4,134.7,403.1,135.2,404.4,136.2z"/>
		<path class="st3" d="M422.2,135.8c1.2,0.6,2.2,1.4,2.8,2.4c0.6,0.9,1,2.1,1.3,3.3c0.2,0.9,0.3,2.2,0.3,4.1h-13.7
			c0.1,1.9,0.5,3.5,1.3,4.6c0.8,1.2,2.1,1.7,3.9,1.7c1.6,0,2.9-0.5,3.9-1.6c0.5-0.6,0.9-1.4,1.2-2.2h3.1c-0.1,0.7-0.4,1.5-0.8,2.3
			s-1,1.5-1.5,2.1c-1,0.9-2.1,1.6-3.5,1.9c-0.8,0.2-1.6,0.3-2.6,0.3c-2.3,0-4.3-0.9-5.9-2.6c-1.6-1.7-2.4-4.1-2.4-7.2
			c0-3,0.8-5.5,2.4-7.4c1.6-1.9,3.8-2.8,6.4-2.8C419.6,134.8,420.9,135.1,422.2,135.8z M423.3,143.1c-0.1-1.4-0.4-2.5-0.9-3.3
			c-0.9-1.5-2.3-2.3-4.3-2.3c-1.4,0-2.6,0.5-3.6,1.6c-1,1-1.5,2.4-1.6,4H423.3z"/>
	</g>
</g>
</svg>
