<svg id="Layer_1" data-name="Layer 1" xmlns="http://www.w3.org/2000/svg" viewBox="0 0 140 32"><defs><style>.cls-1{fill:#5090cd;}.cls-2{fill:none;stroke:#b7b6b6;stroke-width:0.3px;}.cls-3{isolation:isolate;}.cls-4{fill:#1b344a;}</style></defs><path id="Path_469" data-name="Path 469" class="cls-1" d="M118.05,5.63l1.08-.9.37-.34a1.61,1.61,0,0,0,.24-.34c.07-.16.14-.32.2-.49l.27-.81h0a2,2,0,0,1-.5.71c-.21.17-.43.34-.65.49a6.48,6.48,0,0,0-.71.56,3.1,3.1,0,0,0-.64.89v0a12.35,12.35,0,0,0,.38-1.24c.08-.33.16-.63.23-.88a2.71,2.71,0,0,1,.25-.67,1.65,1.65,0,0,1,.49-.53V2a2.17,2.17,0,0,0-1.24.9,2.72,2.72,0,0,0-.48,1.58v2A3,3,0,0,1,118.05,5.63Zm1.33-2.41a8.08,8.08,0,0,0,.72-.83l.62-.81a5.38,5.38,0,0,1,.66-.69l0,0a1.78,1.78,0,0,1-.64.33,3.42,3.42,0,0,0-.8.37,2.84,2.84,0,0,0-.82.8A5.12,5.12,0,0,0,118.42,4a5.5,5.5,0,0,0,1-.77Zm-3.16,7.37a7.25,7.25,0,0,0,.63.83,6.84,6.84,0,0,1,.69,1h0a3.4,3.4,0,0,1,0-.45v-.4a3.14,3.14,0,0,1,.15-.74c.11-.35.22-.74.34-1.16s.21-.85.3-1.28a4.1,4.1,0,0,0,.08-1.16h0a2.29,2.29,0,0,1-.3.72l-.44.74a5.08,5.08,0,0,0-.4.81,2.75,2.75,0,0,0-.17.95,2.44,2.44,0,0,0,.07.46c0,.12.05.24.07.36h0a7,7,0,0,0-.32-1.19c-.14-.37-.27-.72-.41-1s-.25-.61-.34-.88a2,2,0,0,1-.14-.65,3.39,3.39,0,0,1,0-.45,3,3,0,0,0,0-.42h0a6.75,6.75,0,0,0-.22.73,3.52,3.52,0,0,0-.14.91,4.79,4.79,0,0,0,.17,1.36,4,4,0,0,0,.45.95Zm5.13,7.64h.31a3,3,0,0,0,.42,0,5.08,5.08,0,0,0,.51-.08l.8-.18,1.31-.33c-.36-.09-.67-.18-.93-.26a2.35,2.35,0,0,1-.79-.5c-.32-.28-.64-.57-1-.87l-.77-.68-.55-.49,0,0,.39.77.07.12c.1.16.19.33.28.5l.11.2A1.63,1.63,0,0,0,122,17a3.17,3.17,0,0,0,1.19.59v0l-.61-.09-.45-.07-.42-.05-.5,0c-.13,0-.26-.05-.4-.06l-.39-.05-.2,0a4.23,4.23,0,0,1-.71-.13,2.21,2.21,0,0,1-.64-.26,4.29,4.29,0,0,1-.68-.53l0,0a3.36,3.36,0,0,0,.39.54,4.53,4.53,0,0,0,.59.57,3.51,3.51,0,0,0,.84.48,4.15,4.15,0,0,0,1.1.29l.27,0ZM117,9.4h0a2.36,2.36,0,0,1,.08-.45,2.5,2.5,0,0,1,.21-.48,7.65,7.65,0,0,1,.43-.67l.75-1.07a3.68,3.68,0,0,0,.45-1c.11-.38.19-.65.22-.82h0a1.36,1.36,0,0,1-.13.24l-.18.23-.29.29-.49.46a2.65,2.65,0,0,0-.73.93A5.84,5.84,0,0,0,117,8h0c0-.16,0-.3,0-.44V7a9.33,9.33,0,0,0,0-1c0-.37,0-.86,0-1.46A1.24,1.24,0,0,1,117,4c.07-.17.14-.33.19-.48h0A4.75,4.75,0,0,0,116.38,5a4.13,4.13,0,0,0-.21,1.31,4,4,0,0,0,.29,1.48A10.13,10.13,0,0,1,117,9.41Zm2.94,7.3,1.18.26.61.14a5.14,5.14,0,0,1-.6-.79,4.63,4.63,0,0,1-.37-.78c-.11-.31-.27-.71-.48-1.22a3,3,0,0,0-.18-.45c-.07-.13-.14-.27-.23-.41s-.19-.3-.31-.48-.28-.4-.47-.66l0,0q.08.28.24,1c.1.49.2,1,.29,1.38a2.27,2.27,0,0,0,.38.89,6.06,6.06,0,0,0,.77.83l0,0A2.59,2.59,0,0,1,120,16a5,5,0,0,0-1-.65,15.56,15.56,0,0,1-1.69-1,2.49,2.49,0,0,1-.92-1.11l0,0a4.17,4.17,0,0,0,.53,1.27,4.59,4.59,0,0,0,.83,1,5.24,5.24,0,0,0,1,.71,5.15,5.15,0,0,0,1.14.4Zm-2.64-2.9,2.09,1.38c-.1-.19-.17-.37-.24-.53a3,3,0,0,1-.15-.57c0-.2-.07-.43-.1-.69s0-.56-.09-.92c-.07-.61-.14-1.09-.19-1.43a5.78,5.78,0,0,0-.31-1.1h0a7.67,7.67,0,0,1,0,.82,4.76,4.76,0,0,1-.11.62c0,.18-.08.36-.11.52a3.31,3.31,0,0,0,0,.55,2.27,2.27,0,0,0,.18.8,8,8,0,0,0,.34.8l0,0a7.17,7.17,0,0,0-.94-1.25l-.84-.91a6.3,6.3,0,0,1-.65-.8,2.31,2.31,0,0,1-.35-1,2.56,2.56,0,0,0,0,.27,1.23,1.23,0,0,0,0,.27,2.91,2.91,0,0,0,.17,1,4.76,4.76,0,0,0,1,1.67,3.15,3.15,0,0,0,.54.49ZM134.38,1.59l.62.8c.23.29.47.57.72.83a5.5,5.5,0,0,0,1,.77A5.12,5.12,0,0,0,136,2.37a2.81,2.81,0,0,0-.81-.8,3.73,3.73,0,0,0-.81-.37,1.66,1.66,0,0,1-.63-.33l0,0a4,4,0,0,1,.67.69Zm1.85,15.23a2.42,2.42,0,0,1-.64.27,4.27,4.27,0,0,1-.7.12l-.21,0-.39.05c-.13,0-.26,0-.39.06s-.34,0-.51.05l-.41,0-.46.07-.6.1v0A3.12,3.12,0,0,0,133.1,17a1.47,1.47,0,0,0,.47-.55l.1-.2.28-.5.08-.12.39-.76,0,0c-.11.11-.48.43-.55.5l-.76.68-1,.87a2,2,0,0,1-.79.49l-.93.27,1.31.32c.33.08.6.15.8.18l.51.09a3,3,0,0,0,.42,0l.31,0,.27,0a4.31,4.31,0,0,0,1.11-.28,3.3,3.3,0,0,0,.83-.49,4,4,0,0,0,.6-.57,3.39,3.39,0,0,0,.38-.53l0,0a3.83,3.83,0,0,1-.68.52Zm1.58-2.38a15.34,15.34,0,0,1-1.68.94,4.91,4.91,0,0,0-1,.65,2.37,2.37,0,0,1-.68.45l0,0a4.34,4.34,0,0,0,.77-.83,2.21,2.21,0,0,0,.38-.89c.1-.43.19-.89.3-1.38s.18-.82.24-1l0,0c-.19.26-.35.48-.47.66l-.31.48-.23.41a4.22,4.22,0,0,0-.18.45q-.31.76-.48,1.23a4.2,4.2,0,0,1-.37.77,4.64,4.64,0,0,1-.6.8L134,17l1.18-.25a4.54,4.54,0,0,0,1.14-.4,4.93,4.93,0,0,0,1.05-.7,4.64,4.64,0,0,0,.83-1,4.17,4.17,0,0,0,.53-1.27l0,0a2.52,2.52,0,0,1-.92,1.12Zm.86-5.4c-.14.32-.28.67-.42,1a7.19,7.19,0,0,0-.31,1.19h0a2,2,0,0,1,.07-.35,2.54,2.54,0,0,0,.07-.47,2.53,2.53,0,0,0-.18-.94,4.75,4.75,0,0,0-.39-.82L137,8a2.5,2.5,0,0,1-.3-.72h0a4.05,4.05,0,0,0,.07,1.15c.09.44.19.86.31,1.29s.23.8.33,1.15a2.71,2.71,0,0,1,.16.75V12a2.28,2.28,0,0,1,0,.45h0a6.08,6.08,0,0,1,.68-1,8.71,8.71,0,0,0,.64-.83,4.07,4.07,0,0,0,.45-.94,4.55,4.55,0,0,0,.16-1.37,3.43,3.43,0,0,0-.13-.9,6.18,6.18,0,0,0-.23-.73h0c0,.14,0,.28,0,.42s0,.3,0,.45a2.1,2.1,0,0,1-.14.65c-.09.26-.21.55-.34.87Zm-.86-2a2.65,2.65,0,0,0-.73-.93l-.48-.45-.3-.3-.18-.22a1.34,1.34,0,0,1-.12-.24h0c0,.16.11.44.22.81a3.68,3.68,0,0,0,.45,1c.31.45.56.81.75,1.07a7.82,7.82,0,0,1,.43.68A2.06,2.06,0,0,1,138,9a2.11,2.11,0,0,1,.08.45h0a12,12,0,0,1,.49-1.65,3.94,3.94,0,0,0,.29-1.48A4.13,4.13,0,0,0,138.72,5a4.94,4.94,0,0,0-.81-1.43h0a4.78,4.78,0,0,0,.19.48,1.27,1.27,0,0,1,.11.54c0,.6,0,1.09-.05,1.47a9,9,0,0,0,0,1c0,.23,0,.41,0,.55s0,.29,0,.44h0a5,5,0,0,0-.27-.93Zm-1.25-4.48a2.67,2.67,0,0,1,.26.66c.06.25.14.55.22.89s.21.75.38,1.24v0a2.93,2.93,0,0,0-.64-.88,5.54,5.54,0,0,0-.71-.57,7.37,7.37,0,0,1-.65-.49,1.93,1.93,0,0,1-.49-.7h0l.27.8a3.07,3.07,0,0,0,.2.5,1.27,1.27,0,0,0,.24.33,4.51,4.51,0,0,0,.37.34q.61.54,1.08.9a3.29,3.29,0,0,1,.73.85v-2a2.68,2.68,0,0,0-.48-1.58,2.06,2.06,0,0,0-1.24-.9v0a1.84,1.84,0,0,1,.5.54ZM133.3,18.8a1.79,1.79,0,0,1-.46,0l-.53-.1h0l-.56-.19-.78-.29-1.2-.42a2.46,2.46,0,0,0-.81-.14,3.75,3.75,0,0,0-.82.1l-.62.14-.59-.14a3.75,3.75,0,0,0-.82-.1,2.45,2.45,0,0,0-.8.14l-1.2.42c-.62.22-1.08.38-1.38.47a2.91,2.91,0,0,1-.93.14,2.56,2.56,0,0,1-.39,0,1.3,1.3,0,0,1-.34-.08s-.27-.08-.41-.14l-.54-.24,0,0a6.06,6.06,0,0,0,1,.76,3.18,3.18,0,0,0,1.57.45,4,4,0,0,0,.6,0,2,2,0,0,0,.54-.16c.17-.07.37-.17.59-.28s.47-.26.77-.45l.8-.49a1.51,1.51,0,0,1,.75-.18A1.27,1.27,0,0,1,127,18l-1.28.74a6.85,6.85,0,0,0-1.4,1.17l.48.42A10.35,10.35,0,0,1,126.22,19a4.88,4.88,0,0,1,1.3-.81,4.78,4.78,0,0,1,1.31.81,9.33,9.33,0,0,1,1.39,1.35l.48-.42a6.1,6.1,0,0,0-1.41-1.17L128,18a1.56,1.56,0,0,1,1.12.13l.8.49.74.44a3.88,3.88,0,0,0,.58.28,4.44,4.44,0,0,0,.52.15,2.57,2.57,0,0,0,.55.06h.12a3.55,3.55,0,0,0,1.28-.28,3.42,3.42,0,0,0,1.26-.93v0c-.31.14-.62.27-.93.38A2.08,2.08,0,0,1,133.3,18.8Zm6.24-8.18a.25.25,0,0,0,0-.08.53.53,0,0,0,0-.13,2.56,2.56,0,0,0-.05-.27,2.35,2.35,0,0,1-.35,1,7.1,7.1,0,0,1-.65.8l0,.05-.81.85a9.16,9.16,0,0,0-.92,1.23h0a5.73,5.73,0,0,0,.33-.81,2.65,2.65,0,0,0,.17-.8,3.41,3.41,0,0,0-.05-.55c0-.16-.06-.33-.1-.52S137,11,137,10.76a7.37,7.37,0,0,1,0-.82h0v0h0a7.17,7.17,0,0,0-.3,1.1c0,.34-.12.82-.19,1.44,0,.36-.07.66-.1.92s-.06.48-.09.69a3.56,3.56,0,0,1-.15.56c-.06.15-.13.3-.2.46a.59.59,0,0,0,0,.08h0l.7-.47,1.41-.92a3.17,3.17,0,0,0,.55-.49,4.41,4.41,0,0,0,.53-.75,4.68,4.68,0,0,0,.27-.55,3,3,0,0,0,.14-.36,2.91,2.91,0,0,0,.17-1h0Zm-8.2-8.29.15.08.09.11a.11.11,0,0,0,.1.06s.08,0,.08-.06,0,0,0,0,0,0,0,0a.22.22,0,0,0,0-.17.23.23,0,0,0-.25-.06l-.05,0h0s-.08,0-.08.05a.1.1,0,0,0,.07.09Zm-3-.68h.06a1.28,1.28,0,0,1,.34-.07h.39a.21.21,0,0,0,.17-.07,1,1,0,0,0,.09-.13.55.55,0,0,0-.34-.2,1.43,1.43,0,0,0-.29,0,2.19,2.19,0,0,0-.34.1l-.34.14c-.09,0-.15,0-.17.05a1.07,1.07,0,0,0,.16.14.44.44,0,0,0,.27.07Zm-.85,15.44a8.5,8.5,0,1,0-8.5-8.5,8.5,8.5,0,0,0,8.5,8.5Zm-8.07-8.28h1.29a6.77,6.77,0,0,0,.27,1.67.14.14,0,0,1-.1-.07l0,0-.14-.2-.24.09c0,.13,0,.18-.14.14a.24.24,0,0,0-.11-.06.26.26,0,0,0-.27.24h0a1.86,1.86,0,0,0,0,.33l.2.51c0,.06.09.07.17,0s.11.13.17.2a.24.24,0,0,0,.14,0c.06,0,.09,0,.09-.08h0l.12.12a.47.47,0,0,0,.15.13v0a.33.33,0,0,0,.23.1.79.79,0,0,0,.17.31.35.35,0,0,0,.23.12.24.24,0,0,0,.11-.06.92.92,0,0,0,.14.28l.14.09.11.08h.06a.64.64,0,0,0,.14.22,1.22,1.22,0,0,0,.17.15h0l.06.07-.92.91a8,8,0,0,1-2.21-5.34Zm6.23-2.39-.07,0-.09-.09a3.11,3.11,0,0,1,1.78-.74v.9a.05.05,0,0,0,0,0l0,0h0a.07.07,0,0,0-.06,0H127l-.06,0h0a.16.16,0,0,1,0-.13h0c-.08,0-.12.07-.13.11s0,.1,0,.2a.19.19,0,0,1-.14.15.59.59,0,0,0-.17.1l-.09-.06h-.14a.35.35,0,0,0-.09-.07.1.1,0,0,1,0,0s0,0,0,0a.07.07,0,0,0-.07.06l-.09-.08h0v0a.83.83,0,0,0-.21-.16ZM125.2,6l-.87-.86a4.64,4.64,0,0,1,3-1.23V5.12A3.49,3.49,0,0,0,125.2,6Zm.48,4.1c0-.05,0-.13,0-.19l-.1.09a.87.87,0,0,0,.17-.21.71.71,0,0,1,.08-.15h0l.1.17-.79.8a3,3,0,0,1-.66-1.28.76.76,0,0,1,.2.06l.18.16a.23.23,0,0,0,.11,0l.11.08a.4.4,0,0,0,0,.15s0,0,.09.07a.18.18,0,0,1,.11.1l.06,0s0-.08,0-.12,0-.08,0-.08l.06.2.05.22h0a.21.21,0,0,0,.15,0Zm1.7.9s.07.08.07.1-.08.08-.23.08-.09.06-.11.16,0,.2-.06.27h0a3,3,0,0,1-1.51-.7l.77-.76a1.83,1.83,0,0,0,1.06.49.27.27,0,0,0,0,.12.15.15,0,0,0,0,.14s0,0,.07.1Zm-3.77,0a3.93,3.93,0,0,0-.06-.48,1.06,1.06,0,0,0-.09-.25,1.3,1.3,0,0,0-.09-.39,1.77,1.77,0,0,0-.26-.35V9.4a.85.85,0,0,0-.06-.17v0a.07.07,0,0,1,0-.07l.3-.1a1.09,1.09,0,0,1,0-.26l.21,0c.05,0,.08,0,.08-.12a.84.84,0,0,0,0-.17.83.83,0,0,1-.06-.21s0-.07.09-.1a.32.32,0,0,1,.16,0,.2.2,0,0,1,.2.1.36.36,0,0,1,.06.2.78.78,0,0,1,0,.16s0,.08,0,.12l.06,0c0,.19-.12.28-.23.28a.15.15,0,0,1-.13-.07.1.1,0,0,0-.09-.07s0,0,0,0h0a.2.2,0,0,0,0,.11.26.26,0,0,1,0,.15c0,.13,0,.18-.17.14s0,.11.11.11.08.16.12.14a.7.7,0,0,0,.06-.19.79.79,0,0,1,.06-.22l0,0,.12,0a.08.08,0,0,0,0,0h0a3.47,3.47,0,0,0,.81,1.68l-1.19,1.19a.19.19,0,0,1-.07-.19c0-.11.14-.18.16-.3l0-.23a1.08,1.08,0,0,1-.21-.34Zm-.69-1.77a.23.23,0,0,1,0,.11c0,.06,0,.08-.06.07h0a4.78,4.78,0,0,1-.07-.65H123a.5.5,0,0,1,0,.12l-.07.11a.21.21,0,0,0,0,.12.23.23,0,0,0,0,.11Zm-.12-.88a4.71,4.71,0,0,1,1.22-3l.87.87,0,0-.15,0-.13.17a1.16,1.16,0,0,0-.27.14,2.4,2.4,0,0,0-.21.23,1.1,1.1,0,0,1-.21.09l-.1.07c0,.1,0,.15,0,.16l-.28.07a.06.06,0,0,0-.06,0l-.09.09a.29.29,0,0,0,0,.09l0,.1a.4.4,0,0,0-.14.15.28.28,0,0,0,0,.25l0,.28h0a.29.29,0,0,1,0,.09Zm2.4,2.82a3.6,3.6,0,0,0,1.5.78l-.12,0a.21.21,0,0,0-.17.18.23.23,0,0,1-.13.21c-.06,0-.09.08-.07.13a.73.73,0,0,1,.2.35.36.36,0,0,0,.29.25l.16.06a.32.32,0,0,1,.17.06l.15,0a4.66,4.66,0,0,1-2.85-1.22ZM124,4.81,123.17,4a6.3,6.3,0,0,1,4.11-1.7V3.46A5.11,5.11,0,0,0,124,4.81Zm-.3.31a5.11,5.11,0,0,0-1.35,3.26h-1.22a6.32,6.32,0,0,1,1.71-4.12Zm-1.35,3.69a6.2,6.2,0,0,0,.06.62l0-.08c-.07-.09-.13-.14-.17-.14a.11.11,0,0,0-.11.07.38.38,0,0,1-.09.13.73.73,0,0,1-.31.14.75.75,0,0,0-.18.34.09.09,0,0,0,0,.11s0,.08,0,.12,0,.12,0,.14,0,.05,0,0a.08.08,0,0,0-.07,0,.16.16,0,0,0,0,.07,6.44,6.44,0,0,1-.26-1.58Zm4.91,7.85A8,8,0,0,1,122,14.44l.91-.91a6.82,6.82,0,0,0,4.42,1.84Zm0-1.72a6.35,6.35,0,0,1-4.1-1.7.73.73,0,0,0,.24.07.79.79,0,0,0,.22-.06l.26-.12a.51.51,0,0,0,.25-.06.37.37,0,0,0,.21,0,.12.12,0,0,0,.1-.14.19.19,0,0,0-.1-.16c-.06,0-.1-.09-.1-.12a.1.1,0,0,0-.06-.07l-.18-.21h0a5.13,5.13,0,0,0,3.26,1.35Zm.23-3.16h0a.68.68,0,0,1-.28,0l0-.08.14-.08a.38.38,0,0,1,.17-.08v-.07l.21-.16.07,0,.16-.05a.62.62,0,0,1,.22.1.85.85,0,0,0,.22.09l0-.11a.31.31,0,0,1,.17.11.24.24,0,0,0,.14,0,.17.17,0,0,0,0-.14.16.16,0,0,1,.09,0s0,0,0,0h.07a.26.26,0,0,0,.15-.07l.16-.1a0,0,0,0,1,0,0h0a.27.27,0,0,1,0,.12.39.39,0,0,1-.25.34l-.41.17a.47.47,0,0,0-.07.12c0,.07-.06.1-.1.1a1,1,0,0,1-.34-.06.46.46,0,0,1-.09-.17l-.21,0-.23.06a.25.25,0,0,1-.12,0Zm1.23-.93a.22.22,0,0,1,.14-.19.59.59,0,0,1,.23,0c0,.06-.05.11-.16.17a.76.76,0,0,1-.18.09Zm.88-.7a.27.27,0,0,1,.11.22.1.1,0,0,1-.09.11h0c-.06,0-.11-.07-.15-.2s-.2-.1-.22-.18,0-.14,0-.16l.11,0s.05,0,0,.13l.2.12Zm2.72-4.75a.06.06,0,0,1,.06,0,.36.36,0,0,1,.2.06,2,2,0,0,1,.34.42s0,0,.07.09a.14.14,0,0,0,.1.08.42.42,0,0,0,.15,0l0-.08a6.5,6.5,0,0,1,.57,2.42h-1.2v0a.59.59,0,0,0-.07-.31.67.67,0,0,1,0-.42.4.4,0,0,0,0-.24.2.2,0,0,0-.11,0,.57.57,0,0,0-.08.13,1.07,1.07,0,0,1-.07.15v0s0,0,0,0a.11.11,0,0,1,0,.07c0,.08,0,.15-.05.23a.55.55,0,0,0,0,.22h0v.08h-.61a.57.57,0,0,1,.13-.08h0l.17-.08a.1.1,0,0,1-.06-.09s0-.09,0-.1L132,8a.76.76,0,0,0,.15-.26,1.62,1.62,0,0,0,.23-.56s-.06-.1-.07-.15a.5.5,0,0,1,0-.12c0-.2.09-.54-.17-.61,0,0,0,0,0-.08a.18.18,0,0,0,.06-.21H132a.18.18,0,0,1,0-.1.22.22,0,0,0,0-.13.08.08,0,0,0-.06-.09h0a.4.4,0,0,0-.15,0,.11.11,0,0,1-.08,0h0l0-.05a.41.41,0,0,0-.13-.28.52.52,0,0,0-.22-.17h0a.24.24,0,0,0,0-.12l.23-.24.35.12a.2.2,0,0,0,.09.2l.12.09.13.1v0s.06.05.09.05Zm-1.16,8.23a.11.11,0,0,0-.07,0s-.05,0-.05,0,0-.08.09-.12a.37.37,0,0,0,.14-.19.58.58,0,0,0,.06-.17.07.07,0,0,0,0-.07.2.2,0,0,1-.1-.08l-.13-.05a.65.65,0,0,1-.16-.09.16.16,0,0,1-.08-.14.74.74,0,0,1,0-.14l0-.08.07-.05.65.65c0,.08.05.12.13.14l.08.07a7.09,7.09,0,0,1-.74.59.22.22,0,0,1,.05-.08.05.05,0,0,1,0,0,.28.28,0,0,0,0-.09Zm-.4-3.11a.17.17,0,0,0-.17,0,.24.24,0,0,0-.17.17,0,0,0,0,1,0,0h0l-.11,0-.14.06q-.09,0-.09-.06s.09-.09.26-.11l.13-.17.14-.05a.6.6,0,0,0,.21-.21.64.64,0,0,0,.1-.18h0c0,.09,0,.14.12.14s.11-.07.15-.2a.86.86,0,0,0,.23.06.2.2,0,0,0,.21-.11H132V10h0a4.56,4.56,0,0,1-1,1.69.22.22,0,0,0,0-.08,1.72,1.72,0,0,0-.1-.26s-.08.07-.13.2l-.11.25-.28.06a1.15,1.15,0,0,1-.26,0,1.22,1.22,0,0,1-.24-.1.64.64,0,0,0-.24-.1,1.05,1.05,0,0,0-.24-.06c-.1,0-.15,0-.15-.08s0-.09.11-.09l.22,0,.34.09.32.08.17.05.16-.06a.44.44,0,0,1,.06-.16.39.39,0,0,0,.06-.15,1.24,1.24,0,0,0,.1-.31,1.33,1.33,0,0,0,.05-.34c0-.1,0-.15-.09-.17Zm.75-1.72h.67a4.6,4.6,0,0,1-.11.83.89.89,0,0,0-.14-.25l-.23-.23c0-.09,0-.16-.05-.19a.16.16,0,0,0,0-.07.81.81,0,0,1-.1-.09Zm.28,3.47c-.06,0-.08,0-.08,0l0,.18-.42-.42a5.2,5.2,0,0,0,1.19-2.2l0,0c.1,0,.16,0,.19,0a.12.12,0,0,0,0-.08.39.39,0,0,0-.14-.23h0a6,6,0,0,0,.08-.73h1.22a6.31,6.31,0,0,1-1.71,4.11l0-.05h0c0-.13,0-.26-.07-.38s-.1-.21-.21-.21Zm-.3-6.14h0a.32.32,0,0,1,0,.14.58.58,0,0,1,0,.14.83.83,0,0,0,.22.2l.26.2a1.18,1.18,0,0,1,.12.33,1.32,1.32,0,0,1,.08.3.66.66,0,0,1-.09.19.34.34,0,0,1-.28.18l0,0a.49.49,0,0,1,.06-.17.34.34,0,0,0,0-.17.2.2,0,0,0,.12-.17l-.09,0a.81.81,0,0,1-.14-.12c0-.06-.06-.09-.17-.09a.24.24,0,0,0-.14,0l-.14.09-.06-.11a.27.27,0,0,0,0-.12L131,6.56a1,1,0,0,0-.31-.1.6.6,0,0,0-.23,0,.55.55,0,0,1-.22,0,.26.26,0,0,0-.22.07.81.81,0,0,0-.19.18s0,.08-.07.07l-.07-.08L131,5.42l0,0a1,1,0,0,1,.11.13l.13.14c.09.13.19.26.27.4Zm-3.08,8.49a1,1,0,0,0,.36.19,8,8,0,0,1-1.08.13V13.72h0a.81.81,0,0,0,.18.19.73.73,0,0,0,.25,0c.13,0,.19,0,.19.07a.28.28,0,0,1,0,.13.2.2,0,0,0,0,.13.41.41,0,0,0,.18.34Zm-.72,2v-1.3a6.65,6.65,0,0,0,1.41-.19v.06a1.07,1.07,0,0,1,.29.27c0,.08.14.12.31.12a.21.21,0,0,0,.18-.06l.1-.11a.42.42,0,0,1,.14-.09.2.2,0,0,0,.12-.08.35.35,0,0,0,.19-.17.48.48,0,0,0,.17-.23.15.15,0,0,0,.12-.07,1,1,0,0,0,.11-.3l0,0a.08.08,0,0,1,0,0,7.17,7.17,0,0,0,1.22-.91l.91.91a8,8,0,0,1-5.34,2.22Zm5.64-2.52-.91-.91a6.76,6.76,0,0,0,1.83-4.43h1.3a8,8,0,0,1-2.22,5.34Zm2.22-5.76h-1.3A6.71,6.71,0,0,0,133,4.59a.67.67,0,0,0-.06-.12l-.08-.06A3.09,3.09,0,0,0,132.5,4a.16.16,0,0,1,0-.09l.88-.89a8,8,0,0,1,2.22,5.34ZM127.71.52a8,8,0,0,1,5.34,2.22l-.79.78s0-.08,0-.12-.1-.09-.12-.09a.23.23,0,0,1-.13-.18A.26.26,0,0,0,131.9,3a.49.49,0,0,1-.28-.25c-.08-.13-.15-.19-.23-.19a.22.22,0,0,1-.18,0,.41.41,0,0,0-.19-.05.68.68,0,0,0-.2,0,.79.79,0,0,1-.22.06l0,0a6.67,6.67,0,0,0-2.76-.73c.08-.12.09-.19,0-.23s-.06,0-.12.07Zm0,1.72a6.23,6.23,0,0,1,2.64.68v0l.12.12a.58.58,0,0,0,.1.11,1.83,1.83,0,0,0,.08.25.67.67,0,0,0,.09.14.29.29,0,0,0,0,.24c0,.08.1.16.15.24L131,4h.14a.17.17,0,0,1,.12.08.42.42,0,0,1,.1.17.38.38,0,0,1,0,.1l-.35.35h0a2,2,0,0,0-.17-.48.29.29,0,0,0-.22-.07l-.2-.24a1.44,1.44,0,0,0-.19-.22.12.12,0,0,0-.09,0l.06.1.11.19a.05.05,0,0,1,0,.06h0a.18.18,0,0,0,.15.14l0,.06.08.16a5.08,5.08,0,0,0-2.81-1Zm0,1.65a4.66,4.66,0,0,1,3,1.23L129.8,6a3.43,3.43,0,0,0-2.09-.86Zm0,1.66a3,3,0,0,1,1.69.66l-.06,0-.06,0a.12.12,0,0,0,0,.07c0,.05.06.06.1.07l-.33.34h0l-.13.09c-.07,0-.12.07-.13.1a.58.58,0,0,1,0,.1l-.12.11h0s-.1,0-.18-.12a.31.31,0,0,0-.17-.11.16.16,0,0,0-.13,0,.08.08,0,0,1-.1,0s0-.09.13-.13l.24-.11a.54.54,0,0,0,.24-.45c0-.1,0-.14-.12-.14l-.09.08a.86.86,0,0,0-.2.13l-.14.14a.57.57,0,0,0-.18,0h-.17Zm-.25,2a.07.07,0,0,0,.06,0,.22.22,0,0,1,.13,0,.16.16,0,0,0,.15,0,.09.09,0,0,0,0,.06.09.09,0,0,0,.11,0l0,0s0,0,0,0a.31.31,0,0,0,0,.1h0v0a.1.1,0,0,0,.09,0h.07s0,0,0,.07h0a.13.13,0,0,0,0,.06.62.62,0,0,1,0,.13v.06a0,0,0,0,1,0,0,.26.26,0,0,0-.09.16s0,.05.08.05a.07.07,0,0,1,.1,0,.18.18,0,0,1,.06.17V9a.1.1,0,0,0,.05.08s0,0,0,.06a.76.76,0,0,1,0,.21.31.31,0,0,1-.09.18s-.06,0-.14,0a.76.76,0,0,0-.21,0s-.07.06-.11.17a1.14,1.14,0,0,0-.09.26c0,.07-.06.11-.12.11h-.13l-.1.15,0,0a1.4,1.4,0,0,1-.86-.37l.15-.16a1.18,1.18,0,0,0,.27-.06l.05,0c.15-.06.14-.19.22-.32s.19-.18.07-.28c.13-.22-.46-.23-.56-.18s0,.19-.11.29-.09.05-.13.09a.7.7,0,0,0-.22.29h0a2,2,0,0,1-.1-.21h0s0,0,0,0h0v0q.12,0,.15,0c0-.05,0-.1,0-.15a1.66,1.66,0,0,1,.15-.33.15.15,0,0,1-.06-.09s0,0-.07,0a.11.11,0,0,0,0,.09.14.14,0,0,1-.06.11.17.17,0,0,1-.11.06.08.08,0,0,0-.06-.09h0a.23.23,0,0,0-.12.06l-.26,0a.62.62,0,0,1-.27,0s0-.08.14-.12a.4.4,0,0,1,.14-.34.49.49,0,0,0,.17.06l.06-.06h0s.08.05.09.14,0,.15.08.15a.24.24,0,0,0,.11-.06V8.54c0-.16.06-.26.08-.32V8.14A.42.42,0,0,1,126.5,8h0a.38.38,0,0,1,.13-.06.64.64,0,0,0,.06-.18l.3-.11q.21-.09.21-.18h0l.19,0A.16.16,0,0,0,127.46,7.5Zm-.17-7V1.81a6.83,6.83,0,0,0-4.43,1.84L122,2.74A8,8,0,0,1,127.29.52ZM121.65,3l.91.91a6.76,6.76,0,0,0-1.83,4.43h-1.3A8,8,0,0,1,121.65,3Z"/><path id="Path_468" data-name="Path 468" class="cls-2" d="M107.75,31.87V.09"/><g class="cls-3"><path class="cls-4" d="M6.77,6s0,0,0,0V7s0,0,0,0H5.59c-.11,1.45-1,2.18-2.67,2.18h-.4A2.69,2.69,0,0,1,1.2,8.94,2.17,2.17,0,0,1,.35,8a2.86,2.86,0,0,1-.3-1.33,4.7,4.7,0,0,1,.13-1,4.16,4.16,0,0,1,.34-1h1.2a7.63,7.63,0,0,0-.23,1,5.9,5.9,0,0,0-.08,1,1.57,1.57,0,0,0,.33,1,1.06,1.06,0,0,0,.87.4h.27a1.3,1.3,0,0,0,1-.38,1.57,1.57,0,0,0,.33-1.07V2.59H5.6V6ZM2.82,2.58a.57.57,0,0,1-.44-.17.69.69,0,0,1-.17-.48.73.73,0,0,1,.16-.48.58.58,0,0,1,.45-.18.56.56,0,0,1,.44.18.65.65,0,0,1,.16.48.64.64,0,0,1-.17.48A.58.58,0,0,1,2.82,2.58Z"/><path class="cls-4" d="M8.31,6s0,0,0,0V7s0,0,0,0H6.68a0,0,0,0,1,0,0V6s0,0,0,0Z"/><path class="cls-4" d="M9.86,6s.05,0,.05,0V7s0,0-.05,0H8.23a0,0,0,0,1-.05,0V6s0,0,.05,0Z"/><path class="cls-4" d="M11.41,6s.05,0,.05,0V7s0,0-.05,0H9.78a0,0,0,0,1,0,0V6s0,0,0,0Z"/><path class="cls-4" d="M11.33,7.08a0,0,0,0,1-.05,0V6s0,0,.05,0h1.39a1.13,1.13,0,0,1-.53-.51,1.56,1.56,0,0,1-.2-.8,2,2,0,0,1,.67-1.6,2.68,2.68,0,0,1,1.83-.58,4.14,4.14,0,0,1,.84.09,2.74,2.74,0,0,1,.69.2l-.38,1.07A3.85,3.85,0,0,0,15,3.65a2.6,2.6,0,0,0-.56-.06,1.21,1.21,0,0,0-.86.29,1.17,1.17,0,0,0-.31.86,1.32,1.32,0,0,0,.32.9,1.09,1.09,0,0,0,.84.35H16.1V7.08Z"/><path class="cls-4" d="M25.58,6s.05,0,.05,0V7a0,0,0,0,1-.05,0H22.83a2.93,2.93,0,0,1-1.95-.59,2,2,0,0,1-.7-1.64,2.22,2.22,0,0,1,.32-1.18,2.06,2.06,0,0,1,.92-.8,3.23,3.23,0,0,1,1.41-.28h.25V2.14h1.37V6ZM23.1,6V3.68h-.24a1.42,1.42,0,0,0-1,.3,1.14,1.14,0,0,0-.33.88,1,1,0,0,0,.33.83,1.34,1.34,0,0,0,.94.3Zm-.85-4.42a.6.6,0,0,1-.44-.17.68.68,0,0,1-.16-.48.68.68,0,0,1,.16-.48.54.54,0,0,1,.44-.17.55.55,0,0,1,.44.17.65.65,0,0,1,.16.48.65.65,0,0,1-.16.48A.6.6,0,0,1,22.25,1.57Zm1.54,0a.6.6,0,0,1-.44-.17.68.68,0,0,1-.16-.48.68.68,0,0,1,.16-.48.55.55,0,0,1,.44-.17.57.57,0,0,1,.45.17.73.73,0,0,1,.16.48.69.69,0,0,1-.17.48A.6.6,0,0,1,23.79,1.57Z"/><path class="cls-4" d="M27.13,6s.05,0,.05,0V7a0,0,0,0,1-.05,0H25.49s0,0,0,0V6s0,0,0,0Z"/><path class="cls-4" d="M28.68,6s.05,0,.05,0V7a0,0,0,0,1-.05,0H27s0,0,0,0V6s0,0,0,0Z"/><path class="cls-4" d="M30.23,6s.05,0,.05,0V7a0,0,0,0,1-.05,0H28.59s0,0,0,0V6s0,0,0,0Z"/><path class="cls-4" d="M31.16,6a3.13,3.13,0,0,1-.24-1.25,3,3,0,0,1,.13-.85,3.41,3.41,0,0,1,.33-.79,4.22,4.22,0,0,1,.93-.38,3.34,3.34,0,0,1,.87-.13,2.38,2.38,0,0,1,1.13.26,1.94,1.94,0,0,1,.78.75,2.2,2.2,0,0,1,.28,1.13A2.34,2.34,0,0,1,35.05,6a2.16,2.16,0,0,1-.89.83,2.67,2.67,0,0,1-1.27.3H30.14s0,0,0,0V6s0,0,0,0Zm1-1.06A3.25,3.25,0,0,0,32.38,6h.34a1.28,1.28,0,0,0,.92-.37A1.2,1.2,0,0,0,34,4.73,1.22,1.22,0,0,0,33.78,4a.78.78,0,0,0-.63-.28,1.65,1.65,0,0,0-.84.25A3.66,3.66,0,0,0,32.17,4.93Z"/><path class="cls-4" d="M39.26,6s.05,0,.05,0V7a0,0,0,0,1-.05,0H36.78V.19h1.35V6Z"/><path class="cls-4" d="M40.81,6s0,0,0,0V7s0,0,0,0H39.17a0,0,0,0,1,0,0V6s0,0,0,0Z"/><path class="cls-4" d="M42.36,6s0,0,0,0V7s0,0,0,0H40.72a0,0,0,0,1,0,0V6s0,0,0,0Z"/><path class="cls-4" d="M47.84,6s0,0,0,0V7a0,0,0,0,1,0,0H46.69a2.91,2.91,0,0,1-.89-.15A2.87,2.87,0,0,1,45,6.57a3.19,3.19,0,0,1-1.69.51h-1a0,0,0,0,1,0,0V6s0,0,0,0h.91a2.48,2.48,0,0,0,.45,0,1.44,1.44,0,0,0,.4-.13,2.55,2.55,0,0,1-.57-.65,6.08,6.08,0,0,1-.52-1,4.32,4.32,0,0,1-.3-1,4,4,0,0,1,1.22-.7,3.82,3.82,0,0,1,1.32-.26,4.63,4.63,0,0,1,2.28.55,4,4,0,0,1-.4,1.8A2.92,2.92,0,0,1,46,5.81,1.74,1.74,0,0,0,46.8,6ZM45,5.25a2.15,2.15,0,0,0,1.14-1.79,2.64,2.64,0,0,0-1-.17,2.09,2.09,0,0,0-.63.11,1.75,1.75,0,0,0-.53.24,3.28,3.28,0,0,0,.41.94A2,2,0,0,0,45,5.25Z"/><path class="cls-4" d="M47.75,7.08s0,0,0,0V6s0,0,0,0h1.14V.19h1.35V7.08Z"/><path class="cls-4" d="M52.05.19H53.4V7.08H52.05Z"/><path class="cls-4" d="M63.38,6s0,0,0,0V7a0,0,0,0,1,0,0H60.63a2.93,2.93,0,0,1-2-.59A2,2,0,0,1,58,4.85a2.22,2.22,0,0,1,.32-1.18,2.06,2.06,0,0,1,.92-.8,3.23,3.23,0,0,1,1.41-.28h.25V2.14h1.37V6ZM60.9,6V3.68h-.24a1.42,1.42,0,0,0-1,.3,1.14,1.14,0,0,0-.33.88,1,1,0,0,0,.33.83,1.34,1.34,0,0,0,.94.3Zm-.85-4.42a.6.6,0,0,1-.44-.17.68.68,0,0,1-.16-.48.68.68,0,0,1,.16-.48.54.54,0,0,1,.44-.17.55.55,0,0,1,.44.17.65.65,0,0,1,.16.48.65.65,0,0,1-.16.48A.6.6,0,0,1,60.05,1.57Zm1.54,0a.6.6,0,0,1-.44-.17A.68.68,0,0,1,61,.92a.68.68,0,0,1,.16-.48.55.55,0,0,1,.44-.17A.57.57,0,0,1,62,.44a.73.73,0,0,1,.16.48A.69.69,0,0,1,62,1.4.6.6,0,0,1,61.59,1.57Z"/><path class="cls-4" d="M64.93,6s0,0,0,0V7a0,0,0,0,1,0,0H63.29s0,0,0,0V6s0,0,0,0Z"/><path class="cls-4" d="M66.48,6s0,0,0,0V7a0,0,0,0,1,0,0H64.84s0,0,0,0V6s0,0,0,0Z"/><path class="cls-4" d="M68,6s0,0,0,0V7a0,0,0,0,1,0,0H66.39s0,0,0,0V6s0,0,0,0Z"/><path class="cls-4" d="M69.58,6s0,0,0,0V7a0,0,0,0,1,0,0H67.94s0,0,0,0V6s0,0,0,0Z"/><path class="cls-4" d="M71.13,6s.05,0,.05,0V7a0,0,0,0,1-.05,0H69.49s0,0,0,0V6s0,0,0,0Z"/><path class="cls-4" d="M71,7.08s0,0,0,0V6s0,0,0,0H74.7a2.52,2.52,0,0,1-.55-1.3,1.73,1.73,0,0,0-.37-.86,1,1,0,0,0-.72-.24,2,2,0,0,0-.6.08,3,3,0,0,0-.61.26l-.4-1a3.93,3.93,0,0,1,1.89-.43,2.22,2.22,0,0,1,1.42.4,2.18,2.18,0,0,1,.66,1.35A3.53,3.53,0,0,0,76.05,6h.59s0,0,0,0V7a0,0,0,0,1,0,0Z"/><path class="cls-4" d="M78.19,6s0,0,0,0V7a0,0,0,0,1,0,0H76.55s0,0,0,0V6s0,0,0,0Z"/><path class="cls-4" d="M79.74,6s.05,0,.05,0V7a0,0,0,0,1-.05,0H78.1s0,0,0,0V6s0,0,0,0Z"/><path class="cls-4" d="M80.68,6a3,3,0,0,1-.25-1.25,3,3,0,0,1,.14-.85,3,3,0,0,1,.32-.79,4.51,4.51,0,0,1,.94-.38,3.27,3.27,0,0,1,.86-.13,2.35,2.35,0,0,1,1.13.26,2,2,0,0,1,.79.75,2.3,2.3,0,0,1,.27,1.13,2.6,2.6,0,0,1-.16.93.81.81,0,0,0,.37.25,1.6,1.6,0,0,0,.53.08h0s0,0,0,0V7s0,0,0,0h0a2.29,2.29,0,0,1-.83-.14,1.83,1.83,0,0,1-.67-.47,2.29,2.29,0,0,1-.79.45,2.66,2.66,0,0,1-.92.16H79.65s0,0,0,0V6s0,0,0,0Zm1-1.06A3.49,3.49,0,0,0,81.89,6h.35a1.25,1.25,0,0,0,.91-.37,1.2,1.2,0,0,0,.37-.89A1.16,1.16,0,0,0,83.29,4a.76.76,0,0,0-.62-.28,1.66,1.66,0,0,0-.85.25A3.66,3.66,0,0,0,81.69,4.93Z"/><path class="cls-4" d="M87.21,6s.05,0,.05,0V7s0,0-.05,0H85.58a0,0,0,0,1,0,0V6s0,0,0,0Z"/><path class="cls-4" d="M87.13,7.08a0,0,0,0,1,0,0V6s0,0,0,0h1.13V.19h1.35V6h1.18s0,0,0,0V7s0,0,0,0Z"/><path class="cls-4" d="M90.7,7.08a0,0,0,0,1,0,0V6s0,0,0,0h1.13V.19h1.35V7.08Z"/><path class="cls-4" d="M95,.19h1.35V7.08H95Z"/></g><g class="cls-3"><path class="cls-4" d="M68.94,19.09a2.63,2.63,0,0,1-1.32-.32,2.14,2.14,0,0,1-.86-.9,2.92,2.92,0,0,1-.29-1.32,4.83,4.83,0,0,1,.12-1.05,4.69,4.69,0,0,1,.34-1h1.2c-.09.33-.17.67-.23,1a7.31,7.31,0,0,0-.08,1,1.57,1.57,0,0,0,.33,1.05A1.1,1.1,0,0,0,69,18h.27a1.3,1.3,0,0,0,1-.38,1.56,1.56,0,0,0,.33-1.06V10H72v5.8h1.18s0,0,0,0v1s0,0,0,0H72c-.11,1.45-1,2.18-2.67,2.18Z"/><path class="cls-4" d="M74.74,15.82s.05,0,.05,0v1s0,0-.05,0H73.1s0,0,0,0v-1s0,0,0,0Z"/><path class="cls-4" d="M76.29,15.82s0,0,0,0v1s0,0,0,0H74.65s0,0,0,0v-1s0,0,0,0Z"/><path class="cls-4" d="M77.84,15.82s0,0,0,0v1s0,0,0,0H76.2s0,0,0,0v-1s0,0,0,0Z"/><path class="cls-4" d="M79.39,15.82s0,0,0,0v1s0,0,0,0H77.75s0,0,0,0v-1s0,0,0,0Z"/><path class="cls-4" d="M80.32,15.82a3.13,3.13,0,0,1-.24-1.25,3,3,0,0,1,.13-.85,3.52,3.52,0,0,1,.33-.78,3.82,3.82,0,0,1,.93-.39,3.34,3.34,0,0,1,.87-.13,2.39,2.39,0,0,1,1.13.27,1.82,1.82,0,0,1,.78.75,2.17,2.17,0,0,1,.28,1.12,2.66,2.66,0,0,1-.17.94.93.93,0,0,0,.38.25,1.58,1.58,0,0,0,.53.07h0s0,0,0,0v1s0,0,0,0h0a2.3,2.3,0,0,1-.83-.13,1.74,1.74,0,0,1-.67-.48,2.25,2.25,0,0,1-.79.46,2.92,2.92,0,0,1-.93.15H79.3s0,0,0,0v-1s0,0,0,0Zm1-1.06a3.25,3.25,0,0,0,.21,1.06h.34a1.24,1.24,0,0,0,.92-.37,1.3,1.3,0,0,0,.14-1.65.76.76,0,0,0-.63-.29,1.65,1.65,0,0,0-.84.25A3.66,3.66,0,0,0,81.33,14.76Z"/><path class="cls-4" d="M90.79,15.82s0,0,0,0v1s0,0,0,0H89.64a3.17,3.17,0,0,1-.89-.14A3,3,0,0,1,88,16.4a3.22,3.22,0,0,1-1.69.51h-1s0,0,0,0v-1s0,0,0,0h.91a1.93,1.93,0,0,0,.45-.05,1.59,1.59,0,0,0,.4-.12,2.81,2.81,0,0,1-.57-.66,4.79,4.79,0,0,1-.52-1,4.73,4.73,0,0,1-.31-1,4.46,4.46,0,0,1,1.22-.7A3.85,3.85,0,0,1,88.13,12a4.66,4.66,0,0,1,2.28.54,4.18,4.18,0,0,1-.4,1.81,3.09,3.09,0,0,1-1.08,1.25,1.71,1.71,0,0,0,.82.18ZM88,15.09a2.19,2.19,0,0,0,1.14-1.8,2.69,2.69,0,0,0-1-.16,2.06,2.06,0,0,0-.63.1,1.76,1.76,0,0,0-.53.24,3.14,3.14,0,0,0,.4.94A2.21,2.21,0,0,0,88,15.09Z"/><path class="cls-4" d="M90.7,16.91s0,0,0,0v-1s0,0,0,0h1.13V10h1.35v6.89Z"/><path class="cls-4" d="M95,10h1.35v6.89H95Z"/><path class="cls-4" d="M24.76,16.88a2.3,2.3,0,0,1-.83-.13,2.11,2.11,0,0,1-.71-.53c-.06-.06-.21-.27-.45-.61a5,5,0,0,0-.67-.79.73.73,0,0,0-.46-.2.72.72,0,0,0-.37.15,1.38,1.38,0,0,0-.37.35.58.58,0,0,0-.15.34.4.4,0,0,0,.16.32,1.57,1.57,0,0,0,.49.25,4.1,4.1,0,0,1,.86.37,1.15,1.15,0,0,1,.55,1,1.37,1.37,0,0,1-.65,1.22,3.61,3.61,0,0,1-1.94.42H18.09a1.76,1.76,0,0,1-1.59-1A2.34,2.34,0,0,1,16.27,17a5.25,5.25,0,0,1,.29-1.74h1.2a3.22,3.22,0,0,0-.15.71,6.54,6.54,0,0,0,0,.84,1.21,1.21,0,0,0,.55,1,1,1,0,0,0,.53.16h1.56a3.12,3.12,0,0,0,1-.11.38.38,0,0,0,.26-.37.33.33,0,0,0-.14-.26,1.38,1.38,0,0,0-.48-.2,2.09,2.09,0,0,1-1.05-.52,1.21,1.21,0,0,1-.3-.87,1.9,1.9,0,0,1,.34-1,3.21,3.21,0,0,1,.89-.87,1.87,1.87,0,0,1,1-.35,1.24,1.24,0,0,1,.54.11,1.77,1.77,0,0,1,.48.34,8.45,8.45,0,0,1,.75,1,3.11,3.11,0,0,0,.67.77.93.93,0,0,0,.55.18h0s.05,0,.05,0v1s0,0-.05,0Zm-6,4.41a.54.54,0,0,1-.44-.18.64.64,0,0,1-.17-.47.73.73,0,0,1,.16-.48.57.57,0,0,1,.45-.17.53.53,0,0,1,.43.17.65.65,0,0,1,.16.48.68.68,0,0,1-.16.48A.58.58,0,0,1,18.79,21.29Zm1.53,0a.57.57,0,0,1-.44-.18.64.64,0,0,1-.16-.47.68.68,0,0,1,.16-.48.55.55,0,0,1,.44-.17.54.54,0,0,1,.44.17.68.68,0,0,1,.16.48.64.64,0,0,1-.16.47A.57.57,0,0,1,20.32,21.29Z"/><path class="cls-4" d="M26.35,15.8s0,0,0,0v1s0,0,0,0H24.72s0,0,0,0v-1s0,0,0,0Z"/><path class="cls-4" d="M26.26,16.88s0,0,0,0v-1s0,0,0,0h1.13V12.41h1.35v4.47Zm1.79-5.25a.54.54,0,0,1-.44-.17.66.66,0,0,1-.17-.47.69.69,0,0,1,.16-.48.58.58,0,0,1,.45-.18.6.6,0,0,1,.44.17.74.74,0,0,1,.16.49.66.66,0,0,1-.17.47A.54.54,0,0,1,28.05,11.63Z"/><path class="cls-4" d="M32.88,15.8s0,0,0,0v1s0,0,0,0H30.41V10h1.34V15.8Z"/><path class="cls-4" d="M34.43,15.8s0,0,0,0v1s0,0,0,0H32.79s0,0,0,0v-1s0,0,0,0Z"/><path class="cls-4" d="M36,15.8s.05,0,.05,0v1s0,0-.05,0H34.34s-.05,0-.05,0v-1s0,0,.05,0Z"/><path class="cls-4" d="M37.51,15.8s.05,0,.05,0v1s0,0-.05,0H35.88s0,0,0,0v-1s0,0,0,0Z"/><path class="cls-4" d="M47,15.8s0,0,0,0v1s0,0,0,0H43.89a1.94,1.94,0,0,1-1.41-.67,1.77,1.77,0,0,1-1.51.67H37.43s0,0,0,0v-1s0,0,0,0h1.13V13.12H39.9V15.8h.77a.8.8,0,0,0,.66-.25,1.24,1.24,0,0,0,.21-.8V13.12h1.34v1.74a2.68,2.68,0,0,1,0,.41,1.39,1.39,0,0,0,.44.41,1.2,1.2,0,0,0,.57.12h.56V12.41h1.34V15.8Z"/><path class="cls-4" d="M48.49,15.8s0,0,0,0v1s0,0,0,0H46.86s0,0,0,0v-1s0,0,0,0Z"/><path class="cls-4" d="M50,15.8s0,0,0,0v1s0,0,0,0H48.4s0,0,0,0v-1s0,0,0,0Z"/><path class="cls-4" d="M50,16.88s-.05,0-.05,0v-1s0,0,.05,0h1.13V12.41h1.34v4.47Zm1.79-5.25a.57.57,0,0,1-.45-.17.79.79,0,0,1,0-1,.58.58,0,0,1,.45-.18.56.56,0,0,1,.43.17.69.69,0,0,1,.16.49.65.65,0,0,1-.16.47A.56.56,0,0,1,51.74,11.63Z"/><path class="cls-4" d="M53.6,15.8h1.63l-1.16-4.56h1.41l1.07,4.56h.06a.8.8,0,0,0,.66-.25,1.24,1.24,0,0,0,.21-.8V10h1.35v4.84a2.07,2.07,0,0,1-.51,1.47,1.82,1.82,0,0,1-1.41.55H53.6Zm1.26,3.29.52-.08a.81.81,0,0,1-.3-.25.65.65,0,0,1-.11-.37.74.74,0,0,1,.27-.6,1.15,1.15,0,0,1,.73-.22,1.53,1.53,0,0,1,.74.17l-.18.45a1.32,1.32,0,0,0-.49-.11.43.43,0,0,0-.32.11.46.46,0,0,0,.15.73l.17,0a6.23,6.23,0,0,1,.73-.09v.52l-1.07.11q-.73.09-.84.12Z"/><path class="cls-4" d="M60.54,10h1.35v6.86H60.54Z"/></g><g class="cls-3"><path class="cls-4" d="M24.59,27.51a2.29,2.29,0,0,1-.83-.14,2.21,2.21,0,0,1-.71-.53c-.06-.06-.21-.27-.46-.61a5.11,5.11,0,0,0-.67-.8.77.77,0,0,0-.46-.2.72.72,0,0,0-.37.15,1.55,1.55,0,0,0-.37.35.64.64,0,0,0-.15.34.41.41,0,0,0,.16.33,1.57,1.57,0,0,0,.49.25,3.87,3.87,0,0,1,.86.37,1.23,1.23,0,0,1,.42.43,1.27,1.27,0,0,1,.14.6A1.37,1.37,0,0,1,22,29.27a3.66,3.66,0,0,1-2,.42H17.89a1.68,1.68,0,0,1-.93-.27,1.73,1.73,0,0,1-.66-.73,2.47,2.47,0,0,1-.23-1.07,5.54,5.54,0,0,1,.29-1.75h1.21a4,4,0,0,0-.16.71q0,.33,0,.84a1.23,1.23,0,0,0,.15.59,1.19,1.19,0,0,0,.4.43,1,1,0,0,0,.53.16H20a3.19,3.19,0,0,0,1-.11.39.39,0,0,0,.27-.37.32.32,0,0,0-.15-.27,1.4,1.4,0,0,0-.48-.19,2.22,2.22,0,0,1-1.06-.52,1.25,1.25,0,0,1-.29-.88,1.81,1.81,0,0,1,.34-1,3,3,0,0,1,.89-.88,2,2,0,0,1,1-.35,1.19,1.19,0,0,1,.54.11,1.69,1.69,0,0,1,.48.34,7.53,7.53,0,0,1,.76,1,3.11,3.11,0,0,0,.67.77,1,1,0,0,0,.55.18h.05s.05,0,.05,0v1a0,0,0,0,1-.05.05Zm-6,4.42a.54.54,0,0,1-.44-.18.64.64,0,0,1-.17-.47.69.69,0,0,1,.16-.48.58.58,0,0,1,.45-.18.57.57,0,0,1,.44.18.69.69,0,0,1,.16.48.67.67,0,0,1-.17.48A.58.58,0,0,1,18.6,31.93Zm1.54,0a.56.56,0,0,1-.44-.18.64.64,0,0,1-.17-.47.69.69,0,0,1,.16-.48.58.58,0,0,1,.45-.18.54.54,0,0,1,.44.18.65.65,0,0,1,.16.48.64.64,0,0,1-.16.47A.57.57,0,0,1,20.14,31.93Z"/><path class="cls-4" d="M26.19,26.42s0,0,0,0v1a0,0,0,0,1,0,.05H24.55s0,0,0-.05v-1s0,0,0,0Z"/><path class="cls-4" d="M27.74,26.42s.05,0,.05,0v1a0,0,0,0,1-.05.05H26.1s0,0,0-.05v-1s0,0,0,0Z"/><path class="cls-4" d="M29.29,26.42s.05,0,.05,0v1a0,0,0,0,1-.05.05H27.65s0,0,0-.05v-1s0,0,0,0Z"/><path class="cls-4" d="M30.84,26.42s.05,0,.05,0v1a0,0,0,0,1-.05.05H29.2s0,0,0-.05v-1s0,0,0,0Z"/><path class="cls-4" d="M32.39,26.42s0,0,0,0v1a0,0,0,0,1,0,.05H30.75s0,0,0-.05v-1s0,0,0,0Z"/><path class="cls-4" d="M33.94,26.42s.05,0,.05,0v1a0,0,0,0,1-.05.05H32.3s0,0,0-.05v-1s0,0,0,0Z"/><path class="cls-4" d="M35.49,26.42s0,0,0,0v1a0,0,0,0,1,0,.05H33.85s0,0,0-.05v-1s0,0,0,0Z"/><path class="cls-4" d="M37,26.42s.05,0,.05,0v1a0,0,0,0,1-.05.05H35.4s0,0,0-.05v-1s0,0,0,0Z"/><path class="cls-4" d="M38.59,26.42s0,0,0,0v1a0,0,0,0,1,0,.05H37s0,0,0-.05v-1s0,0,0,0Z"/><path class="cls-4" d="M40.14,26.42s0,0,0,0v1a0,0,0,0,1,0,.05H38.5s0,0,0-.05v-1s0,0,0,0Z"/><path class="cls-4" d="M41.07,26.42a3.13,3.13,0,0,1-.24-1.25,3.38,3.38,0,0,1,.13-.85,3.52,3.52,0,0,1,.33-.78,3.82,3.82,0,0,1,.93-.39,3.34,3.34,0,0,1,.87-.13,2.5,2.5,0,0,1,1.13.26A1.94,1.94,0,0,1,45,24a2.2,2.2,0,0,1,.28,1.13,2.49,2.49,0,0,1-.17.94,1,1,0,0,0,.38.25,1.58,1.58,0,0,0,.53.07h0s0,0,0,0v1s0,.05,0,.05h0a2.29,2.29,0,0,1-.83-.14,1.71,1.71,0,0,1-.67-.47,2.49,2.49,0,0,1-.79.46,2.91,2.91,0,0,1-.92.15H40.05s0,0,0-.05v-1s0,0,0,0Zm1-1.06a3.25,3.25,0,0,0,.21,1.06h.34a1.22,1.22,0,0,0,.92-.37,1.19,1.19,0,0,0,.37-.89,1.22,1.22,0,0,0-.23-.77.78.78,0,0,0-.63-.28,1.65,1.65,0,0,0-.84.25A3.66,3.66,0,0,0,42.08,25.36Z"/><path class="cls-4" d="M47.61,26.42s0,0,0,0v1a0,0,0,0,1,0,.05H46s0,0,0-.05v-1s0,0,0,0Z"/><path class="cls-4" d="M49.16,26.42s.05,0,.05,0v1a0,0,0,0,1-.05.05H47.52s0,0,0-.05v-1s0,0,0,0Z"/><path class="cls-4" d="M50.71,26.42s0,0,0,0v1a0,0,0,0,1,0,.05H49.07s0,0,0-.05v-1s0,0,0,0Z"/><path class="cls-4" d="M52.26,26.42s.05,0,.05,0v1a0,0,0,0,1-.05.05H50.62s0,0,0-.05v-1s0,0,0,0Z"/><path class="cls-4" d="M53.81,26.42s0,0,0,0v1a0,0,0,0,1,0,.05H52.17s0,0,0-.05v-1s0,0,0,0Z"/><path class="cls-4" d="M53.72,27.51s0,0,0-.05v-1s0,0,0,0h1.14v-5.8h1.35v6.89Z"/><path class="cls-4" d="M60.51,26.42s0,0,0,0v1s0,.05,0,.05H58V20.62h1.35v5.8Z"/><path class="cls-4" d="M62.06,26.42s0,0,0,0v1a0,0,0,0,1,0,.05H60.42s0,0,0-.05v-1s0,0,0,0Z"/><path class="cls-4" d="M63.61,26.42s0,0,0,0v1a0,0,0,0,1,0,.05H62s0,0,0-.05v-1s0,0,0,0Z"/><path class="cls-4" d="M65.16,26.42s0,0,0,0v1a0,0,0,0,1,0,.05H63.52s0,0,0-.05v-1s0,0,0,0Z"/><path class="cls-4" d="M66.71,26.42s.05,0,.05,0v1a0,0,0,0,1-.05.05H65.07s0,0,0-.05v-1s0,0,0,0Z"/><path class="cls-4" d="M68.26,26.42s0,0,0,0v1a0,0,0,0,1,0,.05H66.62s0,0,0-.05v-1s0,0,0,0Z"/><path class="cls-4" d="M69.81,26.42s0,0,0,0v1a0,0,0,0,1,0,.05H68.17s0,0,0-.05v-1s0,0,0,0Z"/><path class="cls-4" d="M71.36,26.42s0,0,0,0v1a0,0,0,0,1,0,.05H69.72s0,0,0-.05v-1s0,0,0,0Z"/><path class="cls-4" d="M72.91,26.42s0,0,0,0v1a0,0,0,0,1,0,.05H71.27s0,0,0-.05v-1s0,0,0,0Z"/><path class="cls-4" d="M74.46,26.42s.05,0,.05,0v1a0,0,0,0,1-.05.05H72.82s0,0,0-.05v-1s0,0,0,0Z"/><path class="cls-4" d="M76,26.42s0,0,0,0v1a0,0,0,0,1,0,.05H74.37s0,0,0-.05v-1s0,0,0,0Z"/><path class="cls-4" d="M77.56,26.42s0,0,0,0v1a0,0,0,0,1,0,.05H75.92s0,0,0-.05v-1s0,0,0,0Z"/><path class="cls-4" d="M79.11,26.42s0,0,0,0v1a0,0,0,0,1,0,.05H77.47s0,0,0-.05v-1s0,0,0,0Z"/><path class="cls-4" d="M80.66,26.42s0,0,0,0v1a0,0,0,0,1,0,.05H79s0,0,0-.05v-1s0,0,0,0Z"/><path class="cls-4" d="M86.14,26.42s0,0,0,0v1s0,.05,0,.05H85a3.17,3.17,0,0,1-.89-.14,3,3,0,0,1-.79-.37,3.22,3.22,0,0,1-1.69.51H80.57s0,0,0-.05v-1s0,0,0,0h.91a2.68,2.68,0,0,0,.45-.05,1.59,1.59,0,0,0,.4-.12,2.81,2.81,0,0,1-.57-.66,5.07,5.07,0,0,1-.52-1,4.73,4.73,0,0,1-.31-1,4.09,4.09,0,0,1,1.22-.7,3.85,3.85,0,0,1,1.33-.25,4.66,4.66,0,0,1,2.28.54,4.1,4.1,0,0,1-.4,1.8,3.05,3.05,0,0,1-1.08,1.26,1.71,1.71,0,0,0,.82.18Zm-2.81-.74a2.2,2.2,0,0,0,1.14-1.79,2.69,2.69,0,0,0-1-.16,2.06,2.06,0,0,0-.63.1,2,2,0,0,0-.54.24,3.44,3.44,0,0,0,.41.94A2.17,2.17,0,0,0,83.33,25.68Z"/><path class="cls-4" d="M87.69,26.42s0,0,0,0v1a0,0,0,0,1,0,.05H86.05a0,0,0,0,1,0-.05v-1s0,0,0,0Z"/><path class="cls-4" d="M89.24,26.42s.05,0,.05,0v1a0,0,0,0,1-.05.05H87.6a0,0,0,0,1,0-.05v-1s0,0,0,0Z"/><path class="cls-4" d="M90.79,26.42s0,0,0,0v1a0,0,0,0,1,0,.05H89.15a0,0,0,0,1-.05-.05v-1s0,0,.05,0Z"/><path class="cls-4" d="M90.7,27.51a0,0,0,0,1,0-.05v-1s0,0,0,0h1.13v-5.8h1.35v6.89Z"/><path class="cls-4" d="M95,20.62h1.35v6.89H95Z"/></g></svg>