<?xml version="1.0" encoding="utf-8"?>
<!-- Generator: Adobe Illustrator 26.0.1, SVG Export Plug-In . SVG Version: 6.00 Build 0)  -->
<svg version="1.1" id="Layer_1" xmlns="http://www.w3.org/2000/svg" xmlns:xlink="http://www.w3.org/1999/xlink" x="0px" y="0px"
	 viewBox="0 0 240 28" style="enable-background:new 0 0 240 28;" xml:space="preserve">
<style type="text/css">
	.st0{fill:#1B344A;}
	.st1{fill:#5090CD;}
	.st2{fill:none;stroke:#B7B6B6;stroke-width:0.41;}
</style>
<g>
	<g>
		<path class="st0" d="M54.2,10.5l0.8-0.1l3.4-9.6h2.2l3.3,9.6l0.8,0.1v1.3h-3.7v-1.3l0.8-0.2l-0.4-1.5h-3.5l-0.5,1.6l0.8,0.2v1.3
			h-3.7L54.2,10.5L54.2,10.5z M58.2,7.2h2.5l-1.2-3.9l0,0L58.2,7.2z"/>
		<path class="st0" d="M70.6,0.8c1-0.1,2.2,0.3,2.9,0.9c0.7,0.6,1.1,1.6,1.1,2.5s-0.3,1.9-1.1,2.5c-0.9,0.7-1.9,1-2.9,0.9h-1.9v2.4
			l1.2,0.3v1.3h-4.6v-1.3l1.2-0.3V2.4l-1.2-0.3V0.8H70.6z M68.8,6.1h1.9c0.5,0,1-0.2,1.4-0.5s0.5-0.8,0.4-1.3c0-0.5-0.2-0.9-0.4-1.3
			c-0.3-0.3-0.9-0.5-1.4-0.5h-1.9V6.1z"/>
		<path class="st0" d="M82.6,7h-3.7v3.1h3.5l0.1-1.3h1.7v3h-8.8v-1.3l1.2-0.3V2.4l-1.2-0.3V0.8h8.7v3h-1.7l-0.1-1.3h-3.5v2.8h3.7
			L82.6,7z"/>
		<path class="st0" d="M90.2,0.8c1-0.1,2.1,0.3,2.9,0.9c0.7,0.6,1.1,1.5,1,2.3c0,0.5-0.2,1-0.4,1.5c-0.3,0.4-0.8,0.8-1.3,1
			c0.6,0.2,1,0.4,1.4,0.9c0.3,0.5,0.4,1,0.4,1.6v0.5c0,0.2,0,0.4,0.2,0.5c0.1,0.2,0.3,0.3,0.5,0.3h0.3v1.3H94
			c-0.6,0.1-1.1-0.2-1.6-0.6c-0.3-0.4-0.4-0.9-0.4-1.5V9c0-0.4-0.1-0.9-0.4-1.2c-0.3-0.3-0.8-0.5-1.2-0.5h-1.8v2.9l1.2,0.3v1.3h-4.5
			v-1.3l1.2-0.3V2.4l-1.2-0.3V0.8H90.2z M88.7,5.7h1.6c0.5,0,0.9-0.1,1.4-0.3C92,5.1,92.1,4.6,92,4.2c0-0.4-0.2-0.9-0.4-1.2
			c-0.3-0.3-0.9-0.5-1.4-0.4h-1.6V5.7z"/>
		<path class="st0" d="M104.9,4.6h-1.6L103,3.1c-0.3-0.3-0.5-0.4-0.8-0.5c-0.3-0.2-0.8-0.2-1.1-0.2c-0.9-0.1-1.7,0.3-2.2,1
			c-0.5,0.8-0.9,1.7-0.8,2.8v0.3c-0.1,0.9,0.3,1.9,0.8,2.8c0.5,0.7,1.3,1.1,2.2,1c0.4,0,0.8-0.1,1.2-0.2c0.3-0.1,0.6-0.3,0.9-0.5
			l0.3-1.5h1.6v2.2c-0.5,0.5-1,0.9-1.7,1.2c-0.7,0.3-1.6,0.4-2.3,0.4c-1.4,0.1-2.7-0.5-3.6-1.6c-0.9-1.1-1.5-2.5-1.4-4V6.1
			c-0.1-1.5,0.4-2.8,1.4-4c0.9-1,2.2-1.6,3.6-1.6c0.8,0,1.6,0.2,2.3,0.4c0.7,0.3,1.2,0.7,1.7,1.2L104.9,4.6z M101.6,11.8l-0.1,0.4
			c0.3,0,0.6,0.2,0.8,0.3c0.3,0.3,0.3,0.6,0.3,0.9c0,0.5-0.3,1-0.7,1.3c-0.6,0.3-1.3,0.5-2,0.5L99.9,14c0.2,0,0.4,0,0.6-0.2
			c0.2-0.1,0.3-0.3,0.3-0.5c0-0.2-0.1-0.3-0.3-0.4c-0.3-0.1-0.6-0.2-0.9-0.2l0.3-1L101.6,11.8z"/>
		<path class="st0" d="M110.3,0.8v1.3l-1.2,0.3v5.8c-0.1,0.6,0.2,1.2,0.6,1.6c0.4,0.3,1,0.6,1.6,0.5c0.6,0,1.2-0.2,1.6-0.5
			c0.4-0.4,0.6-1,0.6-1.6V2.4l-1.2-0.3V0.8h4.6v1.3l-1.2,0.3v5.8c0.1,1.1-0.3,2.2-1.2,2.8c-1.9,1.3-4.5,1.3-6.4,0
			c-0.9-0.7-1.3-1.7-1.2-2.8V2.4l-1.2-0.3V0.8H110.3L110.3,0.8z"/>
		<path class="st0" d="M121.4,2.1V0.8h4.6v1.3l-1.2,0.3v3.2h4.5V2.4L128,2.1V0.8h4.6v1.3l-1.2,0.3v7.8l1.2,0.3v1.3H128v-1.3l1.2-0.3
			v-3h-4.5v3l1.2,0.3v1.3h-4.6v-1.3l1.2-0.3V2.4L121.4,2.1z"/>
		<path class="st0" d="M137.8,0.8v1.3l-1.2,0.3v5.8c-0.1,0.6,0.2,1.2,0.6,1.6c0.4,0.3,1,0.6,1.6,0.5c0.6,0,1.2-0.2,1.6-0.5
			c0.4-0.4,0.6-1,0.6-1.6V2.4l-1.2-0.3V0.8h4.6v1.3l-1.2,0.3v5.8c0.1,1.1-0.3,2.2-1.2,2.8c-1.9,1.3-4.5,1.3-6.4,0
			c-0.9-0.7-1.3-1.7-1.2-2.8V2.4l-1.2-0.3V0.8H137.8z"/>
		<path class="st0" d="M155.7,3.7L155.7,3.7l-3,8.1h-1.5l-2.8-8.1h-0.1l0.2,4.8v1.7l1.2,0.3v1.3h-4.6v-1.3l1.2-0.3V2.4l-1.2-0.3V0.8
			h4.1l2.8,8.1h0.1l2.8-8.1h4.1v1.3l-1.2,0.3v7.8l1.2,0.3v1.3h-4.6v-1.3l1.2-0.3V8.5L155.7,3.7z"/>
		<path class="st0" d="M159.6,10.5l0.8-0.1l3.3-9.6h2.2l3.3,9.6l0.8,0.1v1.3h-3.7v-1.3l0.8-0.2l-0.5-1.5H163l-0.5,1.6l0.8,0.2v1.3
			h-3.7V10.5z M163.6,7.2h2.5l-1.2-3.9h-0.1L163.6,7.2z"/>
		<path class="st0" d="M182,0.8v1.3l-1.2,0.3v9.4h-2.2l-4.4-7.4h-0.1v5.9l1.2,0.3v1.3h-4.6v-1.3l1.2-0.3V2.4l-1.2-0.3V0.8h3.4
			l4.4,7.4h0.1V2.4l-1.2-0.3V0.8H182z"/>
		<path class="st0" d="M182.7,2.1V0.8h4.6v1.3l-1.2,0.3v7.8l1.2,0.3v1.3h-4.6v-1.3l1.2-0.3V2.4L182.7,2.1z"/>
		<path class="st0" d="M197.7,0.8v2.9h-1.6L196,2.6h-2v7.8l1.2,0.3v1.3h-4.6v-1.4l1.2-0.3V2.5h-2.1l-0.1,1.2H188V0.8H197.7z"/>
		<path class="st0" d="M197,10.5l0.8-0.1l3.4-9.6h2.2l3.4,9.6l0.8,0.1v1.3h-3.7v-1.3l0.8-0.2l-0.5-1.5h-3.5l-0.5,1.6l0.8,0.2v1.3
			h-3.7L197,10.5L197,10.5z M201,7.2h2.5l-1.2-3.9h-0.1L201,7.2z"/>
		<path class="st0" d="M208.2,2.1V0.8h4.6v1.3l-1.2,0.3v7.8l1.2,0.3v1.3h-4.6v-1.3l1.2-0.3V2.4L208.2,2.1z"/>
		<path class="st0" d="M218.5,0.8c1-0.1,2.1,0.3,2.9,0.9c0.7,0.6,1.1,1.5,1.1,2.3c0,0.5-0.2,1-0.4,1.5c-0.3,0.4-0.8,0.8-1.3,1
			c0.6,0.2,1,0.4,1.4,0.9c0.3,0.5,0.4,1,0.4,1.6v0.5c0,0.2,0,0.4,0.2,0.5c0.1,0.2,0.3,0.3,0.4,0.3h0.3v1.3h-1.1
			c-0.6,0.1-1.1-0.2-1.6-0.6c-0.3-0.4-0.4-0.9-0.4-1.5V9c0-0.4-0.1-0.9-0.4-1.3c-0.3-0.3-0.8-0.5-1.2-0.5h-1.8v2.9l1.2,0.3v1.3h-4.6
			v-1.3l1.2-0.3V2.4l-1.2-0.3V0.8H218.5L218.5,0.8z M216.9,5.7h1.6c0.5,0,0.9-0.1,1.4-0.3c0.3-0.3,0.5-0.7,0.4-1.1
			c0-0.4-0.2-0.9-0.4-1.2c-0.3-0.3-0.9-0.5-1.4-0.4h-1.6V5.7z"/>
		<path class="st0" d="M231.3,7h-3.7v3.1h3.6l0.1-1.3h1.6v3h-8.7v-1.3l1.2-0.3V2.4l-1.2-0.3V0.8h8.7v3h-1.7l-0.1-1.3h-3.5v2.8h3.7
			L231.3,7z"/>
	</g>
	<path class="st0" d="M65,19.1L65,19.1l-3,8.1h-1.5l-2.9-8.1h-0.1l0.2,4.8v1.7l1.2,0.3v1.3h-4.5v-1.3l1.1-0.3v-7.8l-1.1-0.3v-1.3
		h4.1l2.8,8.1l0,0l2.8-8.1h4.1v1.3l-1.2,0.3v7.8l1.2,0.3v1.3h-4.5v-1.4l1.1-0.3v-1.7L65,19.1z"/>
	<path class="st0" d="M78.9,21.8c0.1,1.5-0.4,2.8-1.4,4c-1.8,2-4.9,2.2-6.9,0.3c-0.1-0.1-0.2-0.2-0.3-0.3c-0.9-1.1-1.4-2.6-1.3-4
		v-0.2c-0.1-1.5,0.4-2.8,1.4-4c0.9-1,2.2-1.6,3.6-1.6c1.4-0.1,2.7,0.5,3.6,1.6c0.9,1.1,1.5,2.5,1.4,4L78.9,21.8z M76.7,21.6
		c0.1-0.9-0.2-1.9-0.7-2.8c-0.4-0.7-1.3-1.1-2.1-1c-0.9-0.1-1.6,0.3-2.1,1c-0.5,0.9-0.7,1.8-0.7,2.8v0.2c-0.1,0.9,0.2,2,0.7,2.8
		c0.4,0.7,1.2,1.1,2.1,1c0.9,0.1,1.6-0.3,2.1-1c0.5-0.9,0.8-1.8,0.7-2.8V21.6z"/>
	<path class="st0" d="M91,16.3v1.3l-1.2,0.3v9.4h-2.2l-4.5-7.4l0,0v5.9l1.2,0.3v1.3h-4.6v-1.3l1.2-0.3v-7.8l-1.2-0.3v-1.3h3.4
		l4.4,7.4h0.1v-5.9l-1.2-0.3v-1.3C86.4,16.3,91,16.3,91,16.3z"/>
	<path class="st0" d="M96.7,16.3c1.2,0,2.4,0.4,3.3,1.3c0.9,0.9,1.4,2.1,1.3,3.3v1.8c0.1,1.2-0.4,2.4-1.3,3.3
		c-0.9,0.9-2.1,1.3-3.3,1.3h-4.9v-1.3l1.1-0.3v-7.8l-1.1-0.3v-1.3H96.7z M95.1,18v7.6h1.5c0.7,0,1.4-0.3,1.9-0.8
		c0.4-0.6,0.7-1.4,0.7-2.1v-1.8c0-0.8-0.2-1.5-0.7-2.1c-0.4-0.5-1.1-0.9-1.9-0.8L95.1,18z"/>
	<path class="st0" d="M102.4,17.6v-1.3h4.6v1.3l-1.2,0.3v7.8l1.2,0.3v1.3h-4.6v-1.3l1.2-0.3v-7.8L102.4,17.6z"/>
	<path class="st0" d="M107.7,25.9l0.8-0.1l3.4-9.6h2.2l3.3,9.6l0.8,0.1v1.3h-3.7v-1.3l0.8-0.2l-0.5-1.6h-3.5l-0.5,1.6l0.8,0.2v1.3
		h-3.7L107.7,25.9z M111.6,22.7h2.5l-1.2-3.9h-0.1L111.6,22.7z"/>
	<path class="st0" d="M118.9,27.2v-1.3l1.2-0.3v-7.8l-1.2-0.3v-1.3h4.6v1.3l-1.2,0.3v7.8h3.1l0.1-1.4h1.7v3.1L118.9,27.2z"/>
	<path class="st1" d="M131.7,27.2v-1l3.6-4c0.5-0.5,0.9-1.1,1.3-1.7c0.3-0.4,0.3-0.9,0.3-1.3c0-0.5-0.2-1-0.5-1.4
		c-0.3-0.3-0.8-0.6-1.3-0.5c-0.6-0.1-1.2,0.2-1.6,0.6c-0.3,0.4-0.6,1-0.5,1.6h-1.4l0,0c-0.1-0.9,0.3-1.7,0.9-2.4
		c0.8-0.7,1.7-1,2.7-0.9c0.9-0.1,1.7,0.3,2.4,0.9c0.6,0.6,0.9,1.4,0.9,2.2c0,0.6-0.2,1.3-0.5,1.8c-0.4,0.7-0.9,1.4-1.5,1.9l-2.9,3.1
		l0,0h3.9l0.1-1.3h1.3v2.4L131.7,27.2z"/>
	<path class="st1" d="M147.4,23.1c0.1,1.1-0.3,2.3-0.9,3.2c-1.3,1.4-3.5,1.6-4.8,0.3c-0.1-0.1-0.2-0.2-0.3-0.3
		c-0.7-0.9-1-2.1-0.9-3.2v-2.6c-0.1-1.1,0.3-2.3,0.9-3.2c1.3-1.4,3.5-1.6,4.8-0.3c0.1,0.1,0.2,0.2,0.3,0.3c0.7,0.9,1,2.1,0.9,3.2
		V23.1z M146,20.2c0.1-0.8-0.1-1.5-0.5-2.2c-0.7-0.9-1.8-0.9-2.7-0.3c-0.1,0.1-0.3,0.2-0.3,0.3c-0.3,0.6-0.5,1.4-0.5,2.2v3.2
		c-0.1,0.8,0.2,1.5,0.5,2.2c0.7,0.9,1.8,0.9,2.7,0.3c0.1-0.1,0.3-0.2,0.3-0.3c0.3-0.7,0.5-1.4,0.5-2.2V20.2z"/>
	<path class="st1" d="M149.1,27.2v-1l3.6-4c0.5-0.5,0.9-1.1,1.3-1.7c0.3-0.4,0.3-0.9,0.3-1.3c0-0.5-0.2-1-0.5-1.4
		c-0.3-0.3-0.8-0.6-1.3-0.5c-0.6-0.1-1.2,0.2-1.6,0.6c-0.3,0.4-0.6,1-0.5,1.6h-1.5l0,0c-0.1-0.9,0.3-1.7,0.9-2.4
		c0.8-0.7,1.7-1,2.7-0.9c0.9-0.1,1.7,0.3,2.3,0.9c0.6,0.6,0.9,1.4,0.9,2.2c0,0.6-0.2,1.2-0.5,1.8c-0.4,0.7-0.9,1.4-1.5,1.9l-2.8,3.2
		l0,0h3.9l0.1-1.3h1.3v2.4H149.1z"/>
	<path class="st1" d="M158,27.2v-1l3.6-4c0.5-0.5,0.9-1.1,1.3-1.7c0.3-0.4,0.3-0.9,0.3-1.3c0-0.5-0.2-1-0.5-1.4
		c-0.3-0.3-0.8-0.6-1.3-0.5c-0.6-0.1-1.2,0.2-1.6,0.6c-0.3,0.4-0.6,1-0.5,1.6h-1.5l0,0c-0.1-0.9,0.3-1.7,0.9-2.4
		c0.8-0.7,1.7-1,2.7-0.9c0.9-0.1,1.7,0.3,2.3,0.9c0.6,0.6,0.9,1.4,0.9,2.2c0,0.6-0.2,1.2-0.5,1.8c-0.4,0.7-0.9,1.4-1.5,1.9l-2.8,3.2
		l0,0h3.9l0.1-1.3h1.3v2.4H158z"/>
	<path id="Path_469" class="st1" d="M3.2,8.2c0.4-0.3,0.9-0.7,1.4-1.1c0.2-0.2,0.3-0.3,0.5-0.4c0.1-0.2,0.2-0.3,0.3-0.5
		c0.1-0.2,0.2-0.4,0.3-0.6l0.3-1l0,0C5.8,4.8,5.6,5.1,5.3,5.3S4.7,5.8,4.5,5.9C4.1,6.2,3.8,6.5,3.5,6.7C3.2,7.1,2.9,7.4,2.7,7.8l0,0
		c0.3-0.6,0.4-1.1,0.5-1.6l0.3-1.1c0.1-0.3,0.2-0.6,0.3-0.9s0.3-0.5,0.6-0.7l0,0C3.8,3.8,3.3,4.1,2.8,4.7C2.4,5.2,2.2,6,2.2,6.7v2.5
		C2.5,8.9,2.8,8.4,3.2,8.2z M4.9,5.1c0.3-0.3,0.6-0.7,0.9-1l0.8-1c0.3-0.3,0.5-0.6,0.9-0.9H7.4C7.2,2.3,6.9,2.5,6.6,2.5
		C6.3,2.7,6,2.8,5.6,3c-0.4,0.3-0.8,0.6-1,1C4.1,4.6,3.9,5.4,3.7,6.1C4.1,5.8,4.6,5.4,4.9,5.1L4.9,5.1z M0.9,14.6
		c0.3,0.3,0.5,0.7,0.8,1C2,16,2.2,16.5,2.5,16.9h0.1c0-0.2-0.1-0.3,0-0.6v-0.5c0-0.3,0.1-0.7,0.2-0.9c0.2-0.4,0.3-0.9,0.4-1.5
		c0.2-0.5,0.3-1.1,0.4-1.6c0.1-0.5,0.2-0.9,0.1-1.5l0,0c-0.1,0.3-0.2,0.6-0.3,0.9l-0.6,0.9c-0.3,0.3-0.4,0.8-0.6,1.1
		C2,13.6,1.9,14,2,14.5c0,0.2,0,0.4,0.1,0.6c0,0.2,0.1,0.3,0.1,0.4l0,0c-0.1-0.5-0.3-1-0.4-1.6c-0.2-0.5-0.3-0.9-0.5-1.4
		s-0.3-0.9-0.4-1.1c-0.1-0.3-0.2-0.6-0.2-0.9c0-0.2,0-0.3,0-0.6c0-0.3,0-0.3,0-0.5l0,0c-0.1,0.3-0.2,0.6-0.3,0.9
		c-0.1,0.3-0.2,0.8-0.2,1.1c0,0.6,0.1,1.1,0.2,1.7C0.4,13.7,0.6,14.1,0.9,14.6z M7.4,24.4c0.2,0,0.3,0,0.4,0c0.2,0,0.3,0,0.5,0
		l0.7-0.1c0.3-0.1,0.6-0.1,1-0.3l1.6-0.4c-0.4-0.1-0.9-0.3-1.2-0.3c-0.3-0.1-0.7-0.3-1-0.6c-0.4-0.3-0.9-0.8-1.2-1.1l-0.9-0.9
		c-0.1-0.1-0.6-0.5-0.7-0.6l0,0C6.7,20.2,7.2,21,7.2,21c0,0.1,0.1,0.1,0.1,0.2l0.3,0.6l0.1,0.3c0.2,0.3,0.3,0.5,0.6,0.7
		c0.4,0.3,0.9,0.6,1.6,0.8l0,0l-0.8-0.1l-0.6-0.1l-0.5-0.1c-0.2,0-0.4,0-0.7-0.1c-0.3-0.1-0.3,0-0.5-0.1L6.2,23H6
		c-0.3,0-0.6-0.1-0.9-0.2c-0.3-0.1-0.6-0.2-0.9-0.3c-0.3-0.2-0.6-0.4-0.9-0.7l0,0c0.2,0.3,0.3,0.5,0.5,0.7c0.3,0.3,0.5,0.5,0.8,0.8
		c0.3,0.3,0.7,0.4,1,0.6c0.4,0.2,0.9,0.3,1.4,0.3h0.3V24.4z M1.8,13L1.8,13c0.1-0.2,0.1-0.4,0.2-0.6c0.1-0.2,0.2-0.4,0.3-0.6
		c0.2-0.3,0.3-0.6,0.6-0.9l0.9-1.4c0.3-0.4,0.4-0.9,0.6-1.3c0.2-0.5,0.3-0.9,0.3-1l0,0c0,0.1-0.1,0.2-0.2,0.3L4.2,7.8L3.8,8.3
		L3.2,8.8C2.8,9.1,2.5,9.6,2.2,10c-0.2,0.3-0.3,0.8-0.3,1.2l0,0c0-0.2,0-0.3,0-0.5s0-0.4,0-0.7s0-0.8-0.1-1.3
		C1.7,8.2,1.7,7.6,1.7,6.8c0-0.3,0.1-0.5,0.2-0.7C2,5.9,2.1,5.7,2.2,5.5l0,0C1.6,6,1.3,6.6,1,7.3C0.9,7.8,0.8,8.4,0.8,9
		c0,0.7,0.1,1.3,0.3,1.9C1.4,11.6,1.6,12.3,1.8,13L1.8,13z M5.5,22.4l1.6,0.3l0.8,0.2c-0.3-0.3-0.5-0.7-0.8-1
		c-0.2-0.3-0.3-0.6-0.5-0.9C6.4,20.5,6.2,20,6,19.4c-0.1-0.2-0.2-0.4-0.3-0.6c-0.1-0.2-0.2-0.3-0.3-0.5c-0.1-0.2-0.3-0.4-0.4-0.6
		c-0.2-0.2-0.3-0.5-0.6-0.9l0,0c0.1,0.3,0.2,0.7,0.3,1.3c0.2,0.6,0.3,1.1,0.4,1.7c0.1,0.4,0.3,0.8,0.5,1.1c0.3,0.4,0.6,0.8,0.9,1.1
		l0,0c-0.3-0.2-0.6-0.3-0.9-0.6c-0.4-0.3-0.9-0.6-1.3-0.9c-0.8-0.3-1.5-0.8-2.2-1.2C1.8,19,1.4,18.6,1.1,18l0,0
		c0.2,0.6,0.3,1.1,0.7,1.6c0.3,0.4,0.6,0.9,1,1.3c0.4,0.3,0.9,0.7,1.4,0.9C4.6,22.1,5.1,22.2,5.5,22.4L5.5,22.4z M2.2,18.7l2.7,1.8
		c-0.1-0.3-0.2-0.4-0.3-0.7c-0.1-0.3-0.2-0.5-0.3-0.7c-0.1-0.3-0.1-0.5-0.1-0.9c0-0.3-0.1-0.7-0.1-1.2c-0.1-0.8-0.2-1.4-0.3-1.8
		c-0.1-0.5-0.2-0.9-0.3-1.5l0,0c0,0.3,0,0.7-0.1,1c0,0.3-0.1,0.5-0.2,0.8c-0.1,0.3-0.1,0.4-0.2,0.7C3,16.5,3,16.7,3,17
		c0,0.3,0.1,0.7,0.3,1c0.1,0.3,0.3,0.7,0.4,1l0,0c-0.3-0.6-0.8-1.1-1.3-1.6l-1.1-1.1c-0.3-0.3-0.6-0.7-0.9-1C0.2,15,0,14.6,0,14
		c0,0,0,0.2,0,0.3c0,0.1,0,0.3,0,0.3c0,0.4,0.1,0.9,0.2,1.3c0.2,0.4,0.3,0.8,0.5,1.2c0.2,0.3,0.4,0.7,0.7,0.9
		C1.6,18.3,1.9,18.4,2.2,18.7L2.2,18.7z M24.2,3L25,4c0.3,0.3,0.5,0.7,0.9,1c0.3,0.3,0.8,0.7,1.2,1c-0.2-0.8-0.4-1.5-0.9-2.1
		c-0.3-0.4-0.6-0.8-1-1c-0.3-0.2-0.7-0.3-1-0.4c-0.3-0.1-0.6-0.3-0.9-0.4l0,0C23.6,2.3,24,2.6,24.2,3L24.2,3z M26.6,22.6
		c-0.3,0.2-0.5,0.3-0.9,0.3c-0.3,0.1-0.6,0.2-0.9,0.2h-0.3l-0.5,0.1c-0.2,0-0.3,0.1-0.5,0.1s-0.4,0-0.7,0.1c-0.3,0.1-0.3,0-0.5,0.1
		l-0.6,0.1l-0.8,0l0,0c0.5-0.2,1-0.4,1.6-0.8c0.3-0.2,0.4-0.4,0.6-0.7l0.2-0.3c0.1-0.2,0.3-0.4,0.3-0.7c0-0.1,0.1-0.1,0.1-0.2
		c0,0,0.4-0.9,0.5-0.9h-0.1c-0.1,0.2-0.6,0.5-0.7,0.7c-0.3,0.3-0.7,0.6-0.9,0.9s-0.9,0.8-1.2,1.1c-0.3,0.3-0.6,0.5-1,0.6
		c-0.3,0.1-0.8,0.3-1.2,0.3l1.7,0.4c0.4,0.1,0.8,0.2,1,0.3l0.7,0.1c0.2,0,0.3,0,0.5,0h0.4h0.3c0.5-0.1,0.9-0.2,1.4-0.3
		c0.3-0.2,0.8-0.3,1-0.6c0.5-0.3,0.9-0.9,1.3-1.4l0,0C27.2,22.2,26.8,22.3,26.6,22.6L26.6,22.6z M28.6,19.5
		c-0.7,0.4-1.4,0.9-2.2,1.2c-0.4,0.3-0.9,0.5-1.3,0.9c-0.3,0.3-0.5,0.4-0.9,0.6l0,0c0.3-0.3,0.7-0.7,0.9-1c0.3-0.3,0.4-0.7,0.5-1.1
		c0.1-0.5,0.3-1.1,0.3-1.7c0.1-0.6,0.3-1,0.3-1.3l0,0c-0.3,0.3-0.4,0.6-0.6,0.9c-0.2,0.3-0.3,0.4-0.4,0.6c-0.2,0.2-0.2,0.3-0.3,0.5
		c-0.1,0.2-0.2,0.3-0.3,0.6c-0.3,0.7-0.5,1.2-0.6,1.6c-0.1,0.3-0.3,0.7-0.4,1c-0.3,0.3-0.5,0.7-0.8,1l0.8-0.2l1.6-0.3
		c0.5-0.2,1-0.3,1.5-0.7c0.5-0.3,0.9-0.5,1.4-0.9c0.4-0.3,0.8-0.8,1-1.3c0.3-0.5,0.5-1,0.7-1.6l0,0C29.6,18.6,29.2,19.1,28.6,19.5
		L28.6,19.5z M29.7,12.6c-0.2,0.4-0.3,0.9-0.5,1.4c-0.2,0.5-0.3,1-0.4,1.6l0,0c0-0.2,0.1-0.3,0.1-0.4c0.1-0.2,0.1-0.4,0.1-0.6
		c0-0.4-0.1-0.9-0.2-1.2c-0.2-0.3-0.3-0.7-0.5-1l-0.6-1.1c-0.2-0.3-0.3-0.6-0.3-0.9h-0.1c0,0.5,0,1,0.1,1.5c0.1,0.5,0.3,1.1,0.4,1.6
		c0.2,0.5,0.3,1,0.4,1.5c0.1,0.3,0.2,0.6,0.2,0.9v0.5c0,0.2,0,0.3,0,0.6l0,0c0.3-0.4,0.5-0.9,0.9-1.3c0.3-0.3,0.6-0.7,0.9-1
		c0.3-0.3,0.4-0.8,0.6-1.2c0.2-0.6,0.3-1.1,0.2-1.7c0-0.4-0.1-0.8-0.2-1.1c-0.1-0.3-0.2-0.6-0.3-0.9l0,0c0,0.2,0,0.3,0,0.5
		c0,0.2,0,0.3,0,0.6s-0.1,0.6-0.2,0.9C30,11.8,29.8,12.1,29.7,12.6L29.7,12.6z M28.6,10.1c-0.3-0.4-0.5-0.9-0.9-1.2L27,8.3
		c-0.2-0.1-0.3-0.3-0.3-0.3c-0.1-0.1-0.2-0.2-0.3-0.3s-0.1-0.2-0.2-0.3l0,0c0,0.2,0.2,0.6,0.3,1c0.1,0.4,0.3,0.9,0.6,1.3L28,11
		c0.2,0.3,0.4,0.6,0.6,0.9c0.1,0.2,0.2,0.4,0.3,0.6c0.1,0.2,0.1,0.3,0.1,0.6h0.1c0.2-0.7,0.3-1.5,0.6-2.2C29.9,10.3,30,9.7,30,9
		c0-0.6-0.1-1.2-0.3-1.7c-0.3-0.7-0.6-1.3-1-1.8l0,0c0.1,0.2,0.2,0.4,0.3,0.6c0.1,0.2,0.2,0.4,0.2,0.7c0,0.8,0,1.4-0.1,1.9
		C29,9.2,29,9.6,29,10c0,0.3,0,0.5,0,0.7s0,0.3,0,0.5l0,0C28.9,10.8,28.7,10.4,28.6,10.1L28.6,10.1z M27,4.2
		c0.2,0.3,0.3,0.6,0.3,0.9l0.3,1.2c0.1,0.4,0.3,0.9,0.5,1.6l0,0c-0.2-0.4-0.5-0.8-0.9-1.1c-0.3-0.3-0.6-0.5-0.9-0.7
		c-0.3-0.2-0.6-0.4-0.9-0.6C25.3,5.2,25,5,24.9,4.6l0,0l0.3,1c0.1,0.2,0.2,0.4,0.3,0.6c0.1,0.2,0.2,0.3,0.3,0.4
		C26,6.8,26.1,7,26.3,7.1c0.5,0.4,1,0.9,1.4,1.1C28,8.6,28.4,9,28.6,9.4V6.8c0-0.7-0.2-1.5-0.6-2c-0.3-0.6-0.9-0.9-1.6-1.1l0,0
		C26.6,3.7,26.8,4,27,4.2L27,4.2z M22.8,25.1c-0.2,0-0.4,0-0.6-0.1l-0.6-0.1l0,0l-0.7-0.3l-1-0.3l-1.6-0.5c-0.3-0.1-0.7-0.2-1-0.2
		c-0.3,0-0.7,0.1-1,0.1l-0.8,0.2l-0.8-0.2c-0.3-0.1-0.7-0.1-1-0.1s-0.7,0.1-1,0.2L11,24.3c-0.8,0.3-1.4,0.5-1.8,0.6
		C8.9,25,8.5,25.1,8,25.1c-0.2,0-0.3,0-0.5,0c-0.2,0-0.3-0.1-0.4-0.1c-0.2-0.1-0.3-0.1-0.5-0.2l-0.7-0.3l0,0
		c0.4,0.3,0.8,0.7,1.3,0.9c0.6,0.3,1.3,0.6,2,0.6c0.3,0,0.5,0,0.8-0.1c0.3,0,0.4-0.1,0.7-0.2c0.3-0.1,0.5-0.2,0.8-0.3
		s0.6-0.3,0.9-0.6c0.3-0.3,0.8-0.4,1-0.6C13.6,24,14,24,14.3,24c0.2,0,0.3,0,0.4,0.1c-0.5,0.3-1,0.6-1.6,0.9
		c-0.7,0.4-1.3,0.9-1.8,1.5l0.6,0.5c0.5-0.6,1.1-1.2,1.7-1.7c0.5-0.4,1-0.8,1.6-1c0.6,0.3,1.2,0.6,1.7,1c0.7,0.5,1.3,1.1,1.8,1.7
		l0.6-0.5c-0.5-0.6-1.1-1.1-1.8-1.5C17,24.7,16.4,24.3,16,24c0.2-0.1,0.3-0.1,0.4-0.1c0.3,0,0.7,0.1,0.9,0.3c0.3,0.2,0.6,0.3,1,0.6
		l0.9,0.5c0.3,0.2,0.5,0.3,0.8,0.3s0.4,0.2,0.7,0.2c0.3,0.1,0.4,0.1,0.7,0.1h0.2c0.5,0,1-0.2,1.6-0.4c0.6-0.3,1.2-0.7,1.6-1.2l0,0
		c-0.4,0.2-0.8,0.3-1.2,0.5C23.4,25.1,23.1,25.1,22.8,25.1z M30.8,14.6L30.8,14.6c0-0.2,0-0.2,0-0.3s0-0.3-0.1-0.3
		c-0.1,0.4-0.2,0.9-0.4,1.3c-0.3,0.3-0.5,0.7-0.9,1h-0.1l-1,1.1c-0.4,0.5-0.9,1-1.2,1.6l0,0c0.2-0.3,0.3-0.7,0.4-1
		c0.1-0.3,0.2-0.7,0.2-1c0-0.3,0-0.4-0.1-0.7c0-0.2-0.1-0.4-0.1-0.7s-0.1-0.5-0.1-0.8c0-0.3-0.1-0.7-0.1-1l0,0l0,0l0,0l0,0
		c-0.2,0.4-0.3,0.9-0.4,1.4c-0.1,0.4-0.2,1-0.3,1.8c0,0.4-0.1,0.9-0.1,1.2s-0.1,0.6-0.1,0.9s-0.1,0.5-0.2,0.7
		c-0.1,0.2-0.2,0.4-0.3,0.6L26,20.3l0,0l0.9-0.6l1.8-1.2c0.3-0.2,0.5-0.4,0.7-0.6c0.3-0.3,0.5-0.6,0.7-0.9c0.1-0.3,0.3-0.4,0.3-0.7
		c0.1-0.2,0.1-0.3,0.2-0.4C30.8,15.5,30.9,15.1,30.8,14.6L30.8,14.6L30.8,14.6z M20.3,4C20.4,4,20.4,4,20.4,4c0,0.1,0.1,0.1,0.1,0.2
		c0,0.1,0.1,0.1,0.1,0.1c0.1,0,0.1,0,0.1-0.1c0-0.1,0-0.1,0-0.1s0,0,0-0.1c0-0.1-0.1-0.2-0.1-0.2c-0.1-0.1-0.2-0.1-0.3-0.1h-0.1l0,0
		C20.3,3.8,20.2,3.8,20.3,4C20.2,3.9,20.3,4,20.3,4L20.3,4z M16.4,3.1L16.4,3.1C16.6,3,16.7,3,16.9,3h0.5c0.1,0,0.2,0,0.2-0.1
		c0-0.1,0.1-0.1,0.1-0.2c-0.1-0.2-0.3-0.3-0.4-0.3c-0.1,0-0.3,0-0.3,0c-0.2,0-0.3,0.1-0.4,0.2c-0.2,0.1-0.3,0.1-0.4,0.2
		c-0.1,0-0.2,0-0.3,0.1L16,3.1C16.2,3.1,16.3,3.1,16.4,3.1L16.4,3.1z M15.4,22.9c6,0,11-4.9,11-11s-4.9-11-11-11s-11,4.9-11,11l0,0
		C4.4,18,9.3,22.9,15.4,22.9L15.4,22.9z M5,12.2h1.6c0,0.7,0.2,1.5,0.3,2.2c-0.1,0-0.1,0-0.2-0.1l-0.1-0.1L6.6,14l-0.3,0.1
		c0,0.2-0.1,0.3-0.2,0.2c0-0.1-0.1-0.1-0.2-0.1c-0.2,0-0.3,0.1-0.3,0.3l0,0l0,0c0,0.2-0.1,0.3-0.1,0.4l0.3,0.7
		c0.1,0.1,0.1,0.1,0.3,0c0.1,0.1,0.2,0.2,0.2,0.3C6.4,16,6.4,16,6.5,16c0.1,0,0.1,0,0.1-0.1l0,0l0,0l0.2,0.2
		c0.1,0.1,0.1,0.1,0.2,0.2l0,0c0.1,0.1,0.2,0.2,0.3,0.1c0,0.2,0.1,0.3,0.2,0.4C7.5,16.9,7.6,17,7.7,17c0.1,0,0.1,0,0.2-0.1
		c0,0.2,0.1,0.3,0.2,0.3l0.2,0.1l0.2,0.1h0.1c0,0.1,0.1,0.2,0.2,0.3c0.1,0.1,0.2,0.1,0.2,0.2l0,0l0.1,0.1L7.8,19
		C6,17.2,5,14.8,5,12.2L5,12.2z M12.9,9.2L12.9,9.2L12.8,9c0.6-0.5,1.5-0.9,2.3-0.9v1.1H15l0,0l0,0h-0.1h-0.2h-0.1l0,0
		c0-0.1-0.1-0.1-0.1-0.2l0,0c-0.1,0-0.2,0.1-0.2,0.2s0,0.2-0.1,0.3c0,0.1-0.1,0.2-0.2,0.2c-0.1,0-0.2,0.1-0.2,0.1l-0.2-0.1h-0.2
		l-0.1-0.1c0,0-0.1,0-0.1-0.1l0,0c-0.1,0-0.1,0-0.1,0.1l-0.1-0.1l0,0V9.4C13.1,9.3,13,9.2,12.9,9.2L12.9,9.2z M12.3,8.6l-1.1-1.1
		c1-0.9,2.4-1.5,3.8-1.6v1.6C14.1,7.6,13.1,7.9,12.3,8.6z M12.9,13.9c0.1-0.1,0-0.2,0.1-0.3L12.9,13.9c0.1-0.2,0.2-0.3,0.2-0.3
		c0-0.1,0.1-0.2,0.1-0.2l0,0l0.1,0.3l-1,1c-0.4-0.4-0.7-1-0.9-1.6c0.1,0,0.2,0,0.3,0.1c0.1,0.1,0.2,0.1,0.3,0.2c0.1,0,0.1,0,0.2,0
		l0.2,0.1c0,0.1,0,0.1,0,0.2c0,0,0,0.1,0.1,0.1c0.1,0,0.1,0.1,0.2,0.1h0.1c0-0.1,0-0.1,0-0.2c0-0.1,0-0.1,0-0.1l0.1,0.3l0.1,0.3l0,0
		C12.9,14,12.9,14,12.9,13.9L12.9,13.9z M15.2,15C15.3,15.1,15.3,15.1,15.2,15c0.1,0.1,0,0.2-0.2,0.2c-0.1,0-0.1,0.1-0.2,0.2
		c0,0.1,0,0.3-0.1,0.3h-0.1l0,0c-0.7-0.2-1.4-0.4-1.9-0.9l0.9-0.9c0.3,0.3,0.9,0.6,1.4,0.6c0,0.1,0,0.1,0,0.2
		C15,14.6,15,14.6,15,14.7C15.1,14.9,15.1,15,15.2,15L15.2,15z M10.4,15.1c0-0.2,0-0.4-0.1-0.6c0-0.1-0.1-0.3-0.1-0.3
		c0-0.2-0.1-0.3-0.1-0.5c-0.1-0.2-0.2-0.3-0.3-0.4V13c0-0.1,0-0.2-0.1-0.2l0,0c0,0,0-0.1,0.1-0.1l0.3-0.1c0-0.1,0-0.3,0-0.3l0.3,0.1
		c0.1,0,0.1-0.1,0.1-0.2s0-0.2-0.1-0.3c0-0.1-0.1-0.2-0.1-0.3c0-0.1,0-0.1,0.1-0.1c0.1,0,0.2-0.1,0.2-0.1c0.1,0,0.2,0,0.3,0.1
		s0.1,0.2,0.1,0.3c0,0.1,0,0.2,0,0.2c0,0.1,0,0.1,0,0.2H11c-0.1,0.3-0.2,0.3-0.3,0.3c-0.1,0-0.2,0-0.2-0.1c0-0.1-0.1-0.1-0.1-0.1
		l0,0l0,0c0,0.1,0,0.1,0,0.2c0,0.1,0,0.1,0,0.2c0,0.2-0.1,0.3-0.3,0.2c-0.2-0.1,0,0.2,0.2,0.2c0.1,0.2,0.1,0.2,0.2,0.2
		c0-0.1,0.1-0.2,0.1-0.3c0-0.1,0.1-0.2,0.1-0.3l0,0h0.2c0,0,0,0,0,0.1l0,0c0.2,0.8,0.6,1.6,1.1,2.2l-1.6,1.6
		c-0.1-0.2-0.1-0.3-0.1-0.3c0-0.2,0.2-0.3,0.2-0.4v-0.3C10.4,15.4,10.4,15.3,10.4,15.1L10.4,15.1z M9.5,12.8c0,0.1,0,0.1,0,0.2
		c0,0.1,0,0.1-0.1,0.1l0,0c-0.1-0.3-0.1-0.6-0.1-0.9h0.3c0,0.1,0,0.1,0,0.2s-0.1,0.1-0.1,0.2C9.6,12.6,9.5,12.7,9.5,12.8
		C9.5,12.7,9.5,12.7,9.5,12.8L9.5,12.8z M9.3,11.7c0.1-1.4,0.6-2.8,1.6-3.8L12,9l0,0l-0.2,0.1l-0.2,0.2c-0.1,0.1-0.3,0.1-0.3,0.2
		c-0.1,0.1-0.2,0.2-0.3,0.3l-0.3,0.1c-0.1,0-0.1,0.1-0.1,0.1c0.1,0.1,0.1,0.2,0,0.2l-0.3,0.1h-0.1l-0.1,0.1v0.1v0.1
		c-0.1,0.1-0.2,0.1-0.2,0.2c-0.1,0.1-0.1,0.3,0,0.3l0.1,0.3l0,0v0.1L9.3,11.7z M12.4,15.3c0.5,0.5,1.2,0.9,1.9,1
		c-0.1,0-0.1,0-0.2,0.1c-0.1,0-0.2,0.1-0.2,0.3c0,0.1-0.1,0.2-0.2,0.3c-0.1,0-0.1,0.1-0.1,0.2c0.1,0.1,0.2,0.3,0.3,0.4
		c0.1,0.2,0.2,0.3,0.3,0.3l0.2,0.1c0.1,0,0.2,0,0.2,0.1h0.2c-1.4-0.1-2.7-0.6-3.6-1.6L12.4,15.3z M10.9,7.1L9.7,6
		c1.5-1.4,3.4-2.2,5.3-2.2v1.6C13.5,5.5,12,6.1,10.9,7.1z M10.5,7.5c-1,1.1-1.6,2.7-1.7,4.2H7.2c0.1-2,0.9-3.9,2.2-5.3L10.5,7.5z
		 M8.8,12.2c0,0.3,0,0.5,0.1,0.8l-0.1-0.1c-0.1-0.1-0.2-0.2-0.2-0.2c-0.1,0-0.1,0-0.2,0.1c0,0.1-0.1,0.1-0.1,0.2
		c-0.2,0.2-0.3,0.2-0.4,0.3c-0.1,0.1-0.2,0.3-0.3,0.4c0,0.1,0,0.1,0,0.2s0,0.1-0.1,0.2c-0.1,0.1,0.1,0.2,0,0.2c-0.1,0,0,0.1,0,0.1
		H7.5l-0.1,0.1c-0.2-0.7-0.3-1.3-0.3-2L8.8,12.2z M15.1,22.3c-2.6-0.1-5-1-6.9-2.8l1.2-1.2c1.6,1.5,3.5,2.3,5.7,2.3V22.3z
		 M15.1,20.2c-2-0.1-3.8-0.9-5.3-2.2c0.1,0.1,0.2,0.1,0.3,0.1c0.1,0,0.2,0,0.3-0.1c0.1-0.1,0.3-0.1,0.3-0.2c0.1,0,0.3,0,0.3-0.1
		c0.1,0,0.2,0,0.3,0c0.1,0,0.2-0.1,0.1-0.2c0-0.1-0.1-0.2-0.1-0.2c-0.2-0.1-0.2-0.2-0.2-0.2c0-0.1,0-0.1-0.1-0.1
		C11,17.1,11,17,10.9,16.9l0,0c1.1,1,2.7,1.6,4.2,1.7V20.2z M15.4,16.1L15.4,16.1c-0.1,0-0.3,0-0.3-0.1v-0.1l0.2-0.1
		c0.1-0.1,0.2-0.1,0.3-0.1v-0.1l0.3-0.2h0.1c0.1,0,0.2-0.1,0.2-0.1c0.1,0,0.2,0.1,0.3,0.1c0.1,0.1,0.2,0.1,0.3,0.1v-0.2
		c0.1,0,0.1,0.1,0.2,0.2c0.1,0,0.2,0,0.2-0.1c0-0.1,0-0.1,0-0.2h0.1c0,0,0,0,0.1,0h0.1l0,0c0.1,0,0.2-0.1,0.2-0.1l0.2-0.1
		c0,0,0,0,0.1,0l0,0l0,0c0,0.1,0,0.1,0,0.2c0,0.2-0.1,0.3-0.3,0.4c-0.2,0.1-0.3,0.2-0.5,0.2c0,0.1-0.1,0.1-0.1,0.2s-0.1,0.1-0.1,0.1
		c-0.2,0-0.3,0-0.4-0.1C16,16,16,15.9,16,15.9c-0.1,0-0.2,0-0.3,0L15.4,16.1C15.4,16,15.4,16,15.4,16.1L15.4,16.1z M16.9,14.9
		c0-0.1,0.1-0.2,0.2-0.3c0.1,0,0.2-0.1,0.3-0.1c0,0.1-0.1,0.2-0.2,0.2C17.2,14.9,17.1,14.9,16.9,14.9L16.9,14.9z M18,14
		c0.1,0.1,0.2,0.2,0.2,0.3c0,0.1,0,0.2-0.1,0.2l0,0c-0.1,0-0.1-0.1-0.2-0.3c-0.2-0.1-0.3-0.1-0.3-0.3c0-0.2,0-0.2,0-0.2l0.2-0.1
		c0,0,0.1,0.1,0,0.2L18,14L18,14z M21.6,7.8C21.6,7.8,21.7,7.8,21.6,7.8c0.2,0,0.3,0,0.3,0.1c0.2,0.2,0.3,0.3,0.4,0.5
		c0,0,0.1,0,0.1,0.1c0,0.1,0.1,0.1,0.1,0.1c0.1,0,0.2,0,0.2-0.1v0c0.4,0.9,0.7,2.1,0.8,3.1h-1.6l0,0c0-0.2,0-0.3-0.1-0.4
		c-0.1-0.2-0.1-0.3-0.1-0.5c0-0.1,0-0.2,0-0.3c-0.1,0-0.1,0-0.2,0c0.1,0.1,0,0.2,0,0.3l-0.1,0.2l0,0v0.1v0.1c0,0.1,0,0.2-0.1,0.3
		c0,0.1,0,0.2,0,0.3l0,0v0.1h-0.8c0.1-0.1,0.1-0.1,0.2-0.1l0,0l0.2-0.1c-0.1,0-0.1-0.1-0.1-0.1c0-0.1,0-0.1,0-0.1
		c0.1,0,0.2-0.1,0.2-0.1c0.1-0.1,0.2-0.3,0.2-0.3c0.2-0.3,0.3-0.4,0.3-0.7c0-0.1-0.1-0.1-0.1-0.2V9.8c0-0.3,0.1-0.7-0.2-0.8
		c0,0,0,0,0-0.1c0.1-0.1,0.1-0.2,0.1-0.3H21c0-0.1,0-0.1,0.1-0.1c0-0.1,0.1-0.1,0.1-0.2s0-0.1-0.1-0.1l0,0l0,0c-0.1,0-0.1,0-0.2,0
		h-0.1h-0.1h-0.1c0-0.2-0.1-0.3-0.2-0.3c-0.1-0.1-0.2-0.2-0.3-0.2l0,0c0-0.1,0-0.1,0-0.2l0.3-0.5L21,7.3c0,0.1,0,0.2,0.1,0.3
		c0.1,0,0.1,0.1,0.2,0.1L21.6,7.8L21.6,7.8C21.5,7.8,21.6,7.8,21.6,7.8z M20.1,18.4L20.1,18.4c-0.1,0-0.2,0-0.2-0.1s0-0.1,0.1-0.2
		c0.1-0.1,0.2-0.2,0.2-0.3c0.1-0.1,0.1-0.2,0.1-0.2s0-0.1-0.1-0.1c-0.1,0-0.1-0.1-0.1-0.1l-0.2-0.1l-0.2-0.1c-0.1,0-0.1-0.1-0.1-0.2
		s0-0.1,0.1-0.2V17l0.1-0.1l0.9,0.9c0,0.1,0.1,0.2,0.2,0.2L21,18c-0.3,0.3-0.6,0.5-0.9,0.8c0,0,0-0.1,0.1-0.1l0,0
		C20.1,18.6,20.1,18.5,20.1,18.4L20.1,18.4z M19.6,14.5c-0.1,0-0.2,0-0.2,0c-0.1,0-0.2,0.1-0.3,0.2l0,0l0,0c-0.1,0-0.1,0-0.2,0
		l-0.2,0.1c-0.1,0-0.1,0-0.1-0.1c0-0.1,0.1-0.1,0.3-0.2c0.1-0.1,0.1-0.2,0.2-0.2s0.1-0.1,0.2-0.1c0.1-0.1,0.2-0.2,0.3-0.3
		c0.1-0.1,0.1-0.2,0.2-0.3l0,0c0,0.1,0.1,0.2,0.2,0.2c0.1,0,0.2-0.1,0.2-0.3c0.1,0,0.2,0.1,0.3,0.1c0.1,0,0.2,0,0.3-0.1h0.4l0,0l0,0
		l0,0c-0.3,0.8-0.7,1.6-1.2,2.2v-0.1c0-0.1-0.1-0.3-0.2-0.3c0,0-0.1,0.1-0.2,0.3c-0.1,0.2-0.1,0.3-0.2,0.3L19.2,16
		c-0.1,0-0.3,0-0.3,0c-0.1,0-0.2-0.1-0.3-0.1c-0.1-0.1-0.2-0.1-0.3-0.1c0-0.1-0.2-0.1-0.3-0.1c-0.2,0-0.2-0.1-0.2-0.1s0-0.1,0.2-0.1
		c0.1,0,0.2,0,0.3,0.1l0.4,0.1H19c0.1,0,0.2,0,0.2,0.1l0.3-0.1c0-0.1,0-0.2,0.1-0.2c0.1-0.1,0.1-0.2,0.1-0.2
		c0.1-0.1,0.1-0.3,0.1-0.4s0.1-0.3,0.1-0.4C19.8,14.5,19.8,14.4,19.6,14.5L19.6,14.5z M20.5,12.2h0.9c0,0.3-0.1,0.7-0.2,1
		c-0.1-0.1-0.1-0.3-0.2-0.3l-0.3-0.3l0-0.3C20.7,12.4,20.7,12.3,20.5,12.2C20.6,12.3,20.5,12.3,20.5,12.2L20.5,12.2z M20.9,16.7
		C20.8,16.7,20.8,16.7,20.9,16.7c-0.1,0.2-0.1,0.3-0.1,0.3l-0.5-0.5c0.8-0.8,1.3-1.8,1.6-2.8l0,0c0.1,0,0.2,0,0.3,0l0.1-0.1
		c0-0.1-0.1-0.2-0.2-0.3h-0.1C22,13,22,12.7,22,12.4h1.6c-0.1,2-0.9,3.9-2.2,5.3l-0.2-0.2l0,0c0-0.2,0-0.3-0.1-0.5
		C21.1,16.8,21,16.7,20.9,16.7L20.9,16.7z M20.5,8.8L20.5,8.8c0,0.1,0,0.1,0,0.2l-0.1,0.2c0.1,0.1,0.2,0.2,0.3,0.3
		C20.8,9.5,21,9.6,21,9.6c0.1,0.2,0.1,0.3,0.2,0.4c0,0.1,0.1,0.3,0.1,0.3c0,0.1-0.1,0.2-0.1,0.3c-0.1,0.2-0.3,0.3-0.3,0.3l0,0
		c0-0.1,0-0.2,0.1-0.2c0-0.1,0.1-0.2,0.1-0.2c0.1,0,0.2-0.1,0.2-0.2l-0.1-0.1C21,10.2,21,10.2,21,10.2c0-0.1-0.1-0.1-0.2-0.1
		c-0.1,0-0.1,0-0.2,0.1l-0.2,0.1l-0.1-0.2c0-0.1,0-0.1,0-0.2l-0.5-0.5c-0.1-0.1-0.3-0.1-0.4-0.1c-0.1,0-0.2,0-0.3,0
		c-0.1,0-0.2,0-0.3,0s-0.2,0-0.3,0.1c-0.1,0.1-0.2,0.2-0.3,0.3c0,0.1,0,0.1-0.1,0.1l-0.1-0.1L19.9,8v0.1C20,8.2,20,8.2,20.1,8.3
		l0.2,0.2C20.3,8.4,20.4,8.6,20.5,8.8L20.5,8.8z M16.6,19.7c0.2,0.1,0.3,0.2,0.4,0.3c-0.4,0.1-0.9,0.2-1.4,0.2v-1.6l0,0
		c0.1,0.1,0.2,0.2,0.3,0.3c0.1,0,0.3,0.1,0.3,0.1c0.2,0,0.3,0,0.3,0.1c0,0.1,0,0.1-0.1,0.2c0,0.1-0.1,0.1-0.1,0.2
		C16.3,19.5,16.4,19.7,16.6,19.7z M15.6,22.3v-1.6c0.6,0,1.2-0.1,1.8-0.3l0,0l0,0c0.2,0.1,0.3,0.2,0.3,0.3c0,0.1,0.2,0.2,0.4,0.2
		c0.1,0,0.2,0,0.3-0.1l0.1-0.2c0.1-0.1,0.1-0.1,0.2-0.1s0.1-0.1,0.2-0.1c0.1,0,0.2-0.1,0.3-0.2c0.1-0.1,0.2-0.2,0.2-0.3
		c0.1,0,0.1,0,0.2-0.1c0.1-0.1,0.1-0.3,0.2-0.3h0.1c0,0,0,0,0-0.1c0.6-0.3,1.1-0.6,1.6-1l1.2,1.2C20.6,21.3,18.2,22.3,15.6,22.3
		L15.6,22.3z M22.9,19l-1.2-1.1c1.5-1.6,2.3-3.5,2.3-5.7h1.6C25.6,14.8,24.7,17.2,22.9,19L22.9,19z M25.7,11.6h-1.6
		c-0.1-1.7-0.6-3.5-1.6-4.8c0-0.1-0.1-0.1-0.1-0.2l-0.1-0.1C22.1,6.4,22,6.2,21.8,6V5.9l1.1-1.1C24.7,6.7,25.6,9.1,25.7,11.6
		L25.7,11.6z M15.6,1.6c2.6,0.1,5,1,6.9,2.8l-1,0.9c0-0.1-0.1-0.1-0.1-0.2s-0.1-0.1-0.2-0.1C21.1,5.2,21,5,21,4.9s0-0.2-0.1-0.3
		c-0.2-0.1-0.3-0.2-0.3-0.3S20.4,4,20.4,4s-0.2,0-0.3,0S19.9,4,19.8,4s-0.2,0-0.3,0S19.4,4,19.3,4l0,0c-1.1-0.5-2.3-0.9-3.5-0.9
		c0.1-0.2,0.1-0.3,0-0.3s-0.1,0-0.2,0.1V1.6z M15.6,3.8c1.2,0,2.3,0.3,3.4,0.9l0,0l0.2,0.2L19.2,5c0,0.1,0.1,0.2,0.1,0.3
		c0,0.1,0.1,0.1,0.1,0.2s0,0.2,0.1,0.3c0.1,0.1,0.1,0.2,0.2,0.3h0.2c0.1,0,0.1,0,0.2,0c0.1,0,0.1,0,0.2,0.1c0.1,0.1,0.1,0.2,0.1,0.2
		v0.1l-0.4,0.4l0,0c0-0.2-0.1-0.4-0.2-0.6c0,0-0.2,0-0.3,0c0,0-0.1-0.2-0.3-0.3c-0.1-0.1-0.1-0.2-0.2-0.3h-0.1c0,0.1,0,0.1,0.1,0.2
		l0.2,0.3c0,0,0,0.1-0.1,0.1l0,0c0,0.1,0.1,0.2,0.2,0.2v0.1l0.1,0.2c-1.1-0.8-2.4-1.2-3.7-1.2V3.8z M15.6,5.9
		C17,6,18.4,6.5,19.4,7.5l-1.1,1.1c-0.8-0.7-1.7-1-2.7-1.1V5.9z M15.6,8.1c0.8,0.1,1.6,0.3,2.2,0.9h-0.1c0,0,0,0-0.1,0.1v0.1
		c0,0.1,0.1,0.1,0.2,0.1l-0.4,0.4l0,0l-0.2,0.1C17.1,9.8,17,9.8,17,9.9V10l-0.2,0.2h-0.1c-0.1,0-0.1-0.1-0.3-0.2
		c-0.2-0.1-0.2-0.2-0.3-0.2c-0.1,0-0.1,0-0.2,0.1H16c-0.1-0.1,0-0.1,0.2-0.2l0.3-0.1c0.2-0.2,0.3-0.3,0.3-0.6c0-0.1-0.1-0.2-0.2-0.2
		l-0.1,0C16.4,9,16.3,9,16.2,9L16,9.2c-0.1,0-0.2,0-0.3,0h-0.3L15.6,8.1L15.6,8.1z M15.3,10.6C15.3,10.6,15.3,10.7,15.3,10.6
		c0.1,0.1,0.2,0.1,0.3,0.1c0.1,0,0.1,0,0.2,0v0.1c0,0.1,0.1,0.1,0.2,0.1v0.1c0,0,0,0,0,0.1c0,0.1,0,0.1,0.1,0.1l0,0l0,0H16h0.1v0.1
		l0,0v0.1c0,0.1,0,0.1,0,0.2v0l0,0C16,11.5,16,11.6,16,11.6c0,0.1,0,0.1,0.1,0.1s0.1,0,0.2,0.1c0.1,0.1,0.1,0.2,0.1,0.2v0.3
		c0,0.1,0,0.1,0.1,0.1l0.1,0.1c0,0.1,0,0.2,0,0.3c0,0.1-0.1,0.2-0.1,0.3c-0.1,0-0.1,0-0.2,0c-0.1,0-0.2,0-0.3-0.1
		c-0.1,0-0.1,0.1-0.2,0.2c-0.1,0.1-0.1,0.3-0.1,0.3c0,0.1-0.3,0.3-0.3,0.3h-0.2l0,0l-0.1,0.2V14c-0.4,0-0.8-0.2-1.1-0.5l0.2-0.2
		c0.1,0,0.3-0.1,0.3-0.1h0.1c0.2-0.1,0.2-0.3,0.3-0.4c0.1-0.2,0.3-0.3,0.1-0.3c0.2-0.3-0.6-0.3-0.7-0.3s-0.1,0.3-0.2,0.3
		c-0.1,0.1-0.1,0.1-0.2,0.1c-0.1,0.1-0.3,0.3-0.3,0.3l0,0c-0.1-0.1-0.1-0.2-0.1-0.3l0,0v-0.1l0,0l0,0c0.1,0,0.2,0,0.2,0l0.1-0.2
		c0.1-0.2,0.1-0.3,0.2-0.4c-0.1,0-0.1-0.1-0.1-0.1c0-0.1,0-0.1-0.1,0c-0.1,0-0.1,0.1-0.1,0.1c0,0.1,0,0.1-0.1,0.2
		c0,0-0.1,0.1-0.2,0.1c0-0.1,0-0.1-0.1-0.1l0,0l0,0c-0.1,0-0.1,0-0.2,0.1H13c-0.1,0-0.3,0-0.3,0c-0.1-0.1,0-0.1,0.2-0.2
		c0-0.2,0.1-0.3,0.2-0.4c0.1,0,0.2,0.1,0.3,0.1l0.1-0.1l0,0c0.1,0,0.1,0.1,0.1,0.2c0,0.1,0.1,0.2,0.1,0.2c0.1,0,0.1,0,0.2-0.1v-0.2
		c0.1-0.2,0.1-0.3,0.1-0.4v-0.1c0-0.1,0.1-0.1,0.1-0.2l0,0c0.1,0,0.1-0.1,0.2-0.1c0-0.1,0.1-0.2,0.1-0.3l0.5-0.1
		c0.2-0.1,0.3-0.2,0.3-0.3l0,0h0.3C15.2,10.5,15.2,10.6,15.3,10.6z M15.1,1.6v1.6C12.9,3.3,11,4.2,9.4,5.6L8.2,4.5
		C10.1,2.7,12.5,1.6,15.1,1.6L15.1,1.6z M7.8,4.8L9.1,6c-1.5,1.6-2.3,3.5-2.3,5.7H5C5,9.1,6,6.7,7.8,4.8z"/>
	<path id="Path_468" class="st2" d="M42,27.5v-27"/>
</g>
</svg>
