<svg id="Layer_1" data-name="Layer 1" xmlns="http://www.w3.org/2000/svg" viewBox="0 0 140 32"><defs><style>.cls-1{isolation:isolate;}.cls-2{fill:#1b344a;}.cls-3{fill:#5090cd;}.cls-4{fill:none;stroke:#b7b6b6;stroke-width:0.3px;}</style></defs><g id="Global_Humanitarian_Overview_2021" data-name="Global Humanitarian Overview 2021" class="cls-1"><g class="cls-1"><path class="cls-2" d="M52,7.71a3.51,3.51,0,0,1-1.17.71,5,5,0,0,1-1.94.32,3.54,3.54,0,0,1-2.72-1.12,4.05,4.05,0,0,1-1-2.9V4.44a4.34,4.34,0,0,1,1-3A3.41,3.41,0,0,1,48.84.27a4.77,4.77,0,0,1,1.77.31,3.72,3.72,0,0,1,1.33.83V3.07H50.72L50.49,2a1.54,1.54,0,0,0-.6-.31A2.77,2.77,0,0,0,49,1.54a2,2,0,0,0-1.68.8,3.39,3.39,0,0,0-.6,2.09v.29a3.18,3.18,0,0,0,.59,2,2,2,0,0,0,1.7.75,2.89,2.89,0,0,0,.8-.09,1.77,1.77,0,0,0,.49-.2V5.79L49.16,5.7V4.54H52Z"/><path class="cls-2" d="M52.82,8.62v-1l.88-.17V1.55l-.88-.17v-1h3.41v1l-.88.17V7.36h2.32l.08-1H59v2.3Z"/><path class="cls-2" d="M67,4.57a4.39,4.39,0,0,1-1,3,3.42,3.42,0,0,1-2.71,1.18,3.38,3.38,0,0,1-2.69-1.18,4.38,4.38,0,0,1-1-3V4.44a4.4,4.4,0,0,1,1-3A3.37,3.37,0,0,1,63.25.27,3.41,3.41,0,0,1,66,1.46a4.36,4.36,0,0,1,1,3Zm-1.65-.14a3.69,3.69,0,0,0-.53-2.07,1.76,1.76,0,0,0-1.57-.8,1.72,1.72,0,0,0-1.56.79,3.79,3.79,0,0,0-.51,2.08v.14a3.74,3.74,0,0,0,.52,2.09,1.72,1.72,0,0,0,1.55.8,1.76,1.76,0,0,0,1.57-.8,3.74,3.74,0,0,0,.53-2.09Z"/><path class="cls-2" d="M71.32.39A4,4,0,0,1,73.59,1a1.93,1.93,0,0,1,.81,1.69,1.83,1.83,0,0,1-.3,1,1.89,1.89,0,0,1-.88.67A1.77,1.77,0,0,1,74.33,5a2,2,0,0,1,.37,1.2A2.15,2.15,0,0,1,73.92,8a3.56,3.56,0,0,1-2.21.6h-4v-1l.87-.17V1.55l-.87-.17v-1h3.66ZM70.19,3.84h1.18a1.65,1.65,0,0,0,1-.27.94.94,0,0,0,.36-.8,1,1,0,0,0-.36-.84,1.78,1.78,0,0,0-1.07-.27H70.19Zm0,1.14V7.36h1.52a1.53,1.53,0,0,0,1-.29,1,1,0,0,0,.34-.85,1.29,1.29,0,0,0-.29-.92A1.23,1.23,0,0,0,71.83,5Z"/><path class="cls-2" d="M75.23,7.63l.59-.08L78.33.39H80l2.49,7.16.59.08v1H80.29v-1l.57-.1L80.5,6.4H77.83l-.36,1.13.57.1v1H75.23Zm3-2.45h1.89l-.93-2.9h0Z"/><path class="cls-2" d="M83.64,8.62v-1l.88-.17V1.55l-.88-.17v-1h3.41v1l-.88.17V7.36h2.32l.08-1h1.26v2.3Z"/></g><g class="cls-1"><path class="cls-2" d="M45.17,13V12h3.41v1l-.89.17v2.37h3.36V13.14L50.17,13V12h3.41v1l-.88.17v5.91l.88.17v1H50.17v-1l.88-.17V16.79H47.69v2.26l.89.17v1H45.17v-1l.87-.17V13.14Z"/><path class="cls-2" d="M57.54,12v1l-.89.17v4.3a1.6,1.6,0,0,0,.44,1.22,2,2,0,0,0,2.42,0A1.56,1.56,0,0,0,60,17.44v-4.3L59.08,13V12h3.41v1l-.89.17v4.3a2.63,2.63,0,0,1-.91,2.14,4.18,4.18,0,0,1-4.78,0A2.66,2.66,0,0,1,55,17.44v-4.3L54.13,13V12h3.41Z"/><path class="cls-2" d="M70.92,14.12h0l-2.21,6.1H67.57l-2.19-6.08h0l.16,3.61v1.3l.88.17v1H63v-1l.88-.17V13.14L63,13V12h3L68.1,18h0L70.25,12h3v1l-.88.17v5.91l.88.17v1H69.89v-1l.87-.17v-1.3Z"/><path class="cls-2" d="M73.8,19.22l.59-.09L76.9,12h1.69l2.49,7.16.58.09v1h-2.8v-1l.57-.1L79.07,18H76.4L76,19.12l.57.1v1H73.8Zm3-2.45h1.89l-.93-2.9h0Z"/><path class="cls-2" d="M90.62,12v1l-.88.17v7.07H88.1l-3.33-5.54h0v4.38l.88.17v1H82.21v-1l.87-.17V13.14L82.21,13V12h2.53l3.32,5.55h0V13.14L87.21,13V12h3.41Z"/><path class="cls-2" d="M91.15,13V12h3.41v1l-.88.17v5.91l.88.17v1H91.15v-1l.88-.17V13.14Z"/><path class="cls-2" d="M102.44,12v2.2h-1.27l-.06-.92H99.59v5.8l.88.17v1H97.06v-1l.88-.17v-5.8H96.43l-.07.92H95.1V12Z"/><path class="cls-2" d="M101.88,19.22l.59-.09L105,12h1.69l2.49,7.16.59.09v1h-2.81v-1l.58-.1L107.14,18h-2.67l-.36,1.13.57.1v1h-2.8Zm3-2.45h1.89l-.92-2.9h0Z"/><path class="cls-2" d="M114,12a3.45,3.45,0,0,1,2.2.64,2.14,2.14,0,0,1,.8,1.78,1.82,1.82,0,0,1-.33,1.08,2.44,2.44,0,0,1-1,.74,1.78,1.78,0,0,1,1,.72,2.26,2.26,0,0,1,.32,1.24v.42a.73.73,0,0,0,.1.42.48.48,0,0,0,.36.17l.21,0v1h-.86a1.35,1.35,0,0,1-1.14-.44,1.86,1.86,0,0,1-.32-1.12v-.47a1.32,1.32,0,0,0-.32-.94,1.24,1.24,0,0,0-.91-.36h-1.35v2.17l.88.17v1h-3.41v-1l.88-.17V13.14l-.88-.17V12H114Zm-1.17,3.63H114a1.56,1.56,0,0,0,1-.29,1.06,1.06,0,0,0,.34-.85,1.15,1.15,0,0,0-.34-.88,1.4,1.4,0,0,0-1-.33h-1.17Z"/><path class="cls-2" d="M118.24,13V12h3.41v1l-.88.17v5.91l.88.17v1h-3.41v-1l.88-.17V13.14Z"/><path class="cls-2" d="M122.2,19.22l.58-.09L125.29,12H127l2.49,7.16.59.09v1h-2.81v-1l.58-.1L127.46,18h-2.67l-.36,1.13.57.1v1h-2.8Zm3-2.45h1.89l-.92-2.9h0Z"/><path class="cls-2" d="M139,12v1l-.88.17v7.07h-1.65l-3.32-5.54h0v4.38l.88.17v1H130.6v-1l.88-.17V13.14L130.6,13V12h2.53l3.33,5.55h0V13.14l-.88-.17V12H139Z"/></g><g class="cls-1"><path class="cls-2" d="M52.7,27.74a4.37,4.37,0,0,1-1,3,3.69,3.69,0,0,1-5.41,0,4.41,4.41,0,0,1-1-3v-.13a4.4,4.4,0,0,1,1-3,3.38,3.38,0,0,1,2.69-1.19,3.46,3.46,0,0,1,2.72,1.19,4.36,4.36,0,0,1,1,3Zm-1.65-.14a3.69,3.69,0,0,0-.53-2.07,1.76,1.76,0,0,0-1.58-.8,1.72,1.72,0,0,0-1.55.79,3.79,3.79,0,0,0-.51,2.08v.14a3.72,3.72,0,0,0,.52,2.09,1.72,1.72,0,0,0,1.55.8,1.76,1.76,0,0,0,1.57-.8,3.72,3.72,0,0,0,.53-2.09Z"/><path class="cls-2" d="M56.12,24.55l-.63.12L57,29.61l.1.45h0l.1-.44,1.47-4.95L58,24.55v-1h3v1l-.69.09-2.42,7.15h-1.7l-2.43-7.15-.68-.09v-1h3Z"/><path class="cls-2" d="M66.85,28.17H64.07v2.36h2.65l.08-1h1.25v2.25H61.54v-1l.87-.17V24.72l-.87-.17v-1H68v2.26H66.78l-.08-1H64.07V26.9h2.78Z"/><path class="cls-2" d="M72.64,23.56a3.43,3.43,0,0,1,2.2.64A2.15,2.15,0,0,1,75.63,26a1.78,1.78,0,0,1-.33,1.08,2.22,2.22,0,0,1-1,.74,1.81,1.81,0,0,1,1.05.72,2.28,2.28,0,0,1,.32,1.24v.42a.72.72,0,0,0,.11.42.48.48,0,0,0,.35.18l.21,0v1H75.5a1.32,1.32,0,0,1-1.13-.43A1.83,1.83,0,0,1,74,30.23v-.47a1.34,1.34,0,0,0-.32-.94,1.2,1.2,0,0,0-.9-.36H71.46v2.17l.89.17v1H68.94v-1l.87-.17V24.72l-.87-.17v-1h3.7Zm-1.18,3.63h1.15a1.58,1.58,0,0,0,1-.29,1.06,1.06,0,0,0,.35-.85,1.21,1.21,0,0,0-.34-.89,1.41,1.41,0,0,0-1-.33H71.46Z"/><path class="cls-2" d="M79.28,24.55l-.63.12,1.46,4.94.1.45h0l.1-.44,1.47-4.95-.63-.12v-1h3v1l-.69.09-2.42,7.15h-1.7L77,24.64l-.68-.09v-1h3Z"/><path class="cls-2" d="M84.69,24.55v-1H88.1v1l-.88.17v5.91l.88.17v1H84.69v-1l.88-.17V24.72Z"/><path class="cls-2" d="M94.05,28.17H91.26v2.36h2.66l.07-1h1.26v2.25H88.73v-1l.88-.17V24.72l-.88-.17v-1h6.51v2.26H94l-.08-1H91.26V26.9h2.79Z"/><path class="cls-2" d="M106.8,24.55l-.68.09-1.67,7.15h-1.53l-1.51-5.43h0l-1.51,5.43H98.33l-1.68-7.15L96,24.55v-1h3v1l-.75.13.94,4.52h0l1.54-5.64H102l1.55,5.64h0l.93-4.52-.75-.13v-1h3Z"/></g></g><path id="Path_469" data-name="Path 469" class="cls-3" d="M2.61,5.63l1.08-.9.37-.34a2.08,2.08,0,0,0,.24-.34c.07-.16.14-.32.2-.49l.26-.81h0a2,2,0,0,1-.5.71c-.21.17-.43.34-.65.49a6.48,6.48,0,0,0-.71.56,3.1,3.1,0,0,0-.64.89v0c.17-.48.29-.9.38-1.24l.22-.88a3.21,3.21,0,0,1,.26-.67,1.65,1.65,0,0,1,.49-.53V2a2.17,2.17,0,0,0-1.24.9A2.72,2.72,0,0,0,1.87,4.5v2A3,3,0,0,1,2.61,5.63ZM3.94,3.22a8.08,8.08,0,0,0,.72-.83l.62-.81A5.38,5.38,0,0,1,5.94.89l0,0a1.66,1.66,0,0,1-.63.33,3.42,3.42,0,0,0-.8.37,2.72,2.72,0,0,0-.82.8A5.12,5.12,0,0,0,3,4a5.5,5.5,0,0,0,1-.77ZM.78,10.59a7.25,7.25,0,0,0,.63.83,6.84,6.84,0,0,1,.69,1h0a3.42,3.42,0,0,1,0-.45v-.4a3.16,3.16,0,0,1,.16-.74c.11-.35.22-.74.34-1.16s.21-.85.3-1.28A3.76,3.76,0,0,0,3,7.23h0a2.55,2.55,0,0,1-.3.72l-.44.74a5.08,5.08,0,0,0-.4.81,2.75,2.75,0,0,0-.17.95,2.44,2.44,0,0,0,.07.46c0,.12.05.24.07.36h0a7,7,0,0,0-.32-1.19c-.14-.37-.27-.72-.41-1S.75,8.43.65,8.16a2,2,0,0,1-.13-.65,3.39,3.39,0,0,1,0-.45c0-.14,0-.28,0-.42h0a6.75,6.75,0,0,0-.22.73,3.52,3.52,0,0,0-.14.91A4.45,4.45,0,0,0,.33,9.64a3.6,3.6,0,0,0,.45.95Zm5.13,7.64h.31a3,3,0,0,0,.42,0,5.08,5.08,0,0,0,.51-.08L8,18l1.31-.33c-.36-.09-.67-.18-.93-.26a2.26,2.26,0,0,1-.79-.5l-1-.87c-.24-.23-.51-.45-.76-.68l-.55-.49,0,0,.39.77.07.12c.1.16.19.33.28.5a1.86,1.86,0,0,1,.1.2,1.79,1.79,0,0,0,.47.55,3.09,3.09,0,0,0,1.19.59v0l-.61-.09-.45-.07-.42-.05-.5,0-.4-.06L5,17.23l-.2,0a4.23,4.23,0,0,1-.71-.13,2.1,2.1,0,0,1-.64-.26,4.29,4.29,0,0,1-.68-.53l0,0a3.36,3.36,0,0,0,.39.54,4.53,4.53,0,0,0,.59.57,3.33,3.33,0,0,0,.84.48,4.15,4.15,0,0,0,1.1.29l.27,0ZM1.51,9.4h0A2.36,2.36,0,0,1,1.63,9a2.5,2.5,0,0,1,.21-.48,5.87,5.87,0,0,1,.43-.67L3,6.73a3.68,3.68,0,0,0,.45-1c.11-.38.19-.65.22-.82h0a1.36,1.36,0,0,1-.13.24l-.18.23c-.08.08-.17.18-.29.29l-.49.46a2.65,2.65,0,0,0-.73.93A5.84,5.84,0,0,0,1.58,8h0c0-.16,0-.3,0-.44s0-.33,0-.55a9.33,9.33,0,0,0-.05-1c0-.37-.05-.86-.05-1.46A1.24,1.24,0,0,1,1.59,4c.07-.17.14-.33.19-.48h0A4.94,4.94,0,0,0,.94,5,4.13,4.13,0,0,0,.73,6.28,4,4,0,0,0,1,7.76a11.23,11.23,0,0,1,.49,1.65Zm2.94,7.3L5.63,17l.61.14a4.57,4.57,0,0,1-.6-.79,4.63,4.63,0,0,1-.37-.78c-.11-.31-.27-.71-.48-1.22a3,3,0,0,0-.18-.45c-.07-.13-.14-.27-.23-.41s-.19-.3-.31-.48-.28-.4-.47-.66l0,0c0,.19.13.53.23,1s.21,1,.3,1.38a2.27,2.27,0,0,0,.38.89,6.06,6.06,0,0,0,.77.83l0,0A2.59,2.59,0,0,1,4.56,16a5,5,0,0,0-1-.65,14.67,14.67,0,0,1-1.69-1,2.49,2.49,0,0,1-.92-1.11l0,0a4.17,4.17,0,0,0,.53,1.27,4.59,4.59,0,0,0,.83,1,4.83,4.83,0,0,0,2.19,1.11ZM1.81,13.8l2.08,1.38c-.09-.19-.17-.37-.23-.53a3,3,0,0,1-.15-.57c0-.2-.07-.43-.1-.69s-.05-.56-.09-.92c-.07-.61-.14-1.09-.19-1.43a5.78,5.78,0,0,0-.31-1.1h0a7.67,7.67,0,0,1,0,.82,4.76,4.76,0,0,1-.11.62c-.05.18-.08.36-.11.52a2.5,2.5,0,0,0,0,.55,2.27,2.27,0,0,0,.18.8,8,8,0,0,0,.34.8l0,0A7.71,7.71,0,0,0,2,12.83l-.84-.91a5.54,5.54,0,0,1-.65-.8,2.31,2.31,0,0,1-.35-1,2.61,2.61,0,0,0-.06.27,2.44,2.44,0,0,0,0,.27,3.18,3.18,0,0,0,.16,1,4.53,4.53,0,0,0,.43.92,4,4,0,0,0,.55.75,3.15,3.15,0,0,0,.54.49ZM18.94,1.59l.62.8c.23.29.47.57.72.83a5.5,5.5,0,0,0,1,.77,5.12,5.12,0,0,0-.68-1.62,2.81,2.81,0,0,0-.81-.8,4.22,4.22,0,0,0-.81-.37,1.66,1.66,0,0,1-.63-.33l0,0a3.93,3.93,0,0,1,.66.69Zm1.85,15.23a2.42,2.42,0,0,1-.64.27,4.21,4.21,0,0,1-.71.12l-.2,0-.39.05c-.13,0-.26,0-.39.06s-.34,0-.51.05l-.42,0-.45.07-.61.1v0A3.09,3.09,0,0,0,17.66,17a1.47,1.47,0,0,0,.47-.55l.1-.2.28-.5.08-.12s.34-.69.39-.76l0,0-.55.5-.76.68q-.48.45-1,.87a2,2,0,0,1-.79.49l-.93.27,1.31.32c.33.08.6.15.8.18l.51.09a3,3,0,0,0,.42,0l.31,0,.27,0a4.31,4.31,0,0,0,1.11-.28,3.3,3.3,0,0,0,.83-.49,4,4,0,0,0,.6-.57,3.39,3.39,0,0,0,.38-.53l0,0a3.83,3.83,0,0,1-.68.52Zm1.58-2.38a14.6,14.6,0,0,1-1.69.94,5.5,5.5,0,0,0-1,.65,2.32,2.32,0,0,1-.67.45l0,0a5.09,5.09,0,0,0,.77-.83,2.21,2.21,0,0,0,.38-.89q.13-.64.3-1.38c.1-.49.18-.82.23-1l0,0c-.19.26-.35.48-.47.66s-.23.34-.31.48-.16.28-.23.41a4.22,4.22,0,0,0-.18.45q-.32.76-.48,1.23a4.2,4.2,0,0,1-.37.77,4.64,4.64,0,0,1-.6.8l.61-.15,1.18-.25a4.54,4.54,0,0,0,1.14-.4,4.93,4.93,0,0,0,1.05-.7,4.64,4.64,0,0,0,.83-1,4.17,4.17,0,0,0,.53-1.27l0,0a2.52,2.52,0,0,1-.92,1.12ZM23.22,9c-.13.32-.27.67-.41,1a7.19,7.19,0,0,0-.31,1.19h0a2,2,0,0,1,.07-.35,1.89,1.89,0,0,0,.06-.47,2.34,2.34,0,0,0-.17-.94A5.62,5.62,0,0,0,22,8.69c-.16-.25-.3-.5-.44-.73a2.5,2.5,0,0,1-.3-.72h0a3.72,3.72,0,0,0,.07,1.15c.09.44.19.86.31,1.29s.22.8.33,1.15a2.71,2.71,0,0,1,.16.75V12a2.28,2.28,0,0,1,0,.45h0a6.08,6.08,0,0,1,.68-1,8.71,8.71,0,0,0,.64-.83,3.66,3.66,0,0,0,.44-.94,4.26,4.26,0,0,0,.17-1.37,3.43,3.43,0,0,0-.13-.9,6.18,6.18,0,0,0-.23-.73h0c0,.14,0,.28,0,.42s0,.3,0,.45a2.1,2.1,0,0,1-.14.65c-.09.26-.21.55-.34.87Zm-.85-2a2.65,2.65,0,0,0-.73-.93l-.48-.45-.3-.3-.18-.22a1.34,1.34,0,0,1-.12-.24h0c0,.16.11.44.22.81a4,4,0,0,0,.44,1L22,7.8a7.82,7.82,0,0,1,.43.68,2.06,2.06,0,0,1,.21.48,2.11,2.11,0,0,1,.08.45h0a10.75,10.75,0,0,1,.49-1.65,3.94,3.94,0,0,0,.29-1.48A4.43,4.43,0,0,0,23.28,5a4.75,4.75,0,0,0-.82-1.43h0a4.78,4.78,0,0,0,.19.48,1.45,1.45,0,0,1,.11.54c0,.6,0,1.09,0,1.47a9.29,9.29,0,0,0-.06,1c0,.23,0,.41,0,.55l0,.44h0a5,5,0,0,0-.27-.93ZM21.12,2.59a3.12,3.12,0,0,1,.26.66c.06.25.14.55.22.89s.21.75.38,1.24v0a2.93,2.93,0,0,0-.64-.88A5.54,5.54,0,0,0,20.63,4,7.37,7.37,0,0,1,20,3.46a1.93,1.93,0,0,1-.49-.7h0l.27.8a3.07,3.07,0,0,0,.2.5,1.27,1.27,0,0,0,.24.33,4.51,4.51,0,0,0,.37.34q.62.54,1.08.9a3.29,3.29,0,0,1,.73.85v-2a2.68,2.68,0,0,0-.48-1.58A2.06,2.06,0,0,0,20.63,2v0a1.69,1.69,0,0,1,.49.54ZM17.86,18.8a1.75,1.75,0,0,1-.46,0l-.53-.1h0l-.56-.19-.78-.29-1.2-.42a2.51,2.51,0,0,0-.81-.14,3.75,3.75,0,0,0-.82.1l-.62.14-.59-.14a3.83,3.83,0,0,0-.82-.1,2.4,2.4,0,0,0-.8.14l-1.2.42c-.62.22-1.08.38-1.38.47a2.91,2.91,0,0,1-.93.14,2.56,2.56,0,0,1-.39,0,1.3,1.3,0,0,1-.34-.08s-.27-.08-.41-.14l-.54-.24,0,0a5.66,5.66,0,0,0,1,.76,3.17,3.17,0,0,0,1.56.45,4.08,4.08,0,0,0,.61,0,2.21,2.21,0,0,0,.54-.16c.17-.07.37-.17.59-.28s.47-.26.77-.45l.8-.49a1.51,1.51,0,0,1,.75-.18,1.33,1.33,0,0,1,.34.05l-1.29.74a7.07,7.07,0,0,0-1.39,1.17l.48.42A10.35,10.35,0,0,1,10.78,19a4.73,4.73,0,0,1,1.3-.81,4.94,4.94,0,0,1,1.31.81,9.33,9.33,0,0,1,1.39,1.35l.48-.42a6.1,6.1,0,0,0-1.41-1.17L12.56,18a1.53,1.53,0,0,1,1.11.13c.22.12.49.29.81.49l.74.44a3.46,3.46,0,0,0,.58.28,4.44,4.44,0,0,0,.52.15,2.57,2.57,0,0,0,.55.06H17a3.55,3.55,0,0,0,1.28-.28,3.42,3.42,0,0,0,1.26-.93v0c-.31.14-.62.27-.94.38A2,2,0,0,1,17.86,18.8Zm6.24-8.18a.25.25,0,0,0,0-.08s0-.09,0-.13a2.56,2.56,0,0,0,0-.27,2.24,2.24,0,0,1-.36,1,7,7,0,0,1-.64.8L23,12l-.8.85a9.23,9.23,0,0,0-.93,1.23h0a5.73,5.73,0,0,0,.33-.81,2.65,2.65,0,0,0,.16-.8,2.55,2.55,0,0,0,0-.55c0-.16-.06-.33-.1-.52s-.07-.39-.09-.62a5.56,5.56,0,0,1-.05-.82h0v0h0a7.17,7.17,0,0,0-.3,1.1c-.05.34-.12.82-.19,1.44,0,.36-.07.66-.1.92s-.06.48-.09.69a5.12,5.12,0,0,1-.15.56c-.06.15-.13.3-.2.46a.56.56,0,0,0-.05.08h0l.7-.47,1.4-.92a2.58,2.58,0,0,0,.55-.49,4,4,0,0,0,.54-.75,4.68,4.68,0,0,0,.27-.55,3,3,0,0,0,.14-.36,2.91,2.91,0,0,0,.17-1h0ZM15.9,2.33l.15.08.09.11a.11.11,0,0,0,.1.06c.05,0,.08,0,.08-.06s0,0,0,0,0,0,0,0a.22.22,0,0,0-.05-.17A.23.23,0,0,0,16,2.21l-.05,0h0c-.06,0-.08,0-.08.05a.1.1,0,0,0,.07.09Zm-3-.68H13a1.21,1.21,0,0,1,.34-.07h.39a.21.21,0,0,0,.17-.07L14,1.38a.55.55,0,0,0-.34-.2,1.43,1.43,0,0,0-.29,0,2.19,2.19,0,0,0-.34.1l-.34.14c-.09,0-.15,0-.17.05a1.07,1.07,0,0,0,.16.14.42.42,0,0,0,.27.07Zm-.85,15.44a8.5,8.5,0,1,0-8.51-8.5,8.5,8.5,0,0,0,8.51,8.5ZM4,8.81H5.28a6.77,6.77,0,0,0,.27,1.67.14.14,0,0,1-.1-.07l0,0-.14-.2L5,10.26c0,.13,0,.18-.14.14a.24.24,0,0,0-.11-.06.26.26,0,0,0-.27.24h0a1.86,1.86,0,0,0,0,.33l.2.51c0,.06.09.07.17,0s.11.13.17.2a.22.22,0,0,0,.14,0c.06,0,.09,0,.09-.08h0l.12.12a.57.57,0,0,0,.14.13v0a.37.37,0,0,0,.24.1.79.79,0,0,0,.17.31.35.35,0,0,0,.22.12.23.23,0,0,0,.12-.06.92.92,0,0,0,.14.28l.14.09.11.08h.06a.64.64,0,0,0,.14.22,1.22,1.22,0,0,0,.17.15h0l.06.07-.92.91A8,8,0,0,1,4,8.8Zm6.23-2.39-.07,0-.09-.09a3.08,3.08,0,0,1,1.78-.74v.9l0,0,0,0h0a.08.08,0,0,0-.07,0h-.1l-.07,0h0a.16.16,0,0,1,0-.13h0a.19.19,0,0,0-.12.11s0,.1-.05.2a.19.19,0,0,1-.14.15.59.59,0,0,0-.17.1l-.09-.06h-.14a.71.71,0,0,0-.09-.07.1.1,0,0,1-.05,0s0,0,0,0a.09.09,0,0,0-.08.06l-.08-.08h0v0a.83.83,0,0,0-.21-.16ZM9.76,6l-.87-.86a4.64,4.64,0,0,1,2.95-1.23V5.12A3.49,3.49,0,0,0,9.76,6Zm.48,4.1c0-.05,0-.13,0-.19l-.1.09a.87.87,0,0,0,.17-.21.71.71,0,0,1,.08-.15h0a1,1,0,0,0,.1.17l-.79.8A3,3,0,0,1,9.1,9.31a.76.76,0,0,1,.2.06,1.29,1.29,0,0,1,.17.16l.12,0,.11.08a.4.4,0,0,0,0,.15s0,0,.09.07a.26.26,0,0,1,.11.1l.06,0a.5.5,0,0,0,0-.12c0-.05,0-.08,0-.08l.06.2,0,.22h0a.17.17,0,0,0,.14,0Zm1.69.9c.05,0,.08.08.08.1s-.08.08-.23.08-.1.06-.11.16,0,.2-.06.27h0a3,3,0,0,1-1.51-.7l.77-.76a1.83,1.83,0,0,0,1.06.49.27.27,0,0,0,0,.12.18.18,0,0,0-.06.14s0,0,.08.1ZM8.17,11a3.93,3.93,0,0,0-.06-.48A1.06,1.06,0,0,0,8,10.3a1.3,1.3,0,0,0-.09-.39,1.77,1.77,0,0,0-.26-.35V9.4l-.06-.17v0a.06.06,0,0,1,0-.07L8,9a.57.57,0,0,1,0-.26l.21,0c.05,0,.08,0,.08-.12a.84.84,0,0,0,0-.17.83.83,0,0,1-.06-.21s0-.07.08-.1a.35.35,0,0,1,.17,0,.2.2,0,0,1,.2.1.36.36,0,0,1,.06.2.78.78,0,0,1,0,.16.49.49,0,0,0,0,.12l.06,0c0,.19-.12.28-.23.28A.15.15,0,0,1,8.34,9a.1.1,0,0,0-.09-.07s0,0,0,0h0a.2.2,0,0,0,0,.11.26.26,0,0,1,0,.15c0,.13-.06.18-.18.14s0,.11.12.11.08.16.12.14a.7.7,0,0,0,.06-.19.79.79,0,0,1,.06-.22l0,0,.12,0v0h0a3.47,3.47,0,0,0,.81,1.68l-1.2,1.19a.21.21,0,0,1-.06-.19c0-.11.14-.18.16-.3l0-.23a1.27,1.27,0,0,1-.2-.34ZM7.48,9.26a.23.23,0,0,1,0,.11c0,.06,0,.08-.06.07h0a4.78,4.78,0,0,1-.07-.65h.23a.5.5,0,0,1,0,.12A.44.44,0,0,1,7.49,9a.28.28,0,0,0,0,.12.23.23,0,0,0,0,.11Zm-.12-.88a4.71,4.71,0,0,1,1.22-3l.87.87,0,0-.15,0-.13.17a1.16,1.16,0,0,0-.27.14,1.55,1.55,0,0,0-.21.23A1.1,1.1,0,0,1,8.46,7l-.1.07c0,.1,0,.15,0,.16l-.29.07a.05.05,0,0,0-.05,0l-.09.09,0,.09a.3.3,0,0,1,0,.1.54.54,0,0,0-.15.15.36.36,0,0,0,0,.25l0,.28h0a.29.29,0,0,1,0,.09Zm2.4,2.82a3.54,3.54,0,0,0,1.5.78l-.12,0a.21.21,0,0,0-.17.18.23.23,0,0,1-.13.21c-.06,0-.09.08-.07.13a.82.82,0,0,1,.2.35.36.36,0,0,0,.28.25l.17.06a.35.35,0,0,1,.17.06l.15,0a4.66,4.66,0,0,1-2.85-1.22ZM8.58,4.81,7.72,4a6.33,6.33,0,0,1,4.12-1.7V3.46A5.16,5.16,0,0,0,8.58,4.81Zm-.3.31A5.11,5.11,0,0,0,6.93,8.38H5.71A6.32,6.32,0,0,1,7.42,4.26ZM6.93,8.81A6.2,6.2,0,0,0,7,9.43a.59.59,0,0,1,0-.08c-.07-.09-.13-.14-.17-.14a.14.14,0,0,0-.12.07.35.35,0,0,1-.08.13.71.71,0,0,1-.32.14.84.84,0,0,0-.17.34.09.09,0,0,0,0,.11s0,.08-.05.12.05.12,0,.14,0,.05,0,0a.08.08,0,0,0-.07,0,.16.16,0,0,0,0,.07A6.44,6.44,0,0,1,5.71,8.8Zm4.91,7.85a8,8,0,0,1-5.33-2.22l.91-.91a6.8,6.8,0,0,0,4.42,1.84Zm0-1.72a6.35,6.35,0,0,1-4.1-1.7.61.61,0,0,0,.24.07.9.9,0,0,0,.22-.06l.26-.12a.54.54,0,0,0,.25-.06.38.38,0,0,0,.21,0,.12.12,0,0,0,.1-.14.19.19,0,0,0-.1-.16c-.07,0-.1-.09-.1-.12a.1.1,0,0,0-.06-.07,1.81,1.81,0,0,1-.18-.21h0a5.13,5.13,0,0,0,3.26,1.35Zm.23-3.16h0a.68.68,0,0,1-.28,0l0-.08.13-.08a.48.48,0,0,1,.18-.08v-.07l.21-.16.07,0,.16-.05a.62.62,0,0,1,.22.1.85.85,0,0,0,.22.09l0-.11s.09,0,.17.11a.24.24,0,0,0,.14,0,.17.17,0,0,0,0-.14.11.11,0,0,1,.08,0,0,0,0,0,1,.05,0h.07a.26.26,0,0,0,.15-.07l.16-.1a0,0,0,0,1,0,0h0a.17.17,0,0,1,0,.12.36.36,0,0,1-.24.34l-.41.17a.47.47,0,0,0-.07.12c0,.07-.06.1-.1.1a1.07,1.07,0,0,1-.35-.06.67.67,0,0,1-.08-.17l-.21,0-.23.06a.25.25,0,0,1-.12,0Zm1.23-.93a.22.22,0,0,1,.14-.19.59.59,0,0,1,.23,0c0,.06-.06.11-.16.17l-.18.09Zm.87-.7a.25.25,0,0,1,.12.22.1.1,0,0,1-.09.11h0c-.05,0-.1-.07-.14-.2s-.2-.1-.22-.18,0-.14,0-.16l.11,0s.05,0,0,.13l.2.12ZM16.9,5.4a.06.06,0,0,1,.06,0,.36.36,0,0,1,.2.06,2,2,0,0,1,.34.42s0,0,.07.09a.14.14,0,0,0,.1.08.42.42,0,0,0,.15,0l0-.08a6.3,6.3,0,0,1,.56,2.42H17.2s0,0,0,0A.59.59,0,0,0,17.14,8a.67.67,0,0,1,0-.42.4.4,0,0,0,0-.24.27.27,0,0,0-.12,0,.54.54,0,0,0-.07.13l-.07.15v0s0,0,0,0a.11.11,0,0,1,0,.07l-.06.23a.81.81,0,0,0,0,.22h0a.25.25,0,0,1,0,.08h-.61a.57.57,0,0,1,.13-.08h0l.17-.08a.1.1,0,0,1-.06-.09s0-.09,0-.1L16.56,8a1,1,0,0,0,.15-.26,1.62,1.62,0,0,0,.23-.56S16.88,7,16.87,7a.5.5,0,0,1,0-.12c0-.2.09-.54-.17-.61,0,0,0,0,0-.08A.19.19,0,0,0,16.75,6h-.17a.18.18,0,0,1,0-.1.22.22,0,0,0,0-.13.08.08,0,0,0-.06-.09h0l-.15,0a.16.16,0,0,1-.09,0h0l0-.05a.46.46,0,0,0-.13-.28.55.55,0,0,0-.23-.17h0a.17.17,0,0,0,0-.12l.24-.24.35.12a.2.2,0,0,0,.09.2l.11.09a.71.71,0,0,1,.14.1v0s.06.05.08.05Zm-1.16,8.23a.11.11,0,0,0-.07,0s-.05,0-.05,0,0-.08.09-.12a.52.52,0,0,0,.14-.19.58.58,0,0,0,.06-.17.08.08,0,0,0,0-.07.2.2,0,0,1-.1-.08l-.13-.05a.51.51,0,0,1-.16-.09.16.16,0,0,1-.08-.14.74.74,0,0,1,0-.14l0-.08.06-.05.66.65c0,.08,0,.12.13.14l.07.07a7,7,0,0,1-.73.59.22.22,0,0,1,.05-.08l0,0a.14.14,0,0,0,0-.09Zm-.4-3.11a.17.17,0,0,0-.17,0,.24.24,0,0,0-.17.17l0,0h0l-.11,0-.15.06c-.05,0-.08,0-.08-.06s.08-.09.25-.11l.14-.17.14-.05a.7.7,0,0,0,.21-.21.64.64,0,0,0,.1-.18h0c0,.09,0,.14.12.14s.11-.07.15-.2a.86.86,0,0,0,.23.06.2.2,0,0,0,.21-.11h.36V10h0a4.56,4.56,0,0,1-1,1.69.22.22,0,0,0,0-.08,1.72,1.72,0,0,0-.1-.26s-.08.07-.13.2l-.11.25-.29.06a1,1,0,0,1-.25,0,1,1,0,0,1-.24-.1.64.64,0,0,0-.24-.1L14,11.62c-.1,0-.16,0-.16-.08s0-.09.12-.09l.22,0,.34.09.31.08.17.05.17-.06a.44.44,0,0,1,.06-.16.39.39,0,0,0,.06-.15,1.24,1.24,0,0,0,.1-.31,1.33,1.33,0,0,0,0-.34c0-.1,0-.15-.09-.17Zm.75-1.72h.67a4.6,4.6,0,0,1-.11.83,1.23,1.23,0,0,0-.14-.25l-.23-.23c0-.09,0-.16-.05-.19a.16.16,0,0,0,0-.07.81.81,0,0,1-.1-.09Zm.28,3.47c-.06,0-.09,0-.09,0a1.1,1.1,0,0,1,0,.18l-.42-.42A5.2,5.2,0,0,0,17,9.87l0,0c.1,0,.16,0,.19,0a.2.2,0,0,0,0-.08.39.39,0,0,0-.14-.23h0a4.55,4.55,0,0,0,.09-.73H18.4a6.3,6.3,0,0,1-1.7,4.11l-.06-.05h0a2.32,2.32,0,0,0-.06-.38q0-.21-.21-.21Zm-.3-6.14h0a.32.32,0,0,1,0,.14.58.58,0,0,1,0,.14.83.83,0,0,0,.22.2l.26.2a1.18,1.18,0,0,1,.12.33.94.94,0,0,1,.07.3.46.46,0,0,1-.08.19.35.35,0,0,1-.28.18l0,0a.48.48,0,0,1,.05-.17.35.35,0,0,0,.06-.17.22.22,0,0,0,.12-.17l-.09,0a.81.81,0,0,1-.14-.12c0-.06-.06-.09-.17-.09a.24.24,0,0,0-.14,0l-.14.09-.06-.11a.27.27,0,0,0,0-.12l-.23-.38a1.12,1.12,0,0,0-.31-.1.6.6,0,0,0-.23,0,.55.55,0,0,1-.22,0,.26.26,0,0,0-.22.07.81.81,0,0,0-.19.18s0,.08-.07.07l-.07-.08,1.28-1.28,0,0a1,1,0,0,1,.11.13l.12.14c.1.13.19.26.28.4ZM13,14.62a1,1,0,0,0,.37.19,8,8,0,0,1-1.08.13V13.72h0a.81.81,0,0,0,.18.19.73.73,0,0,0,.25,0c.13,0,.19,0,.19.07a.28.28,0,0,1,0,.13.29.29,0,0,0,0,.13.44.44,0,0,0,.19.34Zm-.71,2v-1.3a6.65,6.65,0,0,0,1.41-.19v.06a1.24,1.24,0,0,1,.29.27c0,.08.14.12.31.12a.21.21,0,0,0,.18-.06.52.52,0,0,1,.1-.11.42.42,0,0,1,.14-.09.15.15,0,0,0,.11-.08.34.34,0,0,0,.2-.17.48.48,0,0,0,.17-.23.15.15,0,0,0,.12-.07,1,1,0,0,0,.11-.3l.05,0a.08.08,0,0,1,0,0,7.1,7.1,0,0,0,1.21-.91l.92.91a8,8,0,0,1-5.34,2.22Zm5.64-2.52L17,13.23A6.76,6.76,0,0,0,18.83,8.8h1.3a8,8,0,0,1-2.22,5.34Zm2.22-5.76h-1.3a6.71,6.71,0,0,0-1.3-3.79.75.75,0,0,0-.07-.12l-.07-.06A4.24,4.24,0,0,0,17.06,4a.36.36,0,0,1,0-.09L17.91,3a8,8,0,0,1,2.22,5.34ZM12.27.52a8,8,0,0,1,5.34,2.22l-.79.78a.56.56,0,0,1,0-.12c-.07,0-.1-.09-.12-.09a.23.23,0,0,1-.13-.18A.31.31,0,0,0,16.46,3a.49.49,0,0,1-.28-.25c-.08-.13-.15-.19-.23-.19a.22.22,0,0,1-.18,0,.45.45,0,0,0-.19-.05.68.68,0,0,0-.2,0,.79.79,0,0,1-.22.06l0,0a6.67,6.67,0,0,0-2.76-.73c.07-.12.08-.19,0-.23s-.06,0-.13.07Zm0,1.72a6.23,6.23,0,0,1,2.64.68v0l.12.12c0,.06.08.09.09.11l.09.25a.64.64,0,0,0,.08.14.34.34,0,0,0,.05.24c0,.08.1.16.15.24l.12,0h.14a.17.17,0,0,1,.12.08.42.42,0,0,1,.1.17l0,.1-.35.35h0a2,2,0,0,0-.17-.48.29.29,0,0,0-.22-.07l-.2-.24c-.11-.14-.18-.22-.2-.22a.11.11,0,0,0-.08,0,.33.33,0,0,0,.06.1,1.79,1.79,0,0,0,.11.19.07.07,0,0,1,0,.06h0a.18.18,0,0,0,.14.14l0,.06.08.16a5.1,5.1,0,0,0-2.81-1Zm0,1.65a4.66,4.66,0,0,1,3,1.23L14.36,6a3.43,3.43,0,0,0-2.09-.86Zm0,1.66A3,3,0,0,1,14,6.21l-.06,0-.06,0s0,0,0,.07.06.06.1.07l-.33.34h0l-.13.09c-.08,0-.12.07-.13.1a.26.26,0,0,1,0,.1l-.11.11h0s-.1,0-.18-.12-.13-.11-.17-.11a.15.15,0,0,0-.13,0,.08.08,0,0,1-.1,0s0-.09.13-.13l.24-.11a.51.51,0,0,0,.23-.45c0-.1,0-.14-.11-.14L13,6.24a.86.86,0,0,0-.2.13l-.14.14-.18,0h-.18ZM12,7.5s0,0,.05,0a.23.23,0,0,1,.14,0,.16.16,0,0,0,.15,0,.09.09,0,0,0,0,.06.09.09,0,0,0,.11,0l0,0s0,0,0,0a.31.31,0,0,0,0,.1h0v0a.1.1,0,0,0,.09,0h.07a.2.2,0,0,0,0,.07h0s0,0,0,.06a.62.62,0,0,1,0,.13v.06a0,0,0,0,1,0,0,.26.26,0,0,0-.09.16s0,.05.08.05a.07.07,0,0,1,.1,0A.18.18,0,0,1,13,8.7V9A.1.1,0,0,0,13,9s0,0,0,.06a.76.76,0,0,1,0,.21.31.31,0,0,1-.09.18s-.07,0-.14,0l-.21,0s-.07.06-.11.17a1.14,1.14,0,0,0-.09.26c0,.07-.06.11-.12.11h-.14l-.09.15,0,0a1.37,1.37,0,0,1-.86-.37l.15-.16a1.31,1.31,0,0,0,.27-.06l0,0c.15-.06.14-.19.22-.32s.19-.18.07-.28c.13-.22-.46-.23-.56-.18s-.05.19-.11.29-.09.05-.14.09a.68.68,0,0,0-.21.29h0a2,2,0,0,1-.1-.21h0s0,0,0,0h0v0q.12,0,.15,0c0-.05,0-.1,0-.15a1.66,1.66,0,0,1,.15-.33.11.11,0,0,1-.06-.09s0,0-.07,0a.11.11,0,0,0,0,.09.17.17,0,0,1-.06.11.17.17,0,0,1-.11.06.08.08,0,0,0-.06-.09h0a.23.23,0,0,0-.12.06l-.27,0a.57.57,0,0,1-.26,0s0-.08.14-.12a.4.4,0,0,1,.14-.34.49.49,0,0,0,.17.06l.06-.06h0c.06,0,.09.05.1.14s0,.15.07.15a.23.23,0,0,0,.12-.06V8.54A2.37,2.37,0,0,1,11,8.22V8.14A.42.42,0,0,1,11.06,8h0a.31.31,0,0,1,.13-.06.64.64,0,0,0,.06-.18l.3-.11q.21-.09.21-.18h0a.63.63,0,0,1,.19,0A.16.16,0,0,0,12,7.5Zm-.18-7V1.81A6.82,6.82,0,0,0,7.42,3.65l-.91-.91A8,8,0,0,1,11.84.52ZM6.2,3,7.12,4A6.83,6.83,0,0,0,5.28,8.38H4A8,8,0,0,1,6.2,3Z"/><path id="Path_468" data-name="Path 468" class="cls-4" d="M33.42,31.87V.09"/></svg>
