<?xml version="1.0" encoding="utf-8"?>
<!-- Generator: Adobe Illustrator 25.4.1, SVG Export Plug-In . SVG Version: 6.00 Build 0)  -->
<svg version="1.1" id="Layer_1" xmlns="http://www.w3.org/2000/svg" xmlns:xlink="http://www.w3.org/1999/xlink" x="0px" y="0px"
   viewBox="0 0 270 32" style="enable-background:new 0 0 270 32;" xml:space="preserve">
<style type="text/css">
  .st0{fill:#1B344A;}
  .st1{fill:#5090CD;}
  .st2{fill:none;stroke:#B7B6B6;stroke-width:0.39;}
</style>
<path class="st0" d="M70.3,12.3c-0.5,0.5-1.1,0.8-1.7,1.1c-0.9,0.3-1.9,0.5-2.9,0.5c-1.5,0.1-3-0.6-4-1.6c-1.1-1.2-1.6-2.7-1.5-4.3
  V7.5c-0.1-1.6,0.5-3.2,1.5-4.5c1-1.1,2.5-1.8,4-1.7c0.9,0,1.8,0.1,2.6,0.5C69,2,69.7,2.4,70.3,3v2.5h-1.8l-0.3-1.6
  c-0.3-0.2-0.6-0.4-0.9-0.5c-0.4-0.1-0.8-0.2-1.3-0.2c-1,0-1.9,0.4-2.5,1.2c-0.6,0.9-0.9,2-0.9,3.1v0.4c-0.1,1.1,0.2,2.1,0.9,3
  c0.6,0.7,1.5,1.2,2.5,1.1c0.4,0,0.8,0,1.2-0.1c0.3-0.1,0.5-0.2,0.7-0.3V9.5l-1.7-0.1V7.6h4.2V12.3z"/>
<path class="st0" d="M71.5,13.7v-1.5l1.3-0.2V3.2L71.5,3V1.5h5V3l-1.3,0.2v8.6h3.4l0.1-1.5h1.9v3.4L71.5,13.7z"/>
<path class="st0" d="M92.5,7.7c0.1,1.6-0.5,3.2-1.5,4.4c-1,1.2-2.5,1.8-4,1.7c-1.5,0.1-3-0.6-4-1.7c-1-1.2-1.6-2.8-1.5-4.4V7.5
  c0-1.6,0.5-3.2,1.6-4.4c1-1.2,2.5-1.8,4-1.8c1.5-0.1,3,0.6,4,1.8c1,1.2,1.6,2.8,1.5,4.4L92.5,7.7z M90,7.5c0-1.1-0.2-2.1-0.8-3.1
  c-0.5-0.8-1.4-1.2-2.3-1.2c-0.9-0.1-1.8,0.4-2.3,1.2c-0.5,0.9-0.8,2-0.8,3.1v0.2c-0.1,1.1,0.2,2.2,0.8,3.1c0.5,0.8,1.4,1.2,2.3,1.2
  c0.9,0.1,1.8-0.4,2.3-1.2c0.6-0.9,0.8-2,0.8-3.1V7.5z"/>
<path class="st0" d="M98.9,1.5c1.2-0.1,2.3,0.2,3.3,0.8c0.8,0.6,1.3,1.5,1.2,2.5c0,0.5-0.1,1.1-0.4,1.5c-0.3,0.5-0.8,0.8-1.3,1
  c0.7,0.1,1.2,0.5,1.7,1c0.4,0.5,0.6,1.1,0.6,1.8c0.1,1-0.4,2-1.2,2.7c-1,0.7-2.1,1-3.3,0.9h-6v-1.5l1.3-0.2V3.2L93.4,3V1.5H98.9z
   M97.2,6.6h1.8c0.5,0,1.1-0.1,1.5-0.4c0.4-0.3,0.6-0.7,0.6-1.2c0-0.5-0.2-0.9-0.5-1.2c-0.5-0.3-1-0.4-1.6-0.4h-1.7V6.6z M97.2,8.3
  v3.5h2.2c0.5,0,1.1-0.1,1.5-0.4c0.4-0.3,0.5-0.8,0.5-1.2c0-0.5-0.1-1-0.4-1.4c-0.4-0.3-0.9-0.5-1.4-0.5L97.2,8.3z"/>
<path class="st0" d="M104.6,12.2l0.9-0.1l3.7-10.6h2.5l3.7,10.6l0.9,0.1v1.5h-4.2v-1.5l0.8-0.1l-0.5-1.7h-3.9l-0.5,1.7l0.8,0.1v1.5
  h-4.2L104.6,12.2z M109.1,8.6h2.8l-1.4-4.3l0,0L109.1,8.6z"/>
<path class="st0" d="M117.1,13.7v-1.5l1.3-0.2V3.2L117.1,3V1.5h5V3l-1.3,0.2v8.6h3.4l0.1-1.5h1.9v3.4L117.1,13.7z"/>
<path class="st0" d="M131.3,3V1.5h5V3L135,3.2v3.5h5V3.2L138.7,3V1.5h5V3l-1.3,0.2V12l1.3,0.2v1.5h-5v-1.5L140,12V8.6h-5V12l1.3,0.2
  v1.5h-5v-1.5l1.3-0.2V3.2L131.3,3z"/>
<path class="st0" d="M149.6,1.5V3l-1.3,0.2v6.3c-0.1,0.7,0.2,1.3,0.6,1.8c0.5,0.4,1.1,0.6,1.8,0.6c0.7,0,1.3-0.2,1.8-0.6
  c0.5-0.5,0.7-1.1,0.6-1.8V3.2L151.9,3V1.5h5V3l-1.3,0.2v6.3c0.1,1.2-0.4,2.4-1.4,3.2c-2.1,1.5-4.9,1.5-7.1,0c-0.9-0.8-1.4-2-1.3-3.2
  V3.2L144.5,3V1.5H149.6L149.6,1.5z"/>
<path class="st0" d="M169.4,4.7L169.4,4.7l-3.3,9h-1.6l-3.2-9l0,0l0.2,5.3v2l1.3,0.2v1.5h-5v-1.5l1.3-0.2V3.2L157.6,3V1.5h4.5l3.1,9
  h0.1l3.1-9h4.5V3l-1.3,0.2V12l1.3,0.2v1.5h-5v-1.5l1.3-0.2V10L169.4,4.7z"/>
<path class="st0" d="M173.6,12.2l0.9-0.1l3.7-10.6h2.5l3.7,10.6l0.9,0.1v1.5h-4.1v-1.5l0.8-0.1l-0.5-1.7h-4l-0.5,1.7l0.8,0.1v1.5
  h-4.1L173.6,12.2z M178,8.6h2.8l-1.4-4.3l0,0L178,8.6z"/>
<path class="st0" d="M198.5,1.5V3l-1.3,0.2v10.4h-2.4l-4.9-8.2l0,0V12l1.3,0.2v1.5h-5v-1.5l1.3-0.2V3.2L186,3V1.5h3.7l4.9,8.2h0.1
  V3.2L193.4,3V1.5H198.5L198.5,1.5z"/>
<path class="st0" d="M199.3,3V1.5h5V3L203,3.2V12l1.3,0.2v1.5h-5v-1.5l1.3-0.2V3.2L199.3,3z"/>
<path class="st0" d="M215.9,1.5v3.2h-1.9L214,3.4h-2.2V12l1.3,0.2v1.5H208v-1.5l1.3-0.2V3.4h-2.2L207,4.7h-1.9V1.5H215.9z"/>
<path class="st0" d="M215.1,12.2l0.9-0.1l3.7-10.6h2.5l3.7,10.6l0.9,0.1v1.5h-4.1v-1.5l0.8-0.1l-0.5-1.7h-3.9l-0.5,1.7l0.8,0.1v1.5
  h-4.1L215.1,12.2z M219.5,8.6h2.8l-1.4-4.3h-0.1L219.5,8.6z"/>
<path class="st0" d="M233,1.5c1.2-0.1,2.3,0.3,3.2,1c0.8,0.6,1.2,1.6,1.2,2.6c0,0.6-0.2,1.1-0.5,1.6c-0.4,0.5-0.9,0.9-1.4,1.1
  c0.6,0.1,1.1,0.5,1.5,1c0.3,0.6,0.5,1.2,0.5,1.8v0.6c0,0.2,0,0.4,0.2,0.6c0.1,0.2,0.3,0.3,0.5,0.3h0.3v1.5h-1.3
  c-0.6,0.1-1.3-0.2-1.7-0.6c-0.3-0.5-0.5-1.1-0.5-1.7v-0.7c0-0.5-0.1-1-0.5-1.4c-0.4-0.4-0.8-0.6-1.3-0.5h-2V12l1.3,0.2v1.5h-5v-1.5
  l1.3-0.2V3.2L227.5,3V1.5H233z M231.3,6.9h1.7c0.5,0,1.1-0.1,1.5-0.4c0.3-0.3,0.5-0.8,0.5-1.3c0-0.5-0.2-1-0.5-1.3
  c-0.4-0.4-0.9-0.5-1.5-0.5h-1.7V6.9z"/>
<path class="st0" d="M239.3,3V1.5h5V3L243,3.2V12l1.3,0.2v1.5h-5v-1.5l1.3-0.2V3.2L239.3,3z"/>
<path class="st0" d="M245.1,12.2l0.9-0.1l3.7-10.6h2.5l3.7,10.6l0.9,0.1v1.5h-4.1v-1.5l0.8-0.1l-0.5-1.7H249l-0.5,1.7l0.8,0.1v1.5
  h-4.1L245.1,12.2z M249.6,8.6h2.8L251,4.3h-0.1L249.6,8.6z"/>
<path class="st0" d="M270,1.5V3l-1.3,0.2v10.4h-2.4l-4.9-8.2h0V12l1.3,0.2v1.5h-5v-1.5l1.3-0.2V3.2L257.6,3V1.5h3.7l4.9,8.2h0V3.2
  L265,3V1.5H270z"/>
<path class="st0" d="M71.3,24.8c0.1,1.6-0.5,3.2-1.5,4.4c-1,1.2-2.5,1.8-4,1.8c-1.5,0.1-3-0.6-4-1.8c-1-1.2-1.6-2.8-1.5-4.4v-0.2
  c-0.1-1.6,0.5-3.2,1.5-4.4c1-1.2,2.5-1.8,4-1.8c1.5,0,3,0.6,4,1.8c1,1.2,1.6,2.8,1.5,4.4L71.3,24.8z M68.9,24.6
  c0.1-1.1-0.2-2.1-0.8-3.1c-0.5-0.8-1.4-1.2-2.3-1.2c-0.9-0.1-1.8,0.4-2.3,1.2c-0.5,0.9-0.8,2-0.8,3.1v0.2c-0.1,1.1,0.2,2.2,0.8,3.1
  c0.5,0.8,1.4,1.2,2.3,1.2c0.9,0.1,1.8-0.4,2.3-1.2c0.6-0.9,0.8-2,0.8-3.1V24.6z"/>
<path class="st0" d="M76.4,20.1l-0.9,0.2l2.2,7.3l0.2,0.7l0,0l0.1-0.6l2.2-7.3l-0.9-0.2v-1.5h4.4v1.5l-1,0.1l-3.6,10.6h-2.5L73,20.2
  l-1-0.1v-1.5h4.4L76.4,20.1z"/>
<path class="st0" d="M92.3,25.4h-4.1v3.5h3.9l0.1-1.5H94v3.3h-9.6v-1.5l1.3-0.2v-8.7l-1.3-0.2v-1.5H94v3.3h-1.9L92,20.5h-3.9v3.1
  h4.1V25.4z"/>
<path class="st0" d="M100.8,18.6c1.2-0.1,2.3,0.3,3.3,1c0.8,0.6,1.2,1.6,1.2,2.6c0,0.6-0.2,1.1-0.5,1.6c-0.4,0.5-0.9,0.9-1.4,1.1
  c0.6,0.2,1.2,0.5,1.6,1.1c0.3,0.6,0.5,1.2,0.5,1.8v0.6c0,0.2,0,0.4,0.2,0.6c0.1,0.2,0.3,0.3,0.5,0.3h0.3v1.5H105
  c-0.6,0.1-1.3-0.2-1.7-0.6c-0.3-0.5-0.5-1.1-0.5-1.7v-0.7c0-0.5-0.1-1-0.5-1.4c-0.3-0.4-0.8-0.6-1.3-0.5h-2V29l1.3,0.2v1.5h-5v-1.4
  l1.3-0.2v-8.7l-1.3-0.2v-1.5H100.8L100.8,18.6z M99.1,24h1.7c0.5,0,1.1-0.1,1.5-0.4c0.4-0.3,0.5-0.8,0.5-1.2c0-0.5-0.2-1-0.5-1.3
  c-0.4-0.4-1-0.5-1.5-0.5h-1.7V24z"/>
<path class="st0" d="M110.6,20.1l-0.9,0.2l2.2,7.3l0.2,0.7l0,0l0.1-0.6l2.2-7.3l-0.9-0.2v-1.5h4.4v1.5l-1,0.1l-3.6,10.6h-2.5
  l-3.6-10.6l-1-0.1v-1.5h4.4L110.6,20.1z"/>
<path class="st0" d="M118.6,20.1v-1.5h5v1.5l-1.3,0.2v8.7l1.3,0.2v1.5h-5v-1.5l1.3-0.2v-8.7L118.6,20.1z"/>
<path class="st0" d="M132.4,25.4h-4.1v3.5h3.9l0.1-1.5h1.9v3.3h-9.6v-1.5l1.3-0.2v-8.7l-1.3-0.2v-1.5h9.6v3.3h-1.9l-0.1-1.5h-3.9
  v3.1h4.1V25.4z"/>
<path class="st0" d="M151.3,20.1l-1,0.1l-2.5,10.6h-2.3l-2.2-8l0,0l-2.2,8h-2.3l-2.5-10.6l-1-0.1v-1.5h4.5v1.5l-1.1,0.2l1.4,6.7h0.1
  l2.3-8.3h1.8l2.3,8.3l0,0l1.4-6.7l-1.1-0.2v-1.5h4.5L151.3,20.1z"/>
<path class="st1" d="M156.6,30.8v-1.1l4-4.4c0.5-0.6,1-1.2,1.4-1.9c0.2-0.4,0.4-0.9,0.4-1.4c0-0.6-0.2-1.1-0.5-1.5
  c-0.3-0.4-0.9-0.6-1.4-0.6c-0.7-0.1-1.4,0.2-1.9,0.6c-0.4,0.5-0.6,1.2-0.6,1.8h-1.6v0c-0.1-1,0.3-1.9,1-2.6c0.8-0.7,1.9-1.1,3-1.1
  c1,0,1.9,0.3,2.6,1c0.7,0.6,1,1.5,1,2.4c0,0.7-0.2,1.4-0.6,2c-0.5,0.8-1,1.5-1.7,2.1l-3.2,3.5l0,0h4.3l0.1-1.4h1.4v2.7H156.6z"/>
<path class="st1" d="M174,26.1c0.1,1.3-0.3,2.5-1,3.6c-1.4,1.6-3.9,1.7-5.4,0.2c-0.1-0.1-0.2-0.2-0.2-0.2c-0.7-1-1.1-2.3-1-3.6v-2.9
  c-0.1-1.3,0.3-2.5,1-3.6c1.4-1.6,3.9-1.7,5.4-0.2c0.1,0.1,0.2,0.2,0.2,0.2c0.7,1,1.1,2.3,1,3.6V26.1z M172.4,22.9
  c0.1-0.8-0.1-1.7-0.6-2.4c-0.4-0.5-1-0.8-1.7-0.8c-0.7,0-1.3,0.3-1.6,0.8c-0.4,0.7-0.6,1.5-0.6,2.4v3.6c-0.1,0.8,0.1,1.7,0.6,2.4
  c0.7,0.9,2,1.1,3,0.4c0.1-0.1,0.3-0.2,0.4-0.4c0.4-0.7,0.6-1.6,0.6-2.4V22.9z"/>
<path class="st1" d="M175.8,30.8v-1.1l4-4.4c0.5-0.6,1-1.2,1.4-1.9c0.2-0.4,0.4-0.9,0.4-1.4c0-0.6-0.2-1.1-0.5-1.5
  c-0.3-0.4-0.9-0.6-1.4-0.6c-0.7-0.1-1.4,0.2-1.9,0.6c-0.4,0.5-0.6,1.2-0.6,1.8h-1.6v0c-0.1-1,0.3-1.9,1-2.6c0.8-0.7,1.9-1.1,3-1.1
  c1,0,1.9,0.3,2.6,1c0.7,0.6,1,1.5,1,2.4c0,0.7-0.2,1.4-0.6,2c-0.5,0.8-1,1.5-1.6,2.1l-3.2,3.5l0,0h4.3l0.1-1.4h1.4v2.7L175.8,30.8z"
  />
<path class="st1" d="M185.4,30.8v-1.1l4-4.4c0.5-0.6,1-1.2,1.4-1.9c0.2-0.4,0.4-0.9,0.4-1.4c0-0.6-0.2-1.1-0.5-1.5
  c-0.3-0.4-0.9-0.6-1.4-0.6c-0.7-0.1-1.4,0.2-1.9,0.6c-0.4,0.5-0.6,1.2-0.6,1.8h-1.6v0c-0.1-1,0.3-1.9,1-2.6c0.8-0.7,1.9-1.1,3-1.1
  c1,0,1.9,0.3,2.6,1c0.7,0.6,1,1.5,1,2.4c0,0.7-0.2,1.4-0.6,2c-0.5,0.8-1,1.5-1.6,2.1l-3.2,3.5l0,0h4.3l0.1-1.4h1.4v2.7L185.4,30.8z"
  />
<path id="Path_469" class="st1" d="M3.5,8.9c0.4-0.4,1-0.8,1.5-1.3c0.2-0.2,0.4-0.3,0.5-0.5C5.7,7,5.9,6.9,5.9,6.7
  C6,6.5,6.1,6.2,6.2,6l0.4-1.2l0,0c-0.2,0.4-0.4,0.7-0.7,1C5.6,6.1,5.3,6.3,5,6.5C4.6,6.8,4.3,7.1,4,7.3C3.6,7.7,3.2,8.1,3,8.6l0,0
  c0.2-0.7,0.4-1.3,0.5-1.8l0.3-1.3c0.1-0.3,0.2-0.6,0.4-0.9c0.2-0.3,0.4-0.6,0.7-0.8l0,0C4.2,4.1,3.6,4.5,3.2,5.1
  C2.7,5.7,2.5,6.5,2.5,7.3v2.8C2.8,9.7,3.1,9.3,3.5,8.9z M5.4,5.5c0.4-0.4,0.7-0.8,1-1.2C6.7,3.9,7,3.5,7.3,3.2
  c0.3-0.4,0.6-0.7,0.9-1l0,0C8,2.4,7.7,2.6,7.3,2.7C6.9,2.8,6.6,3,6.2,3.2C5.7,3.5,5.3,3.8,5,4.3C4.5,5,4.2,5.8,4,6.6
  C4.5,6.3,5,5.9,5.4,5.5z M0.9,16c0.3,0.4,0.6,0.8,0.9,1.2c0.4,0.4,0.7,0.9,1,1.4l0,0c0-0.2,0-0.4,0-0.6v-0.6c0-0.4,0.1-0.7,0.2-1.1
  c0.2-0.5,0.3-1,0.5-1.6s0.3-1.2,0.4-1.8C4,12.3,4.1,11.8,4,11.2l0,0c-0.1,0.4-0.2,0.7-0.4,1l-0.6,1c-0.2,0.4-0.4,0.8-0.6,1.2
  c-0.3,0.6-0.3,1.3-0.2,2c0,0.2,0.1,0.3,0.1,0.5l0,0c-0.1-0.6-0.2-1.1-0.5-1.7c-0.2-0.5-0.4-1-0.6-1.5s-0.4-0.9-0.5-1.2
  c-0.1-0.3-0.2-0.6-0.2-0.9c0-0.2,0-0.4,0-0.6c0-0.2,0-0.4,0-0.6l0,0c-0.1,0.3-0.2,0.7-0.3,1c-0.1,0.4-0.2,0.9-0.2,1.3
  c0,0.7,0.1,1.3,0.2,1.9C0.5,15.1,0.7,15.5,0.9,16z M8.2,26.9c0.1,0,0.3,0,0.4,0c0.2,0,0.4,0,0.6,0c0.2,0,0.4,0,0.7-0.1
  c0.3,0,0.7-0.1,1.1-0.3L13,26c-0.5-0.1-0.9-0.3-1.3-0.4c-0.4-0.1-0.8-0.4-1.1-0.7c-0.4-0.4-0.9-0.8-1.4-1.2l-1.1-1
  C8,22.6,7.5,22.1,7.3,22l0,0c0.1,0.1,0.6,1.1,0.6,1.1L8,23.2L8.4,24l0.1,0.3c0.2,0.3,0.4,0.6,0.7,0.8c0.5,0.4,1.1,0.7,1.7,0.8l0,0
  l-0.9,0l-0.6-0.1l-0.6-0.1c-0.2,0-0.5,0-0.7-0.1s-0.4-0.1-0.6-0.1l-0.6-0.1H6.6c-0.3,0-0.7-0.1-1-0.2c-0.3-0.1-0.6-0.2-0.9-0.4
  c-0.4-0.2-0.7-0.5-1-0.7l0,0c0.2,0.3,0.3,0.5,0.5,0.8c0.3,0.3,0.5,0.6,0.8,0.8c0.4,0.3,0.8,0.5,1.2,0.7c0.5,0.2,1,0.3,1.6,0.4
  L8.2,26.9L8.2,26.9z M2,14.3L2,14.3c0-0.2,0.1-0.4,0.1-0.6c0.1-0.2,0.2-0.5,0.3-0.7c0.2-0.3,0.4-0.7,0.6-1l1.1-1.5
  c0.3-0.4,0.5-0.9,0.6-1.4C4.9,8.6,5,8.2,5.1,7.9H5C5,8,4.9,8.2,4.8,8.3C4.7,8.4,4.7,8.5,4.6,8.6C4.4,8.7,4.3,8.9,4.2,9L3.5,9.6
  c-0.4,0.4-0.8,0.8-1,1.3c-0.2,0.4-0.3,0.9-0.4,1.3H2c0-0.2,0-0.4,0-0.6s0-0.5,0-0.8S2,10,2,9.5S1.9,8.3,1.9,7.4
  c0-0.3,0.1-0.5,0.2-0.8C2.2,6.4,2.3,6.2,2.4,6l0,0C1.8,6.6,1.4,7.3,1.2,8C1,8.6,0.9,9.2,0.9,9.9c0,0.7,0.1,1.5,0.4,2.1
  C1.6,12.8,1.8,13.5,2,14.3L2,14.3z M6.2,24.7l1.7,0.4l0.9,0.2c-0.3-0.3-0.6-0.7-0.9-1.1c-0.2-0.3-0.4-0.7-0.5-1.1
  c-0.2-0.4-0.4-1-0.7-1.8c-0.1-0.2-0.2-0.4-0.3-0.6c-0.1-0.2-0.2-0.4-0.3-0.6s-0.3-0.4-0.4-0.7L5,18.5l0,0c0.1,0.3,0.2,0.8,0.3,1.4
  l0.4,2c0.1,0.5,0.3,0.9,0.6,1.3C6.6,23.6,7,24,7.4,24.3l0,0c-0.4-0.2-0.7-0.4-1-0.6C6,23.3,5.5,23,5,22.8c-0.8-0.4-1.6-0.8-2.4-1.3
  c-0.6-0.4-1-0.9-1.3-1.6l0,0c0.2,0.6,0.4,1.2,0.8,1.8c0.3,0.5,0.6,1,1,1.5c0.5,0.4,1,0.7,1.5,1C5,24.4,5.6,24.6,6.2,24.7L6.2,24.7z
   M2.4,20.6l3,2c-0.1-0.3-0.3-0.5-0.4-0.8c-0.1-0.3-0.2-0.5-0.2-0.8c-0.1-0.3-0.1-0.6-0.1-1s-0.1-0.8-0.1-1.3c-0.1-0.9-0.2-1.6-0.3-2
  c-0.1-0.5-0.2-1.1-0.4-1.6l0,0c0,0.4,0,0.8-0.1,1.2c0,0.3-0.1,0.6-0.2,0.9c-0.1,0.3-0.1,0.5-0.2,0.8c0,0.3-0.1,0.5-0.1,0.8
  c0,0.4,0.1,0.8,0.3,1.1c0.1,0.4,0.3,0.8,0.5,1.1l0,0c-0.4-0.6-0.8-1.2-1.3-1.8c-0.4-0.5-0.8-0.9-1.2-1.3c-0.3-0.3-0.7-0.7-1-1.1
  c-0.3-0.4-0.4-0.9-0.5-1.4C0,15.6,0,15.9,0,16.1c0,0.5,0.1,0.9,0.2,1.4c0.2,0.5,0.4,0.9,0.6,1.3c0.2,0.4,0.5,0.7,0.8,1.1
  C1.9,20.1,2.1,20.4,2.4,20.6z M26.8,3.2l0.9,1.1c0.3,0.4,0.6,0.8,1,1.2c0.4,0.4,0.9,0.8,1.4,1.1c-0.2-0.8-0.5-1.6-1-2.3
  c-0.3-0.4-0.6-0.8-1-1.1c-0.4-0.2-0.7-0.4-1.1-0.5c-0.3-0.1-0.6-0.3-0.9-0.5l0,0C26.3,2.5,26.6,2.8,26.8,3.2L26.8,3.2z M29.4,24.9
  c-0.3,0.2-0.6,0.3-0.9,0.4c-0.3,0.1-0.7,0.1-1,0.2h-0.3l-0.6,0.1l-0.6,0.1c-0.2,0-0.5,0.1-0.7,0.1l-0.6,0.1l-0.6,0.1l-0.9,0.1l0,0
  c0.6-0.2,1.2-0.4,1.7-0.8c0.3-0.2,0.5-0.5,0.7-0.8l0.1-0.3c0.1-0.2,0.3-0.5,0.4-0.7l0.1-0.2c0,0,0.5-1,0.6-1.1l0,0
  c-0.1,0.1-0.7,0.6-0.8,0.7l-1.1,1c-0.5,0.4-0.9,0.8-1.4,1.2c-0.3,0.3-0.7,0.5-1.1,0.7c-0.4,0.1-0.8,0.2-1.3,0.4l1.9,0.5
  c0.5,0.1,0.9,0.2,1.1,0.3l0.7,0.1c0.2,0,0.4,0,0.6,0H26h0.4c0.5-0.1,1.1-0.2,1.6-0.4c0.4-0.2,0.8-0.4,1.2-0.7
  c0.3-0.2,0.6-0.5,0.9-0.8c0.2-0.2,0.4-0.5,0.5-0.8l0,0c-0.3,0.3-0.6,0.5-1,0.7L29.4,24.9z M31.7,21.5c-0.8,0.5-1.6,0.9-2.4,1.3
  c-0.5,0.3-1,0.6-1.5,0.9c-0.3,0.3-0.6,0.5-1,0.6l0,0c0.4-0.4,0.8-0.8,1.1-1.2c0.3-0.4,0.5-0.8,0.5-1.3c0.1-0.6,0.3-1.3,0.4-2
  s0.3-1.2,0.3-1.5l0,0l-0.7,1c-0.2,0.2-0.3,0.5-0.4,0.7s-0.2,0.4-0.3,0.6c-0.1,0.2-0.2,0.4-0.3,0.6c-0.3,0.7-0.5,1.3-0.7,1.8
  c-0.1,0.4-0.3,0.8-0.5,1.1c-0.2,0.4-0.5,0.8-0.9,1.1l0.9-0.2l1.7-0.4c0.6-0.1,1.1-0.3,1.6-0.6c0.5-0.3,1-0.6,1.5-1
  c0.5-0.4,0.9-0.9,1.2-1.4c0.3-0.6,0.6-1.2,0.7-1.8l0,0C32.7,20.6,32.3,21.1,31.7,21.5L31.7,21.5z M32.9,13.8
  c-0.2,0.4-0.4,0.9-0.6,1.5c-0.2,0.6-0.4,1.1-0.4,1.7l0,0c0-0.2,0-0.3,0.1-0.5c0.1-0.2,0.1-0.4,0.1-0.7c0-0.5-0.1-0.9-0.2-1.4
  c-0.2-0.4-0.4-0.8-0.6-1.2l-0.6-1.1c-0.2-0.3-0.3-0.6-0.4-1l0,0c-0.1,0.6,0,1.1,0.1,1.6c0.1,0.6,0.3,1.2,0.4,1.8s0.3,1.1,0.5,1.7
  c0.1,0.3,0.2,0.7,0.2,1.1V18c0,0.2,0,0.4,0,0.6l0,0c0.3-0.5,0.6-1,1-1.4c0.3-0.4,0.6-0.8,0.9-1.2c0.3-0.4,0.5-0.9,0.6-1.4
  c0.2-0.6,0.3-1.3,0.2-1.9c0-0.4-0.1-0.9-0.2-1.3c-0.1-0.3-0.2-0.7-0.3-1l0,0c0,0.2,0,0.4,0,0.6s0,0.4,0,0.6c0,0.3-0.1,0.6-0.2,0.9
  C33.3,13,33.2,13.4,32.9,13.8L32.9,13.8z M31.7,11c-0.2-0.5-0.6-1-1-1.3L30,9c-0.1-0.1-0.3-0.3-0.4-0.4c-0.1-0.1-0.2-0.2-0.3-0.3
  c-0.1-0.1-0.1-0.2-0.2-0.3l0,0c0,0.2,0.2,0.6,0.3,1.2c0.1,0.5,0.3,1,0.5,1.4l1.1,1.5c0.2,0.3,0.4,0.7,0.6,1c0.1,0.2,0.2,0.4,0.3,0.7
  c0.1,0.2,0.1,0.4,0.1,0.6l0,0c0.2-0.8,0.4-1.6,0.8-2.3c0.3-0.7,0.4-1.4,0.4-2.1c0-0.6-0.1-1.3-0.3-1.9c-0.3-0.7-0.7-1.4-1.1-2l0,0
  c0.1,0.2,0.2,0.4,0.3,0.7c0.1,0.2,0.2,0.5,0.2,0.8c0,0.9,0,1.6-0.1,2.1s-0.1,1-0.1,1.4s0,0.6,0,0.8s0,0.4,0,0.6l0,0
  C32,11.9,31.9,11.4,31.7,11z M29.9,4.6c0.2,0.3,0.3,0.7,0.4,1l0.3,1.3c0.1,0.5,0.3,1.1,0.5,1.8l0,0c-0.2-0.5-0.5-0.9-0.9-1.3
  c-0.3-0.3-0.6-0.6-1-0.8c-0.3-0.2-0.6-0.5-0.9-0.7c-0.3-0.3-0.6-0.6-0.7-1l0,0L27.9,6c0.1,0.2,0.2,0.5,0.3,0.7
  c0.1,0.2,0.2,0.3,0.4,0.5c0.1,0.1,0.3,0.3,0.5,0.5c0.6,0.5,1.1,0.9,1.5,1.3c0.4,0.3,0.8,0.7,1,1.2V7.3c0-0.8-0.2-1.6-0.7-2.2
  c-0.4-0.6-1.1-1.1-1.8-1.3v0C29.5,4.1,29.7,4.3,29.9,4.6L29.9,4.6z M25.3,27.7c-0.2,0-0.4,0-0.7-0.1l-0.7-0.1l0,0l-0.8-0.3l-1.1-0.4
  l-1.7-0.6c-0.4-0.1-0.8-0.2-1.1-0.2c-0.4,0-0.8,0.1-1.2,0.1L17,26.4l-0.9-0.2C15.8,26.1,15.4,26,15,26c-0.4,0-0.8,0.1-1.1,0.2
  l-1.7,0.6c-0.9,0.3-1.5,0.5-2,0.7c-0.4,0.1-0.9,0.2-1.3,0.2c-0.2,0-0.4,0-0.6,0c-0.2,0-0.3-0.1-0.5-0.1c0,0-0.4-0.1-0.6-0.2
  S6.7,27.1,6.4,27l0,0c0.4,0.4,0.9,0.8,1.4,1.1c0.7,0.4,1.4,0.6,2.2,0.6c0.3,0,0.6,0,0.9-0.1c0.3,0,0.5-0.1,0.8-0.2
  c0.2-0.1,0.5-0.2,0.8-0.4s0.7-0.4,1.1-0.6s0.8-0.5,1.1-0.7c0.3-0.2,0.7-0.3,1.1-0.3c0.2,0,0.3,0,0.5,0.1c-0.5,0.3-1.1,0.6-1.8,1
  c-0.7,0.5-1.4,1-2,1.6l0.7,0.6c0.6-0.7,1.3-1.4,2-1.9c0.5-0.5,1.2-0.8,1.8-1.1c0.7,0.3,1.3,0.7,1.9,1.2c0.7,0.6,1.4,1.2,2,1.9
  l0.7-0.6c-0.6-0.6-1.3-1.2-2-1.6c-0.7-0.4-1.3-0.8-1.8-1c0.2-0.1,0.3-0.1,0.5-0.1c0.4,0,0.7,0.1,1.1,0.3c0.3,0.2,0.7,0.4,1.1,0.7
  l1,0.6c0.3,0.2,0.5,0.3,0.8,0.4c0.2,0.1,0.5,0.2,0.8,0.2c0.3,0.1,0.5,0.1,0.8,0.1H24c0.6,0,1.2-0.2,1.8-0.4c0.7-0.3,1.3-0.8,1.8-1.4
  l0,0c-0.4,0.2-0.9,0.4-1.3,0.5C26,27.7,25.6,27.7,25.3,27.7z M34.1,16v-0.1c0-0.1,0-0.1,0-0.2s0-0.2-0.1-0.4c-0.1,0.5-0.2,1-0.5,1.4
  c-0.3,0.4-0.6,0.8-0.9,1.1L32.6,18l-1.2,1.2c-0.5,0.6-0.9,1.2-1.3,1.8l0,0c0.2-0.4,0.3-0.7,0.5-1.1c0.1-0.4,0.2-0.8,0.2-1.1
  c0-0.3,0-0.5-0.1-0.8c0-0.2-0.1-0.5-0.1-0.7s-0.1-0.6-0.1-0.9c0-0.4-0.1-0.8-0.1-1.2l0,0l0,0l0,0c-0.2,0.5-0.3,1-0.4,1.6
  c-0.1,0.5-0.2,1.2-0.3,2c0,0.5-0.1,0.9-0.1,1.3s-0.1,0.7-0.1,1c0,0.3-0.1,0.5-0.2,0.8c-0.1,0.2-0.2,0.4-0.3,0.6l-0.1,0.1l0,0l1-0.7
  l2-1.3c0.3-0.2,0.5-0.4,0.8-0.7c0.3-0.3,0.5-0.7,0.8-1.1c0.1-0.3,0.2-0.6,0.3-0.9c0.1-0.2,0.2-0.3,0.2-0.5
  C34.1,17,34.1,16.6,34.1,16L34.1,16C34.1,16.1,34.1,16.1,34.1,16z M22.5,4.2l0.2,0.1c0,0.1,0.1,0.1,0.1,0.2c0,0,0.1,0.1,0.1,0.1
  c0.1,0,0.1,0,0.1-0.1s0-0.1,0-0.1s0,0,0-0.1c0-0.1,0-0.2-0.1-0.2c-0.1-0.1-0.2-0.1-0.4-0.1h-0.1l0,0C22.5,4.1,22.4,4.1,22.5,4.2
  c0,0,0,0,0.1,0L22.5,4.2z M18.2,3.2L18.2,3.2c0.2-0.1,0.4-0.1,0.6-0.1h0.6c0.1,0,0.2,0,0.2-0.1c0-0.1,0.1-0.1,0.1-0.2
  c-0.1-0.1-0.3-0.2-0.5-0.3c-0.1,0-0.3,0-0.4,0c-0.2,0-0.3,0.1-0.5,0.1l-0.5,0.2c-0.1,0-0.2,0-0.2,0.1c0.1,0.1,0.1,0.1,0.2,0.2
  C17.9,3.2,18.1,3.3,18.2,3.2L18.2,3.2z M17,25.3c6.7,0,12.1-5.4,12.1-12.1S23.7,1,17,1S4.9,6.5,4.9,13.1C4.9,19.8,10.3,25.3,17,25.3
  L17,25.3z M5.5,13.5h1.8c0,0.8,0.2,1.6,0.4,2.4c-0.1,0-0.1,0-0.1-0.1v-0.1l-0.2-0.3L7,15.5c0,0.2-0.1,0.3-0.2,0.2
  c0,0-0.1-0.1-0.2-0.1c-0.2,0-0.4,0.1-0.4,0.3l0,0c0,0.2-0.1,0.3-0.1,0.5l0.3,0.7c0,0.1,0.1,0.1,0.2,0c0.1,0.1,0.2,0.2,0.2,0.3
  c0.1,0.1,0.1,0.1,0.2,0.1c0.1,0,0.1,0,0.1-0.1c0,0,0,0,0,0l0,0l0.2,0.2c0.1,0.1,0.1,0.1,0.2,0.2l0,0c0.1,0.1,0.2,0.1,0.3,0.1
  c0,0.2,0.1,0.3,0.2,0.4c0.1,0.1,0.2,0.2,0.3,0.2c0.1,0,0.1,0,0.2-0.1c0,0.1,0.1,0.3,0.2,0.4L9.1,19c0.1,0,0.1,0.1,0.2,0.1h0.1
  c0,0.1,0.1,0.2,0.2,0.3c0.1,0.1,0.2,0.2,0.2,0.2l0,0h0.1l0.1,0.1L8.6,21C6.7,19,5.6,16.3,5.5,13.5L5.5,13.5z M14.4,10.1L14.3,10
  l-0.1-0.1c0.7-0.6,1.6-1,2.5-1.1v1.3h-0.1l0,0l0,0c0,0-0.1,0-0.1,0h-0.1c0,0-0.1,0-0.1,0h-0.1c0,0-0.1-0.1-0.1-0.2l0,0
  C16,9.9,16,10,16,10s0,0.1-0.1,0.3c0,0.1-0.1,0.2-0.2,0.2c-0.1,0-0.2,0.1-0.2,0.1l-0.1-0.1h-0.2c0,0-0.1-0.1-0.1-0.1L15,10.4l0,0
  c0,0-0.1,0-0.1,0.1c0,0,0,0,0,0l-0.1-0.1l0,0v-0.1C14.6,10.2,14.5,10.1,14.4,10.1L14.4,10.1z M13.7,9.4l-1.2-1.2
  c1.2-1.1,2.6-1.7,4.2-1.8v1.8C15.6,8.3,14.5,8.7,13.7,9.4L13.7,9.4z M14.4,15.3c0.1-0.1,0-0.2,0.1-0.3l-0.1,0.1
  c0.1-0.1,0.2-0.2,0.2-0.3c0-0.1,0.1-0.2,0.1-0.2l0,0l0.1,0.2L13.7,16c-0.5-0.5-0.8-1.1-0.9-1.8c0.1,0,0.2,0,0.3,0.1l0.3,0.2
  c0.1,0,0.1,0,0.2,0l0.2,0.1c0,0.1,0,0.1,0,0.2c0,0,0,0.1,0.1,0.1c0.1,0,0.2,0,0.2,0.1h0.1c0-0.1,0-0.1,0-0.2c0-0.1,0-0.1,0-0.1
  l0.1,0.3l0.1,0.3l0,0C14.3,15.4,14.4,15.4,14.4,15.3L14.4,15.3z M16.8,16.6c0.1,0.1,0.1,0.1,0.1,0.1s-0.1,0.1-0.3,0.1
  s-0.1,0.1-0.2,0.2l-0.1,0.4h-0.1c-0.8-0.1-1.5-0.5-2.1-1l1.1-1.1c0.4,0.4,0.9,0.6,1.5,0.7c0,0.1,0,0.1,0,0.2
  c-0.1,0.1-0.1,0.1-0.1,0.2C16.7,16.4,16.7,16.5,16.8,16.6L16.8,16.6z M11.4,16.6c0-0.2,0-0.5-0.1-0.7c0-0.1-0.1-0.3-0.1-0.4
  c0-0.2-0.1-0.4-0.1-0.5c-0.1-0.2-0.2-0.4-0.4-0.5v-0.2c0-0.1,0-0.2-0.1-0.2l0,0c0,0,0-0.1,0.1-0.1l0.4-0.1c0-0.1,0-0.3,0-0.4
  l0.3,0.1c0.1,0,0.1-0.1,0.1-0.2c0-0.1,0-0.2-0.1-0.2c0-0.1-0.1-0.2-0.1-0.3c0-0.1,0-0.1,0.1-0.1c0.1,0,0.2-0.1,0.2-0.1
  c0.1,0,0.2,0,0.3,0.1c0.1,0.1,0.1,0.2,0.1,0.3c0,0.1,0,0.1,0,0.2c0,0.1,0,0.1,0,0.2h0.1c-0.1,0.3-0.2,0.4-0.3,0.4
  c-0.1,0-0.1,0-0.2-0.1c0-0.1-0.1-0.1-0.1-0.1c0,0,0,0-0.1,0l0,0c0,0.1,0,0.1,0,0.2c0,0.1,0,0.1,0,0.2c0,0.2-0.1,0.3-0.3,0.2
  c0,0.1,0,0.1,0.2,0.1c0.1,0.2,0.1,0.2,0.2,0.2c0-0.1,0.1-0.2,0.1-0.3c0-0.1,0-0.2,0.1-0.3h0.1H12V14H12c0.2,0.9,0.6,1.7,1.1,2.4
  l-1.7,1.7c-0.1-0.1-0.1-0.2-0.1-0.3c0-0.2,0.2-0.3,0.2-0.4v-0.3c-0.1-0.1-0.2-0.3-0.3-0.5L11.4,16.6z M10.4,14.1c0,0.1,0,0.1,0,0.2
  c0,0.1,0,0.1-0.1,0.1l0,0c-0.1-0.3-0.1-0.6-0.1-0.9h0.3c0,0.1,0,0.1,0,0.2l-0.1,0.2c0,0-0.1,0.1-0.1,0.2
  C10.4,14,10.4,14.1,10.4,14.1L10.4,14.1z M10.3,12.8c0.1-1.6,0.7-3.1,1.8-4.2l1.2,1.2l0,0c-0.1,0-0.2,0.1-0.2,0.1l-0.2,0.2
  c-0.1,0.1-0.3,0.1-0.4,0.2c-0.1,0.1-0.2,0.2-0.3,0.3l-0.3,0.1c-0.1,0-0.1,0.1-0.1,0.1c0,0.1,0,0.2,0,0.2l-0.4,0.1c0,0-0.1,0-0.1,0
  l-0.1,0.1c0,0,0,0.1,0,0.1c0,0,0,0.1,0,0.1c-0.1,0.1-0.1,0.1-0.2,0.2c-0.1,0.1-0.1,0.2,0,0.4l0.1,0.4l0,0c0,0,0,0.1,0,0.1L10.3,12.8
  z M13.7,16.8c0.6,0.6,1.4,1,2.2,1.2l-0.2,0.1c-0.1,0-0.2,0.1-0.2,0.3c0,0.1-0.1,0.2-0.2,0.3c-0.1,0-0.1,0.1-0.1,0.2
  c0.1,0.1,0.2,0.3,0.3,0.5c0.1,0.2,0.2,0.3,0.4,0.4l0.2,0.1c0.1,0,0.2,0,0.2,0.1h0.2c-1.5-0.1-2.9-0.7-4.1-1.7L13.7,16.8z M12,7.7
  l-1.2-1.2c1.6-1.5,3.7-2.4,5.9-2.4v1.7C15,5.9,13.3,6.6,12,7.7L12,7.7z M11.6,8.2c-1.2,1.3-1.9,2.9-1.9,4.6H8
  c0.1-2.2,0.9-4.2,2.4-5.8L11.6,8.2z M9.7,13.5c0,0.3,0,0.6,0.1,0.9l-0.1-0.1C9.6,14.1,9.5,14,9.5,14c-0.1,0-0.1,0-0.2,0.1
  c0,0.1-0.1,0.1-0.1,0.2c-0.1,0.1-0.3,0.2-0.4,0.2c-0.1,0.1-0.2,0.3-0.2,0.5c0,0,0,0.1,0,0.2c0,0.1,0,0.1-0.1,0.2s0.1,0.2,0,0.2
  s0,0.1,0,0.1c0,0-0.1,0-0.1,0c0,0,0,0.1-0.1,0.1C8.1,14.9,8,14.2,8,13.5H9.7z M16.7,24.6c-2.8-0.1-5.5-1.2-7.6-3.1l1.3-1.3
  c1.7,1.6,4,2.5,6.3,2.6V24.6z M16.7,22.2c-2.2-0.1-4.2-0.9-5.8-2.4c0.1,0.1,0.2,0.1,0.3,0.1c0.1,0,0.2,0,0.3-0.1l0.4-0.2
  c0.1,0,0.3,0,0.4-0.1c0.1,0,0.2,0,0.3,0c0.1,0,0.1-0.1,0.1-0.2c0-0.1-0.1-0.2-0.1-0.2c-0.1-0.1-0.1-0.1-0.1-0.2s0-0.1-0.1-0.1
  c-0.1-0.1-0.2-0.2-0.3-0.3l0,0c1.3,1.2,2.9,1.9,4.6,1.9L16.7,22.2z M17,17.7L17,17.7c-0.1,0-0.3,0-0.4-0.1c0,0,0-0.1,0-0.1l0.2-0.1
  c0.1-0.1,0.2-0.1,0.3-0.1v-0.1l0.3-0.2h0.1l0.2-0.1c0.1,0,0.2,0.1,0.3,0.1c0.1,0.1,0.2,0.1,0.3,0.1V17c0,0,0.1,0,0.2,0.2
  c0.1,0,0.1,0,0.2-0.1c0-0.1,0-0.1,0-0.2h0.1h0.1c0,0,0,0,0.1,0l0,0c0.1,0,0.2,0,0.2-0.1l0.2-0.1 M19.5,16.6L19.5,16.6
  c0,0.1,0,0.1,0,0.2c0,0.2-0.1,0.4-0.4,0.5c-0.2,0.1-0.4,0.2-0.6,0.2c0,0.1-0.1,0.1-0.1,0.2c0,0.1-0.1,0.1-0.1,0.1
  c-0.2,0-0.3,0-0.5-0.1c-0.1-0.1-0.1-0.2-0.1-0.2h-0.3l-0.3,0.1c-0.1,0-0.1,0-0.2,0L19.5,16.6z M18.7,16.4c0-0.1,0.1-0.2,0.2-0.3
  c0.1,0,0.2-0.1,0.3-0.1c0,0.1-0.1,0.2-0.2,0.2C19,16.3,18.9,16.4,18.7,16.4L18.7,16.4z M20,15.4c0.1,0.1,0.2,0.2,0.2,0.3
  c0,0.1,0,0.1-0.1,0.2c0,0,0,0,0,0l0,0c-0.1,0-0.1-0.1-0.2-0.3s-0.3-0.1-0.3-0.3s0-0.2,0-0.2l0.2-0.1c0,0,0.1,0.1,0,0.2L20,15.4
  L20,15.4z M23.9,8.6C23.9,8.6,24,8.6,23.9,8.6c0.2,0,0.3,0,0.4,0.1c0.2,0.2,0.4,0.4,0.5,0.6c0,0,0.1,0,0.1,0.1s0.1,0.1,0.1,0.1
  c0.1,0,0.1,0,0.2-0.1V9.4c0.5,1.1,0.8,2.3,0.8,3.5h-1.7l0,0c0-0.2,0-0.3-0.1-0.4c-0.1-0.2-0.1-0.4-0.1-0.6c0-0.1,0-0.2,0-0.4
  c-0.1,0-0.1,0-0.2,0c0,0.1-0.1,0.1-0.1,0.2c0,0.1-0.1,0.1-0.1,0.2l0,0v0.1c0,0,0,0.1,0,0.1c0,0.1-0.1,0.2-0.1,0.3c0,0.1,0,0.2,0,0.3
  l0,0v0.1h-0.9c0-0.1,0.1-0.1,0.2-0.1l0,0l0.2-0.1c0,0-0.1-0.1-0.1-0.1c0-0.1,0-0.1,0-0.1l0.2-0.1c0.1-0.1,0.2-0.2,0.2-0.4
  c0.2-0.2,0.3-0.5,0.3-0.8c0-0.1-0.1-0.1-0.1-0.2s0-0.1,0-0.2c0-0.3,0.1-0.8-0.2-0.9c0,0,0,0,0-0.1c0.1-0.1,0.1-0.2,0.1-0.3h-0.2
  c0-0.1,0-0.1,0.1-0.1c0-0.1,0.1-0.1,0.1-0.2c0-0.1,0-0.1-0.1-0.1l0,0c-0.1,0-0.1,0-0.2,0L23.1,9H23l0,0c0-0.1-0.1-0.3-0.2-0.4
  c-0.1-0.1-0.2-0.2-0.3-0.2l0,0c0-0.1,0-0.1,0-0.2l0.3-0.3L23.3,8c0,0.1,0,0.2,0.1,0.3c0.1,0,0.1,0.1,0.2,0.1
  C23.7,8.5,23.8,8.5,23.9,8.6L23.9,8.6C23.8,8.6,23.9,8.7,23.9,8.6L23.9,8.6z M22.2,20.3c0,0-0.1,0-0.1,0c0,0-0.1,0-0.1-0.1
  s0-0.1,0.1-0.2c0.1-0.1,0.2-0.2,0.2-0.3c0-0.1,0.1-0.2,0.1-0.2c0,0,0-0.1-0.1-0.1c-0.1,0-0.1-0.1-0.1-0.1l-0.2-0.1
  c-0.1,0-0.2-0.1-0.2-0.1c-0.1,0-0.1-0.1-0.1-0.2l0.1-0.2c0,0,0-0.1,0-0.1l0.1-0.1l0.9,0.9c0,0.1,0.1,0.2,0.2,0.2l0.1,0.1
  c-0.3,0.3-0.6,0.6-1,0.8c0,0,0-0.1,0.1-0.1h0C22.3,20.5,22.3,20.4,22.2,20.3L22.2,20.3z M21.7,15.9c-0.1,0-0.2,0-0.2,0
  c-0.1,0-0.2,0.1-0.2,0.2l0,0l0,0c-0.1,0-0.1,0-0.2,0c-0.1,0-0.1,0-0.2,0.1c-0.1,0-0.1,0-0.1-0.1s0.1-0.1,0.4-0.2
  c0.1-0.1,0.1-0.2,0.2-0.2c0.1,0,0.1-0.1,0.2-0.1c0.1-0.1,0.2-0.2,0.3-0.3c0.1-0.1,0.1-0.2,0.1-0.3l0,0c0,0.1,0,0.2,0.2,0.2
  s0.1-0.1,0.2-0.3c0.1,0,0.2,0.1,0.3,0.1c0.1,0,0.2,0,0.3-0.1h0.5v0.1l0,0c-0.3,0.9-0.7,1.7-1.4,2.4c0,0,0-0.1,0-0.1S21.9,17,21.9,17
  s-0.1,0.1-0.2,0.3c0,0.1-0.1,0.2-0.1,0.4l-0.4,0.1c-0.1,0-0.2,0-0.4,0c-0.1,0-0.2-0.1-0.4-0.1c-0.1-0.1-0.2-0.1-0.3-0.1l-0.3-0.1
  c-0.1,0-0.2-0.1-0.2-0.1s0-0.1,0.2-0.1c0.1,0,0.2,0,0.3,0.1l0.5,0.1l0.5,0.1c0.1,0,0.2,0.1,0.2,0.1l0.2-0.1c0-0.1,0-0.2,0.1-0.2
  c0-0.1,0.1-0.1,0.1-0.2c0.1-0.1,0.1-0.3,0.1-0.4c0-0.2,0.1-0.3,0.1-0.5C21.8,15.9,21.8,15.8,21.7,15.9L21.7,15.9z M22.7,13.5h1
  c0,0.4-0.1,0.8-0.2,1.2c0-0.1-0.1-0.3-0.2-0.4L23,14c0-0.1,0-0.2-0.1-0.3c0,0,0-0.1,0-0.1C22.8,13.6,22.8,13.6,22.7,13.5L22.7,13.5z
   M23.1,18.4c-0.1,0-0.1,0-0.1,0.1s0,0.2,0,0.2l-0.6-0.6c0.8-0.9,1.4-2,1.7-3.1l0,0c0.1,0.1,0.2,0.1,0.3,0c0,0,0.1-0.1,0.1-0.1
  c0-0.1-0.1-0.2-0.2-0.3h0c0.1-0.3,0.1-0.7,0.1-1H26c-0.1,2.2-0.9,4.3-2.4,5.9l-0.1-0.1l0,0c0-0.2,0-0.4-0.1-0.5s-0.1-0.3-0.3-0.3
  L23.1,18.4z M22.7,9.6L22.7,9.6c0,0.1,0,0.1,0,0.2l-0.1,0.2c0.1,0.1,0.2,0.2,0.3,0.3l0.4,0.3c0.1,0.1,0.1,0.3,0.2,0.5
  c0,0.1,0.1,0.3,0.1,0.4c0,0.1-0.1,0.2-0.1,0.3c-0.1,0.1-0.2,0.2-0.4,0.2l0,0c0-0.1,0-0.2,0.1-0.2c0-0.1,0.1-0.2,0.1-0.2
  c0.1,0,0.1-0.1,0.2-0.2l-0.1-0.1l-0.2-0.2c0-0.1-0.1-0.1-0.2-0.1c-0.1,0-0.1,0-0.2,0.1l-0.2,0.1L22.3,11c0-0.1,0-0.1,0-0.2L22,10.3
  c-0.1-0.1-0.3-0.1-0.5-0.1c-0.1,0-0.2,0-0.3,0c-0.1,0-0.2,0-0.3,0c-0.1,0-0.2,0-0.3,0.1c-0.1,0.1-0.2,0.2-0.3,0.3c0,0,0,0.1-0.1,0.1
  l-0.1-0.1l1.8-1.8l0,0l0.2,0.2l0.2,0.2C22.4,9.2,22.6,9.4,22.7,9.6L22.7,9.6z M18.3,21.7c0.1,0.1,0.3,0.2,0.5,0.3
  c-0.5,0.1-1,0.2-1.5,0.2v-1.7l0,0c0.1,0.1,0.2,0.2,0.3,0.3c0.1,0,0.2,0.1,0.4,0.1c0.2,0,0.3,0,0.3,0.1c0,0.1,0,0.1-0.1,0.2
  c0,0.1-0.1,0.1-0.1,0.2C18.1,21.5,18.2,21.6,18.3,21.7z M17.3,24.6v-1.8c0.7,0,1.3-0.1,2-0.3l0,0c0,0,0,0,0,0
  c0.2,0.1,0.3,0.2,0.4,0.4c0,0.1,0.2,0.2,0.4,0.2c0.1,0,0.2,0,0.3-0.1l0.1-0.2c0.1-0.1,0.1-0.1,0.2-0.1c0.1,0,0.1-0.1,0.2-0.1
  c0.1,0,0.2-0.1,0.3-0.2c0.1-0.1,0.2-0.2,0.2-0.3c0.1,0,0.1,0,0.2-0.1c0.1-0.1,0.1-0.3,0.2-0.4h0.1c0,0,0,0,0-0.1
  c0.6-0.4,1.2-0.8,1.7-1.3l1.3,1.3C22.8,23.4,20.1,24.6,17.3,24.6L17.3,24.6z M25.3,21.1L24,19.8c1.6-1.7,2.5-4,2.6-6.3h1.8
  C28.4,16.3,27.3,19,25.3,21.1L25.3,21.1z M28.5,12.8h-1.8c-0.1-1.9-0.7-3.8-1.9-5.4c0-0.1-0.1-0.1-0.1-0.2l-0.1-0.1
  c-0.1-0.2-0.3-0.4-0.5-0.6c0,0,0-0.1,0-0.1l1.3-1.3C27.3,7.3,28.4,10,28.5,12.8L28.5,12.8z M17.3,1.7c2.8,0.1,5.5,1.2,7.6,3.2
  l-1.1,1.1l-0.1-0.2c0-0.1-0.1-0.1-0.2-0.1c-0.1,0-0.2-0.1-0.2-0.3c0-0.1,0-0.2-0.1-0.2c-0.2-0.1-0.3-0.2-0.4-0.4
  c-0.1-0.2-0.2-0.3-0.3-0.3c-0.1,0-0.2,0-0.3,0c-0.2-0.1-0.4-0.1-0.5,0l-0.3,0.1h0c-1.2-0.6-2.6-1-3.9-1c0.1-0.2,0.1-0.3,0-0.3
  s-0.1,0-0.2,0.1L17.3,1.7z M17.3,4.1c1.3,0.1,2.6,0.4,3.8,1l0,0l0.2,0.2c0,0.1,0.1,0.1,0.1,0.2c0,0.1,0.1,0.2,0.1,0.4L21.6,6
  c0,0.1,0,0.2,0.1,0.3c0.1,0.1,0.1,0.2,0.2,0.3H22h0.2c0,0,0.1,0,0.2,0.1C22.5,6.9,22.5,7,22.6,7c0,0,0,0.1,0,0.1l-0.5,0.5l0,0
  C22,7.4,22,7.2,21.9,7c-0.1-0.1-0.2-0.1-0.3-0.1l-0.3-0.3C21.1,6.4,21,6.2,21,6.2c0,0-0.1,0-0.1,0c0,0,0,0.1,0.1,0.1
  c0,0,0.1,0.1,0.2,0.3s0,0.1-0.1,0.1l0,0c0,0.1,0.1,0.2,0.2,0.2V7l0.1,0.2c-1.2-0.9-2.6-1.3-4-1.4L17.3,4.1z M17.3,6.5
  c1.6,0.1,3.1,0.7,4.2,1.8l-1.2,1.2c-0.8-0.7-1.9-1.2-3-1.2L17.3,6.5z M17.3,8.8c0.9,0.1,1.7,0.4,2.4,0.9h-0.1c0,0,0,0-0.1,0.1
  c0,0,0,0.1,0,0.1s0.1,0.1,0.1,0.1l-0.5,0.5l0,0c-0.1,0-0.1,0.1-0.2,0.1c-0.1,0.1-0.2,0.1-0.2,0.1v0.1l-0.2,0.2h-0.1
  c0,0-0.1-0.1-0.2-0.2s-0.2-0.2-0.2-0.2c-0.1,0-0.1,0-0.2,0.1c0,0-0.1,0-0.1,0c0-0.1,0-0.1,0.2-0.2l0.4-0.1c0.2-0.1,0.3-0.4,0.3-0.6
  c0-0.1-0.1-0.2-0.2-0.2l-0.1,0.1C18.2,9.8,18.1,9.9,18,10l-0.2,0.2c-0.1,0-0.2,0-0.2,0h-0.2V8.8z M17,11.6C17,11.6,17,11.7,17,11.6
  c0.1,0.1,0.2,0.1,0.3,0.1c0.1,0,0.1,0,0.2,0c0,0,0,0,0,0.1c0,0.1,0.1,0.1,0.1,0.1l0,0.1l0,0l0.1,0.1l0,0l0,0c0,0,0.1,0,0.1,0
  c0,0,0.1,0,0.1,0v0.1l0,0c0,0,0,0.1,0,0.1c0,0.1,0,0.1,0,0.2v0.1l0,0c-0.1,0.1-0.1,0.1-0.1,0.2c0,0.1,0,0.1,0.1,0.1
  c0.1,0,0.1,0,0.1,0.1c0.1,0.1,0.1,0.1,0.1,0.2v0.4c0,0,0,0.1,0.1,0.1c0,0,0.1,0,0.1,0.1c0,0.1,0,0.2,0,0.3c0,0.1-0.1,0.2-0.1,0.3
  c0,0-0.1,0-0.2,0h-0.3c-0.1,0-0.1,0.1-0.2,0.2c-0.1,0.1-0.1,0.2-0.1,0.4c0,0.1-0.1,0.2-0.2,0.2c-0.1,0-0.1,0-0.2,0l0,0l-0.1,0.2v0.1
  c-0.5,0-0.9-0.2-1.2-0.5l0.2-0.2l0.4-0.1h0.1c0.2-0.1,0.2-0.3,0.3-0.4s0.3-0.3,0.1-0.4c0.2-0.3-0.7-0.3-0.8-0.3s-0.1,0.3-0.1,0.4
  s-0.1,0.1-0.2,0.1c-0.1,0.1-0.2,0.3-0.3,0.4l0,0c-0.1-0.1-0.1-0.2-0.1-0.3l0,0c0,0,0-0.1,0-0.1l0,0l0,0c0.1,0,0.2,0,0.2,0l0.1-0.2
  c0.1-0.2,0.1-0.3,0.2-0.5c-0.1,0-0.1-0.1-0.1-0.1c0,0,0-0.1-0.1,0c0,0-0.1,0.1-0.1,0.1c0,0.1,0,0.1-0.1,0.2c0,0-0.1,0.1-0.2,0.1
  c0-0.1,0-0.1-0.1-0.1c0,0,0,0,0,0l0,0c-0.1,0-0.1,0-0.2,0.1h-0.4c-0.1,0-0.3,0-0.4,0c-0.1-0.1,0-0.1,0.2-0.2c0-0.2,0.1-0.4,0.2-0.5
  c0.1,0,0.2,0.1,0.2,0.1l0.1-0.1l0,0c0.1,0,0.1,0.1,0.1,0.2s0,0.2,0.1,0.2c0.1,0,0.1,0,0.2-0.1v-0.2c0-0.2,0.1-0.3,0.1-0.4v-0.1
  c0-0.1,0.1-0.1,0.1-0.2l0,0c0.1,0,0.1-0.1,0.2-0.1c0-0.1,0.1-0.2,0.1-0.2l0.4-0.2c0.2-0.1,0.3-0.2,0.3-0.2l0,0h0.3
  C16.8,11.5,16.9,11.6,17,11.6C17,11.6,17,11.6,17,11.6z M16.7,1.7v1.8c-2.3,0.1-4.6,1-6.3,2.6L9.1,4.8C11.2,2.9,13.9,1.7,16.7,1.7z
   M8.7,5.3L10,6.6c-1.6,1.7-2.5,4-2.6,6.3H5.5C5.6,10,6.7,7.3,8.7,5.3L8.7,5.3z"/>
<path id="Path_468" class="st2" d="M46.6,31V1"/>
</svg>
