<?xml version="1.0" encoding="utf-8"?>
<!-- Generator: Adobe Illustrator 26.0.1, SVG Export Plug-In . SVG Version: 6.00 Build 0)  -->
<svg version="1.1" id="Layer_1" xmlns="http://www.w3.org/2000/svg" xmlns:xlink="http://www.w3.org/1999/xlink" x="0px" y="0px"
	 viewBox="0 0 240 28" style="enable-background:new 0 0 240 28;" xml:space="preserve">
<style type="text/css">
	.st0{enable-background:new    ;}
	.st1{fill:#1B344A;}
	.st2{fill:#5090CD;}
	.st3{fill:none;stroke:#B7B6B6;stroke-width:0.3163;}
</style>
<g class="st0">
	<path class="st1" d="M9.6,10.5c-0.4,0-0.7,0-0.9-0.2C8.5,10.2,8.2,10,8,9.7C7.9,9.7,7.7,9.4,7.5,9.1C7.1,8.6,6.9,8.3,6.7,8.2
		C6.5,8,6.4,8,6.2,8C6.1,8,6,8,5.8,8.1C5.7,8.2,5.5,8.4,5.4,8.5C5.3,8.7,5.2,8.8,5.2,8.9c0,0.1,0.1,0.3,0.2,0.4
		C5.5,9.3,5.7,9.4,6,9.5c0.4,0.1,0.7,0.3,0.9,0.4c0.2,0.1,0.4,0.3,0.5,0.5c0.1,0.2,0.2,0.4,0.2,0.6c0,0.6-0.2,1-0.7,1.3
		s-1.2,0.5-2.1,0.5H2.3c-0.4,0-0.7-0.1-1-0.3s-0.5-0.5-0.7-0.8S0.3,11,0.3,10.6c0-0.6,0.1-1.3,0.3-1.9H2C1.9,8.9,1.8,9.2,1.8,9.4
		c0,0.2,0,0.6,0,0.9c0,0.2,0.1,0.4,0.2,0.6c0.1,0.2,0.3,0.4,0.4,0.5c0.2,0.1,0.4,0.2,0.6,0.2h1.7c0.5,0,0.9,0,1.1-0.1
		C5.9,11.4,6,11.3,6,11.1C6,11,6,10.9,5.9,10.8s-0.3-0.2-0.5-0.2c-0.6-0.1-0.9-0.3-1.2-0.6C4,9.8,3.9,9.5,3.9,9.1
		C3.9,8.7,4,8.4,4.3,8c0.2-0.4,0.6-0.7,1-1C5.6,6.8,6,6.6,6.4,6.6c0.2,0,0.4,0,0.6,0.1C7.1,6.8,7.3,7,7.5,7.1
		c0.2,0.2,0.4,0.5,0.8,1.1c0.3,0.4,0.5,0.7,0.7,0.8c0.2,0.1,0.4,0.2,0.6,0.2h0c0,0,0.1,0,0.1,0v1.1C9.8,10.4,9.8,10.4,9.6,10.5
		L9.6,10.5L9.6,10.5z M3.1,15.3c-0.2,0-0.4-0.1-0.5-0.2c-0.1-0.1-0.2-0.3-0.2-0.5c0-0.2,0.1-0.4,0.2-0.5s0.3-0.2,0.5-0.2
		c0.2,0,0.4,0.1,0.5,0.2c0.1,0.1,0.2,0.3,0.2,0.5c0,0.2-0.1,0.4-0.2,0.5C3.4,15.2,3.3,15.3,3.1,15.3z M4.8,15.3
		c-0.2,0-0.4-0.1-0.5-0.2c-0.1-0.1-0.2-0.3-0.2-0.5c0-0.2,0.1-0.4,0.2-0.5s0.3-0.2,0.5-0.2s0.4,0.1,0.5,0.2c0.1,0.1,0.2,0.3,0.2,0.5
		c0,0.2-0.1,0.4-0.2,0.5C5.1,15.2,5,15.3,4.8,15.3z"/>
	<path class="st1" d="M11.4,9.3C11.4,9.3,11.4,9.3,11.4,9.3l0.1,1.1c0,0,0,0-0.1,0H9.6c0,0,0,0,0,0V9.3c0,0,0,0,0,0
		C9.6,9.3,11.4,9.3,11.4,9.3z"/>
	<path class="st1" d="M11.3,10.5C11.3,10.5,11.2,10.4,11.3,10.5l0-1.2c0,0,0,0,0,0h1.2V5.5H14v4.9H11.3z M13.3,4.7
		c-0.2,0-0.4-0.1-0.5-0.2c-0.1-0.1-0.2-0.3-0.2-0.5c0-0.2,0.1-0.4,0.2-0.5s0.3-0.2,0.5-0.2c0.2,0,0.4,0.1,0.5,0.2
		c0.1,0.1,0.2,0.3,0.2,0.5c0,0.2-0.1,0.4-0.2,0.5C13.6,4.6,13.4,4.7,13.3,4.7z"/>
	<path class="st1" d="M18.6,9.3C18.6,9.3,18.6,9.3,18.6,9.3l0,1.1c0,0,0,0,0,0h-2.7V2.9h1.5v6.3H18.6z"/>
	<path class="st1" d="M20.3,9.3C20.3,9.3,20.3,9.3,20.3,9.3l0.1,1.1c0,0,0,0-0.1,0h-1.8c0,0,0,0,0,0V9.3c0,0,0,0,0,0
		C18.5,9.3,20.3,9.3,20.3,9.3z"/>
	<path class="st1" d="M21.9,9.3C22,9.3,22,9.3,21.9,9.3l0.1,1.1c0,0,0,0-0.1,0h-1.8c0,0,0,0,0,0V9.3c0,0,0,0,0,0
		C20.2,9.3,21.9,9.3,21.9,9.3z"/>
	<path class="st1" d="M23.6,9.3C23.7,9.3,23.7,9.3,23.6,9.3l0.1,1.1c0,0,0,0-0.1,0h-1.8c0,0,0,0,0,0V9.3c0,0,0,0,0,0
		C21.8,9.3,23.6,9.3,23.6,9.3z"/>
	<path class="st1" d="M34,9.3C34,9.3,34,9.3,34,9.3l0.1,1.1c0,0,0,0-0.1,0h-3.3c-0.6,0-1.1-0.2-1.6-0.7c-0.4,0.5-0.9,0.7-1.7,0.7
		h-3.9c0,0,0,0,0,0V9.3c0,0,0,0,0,0h1.2V6.3h1.5v2.9h0.8c0.3,0,0.6-0.1,0.7-0.3c0.2-0.2,0.2-0.5,0.2-0.9V6.3h1.5v1.9
		c0,0.2,0,0.3,0,0.4c0.2,0.2,0.3,0.4,0.5,0.5c0.2,0.1,0.4,0.1,0.6,0.1h0.6V5.5h1.5v3.7H34z"/>
	<path class="st1" d="M35.7,9.3C35.7,9.3,35.7,9.3,35.7,9.3l0.1,1.1c0,0,0,0-0.1,0h-1.8c0,0,0,0,0,0V9.3c0,0,0,0,0,0
		C33.9,9.3,35.7,9.3,35.7,9.3z"/>
	<path class="st1" d="M37.4,9.3C37.4,9.3,37.4,9.3,37.4,9.3l0.1,1.1c0,0,0,0-0.1,0h-1.8c0,0,0,0,0,0V9.3c0,0,0,0,0,0
		C35.6,9.3,37.4,9.3,37.4,9.3z"/>
	<path class="st1" d="M41.3,9.3C41.3,9.3,41.3,9.3,41.3,9.3l0,1.1c0,0,0,0,0,0h-4c0,0,0,0,0,0V9.3c0,0,0,0,0,0h1.2V5.5H40v3.7H41.3z
		 M39.2,4.7c-0.2,0-0.4-0.1-0.5-0.2c-0.1-0.1-0.2-0.3-0.2-0.5c0-0.2,0.1-0.4,0.2-0.5c0.1-0.1,0.3-0.2,0.5-0.2c0.2,0,0.4,0.1,0.5,0.2
		c0.1,0.1,0.2,0.3,0.2,0.5c0,0.2-0.1,0.4-0.2,0.5C39.6,4.6,39.4,4.7,39.2,4.7z"/>
	<path class="st1" d="M41.2,10.5C41.2,10.5,41.1,10.4,41.2,10.5l0-1.2c0,0,0,0,0,0h1.2V2.9h1.5v7.5H41.2z"/>
	<path class="st1" d="M45.6,12.9l0.6-0.1c-0.1-0.1-0.2-0.2-0.3-0.3c-0.1-0.1-0.1-0.2-0.1-0.4c0-0.3,0.1-0.5,0.3-0.7s0.5-0.2,0.8-0.2
		c0.3,0,0.6,0.1,0.8,0.2l-0.2,0.5c-0.2-0.1-0.4-0.1-0.5-0.1c-0.1,0-0.3,0-0.3,0.1s-0.1,0.2-0.1,0.4c0,0.2,0.1,0.3,0.3,0.4l0.2,0
		c0.3,0,0.6-0.1,0.8-0.1v0.6c-0.2,0-0.6,0.1-1.2,0.1c-0.5,0.1-0.8,0.1-0.9,0.1L45.6,12.9L45.6,12.9z M45.9,2.9h1.5v7.5h-1.5V2.9z"/>
	<path class="st1" d="M49.4,2.9h1.5v7.5h-1.5V2.9z"/>
	<path class="st1" d="M58.5,12.8c-0.6,0-1-0.1-1.4-0.4c-0.4-0.2-0.7-0.6-0.9-1c-0.2-0.4-0.3-0.9-0.3-1.4c0-0.4,0-0.8,0.1-1.1
		s0.2-0.7,0.4-1h1.3c-0.1,0.4-0.2,0.7-0.2,1.1c-0.1,0.4-0.1,0.8-0.1,1.1c0,0.5,0.1,0.9,0.4,1.2c0.2,0.3,0.6,0.4,1,0.4h0.3
		c0.5,0,0.9-0.1,1.1-0.4c0.2-0.3,0.4-0.7,0.4-1.2V2.9h1.5v6.3h1.3c0,0,0,0,0,0v1.1c0,0,0,0,0,0h-1.3c-0.1,1.6-1.1,2.4-2.9,2.4
		L58.5,12.8L58.5,12.8z"/>
	<path class="st1" d="M64.9,9.3C64.9,9.3,64.9,9.3,64.9,9.3l0.1,1.1c0,0,0,0-0.1,0h-1.8c0,0,0,0,0,0V9.3c0,0,0,0,0,0
		C63.1,9.3,64.9,9.3,64.9,9.3z"/>
	<path class="st1" d="M66.6,9.3C66.6,9.3,66.6,9.3,66.6,9.3l0.1,1.1c0,0,0,0-0.1,0h-1.8c0,0,0,0,0,0V9.3c0,0,0,0,0,0
		C64.8,9.3,66.6,9.3,66.6,9.3z"/>
	<path class="st1" d="M68.3,9.3C68.3,9.3,68.3,9.3,68.3,9.3l0.1,1.1c0,0,0,0-0.1,0h-1.8c0,0,0,0,0,0V9.3c0,0,0,0,0,0
		C66.5,9.3,68.3,9.3,68.3,9.3z"/>
	<path class="st1" d="M70,9.3C70,9.3,70,9.3,70,9.3l0.1,1.1c0,0,0,0-0.1,0h-1.8c0,0,0,0,0,0V9.3c0,0,0,0,0,0C68.2,9.3,70,9.3,70,9.3
		z"/>
	<path class="st1" d="M71,9.3c-0.2-0.4-0.3-0.9-0.3-1.4c0-0.3,0-0.6,0.1-0.9c0.1-0.3,0.2-0.6,0.4-0.9c0.3-0.2,0.7-0.3,1-0.4
		c0.4-0.1,0.7-0.1,0.9-0.1c0.4,0,0.9,0.1,1.2,0.3c0.4,0.2,0.7,0.5,0.9,0.8c0.2,0.4,0.3,0.8,0.3,1.2c0,0.4-0.1,0.7-0.2,1
		c0.1,0.1,0.3,0.2,0.4,0.3c0.2,0.1,0.3,0.1,0.6,0.1h0.1c0,0,0,0,0,0v1.1c0,0,0,0,0,0h-0.1c-0.4,0-0.6,0-0.9-0.1S75,10,74.7,9.8
		c-0.2,0.2-0.5,0.4-0.9,0.5c-0.3,0.1-0.7,0.2-1,0.2h-3c0,0,0,0,0,0V9.3c0,0,0,0,0,0C69.9,9.3,71,9.3,71,9.3z M72.1,8.1
		c0,0.3,0.1,0.7,0.2,1.2h0.4c0.4,0,0.7-0.1,1-0.4c0.3-0.3,0.4-0.6,0.4-1c0-0.4-0.1-0.6-0.3-0.8c-0.2-0.2-0.4-0.3-0.7-0.3
		c-0.3,0-0.6,0.1-0.9,0.3C72.1,7.4,72.1,7.7,72.1,8.1z"/>
	<path class="st1" d="M82.4,9.3C82.4,9.3,82.5,9.3,82.4,9.3l0,1.1c0,0,0,0,0,0h-1.3c-0.3,0-0.6-0.1-1-0.2c-0.3-0.1-0.6-0.2-0.9-0.4
		c-0.6,0.4-1.2,0.6-1.8,0.6h-1.1c0,0,0,0,0,0V9.3c0,0,0,0,0,0h1c0.2,0,0.3,0,0.5-0.1c0.2,0,0.3-0.1,0.4-0.1
		c-0.2-0.2-0.4-0.4-0.6-0.7c-0.2-0.3-0.4-0.7-0.6-1.1c-0.2-0.4-0.3-0.8-0.3-1.1c0.4-0.3,0.8-0.6,1.3-0.8c0.5-0.2,1-0.3,1.4-0.3
		c0.9,0,1.8,0.2,2.5,0.6c0,0.7-0.1,1.4-0.4,2c-0.3,0.6-0.7,1.1-1.2,1.4c0.2,0.1,0.5,0.2,0.9,0.2L82.4,9.3L82.4,9.3z M79.3,8.5
		c0.8-0.5,1.2-1.1,1.2-2c-0.3-0.1-0.7-0.2-1.1-0.2c-0.2,0-0.4,0-0.7,0.1c-0.2,0.1-0.4,0.2-0.6,0.3c0.1,0.4,0.2,0.7,0.4,1
		C78.9,8,79.1,8.3,79.3,8.5z"/>
	<path class="st1" d="M82.3,10.5C82.3,10.5,82.3,10.4,82.3,10.5l0-1.2c0,0,0,0,0,0h1.2V2.9H85v7.5H82.3z"/>
	<path class="st1" d="M87,2.9h1.5v7.5H87V2.9z"/>
	<path class="st1" d="M100.8,9.3C100.9,9.3,100.9,9.3,100.8,9.3l0,1.1c0,0,0,0,0,0h-1.3c-0.1,1.6-1.1,2.4-2.9,2.4h-0.4
		c-0.6,0-1-0.1-1.4-0.4c-0.4-0.2-0.7-0.6-0.9-1c-0.2-0.4-0.3-0.9-0.3-1.4c0-0.4,0-0.8,0.1-1.1c0.1-0.4,0.2-0.7,0.4-1h1.3
		c-0.1,0.4-0.2,0.7-0.2,1.1C95,9.4,95,9.7,95,10.1c0,0.5,0.1,0.9,0.4,1.2c0.2,0.3,0.6,0.4,1,0.4h0.3c0.5,0,0.9-0.1,1.1-0.4
		c0.2-0.3,0.4-0.7,0.4-1.2V5.5h1.5v3.7H100.8z M96.5,5.5c-0.2,0-0.4-0.1-0.5-0.2c-0.1-0.1-0.2-0.3-0.2-0.5c0-0.2,0.1-0.4,0.2-0.5
		c0.1-0.1,0.3-0.2,0.5-0.2c0.2,0,0.4,0.1,0.5,0.2c0.1,0.1,0.2,0.3,0.2,0.5c0,0.2-0.1,0.4-0.2,0.5C96.9,5.5,96.7,5.5,96.5,5.5z"/>
	<path class="st1" d="M102.5,9.3C102.6,9.3,102.6,9.3,102.5,9.3l0.1,1.1c0,0,0,0-0.1,0h-1.8c0,0,0,0,0,0V9.3c0,0,0,0,0,0
		C100.7,9.3,102.5,9.3,102.5,9.3z"/>
	<path class="st1" d="M104.2,9.3C104.3,9.3,104.3,9.3,104.2,9.3l0.1,1.1c0,0,0,0-0.1,0h-1.8c0,0,0,0,0,0V9.3c0,0,0,0,0,0
		C102.4,9.3,104.2,9.3,104.2,9.3z"/>
	<path class="st1" d="M105.9,9.3C106,9.3,106,9.3,105.9,9.3l0.1,1.1c0,0,0,0-0.1,0h-1.8c0,0,0,0,0,0V9.3c0,0,0,0,0,0
		C104.1,9.3,105.9,9.3,105.9,9.3z"/>
	<path class="st1" d="M105.8,10.5C105.8,10.5,105.8,10.4,105.8,10.5l0-1.2c0,0,0,0,0,0h1.5c-0.2-0.1-0.4-0.3-0.6-0.6
		c-0.1-0.3-0.2-0.6-0.2-0.9c0-0.7,0.2-1.3,0.7-1.8s1.2-0.6,2-0.6c0.3,0,0.6,0,0.9,0.1c0.3,0.1,0.6,0.1,0.8,0.2l-0.4,1.2
		c-0.3-0.1-0.5-0.2-0.7-0.2c-0.2,0-0.4-0.1-0.6-0.1c-0.4,0-0.7,0.1-0.9,0.3S108,7.5,108,7.9c0,0.4,0.1,0.7,0.3,1s0.5,0.4,0.9,0.4
		h1.8v1.2L105.8,10.5L105.8,10.5z"/>
	<path class="st1" d="M121.4,9.3C121.4,9.3,121.5,9.3,121.4,9.3l0,1.1c0,0,0,0,0,0h-3c-0.9,0-1.6-0.2-2.1-0.6
		c-0.5-0.4-0.8-1-0.8-1.8c0-0.5,0.1-0.9,0.4-1.3c0.2-0.4,0.6-0.7,1-0.9c0.4-0.2,1-0.3,1.5-0.3h0.3V5.1h1.5v4.2H121.4z M118.7,9.3
		V6.7h-0.3c-0.4,0-0.8,0.1-1,0.3c-0.2,0.2-0.4,0.5-0.4,1c0,0.4,0.1,0.7,0.4,0.9c0.2,0.2,0.6,0.3,1,0.3L118.7,9.3L118.7,9.3z
		 M117.8,4.4c-0.2,0-0.4-0.1-0.5-0.2c-0.1-0.1-0.2-0.3-0.2-0.5c0-0.2,0.1-0.4,0.2-0.5c0.1-0.1,0.3-0.2,0.5-0.2
		c0.2,0,0.4,0.1,0.5,0.2c0.1,0.1,0.2,0.3,0.2,0.5s-0.1,0.4-0.2,0.5C118.1,4.4,118,4.4,117.8,4.4z M119.5,4.4c-0.2,0-0.4-0.1-0.5-0.2
		c-0.1-0.1-0.2-0.3-0.2-0.5c0-0.2,0.1-0.4,0.2-0.5c0.1-0.1,0.3-0.2,0.5-0.2c0.2,0,0.4,0.1,0.5,0.2c0.1,0.1,0.2,0.3,0.2,0.5
		c0,0.2-0.1,0.4-0.2,0.5C119.8,4.4,119.7,4.4,119.5,4.4z"/>
	<path class="st1" d="M123.1,9.3C123.1,9.3,123.2,9.3,123.1,9.3l0.1,1.1c0,0,0,0-0.1,0h-1.8c0,0,0,0,0,0V9.3c0,0,0,0,0,0
		C121.3,9.3,123.1,9.3,123.1,9.3z"/>
	<path class="st1" d="M124.8,9.3C124.8,9.3,124.8,9.3,124.8,9.3l0.1,1.1c0,0,0,0-0.1,0H123c0,0,0,0,0,0V9.3c0,0,0,0,0,0
		C123,9.3,124.8,9.3,124.8,9.3z"/>
	<path class="st1" d="M126.5,9.3C126.5,9.3,126.5,9.3,126.5,9.3l0.1,1.1c0,0,0,0-0.1,0h-1.8c0,0,0,0,0,0V9.3c0,0,0,0,0,0
		C124.7,9.3,126.5,9.3,126.5,9.3z"/>
	<path class="st1" d="M127.5,9.3c-0.2-0.4-0.3-0.9-0.3-1.4c0-0.3,0-0.6,0.1-0.9c0.1-0.3,0.2-0.6,0.4-0.9c0.3-0.2,0.7-0.3,1-0.4
		c0.4-0.1,0.7-0.1,0.9-0.1c0.4,0,0.9,0.1,1.2,0.3c0.4,0.2,0.7,0.5,0.9,0.8c0.2,0.4,0.3,0.8,0.3,1.2c0,0.5-0.1,1-0.4,1.3
		c-0.2,0.4-0.6,0.7-1,0.9c-0.4,0.2-0.9,0.3-1.4,0.3h-3c0,0,0,0,0,0V9.3c0,0,0,0,0,0C126.4,9.3,127.5,9.3,127.5,9.3z M128.6,8.1
		c0,0.3,0.1,0.7,0.2,1.2h0.4c0.4,0,0.7-0.1,1-0.4c0.3-0.3,0.4-0.6,0.4-1c0-0.4-0.1-0.6-0.3-0.8c-0.2-0.2-0.4-0.3-0.7-0.3
		c-0.3,0-0.6,0.1-0.9,0.3C128.7,7.4,128.6,7.7,128.6,8.1z"/>
	<path class="st1" d="M136.4,9.3C136.4,9.3,136.4,9.3,136.4,9.3l0,1.1c0,0,0,0,0,0h-2.7V2.9h1.5v6.3H136.4z"/>
	<path class="st1" d="M138.1,9.3C138.1,9.3,138.1,9.3,138.1,9.3l0.1,1.1c0,0,0,0-0.1,0h-1.8c0,0,0,0,0,0V9.3c0,0,0,0,0,0
		C136.3,9.3,138.1,9.3,138.1,9.3z"/>
	<path class="st1" d="M139.7,9.3C139.8,9.3,139.8,9.3,139.7,9.3l0.1,1.1c0,0,0,0-0.1,0H138c0,0,0,0,0,0V9.3c0,0,0,0,0,0
		C138,9.3,139.7,9.3,139.7,9.3z"/>
	<path class="st1" d="M145.7,9.3C145.8,9.3,145.8,9.3,145.7,9.3l0,1.1c0,0,0,0,0,0h-1.3c-0.3,0-0.6-0.1-1-0.2
		c-0.3-0.1-0.6-0.2-0.9-0.4c-0.6,0.4-1.2,0.6-1.8,0.6h-1.2c0,0,0,0,0,0V9.3c0,0,0,0,0,0h1c0.2,0,0.3,0,0.5-0.1
		c0.2,0,0.3-0.1,0.4-0.1c-0.2-0.2-0.4-0.4-0.6-0.7c-0.2-0.3-0.4-0.7-0.6-1.1c-0.2-0.4-0.3-0.8-0.3-1.1c0.4-0.3,0.8-0.6,1.3-0.8
		c0.5-0.2,1-0.3,1.4-0.3c0.9,0,1.8,0.2,2.5,0.6c0,0.7-0.1,1.4-0.4,2c-0.3,0.6-0.7,1.1-1.2,1.4c0.2,0.1,0.5,0.2,0.9,0.2L145.7,9.3
		L145.7,9.3z M142.7,8.5c0.8-0.5,1.2-1.1,1.2-2c-0.3-0.1-0.7-0.2-1.1-0.2c-0.2,0-0.4,0-0.7,0.1c-0.2,0.1-0.4,0.2-0.6,0.3
		c0.1,0.4,0.2,0.7,0.4,1C142.2,8,142.4,8.3,142.7,8.5z"/>
	<path class="st1" d="M145.6,10.5C145.6,10.5,145.6,10.4,145.6,10.5l0-1.2c0,0,0,0,0,0h1.2V2.9h1.5v7.5H145.6z"/>
	<path class="st1" d="M150.3,2.9h1.5v7.5h-1.5V2.9z"/>
	<path class="st1" d="M162.7,9.3C162.8,9.3,162.8,9.3,162.7,9.3l0,1.1c0,0,0,0,0,0h-3c-0.9,0-1.6-0.2-2.1-0.6
		c-0.5-0.4-0.8-1-0.8-1.8c0-0.5,0.1-0.9,0.4-1.3s0.6-0.7,1-0.9c0.4-0.2,1-0.3,1.5-0.3h0.3V5.1h1.5v4.2H162.7z M160,9.3V6.7h-0.3
		c-0.4,0-0.8,0.1-1,0.3c-0.2,0.2-0.4,0.5-0.4,1c0,0.4,0.1,0.7,0.4,0.9c0.2,0.2,0.6,0.3,1,0.3L160,9.3L160,9.3z M159.1,4.4
		c-0.2,0-0.4-0.1-0.5-0.2c-0.1-0.1-0.2-0.3-0.2-0.5c0-0.2,0.1-0.4,0.2-0.5s0.3-0.2,0.5-0.2c0.2,0,0.4,0.1,0.5,0.2
		c0.1,0.1,0.2,0.3,0.2,0.5s-0.1,0.4-0.2,0.5C159.4,4.4,159.3,4.4,159.1,4.4z M160.8,4.4c-0.2,0-0.4-0.1-0.5-0.2
		c-0.1-0.1-0.2-0.3-0.2-0.5c0-0.2,0.1-0.4,0.2-0.5c0.1-0.1,0.3-0.2,0.5-0.2c0.2,0,0.4,0.1,0.5,0.2c0.1,0.1,0.2,0.3,0.2,0.5
		c0,0.2-0.1,0.4-0.2,0.5C161.1,4.4,161,4.4,160.8,4.4z"/>
	<path class="st1" d="M164.4,9.3C164.5,9.3,164.5,9.3,164.4,9.3l0.1,1.1c0,0,0,0-0.1,0h-1.8c0,0,0,0,0,0V9.3c0,0,0,0,0,0
		C162.6,9.3,164.4,9.3,164.4,9.3z"/>
	<path class="st1" d="M166.1,9.3C166.2,9.3,166.2,9.3,166.1,9.3l0.1,1.1c0,0,0,0-0.1,0h-1.8c0,0,0,0,0,0V9.3c0,0,0,0,0,0
		C164.3,9.3,166.1,9.3,166.1,9.3z"/>
	<path class="st1" d="M167.8,9.3C167.8,9.3,167.9,9.3,167.8,9.3l0.1,1.1c0,0,0,0-0.1,0H166c0,0,0,0,0,0V9.3c0,0,0,0,0,0
		C166,9.3,167.8,9.3,167.8,9.3z"/>
	<path class="st1" d="M169.5,9.3C169.5,9.3,169.6,9.3,169.5,9.3l0.1,1.1c0,0,0,0-0.1,0h-1.8c0,0,0,0,0,0V9.3c0,0,0,0,0,0
		C167.7,9.3,169.5,9.3,169.5,9.3z"/>
	<path class="st1" d="M171.2,9.3C171.2,9.3,171.3,9.3,171.2,9.3l0.1,1.1c0,0,0,0-0.1,0h-1.8c0,0,0,0,0,0V9.3c0,0,0,0,0,0
		C169.4,9.3,171.2,9.3,171.2,9.3z"/>
	<path class="st1" d="M171.1,10.5C171.1,10.5,171.1,10.4,171.1,10.5l0-1.2c0,0,0,0,0,0h4c-0.3-0.2-0.5-0.7-0.6-1.4
		c-0.1-0.4-0.2-0.8-0.4-0.9c-0.2-0.2-0.4-0.3-0.8-0.3c-0.2,0-0.4,0-0.7,0.1c-0.2,0.1-0.4,0.2-0.7,0.3l-0.4-1.1
		c0.6-0.3,1.3-0.5,2.1-0.5c0.7,0,1.2,0.2,1.5,0.4c0.4,0.3,0.6,0.8,0.7,1.5c0.2,1,0.4,1.6,0.7,1.9h0.6c0,0,0.1,0,0.1,0v1.1
		c0,0,0,0-0.1,0L171.1,10.5L171.1,10.5z"/>
	<path class="st1" d="M178.9,9.3C179,9.3,179,9.3,178.9,9.3l0.1,1.1c0,0,0,0-0.1,0h-1.8c0,0,0,0,0,0V9.3c0,0,0,0,0,0
		C177.1,9.3,178.9,9.3,178.9,9.3z"/>
	<path class="st1" d="M180.6,9.3C180.6,9.3,180.7,9.3,180.6,9.3l0.1,1.1c0,0,0,0-0.1,0h-1.8c0,0,0,0,0,0V9.3c0,0,0,0,0,0
		C178.8,9.3,180.6,9.3,180.6,9.3z"/>
	<path class="st1" d="M181.6,9.3c-0.2-0.4-0.3-0.9-0.3-1.4c0-0.3,0-0.6,0.1-0.9c0.1-0.3,0.2-0.6,0.4-0.9c0.3-0.2,0.7-0.3,1-0.4
		c0.4-0.1,0.7-0.1,0.9-0.1c0.4,0,0.9,0.1,1.2,0.3c0.4,0.2,0.7,0.5,0.9,0.8c0.2,0.4,0.3,0.8,0.3,1.2c0,0.4-0.1,0.7-0.2,1
		c0.1,0.1,0.3,0.2,0.4,0.3c0.2,0.1,0.3,0.1,0.6,0.1h0.1c0,0,0,0,0,0v1.1c0,0,0,0,0,0H187c-0.4,0-0.6,0-0.9-0.1
		c-0.3-0.1-0.5-0.3-0.7-0.5c-0.2,0.2-0.5,0.4-0.9,0.5c-0.3,0.1-0.7,0.2-1,0.2h-3c0,0,0,0,0,0V9.3c0,0,0,0,0,0
		C180.5,9.3,181.6,9.3,181.6,9.3z M182.7,8.1c0,0.3,0.1,0.7,0.2,1.2h0.4c0.4,0,0.7-0.1,1-0.4c0.3-0.3,0.4-0.6,0.4-1
		c0-0.4-0.1-0.6-0.3-0.8c-0.2-0.2-0.4-0.3-0.7-0.3c-0.3,0-0.6,0.1-0.9,0.3C182.8,7.4,182.7,7.7,182.7,8.1z"/>
	<path class="st1" d="M188.8,9.3C188.8,9.3,188.8,9.3,188.8,9.3l0.1,1.1c0,0,0,0-0.1,0H187c0,0,0,0,0,0V9.3c0,0,0,0,0,0
		C187,9.3,188.8,9.3,188.8,9.3z"/>
	<path class="st1" d="M188.7,10.5C188.7,10.5,188.6,10.4,188.7,10.5l0-1.2c0,0,0,0,0,0h1.2V2.9h1.5v6.3h1.3c0,0,0,0,0,0v1.1
		c0,0,0,0,0,0C192.7,10.5,188.7,10.5,188.7,10.5z"/>
	<path class="st1" d="M192.6,10.5C192.6,10.5,192.5,10.4,192.6,10.5l0-1.2c0,0,0,0,0,0h1.2V2.9h1.5v7.5H192.6z"/>
	<path class="st1" d="M197.3,2.9h1.5v7.5h-1.5V2.9z"/>
</g>
<path class="st2" d="M84.4,23.2v-0.8l2.7-3c0.5-0.5,0.8-1,1-1.3c0.2-0.3,0.3-0.6,0.3-1c0-0.4-0.1-0.8-0.4-1c-0.2-0.3-0.6-0.4-1-0.4
	c-0.6,0-1,0.1-1.2,0.4c-0.3,0.3-0.4,0.7-0.4,1.2h-1.1l0,0c0-0.7,0.2-1.3,0.7-1.8c0.5-0.5,1.2-0.7,2-0.7c0.7,0,1.3,0.2,1.8,0.6
	c0.4,0.4,0.7,1,0.7,1.6c0,0.4-0.1,0.9-0.4,1.3c-0.3,0.4-0.6,0.9-1.1,1.4l-2.2,2.3l0,0h2.9l0.1-0.9h0.9v1.8L84.4,23.2L84.4,23.2z"/>
<path class="st2" d="M96.1,20c0,1-0.2,1.8-0.7,2.4c-0.5,0.6-1.1,0.8-1.9,0.8s-1.4-0.3-1.9-0.8c-0.5-0.6-0.7-1.4-0.7-2.4v-1.9
	c0-1,0.2-1.8,0.7-2.4c0.5-0.6,1.1-0.8,1.9-0.8c0.8,0,1.4,0.3,1.9,0.8c0.5,0.6,0.7,1.4,0.7,2.4L96.1,20L96.1,20z M95,17.9
	c0-0.7-0.1-1.2-0.4-1.6c-0.3-0.4-0.6-0.5-1.1-0.5c-0.5,0-0.9,0.2-1.1,0.5c-0.3,0.4-0.4,0.9-0.4,1.6v2.4c0,0.7,0.1,1.2,0.4,1.6
	c0.3,0.4,0.6,0.5,1.1,0.5c0.5,0,0.9-0.2,1.1-0.5c0.3-0.4,0.4-0.9,0.4-1.6C95,20.3,95,17.9,95,17.9z"/>
<path class="st2" d="M97.4,23.2v-0.8l2.7-3c0.5-0.5,0.8-1,1-1.3c0.2-0.3,0.3-0.6,0.3-1c0-0.4-0.1-0.8-0.4-1c-0.2-0.3-0.6-0.4-1-0.4
	c-0.6,0-1,0.1-1.2,0.4c-0.3,0.3-0.4,0.7-0.4,1.2h-1.1l0,0c0-0.7,0.2-1.3,0.7-1.8c0.5-0.5,1.2-0.7,2-0.7c0.7,0,1.3,0.2,1.8,0.6
	c0.4,0.4,0.7,1,0.7,1.6c0,0.4-0.1,0.9-0.4,1.3c-0.3,0.4-0.6,0.9-1.1,1.4l-2.2,2.3l0,0h2.9l0.1-0.9h0.9v1.8L97.4,23.2L97.4,23.2z"/>
<path class="st2" d="M103.8,23.2v-0.8l2.7-3c0.5-0.5,0.8-1,1-1.3c0.2-0.3,0.3-0.6,0.3-1c0-0.4-0.1-0.8-0.4-1s-0.6-0.4-1-0.4
	c-0.6,0-1,0.1-1.2,0.4c-0.3,0.3-0.4,0.7-0.4,1.2h-1.1l0,0c0-0.7,0.2-1.3,0.7-1.8c0.5-0.5,1.2-0.7,2-0.7c0.7,0,1.3,0.2,1.8,0.6
	c0.4,0.4,0.7,1,0.7,1.6c0,0.4-0.1,0.9-0.4,1.3c-0.3,0.4-0.6,0.9-1.1,1.4l-2.2,2.3l0,0h2.9l0.1-0.9h0.9v1.8L103.8,23.2L103.8,23.2z"
	/>
<path class="st1" d="M120.3,23.2c-0.4,0-0.7,0-0.9-0.2c-0.2-0.1-0.5-0.3-0.8-0.6c-0.1-0.1-0.2-0.3-0.5-0.7c-0.3-0.4-0.6-0.7-0.7-0.9
	s-0.3-0.2-0.5-0.2c-0.1,0-0.2,0.1-0.4,0.2c-0.2,0.1-0.3,0.2-0.4,0.4c-0.1,0.1-0.2,0.3-0.2,0.4c0,0.1,0.1,0.3,0.2,0.4
	c0.1,0.1,0.3,0.2,0.5,0.3c0.4,0.1,0.7,0.3,0.9,0.4c0.2,0.1,0.4,0.3,0.5,0.5c0.1,0.2,0.2,0.4,0.2,0.6c0,0.6-0.2,1-0.7,1.3
	c-0.5,0.3-1.2,0.5-2.1,0.5H113c-0.4,0-0.7-0.1-1-0.3s-0.5-0.5-0.7-0.8s-0.3-0.7-0.3-1.2c0-0.6,0.1-1.3,0.3-1.9h1.3
	c-0.1,0.3-0.1,0.5-0.2,0.8c0,0.2,0,0.6,0,0.9c0,0.2,0.1,0.4,0.2,0.6c0.1,0.2,0.3,0.4,0.4,0.5s0.4,0.2,0.6,0.2h1.7
	c0.5,0,0.9,0,1.1-0.1c0.2-0.1,0.3-0.2,0.3-0.4c0-0.1-0.1-0.2-0.2-0.3c-0.1-0.1-0.3-0.2-0.5-0.2c-0.6-0.1-0.9-0.3-1.2-0.6
	c-0.2-0.2-0.3-0.6-0.3-1c0-0.3,0.1-0.7,0.4-1.1c0.2-0.4,0.6-0.7,1-1c0.4-0.3,0.8-0.4,1.1-0.4c0.2,0,0.4,0,0.6,0.1
	c0.2,0.1,0.4,0.2,0.5,0.4c0.2,0.2,0.4,0.5,0.8,1.1c0.3,0.4,0.5,0.7,0.7,0.8c0.2,0.1,0.4,0.2,0.6,0.2h0c0,0,0.1,0,0.1,0v1.1
	C120.4,23.1,120.4,23.2,120.3,23.2L120.3,23.2L120.3,23.2z M113.8,28c-0.2,0-0.4-0.1-0.5-0.2c-0.1-0.1-0.2-0.3-0.2-0.5
	c0-0.2,0.1-0.4,0.2-0.5c0.1-0.1,0.3-0.2,0.5-0.2c0.2,0,0.4,0.1,0.5,0.2c0.1,0.1,0.2,0.3,0.2,0.5c0,0.2-0.1,0.4-0.2,0.5
	C114.1,27.9,114,28,113.8,28z M115.5,28c-0.2,0-0.4-0.1-0.5-0.2c-0.1-0.1-0.2-0.3-0.2-0.5c0-0.2,0.1-0.4,0.2-0.5
	c0.1-0.1,0.3-0.2,0.5-0.2c0.2,0,0.4,0.1,0.5,0.2c0.1,0.1,0.2,0.3,0.2,0.5c0,0.2-0.1,0.4-0.2,0.5C115.8,27.9,115.7,28,115.5,28z"/>
<path class="st1" d="M122.1,22C122.1,22,122.1,22,122.1,22l0.1,1.1c0,0,0,0-0.1,0h-1.8c0,0,0,0,0,0V22c0,0,0,0,0,0H122.1z"/>
<path class="st1" d="M123.8,22C123.8,22,123.8,22,123.8,22l0.1,1.1c0,0,0,0-0.1,0H122c0,0,0,0,0,0V22c0,0,0,0,0,0H123.8z"/>
<path class="st1" d="M125.5,22C125.5,22,125.5,22,125.5,22l0.1,1.1c0,0,0,0-0.1,0h-1.8c0,0,0,0,0,0V22c0,0,0,0,0,0H125.5z"/>
<path class="st1" d="M127.2,22C127.2,22,127.2,22,127.2,22l0.1,1.1c0,0,0,0-0.1,0h-1.8c0,0,0,0,0,0V22c0,0,0,0,0,0H127.2z"/>
<path class="st1" d="M128.9,22C128.9,22,128.9,22,128.9,22l0.1,1.1c0,0,0,0-0.1,0h-1.8c0,0,0,0,0,0V22c0,0,0,0,0,0H128.9z"/>
<path class="st1" d="M130.5,22C130.6,22,130.6,22,130.5,22l0.1,1.1c0,0,0,0-0.1,0h-1.8c0,0,0,0,0,0V22c0,0,0,0,0,0H130.5z"/>
<path class="st1" d="M132.2,22C132.3,22,132.3,22,132.2,22l0.1,1.1c0,0,0,0-0.1,0h-1.8c0,0,0,0,0,0V22c0,0,0,0,0,0H132.2z"/>
<path class="st1" d="M133.9,22C134,22,134,22,133.9,22l0.1,1.1c0,0,0,0-0.1,0h-1.8c0,0,0,0,0,0V22c0,0,0,0,0,0H133.9z"/>
<path class="st1" d="M135.6,22C135.7,22,135.7,22,135.6,22l0.1,1.1c0,0,0,0-0.1,0h-1.8c0,0,0,0,0,0V22c0,0,0,0,0,0H135.6z"/>
<path class="st1" d="M137.3,22C137.4,22,137.4,22,137.3,22l0.1,1.1c0,0,0,0-0.1,0h-1.8c0,0,0,0,0,0V22c0,0,0,0,0,0H137.3z"/>
<path class="st1" d="M138.3,22c-0.2-0.4-0.3-0.9-0.3-1.4c0-0.3,0-0.6,0.1-0.9c0.1-0.3,0.2-0.6,0.4-0.9c0.3-0.2,0.7-0.3,1-0.4
	c0.4-0.1,0.7-0.1,0.9-0.1c0.4,0,0.9,0.1,1.2,0.3c0.4,0.2,0.7,0.5,0.9,0.8c0.2,0.4,0.3,0.8,0.3,1.2c0,0.4-0.1,0.7-0.2,1
	c0.1,0.1,0.3,0.2,0.4,0.3s0.3,0.1,0.6,0.1h0.1c0,0,0,0,0,0v1.1c0,0,0,0,0,0h-0.1c-0.4,0-0.6,0-0.9-0.1s-0.5-0.3-0.7-0.5
	c-0.2,0.2-0.5,0.4-0.9,0.5c-0.3,0.1-0.7,0.2-1,0.2h-3c0,0,0,0,0,0V22c0,0,0,0,0,0C137.2,22,138.3,22,138.3,22z M139.4,20.8
	c0,0.3,0.1,0.7,0.2,1.2h0.4c0.4,0,0.7-0.1,1-0.4c0.3-0.3,0.4-0.6,0.4-1c0-0.4-0.1-0.6-0.3-0.8c-0.2-0.2-0.4-0.3-0.7-0.3
	c-0.3,0-0.6,0.1-0.9,0.3C139.5,20.1,139.4,20.4,139.4,20.8z"/>
<path class="st1" d="M145.5,22C145.5,22,145.5,22,145.5,22l0.1,1.1c0,0,0,0-0.1,0h-1.8c0,0,0,0,0,0V22c0,0,0,0,0,0H145.5z"/>
<path class="st1" d="M147.2,22C147.2,22,147.2,22,147.2,22l0.1,1.1c0,0,0,0-0.1,0h-1.8c0,0,0,0,0,0V22c0,0,0,0,0,0H147.2z"/>
<path class="st1" d="M148.9,22C148.9,22,148.9,22,148.9,22l0.1,1.1c0,0,0,0-0.1,0h-1.8c0,0,0,0,0,0V22c0,0,0,0,0,0H148.9z"/>
<path class="st1" d="M150.6,22C150.6,22,150.6,22,150.6,22l0.1,1.1c0,0,0,0-0.1,0h-1.8c0,0,0,0,0,0V22c0,0,0,0,0,0H150.6z"/>
<path class="st1" d="M152.3,22C152.3,22,152.3,22,152.3,22l0.1,1.1c0,0,0,0-0.1,0h-1.8c0,0,0,0,0,0V22c0,0,0,0,0,0H152.3z"/>
<path class="st1" d="M152.2,23.2C152.1,23.2,152.1,23.2,152.2,23.2l0-1.2c0,0,0,0,0,0h1.2v-6.3h1.5v7.5
	C154.9,23.2,152.2,23.2,152.2,23.2z"/>
<path class="st1" d="M159.6,22C159.6,22,159.6,22,159.6,22l0,1.1c0,0,0,0,0,0h-2.7v-7.5h1.5V22C158.4,22,159.6,22,159.6,22z"/>
<path class="st1" d="M161.3,22C161.3,22,161.3,22,161.3,22l0.1,1.1c0,0,0,0-0.1,0h-1.8c0,0,0,0,0,0V22c0,0,0,0,0,0H161.3z"/>
<path class="st1" d="M163,22C163,22,163,22,163,22l0.1,1.1c0,0,0,0-0.1,0h-1.8c0,0,0,0,0,0V22c0,0,0,0,0,0H163z"/>
<path class="st1" d="M164.7,22C164.7,22,164.7,22,164.7,22l0.1,1.1c0,0,0,0-0.1,0h-1.8c0,0,0,0,0,0V22c0,0,0,0,0,0H164.7z"/>
<path class="st1" d="M166.4,22C166.4,22,166.4,22,166.4,22l0.1,1.1c0,0,0,0-0.1,0h-1.8c0,0,0,0,0,0V22c0,0,0,0,0,0H166.4z"/>
<path class="st1" d="M168.1,22C168.1,22,168.1,22,168.1,22l0.1,1.1c0,0,0,0-0.1,0h-1.8c0,0,0,0,0,0V22c0,0,0,0,0,0H168.1z"/>
<path class="st1" d="M169.8,22C169.8,22,169.8,22,169.8,22l0.1,1.1c0,0,0,0-0.1,0H168c0,0,0,0,0,0V22c0,0,0,0,0,0H169.8z"/>
<path class="st1" d="M171.5,22C171.5,22,171.5,22,171.5,22l0.1,1.1c0,0,0,0-0.1,0h-1.8c0,0,0,0,0,0V22c0,0,0,0,0,0H171.5z"/>
<path class="st1" d="M173.1,22C173.2,22,173.2,22,173.1,22l0.1,1.1c0,0,0,0-0.1,0h-1.8c0,0,0,0,0,0V22c0,0,0,0,0,0H173.1z"/>
<path class="st1" d="M174.8,22C174.9,22,174.9,22,174.8,22l0.1,1.1c0,0,0,0-0.1,0H173c0,0,0,0,0,0V22c0,0,0,0,0,0H174.8z"/>
<path class="st1" d="M176.5,22C176.6,22,176.6,22,176.5,22l0.1,1.1c0,0,0,0-0.1,0h-1.8c0,0,0,0,0,0V22c0,0,0,0,0,0H176.5z"/>
<path class="st1" d="M178.2,22C178.3,22,178.3,22,178.2,22l0.1,1.1c0,0,0,0-0.1,0h-1.8c0,0,0,0,0,0V22c0,0,0,0,0,0H178.2z"/>
<path class="st1" d="M179.9,22C180,22,180,22,179.9,22l0.1,1.1c0,0,0,0-0.1,0h-1.8c0,0,0,0,0,0V22c0,0,0,0,0,0H179.9z"/>
<path class="st1" d="M181.6,22C181.6,22,181.7,22,181.6,22l0.1,1.1c0,0,0,0-0.1,0h-1.8c0,0,0,0,0,0V22c0,0,0,0,0,0H181.6z"/>
<path class="st1" d="M187.6,22C187.6,22,187.6,22,187.6,22l0,1.1c0,0,0,0,0,0h-1.3c-0.3,0-0.6-0.1-1-0.2c-0.3-0.1-0.6-0.2-0.9-0.4
	c-0.6,0.4-1.2,0.6-1.8,0.6h-1.1c0,0,0,0,0,0V22c0,0,0,0,0,0h1c0.2,0,0.3,0,0.5-0.1c0.2,0,0.3-0.1,0.4-0.1c-0.2-0.2-0.4-0.4-0.6-0.7
	c-0.2-0.3-0.4-0.7-0.6-1.1c-0.2-0.4-0.3-0.8-0.3-1.1c0.4-0.3,0.8-0.6,1.3-0.8c0.5-0.2,1-0.3,1.4-0.3c0.9,0,1.8,0.2,2.5,0.6
	c0,0.7-0.1,1.4-0.4,2c-0.3,0.6-0.7,1.1-1.2,1.4c0.2,0.1,0.5,0.2,0.9,0.2L187.6,22L187.6,22z M184.5,21.2c0.8-0.5,1.2-1.1,1.2-2
	c-0.3-0.1-0.7-0.2-1.1-0.2c-0.2,0-0.4,0-0.7,0.1c-0.2,0.1-0.4,0.2-0.6,0.3c0.1,0.4,0.2,0.7,0.4,1C184,20.8,184.3,21,184.5,21.2z"/>
<path class="st1" d="M189.3,22C189.3,22,189.4,22,189.3,22l0.1,1.1c0,0,0,0-0.1,0h-1.8c0,0,0,0,0,0V22c0,0,0,0,0,0H189.3z"/>
<path class="st1" d="M191,22C191,22,191.1,22,191,22l0.1,1.1c0,0,0,0-0.1,0h-1.8c0,0,0,0,0,0V22c0,0,0,0,0,0H191z"/>
<path class="st1" d="M192.7,22C192.7,22,192.7,22,192.7,22l0.1,1.1c0,0,0,0-0.1,0h-1.8c0,0,0,0,0,0V22c0,0,0,0,0,0H192.7z"/>
<path class="st1" d="M192.6,23.2C192.6,23.2,192.5,23.2,192.6,23.2l0-1.2c0,0,0,0,0,0h1.2v-6.3h1.5v7.5
	C195.3,23.2,192.6,23.2,192.6,23.2z"/>
<path class="st1" d="M197.3,15.6h1.5v7.5h-1.5V15.6z"/>
<path id="Path_469_11_" class="st2" d="M220.1,7.5c0.3-0.2,0.6-0.5,1-0.8c0.1-0.1,0.3-0.2,0.3-0.3c0.1-0.1,0.2-0.2,0.2-0.3
	c0.1-0.1,0.1-0.3,0.2-0.5l0.2-0.7h0c-0.1,0.2-0.3,0.5-0.5,0.6c-0.2,0.2-0.4,0.3-0.6,0.5c-0.2,0.2-0.4,0.3-0.7,0.5
	c-0.2,0.2-0.4,0.5-0.6,0.8v0c0.2-0.4,0.3-0.8,0.4-1.1c0.1-0.3,0.1-0.6,0.2-0.8c0.1-0.2,0.1-0.4,0.2-0.6c0.1-0.2,0.3-0.4,0.5-0.5v0
	c-0.5,0.1-0.9,0.4-1.2,0.8c-0.3,0.4-0.4,0.9-0.4,1.5v1.8C219.6,8,219.9,7.7,220.1,7.5z M221.4,5.3c0.2-0.2,0.5-0.5,0.7-0.8
	c0.2-0.3,0.4-0.5,0.6-0.7c0.2-0.2,0.4-0.4,0.6-0.6l0,0c-0.2,0.1-0.4,0.3-0.6,0.3c-0.3,0.1-0.5,0.2-0.7,0.3c-0.3,0.2-0.6,0.4-0.8,0.7
	c-0.3,0.5-0.5,1-0.6,1.5C220.8,5.8,221.1,5.5,221.4,5.3L221.4,5.3z M218.4,12.1c0.2,0.3,0.4,0.5,0.6,0.8c0.2,0.3,0.5,0.6,0.6,0.9h0
	c0-0.1,0-0.3,0-0.4V13c0-0.2,0.1-0.5,0.1-0.7c0.1-0.3,0.2-0.7,0.3-1.1c0.1-0.4,0.2-0.8,0.3-1.2c0.1-0.4,0.1-0.7,0.1-1.1h0
	c-0.1,0.2-0.2,0.5-0.3,0.7c-0.1,0.2-0.3,0.4-0.4,0.7c-0.1,0.2-0.3,0.5-0.4,0.8c-0.1,0.3-0.2,0.6-0.2,0.9c0,0.1,0,0.3,0.1,0.4
	c0,0.1,0,0.2,0.1,0.3h0c-0.1-0.4-0.2-0.7-0.3-1.1c-0.1-0.3-0.3-0.7-0.4-1c-0.1-0.3-0.2-0.6-0.3-0.8c-0.1-0.2-0.1-0.4-0.1-0.6
	c0-0.1,0-0.3,0-0.4c0-0.1,0-0.3,0-0.4h0c-0.1,0.2-0.2,0.4-0.2,0.7c-0.1,0.3-0.1,0.6-0.1,0.8c0,0.4,0,0.9,0.2,1.3
	C218.1,11.5,218.3,11.8,218.4,12.1L218.4,12.1z M223.2,19.2c0.1,0,0.2,0,0.3,0c0.1,0,0.3,0,0.4,0c0.1,0,0.3,0,0.5-0.1
	c0.2,0,0.4-0.1,0.7-0.2c0.3-0.1,0.7-0.2,1.2-0.3c-0.3-0.1-0.6-0.2-0.9-0.2c-0.3-0.1-0.5-0.2-0.7-0.5c-0.3-0.3-0.6-0.5-0.9-0.8
	c-0.2-0.2-0.5-0.4-0.7-0.6c-0.1-0.1-0.4-0.4-0.5-0.5l0,0c0,0.1,0.4,0.7,0.4,0.7s0,0.1,0.1,0.1c0.1,0.2,0.2,0.3,0.3,0.5
	c0,0.1,0.1,0.1,0.1,0.2c0.1,0.2,0.2,0.4,0.4,0.5c0.3,0.3,0.7,0.4,1.1,0.5v0c-0.2,0-0.4-0.1-0.6-0.1s-0.3,0-0.4-0.1
	c-0.1,0-0.3,0-0.4,0c-0.2,0-0.3,0-0.5,0c-0.1,0-0.2,0-0.4-0.1c-0.1,0-0.2,0-0.4,0c-0.1,0-0.1,0-0.2,0c-0.2,0-0.4-0.1-0.7-0.1
	c-0.2-0.1-0.4-0.1-0.6-0.2c-0.2-0.1-0.4-0.3-0.6-0.5l0,0c0.1,0.2,0.2,0.3,0.4,0.5c0.2,0.2,0.4,0.4,0.6,0.5c0.2,0.2,0.5,0.3,0.8,0.4
	c0.3,0.1,0.7,0.2,1,0.3C222.9,19.2,223.1,19.2,223.2,19.2L223.2,19.2z M219.1,11L219.1,11c0-0.1,0.1-0.3,0.1-0.4
	c0-0.2,0.1-0.3,0.2-0.4c0.1-0.2,0.3-0.4,0.4-0.6c0.2-0.2,0.4-0.6,0.7-1c0.2-0.3,0.3-0.6,0.4-0.9c0.1-0.3,0.2-0.6,0.2-0.8h0
	c0,0.1-0.1,0.2-0.1,0.2c0,0.1-0.1,0.1-0.2,0.2c-0.1,0.1-0.2,0.2-0.3,0.3c-0.1,0.1-0.3,0.2-0.4,0.4c-0.3,0.2-0.5,0.5-0.7,0.9
	c-0.1,0.3-0.2,0.6-0.3,0.9h0c0-0.1,0-0.3,0-0.4c0-0.1,0-0.3,0-0.5c0-0.3,0-0.6,0-0.9c0-0.4,0-0.8,0-1.4c0-0.2,0-0.3,0.1-0.5
	s0.1-0.3,0.2-0.4h0c-0.3,0.4-0.6,0.8-0.8,1.3c-0.1,0.4-0.2,0.8-0.2,1.2c0,0.5,0.1,0.9,0.3,1.4C218.8,10,219,10.5,219.1,11L219.1,11z
	 M221.8,17.8l1.1,0.2l0.6,0.1c-0.2-0.2-0.4-0.5-0.6-0.7c-0.1-0.2-0.3-0.5-0.3-0.7c-0.1-0.3-0.3-0.7-0.4-1.1c0-0.1-0.1-0.3-0.2-0.4
	c-0.1-0.1-0.1-0.2-0.2-0.4c-0.1-0.1-0.2-0.3-0.3-0.4c-0.1-0.2-0.3-0.4-0.4-0.6l0,0c0,0.2,0.1,0.5,0.2,0.9c0.1,0.5,0.2,0.9,0.3,1.3
	c0.1,0.3,0.2,0.6,0.4,0.8c0.2,0.3,0.4,0.5,0.7,0.8l0,0c-0.2-0.1-0.4-0.2-0.6-0.4c-0.3-0.2-0.6-0.4-0.9-0.6c-0.5-0.3-1.1-0.6-1.6-0.9
	c-0.4-0.3-0.7-0.6-0.8-1l0,0c0.1,0.4,0.3,0.8,0.5,1.2c0.2,0.3,0.5,0.6,0.8,0.9c0.3,0.3,0.6,0.5,1,0.6
	C221.1,17.6,221.5,17.7,221.8,17.8L221.8,17.8z M219.4,15.1l1.9,1.3c-0.1-0.2-0.2-0.3-0.2-0.5c-0.1-0.2-0.1-0.3-0.1-0.5
	c0-0.2-0.1-0.4-0.1-0.6s-0.1-0.5-0.1-0.8c-0.1-0.6-0.1-1-0.2-1.3c-0.1-0.3-0.2-0.7-0.3-1h0c0,0.3,0,0.5,0,0.8c0,0.2-0.1,0.4-0.1,0.6
	c0,0.2-0.1,0.3-0.1,0.5c0,0.2,0,0.3,0,0.5c0,0.3,0.1,0.5,0.2,0.7c0.1,0.3,0.2,0.5,0.3,0.7l0,0c-0.3-0.4-0.5-0.8-0.9-1.2
	c-0.3-0.3-0.5-0.6-0.8-0.8c-0.2-0.2-0.4-0.5-0.6-0.7c-0.2-0.3-0.3-0.6-0.3-0.9c0,0.1,0,0.2,0,0.2c0,0.1,0,0.2,0,0.2
	c0,0.3,0.1,0.6,0.2,0.9c0.1,0.3,0.2,0.6,0.4,0.8c0.1,0.2,0.3,0.5,0.5,0.7C219,14.8,219.2,14.9,219.4,15.1L219.4,15.1z M235.3,3.8
	c0.2,0.2,0.4,0.5,0.6,0.7c0.2,0.3,0.4,0.5,0.7,0.8c0.3,0.3,0.6,0.5,0.9,0.7c-0.1-0.5-0.3-1-0.6-1.5c-0.2-0.3-0.5-0.6-0.8-0.7
	c-0.2-0.1-0.5-0.3-0.7-0.3c-0.2-0.1-0.4-0.2-0.6-0.3l0,0C234.9,3.3,235.1,3.5,235.3,3.8L235.3,3.8z M237,17.9
	c-0.2,0.1-0.4,0.2-0.6,0.2c-0.2,0.1-0.4,0.1-0.7,0.1c-0.1,0-0.1,0-0.2,0l-0.4,0c-0.1,0-0.2,0-0.4,0.1c-0.2,0-0.3,0-0.5,0
	c-0.1,0-0.3,0-0.4,0c-0.1,0-0.3,0-0.4,0.1c-0.2,0-0.3,0.1-0.6,0.1v0c0.4-0.1,0.8-0.3,1.1-0.5c0.2-0.1,0.3-0.3,0.4-0.5
	c0-0.1,0.1-0.1,0.1-0.2c0.1-0.2,0.2-0.3,0.3-0.5c0,0,0.1-0.1,0.1-0.1s0.3-0.6,0.4-0.7l0,0c-0.1,0.1-0.4,0.4-0.5,0.5
	c-0.2,0.2-0.5,0.4-0.7,0.6c-0.3,0.3-0.6,0.5-0.9,0.8c-0.2,0.2-0.5,0.4-0.7,0.5c-0.2,0.1-0.5,0.2-0.9,0.2c0.5,0.1,0.9,0.2,1.2,0.3
	c0.3,0.1,0.6,0.1,0.7,0.2c0.2,0,0.3,0.1,0.5,0.1c0.1,0,0.3,0,0.4,0c0.1,0,0.2,0,0.3,0c0.1,0,0.2,0,0.2,0c0.4,0,0.7-0.1,1-0.3
	c0.3-0.1,0.5-0.3,0.8-0.4c0.2-0.2,0.4-0.3,0.6-0.5c0.1-0.2,0.3-0.3,0.4-0.5l0,0C237.4,17.6,237.2,17.7,237,17.9L237,17.9z
	 M238.4,15.7c-0.5,0.3-1,0.6-1.6,0.9c-0.3,0.2-0.7,0.4-0.9,0.6c-0.2,0.2-0.4,0.3-0.6,0.4l0,0c0.3-0.2,0.5-0.5,0.7-0.8
	c0.2-0.2,0.3-0.5,0.4-0.8c0.1-0.4,0.2-0.8,0.3-1.3s0.2-0.8,0.2-0.9l0,0c-0.2,0.2-0.3,0.4-0.4,0.6c-0.1,0.2-0.2,0.3-0.3,0.4
	c-0.1,0.1-0.1,0.3-0.2,0.4c-0.1,0.1-0.1,0.3-0.2,0.4c-0.2,0.5-0.3,0.8-0.4,1.1c-0.1,0.2-0.2,0.5-0.3,0.7c-0.2,0.3-0.3,0.5-0.6,0.7
	l0.6-0.1l1.1-0.2c0.4-0.1,0.7-0.2,1-0.4c0.4-0.2,0.7-0.4,1-0.6c0.3-0.3,0.6-0.6,0.8-0.9c0.2-0.4,0.4-0.8,0.5-1.2l0,0
	C239.1,15.1,238.8,15.4,238.4,15.7L238.4,15.7z M239.2,10.7c-0.1,0.3-0.3,0.6-0.4,1c-0.1,0.4-0.2,0.7-0.3,1.1h0c0-0.1,0-0.2,0.1-0.3
	c0-0.1,0.1-0.3,0.1-0.4c0-0.3,0-0.6-0.2-0.9c-0.1-0.3-0.2-0.5-0.4-0.8c-0.1-0.2-0.3-0.5-0.4-0.7c-0.1-0.2-0.2-0.4-0.3-0.7h0
	c0,0.4,0,0.7,0.1,1.1c0.1,0.4,0.2,0.8,0.3,1.2s0.2,0.7,0.3,1.1c0.1,0.2,0.1,0.5,0.1,0.7v0.4c0,0.1,0,0.3,0,0.4h0
	c0.2-0.3,0.4-0.6,0.6-0.9c0.2-0.2,0.4-0.5,0.6-0.8c0.2-0.3,0.3-0.6,0.4-0.9c0.1-0.4,0.2-0.8,0.2-1.3c0-0.3,0-0.6-0.1-0.8
	c-0.1-0.2-0.1-0.5-0.2-0.7h0c0,0.1,0,0.3,0,0.4c0,0.1,0,0.3,0,0.4c0,0.2-0.1,0.4-0.1,0.6C239.5,10.1,239.3,10.4,239.2,10.7
	L239.2,10.7z M238.4,8.8c-0.2-0.3-0.4-0.6-0.7-0.9c-0.2-0.2-0.3-0.3-0.4-0.4c-0.1-0.1-0.2-0.2-0.3-0.3c-0.1-0.1-0.1-0.1-0.2-0.2
	c0-0.1-0.1-0.1-0.1-0.2h0c0,0.2,0.1,0.4,0.2,0.8c0.1,0.3,0.2,0.6,0.4,0.9c0.3,0.4,0.5,0.7,0.7,1c0.1,0.2,0.3,0.4,0.4,0.6
	c0.1,0.1,0.1,0.3,0.2,0.4c0,0.1,0.1,0.3,0.1,0.4h0c0.1-0.5,0.3-1,0.5-1.5c0.2-0.4,0.3-0.9,0.3-1.4c0-0.4-0.1-0.8-0.2-1.2
	c-0.2-0.5-0.4-0.9-0.8-1.3h0c0,0.1,0.1,0.3,0.2,0.4c0.1,0.2,0.1,0.3,0.1,0.5c0,0.6,0,1,0,1.4c0,0.3,0,0.6,0,0.9c0,0.2,0,0.4,0,0.5
	c0,0.1,0,0.3,0,0.4h0C238.6,9.4,238.5,9.1,238.4,8.8L238.4,8.8z M237.3,4.7c0.1,0.2,0.2,0.4,0.2,0.6c0.1,0.2,0.1,0.5,0.2,0.8
	c0.1,0.3,0.2,0.7,0.4,1.1v0c-0.1-0.3-0.3-0.6-0.6-0.8c-0.2-0.2-0.4-0.4-0.7-0.5c-0.2-0.1-0.4-0.3-0.6-0.5c-0.2-0.2-0.4-0.4-0.5-0.6
	h0l0.2,0.7c0,0.2,0.1,0.3,0.2,0.5c0.1,0.1,0.1,0.2,0.2,0.3s0.2,0.2,0.3,0.3c0.4,0.3,0.7,0.6,1,0.8c0.3,0.2,0.5,0.5,0.7,0.8V6.5
	c0-0.5-0.2-1-0.4-1.5c-0.3-0.4-0.7-0.7-1.2-0.8v0C237,4.3,237.2,4.5,237.3,4.7L237.3,4.7z M234.3,19.7c-0.1,0-0.3,0-0.4,0
	c-0.1,0-0.3-0.1-0.5-0.1v0c-0.2,0-0.3-0.1-0.5-0.2c-0.2-0.1-0.4-0.2-0.7-0.3c-0.5-0.2-0.9-0.3-1.1-0.4c-0.2-0.1-0.5-0.1-0.7-0.1
	s-0.5,0-0.8,0.1c-0.3,0.1-0.4,0.1-0.6,0.1c-0.1,0-0.3-0.1-0.6-0.1c-0.2-0.1-0.5-0.1-0.8-0.1c-0.3,0-0.5,0-0.7,0.1
	c-0.2,0.1-0.6,0.2-1.1,0.4c-0.6,0.2-1,0.4-1.3,0.4c-0.3,0.1-0.6,0.1-0.9,0.1c-0.1,0-0.2,0-0.4,0c-0.1,0-0.2,0-0.3-0.1
	c0,0-0.2-0.1-0.4-0.1c-0.1-0.1-0.3-0.1-0.5-0.2l0,0c0.3,0.3,0.6,0.5,0.9,0.7c0.4,0.3,0.9,0.4,1.4,0.4c0.2,0,0.4,0,0.6,0
	c0.2,0,0.3-0.1,0.5-0.1c0.2-0.1,0.3-0.2,0.5-0.3c0.2-0.1,0.4-0.2,0.7-0.4c0.3-0.2,0.5-0.3,0.7-0.5c0.2-0.1,0.4-0.2,0.7-0.2
	c0.1,0,0.2,0,0.3,0.1c-0.3,0.2-0.7,0.4-1.2,0.7c-0.5,0.3-0.9,0.7-1.3,1.1l0.4,0.4c0.4-0.5,0.8-0.9,1.3-1.2c0.4-0.3,0.8-0.6,1.2-0.7
	c0.4,0.2,0.8,0.4,1.2,0.7c0.5,0.4,0.9,0.8,1.3,1.2l0.4-0.4c-0.4-0.4-0.8-0.8-1.3-1.1c-0.5-0.3-0.9-0.5-1.2-0.7c0.1,0,0.2,0,0.3-0.1
	c0.2,0,0.5,0.1,0.7,0.2c0.2,0.1,0.4,0.3,0.7,0.5c0.3,0.2,0.5,0.3,0.7,0.4c0.2,0.1,0.4,0.2,0.5,0.3c0.2,0.1,0.3,0.1,0.5,0.1
	c0.2,0,0.3,0.1,0.5,0h0.1c0.4,0,0.8-0.1,1.2-0.3c0.4-0.2,0.8-0.5,1.2-0.9v0c-0.3,0.1-0.6,0.3-0.9,0.4
	C234.7,19.7,234.5,19.7,234.3,19.7z M240,12.1C240,12.1,240,12.1,240,12.1c0-0.1,0-0.2,0-0.2c0-0.1,0-0.2,0-0.2
	c0,0.3-0.2,0.6-0.3,0.9c-0.2,0.3-0.4,0.5-0.6,0.7l0,0c-0.2,0.2-0.5,0.5-0.7,0.8c-0.3,0.4-0.6,0.7-0.9,1.1l0,0
	c0.1-0.2,0.2-0.5,0.3-0.7c0.1-0.2,0.1-0.5,0.2-0.7c0-0.2,0-0.3,0-0.5c0-0.1-0.1-0.3-0.1-0.5c0-0.2-0.1-0.4-0.1-0.6
	c0-0.2,0-0.5,0-0.8h0c0,0,0,0,0,0c0,0,0,0,0,0h0c-0.1,0.3-0.2,0.7-0.3,1c0,0.3-0.1,0.8-0.2,1.3c0,0.3-0.1,0.6-0.1,0.8
	c0,0.2-0.1,0.4-0.1,0.6c0,0.2-0.1,0.4-0.1,0.5c0,0.1-0.1,0.3-0.2,0.4c0,0,0,0,0,0.1l0,0c0,0,0,0,0,0l0.6-0.4l1.3-0.8
	c0.2-0.1,0.4-0.3,0.5-0.5c0.2-0.2,0.4-0.4,0.5-0.7c0.1-0.2,0.2-0.3,0.2-0.5c0-0.1,0.1-0.2,0.1-0.3C240,12.8,240,12.5,240,12.1
	L240,12.1C240,12.2,240,12.2,240,12.1z M232.4,4.5c0,0,0.1,0,0.1,0.1c0,0,0.1,0.1,0.1,0.1c0,0,0,0,0.1,0c0,0,0.1,0,0.1-0.1s0,0,0,0
	c0,0,0,0,0,0c0-0.1,0-0.1,0-0.2c-0.1-0.1-0.2-0.1-0.2-0.1c0,0,0,0,0,0h0C232.4,4.3,232.4,4.3,232.4,4.5
	C232.4,4.4,232.4,4.4,232.4,4.5L232.4,4.5z M229.7,3.8L229.7,3.8c0.2,0,0.3-0.1,0.4-0.1h0.4c0.1,0,0.1,0,0.2-0.1
	c0,0,0.1-0.1,0.1-0.1c-0.1-0.1-0.2-0.2-0.3-0.2c-0.1,0-0.2,0-0.3,0c-0.1,0-0.2,0.1-0.3,0.1c-0.2,0.1-0.3,0.1-0.3,0.1
	c-0.1,0-0.1,0-0.2,0.1c0,0,0.1,0.1,0.1,0.1C229.5,3.8,229.6,3.8,229.7,3.8L229.7,3.8z M228.9,18.1c4.3,0,7.9-3.5,7.9-7.9
	s-3.5-7.9-7.9-7.9c-4.3,0-7.9,3.5-7.9,7.9C221,14.6,224.5,18.1,228.9,18.1L228.9,18.1z M221.4,10.4h1.2c0,0.5,0.1,1,0.2,1.6
	c0,0-0.1,0-0.1-0.1l0,0l-0.1-0.2l-0.2,0.1c0,0.1,0,0.2-0.1,0.1c0,0-0.1,0-0.1-0.1c-0.1,0-0.2,0.1-0.2,0.2c0,0,0,0,0,0
	c0,0.1,0,0.2,0,0.3l0.2,0.5c0,0.1,0.1,0.1,0.2,0c0,0.1,0.1,0.1,0.2,0.2c0,0,0.1,0.1,0.1,0.1c0.1,0,0.1,0,0.1-0.1h0
	c0,0,0.1,0.1,0.1,0.1c0,0,0.1,0.1,0.1,0.1v0c0.1,0.1,0.1,0.1,0.2,0.1c0,0.1,0.1,0.2,0.2,0.3c0,0.1,0.1,0.1,0.2,0.1
	c0,0,0.1,0,0.1-0.1c0,0.1,0.1,0.2,0.1,0.3c0,0,0.1,0,0.1,0.1c0,0,0.1,0,0.1,0.1h0l0,0c0,0.1,0.1,0.2,0.1,0.2c0,0,0.1,0.1,0.2,0.1
	c0,0,0,0,0,0c0,0,0,0,0,0c0,0,0,0,0,0c0,0,0,0,0.1,0.1l-0.8,0.8C222.2,14.1,221.5,12.3,221.4,10.4L221.4,10.4z M227.2,8.2
	C227.2,8.2,227.1,8.2,227.2,8.2L227,8.1c0.5-0.4,1-0.6,1.6-0.7v0.8c0,0,0,0,0,0c0,0,0,0,0,0h0c0,0,0,0-0.1,0c0,0,0,0,0,0
	c0,0,0,0,0,0c0,0,0,0-0.1,0c0,0,0,0-0.1,0c0,0,0,0,0,0c0,0,0-0.1,0-0.1l0,0c0,0,0,0,0,0c-0.1,0-0.1,0.1-0.1,0.1c0,0,0,0.1,0,0.2
	c0,0.1-0.1,0.1-0.1,0.1c-0.1,0-0.1,0-0.2,0.1l-0.1-0.1h-0.1c0,0,0,0-0.1-0.1c0,0,0,0-0.1,0c0,0,0,0,0,0c0,0-0.1,0-0.1,0.1l-0.1-0.1
	l0,0V8.4C227.3,8.3,227.2,8.3,227.2,8.2L227.2,8.2z M226.7,7.8L225.9,7c0.8-0.7,1.7-1.1,2.7-1.1V7C228,7.1,227.3,7.4,226.7,7.8
	L226.7,7.8z M227.2,11.6c0,0,0-0.1,0-0.2L227.2,11.6c0-0.1,0.1-0.2,0.1-0.3c0,0,0-0.1,0.1-0.1h0c0,0.1,0.1,0.1,0.1,0.2l-0.7,0.7
	c-0.3-0.3-0.5-0.7-0.6-1.2c0.1,0,0.1,0,0.2,0c0.1,0,0.1,0.1,0.2,0.2c0,0,0.1,0,0.1,0l0.1,0.1c0,0,0,0.1,0,0.1c0,0,0,0,0.1,0.1
	c0,0,0.1,0,0.1,0.1l0.1,0c0,0,0-0.1,0-0.1c0-0.1,0-0.1,0-0.1l0.1,0.2l0.1,0.2l0,0C227.1,11.7,227.2,11.7,227.2,11.6L227.2,11.6z
	 M228.8,12.5C228.8,12.5,228.8,12.5,228.8,12.5c0.1,0.1,0,0.2-0.1,0.2c-0.1,0-0.1,0-0.1,0.2c0,0.1,0,0.2-0.1,0.2c0,0,0,0,0,0
	c0,0,0,0,0,0c-0.5-0.1-1-0.3-1.4-0.6l0.7-0.7c0.3,0.3,0.6,0.4,1,0.5c0,0,0,0.1,0,0.1C228.7,12.3,228.7,12.3,228.8,12.5
	C228.7,12.4,228.7,12.4,228.8,12.5L228.8,12.5z M225.3,12.5c0-0.2,0-0.3-0.1-0.4c0-0.1,0-0.2-0.1-0.2c0-0.1,0-0.2-0.1-0.4
	c-0.1-0.1-0.2-0.2-0.2-0.3V11c0-0.1,0-0.1-0.1-0.2v0c0,0,0-0.1,0-0.1c0,0,0.1,0,0.3-0.1c0-0.1,0-0.2,0-0.2l0.2,0
	c0.1,0,0.1,0,0.1-0.1c0-0.1,0-0.1-0.1-0.2c0-0.1,0-0.1-0.1-0.2c0,0,0-0.1,0.1-0.1c0,0,0.1,0,0.2,0c0.1,0,0.1,0,0.2,0.1
	c0,0.1,0.1,0.1,0.1,0.2c0,0,0,0.1,0,0.1c0,0,0,0.1,0,0.1l0.1,0c0,0.2-0.1,0.3-0.2,0.3c0,0-0.1,0-0.1-0.1c0,0,0-0.1-0.1-0.1
	c0,0,0,0,0,0v0c0,0,0,0.1,0,0.1c0,0,0,0.1,0,0.1c0,0.1-0.1,0.2-0.2,0.1c0,0.1,0,0.1,0.1,0.1c0,0.1,0.1,0.2,0.1,0.1
	c0-0.1,0-0.1,0.1-0.2c0-0.1,0-0.1,0.1-0.2l0,0l0.1,0c0,0,0,0,0,0c0,0,0,0,0,0c0.1,0.6,0.4,1.1,0.8,1.6l-1.1,1.1c0,0-0.1-0.1-0.1-0.2
	c0-0.1,0.1-0.2,0.1-0.3l0-0.2C225.4,12.7,225.3,12.6,225.3,12.5L225.3,12.5z M224.6,10.9c0,0,0,0.1,0,0.1c0,0.1,0,0.1-0.1,0.1
	c0,0,0,0,0,0c0-0.2-0.1-0.4-0.1-0.6h0.2c0,0,0,0.1,0,0.1c0,0,0,0.1-0.1,0.1c0,0,0,0.1,0,0.1C224.6,10.8,224.6,10.8,224.6,10.9
	L224.6,10.9z M224.5,10.1c0-1,0.4-2,1.1-2.7l0.8,0.8c0,0,0,0,0,0c0,0-0.1,0-0.1,0c0,0-0.1,0.1-0.1,0.2c-0.1,0-0.2,0.1-0.2,0.1
	c-0.1,0.1-0.1,0.1-0.2,0.2c-0.1,0.1-0.2,0.1-0.2,0.1c0,0-0.1,0-0.1,0.1c0,0.1,0,0.1,0,0.1c0,0-0.1,0-0.3,0.1c0,0,0,0-0.1,0L225,9.2
	c0,0,0,0.1,0,0.1c0,0,0,0.1,0,0.1c0,0-0.1,0.1-0.1,0.1c0,0.1,0,0.2,0,0.2l0,0.3h0c0,0,0,0.1,0,0.1L224.5,10.1z M226.7,12.7
	c0.4,0.4,0.9,0.6,1.4,0.7c0,0-0.1,0-0.1,0c-0.1,0-0.1,0.1-0.2,0.2c0,0.1,0,0.2-0.1,0.2c-0.1,0-0.1,0.1-0.1,0.1
	c0.1,0.1,0.2,0.2,0.2,0.3c0,0.1,0.1,0.2,0.3,0.2l0.2,0.1c0.1,0,0.1,0,0.2,0.1c0,0,0.1,0,0.1,0c-1-0.1-1.9-0.5-2.6-1.1L226.7,12.7z
	 M225.7,6.8L224.9,6c1-1,2.4-1.5,3.8-1.6v1.1C227.6,5.5,226.5,6,225.7,6.8L225.7,6.8z M225.4,7c-0.8,0.8-1.2,1.9-1.2,3H223
	c0-1.4,0.6-2.8,1.6-3.8L225.4,7z M224.1,10.4c0,0.2,0,0.4,0.1,0.6c0,0,0,0,0-0.1c-0.1-0.1-0.1-0.1-0.2-0.1c0,0-0.1,0-0.1,0.1
	c0,0,0,0.1-0.1,0.1c-0.1,0.1-0.2,0.1-0.3,0.1c-0.1,0.1-0.1,0.2-0.2,0.3c0,0,0,0.1,0,0.1c0,0,0,0.1,0,0.1c0,0.1,0,0.1,0,0.1
	c0,0,0,0,0,0c0,0,0,0-0.1,0c0,0,0,0,0,0.1c-0.1-0.5-0.2-1-0.2-1.5L224.1,10.4z M228.7,17.7c-1.8,0-3.6-0.8-4.9-2l0.8-0.8
	c1.1,1,2.6,1.6,4.1,1.7L228.7,17.7L228.7,17.7z M228.7,16.1c-1.4,0-2.8-0.6-3.8-1.6c0.1,0,0.1,0.1,0.2,0.1c0.1,0,0.1,0,0.2-0.1
	c0.1,0,0.2-0.1,0.2-0.1c0.1,0,0.2,0,0.2-0.1c0.1,0,0.1,0,0.2,0c0.1,0,0.1-0.1,0.1-0.1c0-0.1,0-0.1-0.1-0.1c-0.1,0-0.1-0.1-0.1-0.1
	c0,0,0,0-0.1-0.1c-0.1-0.1-0.1-0.1-0.2-0.2l0,0c0.8,0.8,1.9,1.2,3,1.2L228.7,16.1z M228.9,13.2L228.9,13.2c-0.1,0-0.2,0-0.3,0
	c0,0,0,0,0-0.1c0,0,0.1-0.1,0.1-0.1c0,0,0.1-0.1,0.2-0.1v-0.1l0.2-0.1c0,0,0,0,0.1,0c0,0,0.1,0,0.2-0.1c0.1,0,0.1,0.1,0.2,0.1
	c0.1,0,0.1,0.1,0.2,0.1l0-0.1c0,0,0.1,0,0.2,0.1c0,0,0.1,0,0.1-0.1c0,0,0-0.1,0-0.1c0,0,0.1,0,0.1,0c0,0,0,0,0,0c0,0,0,0,0,0h0
	c0.1,0,0.1,0,0.1-0.1c0,0,0.1-0.1,0.1-0.1c0,0,0,0,0,0l0,0c0,0,0,0.1,0,0.1c0,0.1-0.1,0.3-0.2,0.3c-0.1,0.1-0.2,0.1-0.4,0.2
	c0,0,0,0.1-0.1,0.1c0,0.1-0.1,0.1-0.1,0.1c-0.1,0-0.2,0-0.3-0.1c0,0-0.1-0.1-0.1-0.2c-0.1,0-0.1,0-0.2,0L228.9,13.2
	C229,13.2,228.9,13.2,228.9,13.2L228.9,13.2z M230,12.3c0-0.1,0.1-0.1,0.1-0.2c0.1,0,0.1,0,0.2,0c0,0.1,0,0.1-0.1,0.2
	C230.2,12.3,230.1,12.4,230,12.3L230,12.3z M230.8,11.7c0.1,0,0.1,0.1,0.1,0.2c0,0,0,0.1-0.1,0.1c0,0,0,0,0,0
	c-0.1,0-0.1-0.1-0.1-0.2c-0.1,0-0.2-0.1-0.2-0.2c0-0.1,0-0.1,0-0.1c0,0,0.1,0,0.1,0c0,0,0,0,0,0.1C230.7,11.6,230.8,11.7,230.8,11.7
	L230.8,11.7z M233.4,7.3C233.4,7.3,233.4,7.3,233.4,7.3c0.1,0,0.2,0,0.2,0.1c0.1,0.1,0.2,0.2,0.3,0.4c0,0,0,0,0.1,0.1
	c0,0.1,0.1,0.1,0.1,0.1c0,0,0.1,0,0.1,0c0,0,0,0,0-0.1c0.3,0.7,0.5,1.5,0.5,2.2h-1.1c0,0,0,0,0,0c0-0.1,0-0.2-0.1-0.3
	c-0.1-0.1-0.1-0.3,0-0.4c0-0.1,0-0.2,0-0.2c0,0-0.1,0-0.1,0c0,0,0,0.1-0.1,0.1c0,0.1,0,0.1-0.1,0.1v0c0,0,0,0,0,0c0,0,0,0,0,0.1
	c0,0.1,0,0.1-0.1,0.2c0,0.1,0,0.1,0,0.2c0,0,0,0,0,0c0,0,0,0.1,0,0.1h-0.6c0,0,0.1-0.1,0.1-0.1h0l0.2-0.1c0,0,0,0,0-0.1
	c0,0,0-0.1,0-0.1c0,0,0.1,0,0.2-0.1c0.1-0.1,0.1-0.2,0.1-0.2c0.1-0.2,0.2-0.3,0.2-0.5c0,0-0.1-0.1-0.1-0.1s0-0.1,0-0.1
	c0-0.2,0.1-0.5-0.2-0.6c0,0,0,0,0-0.1c0.1,0,0.1-0.1,0.1-0.2h-0.2c0,0,0-0.1,0-0.1c0,0,0-0.1,0-0.1c0,0,0-0.1-0.1-0.1c0,0,0,0,0,0
	c0,0-0.1,0-0.1,0c0,0-0.1,0-0.1,0c0,0,0,0,0,0c0,0,0,0,0-0.1c0-0.1,0-0.2-0.1-0.3c-0.1-0.1-0.1-0.1-0.2-0.2l0,0c0,0,0-0.1,0-0.1
	l0.2-0.2l0.3,0.1c0,0.1,0,0.1,0.1,0.2c0,0,0.1,0.1,0.1,0.1C233.3,7.2,233.3,7.2,233.4,7.3L233.4,7.3C233.3,7.3,233.3,7.3,233.4,7.3
	L233.4,7.3z M232.3,14.9C232.3,14.9,232.2,14.9,232.3,14.9c-0.1,0-0.1,0-0.1-0.1c0,0,0-0.1,0.1-0.1c0.1,0,0.1-0.1,0.1-0.2
	c0,0,0-0.1,0.1-0.2c0,0,0-0.1,0-0.1c0,0-0.1,0-0.1-0.1c0,0-0.1,0-0.1,0c0,0-0.1,0-0.1-0.1c0,0-0.1-0.1-0.1-0.1c0,0,0-0.1,0-0.1
	c0,0,0,0,0-0.1c0,0,0,0,0.1,0l0.6,0.6c0,0.1,0,0.1,0.1,0.1l0.1,0.1c-0.2,0.2-0.4,0.4-0.7,0.5c0,0,0,0,0-0.1
	C232.3,15,232.3,15,232.3,14.9C232.3,15,232.3,14.9,232.3,14.9L232.3,14.9z M231.9,12c-0.1,0-0.1,0-0.2,0c-0.1,0-0.1,0.1-0.2,0.2
	c0,0,0,0,0,0h0c0,0-0.1,0-0.1,0c0,0-0.1,0-0.1,0.1c-0.1,0-0.1,0-0.1-0.1c0,0,0.1-0.1,0.2-0.1c0.1-0.1,0.1-0.1,0.1-0.2
	c0,0,0.1,0,0.1,0c0.1,0,0.1-0.1,0.2-0.2c0,0,0.1-0.1,0.1-0.2h0c0,0.1,0,0.1,0.1,0.1c0.1,0,0.1-0.1,0.1-0.2c0.1,0,0.1,0,0.2,0.1
	c0.1,0,0.2,0,0.2-0.1h0.3l0,0l0,0l0,0c-0.2,0.6-0.5,1.1-0.9,1.6c0,0,0-0.1,0-0.1c0,0-0.1-0.2-0.1-0.2c0,0-0.1,0.1-0.1,0.2
	c0,0.1-0.1,0.2-0.1,0.2l-0.3,0.1c-0.1,0-0.2,0-0.2,0c-0.1,0-0.2,0-0.2-0.1s-0.1-0.1-0.2-0.1c-0.1,0-0.1,0-0.2-0.1
	c-0.1,0-0.1,0-0.1-0.1c0-0.1,0-0.1,0.1-0.1c0.1,0,0.1,0,0.2,0c0.1,0,0.2,0.1,0.3,0.1s0.2,0.1,0.3,0.1c0,0,0.1,0,0.2,0l0.2-0.1
	c0,0,0-0.1,0.1-0.1c0,0,0-0.1,0.1-0.1c0-0.1,0.1-0.2,0.1-0.3c0-0.1,0-0.2,0-0.3C232,12.1,232,12.1,231.9,12L231.9,12z M232.6,10.4
	h0.6c0,0.3,0,0.5-0.1,0.8c0-0.1-0.1-0.2-0.1-0.2l-0.2-0.2c0-0.1,0-0.2,0-0.2C232.7,10.6,232.7,10.6,232.6,10.4
	C232.7,10.5,232.6,10.5,232.6,10.4L232.6,10.4z M232.9,13.7C232.8,13.7,232.8,13.7,232.9,13.7c-0.1,0.1-0.1,0.2-0.1,0.2l-0.4-0.4
	c0.5-0.6,0.9-1.3,1.1-2c0,0,0,0,0,0c0.1,0,0.1,0,0.2,0c0,0,0,0,0-0.1c0,0,0-0.1-0.1-0.2h0c0-0.2,0.1-0.5,0.1-0.7h1.1
	c0,1.4-0.6,2.8-1.6,3.8l0,0v0c0-0.1,0-0.2-0.1-0.4C233,13.7,233,13.7,232.9,13.7L232.9,13.7z M232.6,8C232.6,8,232.6,8,232.6,8
	c0,0,0,0.1,0,0.1c0,0,0,0.1,0,0.1c0.1,0.1,0.1,0.1,0.2,0.2c0.1,0.1,0.2,0.1,0.2,0.2c0.1,0.1,0.1,0.2,0.1,0.3c0,0.1,0.1,0.2,0.1,0.3
	c0,0.1,0,0.1-0.1,0.2c-0.1,0.1-0.2,0.2-0.3,0.2l0,0c0-0.1,0-0.1,0.1-0.2c0,0,0-0.1,0.1-0.2c0.1,0,0.1-0.1,0.1-0.2c0,0-0.1,0-0.1,0
	c0,0-0.1-0.1-0.1-0.1c0,0-0.1-0.1-0.2-0.1c0,0-0.1,0-0.1,0c0,0-0.1,0.1-0.1,0.1l0-0.1c0,0,0-0.1,0-0.1l-0.2-0.4
	c-0.1,0-0.2-0.1-0.3-0.1c-0.1,0-0.1,0-0.2,0c-0.1,0-0.1,0-0.2,0c-0.1,0-0.2,0-0.2,0.1c-0.1,0-0.1,0.1-0.2,0.2c0,0,0,0.1-0.1,0.1
	c0,0,0,0-0.1-0.1l1.2-1.2c0,0,0,0,0,0c0,0,0,0.1,0.1,0.1c0,0,0.1,0.1,0.1,0.1C232.4,7.7,232.5,7.8,232.6,8L232.6,8z M229.7,15.8
	c0.1,0.1,0.2,0.1,0.3,0.2c-0.3,0.1-0.7,0.1-1,0.1V15l0,0c0,0.1,0.1,0.1,0.2,0.2c0.1,0,0.2,0,0.2,0c0.1,0,0.2,0,0.2,0.1
	c0,0,0,0.1,0,0.1c0,0,0,0.1,0,0.1C229.6,15.6,229.6,15.8,229.7,15.8L229.7,15.8z M229.1,17.7v-1.2c0.4,0,0.9-0.1,1.3-0.2
	c0,0,0,0,0,0c0,0,0,0,0,0c0.1,0.1,0.2,0.2,0.3,0.2c0,0.1,0.1,0.1,0.3,0.1c0.1,0,0.1,0,0.2-0.1c0,0,0.1-0.1,0.1-0.1
	c0,0,0.1-0.1,0.1-0.1c0,0,0.1,0,0.1-0.1c0.1,0,0.1-0.1,0.2-0.2c0.1-0.1,0.1-0.1,0.2-0.2c0,0,0.1,0,0.1-0.1c0-0.1,0.1-0.2,0.1-0.3
	c0,0,0,0,0,0c0,0,0,0,0,0c0.4-0.2,0.8-0.5,1.1-0.8l0.8,0.8C232.7,16.9,230.9,17.7,229.1,17.7L229.1,17.7z M234.3,15.4l-0.8-0.8
	c1-1.1,1.6-2.6,1.7-4.1h1.2C236.3,12.3,235.6,14.1,234.3,15.4L234.3,15.4z M236.4,10.1h-1.2c0-1.3-0.5-2.5-1.2-3.5
	c0,0,0-0.1-0.1-0.1c0,0,0,0-0.1-0.1c-0.1-0.1-0.2-0.2-0.3-0.4c0,0,0-0.1,0-0.1l0.8-0.8C235.6,6.4,236.3,8.2,236.4,10.1L236.4,10.1z
	 M229.1,2.8c1.8,0,3.6,0.8,4.9,2l-0.7,0.7c0,0,0-0.1,0-0.1c-0.1-0.1-0.1-0.1-0.1-0.1c-0.1,0-0.1-0.1-0.1-0.2c0-0.1,0-0.1-0.1-0.2
	c-0.1,0-0.2-0.1-0.3-0.2c-0.1-0.1-0.1-0.2-0.2-0.2c-0.1,0-0.1,0-0.2,0c-0.1,0-0.1,0-0.2,0c-0.1,0-0.1,0-0.2,0c-0.1,0-0.1,0-0.2,0
	c0,0,0,0,0,0c-0.8-0.4-1.7-0.6-2.6-0.7c0.1-0.1,0.1-0.2,0-0.2c0,0-0.1,0-0.1,0.1L229.1,2.8z M229.1,4.4c0.8,0,1.7,0.2,2.4,0.6
	c0,0,0,0,0,0c0,0,0.1,0.1,0.1,0.1c0,0,0.1,0.1,0.1,0.1c0,0.1,0,0.2,0.1,0.2c0,0,0,0.1,0.1,0.1c0,0.1,0,0.2,0,0.2
	c0,0.1,0.1,0.2,0.1,0.2c0,0,0.1,0,0.1,0c0,0,0.1,0,0.1,0c0,0,0.1,0,0.1,0.1c0,0,0.1,0.1,0.1,0.2c0,0,0,0.1,0,0.1l-0.3,0.3l0,0
	c0-0.2-0.1-0.3-0.2-0.4c-0.1,0-0.1-0.1-0.2-0.1c0,0-0.1-0.1-0.2-0.2c-0.1-0.1-0.2-0.2-0.2-0.2c0,0-0.1,0-0.1,0c0,0,0,0.1,0.1,0.1
	c0,0,0.1,0.1,0.1,0.2c0,0,0,0,0,0.1c0,0,0,0,0,0c0,0.1,0.1,0.1,0.1,0.1l0,0.1l0.1,0.2c-0.8-0.6-1.7-0.9-2.6-0.9L229.1,4.4z
	 M229.1,5.9c1,0,2,0.4,2.7,1.1L231,7.8c-0.5-0.5-1.2-0.8-1.9-0.8V5.9z M229.1,7.4c0.6,0,1.1,0.3,1.6,0.6c0,0,0,0-0.1,0
	c0,0,0,0-0.1,0c0,0,0,0,0,0.1c0,0,0.1,0.1,0.1,0.1l-0.3,0.3l0,0c0,0-0.1,0-0.1,0.1c-0.1,0-0.1,0.1-0.1,0.1c0,0,0,0,0,0.1l-0.1,0.1
	c0,0,0,0,0,0c0,0-0.1,0-0.2-0.1c-0.1-0.1-0.1-0.1-0.2-0.1c0,0-0.1,0-0.1,0c0,0,0,0-0.1,0c0,0,0-0.1,0.1-0.1s0.2-0.1,0.2-0.1
	c0.1-0.1,0.2-0.3,0.2-0.4c0-0.1,0-0.1-0.1-0.1l-0.1,0.1c-0.1,0-0.1,0.1-0.2,0.1c-0.1,0-0.1,0.1-0.1,0.1c0,0-0.1,0-0.2,0h-0.2l0,0
	L229.1,7.4z M228.8,9.2C228.9,9.3,228.9,9.3,228.8,9.2c0.1,0,0.1,0.1,0.2,0.1c0,0,0.1,0,0.1,0c0,0,0,0,0,0c0,0,0.1,0.1,0.1,0.1
	c0,0,0,0,0,0c0,0,0,0,0,0c0,0,0,0.1,0,0.1c0,0,0,0,0,0c0,0,0,0,0,0c0,0,0.1,0,0.1,0c0,0,0,0,0.1,0c0,0,0,0,0,0.1h0c0,0,0,0,0,0.1
	c0,0,0,0.1,0,0.1v0.1c0,0,0,0,0,0c0,0-0.1,0.1-0.1,0.2c0,0,0,0,0.1,0c0,0,0.1,0,0.1,0c0,0,0.1,0.1,0.1,0.2v0.2c0,0,0,0.1,0,0.1
	s0,0,0,0c0,0.1,0,0.1,0,0.2c0,0.1,0,0.1-0.1,0.2c0,0-0.1,0-0.1,0c-0.1,0-0.1,0-0.2,0c0,0-0.1,0.1-0.1,0.2c0,0.1-0.1,0.2-0.1,0.2
	c0,0.1-0.1,0.1-0.1,0.1c0,0-0.1,0-0.1,0c0,0,0,0,0,0l-0.1,0.1l0,0c-0.3,0-0.6-0.1-0.8-0.3l0.1-0.1c0.1,0,0.2,0,0.3-0.1c0,0,0,0,0,0
	c0.1-0.1,0.1-0.2,0.2-0.3c0-0.1,0.2-0.2,0.1-0.3c0.1-0.2-0.4-0.2-0.5-0.2c-0.1,0.1,0,0.2-0.1,0.3c0,0-0.1,0-0.1,0.1
	c-0.1,0.1-0.2,0.2-0.2,0.3l0,0c0-0.1-0.1-0.1-0.1-0.2c0,0,0,0,0,0c0,0,0,0,0,0h0v0c0.1,0,0.1,0,0.1,0c0,0,0-0.1,0-0.1
	c0-0.1,0.1-0.2,0.1-0.3c0,0-0.1,0-0.1-0.1c0,0,0,0-0.1,0c0,0,0,0,0,0.1c0,0,0,0.1,0,0.1c0,0-0.1,0-0.1,0.1c0,0,0-0.1-0.1-0.1
	c0,0,0,0,0,0c0,0-0.1,0-0.1,0.1c0,0-0.1,0-0.2,0c-0.1,0-0.2,0-0.2,0c0,0,0-0.1,0.1-0.1c0-0.1,0-0.2,0.1-0.3c0,0,0.1,0,0.2,0.1
	l0.1-0.1h0c0.1,0,0.1,0,0.1,0.1c0,0.1,0,0.1,0.1,0.1c0,0,0.1,0,0.1-0.1v-0.2c0-0.1,0.1-0.2,0.1-0.3V9.8c0,0,0-0.1,0.1-0.1h0
	c0,0,0.1,0,0.1-0.1c0,0,0-0.1,0.1-0.2c0.1,0,0.1-0.1,0.3-0.1c0.1-0.1,0.2-0.1,0.2-0.2c0,0,0,0,0,0C228.7,9.2,228.8,9.2,228.8,9.2
	C228.8,9.2,228.8,9.2,228.8,9.2z M228.7,2.8V4c-1.5,0-3,0.6-4.1,1.7l-0.8-0.8C225.1,3.6,226.8,2.8,228.7,2.8L228.7,2.8z M223.5,5.1
	l0.8,0.8c-1,1.1-1.6,2.6-1.7,4.1h-1.2C221.5,8.2,222.2,6.4,223.5,5.1z"/>
<path id="Path_468_11_" class="st3" d="M209.8,23.2V2.4"/>
</svg>
