<?xml version="1.0" encoding="utf-8"?>
<!-- Generator: Adobe Illustrator 26.0.1, SVG Export Plug-In . SVG Version: 6.00 Build 0)  -->
<svg version="1.1" id="Layer_1" xmlns="http://www.w3.org/2000/svg" xmlns:xlink="http://www.w3.org/1999/xlink" x="0px" y="0px"
	 viewBox="0 0 240 28" style="enable-background:new 0 0 240 28;" xml:space="preserve">
<style type="text/css">
	.st0{fill:#1B344A;}
	.st1{fill:#5090CD;}
	.st2{fill:none;stroke:#B7B6B6;stroke-width:0.39;}
</style>
<g>
	<path class="st0" d="M62.5,10.6c-0.5,0.5-0.9,0.8-1.5,1c-0.8,0.3-1.7,0.5-2.6,0.5c-1.3,0.1-2.6-0.6-3.6-1.4
		c-0.9-1.1-1.4-2.4-1.3-3.8V6.3c-0.1-1.4,0.5-2.9,1.3-4c0.9-1,2.3-1.6,3.6-1.5c0.8,0,1.6,0.1,2.3,0.5c0.7,0.2,1.2,0.6,1.8,1.1v2.3
		h-1.6l-0.3-1.4C60.3,3,60,2.8,59.8,2.7c-0.4-0.2-0.7-0.2-1.1-0.2c-0.9,0-1.7,0.4-2.3,1.1c-0.5,0.8-0.8,1.8-0.8,2.8v0.4
		c-0.1,1,0.2,1.9,0.8,2.7c0.6,0.7,1.3,1.1,2.3,1c0.4,0,0.8,0,1-0.1c0.3-0.1,0.5-0.2,0.7-0.3V8.1L58.9,8V6.4h3.8L62.5,10.6L62.5,10.6
		z"/>
	<path class="st0" d="M63.6,11.9v-1.3l1.1-0.2V2.5l-1.1-0.2V1H68v1.3l-1.2,0.2v7.7h3l0.1-1.3h1.7v3.1H63.6z"/>
	<path class="st0" d="M82.2,6.5c0.1,1.4-0.5,2.9-1.3,3.9s-2.3,1.6-3.6,1.5c-1.3,0.1-2.6-0.6-3.6-1.5c-0.9-1.1-1.4-2.5-1.3-3.9V6.3
		c0-1.4,0.5-2.9,1.4-3.9c0.9-1.1,2.3-1.6,3.6-1.6C78.7,0.7,80,1.4,81,2.4c0.9,1.1,1.4,2.5,1.3,3.9L82.2,6.5z M80,6.3
		c0-1-0.2-1.9-0.8-2.8c-0.5-0.8-1.2-1.1-2-1.1c-0.8-0.1-1.6,0.4-2.1,1.1c-0.5,0.8-0.8,1.8-0.8,2.8v0.2c-0.1,1,0.2,2,0.8,2.8
		c0.5,0.8,1.2,1.1,2.1,1.1c0.8,0.1,1.6-0.4,2.1-1.1c0.6-0.8,0.8-1.8,0.8-2.8L80,6.3L80,6.3z"/>
	<path class="st0" d="M87.9,1c1-0.1,2.1,0.2,2.9,0.8c0.8,0.6,1.1,1.3,1,2.3c0,0.5-0.1,1-0.4,1.3c-0.3,0.5-0.8,0.8-1.1,0.9
		c0.7,0.1,1,0.5,1.5,0.9c0.4,0.5,0.6,1,0.6,1.6c0.1,0.9-0.4,1.8-1,2.4c-0.9,0.7-1.9,0.9-2.9,0.8h-5.3v-1.3l1.1-0.2V2.5l-1.2-0.2V1
		H87.9z M86.4,5.6H88c0.5,0,0.9-0.1,1.3-0.4c0.4-0.3,0.6-0.7,0.6-1.1s-0.2-0.8-0.5-1.1c-0.5-0.3-0.9-0.4-1.4-0.4h-1.5L86.4,5.6
		L86.4,5.6z M86.4,7.1v3.1h2c0.5,0,0.9-0.1,1.3-0.4C90,9.5,90.1,9,90.1,8.7c0-0.5-0.1-0.9-0.4-1.2C89.4,7.2,89,7,88.5,7L86.4,7.1z"
		/>
	<path class="st0" d="M93,10.5l0.8-0.1L97,0.9h2.3l3.3,9.6l0.8,0.1v1.3h-3.8v-1.3l0.8-0.1l-0.5-1.5h-3.5l-0.5,1.5l0.8,0.1v1.3h-3.8
		L93,10.5z M96.9,7.3h2.5l-1.1-3.8l0,0L96.9,7.3z"/>
	<path class="st0" d="M104.1,11.9v-1.3l1.1-0.2V2.5l-1.1-0.2V1h4.4v1.3l-1.2,0.2v7.7h3l0.1-1.3h1.7v3.1H104.1z"/>
	<path class="st0" d="M116.7,2.3V1h4.4v1.3L120,2.5v3.2h4.4V2.5l-1.1-0.2V1h4.4v1.3l-1.1,0.2v7.9l1.1,0.2V12h-4.4v-1.3l1.1-0.2V7.3
		H120v3.1l1.1,0.2v1.3h-4.4v-1.3l1.1-0.2V2.5L116.7,2.3z"/>
	<path class="st0" d="M132.9,1v1.3l-1.1,0.2v5.6c-0.1,0.7,0.2,1.1,0.6,1.6c0.5,0.4,0.9,0.6,1.6,0.6c0.7,0,1.1-0.2,1.6-0.6
		c0.5-0.5,0.7-1,0.6-1.6V2.5l-1-0.2V1h4.4v1.3l-1.2,0.2v5.6c0.1,1.1-0.4,2.2-1.2,2.9c-1.9,1.3-4.3,1.3-6.3,0
		c-0.8-0.8-1.2-1.8-1.1-2.9V2.5l-1.1-0.2V1H132.9L132.9,1z"/>
	<path class="st0" d="M150.6,3.8L150.6,3.8l-2.9,8.1h-1.4l-2.8-8.1l0,0l0.2,4.8v1.8l1.1,0.2V12h-4.4v-1.3l1.1-0.2V2.5l-1.3-0.2V1h4
		l2.7,8.1h0.1l2.7-8.1h4v1.3l-1.1,0.2v7.9l1.1,0.2V12h-4.3v-1.3l1.1-0.2V8.6L150.6,3.8z"/>
	<path class="st0" d="M154.3,10.5l0.8-0.1l3.3-9.6h2.3l3.3,9.6l0.8,0.1v1.3H161v-1.3l0.8-0.1l-0.5-1.5h-3.5l-0.5,1.5l0.8,0.1v1.3
		h-3.7L154.3,10.5z M158.3,7.3h2.5l-1.2-3.8l0,0L158.3,7.3z"/>
	<path class="st0" d="M176.4,1v1.3l-1.1,0.2v9.4h-2.2l-4.3-7.5l0,0v5.9l1.1,0.2v1.3h-4.4v-1.3l1.1-0.2V2.5l-1.2-0.2V1h3.3l4.3,7.4
		h0.1V2.5L172,2.3V1H176.4L176.4,1z"/>
	<path class="st0" d="M177.2,2.3V1h4.4v1.3l-1.1,0.2v7.9l1.1,0.2V12h-4.4v-1.3l1.1-0.2V2.5L177.2,2.3z"/>
	<path class="st0" d="M191.9,1v2.9h-1.7V2.6h-2v7.8l1.1,0.2v1.3h-4.5v-1.3l1.1-0.2V2.6h-2l-0.1,1.1h-1.7V0.9L191.9,1L191.9,1z"/>
	<path class="st0" d="M191.2,10.5l0.8-0.1l3.3-9.6h2.3l3.3,9.6l0.8,0.1v1.3H198v-1.3l0.8-0.1l-0.5-1.5h-3.5l-0.5,1.5l0.8,0.1v1.3
		h-3.7L191.2,10.5z M195.1,7.3h2.5l-1.2-3.8h-0.1L195.1,7.3z"/>
	<path class="st0" d="M207.1,1c1-0.1,2.1,0.3,2.8,0.9c0.8,0.6,1,1.4,1,2.3c0,0.6-0.2,1-0.5,1.4c-0.4,0.5-0.8,0.8-1.2,1
		c0.6,0.1,0.9,0.5,1.3,0.9c0.3,0.6,0.5,1.1,0.5,1.6v0.6c0,0.2,0,0.4,0.2,0.6c0.1,0.2,0.3,0.3,0.5,0.3h0.3v1.3h-1.1
		c-0.6,0.1-1.1-0.2-1.5-0.6c-0.3-0.5-0.5-1-0.5-1.5V9.1c0-0.5-0.1-0.9-0.5-1.2c-0.4-0.4-0.8-0.6-1.1-0.5h-1.8v3l1.1,0.2v1.3h-4.4
		v-1.3l1.1-0.2V2.5l-1.1-0.2V1H207.1z M205.6,5.8h1.5c0.5,0,0.9-0.1,1.3-0.4c0.3-0.3,0.5-0.8,0.5-1.1s-0.2-0.9-0.5-1.1
		c-0.4-0.4-0.8-0.5-1.3-0.5h-1.5V5.8z"/>
	<path class="st0" d="M212.7,2.3V1h4.4v1.3L216,2.5v7.9l1.1,0.2V12h-4.4v-1.3l1.1-0.2V2.5L212.7,2.3z"/>
	<path class="st0" d="M217.9,10.5l0.8-0.1l3.3-9.6h2.3l3.3,9.6l0.8,0.1v1.3h-3.7v-1.3l0.8-0.1l-0.5-1.5h-3.6l-0.5,1.5l0.8,0.1v1.3
		h-3.7V10.5z M221.9,7.3h2.5l-1.2-3.8H223L221.9,7.3z"/>
	<path class="st0" d="M240,1v1.3l-1.1,0.2v9.4h-2.2l-4.3-7.5l0,0v5.9l1.1,0.2v1.3H229v-1.3l1.1-0.2V2.5l-1.2-0.2V1h3.3l4.3,7.4l0,0
		V2.5l-1-0.2V1H240z"/>
	<path class="st0" d="M63.4,21.9c0.1,1.4-0.5,2.9-1.3,3.9c-0.9,1.1-2.3,1.6-3.6,1.6c-1.3,0.1-2.6-0.6-3.6-1.6
		c-0.9-1.1-1.4-2.5-1.3-3.9v-0.2c-0.1-1.4,0.5-2.9,1.3-3.9c0.9-1.1,2.3-1.6,3.6-1.6c1.3,0,2.6,0.6,3.6,1.6c0.9,1.1,1.4,2.5,1.3,3.9
		V21.9z M61.2,21.7c0.1-1-0.2-1.9-0.8-2.8c-0.5-0.8-1.2-1.1-2.1-1.1c-0.8-0.1-1.6,0.4-2.1,1.1c-0.3,0.8-0.6,1.8-0.6,2.8v0.2
		c-0.1,1,0.2,2,0.8,2.8c0.5,0.8,1.2,1.1,2.1,1.1c0.8,0.1,1.6-0.4,2.1-1.1c0.6-0.8,0.8-1.8,0.8-2.8v-0.2H61.2z"/>
	<path class="st0" d="M67.9,17.7l-0.9,0.1l2,6.6l0.2,0.7l0,0l0.1-0.6l2-6.6l-0.8-0.2v-1.3h3.9v1.3l-0.9,0.1l-3.2,9.6H68l-3.2-9.7
		L64,17.6v-1.3h3.9L67.9,17.7L67.9,17.7z"/>
	<path class="st0" d="M82,22.4h-3.6v3.2h3.5l0.1-1.3h1.6v3h-8.5v-1.3l1.1-0.2v-7.8l-1.1-0.2v-1.3h8.5v3h-1.7L81.8,18h-3.5v2.8H82
		L82,22.4L82,22.4z"/>
	<path class="st0" d="M89.6,16.3c1-0.1,2.1,0.3,2.9,0.9c0.8,0.6,1,1.4,1,2.3c0,0.6-0.2,1-0.5,1.4c-0.4,0.5-0.8,0.8-1.2,1
		c0.6,0.2,1,0.5,1.4,1c0.3,0.6,0.5,1.1,0.5,1.6V25c0,0.2,0,0.4,0.2,0.6c0.1,0.2,0.3,0.3,0.5,0.3h0.3v1.3h-1.3
		c-0.6,0.1-1.1-0.2-1.5-0.6c-0.3-0.5-0.5-1-0.5-1.5v-0.7c0-0.5-0.1-0.9-0.5-1.2c-0.3-0.4-0.8-0.6-1.1-0.5H88v2.8l1.1,0.2V27h-4.4
		v-1.2l1.1-0.2v-7.8l-1.1-0.2v-1.3L89.6,16.3L89.6,16.3z M88.1,21.2h1.5c0.5,0,0.9-0.1,1.3-0.4c0.4-0.3,0.5-0.8,0.5-1.1
		c0-0.5-0.2-0.9-0.5-1.1c-0.4-0.4-0.9-0.5-1.3-0.5h-1.5V21.2z"/>
	<path class="st0" d="M98.3,17.7l-0.8,0.2l2,6.6l0.2,0.7l0,0l0.1-0.6l2-6.6l-0.8-0.2v-1.3h3.9v1.3h-0.9l-3.2,9.6h-2.3l-3.2-9.6
		l-0.9-0.1v-1.3h3.9L98.3,17.7z"/>
	<path class="st0" d="M105.4,17.7v-1.3h4.4v1.3l-1.1,0.2v7.8l1.1,0.2v1.3h-4.4V26l1.1-0.2v-7.9L105.4,17.7z"/>
	<path class="st0" d="M117.7,22.4H114v3.2h3.5l0.1-1.3h1.7v3h-8.5v-1.3l1.1-0.2v-7.8l-1.1-0.2v-1.3h8.5v3h-1.7l-0.1-1.3H114v2.8h3.7
		V22.4z"/>
	<path class="st0" d="M134.5,17.7l-0.9,0.1l-2.3,9.6h-2.1l-2-7.2l0,0l-2,7.2h-2.1l-2.3-9.6l-0.9-0.1v-1.3h4v1.3l-0.9,0.2l1.2,6h0.1
		l2.1-7.5h1.6l2.1,7.5l0,0l1.2-6l-0.9-0.2v-1.3h4L134.5,17.7z"/>
	<path class="st1" d="M139.2,27.3v-1l3.6-3.9c0.5-0.6,0.9-1.1,1.2-1.7c0.2-0.4,0.4-0.8,0.4-1.2c0-0.6-0.2-1-0.5-1.3
		c-0.3-0.4-0.8-0.6-1.2-0.6c-0.7-0.1-1.2,0.2-1.7,0.6c-0.4,0.5-0.6,1.1-0.6,1.6H139l0,0c-0.1-0.9,0.3-1.7,0.9-2.3
		c0.8-0.7,1.7-1,2.6-1c0.9,0,1.7,0.3,2.3,0.9c0.7,0.6,0.9,1.3,0.9,2.2c0,0.7-0.2,1.2-0.6,1.8c-0.5,0.8-0.9,1.3-1.5,1.9l-2.8,3.2l0,0
		h3.8l0.1-1.2h1.2v2.2L139.2,27.3L139.2,27.3z"/>
	<path class="st1" d="M154.7,23.1c0.1,1.1-0.3,2.3-0.9,3.3c-1.2,1.4-3.5,1.5-4.8,0.2c-0.1-0.1-0.2-0.2-0.2-0.2
		c-0.7-0.9-0.9-2.1-0.9-3.3v-2.6c-0.1-1.1,0.3-2.3,0.9-3.3c1.2-1.4,3.5-1.5,4.8-0.2c0.1,0.1,0.2,0.2,0.2,0.2
		c0.7,0.9,0.9,2.1,0.9,3.3V23.1z M153.3,20.2c0.1-0.8-0.1-1.5-0.6-2.2c-0.4-0.5-0.9-0.8-1.5-0.8s-1.1,0.3-1.4,0.8
		c-0.4,0.7-0.6,1.3-0.6,2.2v3.3c-0.1,0.8,0.1,1.5,0.6,2.2c0.7,0.8,1.8,1,2.6,0.4c0.1-0.1,0.3-0.2,0.4-0.4c0.4-0.7,0.6-1.4,0.6-2.2
		L153.3,20.2L153.3,20.2z"/>
	<path class="st1" d="M156.3,27.3v-1l3.6-3.9c0.5-0.6,0.9-1.1,1.2-1.7c0.2-0.4,0.4-0.8,0.4-1.2c0-0.6-0.2-1-0.5-1.3
		c-0.3-0.4-0.8-0.6-1.2-0.6c-0.7-0.1-1.2,0.2-1.7,0.6c-0.4,0.5-0.6,1.1-0.6,1.6h-1.4l0,0c-0.1-0.9,0.3-1.7,0.9-2.3
		c0.8-0.7,1.7-1,2.6-1c0.9,0,1.7,0.3,2.3,0.9c0.7,0.6,0.9,1.3,0.9,2.2c0,0.7-0.2,1.2-0.6,1.8c-0.5,0.8-0.9,1.3-1.4,1.9l-2.8,3.2l0,0
		h3.8l0.1-1.2h1.2v2.2L156.3,27.3z"/>
	<path class="st1" d="M164.8,27.3v-1l3.6-3.9c0.5-0.6,0.9-1.1,1.2-1.7c0.2-0.4,0.4-0.8,0.4-1.2c0-0.6-0.2-1-0.5-1.3
		c-0.3-0.4-0.8-0.6-1.2-0.6c-0.7-0.1-1.2,0.2-1.7,0.6c-0.4,0.5-0.6,1.1-0.6,1.6h-1.4l0,0c-0.1-0.9,0.3-1.7,0.9-2.3
		c0.8-0.7,1.7-1,2.6-1c0.9,0,1.7,0.3,2.3,0.9c0.7,0.6,0.9,1.3,0.9,2.2c0,0.7-0.2,1.2-0.6,1.8c-0.5,0.8-0.9,1.3-1.4,1.9l-2.8,3.2l0,0
		h3.8l0.1-1.2h1.2v2.2L164.8,27.3z"/>
	<path id="Path_469" class="st1" d="M3.1,7.6C3.5,7.2,4,6.8,4.4,6.4C4.6,6.2,4.8,6.1,4.9,6c0.2-0.1,0.4-0.2,0.4-0.4
		c0.1-0.2,0.2-0.5,0.3-0.7L6,3.8l0,0c-0.3,0.4-0.5,0.7-0.7,1C5.1,5.1,4.7,5.3,4.4,5.5C4.1,5.7,3.8,6,3.6,6.1
		C3.2,6.5,2.8,6.9,2.6,7.3l0,0C2.8,6.7,3,6.1,3.1,5.7l0.3-1.1C3.5,4.2,3.6,4,3.8,3.8C3.9,3.5,4.1,3.2,4.3,3l0,0
		C3.8,3.3,3.2,3.7,2.8,4.1c-0.5,0.6-0.6,1.3-0.6,2v2.5C2.5,8.3,2.7,8,3.1,7.6z M4.8,4.5c0.4-0.4,0.6-0.7,0.9-1.1s0.6-0.8,0.8-1
		c0.3-0.4,0.6-0.7,0.9-1l0,0C7.1,1.7,6.8,1.9,6.5,2c-0.4,0.1-0.7,0.3-1,0.5s-0.8,0.5-1,1C4,4,3.8,4.8,3.6,5.6C4,5.3,4.4,4.9,4.8,4.5
		z M0.8,14C1,14.4,1.3,14.8,1.5,15c0.4,0.4,0.7,0.8,0.9,1.2l0,0c0-0.2,0-0.4,0-0.6v-0.6c0-0.4,0.1-0.7,0.2-1
		c0.2-0.5,0.3-0.9,0.5-1.4c0.2-0.6,0.3-1.1,0.4-1.6c0.1-0.6,0.2-1,0.1-1.5l0,0c-0.1,0.4-0.2,0.7-0.4,0.9l-0.6,0.9
		c-0.2,0.4-0.4,0.8-0.6,1.1c-0.1,0.8-0.1,1.3,0,2c0,0.2,0.1,0.3,0.1,0.5l0,0c-0.1-0.6-0.2-1-0.5-1.5C1.4,12.8,1.2,12.5,1,12
		s-0.3-0.9-0.4-1.1s-0.2-0.6-0.2-0.8c0-0.2,0-0.4,0-0.6c0-0.2,0-0.4,0-0.6l0,0C0.4,9.2,0.3,9.6,0.2,9.8C0.1,10.2,0,10.6,0,11
		c0,0.7,0.1,1.1,0.2,1.7C0.5,13.1,0.7,13.5,0.8,14z M7.3,23.8c0.1,0,0.3,0,0.4,0c0.2,0,0.4,0,0.6,0c0.2,0,0.4,0,0.7-0.1
		c0.3,0,0.7-0.1,0.9-0.3l1.8-0.5c-0.5-0.1-0.8-0.3-1.1-0.4s-0.8-0.4-0.9-0.7c-0.4-0.4-0.8-0.8-1.2-1.1l-0.9-0.9
		c-0.1-0.1-0.6-0.6-0.8-0.7l0,0c0.1,0.1,0.6,1,0.6,1l0.1,0.1l0.4,0.8l-0.1,0.4c0.2,0.3,0.4,0.6,0.7,0.8c0.5,0.4,0.9,0.7,1.5,0.8l0,0
		H8.9l-0.6-0.1l-0.6-0.1c-0.2,0-0.5,0-0.7-0.1c-0.2-0.1-0.4-0.1-0.6-0.1L6,22.5H5.9c-0.3,0-0.7-0.1-0.9-0.2s-0.6-0.2-0.8-0.4
		c-0.4-0.2-0.7-0.5-0.9-0.7l0,0c0.2,0.3,0.3,0.5,0.5,0.8c0.3,0.3,0.5,0.6,0.8,0.8c0.4,0.3,0.8,0.5,1,0.7c0.5,0.2,0.9,0.3,1.4,0.4
		L7.3,23.8L7.3,23.8z M1.8,12.5L1.8,12.5c0-0.2,0.1-0.4,0.1-0.6c0.1-0.2,0.2-0.5,0.3-0.7c0.2-0.3,0.4-0.7,0.6-0.9L3.7,9
		c0.2-0.4,0.4-0.8,0.5-1.2C4.3,7.3,4.4,7,4.5,6.7H4.4c0,0.1-0.1,0.3-0.2,0.4c-0.1,0-0.1,0.1-0.2,0.2C3.9,7.4,3.8,7.6,3.8,7.7
		L3.1,8.3C2.7,8.6,2.4,9,2.3,9.4C2.1,9.8,2,10.2,1.9,10.5H1.8c0-0.2,0-0.4,0-0.6s0-0.5,0-0.8c0-0.3,0-0.8,0-1.1
		c0-0.4-0.1-1.1-0.1-1.9c0-0.3,0.1-0.5,0.2-0.8C2,5.4,2.1,5.2,2.2,5l0,0C1.6,5.6,1.2,6.1,1,6.8C0.9,7.3,0.8,7.9,0.8,8.5
		s0.1,1.3,0.4,1.9C1.4,11.1,1.6,11.7,1.8,12.5L1.8,12.5z M5.5,21.8L7,22.2l0.8,0.2c-0.3-0.3-0.6-0.7-0.8-1c-0.2-0.3-0.4-0.7-0.5-1
		c-0.2-0.4-0.4-0.9-0.7-1.6c-0.1-0.2-0.2-0.4-0.3-0.6s-0.1-0.5-0.2-0.6c-0.1-0.2-0.3-0.4-0.4-0.7l-0.7-0.8l0,0
		c0.1,0.3,0.2,0.8,0.3,1.2L5,19.4c0.1,0.5,0.3,0.8,0.6,1.1c0.3,0.4,0.7,0.8,0.9,1l0,0c-0.4-0.2-0.7-0.4-0.9-0.6
		c-0.4-0.4-0.8-0.7-1.2-0.8C3.8,19.7,3,19.4,2.3,19c-0.6-0.4-0.9-0.8-1.1-1.4l0,0c0.2,0.6,0.4,1.1,0.8,1.6c0.3,0.5,0.6,0.9,0.9,1.3
		c0.5,0.4,0.9,0.7,1.3,0.9C4.4,21.6,5,21.7,5.5,21.8L5.5,21.8z M2.2,18.1l2.6,1.8c-0.1-0.3-0.3-0.5-0.4-0.8
		c-0.1-0.3-0.2-0.5-0.2-0.8c-0.1-0.3-0.1-0.6-0.1-0.9c0-0.4-0.1-0.8-0.1-1.1C4,15.6,3.9,15,3.8,14.7c-0.1-0.5-0.2-1-0.4-1.4l0,0
		c0,0.4,0,0.8-0.1,1.1c0,0.3-0.1,0.6-0.2,0.8C3,15.3,3,15.5,2.9,15.8c0,0.3-0.1,0.5-0.1,0.8c0,0.4,0.1,0.8,0.3,1
		c0.1,0.4,0.3,0.8,0.5,1l0,0c-0.4-0.6-0.8-1.1-1.1-1.6c-0.4-0.5-0.8-0.8-1-1.1c-0.3-0.3-0.7-0.7-0.9-1c-0.3-0.4-0.4-0.8-0.5-1.2
		C0,13.6,0,13.9,0,14.1c0,0.5,0.1,0.8,0.2,1.2c0.2,0.5,0.4,0.8,0.6,1.1c0.2,0.4,0.5,0.7,0.8,1C1.7,17.7,1.9,17.9,2.2,18.1z
		 M23.8,2.5l0.8,1c0.3,0.4,0.6,0.8,0.9,1.1c0.4,0.4,0.8,0.8,1.2,1c-0.2-0.8-0.5-1.4-0.9-2.1c-0.3-0.4-0.6-0.8-0.9-1
		C24.6,2.2,24.3,2,24,1.9c-0.3-0.1-0.6-0.3-0.8-0.5l0,0C23.3,1.8,23.6,2.1,23.8,2.5L23.8,2.5z M26.2,22c-0.3,0.2-0.6,0.3-0.8,0.4
		c-0.3,0.1-0.7,0.1-0.9,0.2h-0.3h-0.7l-0.6,0.1c-0.2,0-0.5,0.1-0.7,0.1l-0.6,0.1L21.3,23l-0.8,0.1l0,0c0.6-0.2,1-0.4,1.5-0.8
		c0.3-0.2,0.5-0.5,0.7-0.8l0.1-0.3c0.1-0.2,0.3-0.5,0.4-0.7l0.1-0.2c0,0,0.5-0.9,0.6-1l0,0c-0.1,0.1-0.7,0.6-0.8,0.7L22.1,21
		c-0.5,0.4-0.8,0.8-1.2,1.1c-0.3,0.3-0.7,0.5-0.9,0.7c-0.4,0.1-0.8,0.2-1.1,0.4l1.7,0.5c0.5,0.1,0.8,0.2,0.9,0.3l0.7,0.1
		c0.2,0,0.4,0,0.6,0h0.6h0.4c0.5-0.1,0.9-0.2,1.4-0.4c0.4-0.2,0.8-0.4,1-0.7c0.3-0.2,0.6-0.5,0.8-0.8c0.2-0.2,0.4-0.5,0.5-0.8l0,0
		c-0.3,0.3-0.6,0.5-0.9,0.7L26.2,22z M28.2,19c-0.8,0.5-1.4,0.8-2.2,1.1c-0.5,0.3-0.9,0.6-1.3,0.8c-0.3,0.3-0.6,0.5-0.9,0.6l0,0
		c0.4-0.4,0.8-0.8,0.9-1.1c0.3-0.4,0.5-0.8,0.5-1.1c0.1-0.6,0.3-1.1,0.4-1.8c0.1-0.7,0.3-1.1,0.3-1.3l0,0L25.2,17
		c-0.2,0.2-0.3,0.5-0.4,0.7c-0.1,0.2-0.2,0.4-0.3,0.6s-0.2,0.4-0.3,0.6c-0.3,0.7-0.5,1.1-0.7,1.6c-0.1,0.4-0.3,0.8-0.5,1
		c-0.2,0.4-0.5,0.8-0.8,1l0.8-0.2l1.5-0.4c0.6-0.1,0.9-0.3,1.4-0.6c0.5-0.3,0.9-0.6,1.3-0.9c0.5-0.4,0.8-0.8,1-1.2
		c0.3-0.6,0.6-1.1,0.7-1.6l0,0C29.1,18.1,28.7,18.6,28.2,19L28.2,19z M29.3,12c-0.2,0.4-0.4,0.8-0.6,1.3c-0.2,0.6-0.4,1-0.4,1.5l0,0
		c0-0.2,0-0.3,0.1-0.5c0.1-0.2,0.1-0.4,0.1-0.7c0-0.5-0.1-0.8-0.2-1.2c-0.2-0.4-0.4-0.8-0.6-1.1l-0.6-1c-0.2-0.3-0.3-0.6-0.4-0.9
		l0,0c-0.1,0.6,0,1,0.1,1.4c0.1,0.6,0.3,1.1,0.4,1.6c0.1,0.6,0.3,1,0.5,1.5c0.1,0.3,0.2,0.7,0.2,1v0.7c0,0.2,0,0.4,0,0.6l0,0
		c0.3-0.5,0.6-0.9,0.9-1.2c0.3-0.4,0.6-0.8,0.8-1.1c0.3-0.4,0.5-0.8,0.6-1.2c0.2-0.6,0.3-1.1,0.2-1.7c0-0.4-0.1-0.8-0.2-1.1
		C30,9.7,30,9.3,29.9,9.1l0,0c0,0.2,0,0.4,0,0.6c0,0.2,0,0.4,0,0.6c0,0.3-0.1,0.6-0.2,0.8C29.6,11.3,29.5,11.6,29.3,12L29.3,12z
		 M28.2,9.5C28,9,27.6,8.6,27.3,8.3l-0.7-0.7c-0.1-0.1-0.3-0.3-0.4-0.4C26.2,7.2,26.1,7.1,26,7c-0.1-0.1-0.1-0.2-0.2-0.3l0,0
		c0,0.2,0.2,0.6,0.3,1.1c0.1,0.5,0.3,0.9,0.5,1.2l0.9,1.3c0.2,0.3,0.4,0.7,0.6,0.9c0.1,0.2,0.2,0.4,0.3,0.7c0.1,0.2,0.1,0.4,0.1,0.6
		l0,0c0.2-0.8,0.4-1.4,0.8-2.1c0.3-0.7,0.4-1.2,0.4-1.9c0-0.6-0.1-1.1-0.3-1.7c-0.3-0.7-0.7-1.2-0.9-1.8l0,0
		c0.1,0.2,0.2,0.4,0.3,0.7c0.1,0.2,0.2,0.5,0.2,0.8c0,0.8,0,1.4-0.1,1.9s-0.1,0.9-0.1,1.2c0,0.4,0,0.6,0,0.8c0,0.2,0,0.4,0,0.6l0,0
		C28.4,10.3,28.3,9.9,28.2,9.5z M26.6,3.8c0.2,0.3,0.3,0.7,0.4,0.9l0.3,1.1c0.1,0.5,0.3,1,0.5,1.6l0,0c-0.2-0.5-0.5-0.8-0.8-1.1
		c-0.3-0.3-0.6-0.6-0.9-0.8c-0.3-0.2-0.6-0.5-0.8-0.7c-0.3-0.3-0.6-0.6-0.7-0.9l0,0l0.3,1c0.1,0.2,0.2,0.5,0.3,0.7s0.2,0.3,0.4,0.5
		c-0.1,0.1,0.1,0.3,0.3,0.5c0.6,0.5,0.9,0.8,1.3,1.1C27.6,8,28,8.3,28.1,8.7V6.1c0-0.8-0.2-1.4-0.7-2c-0.4-0.6-0.9-1-1.6-1.1l0,0
		C26.3,3.3,26.4,3.5,26.6,3.8L26.6,3.8z M22.5,24.5c-0.2,0-0.4,0-0.7-0.1l-0.7-0.1l0,0L20.4,24l-0.9-0.4L18,23.1
		c-0.4-0.1-0.8-0.2-0.9-0.2c-0.4,0-0.8,0.1-1,0.1l-0.9,0.4l-0.8-0.2c-0.3-0.1-0.7-0.2-0.9-0.2c-0.4,0-0.8,0.1-0.9,0.2L11,23.8
		c-0.8,0.3-1.3,0.5-1.8,0.7c-0.5,0-0.9,0.1-1.2,0.1c-0.2,0-0.4,0-0.6,0s-0.3-0.1-0.5-0.1c0,0-0.4-0.1-0.6-0.2
		c-0.2-0.1-0.4-0.3-0.7-0.4l0,0c0.4,0.4,0.8,0.8,1.2,1c0.7,0.4,1.2,0.6,2,0.6c0.3,0,0.6,0,0.8-0.1c0.3,0,0.5-0.1,0.8-0.2
		c0.2-0.1,0.5-0.2,0.8-0.4c0.3-0.2,0.7-0.4,0.9-0.6c0.4-0.2,0.8-0.5,0.9-0.7c0.3-0.2,0.7-0.3,0.9-0.3c0.2,0,0.3,0,0.5,0.1
		c-0.5,0.3-0.9,0.6-1.6,0.9c-0.7,0.5-1.2,0.9-1.8,1.4l0.7,0.6c0.6-0.7,1.1-1.2,1.8-1.7c0.5-0.5,1-0.8,1.6-1c0.7,0.3,1.1,0.7,1.7,1.1
		c0.7,0.6,1.2,1.1,1.8,1.7l0.7-0.6c-0.6-0.6-1.1-1.1-1.8-1.4c-0.7-0.4-1.1-0.8-1.6-0.9c0.2-0.1,0.3-0.1,0.5-0.1
		c0.4,0,0.7,0.1,0.9,0.3c0.3,0.2,0.7,0.4,0.9,0.7l0.9,0.6c0.3,0.2,0.5,0.3,0.8,0.4c0.2,0.1,0.5,0.2,0.8,0.2c0.2,0.1,0.4,0.1,0.7,0.1
		h0.1c0.6,0,1-0.2,1.6-0.4c0.7-0.3,1.1-0.8,1.6-1.2l0,0c-0.4,0.2-0.8,0.4-1.1,0.5C23.1,24.5,22.8,24.5,22.5,24.5z M30.3,14L30.3,14
		c0-0.2,0-0.2,0-0.3c0-0.1,0-0.2-0.1-0.4c-0.1,0.5-0.2,0.9-0.5,1.2c-0.3,0.4-0.6,0.8-0.8,1v0.2l-1.1,1.1c-0.5,0.6-0.8,1.1-1.1,1.6
		l0,0c0.2-0.4,0.3-0.7,0.5-1c0.1-0.4,0.2-0.8,0.2-1c0-0.3,0-0.5-0.1-0.8c0-0.2-0.1-0.5-0.1-0.7c0-0.2-0.1-0.6-0.1-0.8
		c0-0.4-0.1-0.8-0.1-1.1l0,0l0,0l0,0c-0.2,0.5-0.3,0.9-0.4,1.4c-0.1,0.5-0.2,1.1-0.3,1.8c0,0.5-0.1,0.8-0.1,1.1s-0.1,0.7-0.1,0.9
		c0,0.3-0.1,0.5-0.2,0.8c-0.1,0.2-0.2,0.4-0.3,0.6L25.6,20l0,0l0.9-0.7l1.8-1.1c0.3-0.2,0.5-0.4,0.8-0.7c0.3-0.3,0.5-0.7,0.8-1
		c0.1-0.3,0.2-0.6,0.3-0.8c0.1-0.2,0.2-0.3,0.2-0.5C30.3,14.9,30.3,14.6,30.3,14L30.3,14C30.3,14.1,30.3,14.1,30.3,14z M20,3.4
		l0.2,0.1c0,0.1,0.1,0.1,0.1,0.2l0.1,0.1c0.1,0,0.1,0,0.1-0.1s0-0.1,0-0.1s0,0,0-0.1s0-0.2-0.1-0.2c-0.1-0.1-0.2-0.1-0.4-0.1h-0.1
		l0,0C20,3.3,19.9,3.3,20,3.4L20,3.4L20,3.4z M16.2,2.5L16.2,2.5c0.2-0.1,0.4-0.1,0.6-0.1h0.6c0.1,0,0.2,0,0.2-0.1s0.1-0.1,0.1-0.2
		c-0.1-0.1-0.3-0.2-0.5-0.3c-0.1,0-0.3,0-0.4,0c-0.2,0-0.3,0.1-0.5,0.1l-0.5,0.2c-0.1,0-0.2,0-0.2,0.1c0.1,0.1,0.1,0.1,0.2,0.2
		C15.9,2.5,16.1,2.5,16.2,2.5L16.2,2.5z M15.1,22.3c6,0,10.8-4.9,10.8-10.9S21.1,0.5,15.1,0.5S4.3,5.5,4.3,11.4
		C4.3,17.4,9.2,22.3,15.1,22.3L15.1,22.3z M4.9,11.7h1.6c0,0.8,0.2,1.4,0.4,2.2c-0.1,0-0.1,0-0.1-0.1v-0.1l-0.2-0.3l-0.4,0.1
		c0,0.2-0.1,0.3-0.2,0.2c0,0-0.1-0.1-0.2-0.1c-0.2,0-0.4,0.1-0.4,0.3l0,0c0,0.2-0.1,0.3-0.1,0.5L5.7,15c0,0.1,0.1,0.1,0.2,0
		C6,15,6,15.1,6,15.2c0.1,0.1,0.1,0.1,0.2,0.1c0.1,0,0.1,0,0.1-0.1l0,0l0,0l0.2,0.2c0.1,0.1,0.1,0.1,0.2,0.2l0,0
		c0.1,0.1,0.2,0.1,0.3,0.1c0,0.2,0.1,0.3,0.2,0.4c0.1,0.1,0.2,0.2,0.3,0.2c0.1,0,0.1,0,0.2-0.1c0,0.1,0.1,0.3,0.2,0.4l0.4,0.2
		c0.1,0,0.1,0.1,0.2,0.1h0.1c0,0.1,0.1,0.2,0.2,0.3c0.1,0.1,0.2,0.2,0.2,0.2l0,0H9l0.1,0.1l-1.2,1.1C6,16.7,5,14.3,4.9,11.7
		L4.9,11.7z M12.8,8.6L12.8,8.6l-0.2-0.2c0.7-0.6,1.4-0.9,2.3-1v1.1h-0.1l0,0l0,0h-0.1h-0.1h-0.1h-0.1c0,0-0.1-0.1-0.1-0.2l0,0
		c-0.1,0-0.1,0.1-0.1,0.1s0,0.1-0.1,0.3C14.1,8.9,14,9,13.9,9s-0.2,0.1-0.2,0.1L13.6,9h-0.2l-0.1-0.1h-0.1l0,0c0,0-0.1,0-0.1,0.1
		l0,0L13,8.9l0,0V8.8C12.9,8.7,12.9,8.6,12.8,8.6L12.8,8.6z M12.2,8.1l-1-1.1c1-1,2.3-1.5,3.8-1.6V7C13.9,7.1,12.9,7.4,12.2,8.1
		L12.2,8.1z M12.8,13.3c0.1-0.1,0-0.2,0.1-0.3l-0.1,0.1c0.1-0.1,0.2-0.2,0.2-0.3s0.1-0.2,0.1-0.2l0,0l0.1,0.2l-0.9,1.1
		c-0.5-0.5-0.8-1-0.8-1.6c0.1,0,0.2,0,0.3,0.1l0.3,0.2c0.1,0,0.1,0,0.2,0l0.2,0.1c0,0.1,0,0.1,0,0.2c0,0,0,0.1,0.1,0.1
		c0.1,0,0.2,0,0.2,0.1h0.1c0-0.1,0-0.1,0-0.2c0-0.1,0-0.1,0-0.1l0.1,0.3L12.8,13.3L12.8,13.3C12.8,13.4,12.8,13.4,12.8,13.3
		L12.8,13.3z M14.9,14.6C15,14.7,15,14.7,14.9,14.6c0.1,0.1,0,0.2-0.2,0.2s-0.1,0.1-0.2,0.2l-0.1,0.4h-0.1c-0.8-0.1-1.3-0.5-1.9-0.9
		l0.9-1c0.4,0.4,0.8,0.6,1.3,0.7c0,0.1,0,0.1,0,0.2c-0.1,0.1-0.1,0.1-0.1,0.2C14.8,14.4,14.8,14.5,14.9,14.6L14.9,14.6z M10.1,14.6
		c0-0.2,0-0.5-0.1-0.7c0-0.1-0.1-0.3-0.1-0.4c0-0.2-0.1-0.4-0.1-0.5c-0.1-0.2-0.2-0.4-0.4-0.5v-0.2c0-0.1,0-0.2-0.1-0.2l0,0
		c0,0,0-0.1,0.1-0.1L9.8,12c0-0.1,0-0.3,0-0.4l0.3,0.1c0.1,0,0.1-0.1,0.1-0.2c0-0.1,0-0.2-0.1-0.2c0-0.1-0.1-0.2-0.1-0.3
		s0-0.1,0.1-0.1c0.1,0,0.2-0.1,0.2-0.1c0.1,0,0.2,0,0.3,0.1c0.1,0.1,0.1,0.2,0.1,0.3s0,0.1,0,0.2c0,0.1,0,0.1,0,0.2h0.1
		c-0.1,0.3-0.2,0.4-0.3,0.4c-0.1,0-0.1,0-0.2-0.1c0-0.1-0.1-0.1-0.1-0.1s0,0-0.1,0l0,0c0,0.1,0,0.1,0,0.2s0,0.1,0,0.2
		c0,0.2-0.1,0.3-0.3,0.2c0,0.1,0,0.1,0.2,0.1c0.1,0.2,0.1,0.2,0.2,0.2c0-0.1,0.1-0.2,0.1-0.3s0-0.2,0.1-0.3h0.1h0.2l0,0l0,0
		c0.2,0.8,0.6,1.5,0.9,2.2l-1.5,1.6C10,15.8,10,15.7,10,15.6c0-0.2,0.2-0.3,0.2-0.4V15c-0.1-0.1-0.2-0.3-0.3-0.5L10.1,14.6z
		 M9.3,12.3c0,0.1,0,0.1,0,0.2s0,0.1-0.1,0.1l0,0c-0.1-0.3-0.1-0.6-0.1-0.8h0.3c0,0.1,0,0.1,0,0.2l-0.1,0.1
		C9.3,12.1,9.2,12.2,9.3,12.3C9.3,12.2,9.3,12.3,9.3,12.3L9.3,12.3z M9.2,11.1c0.1-1.4,0.7-2.8,1.6-3.8l1,1.1l0,0
		c-0.1,0-0.2,0.1-0.2,0.1l-0.2,0.2c-0.1,0.1-0.3,0.1-0.4,0.2C11,8.9,10.9,9,10.8,9.1l-0.2,0.1c-0.1,0-0.1,0.1-0.1,0.1
		c0,0.1,0,0.2,0,0.2l-0.4,0.1H10L9.9,9.7v0.1v0.1C9.8,10,9.8,10,9.7,10.1s-0.1,0.2,0,0.4l0.1,0.4l0,0v0.1L9.2,11.1z M12.2,14.7
		c0.6,0.6,1.2,0.9,2,1.1L14,15.9c-0.1,0-0.2,0.1-0.2,0.3c0,0.1-0.1,0.2-0.2,0.3c-0.1,0-0.1,0.1-0.1,0.2c0.1,0.1,0.2,0.3,0.3,0.5
		c0.1,0.2,0.2,0.3,0.4,0.4l0.2,0.1c0.1,0,0.2,0,0.2,0.1h0.2c-1.3-0.1-2.6-0.7-3.7-1.5L12.2,14.7z M10.7,6.5l-1-1.1
		c1.4-1.3,3.3-2.2,5.3-2.2v1.5C13.3,4.9,11.8,5.6,10.7,6.5L10.7,6.5z M10.3,7c-1,1.1-1.7,2.6-1.7,4.1H7.1c0.1-2,0.8-3.8,2.2-5.3
		L10.3,7z M8.6,11.7c0,0.3,0,0.6,0.1,0.8l-0.1-0.1c-0.1-0.2-0.2-0.3-0.2-0.3c-0.1,0-0.1,0-0.2,0.1c0,0.1-0.1,0.1-0.1,0.2
		c-0.1,0.1-0.3,0.2-0.4,0.2c-0.1,0.1-0.2,0.3-0.2,0.5c0,0,0,0.1,0,0.2c0,0.1,0,0.1-0.1,0.2c-0.1,0.1,0.1,0.2,0,0.2s0,0.1,0,0.1h0
		c0,0,0,0.1-0.1,0.1c-0.2-0.8-0.3-1.4-0.3-2.1H8.6z M14.8,21.7c-2.5-0.1-4.9-1.1-6.7-2.8l1.1-1.1c1.5,1.4,3.6,2.3,5.6,2.3
		C14.8,20.1,14.8,21.7,14.8,21.7z M14.8,19.5c-2-0.1-3.8-0.8-5.2-2.2c0.1,0.1,0.2,0.1,0.3,0.1c0.1,0,0.2,0,0.3-0.1l0.4-0.2
		c0.1,0,0.3,0,0.4-0.1c0.1,0,0.2,0,0.3,0c0.1,0,0.1-0.1,0.1-0.2c0-0.1-0.1-0.2-0.1-0.2c-0.1-0.1-0.1-0.1-0.1-0.2s0-0.1-0.1-0.1
		c-0.1-0.1-0.2-0.2-0.3-0.3l0,0c1.1,1.1,2.6,1.7,4.1,1.7V19.5z M15.1,15.5L15.1,15.5c-0.1,0-0.3,0-0.4-0.1v-0.1l0.2-0.1
		c0.1-0.1,0.2-0.1,0.3-0.1V15l0.3-0.2h0.1l0.2-0.1c0.1,0,0.2,0.1,0.3,0.1c0,0.1,0.1,0.1,0.2,0.1v-0.1c0,0,0.1,0,0.2,0.2
		c0.1,0,0.1,0,0.2-0.1c0-0.1,0-0.1,0-0.2h0.1h0.1c0,0,0,0,0.1,0l0,0c0.1,0,0.2,0,0.2-0.1l0.2-0.1 M17.3,14.6L17.3,14.6
		c0,0.1,0,0.1,0,0.2c0,0.2-0.1,0.4-0.4,0.5c-0.2,0.1-0.4,0.2-0.6,0.2c0,0.1-0.1,0.1-0.1,0.2c0,0.1-0.1,0.1-0.1,0.1
		c-0.2,0-0.3,0-0.5-0.1c-0.1-0.1-0.1-0.2-0.1-0.2h-0.3L15,15.5c-0.1,0-0.1,0-0.2,0L17.3,14.6z M16.6,14.4c0-0.1,0.1-0.2,0.2-0.3
		c0.1,0,0.2-0.1,0.3-0.1c0,0.1-0.1,0.2-0.2,0.2C16.9,14.3,16.8,14.4,16.6,14.4L16.6,14.4z M17.8,13.4c0.1,0.1,0.2,0.2,0.2,0.3
		c0,0.1,0,0.1-0.1,0.2l0,0l0,0c-0.1,0-0.1-0.1-0.2-0.3c-0.1-0.2-0.3-0.1-0.3-0.3c0-0.2,0-0.2,0-0.2l0.2-0.1c0,0,0.1,0.1,0,0.2
		L17.8,13.4L17.8,13.4z M21.3,7.3C21.3,7.3,21.4,7.3,21.3,7.3c0.2,0,0.3,0,0.4,0.1C21.8,7.6,22,7.8,22.1,8c0,0,0.1,0,0.1,0.1
		c0,0.1,0.1,0.1,0.1,0.1c0.1,0,0.1,0,0.2-0.1l0,0c0.5,1,0.8,2.1,0.8,3.2h-1.5l0,0c0-0.2,0-0.3-0.1-0.4c-0.1-0.2-0.1-0.4-0.1-0.6
		c0-0.1,0-0.2,0-0.4c-0.1,0-0.1,0-0.2,0c0,0.1-0.1,0.1-0.1,0.2s-0.1,0.1-0.1,0.2l0,0v0.1v0.1c0,0.1-0.1,0.2-0.1,0.3
		c0,0.1,0,0.2,0,0.3l0,0v0.1h-0.8c0-0.1,0.1-0.1,0.2-0.1l0,0l0.2-0.1l-0.1-0.1c0-0.1,0-0.1,0-0.1l0.2-0.1c0.1-0.1,0.2-0.2,0.2-0.4
		c0.2-0.2,0.3-0.5,0.3-0.8c0-0.1-0.1-0.1-0.1-0.2s0-0.1,0-0.2c0-0.3,0.1-0.8-0.2-0.8c0,0,0,0,0-0.1c0.1-0.1,0.1-0.2,0.1-0.3h-0.2
		c0-0.1,0-0.1,0.1-0.1c0-0.1,0.1-0.1,0.1-0.2c0-0.1,0-0.1-0.1-0.1l0,0c-0.1,0-0.1,0-0.2,0h-0.1h-0.1l0,0c0-0.1-0.1-0.3-0.2-0.4
		C20.3,7.1,20.2,7,20.1,7l0,0c0-0.1,0-0.1,0-0.2l0.3-0.3l0.5,0.1c0,0.1,0,0.2,0.1,0.3c0.1,0,0.1,0.1,0.2,0.1
		C21.1,7.2,21.2,7.2,21.3,7.3L21.3,7.3C21.2,7.3,21.3,7.4,21.3,7.3L21.3,7.3z M19.7,17.8L19.7,17.8c-0.1,0-0.2,0-0.2-0.1
		c0-0.1,0-0.1,0.1-0.2c0.1-0.1,0.2-0.2,0.2-0.3c0-0.1,0.1-0.2,0.1-0.2s0-0.1-0.1-0.1s-0.1-0.1-0.1-0.1l-0.2,0
		c-0.1,0-0.2-0.1-0.2-0.1c-0.1,0-0.1-0.1-0.1-0.2l0.1-0.2v-0.1l0.1-0.1l0.8,0.8c0,0.1,0.1,0.2,0.2,0.2l0.1,0.1
		c-0.3,0.3-0.6,0.6-0.9,0.8C19.7,18,19.7,17.9,19.7,17.8L19.7,17.8C19.8,18,19.8,17.9,19.7,17.8L19.7,17.8z M19.3,13.9
		c-0.1,0-0.2,0-0.2,0c-0.1,0-0.2,0.1-0.2,0.2l0,0l0,0c-0.1,0-0.1,0-0.2,0c-0.1,0-0.1,0-0.2,0.1c-0.1,0-0.1,0-0.1-0.1
		c0-0.1,0.1-0.1,0.4-0.2c0.1-0.1,0.1-0.2,0.2-0.2s0.1-0.1,0.2-0.1c0.1-0.1,0.2-0.2,0.3-0.3c0.1-0.1,0.1-0.2,0.1-0.3l0,0
		c0,0.1,0,0.2,0.2,0.2c0.2,0,0.1-0.1,0.2-0.3c0.1,0,0.2,0.1,0.3,0.1s0.2,0,0.3-0.1H21V13l0,0c-0.3,0.8-0.7,1.5-1.2,2.2v-0.1
		l-0.2-0.3c0,0-0.1,0.1-0.2,0.3c0,0.1-0.1,0.2-0.1,0.4l-0.4,0.1c-0.1,0-0.2,0-0.4,0c-0.1,0-0.2-0.1-0.4-0.1
		c-0.1-0.1-0.2-0.1-0.3-0.1l-0.3-0.1c-0.1,0-0.2-0.1-0.2-0.1s0-0.1,0.2-0.1c0.1,0,0.2,0,0.3,0.1l0.5,0.1l0.5,0.1
		c0.1,0,0.2,0.1,0.2,0.1l0.2-0.1c0-0.1,0-0.2,0.1-0.2c0-0.1,0.1-0.1,0.1-0.2c0.1-0.1,0.1-0.3,0.1-0.4c0-0.2,0.1-0.3,0.1-0.5
		C19.4,13.9,19.4,13.8,19.3,13.9L19.3,13.9z M20.2,11.7h0.9c0,0.4-0.1,0.8-0.2,1.1c0-0.1-0.1-0.3-0.2-0.4l-0.3-0.3
		C20.4,12,20.4,11.9,20.2,11.7L20.2,11.7C20.2,11.8,20.2,11.8,20.2,11.7L20.2,11.7z M20.5,16.2C20.4,16.2,20.4,16.2,20.5,16.2
		c-0.1,0.2-0.1,0.3-0.1,0.3l-0.5-0.6c0.8-0.8,1.2-1.8,1.5-2.8l0,0c0.1,0.1,0.2,0.1,0.3,0V13c0-0.1-0.1-0.2-0.2-0.3l0,0
		c0.2-0.3,0.2-0.7,0.2-1h1.4c-0.1,2-0.8,3.8-2.2,5.4l-0.1-0.1l0,0c0-0.2,0-0.4-0.1-0.5C20.7,16.5,20.7,16.3,20.5,16.2L20.5,16.2z
		 M20.2,8.3L20.2,8.3c0,0.1,0,0.1,0,0.2l-0.1,0.2c0.1,0.1,0.2,0.2,0.3,0.3l0.4,0.3c0.1,0.1,0.1,0.3,0.2,0.5c0,0.1,0.1,0.3,0.1,0.4
		c0,0.1-0.1,0.2-0.1,0.3c-0.1,0.1-0.2,0.2-0.4,0.2l0,0c0-0.1,0-0.2,0.1-0.2c0-0.1,0.1-0.2,0.1-0.2c0.1,0,0.1-0.1,0.2-0.2l-0.2-0.2
		l-0.2-0.2c0-0.1-0.1-0.1-0.2-0.1c-0.1,0-0.1,0-0.2,0.1L20,9.7l-0.2-0.2c0-0.1,0-0.1,0-0.2l-0.3-0.5c-0.1-0.1-0.3-0.1-0.5-0.1
		c-0.1,0-0.2,0-0.3,0c-0.1,0-0.2,0-0.3,0c-0.1,0-0.2,0-0.3,0.1C18.1,8.9,18,9,18,9.1c0,0,0,0.1-0.1,0.1l-0.1-0.1l1.6-1.6l0,0
		l0.2,0.2l0.3,0.2C19.9,7.9,20.1,8.1,20.2,8.3L20.2,8.3z M16.3,19.2c0.1,0.1,0.3,0.2,0.5,0.3c-0.5,0.1-0.9,0.2-1.3,0.2v-1.5l0,0
		c0.1,0.1,0.2,0.2,0.3,0.3c0.1,0,0.2,0.1,0.4,0.1c0.2,0,0.3,0,0.3,0.1s0,0.1-0.1,0.2c0,0.1-0.1,0.1-0.1,0.2
		C16.1,19,16.2,19.1,16.3,19.2z M15.4,21.7v-1.6c0.7,0,1.1-0.1,1.8-0.3l0,0l0,0c0.2,0.1,0.3,0.2,0.4,0.4c0,0.1,0.2,0.2,0.4,0.2
		c0.1,0,0.2,0,0.3-0.1l0.1-0.2c0.1-0.1,0.1-0.1,0.2-0.1s0.1-0.1,0.2-0.1c0.1,0,0.2-0.1,0.3-0.2c0.1-0.1,0.2-0.2,0.2-0.3
		c0.1,0,0.1,0,0.2-0.1s0.1-0.3,0.2-0.4h0.1c0,0,0,0,0-0.1c0.6-0.4,1-0.8,1.5-1.1l1.1,1.1C20.2,20.7,17.9,21.7,15.4,21.7L15.4,21.7z
		 M22.5,18.6l-1.1-1.1c1.4-1.5,2.3-3.6,2.3-5.6h1.6C25.2,14.3,24.3,16.7,22.5,18.6L22.5,18.6z M25.3,11.1h-1.6
		c-0.1-1.7-0.7-3.4-1.7-4.9c0-0.1-0.1-0.1-0.1-0.2L21.8,6c-0.1-0.2-0.3-0.4-0.5-0.6v0l1.1-1.1C24.3,6.1,25.2,8.6,25.3,11.1
		L25.3,11.1z M15.4,1.1c2.5,0.1,4.9,1.1,6.7,2.9l-0.9,1l-0.1-0.2c0-0.1-0.1-0.1-0.2-0.1c-0.1,0-0.2-0.1-0.2-0.3c0-0.1,0-0.2-0.1-0.2
		c-0.2-0.1-0.3-0.2-0.4-0.4c-0.1-0.2-0.2-0.3-0.3-0.3c-0.1,0-0.2,0-0.3,0c-0.2-0.1-0.4-0.1-0.5,0l-0.3,0.1l0,0
		c-1-0.6-2.3-0.9-3.5-0.9c0.1-0.2,0.1-0.3,0-0.3c-0.1,0-0.1,0-0.2,0.1V1.1H15.4z M15.4,3.3c1.1,0.1,2.3,0.4,3.4,0.9l0,0l0.1,0.2
		c0,0.1,0.1,0.1,0.1,0.2c0,0.1,0.1,0.2,0.1,0.4L19.2,5c0,0.1,0,0.2,0.1,0.3c0.1,0.1,0.1,0.2,0.2,0.3h0.1h0.2c0,0,0.1,0,0.2,0.1
		C20,5.9,20,6,20.1,6v0.1l-0.5,0.5l0,0c-0.1-0.2-0.1-0.4-0.2-0.6c-0.1-0.1-0.2-0.1-0.3-0.1l-0.3-0.3c-0.2-0.2-0.3-0.4-0.3-0.4h-0.1
		c0,0,0,0.1,0.1,0.1c0,0,0.1,0.1,0.2,0.3c0.1,0.2,0,0.1-0.1,0.1l0,0c0,0.1,0.1,0.2,0.2,0.2V6L19,6.1c-1-0.8-2.3-1.1-3.6-1.2
		L15.4,3.3z M15.4,5.5c1.4,0.1,2.7,0.7,3.8,1.6l-1,1.1c-0.8-0.7-1.7-1.1-2.6-1.1L15.4,5.5L15.4,5.5z M15.4,7.5
		c0.8,0.1,1.5,0.4,2.2,0.8h-0.1c0,0,0,0-0.1,0.1v0.1l0.1,0.1L17,9l0,0c-0.1,0-0.1,0.1-0.2,0.1c-0.1,0.1-0.2,0.1-0.2,0.1v0.1
		l-0.2,0.2h-0.1c0,0-0.1-0.1-0.2-0.2C16.1,9.2,16,9.1,16,9.1c-0.1,0-0.1,0-0.2,0.1h-0.1c0-0.1,0-0.1,0.2-0.2l0.4-0.1
		c0.2-0.1,0.3-0.4,0.3-0.6c0-0.1-0.1-0.2-0.2-0.2l-0.1,0.1c-0.1,0.1-0.2,0.2-0.3,0.3l-0.2,0.2c-0.1,0-0.2,0-0.2,0h-0.2L15.4,7.5
		L15.4,7.5z M15.1,10.1C15.1,10.1,15.1,10.2,15.1,10.1c0.1,0.1,0.2,0.1,0.3,0.1c0.1,0,0.1,0,0.2,0c0,0,0,0,0,0.1
		c0,0.1,0.1,0.1,0.1,0.1v0.1l0,0l0.1,0.1l0,0l0,0h0.1H16v0.1l0,0v0.1c0,0.1,0,0.1,0,0.2V11l0,0c-0.1,0.1-0.1,0.1-0.1,0.2
		s0,0.1,0.1,0.1c0.1,0,0.1,0,0.1,0.1c0.1,0.1,0.1,0.1,0.1,0.2V12c0,0,0,0.1,0.1,0.1c0,0,0.1,0,0.1,0.1s0,0.2,0,0.3s-0.1,0.2-0.1,0.3
		c0,0-0.1,0-0.2,0h-0.3c-0.1,0-0.1,0.1-0.2,0.2c-0.1,0.1-0.1,0.2-0.1,0.4c0,0.1-0.1,0.2-0.2,0.2c-0.1,0-0.1,0-0.2,0l0,0L15,13.7v0.1
		c-0.5,0-0.8-0.2-1-0.5l0.2-0.2l0.4-0.1h0.1c0.2-0.1,0.2-0.3,0.3-0.4s0.3-0.3,0.1-0.4c0.2-0.3-0.7-0.3-0.8-0.3
		c-0.1-0.2-0.1,0.1-0.1,0.2c0,0.1-0.1,0.1-0.2,0.1c-0.1,0.1-0.2,0.3-0.3,0.4l0,0c-0.1-0.1-0.1-0.2-0.1-0.3l0,0v-0.1l0,0l0,0
		c0.1,0,0.2,0,0.2,0l0.1-0.2c0.1-0.2,0.1-0.3,0.2-0.5c-0.1,0-0.1-0.1-0.1-0.1s0-0.1-0.1,0l-0.1,0.1c0,0.1,0,0.1-0.1,0.2
		c0,0-0.1,0.1-0.2,0.1c0-0.1,0-0.1-0.1-0.1l0,0l0,0c-0.1,0-0.1,0-0.2,0.1h-0.4c-0.1,0-0.3,0-0.4,0c-0.1-0.1,0-0.1,0.2-0.2
		c0-0.2,0.1-0.4,0.2-0.5c0.1,0,0.2,0.1,0.2,0.1l0.1-0.1l0,0c0.1,0,0.1,0.1,0.1,0.2c0,0.1,0,0.2,0.1,0.2c0.1,0,0.1,0,0.2-0.1v-0.2
		c0-0.2,0.1-0.3,0.1-0.4v-0.1c0-0.1,0.1-0.1,0.1-0.2l0,0c0.1,0,0.1-0.1,0.2-0.1c0-0.1,0.1-0.2,0.1-0.2l0.4-0.2
		c0.2-0.1,0.3-0.2,0.3-0.2l0,0h0.3C14.9,10,15,10.1,15.1,10.1L15.1,10.1z M14.8,1.1v1.6C12.8,2.8,10.8,3.6,9.3,5L8.1,3.9
		C9.9,2.2,12.4,1.1,14.8,1.1z M7.7,4.3l1.1,1.1c-1.4,1.6-2.2,3.6-2.3,5.7H4.9C5,8.6,6,6.1,7.7,4.3L7.7,4.3z"/>
	<path id="Path_468" class="st2" d="M41.4,27.5v-27"/>
</g>
</svg>
