<?xml version="1.0" encoding="utf-8"?>
<!-- Generator: Adobe Illustrator 25.4.1, SVG Export Plug-In . SVG Version: 6.00 Build 0)  -->
<svg version="1.1" id="Layer_1" xmlns="http://www.w3.org/2000/svg" xmlns:xlink="http://www.w3.org/1999/xlink" x="0px" y="0px"
   viewBox="0 0 270 32" style="enable-background:new 0 0 270 32;" xml:space="preserve">
<style type="text/css">
  .st0{fill:#1B344A;}
  .st1{fill:#5090CD;}
  .st2{fill:none;stroke:#B7B6B6;stroke-width:0.29;}
</style>
<g>
  <path class="st0" d="M10.6,11.6c-0.3,0-0.7,0-1-0.2C9.3,11.3,9,11,8.8,10.8c-0.1-0.1-0.3-0.3-0.6-0.8C7.9,9.6,7.7,9.3,7.3,9
    C7.2,8.9,7,8.8,6.8,8.8c-0.2,0-0.3,0.1-0.5,0.2C6.1,9.1,6,9.2,5.8,9.4C5.7,9.5,5.7,9.6,5.6,9.8c0,0.2,0.1,0.3,0.2,0.4
    c0.2,0.1,0.4,0.3,0.6,0.3c0.4,0.1,0.7,0.3,1,0.5c0.4,0.3,0.7,0.8,0.7,1.3c0,0.6-0.3,1.2-0.8,1.5c-0.7,0.4-1.6,0.6-2.4,0.5H2.3
    c-0.4,0-0.8-0.1-1.2-0.3c-0.4-0.2-0.6-0.5-0.8-0.9C0.1,12.7,0,12.2,0,11.7c0-0.7,0.1-1.5,0.4-2.2h1.5c-0.1,0.3-0.2,0.6-0.2,0.9
    c0,0.3-0.1,0.7,0,1.1c0,0.3,0.1,0.5,0.2,0.7c0.1,0.2,0.3,0.4,0.5,0.5C2.5,12.9,2.8,13,3,13h2c0.4,0,0.8,0,1.3-0.1
    c0.2-0.1,0.3-0.3,0.3-0.5c0-0.2-0.1-0.3-0.2-0.4c-0.2-0.1-0.4-0.2-0.6-0.2c-0.5-0.1-0.9-0.3-1.3-0.6C4.2,10.8,4,10.4,4.1,10
    c0-0.4,0.2-0.9,0.4-1.2C4.8,8.4,5.2,8,5.6,7.7C6,7.4,6.4,7.3,6.9,7.2c0.2,0,0.5,0,0.7,0.1C7.8,7.5,8,7.6,8.2,7.8
    c0.4,0.4,0.7,0.8,1,1.2c0.2,0.4,0.5,0.7,0.8,1c0.2,0.1,0.4,0.2,0.7,0.2h0.1h0.1v1.3C10.8,11.5,10.8,11.5,10.6,11.6L10.6,11.6z
     M3.2,17.1c-0.2,0-0.4-0.1-0.5-0.2c-0.1-0.2-0.2-0.4-0.2-0.6c0-0.2,0.1-0.4,0.2-0.6c0.1-0.1,0.4-0.2,0.6-0.2c0.2,0,0.4,0.1,0.5,0.2
    c0.1,0.2,0.2,0.4,0.2,0.6c0,0.2-0.1,0.4-0.2,0.6C3.6,17.1,3.4,17.1,3.2,17.1z M5.1,17.1c-0.2,0-0.4-0.1-0.6-0.2
    c-0.3-0.4-0.3-0.8,0-1.2c0.1-0.1,0.4-0.2,0.6-0.2c0.2,0,0.4,0.1,0.6,0.2c0.1,0.2,0.2,0.4,0.2,0.6c0,0.2-0.1,0.4-0.2,0.6
    C5.5,17,5.3,17.1,5.1,17.1z"/>
  <path class="st0" d="M12.6,10.2L12.6,10.2l0.1,1.3c0,0,0,0.1-0.1,0.1h-2c0,0-0.1,0-0.1-0.1v-1.2c0,0,0,0,0.1,0L12.6,10.2z"/>
  <path class="st0" d="M12.5,11.6C12.5,11.6,12.5,11.6,12.5,11.6l-0.1-1.3c0,0,0,0,0.1,0H14V6h1.7v5.6L12.5,11.6z M14.8,5
    c-0.2,0-0.4-0.1-0.6-0.2C14.1,4.6,14,4.4,14,4.2c0-0.2,0.1-0.4,0.2-0.6c0.3-0.3,0.8-0.3,1.1,0c0.1,0.2,0.2,0.4,0.2,0.6
    c0,0.2-0.1,0.4-0.2,0.6C15.2,4.9,15,5,14.8,5z"/>
  <path class="st0" d="M20.8,10.2L20.8,10.2l0.1,1.3c0,0,0,0.1-0.1,0.1h-3.1V3h1.7v7.2L20.8,10.2z"/>
  <path class="st0" d="M22.8,10.2L22.8,10.2l0.1,1.3c0,0,0,0.1-0.1,0.1h-2.1 M20.7,11.5v-1.2V11.5z"/>
  <path class="st0" d="M24.7,10.2L24.7,10.2l0.1,1.3c0,0,0,0.1-0.1,0.1h-2c0,0,0,0,0-0.1v-1.2c0,0,0,0,0,0L24.7,10.2z"/>
  <path class="st0" d="M26.7,10.2L26.7,10.2l0.1,1.3c0,0,0,0.1-0.1,0.1h-2c0,0-0.1,0-0.1-0.1v-1.2c0,0,0,0,0.1,0L26.7,10.2z"/>
  <path class="st0" d="M38.5,10.2L38.5,10.2l0.1,1.3c0,0,0,0.1-0.1,0.1h-3.8c-0.7,0-1.3-0.3-1.8-0.9c-0.4,0.6-1.2,0.9-1.9,0.9h-4.4
    c0,0-0.1,0-0.1-0.1v-1.2c0,0,0,0,0.1,0H28V6.9h1.7v3.4h1c0.3,0,0.6-0.1,0.8-0.3c0.2-0.3,0.3-0.6,0.3-1v-2h1.7v2.1
    c0,0.2,0,0.3,0,0.5c0.1,0.2,0.3,0.4,0.5,0.5c0.2,0.1,0.5,0.2,0.7,0.1h0.7V6H37v4.2L38.5,10.2z"/>
  <path class="st0" d="M40.4,10.2L40.4,10.2l0.1,1.3c0,0,0,0.1-0.1,0.1h-2c0,0-0.1,0-0.1-0.1v-1.2c0,0,0,0,0.1,0L40.4,10.2z"/>
  <path class="st0" d="M42.4,10.2L42.4,10.2l0.1,1.3c0,0,0,0.1-0.1,0.1h-2c0,0-0.1,0-0.1-0.1v-1.2c0,0,0,0,0.1,0L42.4,10.2z"/>
  <path class="st0" d="M46.8,10.2L46.8,10.2l0.1,1.3c0,0,0,0.1-0.1,0.1h-4.6 M42.2,11.5v-1.2l0,0h1.4V6h1.7v4.2L42.2,11.5z M44.5,5
    c-0.2,0-0.4-0.1-0.6-0.2c-0.1-0.2-0.2-0.4-0.2-0.6c0-0.2,0.1-0.4,0.2-0.6c0.1-0.1,0.4-0.2,0.6-0.2c0.2,0,0.4,0.1,0.5,0.2
    c0.1,0.2,0.2,0.4,0.2,0.6c0,0.2-0.1,0.4-0.2,0.6C44.9,4.9,44.7,5,44.5,5z"/>
  <path class="st0" d="M46.7,11.6C46.7,11.6,46.7,11.6,46.7,11.6l-0.1-1.3c0,0,0,0,0.1,0h1.4V3h1.7v8.6L46.7,11.6z"/>
  <path class="st0" d="M51.7,14.4l0.7-0.1c-0.1-0.1-0.3-0.1-0.4-0.3c-0.1-0.1-0.2-0.3-0.2-0.5c0-0.3,0.1-0.6,0.3-0.8
    c0.3-0.2,0.6-0.3,0.9-0.3c0.3,0,0.6,0.1,0.9,0.2l-0.2,0.6c-0.2-0.1-0.4-0.1-0.6-0.1c-0.3,0-0.5,0.2-0.5,0.5c0,0,0,0.1,0,0.1
    c0,0.2,0.1,0.4,0.3,0.5h0.2c0.3-0.1,0.6-0.1,0.9-0.1v0.6l-1.3,0.1c-0.6,0.1-1,0.1-1,0.1L51.7,14.4z M52.1,3h1.7v8.6h-1.7V3z"/>
  <path class="st0" d="M56,3h1.7v8.6H56V3z"/>
  <path class="st0" d="M66.6,14.3c-0.6,0-1.1-0.1-1.7-0.4c-0.5-0.3-0.8-0.6-1.1-1.1c-0.3-0.5-0.4-1.1-0.4-1.7c0-0.4,0.1-0.9,0.2-1.3
    C63.7,9.4,63.8,9,64,8.6h1.5c-0.1,0.4-0.2,0.8-0.3,1.3c-0.1,0.4-0.1,0.8-0.1,1.2c0,0.5,0.1,0.9,0.4,1.3c0.3,0.3,0.7,0.5,1.1,0.5H67
    c0.5,0,1-0.1,1.3-0.5c0.3-0.4,0.4-0.9,0.4-1.3V3h1.7v7.2h1.5h0.1v1.3c0,0,0,0.1-0.1,0.1h-1.5c-0.1,1.8-1.3,2.7-3.3,2.7L66.6,14.3z"
    />
  <path class="st0" d="M73.8,10.2L73.8,10.2l0.1,1.3c0,0,0,0.1-0.1,0.1h-2c0,0-0.1,0-0.1-0.1v-1.2c0,0,0,0,0.1,0L73.8,10.2z"/>
  <path class="st0" d="M75.7,10.2L75.7,10.2l0.1,1.3c0,0,0,0.1-0.1,0.1h-2c0,0-0.1,0-0.1-0.1v-1.2c0,0,0,0,0.1,0L75.7,10.2z"/>
  <path class="st0" d="M77.7,10.2L77.7,10.2l0.1,1.3c0,0,0,0.1-0.1,0.1h-2 M75.6,11.5v-1.2V11.5z"/>
  <path class="st0" d="M79.6,10.2L79.6,10.2l0.1,1.3c0,0,0,0.1-0.1,0.1h-2c0,0-0.1,0-0.1-0.1v-1.2c0,0,0,0,0.1,0L79.6,10.2z"/>
  <path class="st0" d="M80.8,10.2c-0.2-0.5-0.3-1-0.3-1.6c0-0.4,0.1-0.7,0.2-1.1c0.1-0.4,0.2-0.7,0.4-1c0.4-0.2,0.8-0.4,1.2-0.5
    C82.6,6,82.9,6,83.3,6c0.5,0,1,0.1,1.4,0.3c0.4,0.2,0.8,0.5,1,0.9C85.9,7.7,86,8.2,86,8.7c0,0.4-0.1,0.8-0.2,1.2
    c0.1,0.1,0.3,0.2,0.5,0.3c0.2,0.1,0.4,0.1,0.7,0.1H87h0.1v1.3c0,0,0,0.1-0.1,0.1l0,0c-0.3,0-0.7-0.1-1-0.2
    c-0.3-0.1-0.6-0.3-0.8-0.6c-0.3,0.3-0.6,0.4-1,0.6c-0.4,0.1-0.8,0.2-1.2,0.2h-3.5c0,0-0.1,0-0.1-0.1v-1.2c0,0,0,0,0.1,0L80.8,10.2z
     M82,8.9c0,0.5,0.1,0.9,0.3,1.3h0.4c0.4,0,0.8-0.2,1.2-0.5c0.3-0.3,0.5-0.7,0.5-1.1c0-0.4-0.1-0.7-0.3-1c-0.2-0.2-0.5-0.4-0.8-0.4
    c-0.4,0-0.7,0.1-1.1,0.3C82,8,82,8.5,82,8.9z"/>
  <path class="st0" d="M93.8,10.2L93.8,10.2l0.1,1.3c0,0,0,0.1-0.1,0.1h-1.4c-0.4,0-0.8-0.1-1.1-0.2c-0.4-0.1-0.7-0.3-1-0.4
    c-0.6,0.4-1.4,0.6-2.1,0.6h-1.3c0,0-0.1,0-0.1-0.1v-1.2c0,0,0,0,0.1,0H88c0.2,0,0.4,0,0.6-0.1c0.2,0,0.3-0.1,0.5-0.1
    c-0.3-0.2-0.5-0.5-0.7-0.8c-0.2-0.4-0.5-0.8-0.6-1.2c-0.2-0.4-0.3-0.8-0.4-1.3c0.5-0.4,1-0.7,1.5-0.9c0.5-0.2,1.1-0.3,1.7-0.3
    c1,0,2,0.2,2.8,0.7c0,0.8-0.2,1.5-0.5,2.2c-0.3,0.6-0.8,1.2-1.4,1.5c0.3,0.2,0.7,0.2,1,0.2H93.8z M90.3,9.3
    c0.8-0.4,1.4-1.3,1.4-2.2c-0.4-0.1-0.8-0.2-1.3-0.2c-0.3,0-0.5,0.1-0.8,0.1c-0.2,0.1-0.5,0.2-0.7,0.3c0.1,0.4,0.3,0.8,0.5,1.2
    C89.7,8.8,90,9.1,90.3,9.3z"/>
  <path class="st0" d="M93.7,11.5v-1.3l0,0h1.4V3h1.7v8.6L93.7,11.5z"/>
  <path class="st0" d="M99.1,3h1.7v8.6h-1.7V3z"/>
  <path class="st0" d="M114.9,10.2L114.9,10.2l0.1,1.3c0,0,0,0.1-0.1,0.1h-1.5c-0.1,1.8-1.2,2.7-3.3,2.7h-0.5c-0.6,0-1.1-0.1-1.6-0.4
    c-0.5-0.3-0.8-0.6-1.1-1.1c-0.3-0.5-0.4-1.1-0.4-1.7c0-0.4,0.1-0.9,0.2-1.3c0.1-0.4,0.2-0.8,0.4-1.2h1.5c-0.1,0.4-0.2,0.8-0.3,1.3
    c-0.1,0.4-0.1,0.8-0.1,1.2c0,0.5,0.1,0.9,0.4,1.3c0.3,0.3,0.7,0.5,1.1,0.5h0.3c0.5,0,0.9-0.1,1.3-0.5c0.3-0.4,0.5-0.8,0.4-1.3V6
    h1.7v4.2L114.9,10.2z M110,6c-0.2,0-0.4-0.1-0.6-0.2c-0.1-0.2-0.2-0.4-0.2-0.6c0-0.2,0.1-0.4,0.2-0.6c0.1-0.2,0.3-0.2,0.6-0.2
    c0.2,0,0.4,0.1,0.5,0.2c0.1,0.2,0.2,0.4,0.2,0.6c0,0.2-0.1,0.4-0.2,0.6C110.4,5.9,110.2,6,110,6z"/>
  <path class="st0" d="M116.8,10.2L116.8,10.2l0.1,1.3c0,0,0,0.1-0.1,0.1h-2 M114.8,11.5v-1.2l0,0V11.5z"/>
  <path class="st0" d="M118.8,10.2L118.8,10.2l0.1,1.3c0,0,0,0.1-0.1,0.1h-2.1c0,0,0,0,0-0.1v-1.2l0,0L118.8,10.2z"/>
  <path class="st0" d="M120.7,10.2L120.7,10.2l0.1,1.3c0,0,0,0.1-0.1,0.1h-2c0,0-0.1,0-0.1-0.1v-1.2c0,0,0,0,0.1,0L120.7,10.2z"/>
  <path class="st0" d="M120.6,11.6C120.6,11.6,120.6,11.6,120.6,11.6l-0.1-1.3c0,0,0,0,0.1,0h1.7c-0.3-0.1-0.5-0.4-0.7-0.6
    c-0.2-0.3-0.3-0.7-0.2-1c0-0.8,0.3-1.5,0.8-2c0.6-0.5,1.5-0.8,2.3-0.7c0.4,0,0.7,0,1.1,0.1c0.3,0.1,0.6,0.1,0.9,0.3L126,7.6
    c-0.3-0.1-0.5-0.2-0.8-0.3c-0.2-0.1-0.5-0.1-0.7-0.1c-0.4,0-0.8,0.1-1.1,0.4c-0.3,0.3-0.4,0.7-0.4,1.1c0,0.4,0.1,0.8,0.4,1.1
    c0.3,0.3,0.7,0.5,1.1,0.4h2.1v1.4L120.6,11.6z"/>
  <path class="st0" d="M138.4,10.2L138.4,10.2l0.1,1.3c0,0,0,0.1-0.1,0.1H135c-0.9,0.1-1.7-0.2-2.4-0.7c-0.6-0.5-0.9-1.2-0.9-2
    c0-0.5,0.1-1,0.4-1.5c0.3-0.4,0.7-0.8,1.1-1c0.6-0.2,1.2-0.4,1.8-0.3h0.3V5.4h1.7v4.8H138.4z M135.3,10.2V7.3H135
    c-0.4,0-0.9,0.1-1.2,0.4c-0.3,0.3-0.4,0.7-0.4,1.1c0,0.4,0.1,0.7,0.4,1c0.3,0.3,0.8,0.4,1.2,0.4L135.3,10.2z M134.3,4.7
    c-0.2,0-0.4-0.1-0.6-0.2c-0.1-0.2-0.2-0.4-0.2-0.6c0-0.2,0.1-0.4,0.2-0.6c0.1-0.2,0.4-0.2,0.6-0.2c0.2,0,0.4,0.1,0.6,0.2
    c0.1,0.2,0.2,0.4,0.2,0.6c0,0.2-0.1,0.4-0.2,0.6C134.7,4.6,134.5,4.7,134.3,4.7L134.3,4.7z M136.2,4.7c-0.2,0-0.4-0.1-0.6-0.2
    c-0.1-0.2-0.2-0.4-0.2-0.6c0-0.2,0.1-0.4,0.2-0.6c0.1-0.2,0.3-0.2,0.6-0.2c0.2,0,0.4,0.1,0.6,0.2c0.1,0.2,0.2,0.4,0.2,0.6
    c0,0.2-0.1,0.4-0.2,0.6C136.6,4.6,136.4,4.7,136.2,4.7L136.2,4.7z"/>
  <path class="st0" d="M140.4,10.2L140.4,10.2l0.1,1.3c0,0,0,0.1-0.1,0.1h-2c0,0-0.1,0-0.1-0.1v-1.2c0,0,0,0,0.1,0L140.4,10.2z"/>
  <path class="st0" d="M142.3,10.2L142.3,10.2l0.1,1.3c0,0,0,0.1-0.1,0.1h-2.1 M140.2,11.5v-1.2V11.5z"/>
  <path class="st0" d="M144.2,10.2L144.2,10.2l0.1,1.3c0,0,0,0.1-0.1,0.1h-2.1c0,0-0.1,0-0.1-0.1v-1.2c0,0,0,0,0.1,0L144.2,10.2z"/>
  <path class="st0" d="M145.4,10.2c-0.2-0.5-0.3-1-0.3-1.6c0-0.4,0.1-0.7,0.2-1.1c0.1-0.3,0.2-0.7,0.4-1c0.4-0.2,0.8-0.4,1.2-0.5
    c0.4-0.1,0.7-0.1,1.1-0.1c0.5,0,1,0.1,1.4,0.3c0.4,0.2,0.8,0.5,1,0.9c0.2,0.4,0.4,0.9,0.3,1.4c0,0.5-0.1,1.1-0.4,1.5
    c-0.3,0.4-0.7,0.8-1.1,1c-0.5,0.3-1,0.4-1.6,0.4h-3.4c0,0-0.1,0-0.1-0.1v-1.2c0,0,0,0,0.1,0L145.4,10.2z M146.7,8.9
    c0,0.5,0.1,0.9,0.3,1.3h0.4c0.4,0,0.8-0.2,1.1-0.5c0.3-0.3,0.5-0.7,0.5-1.1c0-0.4-0.1-0.7-0.3-1c-0.2-0.2-0.5-0.4-0.8-0.4
    c-0.4,0-0.7,0.1-1.1,0.3C146.7,8,146.7,8.5,146.7,8.9z"/>
  <path class="st0" d="M155.5,10.2L155.5,10.2l0.1,1.3c0,0,0,0.1-0.1,0.1h-3.1V3h1.7v7.2L155.5,10.2z"/>
  <path class="st0" d="M157.5,10.2L157.5,10.2l0.1,1.3c0,0,0,0.1-0.1,0.1h-2.1c0,0-0.1,0-0.1-0.1v-1.2c0,0,0,0,0.1,0L157.5,10.2z"/>
  <path class="st0" d="M159.4,10.2L159.4,10.2l0.1,1.3c0,0,0,0.1-0.1,0.1h-2c0,0-0.1,0-0.1-0.1v-1.2c0,0,0,0,0.1,0L159.4,10.2z"/>
  <path class="st0" d="M166.2,10.2L166.2,10.2l0.1,1.3c0,0,0,0.1-0.1,0.1h-1.4c-0.4,0-0.8-0.1-1.1-0.2c-0.4-0.1-0.7-0.3-1-0.4
    c-0.6,0.4-1.4,0.6-2.1,0.6h-1.3 M159.3,11.5v-1.2l0,0h1.1c0.2,0,0.4,0,0.6-0.1c0.2,0,0.3-0.1,0.5-0.1c-0.3-0.2-0.5-0.5-0.7-0.8
    c-0.3-0.4-0.5-0.8-0.6-1.2c-0.2-0.4-0.3-0.8-0.4-1.3c0.5-0.4,1-0.7,1.5-0.9c0.5-0.2,1.1-0.3,1.7-0.3c1,0,2,0.2,2.8,0.7
    c0,0.8-0.2,1.5-0.5,2.2c-0.3,0.6-0.8,1.2-1.4,1.5c0.3,0.2,0.7,0.2,1,0.2L159.3,11.5z M162.7,9.3c0.8-0.4,1.4-1.3,1.4-2.2
    c-0.4-0.2-0.8-0.2-1.3-0.2c-0.3,0-0.5,0-0.8,0.1c-0.2,0.1-0.5,0.2-0.7,0.3c0.1,0.4,0.3,0.8,0.6,1.2C162.2,8.8,162.4,9.1,162.7,9.3z
    "/>
  <path class="st0" d="M166.1,11.6C166.1,11.6,166.1,11.6,166.1,11.6l-0.1-1.3c0,0,0,0,0.1,0h1.4V3h1.7v8.6L166.1,11.6z"/>
  <path class="st0" d="M171.5,3h1.7v8.6h-1.7V3z"/>
  <path class="st0" d="M185.7,10.2L185.7,10.2l0.1,1.3c0,0,0,0.1-0.1,0.1h-3.4c-0.9,0.1-1.7-0.2-2.4-0.7c-0.6-0.5-0.9-1.2-0.9-2
    c0-0.5,0.1-1,0.4-1.5c0.3-0.4,0.7-0.8,1.1-1c0.6-0.2,1.2-0.4,1.8-0.3h0.3V5.4h1.7v4.8H185.7z M182.6,10.2V7.3h-0.3
    c-0.4,0-0.9,0.1-1.2,0.4c-0.3,0.3-0.4,0.7-0.4,1.1c0,0.4,0.1,0.7,0.4,1c0.3,0.3,0.8,0.4,1.2,0.4L182.6,10.2z M181.5,4.7
    c-0.2,0-0.4-0.1-0.6-0.2c-0.1-0.2-0.2-0.4-0.2-0.6c0-0.2,0.1-0.4,0.2-0.6c0.1-0.2,0.4-0.2,0.6-0.2c0.2,0,0.4,0.1,0.6,0.2
    c0.1,0.2,0.2,0.4,0.2,0.6c0,0.2-0.1,0.4-0.2,0.6C181.9,4.6,181.7,4.7,181.5,4.7z M183.4,4.7c-0.2,0-0.4-0.1-0.6-0.2
    c-0.1-0.2-0.2-0.4-0.2-0.6c0-0.2,0.1-0.4,0.2-0.6c0.1-0.2,0.3-0.2,0.6-0.2c0.2,0,0.4,0.1,0.6,0.2c0.1,0.2,0.2,0.4,0.2,0.6
    c0,0.2-0.1,0.4-0.2,0.6C183.8,4.6,183.6,4.7,183.4,4.7L183.4,4.7z"/>
  <path class="st0" d="M187.6,10.2L187.6,10.2l0.1,1.3c0,0,0,0.1-0.1,0.1h-2c0,0-0.1,0-0.1-0.1v-1.2c0,0,0,0,0.1,0L187.6,10.2z"/>
  <path class="st0" d="M189.5,10.2L189.5,10.2l0.1,1.3c0,0,0,0.1-0.1,0.1h-2 M187.5,11.5v-1.2V11.5z"/>
  <path class="st0" d="M191.5,10.2L191.5,10.2l0.1,1.3c0,0,0,0.1-0.1,0.1h-2c0,0-0.1,0-0.1-0.1v-1.2c0,0,0,0,0.1,0L191.5,10.2z"/>
  <path class="st0" d="M193.4,10.2L193.4,10.2l0.1,1.3c0,0,0,0.1-0.1,0.1h-2c0,0-0.1,0-0.1-0.1v-1.2c0,0,0,0,0.1,0L193.4,10.2z"/>
  <path class="st0" d="M195.4,10.2L195.4,10.2l0.1,1.3c0,0,0,0.1-0.1,0.1h-2c0,0-0.1,0-0.1-0.1v-1.2c0,0,0,0,0.1,0L195.4,10.2z"/>
  <path class="st0" d="M195.2,11.5v-1.3 M195.2,10.3h4.6c-0.4-0.5-0.6-1-0.7-1.6c-0.1-0.4-0.2-0.8-0.5-1.1c-0.2-0.2-0.6-0.3-0.9-0.3
    c-0.3,0-0.5,0-0.8,0.1c-0.3,0.1-0.5,0.2-0.8,0.3l-0.5-1.2c0.7-0.4,1.5-0.6,2.4-0.5c0.6,0,1.3,0.1,1.8,0.5c0.5,0.4,0.8,1,0.8,1.7
    c0.1,0.8,0.3,1.5,0.8,2.2h0.7h0.1v1.3c0,0,0,0.1-0.1,0.1L195.2,10.3z"/>
  <path class="st0" d="M204.2,10.2L204.2,10.2l0.1,1.3c0,0,0,0.1-0.1,0.1h-2.1 M202.1,11.5v-1.2l0,0V11.5z"/>
  <path class="st0" d="M206.1,10.2L206.1,10.2l0.1,1.3c0,0,0,0.1-0.1,0.1h-2.1c0,0-0.1,0-0.1-0.1v-1.2c0,0,0,0,0.1,0L206.1,10.2z"/>
  <path class="st0" d="M207.3,10.2c-0.2-0.5-0.3-1-0.3-1.6c0-0.4,0.1-0.7,0.2-1.1c0.1-0.4,0.2-0.7,0.4-1c0.4-0.2,0.8-0.4,1.2-0.5
    c0.3-0.1,0.7-0.1,1.1-0.1c0.5,0,1,0.1,1.4,0.3c0.4,0.2,0.8,0.5,1,0.9c0.2,0.4,0.4,0.9,0.3,1.4c0,0.4-0.1,0.8-0.2,1.2
    c0.1,0.1,0.3,0.2,0.5,0.3c0.2,0.1,0.4,0.1,0.7,0.1h0.1h0.1v1.3c0,0,0,0.1-0.1,0.1h-0.1c-0.3,0-0.7-0.1-1-0.2
    c-0.3-0.1-0.6-0.3-0.8-0.6c-0.3,0.3-0.6,0.4-1,0.6c-0.4,0.1-0.8,0.2-1.1,0.2H206c0,0-0.1,0-0.1-0.1v-1.2c0,0,0,0,0.1,0L207.3,10.2z
     M208.5,8.9c0,0.5,0.1,0.9,0.3,1.3h0.4c0.4,0,0.8-0.2,1.1-0.5c0.3-0.3,0.5-0.7,0.5-1.1c0-0.4-0.1-0.7-0.3-1
    c-0.2-0.2-0.5-0.4-0.8-0.4c-0.4,0-0.7,0.1-1.1,0.3C208.6,8,208.5,8.5,208.5,8.9L208.5,8.9z"/>
  <path class="st0" d="M215.5,10.2L215.5,10.2l0.1,1.3c0,0,0,0.1-0.1,0.1h-2.1c0,0-0.1,0-0.1-0.1v-1.2c0,0,0,0,0.1,0L215.5,10.2z"/>
  <path class="st0" d="M215.3,11.5v-1.3 M215.3,10.3h1.4V3h1.7v7.2h1.5h0.1v1.3c0,0,0,0.1-0.1,0.1L215.3,10.3z"/>
  <path class="st0" d="M219.8,11.6C219.8,11.6,219.8,11.6,219.8,11.6l-0.1-1.3c0,0,0,0,0.1,0h1.4V3h1.7v8.6L219.8,11.6z"/>
  <path class="st0" d="M225.2,3h1.7v8.6h-1.7V3z"/>
</g>
<path class="st1" d="M94.2,26.1v-0.9l3.1-3.4c0.4-0.4,0.8-0.9,1.1-1.5c0.2-0.3,0.3-0.7,0.3-1.1c0-0.4-0.1-0.9-0.4-1.2
  c-0.3-0.3-0.7-0.5-1.1-0.5c-0.5,0-1,0.1-1.4,0.5c-0.3,0.4-0.5,0.9-0.5,1.4h-1.2l0,0c0-0.7,0.3-1.5,0.8-2c0.6-0.6,1.5-0.9,2.3-0.8
  c0.7,0,1.5,0.2,2,0.7c0.5,0.5,0.8,1.2,0.8,1.9c0,0.5-0.2,1.1-0.4,1.5c-0.4,0.6-0.8,1.2-1.3,1.7l-2.5,2.6l0,0h3.3l0.1-1.1h1.1v2.1
  L94.2,26.1z"/>
<path class="st1" d="M107.6,22.5c0.1,1-0.2,2-0.8,2.8c-1.1,1.2-3,1.3-4.2,0.1c0,0-0.1-0.1-0.1-0.1c-0.6-0.8-0.9-1.8-0.8-2.8v-2.2
  c-0.1-1,0.2-2,0.8-2.8c1.1-1.2,3-1.3,4.2-0.1c0,0,0.1,0.1,0.1,0.1c0.6,0.8,0.9,1.8,0.8,2.8V22.5z M106.3,20.1c0-0.6-0.1-1.3-0.4-1.8
  c-0.3-0.4-0.8-0.6-1.3-0.6c-0.5,0-1,0.2-1.3,0.6c-0.3,0.6-0.5,1.2-0.4,1.8v2.8c0,0.6,0.1,1.3,0.4,1.8c0.3,0.4,0.8,0.6,1.3,0.6
  c0.5,0,1-0.2,1.3-0.6c0.3-0.6,0.5-1.2,0.4-1.8V20.1z"/>
<path class="st1" d="M109,26.1v-0.9l3.1-3.4c0.4-0.4,0.8-0.9,1.1-1.5c0.2-0.3,0.3-0.7,0.3-1.1c0-0.4-0.1-0.9-0.4-1.2
  c-0.3-0.3-0.7-0.5-1.1-0.5c-0.5,0-1,0.1-1.4,0.5c-0.3,0.4-0.5,0.9-0.5,1.4h-1.2l0,0c0-0.7,0.3-1.5,0.8-2c0.6-0.6,1.5-0.9,2.3-0.8
  c0.7,0,1.5,0.2,2,0.7c0.5,0.5,0.8,1.2,0.8,1.9c0,0.5-0.2,1.1-0.5,1.5c-0.4,0.6-0.8,1.1-1.2,1.6l-2.5,2.7l0,0h3.3L114,24h1v2.1
  L109,26.1z"/>
<path class="st1" d="M116.4,26.1v-0.9l3.1-3.4c0.4-0.4,0.8-0.9,1.1-1.5c0.2-0.3,0.3-0.7,0.3-1.1c0-0.4-0.1-0.9-0.4-1.2
  c-0.3-0.3-0.7-0.5-1.1-0.5c-0.5,0-1,0.1-1.4,0.5c-0.3,0.4-0.5,0.9-0.5,1.4h-1.2l0,0c0-0.7,0.3-1.5,0.8-2c0.6-0.6,1.5-0.9,2.3-0.8
  c0.7,0,1.5,0.2,2,0.7c0.5,0.5,0.8,1.2,0.8,1.9c0,0.5-0.2,1.1-0.5,1.5c-0.4,0.6-0.8,1.1-1.2,1.6l-2.5,2.7l0,0h3.3l0.1-1.1h1v2.1
  L116.4,26.1z"/>
<path class="st0" d="M137.2,26.1c-0.3,0-0.7-0.1-1-0.2c-0.3-0.1-0.6-0.4-0.9-0.6c-0.1-0.1-0.3-0.3-0.6-0.8c-0.2-0.4-0.5-0.7-0.9-1
  c-0.2-0.1-0.4-0.2-0.6-0.2c-0.2,0-0.3,0.1-0.5,0.2c-0.2,0.1-0.3,0.3-0.5,0.4c-0.1,0.1-0.2,0.3-0.2,0.4c0,0.2,0.1,0.3,0.2,0.4
  c0.2,0.1,0.4,0.2,0.6,0.3c0.4,0.1,0.7,0.3,1.1,0.5c0.2,0.1,0.4,0.3,0.5,0.5c0.1,0.2,0.2,0.5,0.2,0.8c0,0.6-0.3,1.2-0.8,1.5
  c-0.7,0.4-1.6,0.6-2.4,0.5h-2.7c-0.4,0-0.8-0.1-1.2-0.3c-0.4-0.2-0.6-0.5-0.8-0.9c-0.2-0.4-0.3-0.9-0.3-1.3c0-0.7,0.1-1.5,0.4-2.2
  h1.5c-0.1,0.3-0.2,0.6-0.2,0.9c0,0.4,0,0.7,0,1.1c0,0.3,0.1,0.5,0.2,0.7c0.1,0.2,0.3,0.4,0.5,0.5c0.2,0.1,0.4,0.2,0.7,0.2h2
  c0.4,0,0.8,0,1.2-0.1c0.2-0.1,0.3-0.3,0.3-0.5c0-0.1-0.1-0.3-0.2-0.3c-0.2-0.1-0.4-0.2-0.6-0.2c-0.5-0.1-0.9-0.3-1.3-0.6
  c-0.3-0.3-0.4-0.7-0.4-1.1c0-0.4,0.2-0.9,0.4-1.2c0.3-0.4,0.7-0.8,1.1-1.1c0.4-0.3,0.8-0.4,1.3-0.4c0.2,0,0.5,0,0.7,0.1
  c0.2,0.1,0.4,0.2,0.6,0.4c0.3,0.4,0.7,0.8,0.9,1.2c0.2,0.4,0.5,0.7,0.8,1c0.2,0.1,0.4,0.2,0.7,0.2h0.1h0.1V26c0,0,0,0.1,0,0.1
  c0,0,0,0,0,0L137.2,26.1z M129.7,31.6c-0.2,0-0.4-0.1-0.6-0.2c-0.1-0.2-0.2-0.4-0.2-0.6c0-0.2,0.1-0.4,0.2-0.6
  c0.1-0.2,0.3-0.2,0.6-0.2c0.2,0,0.4,0.1,0.6,0.2c0.1,0.2,0.2,0.4,0.2,0.6c0,0.2-0.1,0.4-0.2,0.6C130.1,31.6,129.9,31.7,129.7,31.6z
   M131.6,31.6c-0.2,0-0.4-0.1-0.6-0.2c-0.1-0.2-0.2-0.4-0.2-0.6c0-0.2,0.1-0.4,0.2-0.6c0.1-0.2,0.4-0.2,0.6-0.2
  c0.2,0,0.4,0.1,0.6,0.2c0.1,0.2,0.2,0.4,0.2,0.6c0,0.2-0.1,0.4-0.2,0.6C132,31.6,131.8,31.7,131.6,31.6L131.6,31.6z"/>
<path class="st0" d="M139.2,24.8L139.2,24.8l0.1,1.3c0,0,0,0.1,0,0.1c0,0,0,0,0,0h-2.1c0,0,0,0,0-0.1v-1.2l0,0L139.2,24.8z"/>
<path class="st0" d="M141.1,24.8L141.1,24.8l0.1,1.3c0,0,0,0.1,0,0.1c0,0,0,0,0,0h-2c0,0-0.1,0-0.1,0c0,0,0,0,0,0v-1.2
  c0,0,0,0,0.1,0L141.1,24.8z"/>
<path class="st0" d="M143.1,24.8L143.1,24.8l0.1,1.3c0,0,0,0.1,0,0.1c0,0,0,0,0,0h-2c0,0-0.1,0-0.1,0c0,0,0,0,0,0v-1.2
  c0,0,0,0,0.1,0L143.1,24.8z"/>
<path class="st0" d="M145,24.8L145,24.8l0.1,1.3c0,0,0,0.1,0,0.1c0,0,0,0,0,0h-2c0,0,0,0,0-0.1v-1.2l0,0L145,24.8z"/>
<path class="st0" d="M146.9,24.8L146.9,24.8L147,26c0,0,0,0.1,0,0.1c0,0,0,0,0,0h-2.1c0,0,0,0,0-0.1v-1.2l0,0L146.9,24.8z"/>
<path class="st0" d="M148.9,24.8L148.9,24.8l0.1,1.3c0,0,0,0.1,0,0.1c0,0,0,0,0,0h-2c0,0-0.1,0-0.1,0c0,0,0,0,0,0v-1.2
  c0,0,0,0,0.1,0L148.9,24.8z"/>
<path class="st0" d="M150.8,24.8L150.8,24.8l0.1,1.3c0,0,0,0.1,0,0.1c0,0,0,0,0,0h-2c0,0-0.1,0-0.1,0c0,0,0,0,0,0v-1.2
  c0,0,0,0,0.1,0L150.8,24.8z"/>
<path class="st0" d="M152.8,24.8L152.8,24.8l0.1,1.3c0,0,0,0.1,0,0.1c0,0,0,0,0,0h-2.1c0,0,0,0,0-0.1v-1.2l0,0L152.8,24.8z"/>
<path class="st0" d="M154.7,24.8L154.7,24.8l0.1,1.3c0,0,0,0.1,0,0.1c0,0,0,0,0,0h-2.1c0,0,0,0,0-0.1v-1.2l0,0L154.7,24.8z"/>
<path class="st0" d="M156.6,24.8L156.6,24.8l0.1,1.3c0,0,0,0.1,0,0.1c0,0,0,0,0,0h-2c0,0-0.1,0-0.1,0c0,0,0,0,0,0v-1.2
  c0,0,0,0,0.1,0L156.6,24.8z"/>
<path class="st0" d="M157.8,24.8c-0.2-0.5-0.3-1-0.3-1.6c0-0.4,0.1-0.7,0.2-1.1c0.1-0.3,0.2-0.7,0.4-1c0.4-0.2,0.8-0.4,1.2-0.5
  c0.4-0.1,0.7-0.2,1.1-0.2c0.5,0,1,0.1,1.4,0.3c0.4,0.2,0.8,0.5,1,0.9c0.2,0.4,0.4,0.9,0.4,1.4c0,0.4-0.1,0.8-0.2,1.2
  c0.1,0.1,0.3,0.2,0.5,0.3c0.2,0.1,0.4,0.1,0.7,0.1h0h0.1V26c0,0,0,0.1,0,0.1c0,0,0,0,0,0l0,0c-0.3,0-0.7-0.1-1-0.2
  c-0.3-0.1-0.6-0.3-0.8-0.6c-0.3,0.3-0.6,0.4-1,0.6c-0.4,0.1-0.8,0.2-1.1,0.2h-3.4c0,0,0,0,0-0.1v-1.2l0,0L157.8,24.8z M159.1,23.4
  c0,0.5,0.1,0.9,0.3,1.3h0.4c0.4,0,0.8-0.2,1.1-0.5c0.3-0.3,0.5-0.7,0.5-1.1c0-0.4-0.1-0.7-0.3-1c-0.2-0.2-0.5-0.4-0.8-0.4
  c-0.4,0-0.7,0.1-1.1,0.3C159.1,22.6,159.1,23,159.1,23.4z"/>
<path class="st0" d="M166,24.8L166,24.8l0.1,1.3c0,0,0,0.1,0,0.1c0,0,0,0,0,0h-2.1c0,0,0,0,0-0.1v-1.2l0,0L166,24.8z"/>
<path class="st0" d="M167.9,24.8L167.9,24.8L168,26c0,0,0,0.1,0,0.1c0,0,0,0,0,0h-2.1c0,0,0,0,0-0.1v-1.2l0,0L167.9,24.8z"/>
<path class="st0" d="M169.8,24.8L169.8,24.8l0.1,1.3c0,0,0,0.1,0,0.1c0,0,0,0,0,0h-2.1c0,0-0.1,0-0.1,0c0,0,0,0,0,0v-1.2
  c0,0,0,0,0.1,0L169.8,24.8z"/>
<path class="st0" d="M171.8,24.8L171.8,24.8l0.1,1.3c0,0,0,0.1-0.1,0.1h-2c0,0-0.1,0-0.1,0c0,0,0,0,0,0v-1.2c0,0,0,0,0.1,0
  L171.8,24.8z"/>
<path class="st0" d="M173.7,24.8L173.7,24.8l0.1,1.3c0,0,0,0.1,0,0.1c0,0,0,0,0,0h-2.1c0,0,0,0,0-0.1v-1.2l0,0L173.7,24.8z"/>
<path class="st0" d="M173.6,26.1C173.6,26.1,173.6,26.1,173.6,26.1v-1.3l0,0h1.4v-7.3h1.7v8.6L173.6,26.1z"/>
<path class="st0" d="M182.1,24.8L182.1,24.8l0.1,1.3c0,0,0,0.1,0,0.1c0,0,0,0,0,0H179v-8.6h1.7v7.2H182.1z"/>
<path class="st0" d="M184,24.8L184,24.8l0.1,1.3c0,0,0,0.1,0,0.1c0,0,0,0,0,0h-2c0,0-0.1,0-0.1,0c0,0,0,0,0,0v-1.2c0,0,0,0,0.1,0
  L184,24.8z"/>
<path class="st0" d="M186,24.8C186.1,24.8,186.1,24.8,186,24.8l0.1,1.3c0,0,0,0.1-0.1,0.1h-2c0,0-0.1,0-0.1,0c0,0,0,0,0,0v-1.2
  c0,0,0,0,0.1,0L186,24.8z"/>
<path class="st0" d="M187.9,24.8L187.9,24.8l0.1,1.3c0,0,0,0.1,0,0.1c0,0,0,0,0,0h-2c0,0-0.1,0-0.1-0.1v-1.2L187.9,24.8z"/>
<path class="st0" d="M189.8,24.8L189.8,24.8l0.1,1.3c0,0,0,0.1,0,0.1c0,0,0,0,0,0h-2.1c0,0-0.1,0-0.1-0.1v-1.2c0,0,0,0,0.1,0
  L189.8,24.8z"/>
<path class="st0" d="M191.8,24.8L191.8,24.8l0.1,1.3c0,0,0,0.1,0,0.1c0,0,0,0,0,0h-2.1c0,0-0.1,0-0.1,0c0,0,0,0,0,0v-1.2
  c0,0,0,0,0.1,0L191.8,24.8z"/>
<path class="st0" d="M193.7,24.8L193.7,24.8l0.1,1.3c0,0,0,0.1,0,0.1c0,0,0,0,0,0h-2c0,0-0.1,0-0.1,0c0,0,0,0,0,0v-1.2
  c0,0,0,0,0.1,0L193.7,24.8z"/>
<path class="st0" d="M195.6,24.8L195.6,24.8l0.1,1.3c0,0,0,0.1,0,0.1c0,0,0,0,0,0h-2c0,0-0.1,0-0.1-0.1v-1.2L195.6,24.8z"/>
<path class="st0" d="M197.6,24.8L197.6,24.8l0.1,1.3c0,0,0,0.1,0,0.1c0,0,0,0,0,0h-2.1c0,0-0.1,0-0.1,0c0,0,0,0,0,0v-1.2
  c0,0,0,0,0.1,0L197.6,24.8z"/>
<path class="st0" d="M199.5,24.8L199.5,24.8l0.1,1.3c0,0,0,0.1,0,0.1c0,0,0,0,0,0h-2.1c0,0-0.1,0-0.1,0c0,0,0,0,0,0v-1.2
  c0,0,0,0,0.1,0L199.5,24.8z"/>
<path class="st0" d="M201.4,24.8L201.4,24.8l0.1,1.3c0,0,0,0.1,0,0.1c0,0,0,0,0,0h-2c0,0-0.1,0-0.1-0.1v-1.2L201.4,24.8z"/>
<path class="st0" d="M203.4,24.8L203.4,24.8l0.1,1.3c0,0,0,0.1,0,0.1c0,0,0,0,0,0h-2c0,0-0.1,0-0.1-0.1v-1.2c0,0,0,0,0.1,0
  L203.4,24.8z"/>
<path class="st0" d="M205.3,24.8L205.3,24.8l0.1,1.3c0,0,0,0.1,0,0.1c0,0,0,0,0,0h-2.1c0,0-0.1,0-0.1,0c0,0,0,0,0,0v-1.2
  c0,0,0,0,0.1,0L205.3,24.8z"/>
<path class="st0" d="M207.3,24.8L207.3,24.8l0.1,1.3c0,0,0,0.1,0,0.1c0,0,0,0,0,0h-2c0,0-0.1,0-0.1,0c0,0,0,0,0,0v-1.2
  c0,0,0,0,0.1,0L207.3,24.8z"/>
<path class="st0" d="M214.1,24.8L214.1,24.8l0.1,1.3c0,0,0,0.1,0,0.1c0,0,0,0,0,0h-1.4c-0.4,0-0.8-0.1-1.1-0.2
  c-0.4-0.1-0.7-0.3-1-0.5c-0.6,0.4-1.4,0.6-2.1,0.6h-1.3c0,0-0.1,0-0.1-0.1v-1.2 M207.1,24.8h1.1c0.2,0,0.4,0,0.6-0.1
  c0.2,0,0.3-0.1,0.5-0.1c-0.3-0.2-0.5-0.5-0.7-0.8c-0.3-0.4-0.5-0.8-0.7-1.2c-0.2-0.4-0.3-0.8-0.4-1.3c0.5-0.4,1-0.7,1.5-0.9
  c0.5-0.2,1.1-0.3,1.7-0.3c1,0,2,0.2,2.8,0.7c0,0.8-0.2,1.5-0.5,2.2c-0.3,0.6-0.8,1.2-1.4,1.6c0.3,0.2,0.7,0.2,1,0.2H207.1z
   M210.6,23.9c0.8-0.5,1.4-1.3,1.4-2.2c-0.4-0.1-0.8-0.2-1.3-0.2c-0.3,0-0.5,0-0.8,0.1c-0.2,0.1-0.5,0.2-0.7,0.3
  c0.1,0.4,0.3,0.8,0.5,1.2C210,23.3,210.3,23.6,210.6,23.9z"/>
<path class="st0" d="M216.1,24.8L216.1,24.8l0.1,1.3c0,0,0,0.1,0,0.1c0,0,0,0,0,0H214c0,0-0.1,0-0.1,0c0,0,0,0,0,0v-1.2
  c0,0,0,0,0.1,0L216.1,24.8z"/>
<path class="st0" d="M218,24.8L218,24.8l0.1,1.3c0,0,0,0.1,0,0.1c0,0,0,0,0,0h-2.1c0,0-0.1,0-0.1,0c0,0,0,0,0,0v-1.2c0,0,0,0,0.1,0
  L218,24.8z"/>
<path class="st0" d="M219.9,24.8L219.9,24.8L220,26c0,0,0,0.1,0,0.1c0,0,0,0,0,0h-2c0,0-0.1,0-0.1-0.1v-1.2L219.9,24.8z"/>
<path class="st0" d="M219.8,26.1C219.8,26.1,219.8,26.1,219.8,26.1l-0.1-1.3c0,0,0,0,0.1,0h1.4v-7.3h1.7v8.6L219.8,26.1z"/>
<path class="st0" d="M225.2,17.5h1.7v8.6h-1.7V17.5z"/>
<path id="Path_469" class="st1" d="M246.7,8.3c0.3-0.3,0.7-0.6,1.1-1l0.4-0.4c0.1-0.1,0.2-0.2,0.3-0.4c0.1-0.2,0.2-0.3,0.2-0.5
  l0.3-0.9l0,0c-0.1,0.3-0.3,0.5-0.5,0.8c-0.2,0.2-0.4,0.4-0.7,0.5c-0.3,0.2-0.5,0.4-0.8,0.6c-0.3,0.3-0.5,0.6-0.7,0.9v0
  c0.2-0.5,0.3-1,0.4-1.3l0.2-1c0.1-0.2,0.2-0.5,0.3-0.7c0.1-0.2,0.3-0.4,0.5-0.6l0,0c-0.6,0.2-1,0.5-1.3,1c-0.3,0.5-0.5,1.1-0.5,1.7
  v2.1C246.2,8.8,246.4,8.5,246.7,8.3z M248.1,5.7c0.3-0.3,0.5-0.6,0.8-0.9l0.7-0.8c0.2-0.3,0.4-0.5,0.7-0.7l0,0
  c-0.2,0.2-0.4,0.3-0.7,0.4c-0.3,0.1-0.6,0.2-0.9,0.4c-0.3,0.2-0.6,0.5-0.9,0.9c-0.3,0.5-0.6,1.1-0.7,1.7
  C247.5,6.3,247.8,6,248.1,5.7L248.1,5.7z M244.8,13.6c0.2,0.3,0.4,0.6,0.7,0.9c0.3,0.3,0.5,0.7,0.7,1.1l0,0c0-0.2,0-0.3,0-0.5v-0.4
  c0-0.3,0.1-0.5,0.2-0.8l0.4-1.2c0.1-0.5,0.2-0.9,0.3-1.4c0.1-0.4,0.1-0.8,0.1-1.2l0,0c-0.1,0.3-0.2,0.5-0.3,0.8l-0.5,0.8
  c-0.2,0.3-0.3,0.6-0.4,0.9c-0.1,0.3-0.2,0.7-0.2,1c0,0.2,0,0.3,0.1,0.5c0,0.1,0.1,0.2,0.1,0.4l0,0c-0.1-0.4-0.2-0.9-0.3-1.3
  c-0.1-0.4-0.3-0.8-0.4-1.1s-0.3-0.6-0.4-0.9c-0.1-0.2-0.1-0.5-0.1-0.7c0-0.2,0-0.3,0-0.5s0-0.3,0-0.4l0,0c-0.1,0.3-0.2,0.5-0.2,0.8
  c-0.1,0.3-0.1,0.7-0.1,1c0,0.5,0.1,1,0.2,1.4C244.5,12.9,244.6,13.3,244.8,13.6L244.8,13.6z M250.2,21.7h0.3c0.1,0,0.3,0,0.4,0
  l0.5-0.1c0.2,0,0.5-0.1,0.9-0.2l1.4-0.3c-0.4-0.1-0.7-0.2-1-0.3c-0.3-0.1-0.6-0.3-0.8-0.5c-0.3-0.3-0.7-0.6-1-0.9
  c-0.3-0.2-0.5-0.5-0.8-0.7c-0.1-0.1-0.5-0.4-0.6-0.5l0,0c0.1,0.1,0.4,0.8,0.4,0.8V19l0.3,0.5l0.1,0.2c0.1,0.2,0.3,0.4,0.5,0.6
  c0.4,0.3,0.8,0.5,1.3,0.6l0,0l-0.6-0.1l-0.5-0.1l-0.4,0c-0.2,0-0.4,0-0.5,0l-0.4-0.1l-0.4,0H249c-0.3,0-0.5-0.1-0.8-0.1
  c-0.2-0.1-0.5-0.2-0.7-0.3c-0.3-0.2-0.5-0.4-0.7-0.6l0,0c0.1,0.2,0.3,0.4,0.4,0.6c0.2,0.2,0.4,0.4,0.6,0.6c0.3,0.2,0.6,0.4,0.9,0.5
  c0.4,0.2,0.8,0.3,1.2,0.3L250.2,21.7L250.2,21.7z M245.6,12.3L245.6,12.3c0-0.2,0-0.3,0.1-0.5c0.1-0.2,0.1-0.3,0.2-0.5
  c0.1-0.3,0.3-0.5,0.5-0.7l0.8-1.1c0.2-0.3,0.4-0.6,0.5-1c0.1-0.4,0.2-0.7,0.2-0.9l0,0c0,0.1-0.1,0.2-0.1,0.2
  c-0.1,0.1-0.1,0.2-0.2,0.2c-0.1,0.1-0.2,0.2-0.3,0.3l-0.5,0.5c-0.3,0.3-0.6,0.6-0.8,1c-0.1,0.3-0.2,0.7-0.3,1l0,0v-0.5
  c0-0.1,0-0.4,0-0.6s0-0.6-0.1-1.1s-0.1-0.9-0.1-1.6c0-0.2,0-0.4,0.1-0.6c0.1-0.2,0.2-0.3,0.2-0.5l0,0c-0.4,0.4-0.7,1-0.9,1.5
  c-0.1,0.5-0.2,0.9-0.2,1.4c0,0.5,0.1,1.1,0.3,1.6C245.3,11.2,245.4,11.8,245.6,12.3L245.6,12.3z M248.7,20.1l1.3,0.3l0.6,0.1
  c-0.2-0.3-0.4-0.5-0.6-0.8c-0.2-0.3-0.3-0.5-0.4-0.8c-0.1-0.3-0.3-0.8-0.5-1.3c-0.1-0.2-0.1-0.3-0.2-0.5c-0.1-0.1-0.1-0.3-0.2-0.4
  s-0.2-0.3-0.3-0.5l-0.5-0.7l0,0c0.1,0.2,0.1,0.6,0.3,1.1c0.1,0.5,0.2,1,0.3,1.5c0.1,0.4,0.2,0.7,0.4,1c0.2,0.3,0.5,0.6,0.8,0.9l0,0
  c-0.3-0.1-0.5-0.3-0.7-0.5c-0.3-0.3-0.7-0.5-1.1-0.7c-0.6-0.3-1.2-0.6-1.8-1c-0.4-0.3-0.8-0.7-1-1.2l0,0c0.1,0.5,0.3,0.9,0.6,1.4
  c0.3,0.4,0.5,0.7,0.9,1c0.3,0.3,0.7,0.5,1.1,0.8C247.9,19.8,248.3,19.9,248.7,20.1L248.7,20.1z M245.9,17l2.2,1.5
  c-0.1-0.2-0.2-0.4-0.2-0.6c-0.1-0.2-0.1-0.4-0.2-0.6c0-0.2-0.1-0.5-0.1-0.7s-0.1-0.6-0.1-1c-0.1-0.7-0.2-1.2-0.2-1.5
  c-0.1-0.4-0.2-0.8-0.3-1.2l0,0c0,0.3,0,0.6,0,0.9c0,0.2,0,0.4-0.1,0.7c0,0.2-0.1,0.4-0.1,0.6c0,0.2,0,0.4,0,0.6
  c0,0.3,0.1,0.6,0.2,0.9c0.1,0.3,0.2,0.6,0.4,0.9l0,0c-0.3-0.5-0.6-0.9-1-1.3l-0.9-1c-0.3-0.3-0.5-0.6-0.7-0.9
  c-0.2-0.3-0.3-0.6-0.4-1l-0.1,0.3c0,0.1,0,0.2,0,0.3c0,0.3,0.1,0.7,0.2,1c0.1,0.3,0.3,0.7,0.4,1c0.2,0.3,0.4,0.5,0.6,0.8
  c0.2,0.2,0.4,0.4,0.6,0.5L245.9,17z M264.1,4c0.2,0.3,0.4,0.6,0.7,0.9c0.2,0.3,0.5,0.6,0.8,0.9c0.3,0.3,0.6,0.6,1,0.8
  c-0.1-0.6-0.4-1.2-0.7-1.7c-0.2-0.3-0.5-0.6-0.9-0.9c-0.3-0.2-0.6-0.3-0.9-0.4c-0.3-0.1-0.5-0.2-0.7-0.4l0,0
  C263.7,3.5,263.9,3.7,264.1,4L264.1,4z M266.1,20.2c-0.2,0.1-0.4,0.2-0.7,0.3c-0.2,0.1-0.5,0.1-0.8,0.1h-0.2l-0.4,0l-0.4,0.1
  c-0.2,0-0.4,0-0.5,0l-0.4,0l-0.5,0.1l-0.6,0.1l0,0c0.5-0.1,0.9-0.3,1.3-0.6c0.2-0.2,0.4-0.4,0.5-0.6l0.1-0.2
  c0.1-0.2,0.2-0.4,0.3-0.5l0.1-0.1l0.4-0.8l0,0l-0.6,0.5l-0.8,0.7c-0.3,0.3-0.7,0.6-1,0.9c-0.2,0.2-0.5,0.4-0.8,0.5
  c-0.3,0.1-0.6,0.2-1,0.3l1.4,0.4c0.4,0.1,0.6,0.1,0.9,0.2l0.5,0.1c0.1,0,0.3,0,0.5,0h0.3h0.3c0.4-0.1,0.8-0.2,1.2-0.3
  c0.3-0.1,0.6-0.3,0.9-0.5c0.2-0.2,0.4-0.4,0.6-0.6c0.2-0.2,0.3-0.4,0.4-0.6l0,0C266.7,20,266.5,20.2,266.1,20.2L266.1,20.2z
   M267.8,17.7c-0.6,0.4-1.2,0.7-1.8,1c-0.4,0.2-0.8,0.4-1.1,0.7c-0.2,0.2-0.5,0.4-0.7,0.5l0,0c0.3-0.3,0.6-0.6,0.8-0.9
  c0.2-0.3,0.3-0.6,0.4-1c0.1-0.5,0.2-1,0.3-1.5s0.2-0.9,0.2-1.1l0,0l-0.5,0.7c-0.1,0.2-0.2,0.4-0.3,0.5c-0.1,0.1-0.2,0.3-0.2,0.4
  c-0.1,0.2-0.1,0.3-0.2,0.5c-0.2,0.5-0.4,1-0.5,1.3c-0.1,0.3-0.2,0.6-0.4,0.8c-0.2,0.3-0.4,0.6-0.6,0.8l0.6-0.1l1.3-0.3
  c0.4-0.1,0.8-0.2,1.2-0.4c0.4-0.2,0.8-0.5,1.1-0.8c0.3-0.3,0.6-0.7,0.9-1.1c0.3-0.4,0.5-0.9,0.6-1.4l0,0
  C268.7,17,268.3,17.5,267.8,17.7L267.8,17.7z M268.7,11.9c-0.1,0.3-0.3,0.7-0.4,1.1c-0.1,0.4-0.3,0.8-0.3,1.3l0,0
  c0-0.1,0-0.3,0.1-0.4c0-0.2,0.1-0.3,0.1-0.5c0-0.3-0.1-0.7-0.2-1c-0.1-0.3-0.3-0.6-0.4-0.9c-0.2-0.3-0.3-0.5-0.5-0.8
  c-0.2-0.2-0.3-0.5-0.3-0.8l0,0c0,0.4,0,0.8,0.1,1.2c0.1,0.5,0.2,0.9,0.3,1.4s0.2,0.9,0.4,1.2c0.1,0.3,0.1,0.5,0.2,0.8V15
  c0,0.2,0,0.3,0,0.5l0,0c0.2-0.4,0.5-0.7,0.7-1.1c0.2-0.3,0.5-0.6,0.7-0.9c0.2-0.3,0.4-0.6,0.5-1c0.1-0.5,0.2-1,0.2-1.5
  c0-0.3-0.1-0.7-0.1-1c-0.1-0.3-0.1-0.5-0.2-0.8l0,0c0,0.1,0,0.3,0,0.4c0,0.2,0,0.3,0,0.5c0,0.2-0.1,0.5-0.1,0.7
  c-0.1,0.3-0.2,0.6-0.4,0.9L268.7,11.9z M267.8,9.8c-0.2-0.4-0.4-0.7-0.8-1l-0.5-0.5c-0.1-0.1-0.2-0.2-0.3-0.3L266,7.8
  c-0.1-0.1-0.1-0.2-0.1-0.3l0,0c0,0.2,0.1,0.5,0.2,0.9c0.1,0.4,0.3,0.7,0.5,1.1l0.8,1.1c0.2,0.2,0.3,0.5,0.5,0.7
  c0.1,0.2,0.2,0.3,0.2,0.5c0,0.2,0.1,0.3,0.1,0.5l0,0c0.1-0.6,0.3-1.2,0.5-1.8c0.2-0.5,0.3-1,0.3-1.5c0-0.5-0.1-0.9-0.2-1.4
  c-0.2-0.6-0.5-1.1-0.9-1.6l0,0c0.1,0.2,0.1,0.3,0.2,0.5c0.1,0.2,0.1,0.4,0.1,0.6c0,0.6,0,1.2-0.1,1.6s-0.1,0.8-0.1,1.1s0,0.4,0,0.6
  v0.5l0,0C268,10.4,267.9,10.1,267.8,9.8L267.8,9.8z M266.5,5c0.1,0.2,0.2,0.5,0.3,0.7l0.2,1c0.1,0.4,0.2,0.8,0.4,1.3v0
  c-0.2-0.4-0.4-0.7-0.7-0.9c-0.2-0.2-0.5-0.4-0.8-0.6c-0.2-0.2-0.5-0.3-0.7-0.5c-0.2-0.2-0.4-0.5-0.5-0.8l0,0L265,6
  c0.1,0.2,0.1,0.4,0.2,0.5c0.1,0.1,0.1,0.3,0.2,0.4c0.1,0.1,0.2,0.2,0.4,0.4c0.4,0.4,0.8,0.7,1.1,1c0.3,0.2,0.6,0.6,0.8,0.9V7.1
  c0-0.6-0.2-1.2-0.5-1.7c-0.3-0.5-0.8-0.8-1.3-1l0,0C266.2,4.5,266.4,4.7,266.5,5L266.5,5z M263,22.3c-0.2,0-0.3,0-0.5,0l-0.5-0.1
  l0,0l-0.6-0.2l-0.8-0.3l-1.3-0.5c-0.3-0.1-0.6-0.1-0.9-0.1c-0.3,0-0.6,0-0.9,0.1l-0.7,0.1c-0.1,0-0.3-0.1-0.6-0.1
  c-0.3-0.1-0.6-0.1-0.9-0.1c-0.3,0-0.6,0.1-0.9,0.1l-1.3,0.5c-0.7,0.2-1.2,0.4-1.5,0.5c-0.3,0.1-0.7,0.1-1,0.1c-0.1,0-0.3,0-0.4,0
  c-0.1,0-0.2-0.1-0.4-0.1l-0.4-0.1l-0.6-0.3l0,0c0.3,0.3,0.7,0.6,1.1,0.8c0.5,0.3,1.1,0.5,1.7,0.5c0.2,0,0.4,0,0.6,0
  c0.2,0,0.4-0.1,0.6-0.2c0.2-0.1,0.4-0.2,0.6-0.3c0.2-0.1,0.5-0.3,0.8-0.5s0.6-0.4,0.9-0.5c0.2-0.1,0.5-0.2,0.8-0.2
  c0.1,0,0.2,0,0.4,0.1c-0.4,0.2-0.9,0.5-1.4,0.8c-0.5,0.3-1,0.8-1.5,1.2L254,24c0.4-0.5,0.9-1,1.5-1.4c0.4-0.4,0.9-0.6,1.4-0.9
  c0.5,0.2,1,0.5,1.4,0.9c0.5,0.4,1,0.9,1.5,1.4l0.5-0.5c-0.4-0.5-0.9-0.9-1.5-1.2l-1.4-0.8c0.1,0,0.3-0.1,0.4-0.1
  c0.3,0,0.6,0.1,0.8,0.2l0.9,0.5l0.8,0.5c0.2,0.1,0.4,0.2,0.6,0.3c0.2,0.1,0.4,0.1,0.6,0.2c0.2,0,0.4,0.1,0.6,0.1h0.1
  c1,0,2-0.5,2.7-1.3l0,0c-0.3,0.1-0.7,0.3-1,0.4C263.5,22.3,263.3,22.3,263,22.3z M269.6,13.6L269.6,13.6c0-0.1,0-0.2,0-0.2
  c0-0.1,0-0.2,0-0.3c0,0.4-0.2,0.7-0.4,1.1c-0.2,0.3-0.4,0.6-0.7,0.9l0,0l-0.9,0.9c-0.4,0.4-0.7,0.8-1,1.3l0,0
  c0.1-0.3,0.3-0.6,0.4-0.9c0.1-0.3,0.2-0.6,0.2-0.9c0-0.2,0-0.4,0-0.6c0-0.2-0.1-0.4-0.1-0.6s-0.1-0.4-0.1-0.7c0-0.3,0-0.6,0-0.9l0,0
  l0,0l0,0c-0.1,0.4-0.3,0.8-0.3,1.2c-0.1,0.4-0.1,0.9-0.2,1.5c0,0.4-0.1,0.7-0.1,1s-0.1,0.5-0.1,0.7c0,0.2-0.1,0.4-0.2,0.6
  c-0.1,0.1-0.1,0.3-0.2,0.5l0,0.1l0,0l0.7-0.5l1.5-1c0.2-0.2,0.4-0.3,0.6-0.5c0.2-0.2,0.4-0.5,0.6-0.8c0.1-0.2,0.2-0.4,0.3-0.6
  c0.1-0.1,0.1-0.3,0.1-0.4c0.1-0.3,0.2-0.7,0.2-1l0,0C269.8,13.6,269.6,13.6,269.6,13.6L269.6,13.6z M260.9,4.7
  c0.1,0,0.1,0.1,0.2,0.1l0.1,0.1c0,0,0.1,0.1,0.1,0.1c0.1,0,0.1,0,0.1-0.1c0-0.1,0-0.1,0,0s0,0,0,0c0-0.1,0-0.1-0.1-0.2
  c-0.1-0.1-0.2-0.1-0.3-0.1C261,4.7,261,4.7,260.9,4.7L260.9,4.7C260.9,4.7,260.9,4.7,260.9,4.7c0,0.1,0,0.1,0.1,0.1L260.9,4.7z
   M257.7,4L257.7,4c0.2,0,0.3-0.1,0.4-0.1h0.4c0.1,0,0.1,0,0.2-0.1l0.1-0.1c-0.1-0.1-0.2-0.2-0.4-0.2h-0.3c-0.1,0-0.2,0.1-0.4,0.1
  c-0.1,0-0.2,0.1-0.4,0.2c-0.1,0-0.2,0-0.2,0.1c0,0.1,0.1,0.1,0.2,0.1C257.5,4,257.6,4,257.7,4L257.7,4z M256.8,20.5
  c5,0,9.1-4.1,9.1-9.1c0-5-4.1-9.1-9.1-9.1c-5,0-9.1,4.1-9.1,9.1S251.8,20.5,256.8,20.5L256.8,20.5z M248.2,11.6h1.4
  c0,0.6,0.1,1.2,0.3,1.8c0,0-0.1,0-0.1-0.1l0,0l-0.1-0.2l-0.2,0.1c0,0.1-0.1,0.2-0.1,0.1c0,0-0.1-0.1-0.1-0.1c-0.1,0-0.3,0.1-0.3,0.2
  c0,0,0,0,0,0l0,0c0,0.1,0,0.2-0.1,0.4l0.2,0.5c0,0.1,0.1,0.1,0.2,0c0.1,0.1,0.1,0.1,0.2,0.2c0,0,0.1,0.1,0.1,0.1
  c0.1,0,0.1,0,0.1-0.1l0,0c0,0,0.1,0.1,0.1,0.1l0.2,0.1l0,0c0.1,0.1,0.2,0.1,0.3,0.1c0,0.1,0.1,0.2,0.2,0.3c0.1,0.1,0.1,0.1,0.2,0.1
  c0,0,0.1,0,0.1-0.1c0,0.1,0.1,0.2,0.1,0.3l0.1,0.1l0.1,0.1h0.1c0,0.1,0.1,0.2,0.1,0.2c0.1,0.1,0.1,0.1,0.2,0.1l0,0l0.1,0.1l-1,1
  C249.1,15.8,248.2,13.8,248.2,11.6L248.2,11.6z M254.8,9.1L254.8,9.1L254.7,9c0.5-0.5,1.2-0.7,1.9-0.8v1l0,0l0,0l0,0
  c0,0-0.1,0-0.1,0h-0.2c0,0,0-0.1,0-0.1l0,0c-0.1,0-0.1,0.1-0.1,0.1s0,0.1,0,0.2c0,0.1-0.1,0.1-0.1,0.2c-0.1,0-0.1,0.1-0.2,0.1
  l-0.1-0.1h-0.2c0,0-0.1-0.1-0.1-0.1l-0.1-0.1l0,0c0,0-0.1,0-0.1,0.1L255,9.3l0,0V9.3C254.9,9.2,254.9,9.2,254.8,9.1L254.8,9.1z
   M254.3,8.6l-0.9-0.9c0.9-0.8,2-1.3,3.1-1.3v1.3C255.7,7.8,255,8.1,254.3,8.6L254.3,8.6z M254.9,13c0,0,0-0.1,0-0.2l-0.1,0.1
  c0.1-0.1,0.1-0.1,0.2-0.2c0-0.1,0.1-0.1,0.1-0.2l0,0c0,0.1,0.1,0.1,0.1,0.2l-0.8,0.9c-0.3-0.4-0.6-0.9-0.7-1.4c0.1,0,0.1,0,0.2,0.1
  l0.2,0.2h0.1l0.1,0.1c0,0,0,0.1,0,0.1c0,0,0,0,0.1,0.1c0,0,0.1,0.1,0.1,0.1h0.1c0,0,0-0.1,0-0.1c0-0.1,0-0.1,0-0.1l0.1,0.2l0.1,0.2
  l0,0C254.7,13.1,254.7,13.1,254.9,13L254.9,13z M256.7,14c0,0,0.1,0.1,0.1,0.1s-0.1,0.1-0.2,0.1s-0.1,0.1-0.1,0.2s0,0.2-0.1,0.3l0,0
  c-0.6-0.1-1.2-0.3-1.6-0.7l0.8-0.8c0.3,0.3,0.7,0.5,1.1,0.5c0,0,0,0.1,0,0.1c0,0-0.1,0.1-0.1,0.1C256.6,13.9,256.6,14,256.7,14
  L256.7,14z M252.7,14c0-0.2,0-0.3-0.1-0.5l-0.1-0.3c0-0.1,0-0.3-0.1-0.4c-0.1-0.1-0.2-0.3-0.3-0.4v-0.2l-0.1-0.2l0,0c0,0,0,0,0-0.1
  l0.3-0.1c0-0.1,0-0.2,0-0.3h0.2c0.1,0,0.1-0.1,0.1-0.1c0-0.1,0-0.1-0.1-0.2c0-0.1,0-0.1-0.1-0.2c0,0,0-0.1,0.1-0.1
  c0.1,0,0.1,0,0.2,0c0.1,0,0.2,0,0.2,0.1c0,0.1,0.1,0.1,0.1,0.2c0,0.1,0,0.1,0,0.2c0,0,0,0.1,0,0.1h0.1c0,0.2-0.1,0.3-0.2,0.3
  c-0.1,0-0.1,0-0.1-0.1c0,0-0.1-0.1-0.1-0.1l0,0l0,0c0,0,0,0.1,0,0.1c0,0.1,0,0.1,0,0.2c0,0.1-0.1,0.2-0.2,0.1s0,0.1,0.1,0.1
  s0.1,0.2,0.1,0.2c0-0.1,0-0.1,0.1-0.2c0-0.1,0-0.2,0.1-0.2l0,0h0.1l0,0l0,0c0.1,0.7,0.4,1.3,0.9,1.8l-1.3,1.3
  c-0.1-0.1-0.1-0.1-0.1-0.2c0-0.1,0.2-0.2,0.2-0.3v-0.2c-0.1-0.1-0.2-0.2-0.2-0.4L252.7,14z M251.9,12.2c0,0,0,0.1,0,0.1
  c0,0.1,0,0.1-0.1,0.1l0,0c0-0.2-0.1-0.5-0.1-0.7h0.2c0,0,0,0.1,0,0.1c0,0,0,0.1-0.1,0.1c0,0,0,0.1,0,0.1
  C251.9,12.1,251.9,12.1,251.9,12.2L251.9,12.2z M251.8,11.2c0-1.2,0.5-2.3,1.3-3.2l0.9,1l0,0l-0.2,0.1l-0.1,0.2
  c-0.1,0-0.2,0.1-0.3,0.1l-0.2,0.2L253,9.7c0,0-0.1,0-0.1,0.1c0,0.1,0,0.2,0,0.2l-0.3,0.1c0,0,0,0-0.1,0l-0.1,0.1c0,0,0,0.1,0,0.1
  c0,0,0,0.1,0,0.1c-0.1,0-0.1,0.1-0.1,0.1c0,0.1,0,0.2,0,0.3v0.3l0,0c0,0,0,0.1,0,0.1L251.8,11.2z M254.4,14.2c0.5,0.4,1,0.7,1.6,0.8
  l-0.1,0.1c-0.1,0-0.2,0.1-0.2,0.2c0,0.1-0.1,0.2-0.1,0.2c-0.1,0-0.1,0.1-0.1,0.1c0,0,0,0,0,0c0.1,0.1,0.2,0.2,0.2,0.4
  c0,0.1,0.2,0.3,0.3,0.3l0.2,0.1c0.1,0,0.1,0,0.2,0.1h0.2c-1.1-0.1-2.2-0.5-3-1.3L254.4,14.2z M253.1,7.3l-0.9-0.9
  c1.2-1.1,2.8-1.8,4.4-1.8V6C255.3,6.1,254.1,6.6,253.1,7.3L253.1,7.3z M252.8,7.7c-0.9,0.9-1.4,2.2-1.4,3.5H250
  c0.1-1.6,0.7-3.2,1.8-4.4L252.8,7.7z M251.3,11.6c0,0.2,0,0.4,0.1,0.7l-0.1-0.1c-0.1-0.1-0.1-0.2-0.2-0.1c-0.1,0-0.1,0-0.1,0.1
  c0,0.1,0,0.1-0.1,0.1c-0.1,0.1-0.2,0.1-0.3,0.2c-0.1,0.1-0.2,0.2-0.2,0.4c0,0,0,0.1,0,0.1c0,0,0,0.1,0,0.1s0.1,0.1,0,0.1
  s0,0.1,0,0.1 M250.4,13.2C250.4,13.2,250.4,13.3,250.4,13.2c-0.2-0.5-0.3-1-0.3-1.6L250.4,13.2z M256.6,20c-2.1-0.1-4.1-0.9-5.7-2.4
  l1-1c1.3,1.2,3,1.9,4.7,2L256.6,20z M256.6,18.2c-1.6,0-3.2-0.7-4.4-1.8c0.1,0,0.2,0.1,0.2,0.1c0.1,0,0.2,0,0.2-0.1l0.3-0.1
  c0.1,0,0.2,0,0.3-0.1c0.1,0,0.2,0,0.2,0c0.1,0,0.1-0.1,0.1-0.1c0-0.1,0-0.1-0.1-0.2c-0.1-0.1-0.1-0.1-0.1-0.1s0-0.1-0.1-0.1
  c-0.1-0.1-0.1-0.1-0.2-0.2l0,0c1,0.9,2.2,1.4,3.5,1.5L256.6,18.2z M256.8,14.8L256.8,14.8c-0.1,0-0.2,0-0.3-0.1v-0.1
  c0,0,0.1-0.1,0.1-0.1c0.1,0,0.1-0.1,0.2-0.1v-0.1l0.2-0.2h0.1l0.2-0.1c0.1,0,0.2,0.1,0.2,0.1c0.1,0,0.1,0.1,0.2,0.1v-0.1
  c0.1,0,0.1,0.1,0.2,0.1c0.1,0,0.1,0,0.2-0.1c0,0,0-0.1,0-0.1c0,0,0.1,0,0.1,0l0,0h0.1c0.1,0,0.1,0,0.2-0.1l0.2-0.1l0,0l0,0
  c0,0,0,0.1,0,0.1c0,0.2-0.1,0.3-0.3,0.4c-0.1,0.1-0.3,0.1-0.4,0.2c0,0-0.1,0.1-0.1,0.1c0,0.1-0.1,0.1-0.1,0.1c-0.1,0-0.3,0-0.4-0.1
  c0-0.1-0.1-0.1-0.1-0.2c-0.1,0-0.1,0-0.2,0L256.8,14.8c0-0.1-0.1-0.1-0.1-0.1L256.8,14.8z M258.1,13.8c0-0.1,0.1-0.2,0.2-0.2
  c0.1,0,0.2,0,0.2,0c0,0.1-0.1,0.1-0.2,0.2C258.3,13.8,258.2,13.8,258.1,13.8L258.1,13.8z M259.1,13.1c0.1,0,0.1,0.1,0.1,0.2
  c0,0.1,0,0.1-0.1,0.1l0,0c-0.1,0-0.1-0.1-0.1-0.2c-0.1,0-0.2-0.1-0.2-0.2c0-0.1,0-0.1,0-0.2h0.1c0,0,0,0,0,0.1L259.1,13.1
  L259.1,13.1z M262,8C262,8,262,8,262,8c0.1,0,0.2,0,0.3,0.1c0.1,0.1,0.3,0.3,0.4,0.5c0,0,0,0,0.1,0.1s0.1,0.1,0.1,0.1l0.2,0
  c0,0,0-0.1,0-0.1c0.4,0.8,0.6,1.7,0.6,2.6h-1.3l0,0c0-0.1,0-0.2-0.1-0.3c-0.1-0.1-0.1-0.3,0-0.4c0-0.1,0-0.2,0-0.3c0,0-0.1,0-0.1,0
  c0,0-0.1,0.1-0.1,0.1l-0.1,0.2l0,0v0.1c0,0,0,0,0,0.1l-0.1,0.2c0,0.1,0,0.2,0,0.2l0,0c0,0,0,0.1,0,0.1h-0.6c0,0,0.1-0.1,0.1-0.1l0,0
  l0.2-0.1c0,0-0.1,0-0.1-0.1c0-0.1,0-0.1,0-0.1l0.2-0.1c0.1-0.1,0.1-0.2,0.2-0.3c0.1-0.2,0.2-0.4,0.2-0.6c0,0-0.1-0.1-0.1-0.2
  c0,0,0-0.1,0-0.1c0-0.2,0.1-0.6-0.2-0.6c-0.2,0-0.2-0.1,0-0.1c0.1-0.1,0.1-0.1,0.1-0.2h-0.2c0,0,0-0.1,0-0.1c0,0,0-0.1,0-0.1
  c0,0,0-0.1,0-0.1c0,0,0,0,0,0l0,0c0,0-0.1,0-0.1,0h-0.1l0,0l0-0.1c0-0.1-0.1-0.2-0.1-0.3c-0.1-0.1-0.2-0.1-0.2-0.2l0,0
  c0,0,0-0.1,0-0.1l0.3-0.3l0.4,0.1c0,0.1,0,0.2,0.1,0.2c0,0,0.1,0.1,0.1,0.1l0.1,0.1L262,8L262,8z M260.8,16.8
  C260.7,16.8,260.7,16.8,260.8,16.8C260.7,16.8,260.7,16.8,260.8,16.8c-0.1-0.1-0.1-0.1,0-0.2c0.1-0.1,0.1-0.1,0.1-0.2
  c0-0.1,0-0.1,0.1-0.2c0,0,0-0.1,0-0.1l-0.1-0.1l-0.1-0.1l-0.2-0.1c-0.1,0-0.1-0.1-0.1-0.1c0-0.1,0-0.1,0-0.1v-0.1l0.1-0.1l0.7,0.7
  c0,0.1,0.1,0.1,0.1,0.1l0,0l0.1,0.1c-0.2,0.2-0.5,0.4-0.8,0.6c0,0,0-0.1,0-0.1l0,0C260.8,16.9,260.8,16.9,260.8,16.8L260.8,16.8z
   M260.3,13.5c-0.1,0-0.1,0-0.2,0c-0.1,0-0.2,0.1-0.2,0.2l0,0l0,0c0,0-0.1,0-0.1,0l-0.1,0.1c-0.1,0-0.1,0-0.1-0.1s0.1-0.1,0.3-0.1
  l0.1-0.2l0.1-0.1c0.1-0.1,0.2-0.1,0.2-0.2c0-0.1,0.1-0.1,0.1-0.2l0,0c0,0.1,0,0.1,0.1,0.1s0.1-0.1,0.2-0.2c0.1,0.1,0.1,0.1,0.2,0.2
  c0.1,0,0.2,0,0.2-0.1h0.4v0.1l0,0c-0.2,0.7-0.5,1.3-1,1.8c0,0,0-0.1,0-0.1c0-0.1-0.1-0.2-0.1-0.3c0,0-0.1,0.1-0.1,0.2l-0.1,0.3
  l-0.3,0.1c-0.1,0-0.2,0-0.3,0c-0.1,0-0.2-0.1-0.2-0.1c-0.1-0.1-0.2-0.1-0.3-0.1l-0.3-0.1c-0.1,0-0.2-0.1-0.2-0.1s0-0.1,0.1-0.1h0.2
  l0.4,0.1l0.3,0.1h0.2l0.2-0.1c0-0.1,0-0.1,0.1-0.2c0-0.1,0.1-0.1,0.1-0.2c0.1-0.1,0.1-0.2,0.1-0.3c0-0.1,0-0.2,0-0.4
  C260.4,13.5,260.4,13.4,260.3,13.5L260.3,13.5z M261.1,11.6h0.7c0,0.3-0.1,0.6-0.1,0.9c0-0.1-0.1-0.2-0.1-0.3l-0.3-0.2
  c0-0.1,0-0.2,0-0.2c0,0,0,0,0-0.1L261.1,11.6L261.1,11.6z M261.4,15.3C261.4,15.3,261.3,15.3,261.4,15.3l-0.1,0.2l-0.5-0.4
  c0.6-0.7,1.1-1.5,1.3-2.3l0,0c0.1,0,0.2,0,0.2,0c0,0,0-0.1,0-0.1c0-0.1,0-0.1-0.1-0.2l0,0c0-0.3,0.1-0.5,0.1-0.8h1.3
  c-0.1,1.6-0.7,3.2-1.9,4.3h-0.1l0,0c0-0.1,0-0.3-0.1-0.4S261.5,15.4,261.4,15.3L261.4,15.3z M261.1,8.8L261.1,8.8c0,0,0,0.1,0,0.1
  l-0.1,0.1c0.1,0.1,0.2,0.2,0.2,0.2c0.1,0.1,0.2,0.1,0.3,0.2c0.1,0.1,0.1,0.2,0.1,0.4c0,0.1,0.1,0.2,0.1,0.3c0,0.1,0,0.2-0.1,0.2
  c-0.1,0.1-0.2,0.2-0.3,0.2l0,0c0-0.1,0-0.1,0.1-0.2c0-0.1,0.1-0.1,0.1-0.2c0.1,0,0.1-0.1,0.1-0.2h-0.1l-0.1-0.1
  c0-0.1-0.1-0.1-0.2-0.1c-0.1,0-0.1,0-0.1,0.1l-0.1,0.1l-0.1-0.1c0,0,0-0.1,0-0.1l-0.2-0.4c-0.1-0.1-0.2-0.1-0.3-0.1
  c-0.1,0-0.2,0-0.2,0c-0.1,0-0.2,0-0.2,0c-0.1,0-0.2,0-0.2,0.1c-0.1,0.1-0.1,0.1-0.2,0.2c0,0,0,0.1-0.1,0.1l-0.1-0.1l1.3-1.5l0,0
  l0.1,0.1l0.1,0.2C260.9,8.4,261,8.6,261.1,8.8L261.1,8.8z M257.8,17.8c0.1,0.1,0.2,0.2,0.4,0.2c-0.4,0.1-0.8,0.1-1.1,0.1v-1.3l0,0
  c0,0.1,0.1,0.2,0.2,0.2c0.1,0,0.2,0,0.3,0c0.1,0,0.2,0,0.2,0.1c0,0,0,0.1,0,0.1c0,0,0,0.1,0,0.1C257.7,17.6,257.7,17.7,257.8,17.8
  L257.8,17.8z M257,20v-1.4c0.5,0,1-0.1,1.5-0.2l0,0l0,0c0.1,0.1,0.2,0.2,0.3,0.3c0,0.1,0.1,0.1,0.3,0.1c0.1,0,0.1,0,0.2-0.1
  c0,0,0.1-0.1,0.1-0.1c0,0,0.1-0.1,0.1-0.1c0.1,0,0.1,0,0.1-0.1c0.1,0,0.2-0.1,0.2-0.2c0.1-0.1,0.2-0.1,0.2-0.2c0,0,0.1,0,0.1-0.1
  c0.1-0.1,0.1-0.2,0.1-0.3h0c0,0,0,0,0,0c0.5-0.3,0.9-0.6,1.3-1l1,1C261.2,19.1,259.1,19.9,257,20z M263,17.3l-1-1
  c1.2-1.3,1.9-3,2-4.7h1.4C265.3,13.7,264.5,15.7,263,17.3L263,17.3z M265.4,11.2H264c-0.1-1.4-0.5-2.8-1.4-4c0,0,0-0.1-0.1-0.1
  c0,0,0-0.1-0.1-0.1l-0.4-0.4c0,0,0-0.1,0-0.1l1-1C264.5,7,265.4,9,265.4,11.2L265.4,11.2z M257,2.8c2.1,0.1,4.2,0.9,5.7,2.4L261.9,6
  c0,0,0-0.1,0-0.1c-0.1-0.1-0.1-0.1-0.1-0.1c-0.1,0-0.1-0.1-0.1-0.2c0-0.1,0-0.1-0.1-0.2c-0.1-0.1-0.2-0.1-0.3-0.3
  C261.1,5,261,4.9,261,4.9c-0.1,0-0.1,0-0.2,0c-0.1,0-0.1,0-0.2,0h-0.2L260.1,5l0,0c-0.9-0.5-1.9-0.7-3-0.8c0.1-0.1,0.1-0.2,0-0.2
  s-0.1,0-0.2,0V2.8z M257,4.7c1,0,1.9,0.3,2.8,0.7l0,0l0.1,0.1l0.1,0.1l0.1,0.3l0.1,0.2c0,0.1,0,0.2,0,0.2l0.2,0.3h0.1h0.1
  c0,0,0.1,0,0.1,0.1c0,0.1,0.1,0.1,0.1,0.2c0,0,0,0.1,0,0.1l-0.4,0.4l0,0c0-0.2-0.1-0.3-0.2-0.5c-0.1-0.1-0.2-0.1-0.2-0.1L260,6.4
  c-0.1-0.2-0.2-0.2-0.2-0.2h-0.1l0.1,0.1l0.1,0.2c0,0,0,0,0,0.1l0,0c0,0.1,0.1,0.1,0.2,0.2v0.1l0,0.2c-0.9-0.6-1.9-1-3-1V4.7z
   M257,6.4c1.2,0,2.3,0.5,3.2,1.3l-0.9,0.9c-0.6-0.5-1.4-0.9-2.2-0.9V6.4z M257,8.2c0.7,0,1.3,0.3,1.8,0.7h-0.1h-0.1c0,0,0,0,0,0.1
  s0.1,0.1,0.1,0.1l-0.4,0.4l0,0l-0.1,0.1c-0.1,0-0.1,0.1-0.1,0.1c0,0,0,0.1,0,0.1L258,9.8h0c0,0-0.1,0-0.2-0.1s-0.1-0.1-0.2-0.1
  c0,0-0.1,0-0.1,0c0,0-0.1,0-0.1,0c0,0,0-0.1,0.1-0.1l0.3-0.1c0.1-0.1,0.2-0.2,0.2-0.3c0-0.1,0-0.2-0.1-0.2l-0.1,0.1
  c-0.1,0-0.2,0.1-0.2,0.1l-0.1,0.1c-0.1,0-0.1,0-0.2,0H257V8.2z M256.7,10.2C256.7,10.2,256.7,10.3,256.7,10.2c0.1,0,0.2,0,0.2,0.1
  c0,0,0.1,0,0.1,0v0.1c0,0,0.1,0.1,0.1,0.1l0,0l0,0c0,0,0,0.1,0,0.1l0,0l0,0c0,0,0.1,0,0.1,0c0,0,0,0,0.1,0c0,0,0,0,0,0.1l0,0
  c0,0,0,0,0,0.1c0,0,0,0.1,0,0.1v0.1l0,0c-0.1,0-0.1,0.1-0.1,0.2c0,0,0,0.1,0.1,0.1c0,0,0.1,0,0.1,0c0,0,0.1,0.1,0.1,0.2v0.3
  c0,0,0,0.1,0,0.1c0,0,0,0,0,0.1v0.2c0,0.1-0.1,0.1-0.1,0.2c0,0-0.1,0-0.1,0c-0.1,0-0.1,0-0.2,0c0,0-0.1,0.1-0.1,0.2
  s-0.1,0.2-0.1,0.3s-0.1,0.1-0.1,0.1h-0.1l0,0l-0.1,0.2v0.1c-0.3,0-0.7-0.2-0.9-0.4l0.2-0.2c0.1,0,0.2,0,0.3-0.1h0
  c0.2-0.1,0.1-0.2,0.2-0.3s0.2-0.2,0.1-0.3c0.1-0.2-0.5-0.2-0.6-0.2s0,0.2-0.1,0.3s-0.1,0.1-0.1,0.1c-0.1,0.1-0.2,0.2-0.2,0.3l0,0
  c0-0.1-0.1-0.2-0.1-0.2l0,0c0,0,0,0,0-0.1l0,0l0,0c0.1,0,0.1,0,0.1,0c0-0.1,0-0.1,0-0.2c0-0.1,0.1-0.2,0.2-0.4c0,0-0.1,0-0.1-0.1
  c0,0,0,0-0.1,0c0,0-0.1,0.1-0.1,0.1c0,0,0,0.1-0.1,0.1c0,0-0.1,0.1-0.1,0.1c0,0,0-0.1,0-0.1c0,0,0,0,0,0l0,0c0,0-0.1,0-0.1,0.1h-0.3
  c-0.1,0-0.2,0-0.3,0c0,0,0-0.1,0.1-0.1c0-0.1,0-0.3,0.1-0.4c0.1,0,0.1,0.1,0.2,0.1L255,11l0,0c0.1,0,0.1,0.1,0.1,0.2s0,0.1,0.1,0.1
  c0,0,0.1,0,0.1-0.1v-0.2c0-0.2,0.1-0.3,0.1-0.3v-0.1c0-0.1,0.1-0.1,0.1-0.1l0,0c0,0,0.1-0.1,0.1-0.1c0-0.1,0.1-0.1,0.1-0.2l0.3-0.1
  c0.1-0.1,0.2-0.1,0.2-0.2l0,0h0.2C256.5,10,256.7,10.2,256.7,10.2L256.7,10.2z M256.5,2.8v1.4c-1.8,0.1-3.4,0.8-4.7,2l-1-1
  C252.4,3.7,254.4,2.9,256.5,2.8L256.5,2.8z M250.5,5.5l1,1c-1.2,1.3-1.9,3-1.9,4.7h-1.4C248.2,9.1,249.1,7,250.5,5.5L250.5,5.5z"/>
<path id="Path_468" class="st2" d="M237.6,26.3V2.3"/>
</svg>
