<?xml version="1.0" encoding="utf-8"?>
<!-- Generator: Adobe Illustrator 25.4.1, SVG Export Plug-In . SVG Version: 6.00 Build 0)  -->
<svg version="1.1" id="Layer_1" xmlns="http://www.w3.org/2000/svg" xmlns:xlink="http://www.w3.org/1999/xlink" x="0px" y="0px"
   viewBox="0 0 270 32" style="enable-background:new 0 0 270 32;" xml:space="preserve">
<style type="text/css">
  .st0{fill:#1B344A;}
  .st1{fill:#5090CD;}
  .st2{fill:none;stroke:#B7B6B6;stroke-width:0.42;}
</style>
<path class="st0" d="M70.6,0.5c1.3-0.1,2.5,0.3,3.5,1.1c0.9,0.8,1.3,1.9,1.3,3c0,1.1-0.4,2.2-1.3,3c-1,0.8-2.3,1.2-3.5,1.2h-2.2v2.9
  l1.4,0.3v1.6h-5.4v-1.6l1.4-0.3V2.3L64.4,2V0.5H70.6z M68.4,6.8h2.2c0.6,0,1.2-0.2,1.7-0.6c0.4-0.4,0.6-1,0.6-1.5
  c0-0.6-0.2-1.1-0.6-1.5c-0.4-0.4-1-0.7-1.7-0.6h-2.2V6.8z"/>
<path class="st0" d="M74,11.9l0.9-0.1l4-11.3h2.7l3.9,11.3l0.9,0.1v1.6H82v-1.6l0.9-0.2L82.3,10h-4.2l-0.6,1.8l0.9,0.2v1.6H74V11.9z
   M78.7,8.1h3l-1.5-4.6l0,0L78.7,8.1z"/>
<path class="st0" d="M100.6,0.5V2l-1.4,0.3v11.2h-2.6l-5.3-8.8l0,0v6.9l1.4,0.3v1.6h-5.4v-1.6l1.4-0.3V2.3L87.3,2V0.5h4l5.3,8.8l0,0
  V2.3L95.2,2V0.5H100.6L100.6,0.5z"/>
<path class="st0" d="M113.3,7.1c0.1,1.7-0.5,3.4-1.6,4.7c-1.1,1.2-2.7,1.9-4.3,1.9c-1.6,0.1-3.2-0.6-4.3-1.9c-1.1-1.3-1.7-3-1.6-4.7
  V6.9c-0.1-1.7,0.5-3.4,1.6-4.7c1.1-1.2,2.6-1.9,4.2-1.9c1.6-0.1,3.2,0.6,4.3,1.9c1.1,1.3,1.7,3,1.6,4.7V7.1z M110.8,6.9
  c0.1-1.2-0.2-2.3-0.8-3.3c-0.5-0.8-1.5-1.3-2.5-1.3c-1,0-1.9,0.4-2.4,1.2c-0.6,1-0.9,2.1-0.8,3.3v0.2c-0.1,1.2,0.2,2.3,0.8,3.3
  c0.5,0.8,1.5,1.3,2.4,1.2c1,0.1,1.9-0.4,2.5-1.2c0.6-1,0.9-2.2,0.8-3.3L110.8,6.9z"/>
<path class="st0" d="M120.2,0.5c1.2-0.1,2.5,0.3,3.5,1c0.9,0.7,1.3,1.7,1.3,2.8c0,0.6-0.2,1.2-0.5,1.7c-0.4,0.5-0.9,0.9-1.6,1.2
  c0.7,0.2,1.3,0.6,1.7,1.1c0.4,0.6,0.5,1.3,0.5,2V11c0,0.2,0,0.5,0.2,0.7c0.1,0.2,0.3,0.3,0.6,0.3h0.3v1.6h-1.3
  c-0.7,0.1-1.3-0.2-1.8-0.7c-0.4-0.5-0.5-1.1-0.5-1.8v-0.7c0-0.5-0.1-1.1-0.5-1.5c-0.4-0.4-0.9-0.6-1.4-0.6h-2.2v3.4l1.4,0.3v1.6
  h-5.4v-1.6l1.4-0.3V2.3L114.4,2V0.5H120.2z M118.4,6.2h1.8c0.6,0,1.2-0.1,1.6-0.5c0.4-0.3,0.6-0.8,0.6-1.3c0-0.5-0.2-1-0.6-1.4
  c-0.4-0.4-1-0.6-1.6-0.5h-1.9V6.2z"/>
<path class="st0" d="M126.9,11.9l0.9-0.1l4-11.3h2.7l3.9,11.3l0.9,0.1v1.6h-4.4v-1.6l0.9-0.2l-0.6-1.8H131l-0.6,1.8l0.9,0.2v1.6
  h-4.4L126.9,11.9z M131.6,8.1h3l-1.5-4.6l0,0L131.6,8.1z"/>
<path class="st0" d="M152.7,3.9L152.7,3.9l-3.5,9.6h-1.8L144,3.9l0,0l0.2,5.7v2.1l1.4,0.3v1.6h-5.4v-1.6l1.4-0.3V2.3L140.2,2V0.5
  h4.8l3.3,9.6h0.1l3.4-9.6h4.8V2l-1.4,0.3v9.3l1.4,0.3v1.6h-5.4v-1.6l1.4-0.3V9.6L152.7,3.9z"/>
<path class="st0" d="M157.3,11.9l0.9-0.1l4-11.3h2.7l3.9,11.3l0.9,0.1v1.6h-4.4v-1.6l0.9-0.2l-0.6-1.8h-4.2l-0.6,1.8l0.9,0.2v1.6
  h-4.4L157.3,11.9z M162,8.1h3l-1.5-4.6h-0.1L162,8.1z"/>
<path class="st0" d="M64.4,20.4v-1.6h5.4v1.6l-1.4,0.3v3.8h5.3v-3.8l-1.4-0.3v-1.6h5.4v1.6l-1.4,0.3V30l1.4,0.3v1.6h-5.4v-1.6
  l1.4-0.3v-3.6h-5.3V30l1.4,0.3v1.6h-5.4v-1.6l1.4-0.2v-9.4L64.4,20.4z"/>
<path class="st0" d="M84,18.8v1.6l-1.4,0.3v6.8c-0.1,0.7,0.2,1.4,0.7,1.9c0.5,0.4,1.2,0.7,1.9,0.6c0.7,0,1.4-0.2,1.9-0.6
  c0.5-0.5,0.7-1.2,0.7-1.9v-6.8l-1.4-0.3v-1.6h5.4v1.6l-1.4,0.3v6.8c0.1,1.3-0.5,2.5-1.4,3.4c-2.3,1.6-5.3,1.6-7.6,0
  c-1-0.8-1.5-2.1-1.4-3.4v-6.8l-1.4-0.3v-1.6H84z"/>
<path class="st0" d="M105.1,22.2L105.1,22.2l-3.5,9.6h-1.8l-3.5-9.6l0,0l0.2,5.7V30l1.4,0.3v1.6h-5.4v-1.6L94,30v-9.4l-1.4-0.3v-1.6
  h4.8l3.3,9.6l0,0l3.3-9.6h4.8v1.6l-1.4,0.3V30l1.4,0.3v1.6h-5.4v-1.6l1.4-0.3v-2L105.1,22.2z"/>
<path class="st0" d="M109.7,30.2l0.9-0.1l4-11.3h2.7l3.9,11.3l0.9,0.1v1.6h-4.4v-1.6l0.9-0.2l-0.6-1.8h-4.2l-0.6,1.8l0.9,0.2v1.6
  h-4.4V30.2z M114.4,26.4h3l-1.5-4.6l0,0L114.4,26.4z"/>
<path class="st0" d="M136.3,18.8v1.6l-1.4,0.3v11.2h-2.6L127,23l0,0v7l1.4,0.3v1.6H123v-1.6l1.4-0.3v-9.4l-1.4-0.3v-1.6h4l5.3,8.8
  h0.1v-6.9l-1.4-0.3v-1.6H136.3L136.3,18.8z"/>
<path class="st0" d="M137.1,20.4v-1.6h5.4v1.6l-1.4,0.3V30l1.4,0.3v1.6h-5.4v-1.6l1.4-0.2v-9.4L137.1,20.4z"/>
<path class="st0" d="M155,18.8v3.5h-2l-0.1-1.5h-2.4V30l1.4,0.3v1.6h-5.4v-1.6l1.4-0.3v-9.2h-2.4l-0.1,1.5h-2v-3.5H155z"/>
<path class="st0" d="M154.1,30.2l0.9-0.1l4-11.3h2.7l3.9,11.3l0.9,0.1v1.6h-4.4v-1.6l0.9-0.2l-0.6-1.8h-4.2l-0.6,1.8l0.9,0.2v1.6
  h-4.4L154.1,30.2z M158.8,26.4h3l-1.5-4.6h-0.1L158.8,26.4z"/>
<path class="st0" d="M173.2,18.8c1.2-0.1,2.5,0.3,3.5,1c0.8,0.7,1.3,1.7,1.3,2.8c0,0.6-0.2,1.2-0.5,1.7c-0.4,0.5-0.9,0.9-1.6,1.2
  c0.7,0.2,1.3,0.6,1.7,1.1c0.4,0.6,0.5,1.3,0.5,2v0.7c0,0.2,0,0.5,0.2,0.7c0.1,0.2,0.3,0.3,0.6,0.3h0.3v1.6h-1.4
  c-0.7,0.1-1.3-0.2-1.8-0.7c-0.4-0.5-0.5-1.1-0.5-1.8v-0.7c0-0.5-0.1-1.1-0.5-1.5c-0.4-0.4-0.9-0.6-1.4-0.6h-2.1V30l1.4,0.3v1.6h-5.4
  v-1.6l1.4-0.3v-9.4l-1.4-0.3v-1.6H173.2z M171.3,24.5h1.8c0.6,0,1.2-0.1,1.6-0.5c0.4-0.3,0.6-0.8,0.6-1.3c0-0.5-0.2-1-0.5-1.4
  c-0.4-0.4-1-0.6-1.6-0.5h-1.9V24.5z"/>
<path class="st0" d="M179.9,20.4v-1.6h5.4v1.6l-1.4,0.3V30l1.4,0.3v1.6h-5.4v-1.6l1.4-0.3v-9.4L179.9,20.4z"/>
<path class="st0" d="M198.2,25.4c0.1,1.7-0.5,3.4-1.6,4.7c-2.2,2.4-5.9,2.5-8.2,0.3c-0.1-0.1-0.2-0.2-0.3-0.3
  c-1.1-1.3-1.7-3-1.6-4.7v-0.2c-0.1-1.7,0.5-3.4,1.6-4.7c1.1-1.2,2.6-1.9,4.3-1.9c1.6-0.1,3.2,0.6,4.3,1.9c1.1,1.3,1.7,3,1.6,4.7
  L198.2,25.4z M195.6,25.2c0.1-1.2-0.2-2.3-0.8-3.3c-0.5-0.8-1.5-1.3-2.5-1.3c-1-0.1-1.9,0.4-2.5,1.2c-0.6,1-0.9,2.1-0.8,3.3v0.2
  c-0.1,1.2,0.2,2.3,0.8,3.3c0.5,0.8,1.5,1.3,2.5,1.3c1,0.1,1.9-0.4,2.5-1.3c0.6-1,0.9-2.1,0.8-3.3V25.2z"/>
<path class="st0" d="M185.6,12.2c-0.5,0.5-1.2,0.9-1.9,1.1c-1,0.4-2,0.5-3.1,0.5c-1.6,0.1-3.2-0.6-4.3-1.8c-1.1-1.3-1.7-2.9-1.7-4.6
  V7.1c-0.1-1.7,0.5-3.4,1.6-4.8c1.1-1.2,2.6-1.9,4.3-1.8c1,0,1.9,0.2,2.8,0.5c0.8,0.3,1.5,0.7,2.1,1.3v2.6h-1.9l-0.4-1.7
  c-0.3-0.2-0.6-0.4-0.9-0.5c-0.4-0.1-0.9-0.2-1.4-0.2c-1,0-2,0.4-2.7,1.3c-0.7,1-1,2.1-0.9,3.3v0.5c-0.1,1.1,0.3,2.2,0.9,3.2
  c0.6,0.8,1.6,1.3,2.7,1.2c0.4,0,0.9,0,1.3-0.1c0.3-0.1,0.5-0.2,0.8-0.3V9.2l-1.9-0.1V7.2h4.5L185.6,12.2z"/>
<path class="st0" d="M186.9,13.7v-1.6l1.4-0.3V2.5l-1.4-0.3V0.7h5.4v1.6l-1.4,0.3v9.2h3.7l0.1-1.7h2v3.6L186.9,13.7z"/>
<path class="st0" d="M209.3,7.3c0.1,1.7-0.5,3.4-1.6,4.7c-2.2,2.4-5.9,2.5-8.2,0.3c-0.1-0.1-0.2-0.2-0.3-0.3c-1.1-1.3-1.7-3-1.6-4.7
  V7.1c-0.1-1.7,0.5-3.4,1.6-4.7c1.1-1.2,2.6-1.9,4.3-1.9c1.6-0.1,3.2,0.6,4.3,1.9c1.1,1.3,1.7,3,1.6,4.7L209.3,7.3z M206.7,7.1
  c0.1-1.2-0.2-2.3-0.8-3.3c-0.5-0.8-1.5-1.3-2.5-1.3c-1-0.1-1.9,0.4-2.5,1.3c-0.6,1-0.9,2.1-0.8,3.3v0.2c-0.1,1.2,0.2,2.3,0.8,3.3
  c1,1.4,2.9,1.7,4.3,0.7c0.3-0.2,0.5-0.4,0.7-0.7c0.6-1,0.9-2.1,0.8-3.3L206.7,7.1z"/>
<path class="st0" d="M216.1,0.7c1.3-0.1,2.5,0.2,3.6,0.9c0.9,0.6,1.3,1.6,1.3,2.7c0,0.6-0.2,1.1-0.5,1.6c-0.3,0.5-0.8,0.9-1.4,1.1
  c0.7,0.1,1.4,0.5,1.8,1.1c0.4,0.6,0.6,1.2,0.6,1.9c0.1,1.1-0.4,2.1-1.2,2.8c-1,0.7-2.2,1.1-3.5,1h-6.4v-1.6l1.4-0.3V2.5l-1.4-0.3
  V0.7H216.1L216.1,0.7z M214.4,6.1h1.9c0.6,0,1.1-0.1,1.6-0.4c0.4-0.3,0.6-0.8,0.6-1.2c0-0.5-0.2-1-0.6-1.3c-0.5-0.3-1.1-0.5-1.7-0.4
  h-1.8V6.1z M214.4,7.9v3.8h2.4c0.6,0,1.1-0.1,1.6-0.4c0.4-0.3,0.6-0.8,0.6-1.3c0-0.5-0.1-1.1-0.5-1.5c-0.4-0.4-0.9-0.5-1.4-0.5
  H214.4z"/>
<path class="st0" d="M222.3,12.1l0.9-0.1l4-11.3h2.7l3.9,11.3l0.9,0.1v1.6h-4.4v-1.6l0.9-0.2l-0.6-1.8h-4.2l-0.6,1.8l0.9,0.2v1.6
  h-4.4V12.1z M227.1,8.2h3l-1.5-4.6h-0.1L227.1,8.2z"/>
<path class="st0" d="M235.6,13.7v-1.6l1.4-0.3V2.5l-1.4-0.3V0.7h5.4v1.6l-1.4,0.3v9.2h3.7l0.1-1.6h2v3.6H235.6z"/>
<path class="st1" d="M203,31.8v-1.2l4.3-4.7c0.6-0.6,1.1-1.3,1.6-2c0.3-0.5,0.4-1,0.4-1.5c0-0.6-0.2-1.2-0.6-1.6
  c-0.4-0.4-0.9-0.7-1.5-0.7c-0.7-0.1-1.5,0.2-2,0.7c-0.4,0.5-0.7,1.2-0.6,2h-1.7v-0.1c0-1.1,0.4-2.1,1.2-2.9c0.9-0.8,2-1.2,3.2-1.1
  c1-0.1,2,0.3,2.8,1c0.7,0.7,1,1.6,1,2.6c0,0.8-0.2,1.5-0.6,2.1c-0.5,0.8-1.1,1.6-1.8,2.3l-3.4,3.7l0,0h4.6l0.1-1.5h1.5v2.9L203,31.8
  z"/>
<path class="st1" d="M221.6,26.9c0.1,1.4-0.3,2.7-1.1,3.8c-1.5,1.7-4.2,1.8-5.8,0.2c-0.1-0.1-0.2-0.2-0.2-0.2
  c-0.8-1.1-1.2-2.5-1.1-3.8v-3.1c-0.1-1.4,0.3-2.7,1.1-3.8c0.7-0.9,1.8-1.4,3-1.3c1.2,0,2.3,0.5,3,1.3c0.8,1.1,1.2,2.5,1.1,3.8
  L221.6,26.9z M219.9,23.4c0.1-0.9-0.1-1.8-0.6-2.5c-0.4-0.6-1.1-0.9-1.8-0.9c-0.7,0-1.4,0.3-1.8,0.9c-0.5,0.8-0.7,1.7-0.6,2.5v3.8
  c-0.1,0.9,0.2,1.8,0.6,2.5c0.4,0.6,1.1,0.9,1.8,0.9c0.7,0,1.4-0.3,1.8-0.9c0.5-0.8,0.7-1.7,0.6-2.5L219.9,23.4z"/>
<path class="st1" d="M223.6,31.8v-1.2l4.3-4.7c0.6-0.6,1.1-1.3,1.6-2c0.3-0.5,0.4-1,0.4-1.5c0-0.6-0.2-1.2-0.6-1.6
  c-0.4-0.4-0.9-0.7-1.5-0.7c-0.7-0.1-1.5,0.2-2,0.7c-0.4,0.5-0.7,1.2-0.6,2h-1.7v-0.1c-0.1-1.1,0.3-2.1,1.1-2.8
  c0.9-0.8,2-1.2,3.2-1.1c1-0.1,2,0.3,2.8,1c0.7,0.7,1,1.6,1,2.6c0,0.8-0.2,1.5-0.6,2.1c-0.5,0.8-1.1,1.6-1.8,2.3l-3.4,3.7l0,0h4.6
  l0.1-1.5h1.5v2.9L223.6,31.8z"/>
<path class="st1" d="M234.1,31.8v-1.2l4.3-4.7c0.6-0.6,1.1-1.3,1.6-2c0.3-0.5,0.4-1,0.4-1.5c0-0.6-0.2-1.2-0.6-1.6
  c-0.4-0.4-0.9-0.7-1.5-0.7c-0.7-0.1-1.5,0.2-2,0.7c-0.4,0.5-0.7,1.2-0.6,2h-1.7v-0.1c-0.1-1.1,0.3-2.1,1.1-2.8
  c0.9-0.8,2-1.2,3.2-1.1c1-0.1,2,0.3,2.8,1c0.7,0.7,1,1.6,1,2.6c0,0.8-0.2,1.5-0.6,2.1c-0.5,0.8-1.1,1.6-1.8,2.3l-3.4,3.7l0,0h4.6
  l0.1-1.5h1.5v2.9L234.1,31.8z"/>
<path id="Path_469" class="st1" d="M3.8,8.4c0.5-0.4,1-0.8,1.6-1.4C5.7,6.9,5.8,6.7,6,6.5C6.1,6.4,6.3,6.2,6.3,6
  c0.1-0.2,0.2-0.5,0.3-0.8L7.1,4H7C6.8,4.4,6.6,4.8,6.2,5.1c-0.3,0.3-0.7,0.5-1,0.8C4.9,6.1,4.5,6.4,4.2,6.7c-0.4,0.4-0.8,0.8-1,1.4
  l0,0c0.3-0.8,0.5-1.4,0.6-1.9l0.3-1.4c0.1-0.3,0.2-0.7,0.4-1C4.7,3.5,5,3.2,5.3,3l0,0C4.5,3.2,3.8,3.7,3.4,4.3
  C2.9,5,2.6,5.9,2.7,6.7v3C2.9,9.2,3.3,8.8,3.8,8.4z M5.8,4.8c0.4-0.4,0.8-0.8,1.1-1.3l0.9-1.2c0.3-0.4,0.6-0.7,1-1l0,0
  c-0.3,0.2-0.6,0.4-1,0.5C7.4,1.9,7,2.1,6.6,2.3C6.1,2.6,5.7,3,5.4,3.5C4.9,4.3,4.5,5.1,4.3,6C4.9,5.7,5.4,5.2,5.8,4.8L5.8,4.8z
   M1,16c0.3,0.4,0.6,0.9,1,1.3c0.4,0.5,0.7,1,1,1.5l0,0c0-0.2,0-0.5,0-0.7v-0.6c0-0.4,0.1-0.8,0.2-1.1c0.2-0.5,0.3-1.1,0.5-1.8
  s0.3-1.3,0.5-2c0.1-0.6,0.2-1.2,0.1-1.8l0,0C4.2,11.3,4,11.6,3.8,12c-0.2,0.4-0.4,0.7-0.7,1.1c-0.2,0.4-0.4,0.8-0.6,1.2
  c-0.2,0.5-0.3,0.9-0.3,1.4c0,0.2,0,0.5,0.1,0.7c0,0.2,0.1,0.4,0.1,0.5l0,0c-0.1-0.6-0.3-1.2-0.5-1.8c-0.2-0.6-0.4-1.1-0.6-1.6
  c-0.2-0.5-0.4-0.9-0.5-1.3c-0.1-0.3-0.2-0.7-0.2-1c0-0.2,0-0.5,0-0.7c0-0.2,0-0.4,0-0.6h0c-0.1,0.4-0.2,0.7-0.3,1.1
  C0.1,11.5,0.1,12,0,12.5c0,0.7,0.1,1.4,0.3,2.1C0.5,15.1,0.7,15.6,1,16z M8.8,27.6h0.5c0.2,0,0.4,0,0.6,0l0.8-0.1
  c0.3,0,0.7-0.1,1.2-0.3l2-0.5c-0.6-0.1-1-0.3-1.4-0.4c-0.5-0.2-0.9-0.4-1.2-0.7c-0.5-0.4-1-0.9-1.5-1.3l-1.2-1
  c-0.1-0.1-0.7-0.6-0.8-0.8l0,0c0.1,0.1,0.6,1.2,0.6,1.2c0,0.1,0.1,0.1,0.1,0.2c0.1,0.3,0.3,0.5,0.4,0.8c0.1,0.1,0.1,0.2,0.2,0.3
  c0.2,0.3,0.4,0.6,0.7,0.8c0.5,0.4,1.1,0.7,1.8,0.9l0,0l-0.9-0.1l-0.7,0c-0.2,0-0.4,0-0.6-0.1c-0.3,0-0.5,0-0.8-0.1S8.2,26.2,8,26.2
  l-0.6-0.1H7.1c-0.4,0-0.7-0.1-1.1-0.2c-0.4-0.1-0.7-0.2-1-0.4c-0.4-0.2-0.7-0.5-1-0.8l0,0c0.2,0.3,0.4,0.6,0.6,0.8
  c0.3,0.3,0.6,0.6,0.9,0.9c0.4,0.3,0.8,0.6,1.3,0.7c0.5,0.2,1.1,0.4,1.7,0.4L8.8,27.6L8.8,27.6z M2.1,14.2L2.1,14.2
  c0.1-0.2,0.1-0.5,0.2-0.7c0.1-0.3,0.2-0.5,0.3-0.7c0.2-0.3,0.4-0.7,0.7-1l1.1-1.6c0.3-0.5,0.5-1,0.7-1.5c0.2-0.6,0.3-1,0.3-1.2l0,0
  c0,0.1-0.1,0.2-0.2,0.4C5.2,7.9,5.1,8,5,8.1C4.8,8.2,4.7,8.4,4.5,8.5L3.8,9.2c-0.5,0.4-0.8,0.9-1.1,1.4c-0.2,0.5-0.3,0.9-0.4,1.4
  l0,0c0-0.2,0-0.4,0-0.7s0-0.5,0-0.8s0-0.9-0.1-1.5S2.1,7.7,2.1,6.8c0-0.3,0-0.6,0.1-0.8c0.1-0.2,0.2-0.5,0.3-0.7l0,0
  C2,5.9,1.5,6.6,1.2,7.4C1,8.1,0.9,8.8,0.9,9.4c0,0.8,0.2,1.5,0.4,2.3C1.7,12.5,1.9,13.3,2.1,14.2z M6.6,25.3l1.8,0.4l0.9,0.2
  c-0.3-0.4-0.7-0.8-0.9-1.2C8.2,24.3,8,24,7.8,23.5c-0.2-0.5-0.4-1.1-0.7-1.9C7,21.4,6.9,21.2,6.8,21c-0.1-0.2-0.2-0.4-0.3-0.6
  S6.2,19.9,6,19.6s-0.4-0.6-0.7-1l0,0c0.1,0.3,0.2,0.8,0.4,1.5l0.4,2.1c0.1,0.5,0.3,1,0.6,1.4c0.3,0.5,0.7,0.9,1.2,1.3v0
  c-0.4-0.2-0.7-0.4-1-0.7c-0.5-0.4-1-0.7-1.6-1c-0.9-0.4-1.7-0.9-2.6-1.4c-0.6-0.4-1.1-1-1.4-1.7l0,0c0.3,1.3,1,2.5,2.1,3.4
  c0.5,0.4,1,0.8,1.6,1.1c0.5,0.3,1.1,0.5,1.7,0.6L6.6,25.3z M2.6,20.9L5.7,23c-0.1-0.3-0.3-0.6-0.4-0.8c-0.1-0.3-0.2-0.6-0.2-0.9
  C5.1,21,5,20.7,5,20.3s-0.1-0.9-0.2-1.4c-0.1-1-0.2-1.7-0.3-2.2c-0.1-0.6-0.3-1.1-0.5-1.7l0,0c0,0.4,0,0.8-0.1,1.3
  c0,0.3-0.1,0.6-0.2,0.9c-0.1,0.3-0.1,0.5-0.2,0.8c-0.1,0.3-0.1,0.6-0.1,0.8c0,0.4,0.1,0.8,0.3,1.2c0.2,0.4,0.3,0.8,0.5,1.2H4.3
  c-0.4-0.7-0.9-1.3-1.4-1.9L1.6,18c-0.4-0.4-0.7-0.8-1-1.2c-0.3-0.5-0.5-1-0.5-1.5C0,15.5,0,15.8,0,16.1c0,0.5,0.1,1,0.3,1.5
  c0.2,0.5,0.4,1,0.6,1.4c0.2,0.4,0.5,0.8,0.8,1.1C2,20.4,2.3,20.7,2.6,20.9L2.6,20.9z M28.7,2.3l1,1.2C30,4,30.3,4.4,30.7,4.8
  c0.4,0.5,0.9,0.9,1.5,1.2c-0.2-0.9-0.5-1.7-1-2.5c-0.3-0.5-0.8-0.9-1.3-1.3c-0.4-0.2-0.8-0.4-1.2-0.6c-0.4-0.1-0.7-0.3-1-0.5h0
  C28,1.5,28.3,1.9,28.7,2.3L28.7,2.3z M31.5,25.5c-0.3,0.2-0.6,0.3-1,0.4c-0.4,0.1-0.7,0.2-1.1,0.2h-0.3l-0.6,0.1
  c-0.2,0-0.4,0.1-0.6,0.1s-0.5,0-0.8,0.1l-0.6,0.1l-0.7,0.1l-0.9,0.1l0,0c0.7-0.2,1.3-0.5,1.8-0.9c0.3-0.2,0.5-0.5,0.7-0.8
  c0-0.1,0.1-0.2,0.2-0.3l0.4-0.8l0.1-0.2l0.6-1.2l0,0c-0.2,0.2-0.7,0.7-0.8,0.8c-0.4,0.4-0.8,0.7-1.2,1s-1,0.9-1.5,1.3
  c-0.3,0.3-0.7,0.6-1.2,0.8c-0.4,0.1-0.9,0.3-1.4,0.4l2,0.5c0.5,0.1,0.9,0.2,1.2,0.3l0.8,0.1c0.2,0,0.4,0,0.6,0h0.5h0.4
  c0.6-0.1,1.1-0.2,1.7-0.4c0.5-0.2,0.9-0.4,1.3-0.7c0.3-0.3,0.6-0.6,0.9-0.9c0.2-0.3,0.4-0.5,0.6-0.8v0C32.3,25,32,25.3,31.5,25.5
  L31.5,25.5z M33.9,21.9c-0.8,0.5-1.7,1-2.6,1.4c-0.6,0.3-1.1,0.6-1.6,1c-0.3,0.3-0.6,0.5-1,0.7l0,0c0.4-0.4,0.8-0.8,1.2-1.3
  c0.3-0.4,0.5-0.9,0.6-1.4l0.5-2.1c0.2-0.7,0.3-1.3,0.4-1.5l0,0l-0.7,1l-0.5,0.7c-0.1,0.2-0.2,0.4-0.4,0.6c-0.1,0.2-0.2,0.4-0.3,0.7
  c-0.3,0.8-0.6,1.4-0.7,1.9c-0.1,0.4-0.3,0.8-0.6,1.2c-0.3,0.4-0.6,0.8-0.9,1.2l0.9-0.2l1.8-0.4c1.2-0.3,2.4-0.9,3.3-1.7
  c0.5-0.4,0.9-0.9,1.3-1.5c0.4-0.6,0.6-1.3,0.8-1.9l0,0c-0.3,0.7-0.8,1.3-1.4,1.7L33.9,21.9z M35.2,13.6c-0.2,0.5-0.4,1-0.6,1.6
  c-0.2,0.6-0.4,1.2-0.5,1.8l0,0c0-0.2,0.1-0.4,0.1-0.5c0.1-0.2,0.1-0.5,0.1-0.7c0-0.5-0.1-1-0.3-1.4c-0.2-0.4-0.4-0.8-0.6-1.2
  L32.7,12c-0.2-0.3-0.4-0.7-0.5-1.1l0,0c-0.1,0.6,0,1.2,0.1,1.8c0.1,0.7,0.3,1.3,0.5,1.9s0.3,1.2,0.5,1.8c0.1,0.4,0.2,0.8,0.2,1.1
  v0.6c0,0.2,0,0.5,0,0.7l0,0c0.3-0.5,0.6-1.1,1-1.5c0.4-0.4,0.7-0.8,1-1.3c0.3-0.4,0.5-0.9,0.7-1.4c0.2-0.7,0.3-1.4,0.2-2.1
  c0-0.5-0.1-0.9-0.2-1.4c-0.1-0.4-0.2-0.8-0.4-1.1l0,0c0,0.2,0,0.4,0,0.6c0,0.2,0,0.5,0,0.7c0,0.3-0.1,0.7-0.2,1
  C35.6,12.7,35.4,13.2,35.2,13.6L35.2,13.6z M33.9,10.6c-0.3-0.5-0.6-1-1.1-1.4L32,8.5c-0.2-0.1-0.3-0.3-0.4-0.4
  c-0.1-0.1-0.2-0.2-0.3-0.3c-0.1-0.1-0.1-0.2-0.2-0.4l0,0c0,0.3,0.2,0.7,0.3,1.2c0.1,0.5,0.4,1,0.7,1.5l1.2,1.6
  c0.2,0.3,0.5,0.7,0.7,1c0.1,0.2,0.2,0.5,0.3,0.7c0.1,0.2,0.1,0.5,0.1,0.7h0.1c0.2-0.9,0.4-1.7,0.8-2.5c0.3-0.7,0.4-1.5,0.4-2.2
  c0-0.7-0.1-1.4-0.3-2C35,6.6,34.5,5.9,34,5.3l0,0c0.1,0.2,0.2,0.5,0.3,0.7c0.1,0.3,0.2,0.5,0.2,0.8c0,0.9,0,1.7-0.1,2.2
  s-0.1,1.1-0.1,1.5s0,0.6,0,0.8s0,0.4,0,0.7l0,0C34.2,11.6,34.1,11.1,33.9,10.6L33.9,10.6z M32,3.8c0.2,0.3,0.3,0.7,0.4,1
  c0.1,0.4,0.2,0.8,0.3,1.3s0.3,1.2,0.6,1.9l0,0c-0.3-0.5-0.6-1-1-1.3c-0.3-0.3-0.7-0.6-1.1-0.9c-0.3-0.2-0.7-0.5-1-0.8
  c-0.3-0.3-0.6-0.7-0.8-1.1l0,0l0.4,1.2C30,5.5,30.1,5.8,30.2,6c0.1,0.2,0.2,0.4,0.4,0.5c0.1,0.2,0.3,0.3,0.6,0.5
  c0.6,0.5,1.2,1,1.7,1.4c0.4,0.4,0.8,0.8,1.1,1.3v-3c0-0.9-0.2-1.7-0.7-2.4C32.7,3.6,32,3.2,31.2,3l0,0C31.5,3.2,31.8,3.5,32,3.8z
   M27,28.5c-0.2,0-0.5,0-0.7-0.1c-0.2,0-0.5-0.1-0.8-0.1l0,0L24.6,28c-0.3-0.1-0.7-0.2-1.2-0.4L21.6,27c-0.4-0.1-0.8-0.2-1.2-0.2
  c-0.4,0-0.8,0.1-1.2,0.1l-1,0.2c-0.2,0-0.5-0.1-0.9-0.2c-0.4-0.1-0.8-0.1-1.2-0.1c-0.4,0-0.8,0.1-1.2,0.2L13,27.6
  c-0.9,0.3-1.6,0.6-2.1,0.7c-0.5,0.1-0.9,0.2-1.4,0.2c-0.2,0-0.4,0-0.6,0c-0.2,0-0.4-0.1-0.5-0.1c-0.2-0.1-0.4-0.1-0.6-0.2l-0.8-0.4
  l0,0c0.4,0.5,0.9,0.9,1.5,1.2c0.7,0.4,1.5,0.7,2.4,0.7c0.3,0,0.6,0,0.9-0.1c0.3,0,0.6-0.1,0.8-0.2c0.3-0.1,0.6-0.3,0.9-0.4
  s0.7-0.4,1.2-0.7s0.9-0.6,1.2-0.7c0.4-0.2,0.8-0.3,1.2-0.3c0.2,0,0.4,0,0.5,0.1c-0.6,0.3-1.2,0.7-2,1.1c-0.8,0.5-1.5,1.1-2.1,1.8
  l0.7,0.6c0.6-0.7,1.3-1.4,2.1-2c0.6-0.5,1.3-0.9,2-1.2c0.7,0.3,1.4,0.7,2,1.2c0.8,0.6,1.5,1.3,2.1,2l0.7-0.6
  c-0.6-0.7-1.3-1.3-2.1-1.8c-0.8-0.4-1.4-0.8-2-1.1c0.2-0.1,0.4-0.1,0.6-0.1c0.4,0,0.8,0.1,1.1,0.3c0.3,0.2,0.7,0.4,1.2,0.7l1.1,0.7
  c0.3,0.2,0.6,0.3,0.9,0.4c0.3,0.1,0.5,0.2,0.8,0.2c0.3,0.1,0.6,0.1,0.8,0.1h0.2c0.7,0,1.4-0.2,2-0.4c0.7-0.3,1.4-0.8,1.9-1.4l0,0
  c-0.5,0.2-0.9,0.4-1.4,0.6C27.8,28.5,27.4,28.5,27,28.5z M36.5,16.1v-0.1c0-0.1,0-0.1,0-0.2s0-0.3-0.1-0.4c-0.1,0.5-0.2,1-0.5,1.5
  c-0.3,0.4-0.6,0.8-1,1.2l-0.1,0.1l-1.2,1.3c-0.5,0.6-1,1.2-1.4,1.9l0,0c0.2-0.4,0.4-0.8,0.5-1.2c0.1-0.4,0.2-0.8,0.2-1.2
  c0-0.3,0-0.6-0.1-0.8c0-0.2-0.1-0.5-0.2-0.8s-0.1-0.6-0.2-1c-0.1-0.4-0.1-0.8-0.1-1.3l0,0l0,0l0,0l0,0c-0.2,0.5-0.4,1.1-0.5,1.7
  c-0.1,0.5-0.2,1.2-0.3,2.2c-0.1,0.5-0.1,1-0.1,1.4s-0.1,0.7-0.1,1.1c-0.1,0.3-0.1,0.6-0.2,0.9c-0.1,0.2-0.2,0.5-0.3,0.7
  c0,0-0.1,0.1-0.1,0.1l0,0l1.1-0.7l2.1-1.4c0.3-0.2,0.6-0.5,0.8-0.8c0.3-0.4,0.6-0.7,0.8-1.1c0.2-0.3,0.3-0.5,0.4-0.8
  c0.1-0.2,0.2-0.4,0.2-0.6C36.4,17.1,36.5,16.6,36.5,16.1L36.5,16.1C36.5,16.1,36.5,16.1,36.5,16.1L36.5,16.1z M24,3.4
  c0.1,0,0.2,0.1,0.2,0.1c0,0.1,0.1,0.1,0.1,0.2c0,0.1,0.1,0.1,0.1,0.1c0.1,0,0.1,0,0.1-0.1s0-0.1,0-0.1s0,0,0-0.1
  c0-0.1,0-0.2-0.1-0.2c-0.1-0.1-0.2-0.1-0.4-0.1c0,0-0.1,0-0.1,0l0,0C24,3.2,24,3.2,24,3.4C24,3.4,24,3.4,24,3.4L24,3.4z M19.5,2.4
  L19.5,2.4c0.2-0.1,0.4-0.1,0.6-0.1h0.6c0.1,0,0.3,0,0.3-0.1c0-0.1,0.1-0.1,0.1-0.2c-0.1-0.2-0.3-0.3-0.5-0.3c-0.1,0-0.3,0-0.4,0
  c-0.2,0-0.3,0.1-0.5,0.2C19.4,1.9,19.3,2,19.1,2c-0.1,0-0.2,0-0.3,0.1c0.1,0.1,0.2,0.1,0.2,0.2C19.2,2.4,19.3,2.5,19.5,2.4L19.5,2.4
  z M18.2,25.9c7.2,0,13-5.8,13.1-12.9c0-7.2-5.8-13-12.9-13.1S5.3,5.7,5.2,12.9c0,0,0,0.1,0,0.1C5.2,20.2,11,26,18.2,25.9L18.2,25.9z
   M5.9,13.3h2c0,0.9,0.2,1.7,0.4,2.6c-0.1,0-0.1-0.1-0.1-0.1l-0.1-0.1l-0.2-0.3l-0.4,0.1c0,0.2-0.1,0.3-0.2,0.2
  c0-0.1-0.1-0.1-0.2-0.1c-0.2,0-0.4,0.1-0.4,0.4l0,0c0,0.2-0.1,0.3-0.1,0.5l0.3,0.8c0,0.1,0.1,0.1,0.3,0c0.1,0.1,0.2,0.2,0.2,0.3
  c0.1,0.1,0.1,0.1,0.2,0.1c0.1,0,0.1,0,0.1-0.1l0,0L8,17.7c0.1,0.1,0.1,0.1,0.2,0.2l0,0c0.1,0.1,0.2,0.1,0.4,0.1
  c0,0.2,0.1,0.3,0.3,0.5c0.1,0.1,0.2,0.2,0.3,0.2c0.1,0,0.1,0,0.2-0.1c0,0.2,0.1,0.3,0.2,0.4l0.2,0.1l0.2,0.1H10
  c0,0.1,0.1,0.2,0.2,0.3c0.1,0.1,0.2,0.2,0.3,0.2l0,0l0.1,0.1l-1.3,1.4C7.2,19.2,6,16.3,5.9,13.3L5.9,13.3z M15.4,9.6l-0.1-0.1
  l-0.1-0.1c0.8-0.7,1.7-1.1,2.7-1.1v1.4c0,0,0,0-0.1,0l0,0l0,0c0,0-0.1,0-0.1,0h-0.1h-0.1h-0.1h0c0-0.1-0.1-0.1-0.1-0.2l0,0
  c-0.1,0.1-0.2,0.1-0.2,0.2c0,0.1-0.1,0.2-0.1,0.3c0,0.1-0.1,0.2-0.2,0.2c-0.1,0-0.2,0.1-0.3,0.2l-0.1-0.1h-0.2c0,0-0.1-0.1-0.1-0.1
  L16,10l0,0c0,0-0.1,0-0.1,0.1L15.7,10l0,0V9.9C15.6,9.8,15.5,9.7,15.4,9.6L15.4,9.6z M14.7,9l-1.3-1.3c1.2-1.1,2.8-1.8,4.5-1.9v1.9
  C16.7,7.7,15.6,8.2,14.7,9z M15.4,15.2c0.1-0.1,0-0.2,0.1-0.3l-0.1,0.1c0.1-0.1,0.2-0.2,0.3-0.3c0-0.1,0.1-0.2,0.1-0.2l0,0
  c0,0.1,0.1,0.2,0.2,0.3L14.7,16c-0.5-0.6-0.8-1.2-1-1.9c0.1,0,0.2,0,0.3,0.1c0.1,0.1,0.2,0.2,0.3,0.2c0.1,0,0.1,0,0.2-0.1l0.2,0.1
  c0,0.1,0,0.2,0.1,0.2c0,0,0,0.1,0.1,0.1c0.1,0,0.1,0.1,0.2,0.1H15c0-0.1,0-0.1,0-0.2c0-0.1,0-0.1,0-0.1l0.1,0.3l0.1,0.4l0,0
  C15.3,15.3,15.4,15.3,15.4,15.2L15.4,15.2z M18,16.6c0.1,0.1,0.1,0.1,0.1,0.1s-0.1,0.1-0.3,0.1s-0.1,0.1-0.2,0.2
  c0,0.1,0,0.3-0.1,0.4h-0.1c-0.8-0.1-1.6-0.5-2.3-1.1l1.1-1.2c0.4,0.4,1,0.7,1.6,0.7c0,0.1,0,0.1,0,0.2c-0.1,0.1-0.1,0.1-0.1,0.2
  C17.8,16.4,17.8,16.5,18,16.6L18,16.6z M12.3,16.7c0-0.2,0-0.5-0.1-0.7c0-0.1-0.1-0.3-0.1-0.4c0-0.2-0.1-0.4-0.1-0.6
  c-0.1-0.2-0.3-0.4-0.4-0.5v-0.3c0-0.1-0.1-0.2-0.1-0.2l0,0c0,0,0-0.1,0.1-0.1c0,0,0,0,0,0l0.4-0.2c0-0.1,0-0.3,0.1-0.4l0.3,0.1
  c0.1,0,0.1-0.1,0.1-0.2c0-0.1,0-0.2-0.1-0.3c0-0.1-0.1-0.2-0.1-0.3c0-0.1,0-0.1,0.1-0.2c0.1,0,0.2-0.1,0.3-0.1c0.1,0,0.2,0,0.3,0.1
  c0.1,0.1,0.1,0.2,0.1,0.3c0,0.1,0,0.1,0,0.2c0,0.1,0,0.1,0,0.2l0.1,0.1c-0.1,0.3-0.2,0.4-0.4,0.4c-0.1,0-0.2,0-0.2-0.1
  c0-0.1-0.1-0.1-0.1-0.1l0,0l0,0c0,0.1,0,0.1,0,0.2c0,0.1,0,0.1,0,0.2c0,0.2-0.1,0.3-0.3,0.2c-0.1,0.1,0,0.2,0.2,0.2
  c0.1,0.2,0.1,0.2,0.2,0.2c0-0.1,0.1-0.2,0.1-0.3c0-0.1,0-0.2,0.1-0.3h0.1h0.2c0,0,0,0,0,0.1H13c0.2,0.9,0.6,1.8,1.2,2.6l-1.8,1.9
  c-0.1-0.1-0.1-0.2-0.1-0.3c0-0.2,0.2-0.3,0.2-0.5v-0.3C12.4,17,12.3,16.9,12.3,16.7L12.3,16.7z M11.3,14c0,0.1,0,0.1,0,0.2
  c0,0.1,0,0.1-0.1,0.1l0,0c-0.1-0.3-0.1-0.7-0.1-1h0.4c0,0.1,0,0.1,0,0.2c0,0.1-0.1,0.1-0.1,0.2c0,0.1-0.1,0.1-0.1,0.2
  C11.2,13.8,11.3,13.9,11.3,14L11.3,14z M11,12.6c0.1-1.7,0.7-3.3,1.9-4.5l1.3,1.3l0,0c-0.1,0-0.2,0.1-0.2,0.1
  c-0.1,0.1-0.1,0.1-0.2,0.2c-0.1,0.1-0.3,0.1-0.4,0.2c-0.1,0.1-0.2,0.2-0.3,0.3c-0.1,0.1-0.2,0.1-0.3,0.1c-0.1,0-0.1,0.1-0.2,0.1
  c0.1,0.1,0.1,0.2,0,0.2l-0.4,0.1c0,0-0.1,0-0.1,0.1l-0.1,0.1c0,0-0.1,0.1-0.1,0.1c0,0,0,0.1,0,0.1c-0.1,0.1-0.2,0.1-0.2,0.2
  c0,0.1,0,0.3,0,0.4l0.1,0.4l0,0c0,0,0,0.1,0,0.1L11,12.6z M14.6,16.9c0.7,0.6,1.5,1,2.4,1.2l-0.2,0.1c-0.1,0-0.2,0.1-0.3,0.3
  c0,0.1-0.1,0.3-0.2,0.3c-0.1,0-0.1,0.1-0.1,0.2c0.1,0.1,0.2,0.3,0.3,0.5c0.1,0.2,0.2,0.4,0.4,0.4l0.2,0.1c0.1,0,0.2,0,0.3,0.1h0.2
  c-1.6-0.1-3.2-0.8-4.4-1.9L14.6,16.9z M12.9,7.2l-1.3-1.3c1.7-1.6,3.9-2.5,6.3-2.6v1.8C16,5.2,14.2,5.9,12.9,7.2L12.9,7.2z
   M12.4,7.7c-1.3,1.4-2,3.1-2.1,5H8.5c0.1-2.3,1-4.6,2.6-6.3L12.4,7.7z M10.4,13.3c0,0.3,0.1,0.6,0.1,1l-0.1-0.1
  c-0.1-0.1-0.2-0.2-0.2-0.2c-0.1,0-0.1,0-0.1,0.1c0,0.1-0.1,0.1-0.1,0.2c-0.1,0.1-0.3,0.2-0.5,0.2c-0.1,0.1-0.2,0.3-0.3,0.5
  c0,0.1,0,0.1,0,0.2c0.1,0.1,0,0.1-0.1,0.2s0.1,0.2,0,0.2s0,0.1,0,0.1c0,0-0.1,0-0.1,0c0,0,0,0.1-0.1,0.1c-0.2-0.8-0.4-1.6-0.4-2.4
  L10.4,13.3z M17.9,25.3c-3-0.1-5.9-1.3-8.1-3.4l1.4-1.4c1.8,1.7,4.2,2.7,6.7,2.8V25.3z M17.9,22.7c-2.3-0.1-4.5-1-6.2-2.6
  c0.1,0.1,0.2,0.1,0.4,0.1c0.1,0,0.2,0,0.4-0.1l0.4-0.2c0.1,0,0.3,0,0.4-0.1c0.1,0,0.2,0,0.3,0c0.1,0,0.2-0.1,0.2-0.2
  c0-0.1-0.1-0.2-0.2-0.2c-0.1-0.1-0.1-0.1-0.1-0.2s0-0.1-0.1-0.1c-0.1-0.1-0.2-0.2-0.3-0.3l0,0c1.4,1.3,3.1,2,5,2.1L17.9,22.7z
   M18.2,17.9L18.2,17.9c-0.1,0-0.3,0-0.4-0.1c0,0,0-0.1,0-0.1l0.2-0.1c0.1-0.1,0.2-0.1,0.3-0.1v-0.1l0.3-0.2l0.1,0l0.2-0.1
  c0.1,0,0.2,0.1,0.3,0.1c0.1,0.1,0.2,0.1,0.3,0.1v-0.2c0.1,0,0.1,0.1,0.3,0.2c0.1,0,0.2,0,0.2-0.1c0-0.1,0-0.1,0-0.2c0,0,0.1,0,0.1,0
  h0.1c0,0,0,0,0.1,0l0,0c0.1,0,0.2-0.1,0.2-0.1c0.1-0.1,0.1-0.1,0.2-0.1c0,0,0,0,0.1,0c0,0,0,0,0,0l0,0c0,0.1,0,0.1,0,0.2
  c0,0.2-0.1,0.4-0.4,0.5c-0.2,0.1-0.4,0.2-0.6,0.2c0,0.1-0.1,0.1-0.1,0.2c0,0.1-0.1,0.1-0.1,0.1c-0.2,0-0.4,0-0.5-0.1
  C19,17.8,19,17.7,19,17.6c-0.1,0-0.2,0-0.3,0l-0.4,0.1c-0.1,0-0.1,0-0.2,0L18.2,17.9z M20.1,16.4c0-0.1,0.1-0.2,0.2-0.3
  c0.1,0,0.2-0.1,0.3-0.1c0,0.1-0.1,0.2-0.2,0.3C20.3,16.4,20.2,16.5,20.1,16.4L20.1,16.4z M21.4,15.4c0.1,0.1,0.2,0.2,0.2,0.3
  c0,0.1,0,0.2-0.1,0.2l0,0c-0.1,0-0.2-0.1-0.2-0.3c-0.2,0-0.3-0.1-0.3-0.3c0-0.1,0-0.2,0-0.2l0.2-0.1c0.1,0,0.1,0.1,0,0.2L21.4,15.4z
   M25.6,8.1C25.6,8.1,25.6,8.1,25.6,8.1c0.2,0,0.3,0,0.4,0.1c0.2,0.2,0.4,0.4,0.5,0.6c0,0,0.1,0,0.1,0.1s0.1,0.1,0.2,0.1
  c0.1,0,0.2,0,0.3,0C27,9,27,9,27,9c0.5,1.2,0.8,2.4,0.9,3.7H26l0,0c0-0.2,0-0.3-0.1-0.5c-0.1-0.2-0.1-0.4-0.1-0.6c0-0.1,0-0.2,0-0.4
  c-0.1,0-0.1,0-0.2,0c0,0.1-0.1,0.1-0.1,0.2c0,0.1-0.1,0.2-0.1,0.2l0,0v0.1c0,0,0,0.1,0,0.1l-0.1,0.3c0,0.1,0,0.2,0,0.4l0,0
  c0,0,0,0.1,0,0.1h-0.9c0.1-0.1,0.1-0.1,0.2-0.1l0,0l0.2-0.1c-0.1,0-0.1-0.1-0.1-0.1c0,0,0-0.1,0-0.1L25,12c0.1-0.1,0.2-0.3,0.2-0.4
  c0.2-0.3,0.3-0.6,0.3-0.9c0-0.1-0.1-0.1-0.1-0.2c0-0.1,0-0.1,0-0.2c0-0.3,0.1-0.8-0.2-0.9c0,0,0,0,0-0.1c0.1-0.1,0.1-0.2,0.1-0.3H25
  c0-0.1,0-0.1,0.1-0.1c0-0.1,0.1-0.1,0.1-0.2c0-0.1,0-0.1-0.1-0.1c0,0,0,0,0,0l0,0c-0.1,0-0.1,0-0.2,0c0,0-0.1,0-0.1,0h-0.1l-0.1-0.1
  c0-0.1-0.1-0.3-0.2-0.4c-0.1-0.1-0.2-0.2-0.4-0.2l0,0c0-0.1,0-0.1,0-0.2l0.4-0.4l0.5,0.2c0,0.1,0,0.2,0.1,0.3c0.1,0,0.1,0.1,0.2,0.1
  c0.1,0,0.1,0.1,0.2,0.2v0C25.4,8.1,25.5,8.1,25.6,8.1L25.6,8.1z M23.8,20.6c0,0-0.1,0-0.1,0c0,0-0.1,0-0.1-0.1s0-0.1,0.1-0.2
  c0.1-0.1,0.2-0.2,0.3-0.4c0-0.1,0.1-0.2,0.1-0.3c0,0,0-0.1-0.1-0.1c-0.1,0-0.1-0.1-0.1-0.1l-0.2-0.1c-0.1,0-0.2-0.1-0.2-0.1
  c-0.1,0-0.1-0.1-0.1-0.2c0-0.1,0-0.1,0.1-0.2c0,0,0-0.1,0-0.1l0.1-0.1l1,1c0,0.1,0.1,0.2,0.2,0.2l0.1,0.1c-0.3,0.3-0.7,0.6-1.1,0.9
  c0,0,0-0.1,0.1-0.1h0C23.8,20.7,23.8,20.7,23.8,20.6L23.8,20.6z M23.2,15.9c-0.1,0-0.2,0-0.3,0c-0.1,0-0.2,0.1-0.3,0.3l0,0l0,0
  c-0.1,0-0.1,0-0.2,0l-0.2,0.1c-0.1,0-0.1,0-0.1-0.1s0.1-0.1,0.4-0.2l0.2-0.2c0.1,0,0.1-0.1,0.2-0.1c0.1-0.1,0.2-0.2,0.3-0.3
  c0.1-0.1,0.1-0.2,0.2-0.3l0,0c0,0.1,0.1,0.2,0.2,0.2c0.1,0,0.2-0.1,0.2-0.3c0.1,0,0.2,0.1,0.4,0.1c0.1,0,0.3,0,0.3-0.2h0.5V15l0,0
  c-0.3,1-0.8,1.8-1.5,2.6c0,0,0-0.1,0-0.1c0-0.1-0.1-0.3-0.2-0.4c0,0-0.1,0.1-0.2,0.3c0,0.1-0.1,0.3-0.2,0.4l-0.4,0.1
  c-0.1,0-0.3,0-0.4,0c-0.1,0-0.3-0.1-0.4-0.1c-0.1-0.1-0.2-0.1-0.4-0.1c-0.1,0-0.2-0.1-0.4-0.1s-0.2-0.1-0.2-0.1s0.1-0.1,0.2-0.1
  c0.1,0,0.2,0,0.4,0.1l0.5,0.1l0.5,0.1c0.1,0,0.2,0.1,0.3,0.1l0.2-0.1c0-0.1,0-0.2,0.1-0.2s0.1-0.2,0.1-0.2c0.1-0.1,0.1-0.3,0.2-0.5
  c0-0.2,0.1-0.3,0.1-0.5c0-0.1,0-0.2-0.1-0.2L23.2,15.9z M24.3,13.3h1c0,0.4-0.1,0.9-0.2,1.3c-0.1-0.1-0.1-0.3-0.2-0.4l-0.4-0.3
  c0-0.1,0-0.2-0.1-0.3c0,0,0-0.1-0.1-0.1C24.4,13.4,24.4,13.3,24.3,13.3L24.3,13.3z M24.8,18.6c-0.1,0-0.1,0-0.1,0.1
  c0,0.1,0,0.2,0,0.3L24,18.2c0.9-1,1.5-2.1,1.8-3.4l0,0c0.1,0,0.2,0,0.3,0c0,0,0.1-0.1,0.1-0.1c0-0.1-0.1-0.2-0.2-0.3h0
  c0.1-0.4,0.1-0.8,0.1-1.1h1.9c-0.1,2.3-1,4.6-2.6,6.3l-0.1-0.1l0,0c0-0.2-0.1-0.4-0.1-0.6S24.9,18.6,24.8,18.6L24.8,18.6z M24.3,9.2
  L24.3,9.2c0,0.1,0,0.1,0,0.2c0,0.1,0,0.1-0.1,0.2c0.1,0.1,0.2,0.2,0.3,0.3c0.1,0.1,0.3,0.2,0.4,0.3c0.1,0.2,0.2,0.3,0.2,0.5
  c0.1,0.1,0.1,0.3,0.1,0.4c0,0.1-0.1,0.2-0.1,0.3c-0.1,0.2-0.3,0.2-0.4,0.3l0,0c0-0.1,0-0.2,0.1-0.2c0-0.1,0.1-0.2,0.1-0.3
  c0.1,0,0.2-0.1,0.2-0.2l-0.1-0.1c-0.1-0.1-0.1-0.1-0.2-0.2c0-0.1-0.1-0.1-0.3-0.1c-0.1,0-0.2,0-0.2,0.1l-0.2,0.1l-0.1-0.2
  c0-0.1,0-0.1,0-0.2l-0.4-0.6c-0.1-0.1-0.3-0.1-0.5-0.1c-0.1,0-0.2,0-0.4,0c-0.1,0-0.2,0-0.3,0c-0.1,0-0.3,0-0.3,0.1
  c-0.1,0.1-0.2,0.2-0.3,0.3c0,0.1,0,0.1-0.1,0.1c0,0-0.1-0.1-0.1-0.1l2-2l0,0.1c0.1,0.1,0.1,0.1,0.2,0.2l0.2,0.2
  C24.1,8.8,24.2,9,24.3,9.2L24.3,9.2z M19.6,22.1c0.2,0.1,0.4,0.2,0.5,0.3c-0.5,0.1-1.1,0.2-1.6,0.2v-1.9l0,0
  c0.1,0.1,0.2,0.2,0.3,0.3c0.1,0,0.3,0.1,0.4,0.1c0.2,0,0.3,0,0.3,0.1c0,0.1,0,0.1-0.1,0.2c0,0.1-0.1,0.1-0.1,0.2
  C19.3,21.8,19.4,22,19.6,22.1L19.6,22.1z M18.5,25.2v-2c0.7,0,1.4-0.1,2.1-0.2l0,0l0,0c0.2,0.1,0.3,0.2,0.4,0.4
  c0.1,0.1,0.2,0.2,0.5,0.2c0.1,0,0.2,0,0.3-0.1c0.1,0,0.1-0.1,0.2-0.1c0.1-0.1,0.1-0.1,0.2-0.1c0.1,0,0.1-0.1,0.2-0.1
  c0.1,0,0.2-0.1,0.3-0.3c0.1-0.1,0.2-0.2,0.3-0.4c0.1,0,0.1,0,0.2-0.1c0.1-0.1,0.1-0.3,0.2-0.4h0.1c0,0,0,0,0-0.1
  c0.7-0.4,1.3-0.9,1.9-1.4l1.4,1.4C24.4,24,21.5,25.2,18.5,25.2L18.5,25.2z M27.1,21.4L25.7,20c1.7-1.8,2.7-4.2,2.8-6.7h2
  C30.4,16.3,29.2,19.2,27.1,21.4L27.1,21.4z M30.5,12.6h-2c-0.1-2.1-0.8-4.1-2-5.8c0-0.1-0.1-0.1-0.1-0.2c0,0-0.1-0.1-0.1-0.1
  c-0.2-0.2-0.3-0.4-0.5-0.6c0,0,0-0.1,0-0.1l1.4-1.3C29.2,6.7,30.4,9.6,30.5,12.6z M18.5,0.6c3,0.1,6,1.3,8.2,3.4l-1.2,1.2
  c0-0.1-0.1-0.1-0.1-0.2c-0.1-0.1-0.1-0.1-0.2-0.1c-0.1,0-0.2-0.1-0.2-0.2c0-0.1,0-0.2-0.1-0.3c-0.2-0.1-0.3-0.2-0.4-0.4
  c-0.1-0.2-0.2-0.3-0.4-0.3c-0.1,0-0.2,0-0.3,0c-0.1,0-0.2-0.1-0.3-0.1c-0.1,0-0.2,0-0.3,0c-0.1,0-0.2,0.1-0.3,0.1h0
  c-1.3-0.7-2.7-1-4.2-1.1c0.1-0.2,0.1-0.3,0-0.3s-0.1,0-0.2,0.1L18.5,0.6z M18.5,3.3c1.4,0,2.8,0.4,4,1l0,0l0.2,0.2l0.1,0.2
  c0,0.1,0.1,0.3,0.1,0.4c0,0.1,0.1,0.2,0.1,0.2c0,0.1,0,0.3,0.1,0.4c0.1,0.1,0.2,0.3,0.3,0.4h0.2h0.2c0.1,0,0.1,0,0.2,0.1
  c0.1,0.1,0.1,0.2,0.1,0.2c0,0,0,0.1,0,0.2L23.6,7l0,0c-0.1-0.2-0.1-0.5-0.3-0.7c-0.1-0.1-0.2-0.1-0.4-0.1c0,0-0.1-0.2-0.3-0.4
  s-0.3-0.3-0.3-0.3c0,0-0.1,0-0.1,0l0.1,0.2l0.2,0.3c0,0,0,0.1-0.1,0.1l0,0c0,0.1,0.1,0.2,0.2,0.2v0.1l0.1,0.3
  c-1.2-0.9-2.7-1.4-4.3-1.5L18.5,3.3z M18.5,5.8c1.7,0.1,3.3,0.8,4.5,1.9L21.7,9c-0.9-0.8-2-1.3-3.2-1.3L18.5,5.8z M18.5,8.3
  c0.9,0.1,1.8,0.4,2.6,1l0,0.1c0,0-0.1,0-0.1,0.1c0,0,0,0.1,0,0.1s0.1,0.1,0.2,0.1l-0.5,0.5l0,0c-0.1,0-0.1,0.1-0.2,0.1
  c-0.1,0.1-0.2,0.1-0.2,0.2s0,0.1,0,0.1L20,10.8h-0.1c-0.1,0-0.1-0.1-0.3-0.2c-0.1-0.1-0.2-0.2-0.3-0.2c-0.1,0-0.1,0-0.2,0.1
  c0,0-0.1,0-0.1,0c-0.1-0.1,0-0.1,0.2-0.2l0.4-0.1C19.8,10,20,9.7,20,9.4c0-0.1-0.1-0.2-0.2-0.2l-0.1,0.1c-0.1,0.1-0.2,0.1-0.3,0.2
  l-0.2,0.2c-0.1,0-0.2,0-0.3,0h-0.2l0,0L18.5,8.3z M18.1,11.3C18.1,11.3,18.1,11.4,18.1,11.3c0.2,0.1,0.2,0.1,0.3,0.1
  c0.1,0,0.2,0,0.2,0c0,0,0,0.1,0,0.1c0,0.1,0.1,0.1,0.2,0.1l0.1,0.1c0,0,0,0,0,0.1c0,0.1,0,0.1,0.1,0.1l0,0l0,0c0,0,0.1,0,0.1,0
  c0,0,0.1,0,0.1,0c0,0,0,0.1,0,0.1l0,0c0,0,0,0.1,0,0.1c0,0.1,0,0.1,0,0.2v0.1 M19.1,12.3c-0.1,0.1-0.1,0.2-0.1,0.2
  c0,0.1,0,0.1,0.1,0.1c0.1,0,0.1,0,0.2,0.1c0.1,0.1,0.1,0.2,0.1,0.3v0.4c0,0.1,0,0.1,0.1,0.1c0,0,0.1,0.1,0.1,0.1c0,0.1,0,0.2,0,0.3
  c0,0.1-0.1,0.2-0.1,0.3c0,0-0.1,0-0.2,0c-0.1,0-0.2,0-0.3,0c-0.1,0-0.1,0.1-0.2,0.3c-0.1,0.1-0.1,0.3-0.1,0.4c0,0.1-0.1,0.2-0.2,0.2
  h-0.2l0,0L18,15.2v0.1c-0.5,0-1-0.2-1.3-0.6l0.2-0.2c0.1,0,0.3-0.1,0.4-0.1h0.1c0.2-0.1,0.2-0.3,0.3-0.5s0.3-0.3,0.1-0.4
  c0.2-0.3-0.7-0.4-0.9-0.3s-0.1,0.3-0.2,0.4s-0.1,0.1-0.2,0.1c-0.1,0.1-0.3,0.3-0.3,0.4l0,0c0-0.1-0.1-0.2-0.1-0.3l0,0
  c0,0,0-0.1,0-0.1h0l0,0c0.1,0,0.2,0,0.2,0c0-0.1,0.1-0.2,0.1-0.2c0.1-0.2,0.1-0.3,0.2-0.5c-0.1,0-0.1-0.1-0.1-0.1c0-0.1,0-0.1-0.1,0
  c-0.1,0-0.1,0.1-0.1,0.1c0,0.1,0,0.1-0.1,0.2c0,0.1-0.1,0.1-0.2,0.1c0-0.1,0-0.1-0.1-0.1l0,0c-0.1,0-0.1,0-0.2,0.1h-0.4
  c-0.1,0-0.3,0-0.4,0c-0.1-0.1,0-0.1,0.2-0.2c0-0.2,0.1-0.4,0.2-0.5c0.1,0,0.2,0.1,0.3,0.1l0.1-0.1H16c0.1,0,0.1,0.1,0.1,0.2
  c0,0.1,0,0.2,0.1,0.2c0.1,0,0.1,0,0.2-0.1v-0.2c0-0.2,0.1-0.3,0.1-0.5v-0.1c0-0.1,0.1-0.2,0.1-0.2h0c0.1,0,0.1-0.1,0.2-0.1
  c0,0,0-0.1,0.1-0.1l0.5-0.2c0.2-0.1,0.3-0.2,0.3-0.3l0,0h0.3c0,0,0,0,0.1,0L19.1,12.3z M17.9,0.7v2c-2.5,0.1-4.9,1.1-6.7,2.8L9.7,4
  C11.9,1.9,14.8,0.7,17.9,0.7z M9.3,4.5l1.4,1.4c-1.7,1.8-2.7,4.2-2.8,6.7h-2C5.9,9.6,7.2,6.7,9.3,4.5z"/>
<path id="Path_468" class="st2" d="M49.8,32V0"/>
</svg>
