<?xml version="1.0" encoding="utf-8"?>
<!-- Generator: Adobe Illustrator 25.4.1, SVG Export Plug-In . SVG Version: 6.00 Build 0)  -->
<svg version="1.1" id="Layer_1" xmlns="http://www.w3.org/2000/svg" xmlns:xlink="http://www.w3.org/1999/xlink" x="0px" y="0px"
   viewBox="0 0 270 32" style="enable-background:new 0 0 270 32;" xml:space="preserve">
<style type="text/css">
  .st0{fill:#1B344A;}
  .st1{fill:#5090CD;}
  .st2{fill:none;stroke:#B7B6B6;stroke-width:0.41;}
</style>
<g>
  <path class="st0" d="M62.8,11.9l0.9-0.1l3.9-11.1h2.6l3.8,11.1l0.9,0.1v1.5h-4.3v-1.5l0.9-0.2L71,10h-4.1l-0.6,1.8l0.9,0.2v1.5
    h-4.3V11.9z M67.5,8.1h2.9L69,3.6l0,0L67.5,8.1z"/>
  <path class="st0" d="M81.9,0.7c1.2-0.1,2.5,0.3,3.4,1.1c0.8,0.7,1.3,1.8,1.3,2.9c0,1.1-0.4,2.2-1.3,2.9c-1,0.8-2.2,1.2-3.4,1.1
    h-2.2v2.8l1.4,0.3v1.5h-5.3v-1.5l1.4-0.3V2.5l-1.4-0.3V0.7H81.9z M79.8,6.8h2.2c0.6,0,1.2-0.2,1.6-0.6c0.4-0.4,0.6-0.9,0.5-1.5
    c0-0.6-0.2-1.1-0.5-1.5c-0.4-0.4-1-0.6-1.6-0.6h-2.2V6.8z"/>
  <path class="st0" d="M95.7,7.8h-4.3v3.6h4.1l0.1-1.5h2v3.5H87.4v-1.5l1.4-0.3V2.5l-1.4-0.3V0.7h10.1v3.5h-2l-0.1-1.5h-4v3.2h4.3
    L95.7,7.8z"/>
  <path class="st0" d="M104.6,0.7c1.2-0.1,2.4,0.3,3.4,1c0.8,0.7,1.3,1.7,1.2,2.7c0,0.6-0.2,1.2-0.5,1.7c-0.4,0.5-0.9,0.9-1.5,1.2
    c0.7,0.2,1.2,0.5,1.6,1.1c0.3,0.6,0.5,1.2,0.5,1.9v0.6c0,0.2,0,0.5,0.2,0.6c0.1,0.2,0.3,0.3,0.6,0.3h0.3v1.5H109
    c-0.7,0.1-1.3-0.2-1.8-0.7c-0.4-0.5-0.5-1.1-0.5-1.7v-0.7c0-0.5-0.1-1.1-0.5-1.4c-0.4-0.4-0.9-0.6-1.4-0.6h-2.1v3.4l1.4,0.3v1.5
    h-5.2v-1.5l1.4-0.3V2.5l-1.4-0.3V0.7C98.9,0.7,104.6,0.7,104.6,0.7z M102.8,6.3h1.8c0.6,0,1.1-0.1,1.6-0.4c0.4-0.3,0.6-0.8,0.5-1.3
    c0-0.5-0.2-1-0.5-1.4c-0.4-0.4-1-0.6-1.6-0.5h-1.8V6.3z"/>
  <path class="st0" d="M121.6,5h-1.9l-0.3-1.7c-0.3-0.3-0.6-0.5-0.9-0.6c-0.4-0.2-0.9-0.2-1.3-0.2c-1-0.1-2,0.4-2.6,1.2
    c-0.6,0.9-1,2-0.9,3.2v0.4c-0.1,1.1,0.3,2.2,0.9,3.2c0.6,0.8,1.5,1.3,2.5,1.2c0.5,0,0.9-0.1,1.4-0.2c0.4-0.1,0.7-0.3,1-0.6l0.3-1.7
    h1.9v2.5c-0.6,0.6-1.2,1.1-2,1.4c-0.8,0.4-1.8,0.5-2.7,0.5c-1.6,0.1-3.1-0.6-4.2-1.8c-1.1-1.3-1.7-2.9-1.6-4.6V6.8
    c-0.1-1.7,0.5-3.3,1.6-4.6c1.1-1.2,2.6-1.8,4.2-1.8c0.9,0,1.8,0.2,2.7,0.5c0.8,0.3,1.4,0.8,2,1.4L121.6,5z M117.8,13.4l-0.1,0.5
    c0.4,0,0.7,0.2,0.9,0.4c0.3,0.3,0.4,0.7,0.4,1.1c0,0.6-0.3,1.2-0.8,1.5c-0.7,0.4-1.5,0.6-2.3,0.6l-0.1-1.5c0.2,0,0.5,0,0.7-0.2
    c0.2-0.1,0.3-0.3,0.3-0.6c0-0.2-0.1-0.4-0.3-0.5c-0.3-0.1-0.7-0.2-1-0.2l0.3-1.2L117.8,13.4z"/>
  <path class="st0" d="M127.9,0.7v1.5l-1.4,0.3v6.7c-0.1,0.7,0.2,1.4,0.7,1.9c0.5,0.4,1.2,0.7,1.9,0.6c0.7,0,1.4-0.2,1.9-0.6
    c0.5-0.5,0.7-1.2,0.7-1.9V2.5l-1.4-0.3V0.7h5.3v1.5l-1.4,0.3v6.7c0.1,1.3-0.4,2.5-1.4,3.3c-2.2,1.5-5.2,1.5-7.4,0
    c-1-0.8-1.5-2-1.4-3.3V2.5l-1.4-0.3V0.7H127.9L127.9,0.7z"/>
  <path class="st0" d="M140.7,2.2V0.7h5.3v1.5l-1.4,0.3v3.7h5.2V2.5l-1.4-0.3V0.7h5.3v1.5l-1.4,0.3v9.1l1.4,0.3v1.5h-5.3v-1.5
    l1.4-0.3V8.1h-5.2v3.5l1.4,0.3v1.5h-5.3v-1.5l1.4-0.3V2.5L140.7,2.2z"/>
  <path class="st0" d="M159.8,0.7v1.5l-1.4,0.3v6.7c-0.1,0.7,0.2,1.4,0.7,1.9c0.5,0.4,1.2,0.7,1.9,0.6c0.7,0,1.4-0.2,1.9-0.6
    c0.5-0.5,0.7-1.2,0.7-1.9V2.5l-1.4-0.3V0.7h5.3v1.5l-1.4,0.3v6.7c0.1,1.3-0.4,2.5-1.4,3.3c-2.2,1.5-5.2,1.5-7.4,0
    c-1-0.8-1.5-2-1.4-3.3V2.5l-1.4-0.3V0.7H159.8z"/>
  <path class="st0" d="M180.5,4L180.5,4l-3.5,9.4h-1.7L172,4h-0.1l0.2,5.6v2l1.4,0.3v1.5h-5.3v-1.5l1.4-0.3V2.5l-1.4-0.3V0.7h4.7
    l3.2,9.4h0.1l3.2-9.4h4.7v1.5l-1.4,0.3v9.1l1.4,0.3v1.5h-5.3v-1.5l1.4-0.3v-2L180.5,4z"/>
  <path class="st0" d="M185,11.9l0.9-0.1l3.8-11.1h2.6l3.8,11.1l0.9,0.1v1.5h-4.3v-1.5l0.9-0.2l-0.6-1.7H189l-0.6,1.8l0.9,0.2v1.5
    H185V11.9z M189.6,8.1h2.9l-1.4-4.5H191L189.6,8.1z"/>
  <path class="st0" d="M211,0.7v1.5l-1.4,0.3v10.9h-2.5l-5.1-8.6h-0.1v6.8l1.4,0.3v1.5H198v-1.5l1.4-0.3V2.5L198,2.2V0.7h3.9l5.1,8.6
    h0.1V2.5l-1.4-0.3V0.7H211z"/>
  <path class="st0" d="M211.8,2.2V0.7h5.3v1.5l-1.4,0.3v9.1l1.4,0.3v1.5h-5.3v-1.5l1.4-0.3V2.5L211.8,2.2z"/>
  <path class="st0" d="M229.2,0.7v3.4h-1.9l-0.1-1.4h-2.3v9l1.4,0.3v1.5h-5.3v-1.6l1.4-0.3v-9H220L219.9,4h-2V0.7H229.2z"/>
  <path class="st0" d="M228.4,11.9l0.9-0.1l3.9-11.1h2.6l3.9,11.1l0.9,0.1v1.5h-4.3v-1.5l0.9-0.2l-0.6-1.7h-4.1l-0.6,1.8l0.9,0.2v1.5
    h-4.3V11.9z M233,8.1h2.9l-1.4-4.5h-0.1L233,8.1z"/>
  <path class="st0" d="M241.4,2.2V0.7h5.3v1.5l-1.4,0.3v9.1l1.4,0.3v1.5h-5.3v-1.5l1.4-0.3V2.5L241.4,2.2z"/>
  <path class="st0" d="M253.3,0.7c1.2-0.1,2.4,0.3,3.4,1c0.8,0.7,1.3,1.7,1.3,2.7c0,0.6-0.2,1.2-0.5,1.7c-0.4,0.5-0.9,0.9-1.5,1.2
    c0.7,0.2,1.2,0.5,1.6,1.1c0.3,0.6,0.5,1.2,0.5,1.9v0.6c0,0.2,0,0.5,0.2,0.6c0.1,0.2,0.3,0.3,0.5,0.3h0.3v1.5h-1.3
    c-0.7,0.1-1.3-0.2-1.8-0.7c-0.4-0.5-0.5-1.1-0.5-1.7v-0.7c0-0.5-0.1-1.1-0.5-1.5c-0.4-0.4-0.9-0.6-1.4-0.6h-2.1v3.4l1.4,0.3v1.5
    h-5.3v-1.5l1.4-0.3V2.5l-1.4-0.3V0.7H253.3L253.3,0.7z M251.5,6.3h1.8c0.6,0,1.1-0.1,1.6-0.4c0.4-0.3,0.6-0.8,0.5-1.3
    c0-0.5-0.2-1-0.5-1.4c-0.4-0.4-1-0.6-1.6-0.5h-1.8L251.5,6.3z"/>
  <path class="st0" d="M268.1,7.8h-4.3v3.6h4.2l0.1-1.5h1.9v3.5h-10.1v-1.5l1.4-0.3V2.5l-1.4-0.3V0.7H270v3.5h-2l-0.1-1.5h-4.1v3.2
    h4.3L268.1,7.8z"/>
</g>
<path class="st0" d="M75.3,21.9L75.3,21.9l-3.5,9.4h-1.7l-3.4-9.4h-0.1l0.2,5.6v2l1.4,0.3v1.5H63v-1.5l1.3-0.3v-9.1L63,20.1v-1.5
  h4.7l3.2,9.4l0,0l3.3-9.4h4.7v1.5l-1.4,0.3v9.1l1.4,0.3v1.5h-5.2v-1.6l1.3-0.3v-2L75.3,21.9z"/>
<path class="st0" d="M91.5,25c0.1,1.7-0.5,3.3-1.6,4.6c-2.1,2.3-5.7,2.5-8,0.3c-0.1-0.1-0.2-0.2-0.3-0.3c-1.1-1.3-1.6-3-1.5-4.6
  v-0.2c-0.1-1.7,0.5-3.3,1.6-4.6c1-1.2,2.6-1.9,4.2-1.8c1.6-0.1,3.1,0.6,4.2,1.8c1.1,1.3,1.7,2.9,1.6,4.6L91.5,25z M88.9,24.8
  c0.1-1.1-0.2-2.2-0.8-3.2c-0.5-0.8-1.5-1.3-2.4-1.2c-1-0.1-1.9,0.4-2.4,1.2c-0.6,1-0.8,2.1-0.8,3.2V25c-0.1,1.1,0.2,2.3,0.8,3.2
  c0.5,0.8,1.4,1.3,2.4,1.2c1,0.1,1.9-0.4,2.4-1.2c0.6-1,0.9-2.1,0.8-3.2V24.8z"/>
<path class="st0" d="M105.5,18.6v1.5l-1.4,0.3v10.9h-2.5l-5.2-8.6l0,0v6.8l1.4,0.3v1.5h-5.3v-1.5l1.4-0.3v-9.1l-1.4-0.3v-1.5h3.9
  l5.1,8.6h0.1v-6.8l-1.4-0.3v-1.5H105.5z"/>
<path class="st0" d="M112.1,18.6c1.4,0,2.8,0.5,3.8,1.5c1,1,1.6,2.4,1.5,3.8V26c0.1,1.4-0.5,2.8-1.5,3.8c-1,1-2.4,1.5-3.8,1.5h-5.7
  v-1.5l1.3-0.3v-9.1l-1.3-0.3v-1.5H112.1z M110.3,20.6v8.8h1.7c0.8,0,1.6-0.3,2.2-0.9c0.5-0.7,0.8-1.6,0.8-2.4v-2.1
  c0-0.9-0.2-1.7-0.8-2.4c-0.5-0.6-1.3-1-2.2-0.9L110.3,20.6z"/>
<path class="st0" d="M118.7,20.1v-1.5h5.3v1.5l-1.4,0.3v9.1l1.4,0.3v1.5h-5.3v-1.5l1.4-0.3v-9.1L118.7,20.1z"/>
<path class="st0" d="M124.8,29.8l0.9-0.1l3.9-11.1h2.6l3.8,11.1l0.9,0.1v1.5h-4.3v-1.5l0.9-0.2l-0.6-1.8h-4.1l-0.6,1.8l0.9,0.2v1.5
  h-4.3L124.8,29.8z M129.4,26h2.9l-1.4-4.5h-0.1L129.4,26z"/>
<path class="st0" d="M137.8,31.3v-1.5l1.4-0.3v-9.1l-1.4-0.3v-1.5h5.3v1.5l-1.4,0.3v9h3.6l0.1-1.6h2v3.6L137.8,31.3z"/>
<path class="st1" d="M152.7,31.3v-1.2l4.2-4.6c0.6-0.6,1.1-1.3,1.5-2c0.3-0.5,0.4-1,0.4-1.5c0-0.6-0.2-1.2-0.6-1.6
  c-0.4-0.4-0.9-0.7-1.5-0.6c-0.7-0.1-1.4,0.2-1.9,0.7c-0.4,0.5-0.7,1.2-0.6,1.9h-1.6v0c-0.1-1,0.3-2,1.1-2.8c0.9-0.8,2-1.2,3.1-1.1
  c1-0.1,2,0.3,2.8,1c0.7,0.7,1,1.6,1,2.5c0,0.7-0.2,1.5-0.6,2.1c-0.5,0.8-1.1,1.6-1.7,2.2l-3.4,3.6v0h4.5l0.1-1.5h1.5v2.8L152.7,31.3
  z"/>
<path class="st1" d="M170.9,26.5c0.1,1.3-0.3,2.7-1.1,3.7c-1.5,1.6-4,1.8-5.6,0.3c-0.1-0.1-0.2-0.2-0.3-0.3
  c-0.8-1.1-1.2-2.4-1.1-3.7v-3c-0.1-1.3,0.3-2.7,1.1-3.7c1.5-1.6,4-1.8,5.6-0.3c0.1,0.1,0.2,0.2,0.3,0.3c0.8,1.1,1.2,2.4,1.1,3.7
  V26.5z M169.2,23.1c0.1-0.9-0.1-1.7-0.6-2.5c-0.8-1-2.1-1.1-3.1-0.4c-0.1,0.1-0.3,0.2-0.4,0.4c-0.4,0.7-0.6,1.6-0.6,2.5v3.7
  c-0.1,0.9,0.2,1.7,0.6,2.5c0.8,1,2.1,1.1,3.1,0.4c0.1-0.1,0.3-0.2,0.4-0.4c0.4-0.8,0.6-1.6,0.6-2.5V23.1z"/>
<path class="st1" d="M172.8,31.3v-1.2l4.2-4.6c0.6-0.6,1.1-1.3,1.5-2c0.3-0.5,0.4-1,0.4-1.5c0-0.6-0.2-1.2-0.6-1.6
  c-0.4-0.4-0.9-0.7-1.5-0.6c-0.7-0.1-1.4,0.2-1.9,0.7c-0.4,0.5-0.7,1.2-0.6,1.9h-1.7v0c-0.1-1,0.3-2,1.1-2.8c0.9-0.8,2-1.2,3.1-1.1
  c1-0.1,2,0.3,2.7,1c0.7,0.7,1,1.6,1,2.5c0,0.7-0.2,1.4-0.6,2.1c-0.5,0.8-1.1,1.6-1.7,2.2l-3.3,3.7v0h4.5l0.1-1.5h1.5v2.8H172.8z"/>
<path class="st1" d="M183.2,31.3v-1.2l4.2-4.6c0.6-0.6,1.1-1.3,1.5-2c0.3-0.5,0.4-1,0.4-1.5c0-0.6-0.2-1.2-0.6-1.6
  c-0.4-0.4-0.9-0.7-1.5-0.6c-0.7-0.1-1.4,0.2-1.9,0.7c-0.4,0.5-0.7,1.2-0.6,1.9h-1.7v0c-0.1-1,0.3-2,1.1-2.8c0.9-0.8,2-1.2,3.1-1.1
  c1-0.1,2,0.3,2.7,1c0.7,0.7,1,1.6,1,2.5c0,0.7-0.2,1.4-0.6,2.1c-0.5,0.8-1.1,1.6-1.7,2.2l-3.3,3.7v0h4.5l0.1-1.5h1.5v2.8H183.2z"/>
<path id="Path_469" class="st1" d="M3.7,9.2c0.5-0.4,1-0.8,1.6-1.3c0.2-0.2,0.4-0.4,0.6-0.5C6,7.2,6.1,7,6.2,6.8
  c0.1-0.2,0.2-0.5,0.3-0.7l0.4-1.2l0,0C6.7,5.3,6.5,5.6,6.2,5.9c-0.3,0.3-0.7,0.5-1,0.7C4.8,6.9,4.4,7.2,4.1,7.5
  c-0.4,0.4-0.7,0.8-1,1.3l0,0C3.4,8.1,3.6,7.5,3.7,7l0.3-1.3c0.1-0.3,0.2-0.7,0.4-1c0.2-0.3,0.4-0.6,0.7-0.8l0,0
  C4.4,4.1,3.8,4.5,3.3,5.2C2.8,5.8,2.6,6.7,2.6,7.5v2.9C2.9,10,3.3,9.5,3.7,9.2z M5.7,5.6c0.4-0.4,0.7-0.8,1.1-1.2l0.9-1.2
  c0.3-0.4,0.6-0.7,1-1H8.6C8.4,2.4,8,2.6,7.7,2.6C7.3,2.8,6.9,3,6.5,3.2C6,3.5,5.6,3.9,5.3,4.4C4.8,5.1,4.5,6,4.3,6.8
  C4.8,6.5,5.3,6,5.7,5.6L5.7,5.6z M1,16.6c0.3,0.4,0.6,0.8,0.9,1.2c0.4,0.5,0.7,1,1,1.5H3c0-0.2-0.1-0.4,0-0.7V18
  c0-0.4,0.1-0.8,0.2-1.1c0.2-0.5,0.3-1.1,0.5-1.7s0.3-1.3,0.5-1.9c0.1-0.6,0.2-1.1,0.1-1.7l0,0c-0.1,0.4-0.2,0.7-0.4,1.1l-0.7,1.1
  c-0.3,0.4-0.5,0.9-0.7,1.3c-0.2,0.4-0.3,0.9-0.2,1.4c0,0.2,0,0.5,0.1,0.7c0,0.2,0.1,0.4,0.1,0.5l0,0c-0.1-0.6-0.3-1.2-0.5-1.8
  c-0.2-0.6-0.4-1.1-0.6-1.6s-0.4-1-0.5-1.3c-0.1-0.3-0.2-0.7-0.2-1c0-0.2,0-0.4,0-0.7s0-0.4,0-0.6h0c-0.1,0.4-0.2,0.7-0.3,1.1
  c-0.1,0.4-0.2,0.9-0.2,1.3c0,0.7,0.1,1.3,0.2,2C0.5,15.6,0.7,16.1,1,16.6z M8.6,28c0.2,0,0.3,0,0.5,0c0.2,0,0.4,0,0.6,0l0.8-0.1
  c0.3-0.1,0.7-0.1,1.2-0.3l1.9-0.5c-0.5-0.1-1-0.3-1.4-0.4c-0.4-0.1-0.8-0.4-1.2-0.7c-0.5-0.4-1-0.9-1.4-1.3l-1.1-1
  c-0.1-0.1-0.7-0.6-0.8-0.7l0,0c0.1,0.1,0.6,1.1,0.6,1.1c0,0.1,0.1,0.1,0.1,0.2L8.8,25l0.1,0.3c0.2,0.3,0.4,0.6,0.7,0.8
  c0.5,0.4,1.1,0.7,1.8,0.9l0,0l-0.9-0.1l-0.7-0.1l-0.6-0.1c-0.2,0-0.5,0-0.8-0.1S8,26.6,7.8,26.5l-0.6-0.1H7c-0.4,0-0.7-0.1-1.1-0.2
  c-0.3-0.1-0.7-0.2-1-0.4c-0.4-0.2-0.7-0.5-1-0.8l0,0c0.2,0.3,0.4,0.6,0.6,0.8c0.3,0.3,0.6,0.6,0.9,0.9c0.4,0.3,0.8,0.5,1.2,0.7
  c0.5,0.2,1.1,0.4,1.6,0.4h0.4L8.6,28z M2.1,14.8L2.1,14.8c0.1-0.2,0.1-0.5,0.2-0.7c0.1-0.2,0.2-0.5,0.3-0.7c0.2-0.3,0.4-0.7,0.7-1
  l1.1-1.6c0.3-0.5,0.5-1,0.7-1.5c0.2-0.6,0.3-1,0.3-1.2l0,0c0,0.1-0.1,0.2-0.2,0.4L4.9,8.8L4.4,9.3L3.7,9.9c-0.5,0.4-0.8,0.9-1.1,1.4
  c-0.2,0.4-0.3,0.9-0.4,1.4l0,0c0-0.2,0-0.4,0-0.6s0-0.5,0-0.8s0-0.9-0.1-1.5S2,8.5,2,7.6C2,7.3,2.1,7,2.2,6.8
  c0.1-0.2,0.2-0.5,0.3-0.7h0C1.9,6.7,1.5,7.4,1.2,8.2c-0.2,0.6-0.3,1.3-0.3,2c0,0.8,0.1,1.5,0.4,2.2C1.6,13.2,1.9,14,2.1,14.8
  L2.1,14.8z M6.4,25.7l1.8,0.4l0.9,0.2c-0.3-0.4-0.6-0.8-0.9-1.2c-0.2-0.4-0.4-0.7-0.6-1.1c-0.2-0.5-0.4-1.1-0.7-1.8
  c-0.1-0.2-0.2-0.5-0.3-0.7c-0.1-0.2-0.2-0.4-0.3-0.6s-0.3-0.5-0.5-0.7s-0.4-0.6-0.7-1l0,0c0.1,0.3,0.2,0.8,0.4,1.5S5.8,22,6,22.7
  c0.1,0.5,0.3,0.9,0.6,1.3c0.3,0.5,0.7,0.9,1.1,1.3l0,0c-0.4-0.2-0.7-0.4-1-0.7c-0.5-0.4-1-0.7-1.5-1c-0.9-0.4-1.7-0.9-2.5-1.4
  c-0.6-0.4-1.1-0.9-1.4-1.6l0,0c0.2,0.7,0.4,1.3,0.8,1.9c0.3,0.5,0.7,1,1.2,1.5c0.5,0.4,1,0.8,1.6,1C5.3,25.3,5.9,25.5,6.4,25.7
  L6.4,25.7z M2.5,21.4l3.1,2.1c-0.1-0.3-0.2-0.5-0.3-0.8c-0.1-0.3-0.2-0.6-0.3-0.8c-0.1-0.3-0.1-0.6-0.1-1s-0.1-0.8-0.1-1.4
  c-0.1-0.9-0.2-1.6-0.3-2.1c-0.1-0.6-0.2-1.1-0.4-1.7l0,0c0,0.4,0,0.8-0.1,1.2c0,0.3-0.1,0.6-0.2,0.9c-0.1,0.3-0.1,0.5-0.2,0.8
  c-0.1,0.3-0.1,0.5-0.1,0.8c0,0.4,0.1,0.8,0.3,1.2c0.1,0.4,0.3,0.8,0.5,1.2l0,0c-0.4-0.7-0.9-1.3-1.5-1.8l-1.3-1.3
  c-0.4-0.4-0.7-0.8-1-1.2c-0.3-0.4-0.5-0.9-0.5-1.5C0,16,0,16.2,0,16.3c0,0.1,0,0.3,0,0.4c0,0.5,0.1,1,0.2,1.5
  c0.2,0.5,0.4,0.9,0.6,1.4c0.2,0.4,0.5,0.8,0.8,1.1C1.9,20.9,2.2,21.1,2.5,21.4L2.5,21.4z M28,3.2l1,1.2c0.3,0.4,0.6,0.8,1,1.2
  c0.4,0.4,0.9,0.8,1.4,1.2c-0.2-0.9-0.5-1.7-1-2.4c-0.3-0.5-0.7-0.9-1.2-1.2c-0.4-0.2-0.8-0.4-1.2-0.5c-0.3-0.1-0.7-0.3-1-0.5l0,0
  C27.4,2.4,27.8,2.7,28,3.2L28,3.2z M30.8,25.9c-0.3,0.2-0.6,0.3-1,0.4c-0.3,0.1-0.7,0.2-1,0.2h-0.3l-0.6,0.1c-0.2,0-0.4,0.1-0.6,0.1
  s-0.5,0-0.8,0.1s-0.4,0-0.6,0.1l-0.7,0.1L24.3,27l0,0c0.6-0.2,1.2-0.5,1.8-0.9c0.3-0.2,0.5-0.5,0.7-0.8L27,25
  c0.1-0.2,0.3-0.5,0.4-0.8c0-0.1,0.1-0.1,0.1-0.2c0,0,0.5-1,0.6-1.1L28,22.9c-0.1,0.2-0.7,0.6-0.8,0.8c-0.4,0.3-0.8,0.7-1.1,1
  s-1,0.9-1.4,1.3c-0.3,0.3-0.7,0.6-1.2,0.7c-0.4,0.1-0.9,0.3-1.4,0.4l2,0.5c0.5,0.1,0.9,0.2,1.2,0.3l0.8,0.1c0.2,0,0.4,0,0.6,0h0.5
  l0.4,0c0.6-0.1,1.1-0.2,1.6-0.4c0.4-0.2,0.9-0.4,1.2-0.7c0.6-0.4,1.1-1,1.5-1.6h0C31.5,25.4,31.1,25.6,30.8,25.9L30.8,25.9z
   M33.1,22.3c-0.8,0.5-1.6,1-2.5,1.4c-0.5,0.3-1.1,0.6-1.5,1c-0.3,0.3-0.6,0.5-1,0.7l0,0c0.4-0.4,0.8-0.8,1.1-1.2
  c0.3-0.4,0.5-0.8,0.6-1.3c0.1-0.6,0.3-1.3,0.4-2s0.3-1.2,0.4-1.5l0,0c-0.3,0.4-0.5,0.7-0.7,1c-0.2,0.3-0.3,0.5-0.5,0.7
  s-0.2,0.4-0.3,0.6c-0.1,0.2-0.2,0.4-0.3,0.7c-0.3,0.8-0.6,1.4-0.7,1.8c-0.1,0.4-0.3,0.8-0.5,1.2c-0.3,0.4-0.6,0.8-0.9,1.2l0.9-0.2
  l1.8-0.4c0.6-0.2,1.2-0.4,1.7-0.8c0.6-0.3,1.1-0.6,1.6-1c0.5-0.4,0.9-0.9,1.2-1.5c0.4-0.6,0.6-1.2,0.8-1.9l0,0
  C34.3,21.3,33.8,21.9,33.1,22.3L33.1,22.3z M34.4,14.3c-0.2,0.5-0.4,1-0.6,1.6c-0.2,0.6-0.4,1.2-0.5,1.8l0,0c0-0.2,0.1-0.3,0.1-0.5
  c0.1-0.2,0.1-0.5,0.1-0.7c0-0.5-0.1-1-0.2-1.4c-0.2-0.4-0.4-0.8-0.6-1.2L32,12.6c-0.2-0.3-0.3-0.7-0.4-1.1h-0.1c0,0.6,0,1.2,0.1,1.7
  c0.1,0.6,0.3,1.3,0.5,1.9c0.2,0.6,0.3,1.2,0.5,1.7c0.1,0.3,0.2,0.7,0.2,1.1v0.6c0,0.2,0,0.4,0,0.7l0,0c0.3-0.5,0.6-1,1-1.5
  c0.4-0.4,0.7-0.8,1-1.2c0.3-0.4,0.5-0.9,0.7-1.4c0.2-0.7,0.3-1.3,0.2-2c0-0.5-0.1-0.9-0.2-1.3c-0.1-0.4-0.2-0.7-0.3-1.1h0
  c0,0.2,0,0.4,0,0.6c0,0.2,0,0.4,0,0.7c0,0.3-0.1,0.7-0.2,1C34.8,13.4,34.6,13.8,34.4,14.3L34.4,14.3z M33.1,11.4
  c-0.3-0.5-0.6-1-1.1-1.4l-0.7-0.7C31.1,9.2,31,9,30.9,8.9c-0.1-0.1-0.2-0.2-0.3-0.3c-0.1-0.1-0.1-0.2-0.2-0.4l0,0
  c0,0.2,0.2,0.7,0.3,1.2c0.1,0.5,0.4,1,0.7,1.5l1.1,1.6c0.2,0.3,0.5,0.7,0.7,1c0.1,0.2,0.2,0.5,0.3,0.7c0.1,0.2,0.1,0.4,0.1,0.7h0.1
  c0.2-0.8,0.4-1.7,0.7-2.5c0.3-0.7,0.4-1.4,0.4-2.2c0-0.7-0.1-1.4-0.3-2c-0.3-0.8-0.7-1.5-1.2-2.1l0,0c0.1,0.2,0.2,0.5,0.3,0.7
  c0.1,0.2,0.2,0.5,0.2,0.8c0,0.9,0,1.6-0.1,2.2s-0.1,1.1-0.1,1.5s0,0.6,0,0.8s0,0.4,0,0.6l0,0C33.5,12.2,33.3,11.8,33.1,11.4
  L33.1,11.4z M31.3,4.6c0.2,0.3,0.3,0.7,0.4,1L32,7c0.1,0.5,0.3,1.1,0.6,1.9l0,0c-0.2-0.5-0.6-0.9-1-1.3c-0.3-0.3-0.7-0.6-1-0.8
  c-0.3-0.2-0.7-0.5-1-0.7c-0.3-0.3-0.6-0.6-0.7-1l0,0l0.4,1.2c0.1,0.2,0.2,0.5,0.3,0.7c0.1,0.2,0.2,0.4,0.4,0.5
  c0.1,0.1,0.3,0.3,0.5,0.5c0.6,0.5,1.2,1,1.6,1.3c0.4,0.4,0.8,0.8,1.1,1.3v-3c0-0.8-0.2-1.7-0.7-2.3c-0.4-0.7-1.1-1.1-1.9-1.3l0,0
  C30.8,4,31.1,4.3,31.3,4.6L31.3,4.6z M26.4,28.8c-0.2,0-0.5,0-0.7-0.1L25,28.6l0,0l-0.8-0.3L23,27.9l-1.8-0.6
  c-0.4-0.1-0.8-0.2-1.2-0.2c-0.4,0-0.8,0.1-1.2,0.1l-0.9,0.2L17,27.2c-0.4-0.1-0.8-0.1-1.2-0.1c-0.4,0-0.8,0.1-1.2,0.2l-1.8,0.6
  c-0.9,0.3-1.6,0.6-2.1,0.7c-0.4,0.1-0.9,0.2-1.4,0.2c-0.2,0-0.4,0-0.6,0c-0.2,0-0.3-0.1-0.5-0.1c-0.2-0.1-0.4-0.1-0.6-0.2l-0.8-0.4
  v0c0.5,0.4,0.9,0.8,1.5,1.1c0.7,0.4,1.5,0.7,2.3,0.7c0.3,0,0.6,0,0.9-0.1c0.3,0,0.5-0.1,0.8-0.2c0.3-0.1,0.6-0.2,0.9-0.4
  s0.7-0.4,1.1-0.7s0.9-0.5,1.2-0.7c0.3-0.2,0.7-0.3,1.1-0.3c0.2,0,0.3,0,0.5,0.1c-0.6,0.3-1.2,0.7-1.9,1.1c-0.8,0.5-1.5,1.1-2.1,1.7
  l0.7,0.6c0.6-0.7,1.3-1.4,2-2c0.6-0.5,1.2-0.9,1.9-1.2c0.7,0.3,1.4,0.7,2,1.2c0.8,0.6,1.5,1.3,2.1,2l0.7-0.6
  c-0.6-0.7-1.3-1.3-2.1-1.7c-0.7-0.4-1.4-0.8-1.9-1.1c0.2-0.1,0.4-0.1,0.5-0.1c0.4,0,0.8,0.1,1.1,0.3c0.3,0.2,0.7,0.4,1.2,0.7
  l1.1,0.6c0.3,0.2,0.6,0.3,0.9,0.4c0.3,0.1,0.5,0.2,0.8,0.2c0.3,0.1,0.5,0.1,0.8,0.1h0.2c0.6,0,1.2-0.2,1.8-0.5
  c0.7-0.3,1.4-0.8,1.9-1.4l0,0c-0.5,0.2-0.9,0.4-1.4,0.6C27.1,28.8,26.8,28.8,26.4,28.8z M35.7,16.6c0,0,0-0.1,0-0.1
  c0-0.1,0-0.1,0-0.2c0-0.1,0-0.3-0.1-0.4c-0.1,0.5-0.2,1-0.5,1.5c-0.3,0.4-0.6,0.8-1,1.2L34,18.6l-1.2,1.3c-0.5,0.6-1,1.2-1.4,1.8
  l0,0c0.2-0.4,0.4-0.8,0.5-1.2c0.1-0.4,0.2-0.8,0.2-1.2c0-0.3,0-0.5-0.1-0.8c0-0.2-0.1-0.5-0.1-0.8s-0.1-0.6-0.1-0.9
  c0-0.4-0.1-0.8-0.1-1.2l0,0l0,0l0,0l0,0c-0.2,0.5-0.4,1.1-0.5,1.6c-0.1,0.5-0.2,1.2-0.3,2.1c0,0.5-0.1,1-0.1,1.4s-0.1,0.7-0.1,1
  c0,0.3-0.1,0.6-0.2,0.8c-0.1,0.2-0.2,0.5-0.3,0.7l-0.1,0.1l0,0l1-0.7l2.1-1.4c0.3-0.2,0.6-0.5,0.8-0.7c0.3-0.3,0.6-0.7,0.8-1.1
  c0.1-0.3,0.3-0.5,0.4-0.8c0.1-0.2,0.1-0.4,0.2-0.5C35.7,17.7,35.8,17.2,35.7,16.6L35.7,16.6L35.7,16.6z M23.5,4.3
  c0.1,0,0.2,0.1,0.2,0.1c0,0.1,0.1,0.1,0.1,0.2c0,0.1,0.1,0.1,0.1,0.1c0.1,0,0.1,0,0.1-0.1s0-0.1,0-0.1s0,0,0-0.1
  c0-0.1-0.1-0.2-0.1-0.2c-0.1-0.1-0.2-0.1-0.4-0.1c0,0-0.1,0-0.1,0l0,0C23.5,4.1,23.4,4.1,23.5,4.3C23.4,4.2,23.5,4.3,23.5,4.3
  L23.5,4.3z M19,3.3L19,3.3c0.2-0.1,0.4-0.1,0.6-0.1h0.6c0.1,0,0.2,0,0.2-0.1c0-0.1,0.1-0.1,0.1-0.2c-0.1-0.2-0.3-0.3-0.5-0.3
  c-0.1,0-0.3,0-0.4,0c-0.2,0-0.3,0.1-0.5,0.2c-0.2,0.1-0.3,0.1-0.5,0.2c-0.1,0-0.2,0-0.3,0.1l0.2,0.2C18.8,3.3,18.9,3.3,19,3.3
  L19,3.3z M17.8,26.3c7,0,12.7-5.7,12.7-12.7c0-7-5.7-12.7-12.7-12.7c-7,0-12.7,5.7-12.7,12.7v0C5.1,20.6,10.8,26.3,17.8,26.3
  C17.8,26.3,17.8,26.3,17.8,26.3z M5.8,13.9h1.9c0,0.8,0.2,1.7,0.4,2.5c-0.1,0-0.1,0-0.2-0.1l-0.1-0.1L7.7,16l-0.3,0.1
  c0,0.2-0.1,0.3-0.2,0.2c0-0.1-0.1-0.1-0.2-0.1c-0.2,0-0.4,0.1-0.4,0.4c0,0,0,0,0,0l0,0c0,0.2-0.1,0.3-0.1,0.5l0.3,0.8
  c0.1,0.1,0.1,0.1,0.3,0c0.1,0.1,0.2,0.2,0.2,0.3c0.1,0.1,0.1,0.1,0.2,0.1c0.1,0,0.1,0,0.1-0.1c0,0,0,0,0,0l0,0l0.2,0.2
  c0.1,0.1,0.1,0.1,0.2,0.2l0,0c0.1,0.1,0.2,0.2,0.4,0.1c0,0.2,0.1,0.3,0.2,0.5c0.1,0.1,0.2,0.2,0.3,0.2c0.1,0,0.1,0,0.2-0.1
  c0,0.2,0.1,0.3,0.2,0.4l0.2,0.1l0.2,0.1h0.1c0,0.1,0.1,0.2,0.2,0.3c0.1,0.1,0.2,0.1,0.2,0.2l0,0l0.1,0.1l-1.3,1.3
  C7,19.7,5.8,16.9,5.8,13.9L5.8,13.9z M15,10.4l-0.1-0.1l-0.1-0.1c0.7-0.6,1.7-1,2.7-1.1v1.3h-0.1l0,0l0,0c0,0-0.1,0-0.1,0h-0.2
  c0,0-0.1,0-0.1,0h0c0-0.1-0.1-0.1-0.1-0.2l0,0c-0.1,0-0.2,0.1-0.2,0.2s0,0.2-0.1,0.3c0,0.1-0.1,0.2-0.2,0.2c-0.1,0-0.2,0.1-0.2,0.1
  L16,10.9h-0.2c0,0-0.1-0.1-0.1-0.1c0,0-0.1,0-0.1-0.1l0,0c-0.1,0-0.1,0-0.1,0.1l-0.1-0.1l0,0v-0.1C15.2,10.5,15.1,10.4,15,10.4
  L15,10.4z M14.3,9.7L13,8.4c1.2-1.1,2.8-1.7,4.4-1.8v1.8C16.3,8.5,15.2,8.9,14.3,9.7z M15,15.8c0.1-0.1,0-0.2,0.1-0.3L15,15.7
  c0.1-0.1,0.2-0.2,0.2-0.3c0-0.1,0.1-0.2,0.1-0.2l0,0l0.1,0.3l-1.2,1.2c-0.5-0.5-0.8-1.2-1-1.9c0.1,0,0.2,0,0.3,0.1
  c0.1,0.1,0.2,0.1,0.3,0.2c0.1,0,0.1,0,0.2,0l0.2,0.1c0,0.1,0,0.1,0,0.2c0,0,0,0.1,0.1,0.1c0.1,0,0.1,0.1,0.2,0.1h0.1
  c0-0.1,0-0.1,0-0.2c0-0.1,0-0.1,0-0.1l0.1,0.3l0.1,0.3l0,0c0.1,0,0.2,0,0.2,0L15,15.8z M17.6,17.1c0.1,0.1,0.1,0.1,0.1,0.1
  s-0.1,0.1-0.3,0.1c-0.1,0-0.1,0.1-0.2,0.2c0,0.1,0,0.3-0.1,0.4H17l0,0c-0.8-0.2-1.6-0.5-2.2-1.1l1.1-1.1c0.4,0.4,1,0.7,1.6,0.7
  c0,0.1,0,0.1,0,0.2c-0.1,0.1-0.1,0.1-0.1,0.2C17.5,17,17.5,17.1,17.6,17.1L17.6,17.1z M12,17.2c0-0.2,0-0.5-0.1-0.7
  c0-0.1-0.1-0.3-0.1-0.4c0-0.2-0.1-0.4-0.1-0.6c-0.1-0.2-0.2-0.4-0.4-0.5v-0.2c0-0.1,0-0.2-0.1-0.2l0,0c0,0,0-0.1,0.1-0.1l0.4-0.1
  c0-0.1,0-0.3,0-0.4l0.3,0.1c0.1,0,0.1-0.1,0.1-0.2c0-0.1,0-0.2-0.1-0.3c0-0.1-0.1-0.2-0.1-0.3c0-0.1,0-0.1,0.1-0.1
  c0.1,0,0.2-0.1,0.2-0.1c0.1,0,0.2,0,0.3,0.1c0.1,0.1,0.1,0.2,0.1,0.3c0,0.1,0,0.2,0,0.2c0,0.1,0,0.1,0,0.2h0.1
  c-0.1,0.3-0.2,0.4-0.3,0.4c-0.1,0-0.2,0-0.2-0.1c0-0.1-0.1-0.1-0.1-0.1l0,0l0,0c0,0.1,0,0.1,0,0.2c0,0.1,0,0.1,0,0.2
  c0,0.2-0.1,0.3-0.3,0.2s0,0.2,0.2,0.2c0.1,0.2,0.1,0.2,0.2,0.2c0-0.1,0.1-0.2,0.1-0.3c0-0.1,0.1-0.2,0.1-0.3l0,0h0.2c0,0,0,0,0,0.1
  l0,0c0.2,0.9,0.7,1.8,1.3,2.5l-1.8,1.8C12,18.7,12,18.6,12,18.5c0-0.2,0.2-0.3,0.2-0.5v-0.3C12.1,17.6,12,17.4,12,17.2L12,17.2z
   M11,14.6c0,0.1,0,0.1,0,0.2c0,0.1,0,0.1-0.1,0.1l0,0c-0.1-0.3-0.1-0.7-0.1-1h0.4c0,0.1,0,0.1,0,0.2c0,0.1-0.1,0.1-0.1,0.2
  c0,0-0.1,0.1-0.1,0.2C11,14.4,11,14.5,11,14.6L11,14.6z M10.8,13.3c0.1-1.6,0.7-3.2,1.8-4.4l1.3,1.3l0,0l-0.2,0.1l-0.2,0.2
  c-0.1,0.1-0.3,0.1-0.4,0.2c-0.1,0.1-0.2,0.2-0.3,0.3l-0.3,0.1c-0.1,0-0.1,0.1-0.1,0.1c0.1,0.1,0.1,0.2,0,0.2l-0.4,0.1
  c0,0-0.1,0-0.1,0l-0.1,0.1c0,0,0,0.1,0,0.1c0,0,0,0.1,0,0.1c-0.1,0.1-0.2,0.1-0.2,0.2c-0.1,0.1-0.1,0.3,0,0.4l0.1,0.4l0,0
  c0,0,0,0.1,0,0.1L10.8,13.3z M14.4,17.5c0.6,0.6,1.4,1,2.2,1.2c-0.1,0-0.1,0-0.2,0.1c-0.1,0-0.2,0.1-0.2,0.3c0,0.1-0.1,0.2-0.2,0.3
  c-0.1,0-0.1,0.1-0.1,0.2c0.1,0.1,0.2,0.3,0.3,0.5c0.1,0.2,0.2,0.3,0.4,0.4l0.2,0.1c0.1,0,0.2,0,0.2,0.1h0.2
  c-1.6-0.1-3.1-0.7-4.2-1.8L14.4,17.5z M12.6,8l-1.3-1.3c1.7-1.6,3.9-2.5,6.1-2.5V6C15.7,6.1,13.9,6.8,12.6,8z M12.2,8.4
  c-1.2,1.3-1.9,3.1-2,4.9H8.3c0.1-2.3,1-4.5,2.6-6.1L12.2,8.4z M10.2,13.9c0,0.3,0,0.6,0.1,0.9l-0.1-0.1c-0.1-0.1-0.2-0.2-0.2-0.2
  c-0.1,0-0.1,0-0.2,0.1c0,0.1-0.1,0.1-0.1,0.2C9.5,15,9.3,15,9.2,15.1c-0.1,0.1-0.2,0.3-0.3,0.5c0,0.1,0,0.1,0,0.2
  c0,0.1,0,0.1-0.1,0.2s0.1,0.2,0,0.2s0,0.1,0,0.1c0,0-0.1,0-0.1,0l-0.1,0.1c-0.2-0.8-0.3-1.5-0.4-2.3L10.2,13.9z M17.5,25.6
  c-3-0.1-5.8-1.2-8-3.3l1.4-1.4c1.8,1.7,4.1,2.7,6.6,2.7L17.5,25.6z M17.5,23.1c-2.3-0.1-4.4-1-6.1-2.5c0.1,0.1,0.2,0.1,0.4,0.1
  c0.1,0,0.2,0,0.3-0.1c0.1-0.1,0.3-0.1,0.4-0.2c0.1,0,0.3,0,0.4-0.1c0.1,0,0.2,0,0.3,0c0.1,0,0.2-0.1,0.1-0.2c0-0.1-0.1-0.2-0.1-0.2
  C13,19.8,13,19.7,13,19.7c0-0.1,0-0.1-0.1-0.1c-0.1-0.1-0.2-0.2-0.3-0.3l0,0c1.3,1.2,3.1,1.9,4.9,2V23.1z M17.8,18.4L17.8,18.4
  c-0.1,0-0.3,0-0.4-0.1c0,0,0-0.1,0-0.1l0.2-0.1c0.1-0.1,0.2-0.1,0.3-0.1v-0.1l0.3-0.2h0.1c0.1,0,0.2-0.1,0.2-0.1
  c0.1,0,0.2,0.1,0.3,0.1c0.1,0.1,0.2,0.1,0.3,0.1v-0.2c0.1,0,0.1,0.1,0.2,0.2c0.1,0,0.2,0,0.2-0.1c0-0.1,0-0.1,0-0.2c0,0,0.1,0,0.1,0
  c0,0,0,0,0.1,0h0.1l0,0c0.1,0,0.2-0.1,0.2-0.1l0.2-0.1c0,0,0,0,0.1,0c0,0,0,0,0,0l0,0c0,0.1,0,0.1,0,0.2c0,0.2-0.1,0.4-0.4,0.5
  c-0.2,0.1-0.4,0.2-0.6,0.2c0,0.1-0.1,0.1-0.1,0.2c0,0.1-0.1,0.1-0.1,0.1c-0.2,0-0.4,0-0.5-0.1c-0.1-0.1-0.1-0.2-0.1-0.2
  c-0.1,0-0.2,0-0.3,0L17.8,18.4C17.9,18.3,17.8,18.3,17.8,18.4L17.8,18.4z M19.6,17c0-0.1,0.1-0.2,0.2-0.3c0.1,0,0.2-0.1,0.3-0.1
  c0,0.1-0.1,0.2-0.2,0.2C19.9,17,19.8,17,19.6,17L19.6,17z M20.9,16c0.1,0.1,0.2,0.2,0.2,0.3c0,0.1,0,0.2-0.1,0.2h0
  c-0.1,0-0.1-0.1-0.2-0.3c-0.2-0.1-0.3-0.1-0.3-0.3s0-0.2,0-0.2l0.2-0.1c0,0,0.1,0.1,0,0.2L20.9,16L20.9,16z M25,8.8
  C25,8.8,25.1,8.8,25,8.8c0.2,0,0.3,0,0.4,0.1c0.2,0.2,0.4,0.4,0.5,0.6c0,0,0.1,0,0.1,0.1s0.1,0.1,0.1,0.1c0.1,0,0.2,0,0.2-0.1V9.6
  c0.5,1.1,0.8,2.4,0.9,3.6h-1.8l0,0c0-0.2,0-0.3-0.1-0.5c-0.1-0.2-0.1-0.4-0.1-0.6c0-0.1,0-0.2,0-0.4c-0.1,0-0.1,0-0.2,0
  C25.1,11.8,25,11.9,25,12l-0.1,0.2l0,0c0,0,0,0.1,0,0.1c0,0,0,0.1,0,0.1c0,0.1,0,0.2-0.1,0.3c0,0.1,0,0.2,0,0.3l0,0c0,0,0,0.1,0,0.1
  h-0.9c0.1-0.1,0.1-0.1,0.2-0.1l0,0l0.2-0.1c-0.1,0-0.1-0.1-0.1-0.1c0-0.1,0-0.1,0-0.1c0.1,0,0.2-0.1,0.2-0.1
  c0.1-0.1,0.2-0.3,0.2-0.4c0.2-0.3,0.3-0.5,0.3-0.8c0-0.1-0.1-0.1-0.1-0.2c0,0,0-0.1,0-0.1c0-0.3,0.1-0.8-0.2-0.9c0,0,0,0,0-0.1
  c0.1-0.1,0.1-0.2,0.1-0.3h-0.3c0-0.1,0-0.1,0.1-0.1c0-0.1,0.1-0.1,0.1-0.2c0-0.1,0-0.1-0.1-0.1c0,0,0,0,0,0l0,0c-0.1,0-0.1,0-0.2,0
  c0,0-0.1,0-0.1,0h-0.1l-0.1,0c0-0.2-0.1-0.3-0.2-0.4c-0.1-0.1-0.2-0.2-0.3-0.2l0,0c0-0.1,0-0.1,0-0.2L23.9,8l0.5,0.2
  c0,0.1,0,0.2,0.1,0.3c0.1,0,0.1,0.1,0.2,0.1l0.2,0.1l0,0C24.9,8.8,25,8.8,25,8.8z M23.3,21.1c0,0-0.1,0-0.1,0c0,0-0.1,0-0.1-0.1
  s0-0.1,0.1-0.2c0.1-0.1,0.2-0.2,0.2-0.3c0.1-0.1,0.1-0.2,0.1-0.2c0,0,0-0.1-0.1-0.1c-0.1,0-0.1-0.1-0.1-0.1L23.1,20l-0.2-0.1
  c-0.1,0-0.1-0.1-0.1-0.2c0-0.1,0-0.1,0.1-0.2c0,0,0-0.1,0-0.1l0.1-0.1l1,1c0,0.1,0.1,0.2,0.2,0.2l0.1,0.1c-0.3,0.3-0.7,0.6-1.1,0.9
  c0,0,0-0.1,0.1-0.1h0C23.3,21.3,23.3,21.2,23.3,21.1L23.3,21.1z M22.7,16.5c-0.1,0-0.2,0-0.2,0c-0.1,0-0.2,0.1-0.3,0.2l0,0l0,0
  c-0.1,0-0.1,0-0.2,0l-0.2,0.1c-0.1,0-0.1,0-0.1-0.1s0.1-0.1,0.4-0.2c0.1-0.1,0.1-0.2,0.2-0.2c0.1,0,0.1-0.1,0.2-0.1
  c0.1-0.1,0.2-0.2,0.3-0.3c0.1-0.1,0.1-0.2,0.2-0.3l0,0c0,0.1,0.1,0.2,0.2,0.2s0.2-0.1,0.2-0.3c0.1,0,0.2,0.1,0.4,0.1
  c0.1,0,0.2,0,0.3-0.1h0.5l0,0l0,0l0,0c-0.3,0.9-0.8,1.8-1.4,2.5c0,0,0-0.1,0-0.1c0-0.1-0.1-0.3-0.2-0.4c0,0-0.1,0.1-0.2,0.3
  s-0.1,0.3-0.2,0.4l-0.4,0.1c-0.1,0-0.3,0-0.4,0c-0.1,0-0.2-0.1-0.4-0.1c-0.1-0.1-0.2-0.1-0.4-0.1C21,18,20.8,18,20.7,18
  c-0.2,0-0.2-0.1-0.2-0.1s0-0.1,0.2-0.1c0.1,0,0.2,0,0.3,0.1l0.5,0.1L22,18c0.1,0,0.2,0,0.2,0.1l0.3-0.1c0-0.1,0-0.2,0.1-0.2
  c0.1-0.1,0.1-0.2,0.1-0.2c0.1-0.1,0.1-0.3,0.1-0.5c0-0.2,0.1-0.3,0.1-0.5c0-0.1,0-0.2-0.1-0.2L22.7,16.5z M23.8,13.9h1
  c0,0.4-0.1,0.8-0.2,1.2c-0.1-0.1-0.1-0.3-0.2-0.4l-0.4-0.3L24,14.1c0,0,0-0.1-0.1-0.1C23.9,14,23.8,14,23.8,13.9L23.8,13.9z
   M24.2,19.1c-0.1,0-0.1,0-0.1,0.1c0,0.1,0,0.2,0,0.3l-0.6-0.6c0.9-0.9,1.5-2.1,1.8-3.3l0,0c0.1,0,0.2,0,0.3,0c0,0,0.1-0.1,0.1-0.1
  c0-0.1-0.1-0.2-0.2-0.3h-0.1c0.1-0.4,0.1-0.7,0.1-1.1h1.8c-0.1,2.3-1,4.5-2.5,6.1L24.6,20l0,0c0-0.2,0-0.4-0.1-0.6
  C24.5,19.2,24.4,19.1,24.2,19.1L24.2,19.1z M23.8,9.9L23.8,9.9c0,0.1,0,0.1,0,0.2l-0.1,0.2c0.1,0.1,0.2,0.2,0.3,0.3
  c0.1,0.1,0.3,0.2,0.4,0.3c0.1,0.2,0.1,0.3,0.2,0.5c0,0.1,0.1,0.3,0.1,0.4c0,0.1-0.1,0.2-0.1,0.3c-0.1,0.2-0.3,0.3-0.4,0.3l0,0
  c0-0.1,0-0.2,0.1-0.2c0-0.1,0.1-0.2,0.1-0.2c0.1,0,0.2-0.1,0.2-0.2l-0.1-0.1c-0.1-0.1-0.1-0.1-0.2-0.2c0-0.1-0.1-0.1-0.2-0.1
  c-0.1,0-0.1,0-0.2,0.1l-0.2,0.1l-0.1-0.2c0-0.1,0-0.1,0-0.2L23,10.6c-0.1-0.1-0.3-0.1-0.5-0.1c-0.1,0-0.2,0-0.3,0
  c-0.1,0-0.2,0-0.3,0c-0.1,0-0.2,0-0.3,0.1c-0.1,0.1-0.2,0.2-0.3,0.3c0,0.1,0,0.1-0.1,0.1c0,0-0.1-0.1-0.1-0.1l2-1.9l0,0.1
  c0.1,0.1,0.1,0.1,0.2,0.2l0.2,0.2C23.5,9.5,23.7,9.7,23.8,9.9L23.8,9.9z M19.2,22.6c0.2,0.1,0.3,0.2,0.5,0.3
  c-0.5,0.1-1.1,0.2-1.6,0.2v-1.8l0,0c0.1,0.1,0.2,0.2,0.3,0.3c0.1,0,0.3,0.1,0.4,0.1c0.2,0,0.3,0,0.3,0.1c0,0.1,0,0.1-0.1,0.2
  c0,0.1-0.1,0.1-0.1,0.2C18.9,22.3,19,22.5,19.2,22.6z M18.1,25.6v-1.9c0.7,0,1.4-0.1,2.1-0.3l0,0l0,0c0.2,0.1,0.3,0.2,0.4,0.4
  c0,0.1,0.2,0.2,0.5,0.2c0.1,0,0.2,0,0.3-0.1l0.1-0.2c0.1-0.1,0.1-0.1,0.2-0.1c0.1,0,0.1-0.1,0.2-0.1c0.1,0,0.2-0.1,0.3-0.2
  c0.1-0.1,0.2-0.2,0.2-0.3c0.1,0,0.1,0,0.2-0.1c0.1-0.1,0.1-0.3,0.2-0.4l0.1,0c0,0,0,0,0-0.1c0.7-0.3,1.3-0.7,1.9-1.2l1.4,1.4
  C23.9,24.4,21.1,25.6,18.1,25.6L18.1,25.6z M26.5,21.8l-1.4-1.3c1.7-1.8,2.7-4.1,2.7-6.6h1.9C29.7,16.9,28.6,19.7,26.5,21.8
  L26.5,21.8z M29.8,13.2h-1.9c-0.1-2-0.7-4-1.9-5.6c0-0.1-0.1-0.1-0.1-0.2c0,0-0.1-0.1-0.1-0.1c-0.2-0.2-0.3-0.4-0.5-0.6
  c0,0,0-0.1,0-0.1l1.3-1.3C28.6,7.5,29.7,10.3,29.8,13.2L29.8,13.2z M18.1,1.6c3,0.1,5.8,1.2,8,3.3L24.9,6c0-0.1-0.1-0.1-0.1-0.2
  c0-0.1-0.1-0.1-0.2-0.1c-0.1,0-0.2-0.2-0.2-0.3c0-0.1,0-0.2-0.1-0.3c-0.2-0.1-0.3-0.2-0.4-0.4c-0.1-0.2-0.2-0.3-0.3-0.3
  c-0.1,0-0.2,0-0.3,0c-0.1,0-0.2-0.1-0.3-0.1c-0.1,0-0.2,0-0.3,0c-0.1,0-0.2,0.1-0.3,0.1l0,0c-1.3-0.6-2.7-1-4.1-1
  c0.1-0.2,0.1-0.3,0-0.3s-0.1,0-0.2,0.1L18.1,1.6z M18.1,4.1c1.4,0,2.7,0.4,3.9,1l0,0l0.2,0.2l0.1,0.2c0,0.1,0.1,0.2,0.1,0.4
  c0,0.1,0.1,0.1,0.1,0.2c0,0.1,0,0.2,0.1,0.3c0.1,0.1,0.1,0.2,0.2,0.4H23c0.1,0,0.1,0,0.2,0c0.1,0,0.1,0,0.2,0.1
  c0.1,0.1,0.1,0.2,0.1,0.2c0,0,0,0.1,0,0.1l-0.5,0.5l0,0c0-0.2-0.1-0.5-0.2-0.7C22.8,7,22.6,7,22.5,7c0,0-0.1-0.2-0.3-0.4
  c-0.1-0.1-0.1-0.2-0.2-0.3c0,0-0.1,0-0.1,0c0,0.1,0,0.1,0.1,0.2l0.2,0.3c0,0,0,0.1-0.1,0.1l0,0c0,0.1,0.1,0.2,0.2,0.2v0.1l0.1,0.2
  C21.1,6.5,19.6,6,18.1,6V4.1z M18.1,6.6c1.6,0.1,3.2,0.7,4.4,1.8l-1.3,1.3c-0.9-0.8-2-1.2-3.1-1.3V6.6z M18.1,9.1
  c0.9,0.1,1.8,0.4,2.5,1h-0.1c0,0,0,0-0.1,0.1c0,0,0,0.1,0,0.1c0,0.1,0.1,0.1,0.2,0.1l-0.5,0.5l0,0L19.9,11c-0.1,0.1-0.2,0.1-0.2,0.2
  c0,0,0,0.1,0,0.1l-0.2,0.2h-0.1c-0.1,0-0.1-0.1-0.3-0.2s-0.2-0.2-0.3-0.2c-0.1,0-0.1,0-0.2,0.1c0,0-0.1,0-0.1,0
  c-0.1-0.1,0-0.1,0.2-0.2l0.4-0.1c0.2-0.2,0.3-0.4,0.3-0.7c0-0.1-0.1-0.2-0.2-0.2L19.1,10c-0.1,0.1-0.2,0.1-0.3,0.2l-0.2,0.2
  c-0.1,0-0.2,0-0.3,0h-0.3V9.1z M17.7,12C17.7,12,17.7,12.1,17.7,12c0.1,0.1,0.2,0.1,0.3,0.1c0.1,0,0.1,0,0.2,0c0,0,0,0.1,0,0.1
  c0,0.1,0.1,0.1,0.2,0.1v0.1c0,0,0,0,0,0.1c0,0.1,0,0.1,0.1,0.1l0,0l0,0c0,0,0.1,0,0.1,0c0,0,0.1,0,0.1,0c0,0,0,0.1,0,0.1l0,0
  c0,0,0,0.1,0,0.1c0,0.1,0,0.1,0,0.2V13l0,0c-0.1,0.1-0.1,0.2-0.1,0.2c0,0.1,0,0.1,0.1,0.1c0.1,0,0.1,0,0.2,0.1
  c0.1,0.1,0.1,0.2,0.1,0.2V14c0,0.1,0,0.1,0.1,0.1c0,0,0.1,0.1,0.1,0.1c0,0.1,0,0.2,0,0.3c0,0.1-0.1,0.2-0.1,0.3c-0.1,0-0.1,0-0.2,0
  c-0.1,0-0.2,0-0.3-0.1c-0.1,0-0.1,0.1-0.2,0.2s-0.1,0.3-0.1,0.4S18,15.6,18,15.6h-0.2l0,0l-0.1,0.2v0.1c-0.5,0-0.9-0.2-1.3-0.6
  l0.2-0.2c0.1,0,0.3-0.1,0.4-0.1h0.1c0.2-0.1,0.2-0.3,0.3-0.5s0.3-0.3,0.1-0.4c0.2-0.3-0.7-0.3-0.8-0.3s-0.1,0.3-0.2,0.4
  s-0.1,0.1-0.2,0.1c-0.1,0.1-0.3,0.3-0.3,0.4l0,0c-0.1-0.1-0.1-0.2-0.1-0.3l0,0c0,0,0-0.1,0-0.1l0,0l0,0c0.1,0,0.2,0,0.2,0l0.1-0.2
  c0.1-0.2,0.1-0.3,0.2-0.5c-0.1,0-0.1-0.1-0.1-0.1c0-0.1,0-0.1-0.1,0c-0.1,0-0.1,0.1-0.1,0.1c0,0.1,0,0.1-0.1,0.2
  c0,0-0.1,0.1-0.2,0.1c0-0.1,0-0.1-0.1-0.1c0,0,0,0,0,0l0,0c-0.1,0-0.1,0-0.2,0.1h-0.4c-0.1,0-0.3,0-0.4,0c-0.1-0.1,0-0.1,0.2-0.2
  c0-0.2,0.1-0.4,0.2-0.5c0.1,0,0.2,0.1,0.3,0.1l0.1-0.1l0,0c0.1,0,0.1,0.1,0.1,0.2s0.1,0.2,0.1,0.2c0.1,0,0.1,0,0.2-0.1v-0.2
  c0.1-0.2,0.1-0.4,0.1-0.5v-0.1c0-0.1,0.1-0.1,0.1-0.2h0c0.1,0,0.1-0.1,0.2-0.1c0-0.1,0.1-0.2,0.1-0.3L17,12c0.2-0.1,0.3-0.2,0.3-0.3
  l0,0h0.3C17.6,11.9,17.6,12,17.7,12z M17.5,1.6v1.9c-2.5,0.1-4.8,1.1-6.6,2.7L9.5,4.9C11.7,2.8,14.5,1.6,17.5,1.6L17.5,1.6z
   M9.1,5.3l1.4,1.4c-1.7,1.8-2.7,4.1-2.7,6.6H5.8C5.8,10.3,7,7.5,9.1,5.3z"/>
<path id="Path_468" class="st2" d="M48.7,31.6V0.3"/>
</svg>
