<?xml version="1.0" encoding="utf-8"?>
<!-- Generator: Adobe Illustrator 26.0.1, SVG Export Plug-In . SVG Version: 6.00 Build 0)  -->
<svg version="1.1" id="Layer_1" xmlns="http://www.w3.org/2000/svg" xmlns:xlink="http://www.w3.org/1999/xlink" x="0px" y="0px"
	 viewBox="0 0 240 28" style="enable-background:new 0 0 240 28;" xml:space="preserve">
<style type="text/css">
	.st0{fill:#1B344A;}
	.st1{fill:#5090CD;}
	.st2{fill:none;stroke:#B7B6B6;stroke-width:0.42;}
</style>
<g>
	<path class="st0" d="M59.2,1c1.1-0.1,2.1,0.3,2.9,0.9c0.8,0.7,1.1,1.6,1.1,2.5S62.9,6.3,62.1,7c-0.8,0.7-1.9,1-2.9,1h-1.8v2.4
		l1.2,0.3V12H54v-1.3l1.2-0.3V2.5L54,2.3V1H59.2z M57.4,6.3h1.8c0.5,0,1-0.2,1.4-0.5c0.3-0.3,0.5-0.8,0.5-1.3c0-0.5-0.2-0.9-0.5-1.3
		s-0.8-0.6-1.4-0.5h-1.8V6.3z"/>
	<path class="st0" d="M62,10.6l0.8-0.1L66.2,1h2.3l3.3,9.5l0.8,0.1v1.3h-3.7v-1.3l0.8-0.2L69,9h-3.5L65,10.5l0.8,0.2V12H62V10.6z
		 M66,7.4h2.5l-1.3-3.9l0,0L66,7.4z"/>
	<path class="st0" d="M84.4,1v1.3l-1.2,0.3v9.4H81l-4.4-7.4l0,0v5.8l1.2,0.3v1.3h-4.5v-1.3l1.2-0.3V2.5l-1.2-0.3V1h3.4L81,8.4l0,0
		V2.5l-1.2-0.3V1H84.4L84.4,1z"/>
	<path class="st0" d="M95,6.5c0.1,1.4-0.4,2.9-1.3,3.9c-0.9,1-2.3,1.6-3.6,1.6c-1.3,0.1-2.7-0.5-3.6-1.6C85.5,9.4,85,8,85.1,6.5V6.4
		c-0.1-1.4,0.4-2.9,1.3-3.9c0.9-1,2.2-1.6,3.5-1.6c1.3-0.1,2.7,0.5,3.6,1.6c0.9,1.1,1.4,2.5,1.3,3.9L95,6.5L95,6.5z M92.9,6.4
		c0.1-1-0.2-1.9-0.7-2.8c-0.4-0.7-1.3-1.1-2.1-1.1s-1.6,0.3-2,1c-0.5,0.8-0.8,1.8-0.7,2.8v0.2c-0.1,1,0.2,1.9,0.7,2.8
		c0.4,0.7,1.3,1.1,2,1c0.8,0.1,1.6-0.3,2.1-1C92.7,8.4,93,7.4,92.9,6.4L92.9,6.4z"/>
	<path class="st0" d="M100.8,1c1-0.1,2.1,0.3,2.9,0.8c0.8,0.6,1.1,1.4,1.1,2.3c0,0.5-0.2,1-0.4,1.4c-0.3,0.4-0.8,0.8-1.3,1
		c0.6,0.2,1.1,0.5,1.4,0.9c0.3,0.5,0.4,1.1,0.4,1.7v0.6c0,0.2,0,0.4,0.2,0.6c0.1,0.2,0.3,0.3,0.5,0.3h0.3V12h-1.1
		c-0.6,0.1-1.1-0.2-1.5-0.6c-0.3-0.4-0.4-0.9-0.4-1.5V9.3c0-0.4-0.1-0.9-0.4-1.3c-0.3-0.3-0.8-0.5-1.2-0.5h-1.8v2.9l1.2,0.3V12H96
		v-1.3l1.2-0.3V2.5l-1.3-0.3V1H100.8z M99.3,5.8h1.5c0.5,0,1-0.1,1.3-0.4c0.3-0.3,0.5-0.7,0.5-1.1c0-0.4-0.2-0.8-0.5-1.2
		c-0.3-0.3-0.8-0.5-1.3-0.4h-1.6L99.3,5.8L99.3,5.8z"/>
	<path class="st0" d="M106.4,10.6l0.8-0.1l3.4-9.5h2.3l3.3,9.5l0.8,0.1v1.3h-3.7v-1.3l0.8-0.2l-0.5-1.5h-3.5l-0.5,1.5l0.8,0.2v1.3
		h-3.7L106.4,10.6z M110.3,7.4h2.5l-1.3-3.9l0,0L110.3,7.4z"/>
	<path class="st0" d="M128,3.9L128,3.9l-2.9,8h-1.5l-2.9-8l0,0l0.2,4.8v1.8l1.2,0.3V12h-4.5v-1.3l1.2-0.3V2.5l-1.2-0.3V1h4l2.8,8
		h0.1l2.9-8h4v1.3l-1.2,0.3v7.8l1.2,0.3v1.3h-4.5v-1.3l1.2-0.3V8.6L128,3.9z"/>
	<path class="st0" d="M131.9,10.6l0.8-0.1L136,1h2.3l3.3,9.5l0.8,0.1v1.3h-3.7v-1.3l0.8-0.2l-0.5-1.5h-3.5l-0.5,1.5l0.8,0.2v1.3
		h-3.7L131.9,10.6z M135.8,7.4h2.5l-1.3-3.9H137L135.8,7.4z"/>
	<path class="st0" d="M54,17.7v-1.3h4.5v1.3l-1.2,0.3v3.2h4.4v-3.2l-1.2-0.3v-1.3h4.5v1.3L64,17.9v7.8l1.2,0.3v1.3h-4.5V26l1.2-0.3
		v-3h-4.4v3l1.2,0.3v1.3H54V26l1.2-0.2v-7.9L54,17.7z"/>
	<path class="st0" d="M70.4,16.3v1.3l-1.2,0.3v5.7c-0.1,0.6,0.2,1.2,0.6,1.6c0.4,0.3,1,0.6,1.6,0.5c0.6,0,1.2-0.2,1.6-0.5
		c0.4-0.4,0.6-1,0.6-1.6v-5.7l-1.2-0.3v-1.3H77v1.3l-1.2,0.3v5.7c0.1,1.1-0.4,2.1-1.2,2.9c-1.9,1.3-4.4,1.3-6.4,0
		c-0.8-0.7-1.3-1.8-1.2-2.9v-5.7l-1.2-0.3v-1.3C65.9,16.3,70.4,16.3,70.4,16.3z"/>
	<path class="st0" d="M88.1,19.2L88.1,19.2l-2.9,8h-1.5l-2.9-8l0,0l0.2,4.8v1.8l1.2,0.3v1.3h-4.5V26l1.3-0.3v-7.9l-1.2-0.3v-1.3h4
		l2.8,8l0,0l2.8-8h4v1.3l-1.2,0.3v7.9l1.2,0.3v1.3h-4.5V26l1.2-0.3v-1.7L88.1,19.2z"/>
	<path class="st0" d="M92,25.9l0.8-0.1l3.4-9.5h2.3l3.3,9.5l0.8,0.1v1.3h-3.7v-1.3l0.8-0.2l-0.5-1.5h-3.5l-0.5,1.5l0.8,0.2v1.3H92
		C92,27.2,92,25.9,92,25.9z M95.9,22.7h2.5l-1.3-3.9l0,0L95.9,22.7z"/>
	<path class="st0" d="M114.3,16.3v1.3l-1.2,0.3v9.4h-2.2l-4.4-7.5l0,0v5.9l1.2,0.3v1.3h-4.5V26l1.2-0.3v-7.9l-1.2-0.3v-1.3h3.4
		l4.4,7.4h0.1v-5.8l-1.2-0.3v-1.3L114.3,16.3L114.3,16.3z"/>
	<path class="st0" d="M115,17.7v-1.3h4.5v1.3l-1.2,0.3v7.8l1.2,0.3v1.3H115V26l1.2-0.2v-7.9L115,17.7z"/>
	<path class="st0" d="M130,16.3v2.9h-1.7l-0.1-1.3h-2v7.7l1.2,0.3v1.3h-4.5V26l1.2-0.3V18h-2l-0.1,1.3h-1.7v-2.9H130z"/>
	<path class="st0" d="M129.2,25.9l0.8-0.1l3.4-9.5h2.3l3.3,9.5l0.8,0.1v1.3h-3.7v-1.3l0.8-0.2l-0.5-1.5h-3.5l-0.5,1.5l0.8,0.2v1.3
		h-3.7L129.2,25.9z M133.2,22.7h2.5l-1.3-3.9h-0.1L133.2,22.7z"/>
	<path class="st0" d="M145.2,16.3c1-0.1,2.1,0.3,2.9,0.8c0.7,0.6,1.1,1.4,1.1,2.3c0,0.5-0.2,1-0.4,1.4c-0.3,0.4-0.8,0.8-1.3,1
		c0.6,0.2,1.1,0.5,1.4,0.9c0.3,0.5,0.4,1.1,0.4,1.7v0.6c0,0.2,0,0.4,0.2,0.6c0.1,0.2,0.3,0.3,0.5,0.3h0.3v1.3h-1.2
		c-0.6,0.1-1.1-0.2-1.5-0.6c-0.3-0.4-0.4-0.9-0.4-1.5v-0.6c0-0.4-0.1-0.9-0.4-1.3c-0.3-0.3-0.8-0.5-1.2-0.5h-1.8v2.9L145,26v1.3
		h-4.5V26l1.2-0.3v-7.9l-1.2-0.3v-1.3L145.2,16.3L145.2,16.3z M143.6,21.1h1.5c0.5,0,1-0.1,1.3-0.4c0.3-0.3,0.5-0.7,0.5-1.1
		c0-0.4-0.2-0.8-0.4-1.2c-0.3-0.3-0.8-0.5-1.3-0.4h-1.6L143.6,21.1L143.6,21.1z"/>
	<path class="st0" d="M150.8,17.7v-1.3h4.5v1.3l-1.2,0.3v7.8l1.2,0.3v1.3h-4.5V26l1.2-0.3v-7.9L150.8,17.7z"/>
	<path class="st0" d="M166.2,21.9c0.1,1.4-0.4,2.9-1.3,3.9c-1.8,2-4.9,2.1-6.9,0.3c-0.1-0.1-0.2-0.2-0.3-0.3
		c-0.9-1.1-1.4-2.5-1.3-3.9v-0.2c-0.1-1.4,0.4-2.9,1.3-3.9c0.9-1,2.2-1.6,3.6-1.6c1.3-0.1,2.7,0.5,3.6,1.6c0.9,1.1,1.4,2.5,1.3,3.9
		L166.2,21.9z M164,21.7c0.1-1-0.2-1.9-0.7-2.8c-0.4-0.7-1.3-1.1-2.1-1.1c-0.8-0.1-1.6,0.3-2.1,1c-0.5,0.8-0.8,1.8-0.7,2.8v0.2
		c-0.1,1,0.2,1.9,0.7,2.8c0.4,0.7,1.3,1.1,2.1,1.1c0.8,0.1,1.6-0.3,2.1-1.1C163.8,23.7,164.1,22.8,164,21.7L164,21.7z"/>
	<path class="st0" d="M155.6,10.8c-0.4,0.4-1,0.8-1.6,0.9c-0.8,0.3-1.7,0.4-2.6,0.4c-1.3,0.1-2.7-0.5-3.6-1.5
		c-0.9-1.1-1.4-2.4-1.4-3.9V6.5c-0.1-1.4,0.4-2.9,1.3-4c0.9-1,2.2-1.6,3.6-1.5c0.8,0,1.6,0.2,2.3,0.4c0.7,0.3,1.3,0.6,1.8,1.1v2.2
		h-1.6l-0.3-1.4c-0.3-0.2-0.5-0.3-0.8-0.4c-0.3-0.1-0.8-0.2-1.2-0.2c-0.8,0-1.7,0.3-2.3,1.1c-0.6,0.8-0.8,1.8-0.8,2.8V7
		c-0.1,0.9,0.3,1.8,0.8,2.7c0.5,0.7,1.3,1.1,2.3,1c0.3,0,0.8,0,1.1-0.1c0.3-0.1,0.4-0.2,0.7-0.3v-2l-1.6-0.1V6.6h3.8L155.6,10.8z"/>
	<path class="st0" d="M156.7,12.1v-1.3l1.2-0.3V2.7l-1.2-0.3V1.2h4.5v1.3l-1.2,0.3v7.7h3.1l0.1-1.4h1.7v3L156.7,12.1z"/>
	<path class="st0" d="M175.5,6.7c0.1,1.4-0.4,2.9-1.3,3.9c-1.8,2-4.9,2.1-6.9,0.3c-0.1-0.1-0.2-0.2-0.3-0.3
		c-0.9-1.1-1.4-2.5-1.3-3.9V6.5c-0.1-1.4,0.4-2.9,1.3-3.9c0.9-1,2.2-1.6,3.6-1.6c1.3-0.1,2.7,0.5,3.6,1.6s1.4,2.5,1.3,3.9L175.5,6.7
		z M173.3,6.5c0.1-1-0.2-1.9-0.7-2.8c-0.4-0.7-1.3-1.1-2.1-1.1c-0.8-0.1-1.6,0.3-2.1,1.1c-0.5,0.8-0.8,1.8-0.7,2.8v0.2
		c-0.1,1,0.2,1.9,0.7,2.8c0.8,1.2,2.4,1.4,3.6,0.6c0.3-0.2,0.4-0.3,0.6-0.6c0.5-0.8,0.8-1.8,0.7-2.8V6.5z"/>
	<path class="st0" d="M181.2,1.2c1.1-0.1,2.1,0.2,3,0.8c0.8,0.5,1.1,1.3,1.1,2.3c0,0.5-0.2,0.9-0.4,1.3c-0.3,0.4-0.7,0.8-1.2,0.9
		c0.6,0.1,1.2,0.4,1.5,0.9c0.3,0.5,0.5,1,0.5,1.6c0.1,0.9-0.3,1.8-1,2.3c-0.8,0.6-1.8,0.9-2.9,0.8h-5.4v-1.3l1.2-0.3V2.7l-1.2-0.3
		V1.2H181.2L181.2,1.2z M179.8,5.7h1.6c0.5,0,0.9-0.1,1.3-0.3c0.3-0.3,0.5-0.7,0.5-1c0-0.4-0.2-0.8-0.5-1.1
		c-0.4-0.3-0.9-0.4-1.4-0.3h-1.5V5.7z M179.8,7.2v3.2h2c0.5,0,0.9-0.1,1.3-0.3c0.3-0.3,0.5-0.7,0.5-1.1c0-0.4-0.1-0.9-0.4-1.3
		c-0.3-0.3-0.8-0.4-1.2-0.4L179.8,7.2L179.8,7.2z"/>
	<path class="st0" d="M186.4,10.7l0.8-0.1l3.4-9.5h2.3l3.3,9.5l0.8,0.1v1.3h-3.7v-1.3l0.8-0.2l-0.5-1.5h-3.5l-0.5,1.5l0.8,0.2v1.3
		h-3.7L186.4,10.7L186.4,10.7z M190.4,7.5h2.5l-1.3-3.9h-0.1L190.4,7.5z"/>
	<path class="st0" d="M197.5,12.1v-1.3l1.2-0.3V2.7l-1.2-0.3V1.2h4.5v1.3l-1.2,0.3v7.7h3.1l0.1-1.3h1.7v3L197.5,12.1L197.5,12.1z"/>
	<path class="st1" d="M170.2,27.2v-1l3.6-3.9c0.5-0.5,0.9-1.1,1.3-1.7c0.3-0.4,0.3-0.8,0.3-1.3c0-0.5-0.2-1-0.5-1.3
		c-0.3-0.3-0.8-0.6-1.3-0.6c-0.6-0.1-1.3,0.2-1.7,0.6c-0.3,0.4-0.6,1-0.5,1.7h-1.4v-0.1c0-0.9,0.3-1.8,1-2.4c0.8-0.7,1.7-1,2.7-0.9
		c0.8-0.1,1.7,0.3,2.3,0.8c0.6,0.6,0.8,1.3,0.8,2.2c0,0.7-0.2,1.3-0.5,1.8c-0.4,0.7-0.9,1.3-1.5,1.9l-2.9,3.1l0,0h3.9l0.1-1.3h1.3
		v2.4L170.2,27.2z"/>
	<path class="st1" d="M185.8,23.1c0.1,1.2-0.3,2.3-0.9,3.2c-1.3,1.4-3.5,1.5-4.9,0.2c-0.1-0.1-0.2-0.2-0.2-0.2
		c-0.7-0.9-1-2.1-0.9-3.2v-2.6c-0.1-1.2,0.3-2.3,0.9-3.2c0.6-0.8,1.5-1.2,2.5-1.1c1,0,1.9,0.4,2.5,1.1c0.7,0.9,1,2.1,0.9,3.2V23.1z
		 M184.4,20.2c0.1-0.8-0.1-1.5-0.5-2.1c-0.3-0.5-0.9-0.8-1.5-0.8s-1.2,0.3-1.5,0.8c-0.4,0.7-0.6,1.4-0.5,2.1v3.2
		c-0.1,0.8,0.2,1.5,0.5,2.1c0.3,0.5,0.9,0.8,1.5,0.8s1.2-0.3,1.5-0.8c0.4-0.7,0.6-1.4,0.5-2.1V20.2z"/>
	<path class="st1" d="M187.5,27.2v-1l3.6-3.9c0.5-0.5,0.9-1.1,1.3-1.7c0.3-0.4,0.3-0.8,0.3-1.3c0-0.5-0.2-1-0.5-1.3
		s-0.8-0.6-1.3-0.6c-0.6-0.1-1.3,0.2-1.7,0.6c-0.3,0.4-0.6,1-0.5,1.7h-1.4v-0.1c-0.1-0.9,0.3-1.8,0.9-2.3c0.8-0.7,1.7-1,2.7-0.9
		c0.8-0.1,1.7,0.3,2.3,0.8c0.6,0.6,0.8,1.3,0.8,2.2c0,0.7-0.2,1.3-0.5,1.8c-0.4,0.7-0.9,1.3-1.5,1.9l-2.9,3.1l0,0h3.9l0.1-1.3h1.3
		v2.4L187.5,27.2z"/>
	<path class="st1" d="M196.3,27.2v-1l3.6-3.9c0.5-0.5,0.9-1.1,1.3-1.7c0.3-0.4,0.3-0.8,0.3-1.3c0-0.5-0.2-1-0.5-1.3
		c-0.3-0.3-0.8-0.6-1.3-0.6c-0.6-0.1-1.3,0.2-1.7,0.6c-0.3,0.4-0.6,1-0.5,1.7h-1.4v-0.1c-0.1-0.9,0.3-1.8,0.9-2.3
		c0.8-0.7,1.7-1,2.7-0.9c0.8-0.1,1.7,0.3,2.3,0.8c0.6,0.6,0.8,1.3,0.8,2.2c0,0.7-0.2,1.3-0.5,1.8c-0.4,0.7-0.9,1.3-1.5,1.9l-2.9,3.1
		l0,0h3.9l0.1-1.3h1.3v2.4L196.3,27.2z"/>
	<path id="Path_469" class="st1" d="M3.2,7.6C3.6,7.3,4,7,4.5,6.5C4.8,6.4,4.9,6.2,5,6C5.1,6,5.3,5.8,5.3,5.6
		c0.1-0.2,0.2-0.4,0.3-0.7l0.4-1H5.9C5.7,4.3,5.5,4.6,5.2,4.9C4.9,5.1,4.6,5.3,4.4,5.5C4.1,5.7,3.8,6,3.5,6.2
		C3.2,6.5,2.9,6.9,2.7,7.4l0,0c0.3-0.7,0.4-1.2,0.5-1.6l0.3-1.2C3.5,4.4,3.6,4,3.8,3.8c0.2-0.3,0.4-0.5,0.7-0.7l0,0
		C3.8,3.3,3.2,3.7,2.9,4.2c-0.4,0.6-0.7,1.3-0.6,2v2.5C2.4,8.3,2.8,8,3.2,7.6z M4.9,4.6c0.3-0.3,0.7-0.7,0.9-1.1l0.8-1
		C6.8,2.2,7,1.9,7.4,1.7l0,0C7.1,1.8,6.9,2,6.5,2.1s-0.7,0.3-1,0.4c-0.4,0.3-0.8,0.6-1,1C4.1,4.2,3.8,4.9,3.6,5.6
		C4.1,5.4,4.5,4.9,4.9,4.6L4.9,4.6z M0.8,14c0.3,0.3,0.5,0.8,0.8,1.1c0.3,0.4,0.6,0.8,0.8,1.3l0,0c0-0.2,0-0.4,0-0.6v-0.5
		c0-0.3,0.1-0.7,0.2-0.9c0.2-0.4,0.3-0.9,0.4-1.5c0.2-0.6,0.3-1.1,0.4-1.7c0.1-0.5,0.2-1,0.1-1.5l0,0c-0.1,0.4-0.3,0.7-0.4,1
		C3,11,2.9,11.2,2.6,11.6c-0.2,0.3-0.3,0.7-0.5,1c-0.2,0.4-0.3,0.8-0.3,1.2c0,0.2,0,0.4,0.1,0.6c0,0.2,0.1,0.3,0.1,0.4l0,0
		c-0.1-0.5-0.3-1-0.4-1.5c-0.2-0.5-0.3-0.9-0.5-1.3c-0.2-0.4-0.3-0.8-0.4-1.1c-0.1-0.3-0.2-0.6-0.2-0.8c0-0.2,0-0.4,0-0.6
		s0-0.3,0-0.5l0,0C0.4,9.2,0.3,9.5,0.3,9.8c-0.2,0.4-0.2,0.8-0.3,1.3c0,0.6,0.1,1.2,0.3,1.8C0.4,13.2,0.6,13.7,0.8,14z M7.4,23.7
		h0.4c0.2,0,0.3,0,0.5,0L9,23.6c0.3,0,0.6-0.1,1-0.3l1.7-0.4c-0.5-0.1-0.8-0.3-1.2-0.3c-0.4-0.2-0.8-0.3-1-0.6
		c-0.4-0.3-0.8-0.8-1.3-1.1l-1-0.8c-0.1-0.1-0.6-0.5-0.7-0.7l0,0c0.1,0.1,0.5,1,0.5,1c0,0.1,0.1,0.1,0.1,0.2
		c0.1,0.3,0.3,0.4,0.3,0.7c0.1,0.1,0.1,0.2,0.2,0.3C7.8,21.8,8,22,8.2,22.2c0.4,0.3,0.9,0.6,1.5,0.8l0,0L9,22.9H8.4
		c-0.2,0-0.3,0-0.5-0.1c-0.3,0-0.4,0-0.7-0.1c-0.3-0.1-0.3-0.2-0.5-0.2l-0.5-0.1H6c-0.3,0-0.6-0.1-0.9-0.2c-0.3-0.1-0.6-0.2-0.8-0.3
		c-0.3-0.2-0.6-0.4-0.8-0.7l0,0c0.2,0.3,0.3,0.5,0.5,0.7c0.3,0.3,0.5,0.5,0.8,0.8c0.3,0.3,0.7,0.5,1.1,0.6c0.4,0.2,0.9,0.3,1.4,0.3
		L7.4,23.7L7.4,23.7z M1.8,12.5L1.8,12.5c0.1-0.2,0.1-0.4,0.2-0.6c0.1-0.3,0.2-0.4,0.3-0.6c0.2-0.3,0.3-0.6,0.6-0.8l0.9-1.3
		c0.3-0.4,0.4-0.8,0.6-1.3c0.2-0.5,0.3-0.8,0.3-1l0,0C4.5,7,4.4,7,4.4,7.2c0,0-0.1,0.1-0.2,0.2C4,7.5,3.9,7.6,3.8,7.7L3.2,8.3
		C2.8,8.6,2.5,9.1,2.3,9.5C2.1,9.9,2,10.2,1.9,10.6l0,0c0-0.2,0-0.3,0-0.6c0-0.3,0-0.4,0-0.7s0-0.8-0.1-1.3C1.8,7.6,1.8,7,1.8,6.3
		c0-0.3,0-0.5,0.1-0.7C1.9,5.4,2,5.2,2.1,5l0,0C1.7,5.5,1.3,6.1,1,6.8C0.8,7.4,0.8,8,0.8,8.5c0,0.7,0.2,1.3,0.3,1.9
		C1.4,11.1,1.6,11.7,1.8,12.5z M5.5,21.8L7,22.1l0.8,0.2c-0.3-0.3-0.6-0.7-0.8-1c-0.2-0.3-0.3-0.6-0.5-1c-0.2-0.4-0.3-0.9-0.6-1.6
		c-0.1-0.2-0.2-0.3-0.3-0.5s-0.2-0.3-0.3-0.5S5.2,17.3,5,17c-0.2-0.3-0.3-0.5-0.6-0.8l0,0c0.1,0.3,0.2,0.7,0.3,1.3l0.3,1.8
		c0.1,0.4,0.3,0.8,0.5,1.2c0.3,0.4,0.6,0.8,1,1.1l0,0c-0.3-0.2-0.6-0.3-0.8-0.6c-0.4-0.3-0.8-0.6-1.3-0.8c-0.8-0.3-1.4-0.8-2.2-1.2
		c-0.5-0.3-0.9-0.8-1.2-1.4l0,0c0.3,1.1,0.8,2.1,1.8,2.9c0.4,0.3,0.8,0.7,1.3,0.9C4.6,21.5,5.1,21.6,5.5,21.8L5.5,21.8z M2.2,18.1
		l2.6,1.8c-0.1-0.3-0.3-0.5-0.3-0.7c-0.1-0.3-0.2-0.5-0.2-0.8s-0.1-0.5-0.1-0.8S4.1,16.9,4,16.4c-0.1-0.8-0.2-1.4-0.3-1.8
		c-0.1-0.5-0.3-0.9-0.4-1.4l0,0c0,0.3,0,0.7-0.1,1.1c0,0.3-0.1,0.5-0.2,0.8C3,15.3,3,15.4,2.9,15.7c-0.1,0.3-0.1,0.5-0.1,0.7
		c0,0.3,0.1,0.7,0.3,1c0.2,0.3,0.3,0.7,0.4,1h0.1c-0.3-0.6-0.8-1.1-1.2-1.6l-1.1-1.1c-0.3-0.3-0.6-0.7-0.8-1
		c-0.3-0.4-0.4-0.8-0.4-1.3C0,13.6,0,13.8,0,14.1c0,0.4,0.1,0.8,0.3,1.3c0.2,0.4,0.3,0.8,0.5,1.2s0.4,0.7,0.7,0.9S1.9,17.9,2.2,18.1
		L2.2,18.1z M24.1,2.5l0.8,1c0.3,0.4,0.5,0.8,0.8,1.1c0.3,0.4,0.8,0.8,1.3,1c-0.2-0.8-0.4-1.4-0.8-2.1c-0.3-0.4-0.7-0.8-1.1-1.1
		c-0.3-0.2-0.7-0.3-1-0.5c-0.3-0.1-0.6-0.3-0.8-0.4l0,0C23.5,1.8,23.7,2.2,24.1,2.5L24.1,2.5z M26.4,22c-0.3,0.2-0.5,0.3-0.8,0.3
		c-0.3,0.1-0.6,0.2-0.9,0.2h-0.3l-0.5,0.1c-0.2,0-0.3,0.1-0.5,0.1s-0.4,0-0.7,0.1l-0.5,0.1l-0.6,0.1L20.9,23l0,0
		c0.6-0.2,1.1-0.4,1.5-0.8c0.3-0.2,0.4-0.4,0.6-0.7c0-0.1,0.1-0.2,0.2-0.3l0.3-0.7l0.1-0.2l0.5-1l0,0c-0.2,0.2-0.6,0.6-0.7,0.7
		c-0.3,0.3-0.7,0.6-1,0.8s-0.8,0.8-1.3,1.1c-0.3,0.3-0.6,0.5-1,0.7c-0.3,0.1-0.8,0.3-1.2,0.3l1.7,0.4c0.4,0.1,0.8,0.2,1,0.3l0.7,0.1
		c0.2,0,0.3,0,0.5,0h0.4h0.3c0.5-0.1,0.9-0.2,1.4-0.3c0.4-0.2,0.8-0.3,1.1-0.6c0.3-0.3,0.5-0.5,0.8-0.8c0.2-0.3,0.3-0.4,0.5-0.7l0,0
		C27.1,21.5,26.8,21.8,26.4,22L26.4,22z M28.4,18.9c-0.7,0.4-1.4,0.8-2.2,1.2c-0.5,0.3-0.9,0.5-1.3,0.8c-0.3,0.3-0.5,0.4-0.8,0.6
		l0,0c0.3-0.3,0.7-0.7,1-1.1c0.3-0.3,0.4-0.8,0.5-1.2l0.4-1.8c0.2-0.6,0.3-1.1,0.3-1.3l0,0l-0.6,0.8l-0.4,0.6
		c-0.1,0.2-0.2,0.3-0.3,0.5c-0.1,0.2-0.2,0.3-0.3,0.6c-0.3,0.7-0.5,1.2-0.6,1.6c-0.1,0.3-0.3,0.7-0.5,1c-0.3,0.3-0.5,0.7-0.8,1
		l0.8-0.2l1.5-0.3c1-0.3,2-0.8,2.8-1.4c0.4-0.3,0.8-0.8,1.1-1.3c0.3-0.5,0.5-1.1,0.7-1.6l0,0C29.4,18.2,29,18.7,28.4,18.9L28.4,18.9
		z M29.5,12c-0.2,0.4-0.3,0.8-0.5,1.3c-0.2,0.5-0.3,1-0.4,1.5l0,0c0-0.2,0.1-0.3,0.1-0.4c0.1-0.2,0.1-0.4,0.1-0.6
		c0-0.4-0.1-0.8-0.3-1.2s-0.3-0.7-0.5-1l-0.6-1c-0.2-0.3-0.3-0.6-0.4-0.9l0,0c-0.1,0.5,0,1,0.1,1.5c0.1,0.6,0.3,1.1,0.4,1.6
		c0.2,0.5,0.3,1,0.4,1.5c0.1,0.3,0.2,0.7,0.2,0.9v0.5c0,0.2,0,0.4,0,0.6l0,0c0.3-0.4,0.5-0.9,0.8-1.3c0.3-0.3,0.6-0.7,0.8-1.1
		c0.3-0.3,0.4-0.8,0.6-1.2c0.2-0.6,0.3-1.2,0.2-1.8c0-0.4-0.1-0.8-0.2-1.2C30.3,9.6,30.2,9.2,30,9l0,0c0,0.2,0,0.3,0,0.5
		c0,0.2,0,0.4,0,0.6c0,0.3-0.1,0.6-0.2,0.8C29.8,11.2,29.7,11.7,29.5,12L29.5,12z M28.4,9.5c-0.3-0.4-0.5-0.8-0.9-1.2l-0.7-0.6
		c-0.2-0.1-0.3-0.3-0.3-0.3c-0.1-0.1-0.2-0.2-0.3-0.3C26.2,7,26.2,7,26.1,6.8l0,0c0,0.3,0.2,0.6,0.3,1c0.1,0.4,0.3,0.8,0.6,1.3
		l1,1.3c0.2,0.3,0.4,0.6,0.6,0.8c0.1,0.2,0.2,0.4,0.3,0.6c0.1,0.2,0.1,0.4,0.1,0.6h0.1c0.2-0.8,0.3-1.4,0.7-2.1
		c0.3-0.6,0.3-1.3,0.3-1.8c0-0.6-0.1-1.2-0.3-1.7c-0.3-0.7-0.8-1.3-1.2-1.8l0,0c0.1,0.2,0.2,0.4,0.3,0.6c0.1,0.3,0.2,0.4,0.2,0.7
		c0,0.8,0,1.4-0.1,1.8s-0.1,0.9-0.1,1.3s0,0.5,0,0.7c0,0.2,0,0.3,0,0.6l0,0C28.7,10.3,28.6,9.9,28.4,9.5L28.4,9.5z M26.8,3.8
		C27,4,27.1,4.4,27.2,4.6c0.1,0.3,0.2,0.7,0.3,1.1c0.1,0.4,0.3,1,0.5,1.6l0,0c-0.3-0.4-0.5-0.8-0.8-1.1c-0.3-0.3-0.6-0.5-0.9-0.8
		c-0.3-0.2-0.6-0.4-0.8-0.7c-0.3-0.3-0.5-0.6-0.7-0.9l0,0l0.3,1c0.2,0.3,0.3,0.6,0.3,0.8C25.4,5.8,25.5,6,25.7,6
		c0.1,0.2,0.3,0.3,0.5,0.4c0.5,0.4,1,0.8,1.4,1.2c0.3,0.3,0.7,0.7,0.9,1.1V6.2c0-0.8-0.2-1.4-0.6-2c-0.5-0.6-1.1-0.9-1.8-1.1l0,0
		C26.4,3.3,26.7,3.5,26.8,3.8z M22.6,24.5c-0.2,0-0.4,0-0.6-0.1c-0.2,0-0.4-0.1-0.7-0.1l0,0l-0.8-0.3c-0.3-0.1-0.6-0.2-1-0.3
		l-1.5-0.5c-0.3-0.1-0.7-0.2-1-0.2c-0.3,0-0.7,0.1-1,0.1l-0.8,0.2c-0.2,0-0.4-0.1-0.8-0.2c-0.3-0.1-0.7-0.1-1-0.1
		c-0.3,0-0.7,0.1-1,0.2l-1.6,0.5c-0.8,0.3-1.3,0.5-1.8,0.6c-0.4,0.1-0.8,0.2-1.2,0.2c-0.2,0-0.3,0-0.5,0c-0.2,0-0.3-0.1-0.4-0.1
		c-0.2-0.1-0.3-0.1-0.5-0.2l-0.7-0.3l0,0c0.3,0.4,0.8,0.8,1.3,1c0.6,0.3,1.3,0.6,2,0.6c0.3,0,0.5,0,0.8-0.1c0.3,0,0.5-0.1,0.7-0.2
		c0.3-0.1,0.5-0.3,0.8-0.3c0.3-0.1,0.6-0.3,1-0.6c0.4-0.3,0.8-0.5,1-0.6c0.3-0.2,0.7-0.3,1-0.3c0.2,0,0.3,0,0.4,0.1
		c-0.5,0.3-1,0.6-1.7,0.9c-0.7,0.4-1.3,0.9-1.8,1.5l0.6,0.5c0.5-0.6,1.1-1.2,1.8-1.7c0.5-0.4,1.1-0.8,1.7-1c0.6,0.3,1.2,0.6,1.7,1
		c0.7,0.5,1.3,1.1,1.8,1.7l0.6-0.5c-0.5-0.6-1.1-1.1-1.8-1.5c-0.7-0.3-1.2-0.7-1.7-0.9c0.2-0.1,0.3-0.1,0.5-0.1
		c0.3,0,0.7,0.1,0.9,0.3s0.6,0.3,1,0.6l0.9,0.6c0.3,0.2,0.5,0.3,0.8,0.3c0.3,0.1,0.4,0.2,0.7,0.2c0.3,0.1,0.5,0.1,0.7,0.1h0.2
		c0.6,0,1.2-0.2,1.7-0.3c0.6-0.3,1.2-0.7,1.6-1.2l0,0c-0.4,0.2-0.8,0.3-1.2,0.5C23.3,24.5,23,24.5,22.6,24.5z M30.6,14.1L30.6,14.1
		c0-0.2,0-0.2,0-0.3s0-0.3-0.1-0.3c-0.1,0.4-0.2,0.8-0.4,1.3c-0.3,0.3-0.5,0.7-0.8,1l-0.1,0.1l-1,1.1c-0.4,0.5-0.8,1-1.2,1.6l0,0
		c0.2-0.3,0.3-0.7,0.4-1c0.1-0.3,0.2-0.7,0.2-1c0-0.3,0-0.5-0.1-0.7c0-0.2-0.1-0.4-0.2-0.7c-0.1-0.3-0.1-0.5-0.2-0.8
		c-0.1-0.3-0.1-0.7-0.1-1.1l0,0l0,0l0,0l0,0c-0.2,0.4-0.3,0.9-0.4,1.4c-0.1,0.4-0.2,1-0.3,1.8c-0.1,0.4-0.1,0.8-0.1,1.2
		c0,0.3-0.1,0.6-0.1,0.9c-0.1,0.3-0.1,0.5-0.2,0.8c-0.1,0.2-0.2,0.4-0.3,0.6L25.7,20l0,0l0.9-0.6l1.8-1.2c0.3-0.2,0.5-0.4,0.7-0.7
		c0.3-0.3,0.5-0.6,0.7-0.9c0.2-0.3,0.3-0.4,0.3-0.7c0.1-0.2,0.2-0.3,0.2-0.5C30.5,14.9,30.6,14.5,30.6,14.1L30.6,14.1L30.6,14.1
		L30.6,14.1z M20.1,3.4c0.1,0,0.2,0.1,0.2,0.1c0,0.1,0.1,0.1,0.1,0.2s0.1,0.1,0.1,0.1c0.1,0,0.1,0,0.1-0.1c0-0.1,0-0.1,0-0.1
		s0,0,0-0.1s0-0.2-0.1-0.2c-0.1-0.1-0.2-0.1-0.3-0.1H20l0,0C20.1,3.3,20.1,3.3,20.1,3.4L20.1,3.4L20.1,3.4z M16.4,2.6L16.4,2.6
		c0.2-0.1,0.3-0.1,0.5-0.1h0.5c0.1,0,0.3,0,0.3-0.1s0.1-0.1,0.1-0.2C17.6,2.1,17.4,2,17.3,2c-0.1,0-0.3,0-0.3,0
		c-0.2,0-0.3,0.1-0.4,0.2c-0.3,0-0.3,0.1-0.5,0.1c-0.1,0-0.2,0-0.3,0.1c0.1,0.1,0.2,0.1,0.2,0.2C16.1,2.6,16.2,2.7,16.4,2.6
		L16.4,2.6z M15.3,22.3c6,0,10.9-4.9,11-10.8c0-6-4.9-10.9-10.8-11S4.4,5.4,4.4,11.4v0.1C4.4,17.5,9.2,22.4,15.3,22.3L15.3,22.3z
		 M4.9,11.7h1.7c0,0.8,0.2,1.4,0.3,2.2c-0.1,0-0.1-0.1-0.1-0.1l-0.1-0.1l-0.2-0.3l-0.3,0.1c0,0.2-0.1,0.3-0.2,0.2
		c0-0.1-0.1-0.1-0.2-0.1c-0.2,0-0.3,0.1-0.3,0.3l0,0c0,0.2-0.1,0.3-0.1,0.4l0.3,0.7c0,0.1,0.1,0.1,0.3,0c0.1,0.1,0.2,0.2,0.2,0.3
		c0.1,0.1,0.1,0.1,0.2,0.1s0.1,0,0.1-0.1l0,0l0.3,0.1c0.1,0.1,0.1,0.1,0.2,0.2l0,0C7,15.7,7,15.7,7.2,15.7c0,0.2,0.1,0.3,0.3,0.4
		c0.1,0.1,0.2,0.2,0.3,0.2s0.1,0,0.2-0.1c0,0.2,0.1,0.3,0.2,0.3l0.2,0.1l0.2,0.1h0c0,0.1,0.1,0.2,0.2,0.3c0.1,0.1,0.2,0.2,0.3,0.2
		l0,0l0.1,0.1l-1.1,1.2C6,16.7,5,14.3,4.9,11.7L4.9,11.7z M12.9,8.6L12.9,8.6l-0.2-0.2c0.7-0.6,1.4-0.9,2.3-0.9v1.2c0,0,0,0-0.1,0
		l0,0l0,0h-0.1h-0.1h-0.1h-0.1l0,0c0-0.1-0.1-0.1-0.1-0.2l0,0c-0.1,0.1-0.2,0.1-0.2,0.2c0,0.1-0.1,0.2-0.1,0.3s-0.1,0.2-0.2,0.2
		s-0.2,0.1-0.3,0.2l-0.1-0.1h-0.2l-0.1-0.1L13.4,9l0,0c0,0-0.1,0-0.1,0.1L13.2,9l0,0V8.9C13.1,8.8,13,8.7,12.9,8.6L12.9,8.6z
		 M12.3,8.1L11.2,7c1-0.9,2.3-1.5,3.8-1.6V7C14,7,13.1,7.5,12.3,8.1z M12.9,13.3c0.1-0.1,0-0.2,0.1-0.3l-0.1,0.1
		c0.1-0.1,0.2-0.2,0.3-0.3c0-0.1,0.1-0.2,0.1-0.2l0,0c0,0.1,0.1,0.2,0.2,0.3l-1.1,1c-0.4-0.5-0.7-1-0.8-1.6c0.1,0,0.2,0,0.3,0.1
		s0.2,0.2,0.3,0.2s0.1,0,0.2-0.1l0.2,0.1c0,0.1,0,0.2,0.1,0.2c0,0,0,0.1,0.1,0.1s0.1,0.1,0.2,0.1h-0.1c0-0.1,0-0.1,0-0.2
		c0-0.1,0-0.1,0-0.1l0.1,0.3l0.1,0.3l0,0C12.8,13.4,12.9,13.4,12.9,13.3L12.9,13.3z M15.1,14.5C15.2,14.6,15.2,14.6,15.1,14.5
		c0.1,0.1,0,0.2-0.2,0.2c-0.2,0-0.1,0.1-0.2,0.2c0,0.1,0,0.3-0.1,0.3h-0.1c-0.7-0.1-1.3-0.4-1.9-0.9l0.9-1c0.3,0.3,0.8,0.6,1.3,0.6
		c0,0.1,0,0.1,0,0.2c-0.1,0.1-0.1,0.1-0.1,0.2C14.9,14.3,14.9,14.4,15.1,14.5L15.1,14.5z M10.3,14.6c0-0.2,0-0.4-0.1-0.6
		c0-0.1-0.1-0.3-0.1-0.3c0-0.2-0.1-0.3-0.1-0.5C10,13,9.8,12.8,9.7,12.7v-0.3c0-0.1-0.1-0.2-0.1-0.2l0,0c0,0,0-0.1,0.1-0.1l0,0
		l0.3-0.2c0-0.1,0-0.3,0.1-0.3l0.3,0.1c0.1,0,0.1-0.1,0.1-0.2c0-0.1,0-0.2-0.1-0.3c0-0.1-0.1-0.2-0.1-0.3s0-0.1,0.1-0.2
		c0.1,0,0.2-0.1,0.3-0.1s0.2,0,0.3,0.1s0.1,0.2,0.1,0.3s0,0.1,0,0.2c0,0.1,0,0.1,0,0.2l0.1,0.1C11,11.9,10.9,12,10.7,12
		c-0.1,0-0.2,0-0.2-0.1s-0.1-0.1-0.1-0.1l0,0l0,0c0,0.1,0,0.1,0,0.2c0,0.1,0,0.1,0,0.2c0,0.2-0.1,0.3-0.3,0.2
		c-0.1,0.1,0,0.2,0.2,0.2c0.1,0.2,0.1,0.2,0.2,0.2c0-0.1,0.1-0.2,0.1-0.3s0-0.2,0.1-0.3h0.1H11c0,0,0,0,0,0.1h-0.1
		c0.2,0.8,0.5,1.5,1,2.2L10.4,16c-0.1-0.1-0.1-0.2-0.1-0.3c0-0.2,0.2-0.3,0.2-0.4v-0.3C10.4,14.8,10.3,14.8,10.3,14.6L10.3,14.6z
		 M9.5,12.3c0,0.1,0,0.1,0,0.2c0,0.1,0,0.1-0.1,0.1l0,0c-0.1-0.3-0.1-0.6-0.1-0.8h0.3c0,0.1,0,0.1,0,0.2S9.6,12,9.6,12.1
		C9.6,12.2,9.5,12.2,9.5,12.3C9.4,12.2,9.5,12.2,9.5,12.3L9.5,12.3z M9.2,11.1c0.1-1.4,0.6-2.8,1.6-3.8l1.1,1.1l0,0
		c-0.1,0-0.2,0.1-0.2,0.1c-0.1,0.1-0.1,0.1-0.2,0.2c-0.1,0.1-0.3,0.1-0.3,0.2C11.2,9,11.1,9.1,11,9.1s-0.2,0.1-0.3,0.1
		s-0.1,0.1-0.2,0.1c0.1,0.1,0.1,0.2,0,0.2l-0.3,0.1c0,0-0.1,0-0.1,0.1l-0.1,0.1L10,9.8v0.1C9.9,10,9.8,10,9.8,10.1
		c0,0.1,0,0.3,0,0.3l0.1,0.3l0,0v0.1L9.2,11.1z M12.2,14.8c0.6,0.5,1.3,0.8,2,1l-0.2,0.1c-0.1,0-0.2,0.1-0.3,0.3
		c0,0.1-0.1,0.3-0.2,0.3s-0.1,0.1-0.1,0.2c0.1,0.1,0.2,0.3,0.3,0.4c0.1,0.2,0.2,0.3,0.3,0.3l0.2,0.1c0.1,0,0.2,0,0.3,0.1h0.2
		c-1.3-0.1-2.7-0.7-3.7-1.6L12.2,14.8z M10.8,6.6L9.7,5.5C11.2,4.2,13,3.4,15,3.4v1.5C13.4,4.9,11.9,5.5,10.8,6.6L10.8,6.6z M10.4,7
		c-1.1,1.2-1.7,2.6-1.8,4.2H7.1C7.2,9.3,8,7.4,9.3,6L10.4,7z M8.7,11.7c0,0.3,0.1,0.5,0.1,0.8l-0.1-0.1c-0.1-0.1-0.2-0.2-0.2-0.2
		c-0.1,0-0.1,0-0.1,0.1s-0.1,0.1-0.1,0.2c-0.1,0.1-0.3,0.2-0.4,0.2c-0.1,0.1-0.2,0.3-0.3,0.4c0,0.1,0,0.1,0,0.2
		c0.1,0.1,0,0.1-0.1,0.2s0.1,0.2,0,0.2s0,0.1,0,0.1H7.5c0,0,0,0.1-0.1,0.1c-0.2-0.7-0.3-1.3-0.3-2L8.7,11.7z M15,21.8
		c-2.5-0.1-4.9-1.1-6.8-2.9l1.2-1.2c1.5,1.4,3.5,2.3,5.6,2.3C15,20.1,15,21.8,15,21.8z M15,19.6c-1.9-0.1-3.8-0.8-5.2-2.2
		c0.1,0.1,0.2,0.1,0.3,0.1c0.1,0,0.2,0,0.3-0.1l0.3-0.2c0.1,0,0.3,0,0.3-0.1c0.1,0,0.2,0,0.3,0c0.1,0,0.2-0.1,0.2-0.2
		c0-0.1-0.1-0.2-0.2-0.2c-0.1-0.1-0.1-0.1-0.1-0.2c0-0.1,0-0.1-0.1-0.1c-0.1-0.1-0.2-0.2-0.3-0.3l0,0c1.2,1.1,2.6,1.7,4.2,1.8
		L15,19.6z M15.3,15.6L15.3,15.6c-0.1,0-0.3,0-0.3-0.1v-0.1l0.2-0.1c0.1-0.1,0.2-0.1,0.3-0.1v-0.1l0.3-0.2h0.1l0.2-0.1
		c0.1,0,0.2,0.1,0.3,0.1c0.1,0.1,0.2,0.1,0.3,0.1v-0.2c0.1,0,0.1,0.1,0.3,0.2c0.1,0,0.2,0,0.2-0.1s0-0.1,0-0.2h0.1h0.1
		c0,0,0,0,0.1,0l0,0c0.1,0,0.2-0.1,0.2-0.1c0.1-0.1,0.1-0.1,0.2-0.1c0,0,0,0,0.1,0l0,0l0,0c0,0.1,0,0.1,0,0.2c0,0.2-0.1,0.3-0.3,0.4
		c-0.2,0.1-0.3,0.2-0.5,0.2c0,0.1-0.1,0.1-0.1,0.2s-0.1,0.1-0.1,0.1c-0.2,0-0.3,0-0.4-0.1c-0.1-0.1-0.1-0.2-0.1-0.3
		c-0.1,0-0.2,0-0.3,0l-0.3,0.1c-0.1,0-0.1,0-0.2,0L15.3,15.6z M16.9,14.3c0-0.1,0.1-0.2,0.2-0.3c0.1,0,0.2-0.1,0.3-0.1
		c0,0.1-0.1,0.2-0.2,0.3C17,14.3,16.9,14.4,16.9,14.3L16.9,14.3z M17.9,13.5c0.1,0.1,0.2,0.2,0.2,0.3s0,0.2-0.1,0.2l0,0
		c-0.1,0-0.2-0.1-0.2-0.3c-0.2,0-0.3-0.1-0.3-0.3c0-0.1,0-0.2,0-0.2l0.2-0.1c0.1,0,0.1,0.1,0,0.2L17.9,13.5z M21.5,7.4L21.5,7.4
		c0.2,0,0.3,0,0.3,0.1C22,7.6,22.1,7.8,22.2,8c0,0,0.1,0,0.1,0.1s0.1,0.1,0.2,0.1c0.1,0,0.2,0,0.3,0c-0.1,0-0.1,0-0.1,0
		c0.4,1,0.7,2,0.8,3.1h-1.6l0,0c0-0.2,0-0.3-0.1-0.4c-0.1-0.2-0.1-0.3-0.1-0.5c0-0.1,0-0.2,0-0.3c-0.1,0-0.1,0-0.2,0
		c0,0.1-0.1,0.1-0.1,0.2s-0.1,0.2-0.1,0.2l0,0v0.1v0.1l-0.1,0.3c0,0.1,0,0.2,0,0.3l0,0v0.1h-0.8c0.1-0.1,0.1-0.1,0.2-0.1l0,0
		l0.2-0.1c-0.1,0-0.1-0.1-0.1-0.1v-0.1l0.3-0.2c0.1-0.1,0.2-0.3,0.2-0.3c0.2-0.3,0.3-0.5,0.3-0.8c0-0.1-0.1-0.1-0.1-0.2
		c0-0.1,0-0.1,0-0.2c0-0.3,0.1-0.7-0.2-0.8c0,0,0,0,0-0.1c0.1-0.1,0.1-0.2,0.1-0.3H21C21,8,21,8,21,8C21,8,21.1,8,21.1,7.9
		c0-0.1,0-0.1-0.1-0.1l0,0l0,0c-0.1,0-0.1,0-0.2,0h-0.1h-0.1l-0.1-0.1c0-0.1-0.1-0.3-0.2-0.3c-0.1-0.1-0.2-0.2-0.3-0.2l0,0
		c0-0.1,0-0.1,0-0.2l0.3-0.3l0.4,0.2c0,0.1,0,0.2,0.1,0.3c0.1,0,0.1,0.1,0.2,0.1c0.1,0,0.1,0.1,0.2,0.2l0,0
		C21.3,7.4,21.4,7.4,21.5,7.4L21.5,7.4z M20,17.9L20,17.9c-0.1,0-0.2,0-0.2-0.1c0-0.1,0-0.1,0.1-0.2c0.1-0.1,0.2-0.2,0.3-0.3
		c0-0.1,0.1-0.2,0.1-0.3c0,0,0-0.1-0.1-0.1c-0.1,0-0.1-0.1-0.1-0.1l-0.2-0.1c-0.1,0-0.2-0.1-0.2-0.1c-0.1,0-0.1-0.1-0.1-0.2
		c0-0.1,0-0.1,0.1-0.2v-0.1l0.1-0.1l0.8,0.8c0,0.1,0.1,0.2,0.2,0.2l0.1,0.1c-0.3,0.3-0.6,0.5-0.9,0.8C20,18,20,17.9,20,17.9L20,17.9
		C20,17.9,20,17.9,20,17.9L20,17.9z M19.5,13.9c-0.1,0-0.2,0-0.3,0S19,14,18.9,14.2l0,0l0,0c-0.1,0-0.1,0-0.2,0l-0.2,0.1
		c-0.1,0-0.1,0-0.1-0.1s0.1-0.1,0.3-0.2l0.2-0.2c0.1,0,0.1-0.1,0.2-0.1c0.1-0.1,0.2-0.2,0.3-0.3c0.1-0.1,0.1-0.2,0.2-0.3l0,0
		c0,0.1,0.1,0.2,0.2,0.2c0.1,0,0.2-0.1,0.2-0.3c0.1,0,0.2,0.1,0.3,0.1c0.1,0,0.3,0,0.3-0.2H21v0.1l0,0c-0.3,0.8-0.7,1.5-1.3,2.2
		v-0.1c0-0.1-0.1-0.3-0.2-0.3c0,0-0.1,0.1-0.2,0.3c0,0.1-0.1,0.3-0.2,0.3l-0.3,0.1c-0.1,0-0.3,0-0.3,0c-0.1,0-0.3-0.1-0.3-0.1
		c-0.1-0.1-0.2-0.1-0.3-0.1c-0.1,0-0.2-0.1-0.3-0.1s-0.2-0.1-0.2-0.1s0.1-0.1,0.2-0.1c0.1,0,0.2,0,0.3,0.1l0.4,0.1l0.4,0.1
		c0.1,0,0.2,0.1,0.3,0.1l0.2-0.1c0-0.1,0-0.2,0.1-0.2c0.1,0,0.1-0.2,0.1-0.2c0.1-0.1,0.1-0.3,0.2-0.4c0-0.2,0.1-0.3,0.1-0.4
		c0-0.1,0-0.2-0.1-0.2L19.5,13.9z M20.4,11.7h0.8c0,0.3-0.1,0.8-0.2,1.1c-0.1-0.1-0.1-0.3-0.2-0.3l-0.3-0.3c0-0.1,0-0.2-0.1-0.3
		c0,0,0-0.1-0.1-0.1C20.5,11.8,20.5,11.7,20.4,11.7L20.4,11.7z M20.8,16.2C20.7,16.2,20.7,16.2,20.8,16.2c-0.1,0.2-0.1,0.3-0.1,0.3
		l-0.6-0.7c0.8-0.8,1.3-1.8,1.5-2.9l0,0c0.1,0,0.2,0,0.3,0l0.1-0.1c0-0.1-0.1-0.2-0.2-0.3l0,0c0.1-0.3,0.1-0.7,0.1-0.9h1.6
		c-0.1,1.9-0.8,3.9-2.2,5.3l-0.1-0.1l0,0c0-0.2-0.1-0.3-0.1-0.5S20.9,16.2,20.8,16.2L20.8,16.2z M20.4,8.3L20.4,8.3
		c0,0.1,0,0.1,0,0.2c0,0.1,0,0.1-0.1,0.2c0.1,0.1,0.2,0.2,0.3,0.3c0.1,0.1,0.3,0.2,0.3,0.3C21,9.3,21,9.4,21,9.6
		c0.1,0.1,0.1,0.3,0.1,0.3c0,0.1-0.1,0.2-0.1,0.3c-0.1,0.2-0.3,0.2-0.3,0.3l0,0c0-0.1,0-0.2,0.1-0.2c0-0.1,0.1-0.2,0.1-0.3
		C21,10,21,9.9,21,9.8L21,9.7c-0.1-0.1-0.1-0.1-0.2-0.2c0-0.1-0.1-0.1-0.3-0.1c-0.1,0-0.2,0-0.2,0.1l-0.2,0.1l-0.1-0.2
		c0-0.1,0-0.1,0-0.2l-0.3-0.5c-0.1-0.1-0.3-0.1-0.4-0.1c-0.1,0-0.2,0-0.3,0c-0.1,0-0.2,0-0.3,0c-0.1,0-0.3,0-0.3,0.1
		c-0.1,0.1-0.2,0.2-0.3,0.3c0,0.1,0,0.1-0.1,0.1l-0.1-0.1l1.7-1.7v0.1c0.1,0.1,0.1,0.1,0.2,0.2l0.2,0.2C20.2,8,20.3,8.1,20.4,8.3
		L20.4,8.3z M16.4,19.1c0.2,0.1,0.3,0.2,0.4,0.3c-0.4,0.1-0.9,0.2-1.3,0.2v-1.6l0,0c0.1,0.1,0.2,0.2,0.3,0.3c0.1,0,0.3,0.1,0.3,0.1
		c0.2,0,0.3,0,0.3,0.1c0,0.1,0,0.1-0.1,0.2c0,0.1-0.1,0.1-0.1,0.2C16.2,18.9,16.3,19,16.4,19.1L16.4,19.1z M15.5,21.7V20
		c0.6,0,1.2-0.1,1.8-0.2l0,0l0,0c0.2,0.1,0.3,0.2,0.3,0.3c0.1,0.1,0.2,0.2,0.4,0.2c0.1,0,0.2,0,0.3-0.1c0.1,0,0.1-0.1,0.2-0.1
		c0.1-0.1,0.1-0.1,0.2-0.1c0.1,0,0.1-0.1,0.2-0.1c0.1,0,0.2-0.1,0.3-0.3c0.1-0.1,0.2-0.2,0.3-0.3c0.1,0,0.1,0,0.2-0.1
		c0.1-0.1,0.1-0.3,0.2-0.3h0.1c0,0,0,0,0-0.1c0.6-0.3,1.1-0.8,1.6-1.2l1.2,1.2C20.5,20.7,18,21.7,15.5,21.7L15.5,21.7z M22.7,18.5
		l-1.2-1.2c1.4-1.5,2.3-3.5,2.3-5.6h1.7C25.5,14.3,24.5,16.7,22.7,18.5L22.7,18.5z M25.6,11.1h-1.7c-0.1-1.8-0.7-3.4-1.7-4.9
		c0-0.1-0.1-0.1-0.1-0.2L22.1,6c-0.2-0.2-0.3-0.3-0.4-0.5V5.4l1.2-1.1C24.5,6.2,25.5,8.6,25.6,11.1z M15.5,1.1
		c2.5,0.1,5,1.1,6.9,2.9l-1,1c0-0.1-0.1-0.1-0.1-0.2c-0.1-0.1-0.1-0.1-0.2-0.1C21,4.7,21,4.6,21,4.5s0-0.2-0.1-0.3
		c-0.2-0.1-0.3-0.2-0.3-0.3c-0.1-0.2-0.2-0.3-0.3-0.3c-0.1,0-0.2,0-0.3,0s-0.2-0.1-0.3-0.1c-0.1,0-0.2,0-0.3,0s-0.2,0.1-0.3,0.1l0,0
		c-1.1-0.6-2.3-0.8-3.5-0.9c0.1-0.2,0.1-0.3,0-0.3s-0.1,0-0.2,0.1V1.1z M15.5,3.4c1.2,0,2.3,0.3,3.4,0.8l0,0L19,4.4l0.1,0.2
		c0,0.1,0.1,0.3,0.1,0.3S19.3,5,19.3,5c0,0.1,0,0.3,0.1,0.3c0.1,0.1,0.2,0.3,0.3,0.3h0.2H20c0.1,0,0.1,0,0.2,0.1
		C20.2,5.9,20.2,6,20.2,6s0,0.1,0,0.2l-0.4,0.3l0,0c-0.1-0.2-0.1-0.4-0.3-0.6c-0.1-0.1-0.2-0.1-0.3-0.1c0,0-0.1-0.2-0.3-0.3
		s-0.3-0.3-0.3-0.3h-0.1l0.1,0.2l0.2,0.3c0,0,0,0.1-0.1,0.1l0,0c0,0.1,0.1,0.2,0.2,0.2V6L19,6.2c-1-0.8-2.3-1.2-3.6-1.3L15.5,3.4z
		 M15.5,5.4c1.4,0.1,2.8,0.7,3.8,1.6l-1.1,1.1C17.4,7.5,16.5,7,15.5,7V5.4z M15.5,7.5c0.8,0.1,1.5,0.3,2.2,0.8v0.1
		c0,0-0.1,0-0.1,0.1v0.1c0,0,0.1,0.1,0.2,0.1l-0.4,0.4l0,0c-0.1,0-0.1,0.1-0.2,0.1C17.1,9.3,17,9.3,17,9.4s0,0.1,0,0.1l-0.3,0.2
		h-0.1c-0.1,0-0.1-0.1-0.3-0.2c-0.1-0.1-0.2-0.2-0.3-0.2c-0.1,0-0.1,0-0.2,0.1h-0.1c-0.1-0.1,0-0.1,0.2-0.2l0.3-0.1
		c0.2-0.2,0.3-0.4,0.3-0.7c0-0.1-0.1-0.2-0.2-0.2l-0.1,0.1c-0.1,0.1-0.2,0.1-0.3,0.2l-0.2,0.2c-0.1,0-0.2,0-0.3,0h-0.2l0,0L15.5,7.5
		z M15.2,10.1C15.2,10.1,15.2,10.1,15.2,10.1c0.2,0.1,0.2,0.1,0.3,0.1c0.1,0,0.2,0,0.2,0v0.1c0,0.1,0.1,0.1,0.2,0.1l0.1,0.1
		c0,0,0,0,0,0.1s0,0.1,0.1,0.1l0,0l0,0H16h0.1v0.1l0,0v0.1c0,0.1,0,0.1,0,0.2V11 M16,10.9c-0.1,0.1-0.1,0.2-0.1,0.2
		c0,0.1,0,0.1,0.1,0.1c0.1,0,0.1,0,0.2,0.1c0.1,0.1,0.1,0.2,0.1,0.3v0.3c0,0.1,0,0.1,0.1,0.1l0.1,0.1c0,0.1,0,0.2,0,0.3
		s-0.1,0.2-0.1,0.3c0,0-0.1,0-0.2,0c-0.1,0-0.2,0-0.3,0c-0.1,0-0.1,0.1-0.2,0.3c-0.1,0.1-0.1,0.3-0.1,0.3c0,0.1-0.1,0.2-0.2,0.2
		h-0.2l0,0l-0.3,0.1v0.1c-0.4,0-0.8-0.2-1.1-0.5l0.2-0.2c0.1,0,0.3-0.1,0.3-0.1h0.1c0.2-0.1,0.2-0.3,0.3-0.4
		c0.1-0.2,0.3-0.3,0.1-0.3c0.2-0.3-0.6-0.3-0.8-0.3C14,11.7,14.1,11.9,14,12s-0.1,0.1-0.2,0.1c-0.1,0.1-0.3,0.3-0.3,0.3l0,0
		c0-0.1-0.1-0.2-0.1-0.3l0,0v-0.1l0,0l0,0c0.1,0,0.2,0,0.2,0c0-0.1,0.1-0.2,0.1-0.2c0.1-0.2,0.1-0.3,0.2-0.4c-0.1,0-0.1-0.1-0.1-0.1
		c0-0.1,0-0.1-0.1,0c-0.1,0-0.1,0.1-0.1,0.1c0,0.1,0,0.1-0.1,0.2c0,0.1-0.1,0.1-0.2,0.1c0-0.1,0-0.1-0.1-0.1l0,0
		c-0.1,0-0.1,0-0.2,0.1h-0.3c-0.1,0-0.3,0-0.3,0c-0.1-0.1,0-0.1,0.2-0.2c0-0.2,0.1-0.3,0.2-0.4c0.1,0,0.2,0.1,0.3,0.1l0.1-0.1h0.3
		c0.1,0,0.1,0.1,0.1,0.2c0,0.1,0,0.2,0.1,0.2s0.1,0,0.2-0.1v-0.2c0-0.2,0.1-0.3,0.1-0.4v-0.1c0-0.1,0.1-0.2,0.1-0.2l0,0
		c0.1,0,0.1-0.1,0.2-0.1c0,0,0-0.1,0.1-0.1l0.4-0.2c0.2-0.1,0.3-0.2,0.3-0.3l0,0h0.3c0,0,0,0,0.1,0L16,10.9z M15,1.2v1.7
		c-2.1,0.1-4.1,0.9-5.6,2.3L8.1,3.9C10,2.2,12.4,1.2,15,1.2z M7.8,4.4L9,5.5C7.5,7,6.7,9.1,6.6,11.1H4.9C4.9,8.6,6,6.2,7.8,4.4z"/>
	<path id="Path_468" class="st2" d="M41.8,27.4V0.6"/>
</g>
</svg>
