<?xml version="1.0" encoding="utf-8"?>
<!-- Generator: Adobe Illustrator 24.3.0, SVG Export Plug-In . SVG Version: 6.00 Build 0)  -->
<svg version="1.1" id="Layer_1" xmlns="http://www.w3.org/2000/svg" xmlns:xlink="http://www.w3.org/1999/xlink" x="0px" y="0px"
	 viewBox="0 0 316 32" style="enable-background:new 0 0 316 32;" xml:space="preserve">
<style type="text/css">
	.st0{enable-background:new    ;}
	.st1{fill:#1B344A;}
	.st2{fill:#5090CD;}
	.st3{fill:none;stroke:#B7B6B6;stroke-width:0.4167;}
</style>
<g>
	<g class="st0">
		<path class="st1" d="M71.3,11.9l0.9-0.1l4-11.3h2.7l3.9,11.3l0.9,0.1v1.6h-4.4v-1.6l0.9-0.2L79.6,10h-4.2l-0.6,1.8l0.9,0.2v1.6
			h-4.4V11.9z M76,8.1h3l-1.5-4.6h-0.1L76,8.1z"/>
		<path class="st1" d="M90.8,0.5c1.5,0,2.7,0.4,3.5,1.1c0.9,0.8,1.3,1.8,1.3,3c0,1.2-0.4,2.2-1.3,3c-0.9,0.8-2,1.1-3.5,1.1h-2.2v2.9
			l1.4,0.3v1.6h-5.4v-1.6l1.4-0.3V2.3L84.6,2V0.5h1.4H90.8z M88.6,6.8h2.2c0.7,0,1.3-0.2,1.7-0.6C92.8,5.8,93,5.3,93,4.7
			c0-0.6-0.2-1.1-0.6-1.6c-0.4-0.4-0.9-0.6-1.7-0.6h-2.2V6.8z"/>
		<path class="st1" d="M104.8,7.8h-4.4v3.7h4.2l0.1-1.6h2v3.6H96.4v-1.6l1.4-0.3V2.3L96.4,2V0.5h1.4h8.9V4h-2l-0.1-1.6h-4.2v3.3h4.4
			V7.8z"/>
		<path class="st1" d="M114,0.5c1.5,0,2.6,0.3,3.5,1c0.8,0.7,1.3,1.6,1.3,2.8c0,0.7-0.2,1.2-0.5,1.7c-0.4,0.5-0.9,0.9-1.5,1.2
			c0.8,0.2,1.3,0.6,1.7,1.1c0.3,0.5,0.5,1.2,0.5,2v0.7c0,0.3,0.1,0.5,0.2,0.7c0.1,0.2,0.3,0.3,0.6,0.3l0.3,0v1.6h-1.4
			c-0.9,0-1.5-0.2-1.8-0.7c-0.3-0.5-0.5-1.1-0.5-1.8v-0.7c0-0.6-0.2-1.1-0.5-1.5c-0.3-0.4-0.8-0.5-1.4-0.6h-2.1v3.4l1.4,0.3v1.6
			h-5.4v-1.6l1.4-0.3V2.3L108.1,2V0.5h1.4H114z M112.1,6.2h1.8c0.7,0,1.3-0.2,1.6-0.5c0.4-0.3,0.5-0.8,0.5-1.3s-0.2-1.1-0.5-1.4
			c-0.4-0.3-0.9-0.5-1.6-0.5h-1.9V6.2z"/>
		<path class="st1" d="M131.4,4.9h-1.9l-0.3-1.7c-0.3-0.3-0.6-0.5-1-0.6c-0.4-0.1-0.9-0.2-1.4-0.2c-1.1,0-2,0.4-2.6,1.2
			c-0.6,0.8-0.9,1.9-0.9,3.2v0.5c0,1.3,0.3,2.4,0.9,3.2c0.6,0.8,1.5,1.2,2.6,1.2c0.5,0,1-0.1,1.4-0.2c0.4-0.1,0.8-0.4,1-0.6l0.3-1.7
			h1.9v2.6c-0.5,0.6-1.2,1.1-2,1.5c-0.8,0.4-1.7,0.5-2.7,0.5c-1.7,0-3.2-0.6-4.3-1.8c-1.1-1.2-1.7-2.8-1.7-4.7V6.8
			c0-1.9,0.6-3.4,1.7-4.7c1.1-1.2,2.5-1.8,4.3-1.8c1,0,1.9,0.2,2.7,0.5c0.8,0.4,1.5,0.9,2,1.5V4.9z M127.4,13.5l-0.1,0.5
			c0.4,0.1,0.7,0.2,1,0.5c0.3,0.2,0.4,0.6,0.4,1.1c0,0.6-0.3,1.1-0.8,1.5c-0.5,0.4-1.3,0.6-2.3,0.6l-0.1-1.4c0.3,0,0.5-0.1,0.7-0.2
			c0.2-0.1,0.3-0.3,0.3-0.6c0-0.2-0.1-0.4-0.3-0.5c-0.2-0.1-0.5-0.2-1-0.2l0.3-1.3H127.4z"/>
		<path class="st1" d="M137.8,0.5V2l-1.4,0.3v6.8c0,0.9,0.2,1.5,0.7,1.9c0.5,0.4,1.1,0.6,1.9,0.6c0.8,0,1.5-0.2,1.9-0.6
			c0.5-0.4,0.7-1.1,0.7-1.9V2.3L140.2,2V0.5h5.4V2l-1.4,0.3v6.8c0,1.5-0.5,2.6-1.4,3.4c-1,0.8-2.2,1.2-3.8,1.2
			c-1.6,0-2.8-0.4-3.8-1.2c-1-0.8-1.4-1.9-1.4-3.4V2.3L132.4,2V0.5h1.4h2.6H137.8z"/>
		<path class="st1" d="M150.9,2V0.5h5.4V2l-1.4,0.3v3.8h5.3V2.3L158.8,2V0.5h1.4h2.6h1.4V2l-1.4,0.3v9.3l1.4,0.3v1.6h-5.4v-1.6
			l1.4-0.3V8.1h-5.3v3.6l1.4,0.3v1.6h-5.4v-1.6l1.4-0.3V2.3L150.9,2z"/>
		<path class="st1" d="M170.5,0.5V2l-1.4,0.3v6.8c0,0.9,0.2,1.5,0.7,1.9c0.5,0.4,1.1,0.6,1.9,0.6c0.8,0,1.5-0.2,1.9-0.6
			c0.5-0.4,0.7-1.1,0.7-1.9V2.3L172.9,2V0.5h5.4V2l-1.4,0.3v6.8c0,1.5-0.5,2.6-1.4,3.4c-1,0.8-2.2,1.2-3.8,1.2
			c-1.6,0-2.8-0.4-3.8-1.2c-1-0.8-1.4-1.9-1.4-3.4V2.3L165.1,2V0.5h1.4h2.6H170.5z"/>
		<path class="st1" d="M191.6,3.9L191.6,3.9l-3.5,9.6h-1.8l-3.5-9.6l-0.1,0l0.3,5.7v2l1.4,0.3v1.6H179v-1.6l1.4-0.3V2.3L179,2V0.5
			h1.4h3.4l3.3,9.6h0.1l3.3-9.6h4.8V2L194,2.3v9.3l1.4,0.3v1.6H190v-1.6l1.4-0.3v-2L191.6,3.9z"/>
		<path class="st1" d="M196.2,11.9l0.9-0.1l4-11.3h2.7l3.9,11.3l0.9,0.1v1.6h-4.4v-1.6l0.9-0.2l-0.6-1.8h-4.2l-0.6,1.8l0.9,0.2v1.6
			h-4.4V11.9z M200.9,8.1h3l-1.5-4.6h-0.1L200.9,8.1z"/>
		<path class="st1" d="M222.8,0.5V2l-1.4,0.3v11.2h-2.6l-5.3-8.8l-0.1,0v6.9l1.4,0.3v1.6h-5.4v-1.6l1.4-0.3V2.3L209.5,2V0.5h1.4h2.6
			l5.3,8.8l0.1,0V2.3L217.4,2V0.5h4H222.8z"/>
		<path class="st1" d="M223.6,2V0.5h5.4V2l-1.4,0.3v9.3l1.4,0.3v1.6h-5.4v-1.6l1.4-0.3V2.3L223.6,2z"/>
		<path class="st1" d="M241.4,0.5v3.5h-2l-0.1-1.5h-2.4v9.2l1.4,0.3v1.6h-5.4v-1.6l1.4-0.3V2.5h-2.4l-0.1,1.5h-2V0.5H241.4z"/>
		<path class="st1" d="M240.6,11.9l0.9-0.1l4-11.3h2.7l3.9,11.3l0.9,0.1v1.6h-4.4v-1.6l0.9-0.2l-0.6-1.8h-4.2l-0.6,1.8l0.9,0.2v1.6
			h-4.4V11.9z M245.3,8.1h3l-1.5-4.6h-0.1L245.3,8.1z"/>
		<path class="st1" d="M253.8,2V0.5h5.4V2l-1.4,0.3v9.3l1.4,0.3v1.6h-5.4v-1.6l1.4-0.3V2.3L253.8,2z"/>
		<path class="st1" d="M266.1,0.5c1.5,0,2.6,0.3,3.5,1c0.8,0.7,1.3,1.6,1.3,2.8c0,0.7-0.2,1.2-0.5,1.7c-0.4,0.5-0.9,0.9-1.5,1.2
			c0.8,0.2,1.3,0.6,1.7,1.1c0.3,0.5,0.5,1.2,0.5,2v0.7c0,0.3,0.1,0.5,0.2,0.7c0.1,0.2,0.3,0.3,0.6,0.3l0.3,0v1.6h-1.4
			c-0.9,0-1.5-0.2-1.8-0.7c-0.3-0.5-0.5-1.1-0.5-1.8v-0.7c0-0.6-0.2-1.1-0.5-1.5c-0.3-0.4-0.8-0.5-1.4-0.6h-2.1v3.4l1.4,0.3v1.6
			h-5.4v-1.6l1.4-0.3V2.3L260.2,2V0.5h1.4H266.1z M264.2,6.2h1.8c0.7,0,1.3-0.2,1.6-0.5c0.4-0.3,0.5-0.8,0.5-1.3S268,3.4,267.7,3
			c-0.4-0.3-0.9-0.5-1.6-0.5h-1.9V6.2z"/>
		<path class="st1" d="M281.2,7.8h-4.4v3.7h4.2l0.1-1.6h2v3.6h-10.3v-1.6l1.4-0.3V2.3L272.8,2V0.5h1.4h8.9V4h-2L281,2.5h-4.2v3.3
			h4.4V7.8z"/>
	</g>
	<g class="st0">
		<path class="st1" d="M84,22.2L84,22.2l-3.5,9.6h-1.8l-3.5-9.6l-0.1,0l0.3,5.7v2l1.4,0.3v1.6h-5.4v-1.6l1.4-0.3v-9.3l-1.4-0.3v-1.6
			h1.4h3.4l3.3,9.6h0.1l3.3-9.6h4.8v1.6l-1.4,0.3V30l1.4,0.3v1.6h-5.4v-1.6l1.4-0.3v-2L84,22.2z"/>
		<path class="st1" d="M100.6,25.4c0,1.9-0.5,3.5-1.6,4.7c-1.1,1.2-2.5,1.9-4.3,1.9c-1.8,0-3.2-0.6-4.3-1.9
			c-1.1-1.2-1.6-2.8-1.6-4.7v-0.2c0-1.9,0.5-3.5,1.6-4.7s2.5-1.9,4.3-1.9c1.8,0,3.2,0.6,4.3,1.9c1.1,1.3,1.6,2.8,1.6,4.7V25.4z
			 M98,25.2c0-1.3-0.3-2.4-0.8-3.3c-0.6-0.8-1.4-1.3-2.5-1.3s-1.9,0.4-2.5,1.3c-0.5,0.8-0.8,1.9-0.8,3.3v0.2c0,1.4,0.3,2.5,0.8,3.3
			c0.5,0.8,1.4,1.3,2.5,1.3c1.1,0,1.9-0.4,2.5-1.3c0.6-0.8,0.8-1.9,0.8-3.3V25.2z"/>
		<path class="st1" d="M114.9,18.8v1.6l-1.4,0.3v11.2h-2.6l-5.3-8.8l-0.1,0V30l1.4,0.3v1.6h-5.4v-1.6L103,30v-9.3l-1.4-0.3v-1.6h1.4
			h2.6l5.3,8.8l0.1,0v-6.9l-1.4-0.3v-1.6h4H114.9z"/>
		<path class="st1" d="M121.6,18.8c1.6,0,2.9,0.5,3.9,1.5c1,1,1.5,2.3,1.5,3.9v2.2c0,1.6-0.5,2.9-1.5,3.9c-1,1-2.3,1.5-3.9,1.5h-5.9
			v-1.6l1.4-0.3v-9.3l-1.4-0.3v-1.6h1.4H121.6z M119.8,20.8v9h1.7c0.9,0,1.7-0.3,2.2-0.9c0.5-0.6,0.8-1.5,0.8-2.5v-2.2
			c0-1-0.3-1.8-0.8-2.5c-0.5-0.6-1.3-0.9-2.2-0.9H119.8z"/>
		<path class="st1" d="M128.4,20.4v-1.6h5.4v1.6l-1.4,0.3V30l1.4,0.3v1.6h-5.4v-1.6l1.4-0.3v-9.3L128.4,20.4z"/>
		<path class="st1" d="M134.6,30.2l0.9-0.1l4-11.3h2.7l3.9,11.3l0.9,0.1v1.6h-4.4v-1.6l0.9-0.2l-0.6-1.8h-4.2l-0.6,1.8l0.9,0.2v1.6
			h-4.4V30.2z M139.3,26.4h3l-1.5-4.6h-0.1L139.3,26.4z"/>
		<path class="st1" d="M147.9,31.8v-1.6l1.4-0.3v-9.3l-1.4-0.3v-1.6h1.4h2.6h1.4v1.6l-1.4,0.3v9.2h3.7l0.1-1.6h2v3.6H147.9z"/>
		<path class="st2" d="M163.2,31.8v-1.2l4.3-4.7c0.8-0.9,1.3-1.5,1.6-2c0.3-0.5,0.4-1,0.4-1.5c0-0.6-0.2-1.2-0.6-1.6
			c-0.4-0.4-0.9-0.7-1.5-0.7c-0.9,0-1.6,0.2-2,0.7c-0.4,0.5-0.6,1.1-0.6,1.9H163l0-0.1c0-1.1,0.3-2.1,1.1-2.8
			c0.8-0.8,1.8-1.1,3.2-1.1c1.2,0,2.1,0.3,2.8,1c0.7,0.7,1,1.6,1,2.6c0,0.7-0.2,1.4-0.6,2.1c-0.4,0.7-1,1.5-1.8,2.3l-3.4,3.7l0,0
			h4.6l0.1-1.5h1.5v2.9H163.2z"/>
		<path class="st2" d="M181.8,26.8c0,1.7-0.4,2.9-1.1,3.8c-0.7,0.9-1.8,1.3-3,1.3c-1.3,0-2.3-0.4-3-1.3c-0.7-0.9-1.1-2.2-1.1-3.8
			v-3.1c0-1.7,0.4-2.9,1.1-3.8c0.7-0.9,1.7-1.3,3-1.3c1.3,0,2.3,0.4,3,1.3c0.7,0.9,1.1,2.2,1.1,3.8V26.8z M180.1,23.4
			c0-1.1-0.2-2-0.6-2.5c-0.4-0.6-1-0.9-1.8-0.9c-0.8,0-1.4,0.3-1.8,0.9c-0.4,0.6-0.6,1.4-0.6,2.5v3.8c0,1.1,0.2,2,0.6,2.6
			c0.4,0.6,1,0.9,1.8,0.9c0.8,0,1.4-0.3,1.8-0.9c0.4-0.6,0.6-1.4,0.6-2.6V23.4z"/>
		<path class="st2" d="M183.8,31.8v-1.2l4.3-4.7c0.8-0.9,1.3-1.5,1.6-2c0.3-0.5,0.4-1,0.4-1.5c0-0.6-0.2-1.2-0.6-1.6
			c-0.4-0.4-0.9-0.7-1.5-0.7c-0.9,0-1.6,0.2-2,0.7c-0.4,0.5-0.6,1.1-0.6,1.9h-1.7l0-0.1c0-1.1,0.3-2.1,1.1-2.8
			c0.8-0.8,1.8-1.1,3.2-1.1c1.2,0,2.1,0.3,2.8,1c0.7,0.7,1,1.6,1,2.6c0,0.7-0.2,1.4-0.6,2.1c-0.4,0.7-1,1.5-1.8,2.3l-3.4,3.7l0,0
			h4.6l0.1-1.5h1.5v2.9H183.8z"/>
		<path class="st2" d="M194.1,30.7l2-0.3v-9.8l-2,0v-1.1l3.8-0.8v11.6l2,0.3v1.1h-5.8V30.7z"/>
	</g>
	<path id="Path_469_5_" class="st2" d="M3.8,8.4c0.5-0.4,1-0.8,1.6-1.4C5.7,6.9,5.8,6.7,6,6.6C6.1,6.4,6.3,6.2,6.4,6
		c0.1-0.2,0.2-0.5,0.3-0.8l0.4-1.2h0C6.9,4.5,6.6,4.8,6.3,5.1C6,5.4,5.6,5.7,5.3,5.9C4.9,6.1,4.5,6.4,4.2,6.7
		c-0.4,0.4-0.7,0.8-1,1.4v0c0.3-0.7,0.4-1.4,0.6-1.9c0.1-0.5,0.2-1,0.3-1.4c0.1-0.4,0.2-0.7,0.4-1C4.7,3.5,5,3.2,5.3,3v0
		C4.5,3.2,3.8,3.6,3.4,4.3C2.9,5,2.6,5.9,2.7,6.7v3C2.9,9.2,3.3,8.8,3.8,8.4z M5.8,4.8c0.4-0.4,0.8-0.8,1.1-1.3
		c0.3-0.4,0.6-0.8,0.9-1.2c0.3-0.4,0.6-0.7,1-1.1l0,0c-0.3,0.2-0.6,0.4-1,0.5C7.4,1.8,7,2,6.6,2.3C6.1,2.6,5.7,3,5.4,3.5
		C4.9,4.2,4.5,5.1,4.4,6C4.9,5.6,5.4,5.2,5.8,4.8L5.8,4.8z M1,16c0.3,0.4,0.6,0.9,1,1.3c0.4,0.5,0.7,1,1,1.5h0C3,18.6,3,18.3,3,18.1
		v-0.6c0-0.4,0.1-0.8,0.2-1.1c0.2-0.5,0.3-1.1,0.5-1.8c0.2-0.6,0.3-1.3,0.5-2c0.1-0.6,0.2-1.2,0.1-1.8h0C4.2,11.3,4,11.6,3.8,12
		c-0.2,0.4-0.4,0.7-0.7,1.1c-0.2,0.4-0.4,0.8-0.6,1.2c-0.2,0.5-0.3,0.9-0.3,1.4c0,0.2,0,0.5,0.1,0.7c0,0.2,0.1,0.4,0.1,0.5h0
		c-0.1-0.6-0.3-1.2-0.5-1.8c-0.2-0.6-0.4-1.1-0.6-1.6c-0.2-0.5-0.4-0.9-0.5-1.3c-0.1-0.3-0.2-0.6-0.2-1c0-0.2,0-0.5,0-0.7
		c0-0.2,0-0.4,0-0.6h0c-0.1,0.4-0.3,0.7-0.3,1.1c-0.1,0.4-0.2,0.9-0.2,1.4c0,0.7,0.1,1.4,0.3,2.1C0.5,15.1,0.7,15.6,1,16L1,16z
		 M8.8,27.6c0.2,0,0.3,0,0.5,0c0.2,0,0.4,0,0.6,0c0.2,0,0.5-0.1,0.8-0.1c0.3-0.1,0.7-0.2,1.2-0.3c0.5-0.1,1.2-0.3,2-0.5
		c-0.5-0.1-1-0.3-1.4-0.4c-0.5-0.2-0.9-0.4-1.2-0.7c-0.5-0.4-1-0.9-1.5-1.3c-0.4-0.4-0.8-0.7-1.2-1c-0.1-0.1-0.7-0.6-0.8-0.8l0,0
		c0.1,0.1,0.6,1.2,0.6,1.2s0.1,0.1,0.1,0.2c0.1,0.3,0.3,0.5,0.4,0.8C9,24.7,9,24.8,9.1,24.9c0.2,0.3,0.4,0.6,0.7,0.8
		c0.5,0.4,1.1,0.7,1.8,0.9v0c-0.4-0.1-0.7-0.1-0.9-0.1c-0.3,0-0.5-0.1-0.7-0.1c-0.2,0-0.4,0-0.6-0.1c-0.3,0-0.5,0-0.8-0.1
		c-0.2,0-0.4-0.1-0.6-0.1c-0.2,0-0.4,0-0.6-0.1c-0.1,0-0.2,0-0.3,0c-0.4,0-0.7-0.1-1.1-0.2c-0.3-0.1-0.7-0.2-1-0.4
		c-0.4-0.2-0.7-0.5-1-0.8l0,0c0.2,0.3,0.4,0.6,0.6,0.8c0.3,0.3,0.6,0.6,0.9,0.9c0.4,0.3,0.8,0.6,1.3,0.7c0.5,0.2,1.1,0.4,1.7,0.4
		C8.4,27.6,8.7,27.6,8.8,27.6L8.8,27.6z M2.1,14.2L2.1,14.2c0.1-0.2,0.1-0.5,0.2-0.7c0.1-0.3,0.2-0.5,0.3-0.7c0.2-0.4,0.4-0.7,0.7-1
		c0.3-0.4,0.7-0.9,1.1-1.6c0.3-0.5,0.5-1,0.7-1.5c0.2-0.6,0.3-1,0.3-1.2h0c0,0.1-0.1,0.3-0.2,0.4C5.1,7.8,5,7.9,4.9,8.1
		C4.8,8.2,4.7,8.4,4.5,8.5C4.3,8.7,4,8.9,3.7,9.2c-0.5,0.4-0.8,0.9-1.1,1.4c-0.2,0.5-0.3,0.9-0.4,1.4h0c0-0.2,0-0.5,0-0.7
		c0-0.2,0-0.5,0-0.8c0-0.4,0-0.9-0.1-1.5C2.1,8.5,2.1,7.7,2.1,6.8c0-0.3,0.1-0.6,0.2-0.8c0.1-0.3,0.2-0.5,0.3-0.7h0
		c-0.5,0.6-1,1.4-1.2,2.2C1,8.1,0.9,8.8,0.9,9.4c0,0.8,0.2,1.5,0.4,2.3C1.7,12.5,1.9,13.3,2.1,14.2L2.1,14.2z M6.6,25.3l1.8,0.4
		l0.9,0.2c-0.3-0.4-0.6-0.8-0.9-1.2C8.2,24.3,8,24,7.8,23.5c-0.2-0.5-0.4-1.1-0.7-1.9C7,21.4,6.9,21.2,6.8,21
		c-0.1-0.2-0.2-0.4-0.3-0.6c-0.1-0.2-0.3-0.5-0.5-0.7c-0.2-0.3-0.4-0.6-0.7-1l0,0c0.1,0.3,0.2,0.8,0.4,1.5c0.2,0.7,0.3,1.4,0.5,2.1
		c0.1,0.5,0.3,1,0.6,1.4c0.3,0.5,0.7,0.9,1.2,1.3l0,0c-0.4-0.2-0.7-0.4-1-0.7c-0.5-0.4-1-0.7-1.6-1c-0.9-0.4-1.7-0.9-2.6-1.4
		c-0.6-0.4-1.1-1-1.4-1.7l0,0c0.2,0.7,0.4,1.3,0.8,1.9c0.3,0.6,0.8,1.1,1.3,1.5c0.5,0.4,1,0.8,1.6,1.1C5.4,25,6,25.2,6.6,25.3
		L6.6,25.3z M2.6,20.9L5.7,23c-0.1-0.3-0.3-0.6-0.4-0.8c-0.1-0.3-0.2-0.6-0.2-0.9C5.1,21,5,20.7,5,20.3c0-0.4-0.1-0.9-0.1-1.4
		c-0.1-0.9-0.2-1.7-0.3-2.2c-0.1-0.6-0.3-1.1-0.5-1.7h0c0,0.4,0,0.8-0.1,1.2c0,0.3-0.1,0.6-0.2,0.9c-0.1,0.3-0.1,0.6-0.2,0.8
		c0,0.3-0.1,0.6-0.1,0.8c0,0.4,0.1,0.8,0.3,1.2c0.1,0.4,0.3,0.8,0.5,1.2l0,0c-0.4-0.7-0.9-1.3-1.4-1.9c-0.5-0.5-0.9-1-1.3-1.4
		c-0.4-0.4-0.7-0.8-1-1.2c-0.3-0.5-0.5-1-0.5-1.5c0,0.1-0.1,0.3-0.1,0.4c0,0.1,0,0.3,0,0.4c0,0.5,0.1,1,0.3,1.5
		c0.2,0.5,0.4,1,0.6,1.4c0.2,0.4,0.5,0.8,0.8,1.1C2,20.4,2.3,20.7,2.6,20.9L2.6,20.9z M28.7,2.3c0.3,0.4,0.6,0.8,0.9,1.2
		c0.3,0.4,0.7,0.9,1.1,1.3c0.4,0.4,0.9,0.8,1.5,1.2c-0.2-0.9-0.5-1.7-1-2.5c-0.3-0.5-0.8-0.9-1.2-1.2c-0.4-0.2-0.8-0.4-1.2-0.6
		c-0.4-0.1-0.7-0.3-1-0.5l0,0C28,1.5,28.4,1.9,28.7,2.3L28.7,2.3z M31.5,25.5c-0.3,0.2-0.6,0.3-1,0.4c-0.4,0.1-0.7,0.2-1.1,0.2
		c-0.1,0-0.2,0-0.3,0l-0.6,0.1c-0.2,0-0.4,0.1-0.6,0.1c-0.3,0-0.5,0.1-0.8,0.1c-0.2,0-0.4,0-0.6,0.1c-0.2,0-0.4,0.1-0.7,0.1
		s-0.6,0.1-0.9,0.1v0c0.7-0.2,1.3-0.5,1.8-0.9c0.3-0.2,0.5-0.5,0.7-0.8c0.1-0.1,0.1-0.2,0.2-0.3c0.1-0.3,0.3-0.5,0.4-0.8
		c0-0.1,0.1-0.2,0.1-0.2s0.5-1.1,0.6-1.2l0,0c-0.2,0.2-0.7,0.7-0.8,0.8c-0.4,0.3-0.8,0.7-1.2,1c-0.5,0.5-1,0.9-1.5,1.3
		c-0.3,0.3-0.8,0.6-1.2,0.7c-0.4,0.1-0.9,0.3-1.4,0.4c0.8,0.2,1.5,0.4,2,0.5c0.5,0.1,0.9,0.2,1.2,0.3c0.3,0.1,0.6,0.1,0.8,0.1
		c0.2,0,0.4,0,0.6,0c0.2,0,0.3,0,0.5,0c0.1,0,0.4,0,0.4,0c0.6-0.1,1.1-0.2,1.7-0.4c0.5-0.2,0.9-0.4,1.3-0.7c0.3-0.3,0.6-0.5,0.9-0.9
		c0.2-0.3,0.4-0.5,0.6-0.8l0,0C32.2,25,31.9,25.3,31.5,25.5L31.5,25.5z M33.9,21.9c-0.8,0.5-1.7,1-2.6,1.4c-0.6,0.3-1.1,0.6-1.6,1
		c-0.3,0.3-0.7,0.5-1,0.7l0,0c0.4-0.4,0.8-0.8,1.2-1.3c0.3-0.4,0.5-0.9,0.6-1.4c0.1-0.7,0.3-1.4,0.5-2.1c0.2-0.7,0.3-1.3,0.4-1.5
		l0,0c-0.3,0.4-0.5,0.7-0.7,1c-0.2,0.3-0.3,0.5-0.5,0.7c-0.1,0.2-0.2,0.4-0.3,0.6c-0.1,0.2-0.2,0.5-0.3,0.7
		c-0.3,0.8-0.6,1.4-0.7,1.9c-0.1,0.4-0.3,0.8-0.6,1.2c-0.3,0.4-0.6,0.8-0.9,1.2l0.9-0.2l1.8-0.4c0.6-0.1,1.2-0.3,1.7-0.6
		c0.6-0.3,1.1-0.6,1.6-1.1c0.5-0.4,0.9-0.9,1.3-1.5c0.4-0.6,0.6-1.2,0.8-1.9l0,0C35,20.9,34.5,21.5,33.9,21.9L33.9,21.9z M35.2,13.6
		c-0.2,0.5-0.4,1-0.6,1.6c-0.2,0.6-0.4,1.2-0.5,1.8h0c0-0.2,0.1-0.4,0.1-0.5c0.1-0.2,0.1-0.5,0.1-0.7c0-0.5-0.1-1-0.3-1.4
		c-0.2-0.4-0.4-0.8-0.6-1.2c-0.2-0.4-0.5-0.8-0.7-1.1c-0.2-0.3-0.4-0.7-0.5-1.1h0c-0.1,0.6,0,1.2,0.1,1.8c0.1,0.7,0.3,1.3,0.5,2
		c0.2,0.6,0.3,1.2,0.5,1.8c0.1,0.4,0.2,0.7,0.2,1.1v0.6c0,0.2,0,0.5-0.1,0.7h0c0.3-0.5,0.7-1.1,1-1.5c0.3-0.4,0.7-0.8,1-1.3
		c0.3-0.4,0.5-0.9,0.7-1.4c0.2-0.7,0.3-1.4,0.3-2.1c0-0.5-0.1-0.9-0.2-1.4c-0.1-0.4-0.2-0.8-0.3-1.1h0c0,0.2,0,0.4,0,0.6
		c0,0.2,0,0.5,0,0.7c0,0.3-0.1,0.7-0.2,1C35.6,12.7,35.4,13.2,35.2,13.6L35.2,13.6z M33.9,10.6c-0.3-0.5-0.6-1-1.1-1.4
		c-0.3-0.3-0.6-0.5-0.7-0.7c-0.2-0.2-0.3-0.3-0.4-0.5c-0.1-0.1-0.2-0.2-0.3-0.3c-0.1-0.1-0.1-0.2-0.2-0.4h0c0.1,0.3,0.2,0.7,0.3,1.2
		c0.2,0.5,0.4,1,0.7,1.5c0.5,0.7,0.9,1.2,1.1,1.6c0.2,0.3,0.5,0.7,0.7,1c0.1,0.2,0.2,0.5,0.3,0.7c0.1,0.2,0.1,0.5,0.1,0.7h0.1
		c0.2-0.9,0.4-1.7,0.8-2.5c0.3-0.7,0.4-1.5,0.4-2.3c0-0.7-0.1-1.4-0.3-2C35,6.6,34.6,5.9,34,5.3h0c0.1,0.2,0.2,0.5,0.3,0.7
		c0.1,0.3,0.2,0.5,0.2,0.8c0,0.9,0,1.7-0.1,2.2c-0.1,0.6-0.1,1.1-0.1,1.5c0,0.3,0,0.6,0,0.8s0,0.4,0,0.7h0
		C34.2,11.6,34.1,11.1,33.9,10.6L33.9,10.6z M32,3.8c0.2,0.3,0.3,0.7,0.4,1c0.1,0.4,0.2,0.8,0.3,1.4c0.1,0.5,0.3,1.1,0.6,1.9v0
		c-0.2-0.5-0.6-1-1-1.4c-0.3-0.3-0.7-0.6-1.1-0.9c-0.3-0.2-0.7-0.5-1-0.7c-0.3-0.3-0.6-0.7-0.8-1.1h0l0.4,1.2
		C30,5.6,30.1,5.8,30.2,6c0.1,0.2,0.2,0.4,0.4,0.5c0.1,0.1,0.3,0.3,0.6,0.5c0.6,0.5,1.2,1,1.6,1.4c0.4,0.4,0.8,0.8,1.1,1.3v-3
		c0-0.9-0.2-1.7-0.7-2.4C32.7,3.7,32,3.2,31.2,3v0C31.5,3.2,31.8,3.5,32,3.8L32,3.8z M27,28.5c-0.2,0-0.5,0-0.7-0.1
		c-0.2,0-0.5-0.1-0.8-0.2v0c-0.3-0.1-0.5-0.2-0.9-0.3c-0.3-0.1-0.7-0.3-1.2-0.4c-0.8-0.3-1.4-0.5-1.8-0.6c-0.4-0.1-0.8-0.2-1.2-0.2
		c-0.4,0-0.8,0.1-1.3,0.2c-0.4,0.1-0.7,0.2-0.9,0.2C18,27,17.7,27,17.3,26.9c-0.4-0.1-0.8-0.1-1.2-0.2c-0.4,0-0.8,0.1-1.2,0.2
		c-0.4,0.1-1,0.4-1.8,0.6c-0.9,0.3-1.6,0.6-2.1,0.7c-0.5,0.1-0.9,0.2-1.4,0.2c-0.2,0-0.4,0-0.6,0c-0.2,0-0.3-0.1-0.5-0.1
		c0,0-0.4-0.1-0.6-0.2c-0.2-0.1-0.5-0.2-0.8-0.4l0,0c0.5,0.4,1,0.8,1.5,1.2c0.7,0.4,1.5,0.7,2.4,0.7c0.3,0,0.6,0,0.9-0.1
		c0.3,0,0.6-0.1,0.8-0.2c0.3-0.1,0.6-0.3,0.9-0.4c0.3-0.2,0.7-0.4,1.2-0.7c0.5-0.3,0.9-0.6,1.2-0.7c0.3-0.2,0.7-0.3,1.1-0.3
		c0.2,0,0.3,0,0.5,0.1c-0.6,0.3-1.2,0.7-2,1.1c-0.8,0.5-1.5,1.1-2.1,1.8l0.7,0.6c0.6-0.7,1.3-1.4,2.1-2.1c0.6-0.5,1.3-0.9,2-1.2
		c0.7,0.3,1.4,0.7,2,1.2c0.8,0.6,1.5,1.3,2.1,2.1l0.7-0.6c-0.6-0.7-1.4-1.3-2.1-1.8c-0.7-0.4-1.4-0.8-2-1.1c0.2-0.1,0.4-0.1,0.6-0.1
		c0.4,0,0.8,0.1,1.1,0.3c0.3,0.2,0.7,0.4,1.2,0.7c0.4,0.3,0.8,0.5,1.1,0.7c0.3,0.2,0.6,0.3,0.9,0.4c0.3,0.1,0.5,0.2,0.8,0.2
		c0.3,0.1,0.6,0.1,0.8,0.1h0.2c0.7,0,1.3-0.2,2-0.4c0.7-0.3,1.4-0.8,1.9-1.4v0c-0.5,0.2-0.9,0.4-1.4,0.6
		C27.8,28.5,27.4,28.5,27,28.5z M36.5,16.1c0,0,0-0.1,0-0.1c0-0.1,0-0.1,0-0.2c0-0.1,0-0.3-0.1-0.4c-0.1,0.5-0.2,1-0.5,1.5
		c-0.3,0.4-0.6,0.8-1,1.2l-0.1,0.1c-0.4,0.4-0.8,0.8-1.2,1.3c-0.5,0.6-1,1.2-1.4,1.9l0,0c0.2-0.4,0.4-0.8,0.5-1.2
		c0.1-0.4,0.2-0.8,0.3-1.2c0-0.3,0-0.6-0.1-0.8c0-0.2-0.1-0.5-0.2-0.8c-0.1-0.3-0.1-0.6-0.1-0.9c0-0.4-0.1-0.8-0.1-1.2h0
		c0,0,0,0,0,0c0,0,0,0,0,0h0c-0.2,0.5-0.4,1.1-0.5,1.7c-0.1,0.5-0.2,1.2-0.3,2.2c-0.1,0.5-0.1,1-0.1,1.4c0,0.4-0.1,0.7-0.1,1.1
		c0,0.3-0.1,0.6-0.2,0.9c-0.1,0.2-0.2,0.5-0.3,0.7c0,0,0,0.1-0.1,0.1l0,0c0,0,0,0,0,0l1.1-0.7l2.1-1.4c0.3-0.2,0.6-0.5,0.8-0.8
		c0.3-0.3,0.6-0.7,0.8-1.1c0.2-0.3,0.3-0.6,0.4-0.8c0.1-0.2,0.2-0.4,0.2-0.6C36.4,17.1,36.5,16.6,36.5,16.1L36.5,16.1
		C36.5,16.1,36.5,16.1,36.5,16.1z M24,3.4c0.1,0,0.2,0.1,0.2,0.1c0.1,0.1,0.1,0.1,0.1,0.2c0,0.1,0.1,0.1,0.1,0.1
		c0.1,0,0.1,0,0.1-0.1s0-0.1,0-0.1c0,0,0,0,0-0.1c0-0.1,0-0.2-0.1-0.3c-0.1-0.1-0.2-0.1-0.4-0.1c0,0-0.1,0-0.1,0h0
		c-0.1,0-0.1,0-0.1,0.1C23.9,3.3,24,3.4,24,3.4L24,3.4z M19.5,2.4L19.5,2.4c0.3-0.1,0.4-0.1,0.6-0.1h0.6c0.1,0,0.2,0,0.3-0.1
		C21,2.1,21,2,21.1,2c-0.1-0.2-0.3-0.3-0.5-0.3c-0.1,0-0.3,0-0.4,0c-0.2,0-0.4,0.1-0.5,0.2c-0.3,0.1-0.5,0.2-0.5,0.2
		c-0.1,0-0.2,0-0.3,0.1c0.1,0.1,0.2,0.1,0.2,0.2C19.2,2.4,19.3,2.4,19.5,2.4L19.5,2.4z M18.2,25.9c7.2,0,13-5.8,13-13s-5.8-13-13-13
		c-7.2,0-13,5.8-13,13C5.2,20.1,11,25.9,18.2,25.9L18.2,25.9z M5.9,13.3h2c0,0.9,0.2,1.7,0.4,2.6c-0.1,0-0.1-0.1-0.1-0.1l-0.1-0.1
		l-0.2-0.3l-0.4,0.1c0,0.2-0.1,0.3-0.2,0.2c0-0.1-0.1-0.1-0.2-0.1c-0.2,0-0.4,0.1-0.4,0.4c0,0,0,0,0,0c0,0.2-0.1,0.3-0.1,0.5
		l0.3,0.8c0.1,0.1,0.1,0.1,0.3,0c0.1,0.1,0.2,0.2,0.3,0.3c0.1,0.1,0.1,0.1,0.2,0.1c0.1,0,0.1,0,0.1-0.1h0C7.9,17.6,8,17.7,8,17.8
		c0.1,0.1,0.1,0.1,0.2,0.2v0c0.1,0.1,0.2,0.2,0.4,0.2c0,0.2,0.1,0.3,0.3,0.5c0.1,0.1,0.2,0.2,0.3,0.2c0.1,0,0.1,0,0.2-0.1
		c0,0.2,0.1,0.3,0.2,0.4c0.1,0,0.1,0.1,0.2,0.1c0.1,0,0.1,0.1,0.2,0.1h0.1l0,0c0,0.1,0.1,0.3,0.2,0.3c0.1,0.1,0.2,0.2,0.3,0.2
		c0,0,0,0,0,0c0,0,0,0,0,0c0,0,0,0,0,0c0,0,0.1,0.1,0.1,0.1l-1.4,1.4C7.2,19.2,6,16.3,5.9,13.3L5.9,13.3z M15.4,9.7
		c0,0-0.1,0-0.1-0.1l-0.1-0.1c0.8-0.7,1.7-1.1,2.7-1.1v1.4c0,0,0,0-0.1,0c0,0,0,0,0,0c0,0,0,0,0,0c0,0-0.1,0-0.1,0c0,0,0,0,0,0
		c0,0,0,0,0,0c0,0-0.1,0-0.1,0c0,0-0.1,0-0.1,0c0,0,0,0-0.1,0c-0.1-0.1-0.1-0.1-0.1-0.2l0,0c0,0,0,0,0,0c-0.1,0.1-0.2,0.1-0.2,0.2
		c0,0.1,0,0.2-0.1,0.3c0,0.1-0.1,0.2-0.2,0.2c-0.1,0-0.2,0.1-0.3,0.2l-0.1-0.1h-0.2c0,0-0.1-0.1-0.1-0.1c0,0-0.1,0-0.1-0.1
		c0,0,0,0,0,0c-0.1,0-0.1,0-0.1,0.1L15.7,10l0,0V9.9C15.6,9.8,15.5,9.7,15.4,9.7L15.4,9.7z M14.7,9l-1.3-1.3
		c1.2-1.1,2.8-1.8,4.5-1.9v1.9C16.7,7.7,15.6,8.2,14.7,9L14.7,9z M15.4,15.2c0.1-0.1,0-0.2,0.1-0.3l-0.1,0.1
		c0.1-0.1,0.2-0.2,0.3-0.3c0-0.1,0.1-0.2,0.1-0.2h0c0,0.1,0.1,0.2,0.2,0.3L14.7,16c-0.5-0.6-0.8-1.2-1-1.9c0.1,0,0.2,0,0.3,0.1
		c0.1,0.1,0.2,0.2,0.3,0.2c0.1,0,0.1,0,0.2,0l0.2,0.1c0,0.1,0,0.2,0,0.2c0,0,0,0.1,0.1,0.1c0.1,0,0.1,0.1,0.2,0.2l0.1,0
		c0-0.1,0-0.1,0-0.2c0-0.1,0-0.1,0-0.1l0.1,0.3l0.1,0.3l0,0C15.3,15.3,15.4,15.3,15.4,15.2L15.4,15.2z M18,16.6
		c0.1,0.1,0.1,0.1,0.1,0.2c0,0.1-0.1,0.1-0.3,0.1c-0.1,0-0.1,0.1-0.2,0.2c0,0.2-0.1,0.3-0.1,0.4c0,0,0,0-0.1,0c0,0,0,0,0,0
		c-0.8-0.1-1.6-0.5-2.3-1.1l1.2-1.2c0.4,0.4,1,0.7,1.6,0.8c0,0.1,0,0.1,0,0.2c-0.1,0.1-0.1,0.1-0.1,0.2C17.9,16.5,17.9,16.5,18,16.6
		L18,16.6z M12.3,16.7c0-0.2,0-0.5-0.1-0.7c0-0.1-0.1-0.3-0.1-0.4c0-0.2-0.1-0.4-0.1-0.6c-0.1-0.2-0.2-0.4-0.4-0.5v-0.3
		c0-0.1,0-0.2-0.1-0.3v0c0,0,0-0.1,0.1-0.1c0,0,0.2-0.1,0.5-0.2c0-0.1,0-0.3,0-0.4l0.3,0.1c0.1,0,0.1-0.1,0.1-0.2
		c0-0.1,0-0.2-0.1-0.3c0-0.1-0.1-0.2-0.1-0.3c0-0.1,0-0.1,0.1-0.2c0.1,0,0.2-0.1,0.3-0.1c0.1,0,0.2,0,0.3,0.1
		c0.1,0.1,0.1,0.2,0.1,0.3c0,0.1,0,0.2,0,0.2c0,0.1,0,0.1,0,0.2l0.1,0c-0.1,0.3-0.2,0.4-0.3,0.4c-0.1,0-0.2,0-0.2-0.1
		c0-0.1-0.1-0.1-0.1-0.1c0,0,0,0,0,0c0,0,0,0,0,0c0,0.1,0,0.1,0,0.2c0,0.1,0,0.1,0,0.2c0,0.2-0.1,0.3-0.3,0.2
		c-0.1,0.1,0,0.2,0.2,0.2c0.1,0.2,0.1,0.2,0.2,0.2c0.1-0.1,0.1-0.2,0.1-0.3c0-0.1,0-0.2,0.1-0.3l0,0l0.2,0c0,0,0,0,0,0.1
		c0,0,0,0,0.1,0c0.2,0.9,0.6,1.8,1.2,2.6l-1.8,1.8c-0.1-0.1-0.1-0.2-0.1-0.3c0-0.2,0.2-0.3,0.2-0.5l0-0.3
		C12.4,17,12.3,16.9,12.3,16.7L12.3,16.7z M11.2,14c0,0.1,0,0.1,0,0.2c0,0.1,0,0.1-0.1,0.1c0,0,0,0,0,0c-0.1-0.3-0.1-0.6-0.1-1h0.4
		c0,0.1,0,0.1,0,0.2c0,0.1-0.1,0.1-0.1,0.2c0,0-0.1,0.1-0.1,0.2C11.2,13.9,11.2,13.9,11.2,14L11.2,14z M11,12.6
		c0.1-1.7,0.7-3.3,1.9-4.5l1.3,1.3c0,0,0,0,0,0c-0.1,0-0.2,0-0.2,0.1c-0.1,0.1-0.1,0.2-0.2,0.3c-0.1,0.1-0.3,0.1-0.4,0.2
		c-0.1,0.1-0.2,0.2-0.3,0.3c-0.2,0.1-0.3,0.1-0.3,0.2c-0.1,0-0.1,0.1-0.2,0.1c0.1,0.1,0.1,0.2,0,0.2c-0.1,0-0.2,0-0.4,0.1
		c0,0-0.1,0-0.1,0l-0.1,0.1c0,0,0,0.1,0,0.2c0,0.1,0,0.1,0,0.2c-0.1,0.1-0.2,0.1-0.2,0.2c0,0.1,0,0.3,0,0.4l0.1,0.4c0,0,0,0,0,0
		c0,0,0,0.1,0,0.1L11,12.6z M14.7,16.9c0.7,0.6,1.4,1,2.3,1.2c-0.1,0-0.1,0-0.2,0.1c-0.1,0-0.2,0.1-0.3,0.3c0,0.1-0.1,0.3-0.2,0.3
		c-0.1,0-0.1,0.1-0.1,0.2c0.1,0.1,0.2,0.3,0.3,0.5c0.1,0.2,0.2,0.4,0.4,0.4l0.3,0.1c0.1,0,0.2,0,0.3,0.1c0.1,0,0.2,0,0.2,0
		c-1.6-0.1-3.1-0.8-4.3-1.9L14.7,16.9z M12.9,7.2l-1.3-1.3c1.7-1.6,3.9-2.5,6.3-2.6v1.9C16,5.2,14.2,5.9,12.9,7.2L12.9,7.2z
		 M12.4,7.7c-1.3,1.4-2,3.1-2.1,5H8.5c0.1-2.3,1-4.6,2.6-6.3L12.4,7.7z M10.4,13.3c0,0.3,0,0.6,0.1,1c0,0,0-0.1-0.1-0.1
		c-0.1-0.1-0.2-0.2-0.3-0.2c-0.1,0-0.1,0-0.2,0.1c0,0.1-0.1,0.1-0.1,0.2c-0.1,0.1-0.3,0.2-0.5,0.2c-0.1,0.1-0.2,0.3-0.3,0.5
		c0,0.1,0,0.1,0,0.2c0,0.1,0,0.1-0.1,0.2c0.1,0.1,0.1,0.2,0,0.2c0,0.1,0,0.1,0,0.1c0,0-0.1,0-0.1,0c0,0,0,0.1-0.1,0.1
		c-0.2-0.8-0.4-1.6-0.4-2.4L10.4,13.3z M17.9,25.3c-3-0.1-5.9-1.3-8.1-3.4l1.4-1.4c1.8,1.7,4.2,2.7,6.7,2.8V25.3z M17.9,22.6
		c-2.3-0.1-4.5-1-6.3-2.6c0.1,0.1,0.2,0.1,0.4,0.1c0.1,0,0.2,0,0.3-0.1c0.1-0.1,0.3-0.1,0.4-0.2c0.1,0,0.3,0,0.4-0.1
		c0.1,0,0.2,0,0.3,0c0.1,0,0.2-0.1,0.2-0.2c0-0.1-0.1-0.2-0.2-0.2c-0.1-0.1-0.2-0.1-0.2-0.2c0,0,0-0.1-0.1-0.1
		c-0.1-0.1-0.2-0.2-0.3-0.3l0,0c1.4,1.3,3.1,2,5,2.1L17.9,22.6z M18.2,17.8L18.2,17.8c-0.1,0-0.3,0-0.4-0.1c0,0,0-0.1,0-0.1
		c0.1,0,0.1-0.1,0.2-0.1c0.1-0.1,0.2-0.1,0.3-0.1v-0.1l0.3-0.2c0,0,0.1,0,0.1,0c0.1,0,0.2-0.1,0.2-0.1c0.1,0,0.2,0.1,0.3,0.2
		c0.1,0.1,0.2,0.1,0.3,0.2l0-0.2c0.1,0,0.1,0.1,0.3,0.2c0.1,0,0.2,0,0.2-0.1c0-0.1,0-0.1,0-0.2c0,0,0.1,0,0.1,0c0,0,0,0,0.1,0
		c0,0,0,0,0.1,0h0c0.1,0,0.2-0.1,0.2-0.1c0.1-0.1,0.2-0.1,0.2-0.2c0,0,0.1,0,0.1,0c0,0,0,0,0,0c0,0.1,0.1,0.1,0,0.2
		c0,0.2-0.1,0.4-0.4,0.5c-0.2,0.1-0.4,0.2-0.6,0.3c0,0.1-0.1,0.1-0.1,0.2c0,0.1-0.1,0.2-0.2,0.2c-0.2,0-0.4,0-0.5-0.1
		c-0.1-0.1-0.1-0.2-0.1-0.3c-0.1,0-0.2,0-0.3,0l-0.4,0.1C18.3,17.8,18.3,17.8,18.2,17.8L18.2,17.8z M20.1,16.4
		c0-0.1,0.1-0.2,0.2-0.3c0.1,0,0.2-0.1,0.3-0.1c0,0.1-0.1,0.2-0.2,0.3C20.3,16.4,20.2,16.4,20.1,16.4L20.1,16.4z M21.4,15.3
		c0.1,0.1,0.2,0.2,0.2,0.3c0,0.1,0,0.2-0.1,0.2c0,0,0,0,0,0c-0.1,0-0.2-0.1-0.2-0.3c-0.2-0.1-0.3-0.2-0.3-0.3s0-0.2,0-0.2
		c0.1,0,0.1,0,0.2-0.1c0.1,0,0.1,0,0,0.2C21.2,15.2,21.3,15.3,21.4,15.3L21.4,15.3z M25.6,8.1C25.6,8.1,25.6,8.1,25.6,8.1
		c0.2,0,0.3,0.1,0.4,0.1c0.2,0.2,0.4,0.4,0.5,0.6c0,0,0.1,0,0.1,0.1c0,0.1,0.1,0.1,0.2,0.1c0.1,0,0.2,0,0.2-0.1c0,0,0-0.1,0-0.1
		c0.5,1.2,0.8,2.4,0.9,3.7H26c0,0,0,0,0,0c0-0.2,0-0.3-0.1-0.5c-0.1-0.2-0.1-0.4-0.1-0.6c0-0.1,0-0.2,0-0.4c-0.1,0-0.1,0-0.2,0
		c0,0.1-0.1,0.1-0.1,0.2c0,0.1-0.1,0.2-0.1,0.2v0c0,0,0,0.1,0,0.1c0,0,0,0.1,0,0.1c0,0.1-0.1,0.2-0.1,0.3c0,0.1,0,0.2,0,0.3
		c0,0,0,0,0,0c0,0,0,0.1,0,0.1h-0.9c0.1-0.1,0.1-0.1,0.2-0.1h0l0.3-0.1c-0.1,0-0.1-0.1-0.1-0.1c0-0.1,0-0.1,0-0.1s0.1,0,0.3-0.1
		c0.1-0.1,0.2-0.3,0.2-0.4c0.2-0.3,0.3-0.6,0.3-0.9c0-0.1-0.1-0.2-0.1-0.2c0-0.1,0-0.1,0-0.2c0-0.3,0.1-0.8-0.3-0.9c0,0,0,0,0-0.1
		c0.1-0.1,0.1-0.2,0.1-0.3h-0.3c0-0.1,0-0.1,0.1-0.2c0-0.1,0.1-0.1,0.1-0.2c0-0.1,0-0.1-0.1-0.1c0,0,0,0,0,0c-0.1,0-0.2,0-0.2,0
		c0,0-0.1,0-0.1,0c0,0,0,0-0.1,0c0,0,0-0.1-0.1-0.1c0-0.2-0.1-0.3-0.2-0.4c-0.1-0.1-0.2-0.2-0.3-0.3c0,0,0,0,0,0c0-0.1,0-0.1,0-0.2
		l0.4-0.4l0.5,0.2c0,0.1,0,0.2,0.1,0.3c0.1,0,0.1,0.1,0.2,0.1c0.1,0,0.1,0.1,0.2,0.2v0C25.5,8.1,25.5,8.1,25.6,8.1L25.6,8.1z
		 M23.8,20.6c0,0-0.1,0-0.1,0c0,0-0.1,0-0.1-0.1c0-0.1,0-0.1,0.1-0.2c0.1-0.1,0.2-0.2,0.2-0.3c0-0.1,0.1-0.2,0.1-0.3
		c0,0,0-0.1-0.1-0.1c-0.1,0-0.1-0.1-0.2-0.1c-0.1,0-0.1-0.1-0.2-0.1c-0.1,0-0.2-0.1-0.2-0.1c-0.1,0-0.1-0.1-0.1-0.2
		c0-0.1,0-0.1,0.1-0.2c0,0,0-0.1,0-0.1c0,0,0.1-0.1,0.1-0.1l1,1c0,0.1,0.1,0.2,0.2,0.2l0.1,0.1c-0.3,0.3-0.7,0.6-1.1,0.9
		c0,0,0-0.1,0.1-0.1c0,0,0,0,0.1,0C23.8,20.7,23.8,20.7,23.8,20.6L23.8,20.6z M23.2,15.9c-0.1,0-0.2,0-0.3,0c-0.1,0-0.2,0.1-0.3,0.3
		c0,0,0,0,0,0c0,0,0,0,0,0c-0.1,0-0.1,0-0.2,0c-0.1,0-0.1,0.1-0.2,0.1c-0.1,0-0.1,0-0.1-0.1c0-0.1,0.1-0.1,0.4-0.2
		c0.1-0.1,0.2-0.2,0.2-0.3c0.1,0,0.1-0.1,0.2-0.1c0.1-0.1,0.2-0.2,0.3-0.3c0.1-0.1,0.1-0.2,0.2-0.3h0c0,0.1,0.1,0.2,0.2,0.2
		c0.1,0,0.2-0.1,0.2-0.3c0.1,0,0.2,0.1,0.4,0.1c0.1,0,0.3-0.1,0.3-0.2h0.5l0,0l0,0h0c-0.3,1-0.8,1.8-1.4,2.6c0,0,0-0.1,0-0.1
		c0,0-0.1-0.4-0.2-0.4c-0.1,0-0.1,0.1-0.2,0.3c-0.1,0.2-0.1,0.3-0.2,0.4l-0.4,0.1c-0.1,0-0.3,0-0.4,0c-0.1,0-0.3-0.1-0.4-0.2
		c-0.1-0.1-0.2-0.1-0.4-0.2c-0.1,0-0.2-0.1-0.4-0.1c-0.2,0-0.2-0.1-0.2-0.1c0-0.1,0.1-0.1,0.2-0.1c0.1,0,0.2,0,0.3,0.1
		c0.2,0,0.3,0.1,0.5,0.1c0.2,0,0.3,0.1,0.5,0.1c0.1,0,0.2,0.1,0.3,0.1l0.3-0.1c0-0.1,0-0.2,0.1-0.2c0-0.1,0.1-0.2,0.1-0.2
		c0.1-0.2,0.1-0.3,0.2-0.5c0-0.2,0.1-0.3,0.1-0.5C23.3,16,23.3,15.9,23.2,15.9L23.2,15.9z M24.3,13.3h1c0,0.4-0.1,0.8-0.2,1.3
		c-0.1-0.1-0.1-0.3-0.2-0.4l-0.4-0.3c0-0.1-0.1-0.2-0.1-0.3c0,0,0-0.1-0.1-0.1C24.4,13.4,24.4,13.3,24.3,13.3L24.3,13.3z M24.7,18.6
		c-0.1,0-0.1,0-0.1,0.1c0,0.1,0,0.2,0,0.3l-0.6-0.6c0.9-0.9,1.5-2.1,1.8-3.3c0,0,0,0,0,0c0.1,0.1,0.2,0.1,0.3,0c0,0,0.1-0.1,0.1-0.1
		c0-0.1-0.1-0.2-0.2-0.3h-0.1c0.1-0.4,0.1-0.7,0.1-1.1h1.9c-0.1,2.3-1,4.6-2.6,6.3l-0.1-0.1c0,0,0,0,0,0c0-0.2-0.1-0.4-0.1-0.6
		C25,18.7,24.9,18.6,24.7,18.6L24.7,18.6z M24.3,9.2C24.3,9.2,24.3,9.2,24.3,9.2c0,0.1,0,0.2,0,0.2c0,0.1-0.1,0.1-0.1,0.2
		c0.1,0.1,0.2,0.2,0.3,0.3c0.1,0.1,0.3,0.2,0.4,0.3c0.1,0.2,0.2,0.3,0.2,0.5c0.1,0.1,0.1,0.3,0.1,0.5c0,0.1-0.1,0.2-0.1,0.3
		c-0.1,0.2-0.3,0.3-0.4,0.3l0,0c0-0.1,0-0.2,0.1-0.3c0-0.1,0.1-0.2,0.1-0.3c0.1-0.1,0.2-0.1,0.2-0.3c-0.1,0-0.1,0-0.1-0.1
		c-0.1-0.1-0.2-0.1-0.2-0.2c0-0.1-0.1-0.1-0.3-0.1c-0.1,0-0.2,0-0.2,0.1c-0.1,0-0.1,0.1-0.2,0.1l-0.1-0.2c0-0.1,0-0.1,0-0.2
		l-0.3-0.6c-0.1-0.1-0.3-0.1-0.5-0.2c-0.1,0-0.2,0-0.3,0c-0.1,0-0.2,0-0.3,0c-0.1,0-0.2,0-0.3,0.1c-0.1,0.1-0.2,0.2-0.3,0.3
		c0,0.1,0,0.1-0.1,0.1c0,0-0.1-0.1-0.1-0.1l2-2c0,0,0,0,0,0.1c0,0,0.1,0.1,0.2,0.2c0.1,0.1,0.1,0.1,0.2,0.2C24,8.8,24.2,9,24.3,9.2
		L24.3,9.2z M19.6,22.1c0.2,0.1,0.4,0.2,0.6,0.3c-0.5,0.1-1.1,0.2-1.6,0.2v-1.9l0,0c0.1,0.1,0.2,0.2,0.3,0.3c0.1,0,0.3,0.1,0.4,0.1
		c0.2,0,0.3,0.1,0.3,0.1c0,0.1,0,0.1-0.1,0.2c0,0.1-0.1,0.1-0.1,0.2C19.3,21.8,19.4,22,19.6,22.1L19.6,22.1z M18.5,25.3v-2
		c0.7,0,1.4-0.1,2.1-0.3c0,0,0,0,0,0c0,0,0,0,0,0.1c0.2,0.1,0.3,0.2,0.4,0.4c0.1,0.1,0.2,0.2,0.5,0.2c0.1,0,0.2,0,0.3-0.1
		c0-0.1,0.1-0.1,0.2-0.2c0.1-0.1,0.1-0.1,0.2-0.1c0.1,0,0.1-0.1,0.2-0.1c0.1,0,0.2-0.1,0.3-0.3c0.1-0.1,0.2-0.2,0.3-0.3
		c0.1,0,0.1,0,0.2-0.1c0.1-0.1,0.1-0.3,0.2-0.5c0,0,0,0,0.1,0c0,0,0,0,0-0.1c0.7-0.4,1.3-0.9,1.9-1.4l1.4,1.4
		C24.4,24,21.5,25.2,18.5,25.3L18.5,25.3z M27.1,21.4L25.7,20c1.7-1.8,2.7-4.2,2.8-6.7h2C30.4,16.3,29.2,19.2,27.1,21.4L27.1,21.4z
		 M30.5,12.6h-2c-0.1-2.1-0.8-4.1-2-5.8c0-0.1-0.1-0.1-0.1-0.2c0,0-0.1-0.1-0.1-0.1C26.1,6.4,26,6.2,25.8,6c0,0,0-0.1-0.1-0.1
		l1.4-1.4C29.2,6.7,30.4,9.6,30.5,12.6L30.5,12.6z M18.5,0.7c3,0.1,5.9,1.3,8.1,3.4l-1.2,1.2c0-0.1-0.1-0.1-0.1-0.2
		c-0.1-0.1-0.2-0.1-0.2-0.1c-0.1,0-0.2-0.2-0.2-0.3c0-0.1,0-0.2-0.1-0.3c-0.2-0.1-0.3-0.2-0.4-0.4c-0.1-0.2-0.2-0.3-0.3-0.3
		c-0.1,0-0.2,0-0.3,0c-0.1,0-0.2-0.1-0.3-0.1c-0.1,0-0.2,0-0.3,0c-0.1,0-0.2,0.1-0.3,0.1c0,0,0,0,0,0c-1.3-0.7-2.7-1-4.2-1.1
		c0.1-0.2,0.1-0.3,0-0.4c0,0-0.1,0-0.2,0.1L18.5,0.7z M18.5,3.3c1.4,0,2.8,0.4,4,1c0,0,0,0,0,0c0.1,0.1,0.1,0.1,0.2,0.2
		c0.1,0.1,0.1,0.1,0.2,0.2c0,0.1,0.1,0.3,0.1,0.4c0,0.1,0.1,0.1,0.1,0.2c0,0.1,0,0.3,0.1,0.4c0.1,0.1,0.1,0.2,0.2,0.4
		c0.1,0,0.1,0,0.2,0c0.1,0,0.1,0,0.2,0c0.1,0,0.1,0,0.2,0.1c0.1,0.1,0.1,0.2,0.2,0.3c0,0,0,0.1,0,0.1L23.6,7l0,0
		c-0.1-0.2-0.1-0.5-0.3-0.7c-0.1-0.1-0.2-0.1-0.3-0.1c0,0-0.1-0.2-0.3-0.4c-0.2-0.2-0.3-0.3-0.3-0.3c0,0-0.1,0-0.1,0
		c0,0.1,0.1,0.1,0.1,0.2c0,0,0.1,0.1,0.2,0.3c0,0,0,0.1-0.1,0.1c0,0,0,0,0,0c0,0.1,0.1,0.2,0.2,0.2l0,0.1l0.1,0.3
		c-1.2-0.9-2.7-1.4-4.3-1.5L18.5,3.3z M18.5,5.8c1.7,0.1,3.3,0.7,4.5,1.9L21.7,9c-0.9-0.8-2-1.2-3.2-1.3V5.8z M18.5,8.3
		c0.9,0.1,1.8,0.4,2.6,1c0,0-0.1,0-0.1,0c0,0-0.1,0-0.1,0.1c0,0,0,0,0,0.1c0,0.1,0.1,0.1,0.2,0.1l-0.5,0.5v0c-0.1,0-0.1,0.1-0.2,0.1
		c-0.1,0.1-0.2,0.1-0.2,0.2c0,0,0,0.1,0,0.1l-0.2,0.2c0,0,0,0-0.1,0c-0.1,0-0.1-0.1-0.3-0.2c-0.1-0.1-0.2-0.2-0.3-0.2
		c-0.1,0-0.1,0-0.2,0.1c0,0-0.1,0.1-0.2,0c-0.1-0.1,0-0.1,0.2-0.2s0.3-0.1,0.4-0.2c0.2-0.2,0.4-0.4,0.4-0.7c0-0.1-0.1-0.2-0.2-0.2
		l-0.1,0.1c-0.1,0.1-0.2,0.1-0.3,0.2c-0.1,0.1-0.2,0.2-0.2,0.2c-0.1,0-0.2,0-0.3,0h-0.3c0,0,0,0,0,0L18.5,8.3z M18.1,11.3
		C18.1,11.3,18.2,11.4,18.1,11.3c0.2,0.1,0.2,0.1,0.3,0.1c0.1,0,0.1,0.1,0.2,0c0,0,0,0.1,0,0.1c0,0.1,0.1,0.1,0.2,0.1
		c0,0,0,0,0.1,0.1c0,0,0,0,0,0c0,0.1,0,0.1,0.1,0.2c0,0,0,0,0,0c0,0,0,0,0,0c0,0,0.1,0,0.1,0c0,0,0.1,0,0.1,0c0,0,0,0.1,0,0.1h0
		c0,0,0,0.1,0,0.1c0,0.1,0,0.1,0,0.2v0.1c0,0,0,0,0,0c-0.1,0.1-0.1,0.2-0.1,0.3c0,0.1,0,0.1,0.1,0.1c0.1,0,0.1,0,0.2,0.1
		c0.1,0.1,0.1,0.2,0.1,0.3v0.4c0,0.1,0,0.1,0.1,0.1c0,0,0.1,0.1,0.1,0.1c0,0.1,0,0.2,0,0.3c0,0.1-0.1,0.2-0.1,0.3c0,0-0.1,0-0.2,0
		c-0.1,0-0.2,0-0.3,0c-0.1,0-0.1,0.1-0.2,0.3c-0.1,0.1-0.1,0.3-0.1,0.4c0,0.1-0.1,0.2-0.2,0.2c-0.1,0-0.1,0-0.2,0c0,0,0,0,0,0
		l-0.1,0.2l0,0.1c-0.5,0-1-0.2-1.3-0.6l0.2-0.2c0.1,0,0.3,0,0.4-0.1c0,0,0.1,0,0.1,0c0.2-0.1,0.2-0.3,0.3-0.5
		c0.1-0.1,0.3-0.3,0.1-0.4c0.2-0.3-0.7-0.3-0.9-0.3c-0.2,0.1-0.1,0.3-0.2,0.4c-0.1,0.1-0.1,0.1-0.2,0.1c-0.1,0.1-0.3,0.3-0.3,0.4
		l0,0c-0.1-0.1-0.1-0.2-0.1-0.3c0,0,0,0,0,0c0,0,0-0.1,0-0.1h0v0c0.1,0,0.2,0,0.2,0c0-0.1,0-0.2,0.1-0.2c0.1-0.2,0.1-0.3,0.2-0.5
		c-0.1,0-0.1-0.1-0.1-0.1c0-0.1,0-0.1-0.1,0c-0.1,0-0.1,0.1-0.1,0.1c0,0.1,0,0.1-0.1,0.2c0,0.1-0.1,0.1-0.2,0.1c0-0.1,0-0.1-0.1-0.1
		c0,0,0,0,0,0c-0.1,0-0.1,0-0.2,0.1c-0.1,0-0.2,0-0.4,0c-0.1,0-0.3,0-0.4,0c-0.1-0.1,0-0.1,0.2-0.2c0-0.2,0.1-0.4,0.2-0.5
		c0.1,0,0.2,0.1,0.3,0.1l0.1-0.1h0c0.1,0,0.1,0.1,0.2,0.2s0,0.2,0.1,0.2c0.1,0,0.1,0,0.2-0.1v-0.2c0.1-0.2,0.1-0.4,0.1-0.5v-0.1
		c0-0.1,0.1-0.2,0.1-0.2h0c0.1,0,0.1-0.1,0.2-0.1c0-0.1,0.1-0.2,0.1-0.3c0.1,0,0.2-0.1,0.5-0.2c0.2-0.1,0.3-0.2,0.3-0.3c0,0,0,0,0,0
		c0.1,0,0.2,0,0.3,0C18.1,11.2,18.1,11.3,18.1,11.3z M17.9,0.7v2c-2.5,0.1-4.9,1.1-6.7,2.8L9.7,4C11.9,1.9,14.8,0.7,17.9,0.7
		L17.9,0.7z M9.3,4.5l1.4,1.4c-1.7,1.8-2.7,4.2-2.8,6.7h-2C6,9.6,7.2,6.7,9.3,4.5z"/>
	<path id="Path_468_5_" class="st3" d="M52.8,32V0"/>
</g>
</svg>
