<?xml version="1.0" encoding="utf-8"?>
<!-- Generator: Adobe Illustrator 24.3.0, SVG Export Plug-In . SVG Version: 6.00 Build 0)  -->
<svg version="1.1" id="Layer_1" xmlns="http://www.w3.org/2000/svg" xmlns:xlink="http://www.w3.org/1999/xlink" x="0px" y="0px"
	 viewBox="0 0 316 32" style="enable-background:new 0 0 316 32;" xml:space="preserve">
<style type="text/css">
	.st0{enable-background:new    ;}
	.st1{fill:#1B344A;}
	.st2{fill:#5090CD;}
	.st3{fill:none;stroke:#B7B6B6;stroke-width:0.4167;}
</style>
<g>
	<g class="st0">
		<path class="st1" d="M77.6,0.47c1.49,0,2.67,0.38,3.53,1.15c0.86,0.77,1.29,1.77,1.29,3.01c0,1.25-0.43,2.25-1.29,3
			c-0.86,0.76-2.04,1.14-3.53,1.14h-2.2v2.89l1.39,0.27v1.57h-5.39v-1.57l1.39-0.27V2.32l-1.39-0.27V0.47h1.39H77.6z M75.4,6.76h2.2
			c0.73,0,1.28-0.2,1.65-0.59c0.37-0.4,0.56-0.9,0.56-1.52c0-0.63-0.19-1.14-0.56-1.55c-0.37-0.41-0.92-0.61-1.65-0.61h-2.2V6.76z"
			/>
		<path class="st1" d="M81.01,11.93l0.93-0.13L85.9,0.47h2.67l3.94,11.32l0.93,0.13v1.57h-4.44v-1.57l0.9-0.16l-0.57-1.79h-4.22
			l-0.57,1.79l0.9,0.16v1.57h-4.44V11.93z M85.73,8.06h2.99l-1.47-4.59H87.2L85.73,8.06z"/>
		<path class="st1" d="M107.61,0.47v1.57l-1.39,0.27V13.5h-2.6l-5.26-8.76L98.3,4.74v6.92l1.4,0.27v1.57H94.3v-1.57l1.39-0.27V2.32
			L94.3,2.05V0.47h1.39h2.61l5.26,8.76l0.05-0.01V2.32l-1.4-0.27V0.47h4H107.61z"/>
		<path class="st1" d="M120.35,7.08c0,1.91-0.55,3.48-1.64,4.73c-1.09,1.25-2.52,1.87-4.28,1.87c-1.76,0-3.18-0.62-4.26-1.87
			c-1.08-1.25-1.62-2.82-1.62-4.73v-0.2c0-1.9,0.54-3.47,1.62-4.72s2.5-1.88,4.26-1.88c1.76,0,3.19,0.63,4.29,1.88
			c1.09,1.25,1.64,2.83,1.64,4.72V7.08z M117.75,6.87c0-1.35-0.28-2.44-0.84-3.28s-1.39-1.26-2.49-1.26s-1.92,0.42-2.46,1.25
			c-0.54,0.84-0.81,1.93-0.81,3.29v0.21c0,1.37,0.27,2.48,0.82,3.31c0.55,0.84,1.36,1.26,2.46,1.26c1.1,0,1.93-0.42,2.49-1.26
			c0.55-0.84,0.83-1.94,0.83-3.31V6.87z"/>
		<path class="st1" d="M127.25,0.47c1.48,0,2.64,0.34,3.48,1.01c0.84,0.68,1.26,1.61,1.26,2.8c0,0.66-0.18,1.23-0.53,1.71
			c-0.35,0.48-0.87,0.87-1.55,1.17c0.77,0.23,1.32,0.6,1.66,1.13c0.34,0.53,0.51,1.18,0.51,1.96v0.66c0,0.29,0.06,0.51,0.17,0.67
			c0.11,0.16,0.3,0.25,0.56,0.28l0.32,0.04v1.57h-1.35c-0.85,0-1.45-0.23-1.8-0.69c-0.35-0.46-0.52-1.05-0.52-1.78v-0.74
			c0-0.63-0.17-1.13-0.51-1.49c-0.34-0.36-0.81-0.55-1.43-0.57h-2.14v3.43l1.39,0.27v1.57h-5.39v-1.57l1.39-0.27V2.32l-1.39-0.27
			V0.47h1.39H127.25z M125.4,6.22h1.81c0.73,0,1.27-0.16,1.64-0.47c0.36-0.31,0.55-0.76,0.55-1.34s-0.18-1.05-0.54-1.4
			c-0.36-0.35-0.89-0.52-1.6-0.52h-1.85V6.22z"/>
		<path class="st1" d="M133.86,11.93l0.93-0.13l3.96-11.32h2.67l3.94,11.32l0.93,0.13v1.57h-4.44v-1.57l0.9-0.16l-0.57-1.79h-4.22
			l-0.57,1.79l0.9,0.16v1.57h-4.44V11.93z M138.58,8.06h2.99l-1.47-4.59h-0.05L138.58,8.06z"/>
		<path class="st1" d="M159.71,3.86l-0.05-0.01l-3.49,9.64h-1.75l-3.47-9.61L150.9,3.9l0.25,5.71v2.05l1.39,0.27v1.57h-5.39v-1.57
			l1.39-0.27V2.32l-1.39-0.27V0.47h1.39h3.41l3.32,9.6h0.05l3.34-9.6h4.81v1.57l-1.4,0.27v9.35l1.4,0.27v1.57h-5.39v-1.57l1.39-0.27
			V9.61L159.71,3.86z"/>
		<path class="st1" d="M164.27,11.93l0.93-0.13l3.96-11.32h2.67l3.94,11.32l0.93,0.13v1.57h-4.44v-1.57l0.9-0.16l-0.57-1.79h-4.22
			l-0.57,1.79l0.9,0.16v1.57h-4.44V11.93z M168.99,8.06h2.99l-1.47-4.59h-0.05L168.99,8.06z"/>
		<path class="st1" d="M182.05,2.05V0.47h5.39v1.57l-1.39,0.27v3.76h5.31V2.32l-1.4-0.27V0.47h1.4h2.6h1.4v1.57l-1.4,0.27v9.35
			l1.4,0.27v1.57h-5.39v-1.57l1.4-0.27V8.09h-5.31v3.58l1.39,0.27v1.57h-5.39v-1.57l1.39-0.27V2.32L182.05,2.05z"/>
		<path class="st1" d="M201.6,0.47v1.57l-1.4,0.27v6.8c0,0.86,0.23,1.5,0.69,1.93c0.46,0.43,1.1,0.64,1.9,0.64
			c0.82,0,1.46-0.21,1.92-0.63c0.47-0.42,0.7-1.07,0.7-1.93v-6.8l-1.39-0.27V0.47h5.39v1.57l-1.4,0.27v6.8
			c0,1.46-0.48,2.59-1.44,3.38c-0.96,0.79-2.23,1.19-3.79,1.19c-1.56,0-2.81-0.4-3.77-1.19c-0.96-0.79-1.44-1.92-1.44-3.38v-6.8
			l-1.39-0.27V0.47h1.39h2.61H201.6z"/>
		<path class="st1" d="M222.76,3.86l-0.05-0.01l-3.49,9.64h-1.75L214,3.89l-0.05,0.01l0.25,5.71v2.05l1.39,0.27v1.57h-5.39v-1.57
			l1.39-0.27V2.32l-1.39-0.27V0.47h1.39h3.41l3.32,9.6h0.05l3.34-9.6h4.81v1.57l-1.4,0.27v9.35l1.4,0.27v1.57h-5.39v-1.57l1.39-0.27
			V9.61L222.76,3.86z"/>
		<path class="st1" d="M227.32,11.93l0.93-0.13l3.96-11.32h2.67l3.94,11.32l0.93,0.13v1.57h-4.44v-1.57l0.9-0.16l-0.57-1.79h-4.22
			l-0.57,1.79l0.9,0.16v1.57h-4.44V11.93z M232.04,8.06h2.99l-1.47-4.59h-0.05L232.04,8.06z"/>
		<path class="st1" d="M253.91,0.47v1.57l-1.4,0.27V13.5h-2.6l-5.26-8.76l-0.05,0.01v6.92l1.39,0.27v1.57h-5.39v-1.57l1.39-0.27
			V2.32l-1.39-0.27V0.47h1.39h2.61l5.26,8.76l0.05-0.01V2.32l-1.4-0.27V0.47h4H253.91z"/>
		<path class="st1" d="M254.75,2.05V0.47h5.39v1.57l-1.39,0.27v9.35l1.39,0.27v1.57h-5.39v-1.57l1.39-0.27V2.32L254.75,2.05z"/>
		<path class="st1" d="M272.6,0.47v3.47h-2l-0.11-1.46h-2.4v9.18l1.39,0.27v1.57h-5.4v-1.57l1.4-0.27V2.49h-2.39l-0.11,1.46h-1.99
			V0.47H272.6z"/>
		<path class="st1" d="M271.7,11.93l0.93-0.13l3.96-11.32h2.67l3.94,11.32l0.93,0.13v1.57h-4.44v-1.57l0.9-0.16l-0.57-1.79h-4.22
			l-0.57,1.79l0.9,0.16v1.57h-4.44V11.93z M276.43,8.06h2.99l-1.47-4.59h-0.05L276.43,8.06z"/>
		<path class="st1" d="M290.84,0.47c1.48,0,2.64,0.34,3.48,1.01c0.84,0.68,1.26,1.61,1.26,2.8c0,0.66-0.18,1.23-0.53,1.71
			c-0.35,0.48-0.87,0.87-1.55,1.17c0.77,0.23,1.32,0.6,1.66,1.13c0.34,0.53,0.51,1.18,0.51,1.96v0.66c0,0.29,0.06,0.51,0.17,0.67
			c0.11,0.16,0.3,0.25,0.56,0.28l0.32,0.04v1.57h-1.35c-0.85,0-1.45-0.23-1.8-0.69c-0.35-0.46-0.52-1.05-0.52-1.78v-0.74
			c0-0.63-0.17-1.13-0.51-1.49c-0.34-0.36-0.81-0.55-1.43-0.57h-2.14v3.43l1.39,0.27v1.57h-5.39v-1.57l1.39-0.27V2.32l-1.39-0.27
			V0.47h1.39H290.84z M288.99,6.22h1.81c0.73,0,1.27-0.16,1.64-0.47c0.36-0.31,0.55-0.76,0.55-1.34s-0.18-1.05-0.54-1.4
			c-0.36-0.35-0.89-0.52-1.6-0.52h-1.85V6.22z"/>
		<path class="st1" d="M297.58,2.05V0.47h5.39v1.57l-1.39,0.27v9.35l1.39,0.27v1.57h-5.39v-1.57l1.39-0.27V2.32L297.58,2.05z"/>
		<path class="st1" d="M315.87,7.08c0,1.91-0.55,3.48-1.64,4.73c-1.09,1.25-2.52,1.87-4.28,1.87c-1.76,0-3.18-0.62-4.26-1.87
			c-1.08-1.25-1.62-2.82-1.62-4.73v-0.2c0-1.9,0.54-3.47,1.62-4.72c1.08-1.25,2.5-1.88,4.26-1.88c1.76,0,3.19,0.63,4.29,1.88
			c1.09,1.25,1.64,2.83,1.64,4.72V7.08z M313.26,6.87c0-1.35-0.28-2.44-0.84-3.28c-0.56-0.84-1.39-1.26-2.49-1.26
			s-1.92,0.42-2.46,1.25c-0.54,0.84-0.81,1.93-0.81,3.29v0.21c0,1.37,0.27,2.48,0.82,3.31c0.55,0.84,1.36,1.26,2.45,1.26
			c1.1,0,1.93-0.42,2.49-1.26c0.55-0.84,0.83-1.94,0.83-3.31V6.87z"/>
	</g>
	<g class="st0">
		<path class="st1" d="M82.2,30.36c-0.42,0.42-1.04,0.79-1.85,1.13c-0.81,0.34-1.84,0.5-3.08,0.5c-1.76,0-3.19-0.59-4.29-1.77
			c-1.1-1.18-1.65-2.71-1.65-4.59v-0.45c0-1.95,0.54-3.54,1.63-4.76c1.09-1.22,2.51-1.83,4.26-1.83c1.02,0,1.95,0.16,2.79,0.49
			c0.84,0.33,1.55,0.76,2.11,1.32v2.62h-1.93l-0.37-1.74c-0.24-0.2-0.55-0.37-0.94-0.49c-0.39-0.12-0.84-0.18-1.35-0.18
			c-1.14,0-2.02,0.42-2.66,1.26c-0.63,0.84-0.95,1.94-0.95,3.3v0.47c0,1.32,0.31,2.38,0.93,3.17C75.48,29.6,76.37,30,77.54,30
			c0.52,0,0.95-0.04,1.27-0.13c0.33-0.09,0.58-0.19,0.76-0.31v-2.21l-1.86-0.14v-1.83h4.48V30.36z"/>
		<path class="st1" d="M83.51,31.81v-1.57l1.39-0.27v-9.35l-1.39-0.27v-1.57h1.39h2.61h1.39v1.57l-1.39,0.27v9.18h3.68l0.12-1.64
			h1.99v3.64H83.51z"/>
		<path class="st1" d="M105.92,25.4c0,1.91-0.55,3.48-1.64,4.73C103.19,31.38,101.76,32,100,32c-1.76,0-3.18-0.62-4.26-1.87
			c-1.08-1.25-1.62-2.82-1.62-4.73v-0.2c0-1.9,0.54-3.47,1.62-4.72c1.08-1.25,2.5-1.88,4.26-1.88c1.76,0,3.19,0.63,4.29,1.88
			c1.09,1.25,1.64,2.83,1.64,4.72V25.4z M103.32,25.19c0-1.35-0.28-2.44-0.84-3.28c-0.56-0.84-1.39-1.26-2.49-1.26
			c-1.1,0-1.92,0.42-2.46,1.25c-0.54,0.84-0.81,1.93-0.81,3.29v0.21c0,1.37,0.27,2.48,0.82,3.31c0.55,0.84,1.36,1.26,2.46,1.26
			c1.1,0,1.93-0.42,2.49-1.26c0.55-0.84,0.83-1.94,0.83-3.31V25.19z"/>
		<path class="st1" d="M112.75,18.79c1.53,0,2.73,0.3,3.59,0.89c0.86,0.6,1.29,1.49,1.29,2.67c0,0.6-0.16,1.14-0.48,1.61
			c-0.32,0.47-0.78,0.83-1.39,1.07c0.78,0.17,1.37,0.52,1.76,1.07c0.39,0.55,0.59,1.18,0.59,1.9c0,1.25-0.41,2.19-1.23,2.83
			c-0.82,0.64-1.99,0.96-3.5,0.96h-6.4v-1.57l1.39-0.27v-9.35l-1.39-0.27v-1.57h1.39H112.75z M110.96,24.25h1.88
			c0.7,0,1.23-0.14,1.61-0.43c0.38-0.29,0.56-0.7,0.56-1.25c0-0.6-0.19-1.05-0.57-1.33c-0.38-0.29-0.94-0.43-1.69-0.43h-1.79V24.25z
			 M110.96,26.05v3.76h2.41c0.69,0,1.22-0.15,1.58-0.45c0.36-0.3,0.55-0.75,0.55-1.34c0-0.64-0.16-1.13-0.47-1.46
			c-0.31-0.34-0.8-0.51-1.47-0.51H110.96z"/>
		<path class="st1" d="M118.94,30.25l0.93-0.13l3.96-11.32h2.67l3.94,11.32l0.93,0.13v1.57h-4.44v-1.57l0.9-0.16l-0.57-1.79h-4.22
			l-0.57,1.79l0.9,0.16v1.57h-4.44V30.25z M123.66,26.37h2.99l-1.47-4.59h-0.05L123.66,26.37z"/>
		<path class="st1" d="M132.23,31.81v-1.57l1.39-0.27v-9.35l-1.39-0.27v-1.57h1.39h2.61h1.39v1.57l-1.39,0.27v9.18h3.68l0.13-1.64
			h1.99v3.64H132.23z"/>
		<path class="st2" d="M147.82,31.81V30.6l4.27-4.74c0.76-0.85,1.28-1.53,1.55-2.03c0.27-0.5,0.41-1.01,0.41-1.54
			c0-0.65-0.19-1.2-0.57-1.64c-0.38-0.44-0.89-0.67-1.51-0.67c-0.9,0-1.56,0.23-1.99,0.69c-0.42,0.46-0.64,1.11-0.64,1.95h-1.69
			l-0.02-0.05c-0.03-1.12,0.34-2.06,1.11-2.83c0.77-0.76,1.84-1.15,3.22-1.15c1.17,0,2.11,0.34,2.8,1.02
			c0.69,0.68,1.04,1.55,1.04,2.61c0,0.71-0.21,1.42-0.63,2.13c-0.42,0.71-1.01,1.48-1.78,2.3l-3.43,3.73l0.02,0.04h4.62l0.14-1.49
			h1.49v2.87H147.82z"/>
		<path class="st2" d="M166.44,26.85c0,1.66-0.37,2.94-1.11,3.82c-0.74,0.89-1.75,1.33-3.03,1.33c-1.28,0-2.29-0.44-3.03-1.33
			c-0.75-0.89-1.12-2.16-1.12-3.82v-3.09c0-1.66,0.37-2.93,1.11-3.82c0.74-0.89,1.75-1.34,3.02-1.34c1.28,0,2.3,0.45,3.04,1.34
			c0.75,0.89,1.12,2.17,1.12,3.82V26.85z M164.68,23.39c0-1.13-0.2-1.98-0.61-2.54c-0.41-0.57-1-0.85-1.78-0.85
			c-0.77,0-1.36,0.28-1.76,0.85c-0.41,0.57-0.61,1.42-0.61,2.54v3.82c0,1.13,0.21,1.98,0.62,2.55c0.41,0.58,1,0.86,1.77,0.86
			c0.78,0,1.37-0.29,1.78-0.86c0.4-0.57,0.6-1.43,0.6-2.56V23.39z"/>
		<path class="st2" d="M168.38,31.81V30.6l4.27-4.74c0.76-0.85,1.28-1.53,1.55-2.03c0.27-0.5,0.41-1.01,0.41-1.54
			c0-0.65-0.19-1.2-0.57-1.64c-0.38-0.44-0.89-0.67-1.51-0.67c-0.9,0-1.56,0.23-1.99,0.69c-0.42,0.46-0.64,1.11-0.64,1.95h-1.69
			l-0.02-0.05c-0.03-1.12,0.34-2.06,1.11-2.83c0.77-0.76,1.84-1.15,3.22-1.15c1.17,0,2.11,0.34,2.8,1.02
			c0.69,0.68,1.04,1.55,1.04,2.61c0,0.71-0.21,1.42-0.63,2.13c-0.42,0.71-1.01,1.48-1.78,2.3l-3.43,3.73l0.02,0.04h4.62l0.14-1.49
			h1.49v2.87H168.38z"/>
		<path class="st2" d="M178.71,30.69l2.01-0.25v-9.76l-2.05,0.04v-1.1l3.81-0.82v11.64l2,0.25v1.13h-5.78V30.69z"/>
	</g>
	<path id="Path_469_10_" class="st2" d="M3.78,8.44c0.46-0.37,1.01-0.83,1.64-1.37c0.23-0.2,0.42-0.37,0.56-0.52
		C6.14,6.4,6.26,6.23,6.35,6.04c0.12-0.24,0.22-0.49,0.3-0.75l0.41-1.22H7.02C6.86,4.47,6.6,4.84,6.27,5.14
		C5.95,5.41,5.62,5.66,5.27,5.89C4.89,6.15,4.53,6.44,4.19,6.75C3.79,7.14,3.46,7.59,3.22,8.1V8.06C3.48,7.31,3.67,6.68,3.8,6.17
		C3.93,5.65,4.04,5.2,4.14,4.81C4.23,4.46,4.36,4.12,4.53,3.8c0.19-0.32,0.45-0.6,0.75-0.82V2.95C4.5,3.15,3.82,3.64,3.39,4.32
		C2.9,5.03,2.64,5.87,2.65,6.73v3.01C2.95,9.24,3.33,8.8,3.78,8.44z M5.81,4.77c0.39-0.4,0.75-0.82,1.1-1.27
		c0.33-0.43,0.64-0.84,0.94-1.22c0.3-0.38,0.64-0.74,1.01-1.05L8.82,1.19C8.54,1.43,8.21,1.6,7.85,1.7
		C7.42,1.84,7.01,2.02,6.63,2.26C6.13,2.58,5.71,3,5.38,3.48C4.9,4.24,4.55,5.08,4.35,5.95C4.88,5.62,5.37,5.22,5.81,4.77L5.81,4.77
		z M0.99,16c0.3,0.44,0.62,0.86,0.96,1.27c0.4,0.47,0.75,0.98,1.05,1.52h0.03C3,18.57,2.98,18.34,2.98,18.11v-0.6
		c0.03-0.39,0.11-0.77,0.24-1.14c0.16-0.53,0.33-1.12,0.51-1.76c0.18-0.64,0.33-1.3,0.46-1.95c0.13-0.58,0.16-1.17,0.11-1.76H4.27
		c-0.09,0.39-0.25,0.76-0.45,1.1c-0.22,0.36-0.44,0.73-0.67,1.12c-0.24,0.4-0.44,0.81-0.61,1.25c-0.18,0.46-0.26,0.95-0.26,1.44
		c0.01,0.24,0.04,0.48,0.1,0.71c0.05,0.18,0.08,0.36,0.1,0.54H2.44c-0.11-0.61-0.27-1.22-0.48-1.8c-0.21-0.57-0.42-1.1-0.63-1.59
		c-0.21-0.49-0.38-0.93-0.52-1.33c-0.12-0.32-0.19-0.65-0.21-0.99c0-0.23,0.01-0.46,0.03-0.69c0.02-0.21,0.03-0.43,0.03-0.64H0.6
		c-0.14,0.37-0.25,0.74-0.34,1.12c-0.13,0.45-0.2,0.91-0.21,1.37c-0.02,0.7,0.07,1.41,0.26,2.08C0.47,15.07,0.7,15.56,0.99,16
		L0.99,16z M8.81,27.64c0.16,0.02,0.31,0.02,0.47,0.02c0.22,0,0.43-0.01,0.64-0.04c0.2-0.03,0.46-0.07,0.77-0.13
		c0.31-0.06,0.72-0.15,1.22-0.28c0.5-0.13,1.17-0.29,2-0.49c-0.54-0.14-1.02-0.28-1.42-0.41c-0.45-0.16-0.86-0.41-1.2-0.75
		c-0.49-0.43-0.97-0.87-1.46-1.33c-0.38-0.35-0.78-0.69-1.16-1.04c-0.11-0.1-0.67-0.6-0.83-0.76L7.8,22.49
		c0.07,0.1,0.59,1.17,0.59,1.17s0.08,0.11,0.12,0.18c0.14,0.25,0.28,0.51,0.42,0.77c0.05,0.1,0.11,0.2,0.16,0.31
		c0.17,0.33,0.41,0.62,0.71,0.83c0.53,0.43,1.14,0.73,1.8,0.9v0.04c-0.36-0.06-0.67-0.11-0.92-0.15c-0.25-0.04-0.48-0.08-0.69-0.11
		c-0.21-0.03-0.42-0.05-0.63-0.06c-0.26-0.02-0.52-0.03-0.77-0.07c-0.2-0.03-0.4-0.07-0.6-0.09c-0.2-0.02-0.4-0.05-0.6-0.07
		c-0.1-0.01-0.21-0.02-0.31-0.03c-0.36-0.04-0.72-0.1-1.08-0.19c-0.34-0.09-0.67-0.23-0.97-0.41C4.66,25.26,4.32,25,4,24.7
		l-0.04,0.04c0.17,0.29,0.36,0.56,0.58,0.82c0.27,0.32,0.58,0.61,0.91,0.86c0.39,0.31,0.82,0.56,1.27,0.74
		c0.54,0.22,1.11,0.36,1.68,0.44C8.4,27.6,8.68,27.63,8.81,27.64L8.81,27.64z M2.11,14.2h0.05c0.02-0.23,0.07-0.46,0.13-0.69
		c0.08-0.25,0.19-0.5,0.32-0.73c0.2-0.36,0.42-0.7,0.66-1.03c0.28-0.4,0.67-0.95,1.15-1.63c0.3-0.46,0.53-0.97,0.68-1.5
		c0.17-0.57,0.28-0.99,0.34-1.25H5.39C5.34,7.5,5.28,7.62,5.2,7.73c-0.07,0.1-0.16,0.21-0.28,0.34C4.81,8.21,4.66,8.36,4.48,8.53
		C4.29,8.7,4.05,8.93,3.74,9.22c-0.47,0.39-0.85,0.87-1.1,1.42c-0.18,0.46-0.32,0.93-0.42,1.42H2.17c0.02-0.23,0.03-0.45,0.04-0.67
		c0.01-0.21,0.01-0.49,0.01-0.84c0-0.43-0.03-0.93-0.08-1.5C2.08,8.47,2.06,7.73,2.06,6.81c0-0.28,0.06-0.56,0.17-0.82
		c0.11-0.26,0.21-0.5,0.3-0.73H2.48C1.94,5.91,1.53,6.64,1.24,7.43c-0.21,0.64-0.32,1.32-0.33,2c0.01,0.77,0.15,1.54,0.44,2.25
		C1.67,12.5,1.92,13.34,2.11,14.2L2.11,14.2z M6.59,25.32l1.8,0.39l0.93,0.21c-0.34-0.37-0.65-0.78-0.91-1.21
		c-0.23-0.37-0.42-0.77-0.56-1.18c-0.17-0.47-0.42-1.09-0.73-1.87c-0.08-0.24-0.17-0.46-0.28-0.69c-0.1-0.2-0.22-0.41-0.34-0.62
		c-0.13-0.21-0.29-0.46-0.47-0.73c-0.19-0.27-0.42-0.61-0.71-1.01l-0.04,0.04c0.08,0.29,0.21,0.8,0.36,1.55
		c0.16,0.74,0.31,1.45,0.45,2.1c0.09,0.49,0.28,0.95,0.58,1.35c0.35,0.46,0.74,0.89,1.18,1.27l-0.04,0.04
		c-0.38-0.17-0.73-0.4-1.04-0.69c-0.48-0.39-1-0.72-1.55-0.99c-0.88-0.43-1.74-0.91-2.57-1.44c-0.62-0.42-1.11-1.01-1.4-1.7
		l-0.04,0.04c0.16,0.68,0.43,1.34,0.8,1.93c0.35,0.56,0.78,1.07,1.28,1.5c0.48,0.43,1.02,0.79,1.6,1.07C5.4,25,5.99,25.2,6.59,25.32
		L6.59,25.32z M2.57,20.9L5.74,23c-0.14-0.29-0.26-0.56-0.36-0.82c-0.1-0.28-0.18-0.57-0.23-0.86c-0.06-0.32-0.1-0.67-0.14-1.05
		c-0.04-0.39-0.09-0.85-0.14-1.4c-0.11-0.94-0.21-1.67-0.29-2.19c-0.1-0.57-0.25-1.13-0.46-1.68H4.07c0,0.42-0.02,0.83-0.06,1.25
		c-0.04,0.32-0.1,0.63-0.17,0.94C3.76,17.49,3.7,17.75,3.66,18c-0.05,0.28-0.07,0.56-0.07,0.84c0.02,0.42,0.12,0.83,0.28,1.22
		c0.15,0.42,0.32,0.83,0.52,1.22l-0.04,0.04c-0.42-0.68-0.9-1.32-1.44-1.91c-0.47-0.5-0.9-0.96-1.29-1.37
		c-0.36-0.38-0.69-0.79-0.99-1.22c-0.29-0.45-0.47-0.97-0.54-1.5c-0.03,0.13-0.06,0.27-0.08,0.41C0.01,15.85,0,15.99,0,16.13
		c0,0.5,0.09,1.01,0.26,1.48c0.16,0.49,0.38,0.96,0.64,1.4c0.24,0.41,0.52,0.79,0.84,1.14C1.98,20.43,2.26,20.68,2.57,20.9
		L2.57,20.9z M28.67,2.28c0.3,0.39,0.62,0.79,0.94,1.22c0.34,0.44,0.71,0.87,1.1,1.27c0.44,0.45,0.93,0.84,1.46,1.18
		c-0.2-0.88-0.54-1.71-1.03-2.47C30.81,3,30.39,2.58,29.9,2.26c-0.38-0.24-0.79-0.42-1.22-0.56c-0.36-0.1-0.69-0.27-0.97-0.52
		l-0.04,0.04C28.04,1.55,28.37,1.9,28.67,2.28L28.67,2.28z M31.49,25.5c-0.3,0.18-0.63,0.32-0.97,0.41
		c-0.35,0.09-0.72,0.15-1.08,0.19c-0.1,0.01-0.21,0.02-0.31,0.03l-0.6,0.07c-0.2,0.02-0.4,0.06-0.6,0.09
		c-0.25,0.04-0.52,0.05-0.77,0.07c-0.21,0.01-0.42,0.04-0.63,0.06c-0.21,0.03-0.44,0.06-0.69,0.11s-0.56,0.09-0.92,0.15v-0.04
		c0.66-0.16,1.28-0.47,1.8-0.9c0.3-0.22,0.54-0.5,0.71-0.83c0.05-0.1,0.11-0.2,0.16-0.31c0.14-0.26,0.28-0.51,0.42-0.77
		c0.03-0.06,0.12-0.18,0.12-0.18s0.53-1.06,0.59-1.17l-0.04-0.04c-0.16,0.16-0.73,0.66-0.83,0.76c-0.39,0.35-0.78,0.68-1.16,1.04
		c-0.49,0.46-0.97,0.9-1.46,1.33c-0.34,0.33-0.75,0.59-1.2,0.75c-0.4,0.13-0.87,0.26-1.42,0.41c0.83,0.2,1.5,0.37,2,0.49
		c0.5,0.13,0.91,0.22,1.22,0.28c0.32,0.06,0.57,0.1,0.77,0.13c0.21,0.03,0.43,0.04,0.64,0.04c0.17,0,0.33-0.01,0.47-0.02
		c0.14-0.01,0.41-0.04,0.41-0.04c0.58-0.07,1.14-0.22,1.68-0.44c0.46-0.18,0.89-0.43,1.27-0.74c0.33-0.26,0.63-0.55,0.91-0.86
		c0.22-0.25,0.42-0.53,0.58-0.82l-0.04-0.04C32.21,25,31.86,25.27,31.49,25.5L31.49,25.5z M33.9,21.87
		c-0.83,0.53-1.68,1.01-2.57,1.44c-0.56,0.26-1.08,0.6-1.55,0.99c-0.3,0.28-0.65,0.52-1.04,0.69l-0.04-0.04
		c0.44-0.38,0.83-0.8,1.18-1.27c0.29-0.4,0.49-0.86,0.58-1.35c0.14-0.66,0.29-1.36,0.45-2.1c0.16-0.74,0.28-1.26,0.36-1.55
		l-0.04-0.04c-0.29,0.4-0.53,0.74-0.71,1.01c-0.19,0.27-0.34,0.52-0.47,0.73c-0.13,0.21-0.24,0.42-0.34,0.62
		c-0.11,0.22-0.2,0.45-0.28,0.69c-0.32,0.77-0.56,1.4-0.73,1.87c-0.14,0.41-0.33,0.81-0.56,1.18c-0.26,0.43-0.57,0.84-0.91,1.21
		l0.93-0.21l1.8-0.39c0.6-0.12,1.18-0.33,1.73-0.6c0.58-0.29,1.12-0.65,1.6-1.07c0.5-0.44,0.93-0.94,1.28-1.5
		c0.37-0.6,0.64-1.25,0.8-1.93l-0.04-0.04C35,20.86,34.52,21.45,33.9,21.87L33.9,21.87z M35.2,13.64c-0.21,0.49-0.42,1.02-0.63,1.59
		c-0.21,0.59-0.37,1.19-0.48,1.8h-0.04c0.02-0.18,0.06-0.36,0.1-0.54c0.06-0.23,0.09-0.47,0.1-0.71c0-0.49-0.08-0.98-0.26-1.44
		c-0.17-0.43-0.37-0.85-0.61-1.25c-0.23-0.39-0.45-0.76-0.67-1.12c-0.21-0.34-0.36-0.71-0.45-1.1h-0.04
		c-0.05,0.59-0.01,1.18,0.11,1.76c0.13,0.66,0.29,1.31,0.46,1.95c0.18,0.64,0.35,1.23,0.51,1.76c0.13,0.37,0.21,0.75,0.24,1.14v0.6
		c0,0.23-0.02,0.46-0.05,0.69h0.03c0.3-0.54,0.65-1.05,1.05-1.52c0.35-0.4,0.67-0.82,0.96-1.27c0.29-0.45,0.52-0.93,0.68-1.44
		c0.19-0.68,0.28-1.38,0.26-2.08c-0.01-0.47-0.08-0.93-0.21-1.37c-0.09-0.38-0.21-0.75-0.35-1.12h-0.05c0,0.21,0.01,0.43,0.03,0.64
		c0.02,0.23,0.03,0.46,0.03,0.69c-0.02,0.34-0.09,0.67-0.21,0.99C35.58,12.72,35.41,13.16,35.2,13.64L35.2,13.64z M33.89,10.64
		c-0.26-0.55-0.64-1.03-1.1-1.42c-0.31-0.29-0.56-0.52-0.74-0.69c-0.18-0.17-0.33-0.32-0.45-0.45c-0.1-0.11-0.19-0.22-0.28-0.34
		c-0.08-0.11-0.14-0.24-0.19-0.37h-0.04c0.06,0.26,0.17,0.67,0.34,1.25c0.15,0.53,0.38,1.04,0.68,1.5c0.48,0.69,0.86,1.23,1.15,1.63
		c0.24,0.33,0.46,0.68,0.66,1.03c0.13,0.23,0.24,0.48,0.32,0.73c0.06,0.22,0.1,0.45,0.13,0.69h0.05c0.19-0.85,0.44-1.69,0.75-2.51
		c0.29-0.72,0.44-1.48,0.44-2.25c0-0.68-0.11-1.35-0.33-2c-0.28-0.79-0.7-1.52-1.24-2.17H34c0.08,0.23,0.18,0.47,0.3,0.73
		c0.11,0.26,0.17,0.54,0.17,0.82c0,0.92-0.03,1.66-0.08,2.23c-0.05,0.57-0.08,1.07-0.08,1.5c0,0.34,0.01,0.62,0.01,0.84
		s0.02,0.44,0.04,0.67h-0.04C34.21,11.57,34.07,11.1,33.89,10.64L33.89,10.64z M31.99,3.81c0.17,0.32,0.3,0.66,0.39,1.01
		c0.1,0.39,0.21,0.84,0.34,1.35c0.13,0.52,0.32,1.15,0.58,1.89V8.1c-0.24-0.51-0.57-0.96-0.97-1.35c-0.34-0.31-0.7-0.6-1.08-0.86
		c-0.34-0.23-0.67-0.48-0.99-0.75c-0.33-0.3-0.59-0.66-0.76-1.07h-0.04l0.41,1.22c0.08,0.26,0.18,0.51,0.3,0.75
		c0.09,0.19,0.22,0.36,0.37,0.52c0.14,0.14,0.33,0.32,0.56,0.52c0.63,0.54,1.18,1,1.64,1.37c0.45,0.36,0.83,0.8,1.12,1.29V6.73
		c0.01-0.86-0.25-1.7-0.73-2.41c-0.44-0.68-1.11-1.17-1.89-1.37V3C31.55,3.21,31.81,3.49,31.99,3.81L31.99,3.81z M27.02,28.52
		c-0.24,0-0.48-0.02-0.71-0.06c-0.22-0.04-0.48-0.09-0.79-0.15v0.01c-0.25-0.08-0.54-0.18-0.87-0.29c-0.33-0.11-0.73-0.26-1.19-0.43
		c-0.8-0.29-1.42-0.5-1.83-0.65c-0.39-0.14-0.81-0.21-1.23-0.22c-0.42,0.01-0.84,0.06-1.25,0.15c-0.43,0.09-0.74,0.17-0.94,0.22
		c-0.18-0.06-0.48-0.13-0.9-0.22c-0.41-0.09-0.83-0.14-1.25-0.15c-0.42,0-0.83,0.08-1.22,0.21c-0.41,0.14-1.02,0.36-1.82,0.64
		c-0.94,0.34-1.64,0.58-2.1,0.72c-0.46,0.14-0.94,0.21-1.42,0.21c-0.2,0-0.4-0.01-0.6-0.04c-0.18-0.02-0.35-0.07-0.51-0.13
		c0,0-0.4-0.12-0.63-0.21c-0.23-0.1-0.5-0.22-0.82-0.37L6.9,27.81c0.46,0.44,0.97,0.83,1.51,1.16c0.72,0.44,1.54,0.68,2.38,0.69
		c0.31,0,0.62-0.02,0.92-0.06c0.28-0.05,0.55-0.12,0.81-0.24c0.27-0.11,0.57-0.26,0.9-0.43c0.33-0.17,0.72-0.4,1.18-0.68
		c0.49-0.31,0.89-0.56,1.22-0.75c0.35-0.19,0.74-0.29,1.14-0.28c0.18,0,0.35,0.03,0.52,0.09c-0.57,0.31-1.22,0.69-1.96,1.13
		c-0.79,0.49-1.5,1.08-2.13,1.77l0.73,0.64c0.64-0.75,1.34-1.44,2.1-2.06c0.59-0.51,1.26-0.93,1.98-1.22c0.73,0.3,1.4,0.71,2,1.22
		c0.77,0.62,1.49,1.3,2.13,2.06l0.73-0.64c-0.63-0.69-1.35-1.28-2.15-1.77c-0.74-0.44-1.4-0.82-1.98-1.13
		c0.18-0.05,0.37-0.08,0.56-0.09c0.4-0.01,0.79,0.09,1.14,0.28c0.33,0.19,0.74,0.44,1.23,0.75c0.43,0.26,0.8,0.48,1.12,0.66
		c0.28,0.17,0.58,0.31,0.88,0.43c0.26,0.1,0.53,0.17,0.8,0.24c0.28,0.06,0.56,0.09,0.84,0.08h0.17c0.67-0.02,1.34-0.16,1.96-0.43
		c0.74-0.31,1.4-0.8,1.91-1.42v-0.04c-0.46,0.22-0.94,0.42-1.42,0.58C27.78,28.47,27.4,28.52,27.02,28.52z M36.52,16.06
		c0-0.04,0-0.09,0-0.13c0-0.07-0.01-0.13-0.02-0.2c-0.02-0.13-0.05-0.27-0.08-0.41c-0.06,0.54-0.24,1.05-0.53,1.5
		c-0.3,0.43-0.63,0.84-0.98,1.22l-0.07,0.07c-0.37,0.4-0.78,0.83-1.22,1.3c-0.53,0.58-1,1.21-1.41,1.88l-0.01-0.01
		c0.2-0.4,0.37-0.8,0.5-1.22c0.15-0.39,0.24-0.8,0.26-1.22c0-0.28-0.02-0.56-0.06-0.84c-0.04-0.24-0.09-0.51-0.15-0.79
		c-0.06-0.29-0.11-0.6-0.15-0.94c-0.05-0.41-0.07-0.83-0.06-1.25h-0.04c0,0.01-0.01,0.02-0.01,0.03c0-0.01,0-0.02,0-0.03h-0.04
		c-0.21,0.54-0.36,1.1-0.46,1.68c-0.08,0.51-0.18,1.24-0.29,2.19c-0.06,0.54-0.1,1.01-0.14,1.4c-0.04,0.39-0.09,0.74-0.14,1.05
		c-0.05,0.29-0.13,0.58-0.23,0.86c-0.08,0.22-0.19,0.45-0.3,0.69c-0.02,0.04-0.04,0.08-0.07,0.12L30.8,23c0,0,0,0.01-0.01,0.01
		l1.06-0.71l2.14-1.4c0.31-0.22,0.59-0.47,0.84-0.75c0.31-0.35,0.59-0.73,0.82-1.14c0.15-0.27,0.29-0.55,0.41-0.84
		c0.08-0.18,0.15-0.36,0.22-0.56c0.17-0.48,0.25-0.98,0.26-1.48v0C36.53,16.11,36.53,16.08,36.52,16.06z M24.03,3.41
		c0.08,0.03,0.16,0.08,0.23,0.13c0.05,0.05,0.1,0.11,0.14,0.17c0.03,0.05,0.09,0.08,0.14,0.09c0.08,0,0.13-0.03,0.13-0.09
		s-0.01-0.08-0.02-0.06c-0.01,0.01-0.02-0.01-0.02-0.06c0.01-0.09-0.02-0.19-0.08-0.26c-0.09-0.11-0.24-0.14-0.38-0.09
		c-0.02-0.02-0.05-0.04-0.08-0.04h-0.04c-0.08,0-0.13,0.03-0.13,0.09C23.93,3.35,23.97,3.4,24.03,3.41L24.03,3.41z M19.48,2.38h0.09
		c0.17-0.06,0.34-0.1,0.52-0.11h0.6c0.1,0.01,0.19-0.03,0.26-0.11c0.05-0.06,0.09-0.13,0.13-0.2c-0.13-0.16-0.31-0.27-0.52-0.31
		c-0.14-0.02-0.29-0.04-0.43-0.04c-0.18,0.03-0.35,0.09-0.52,0.16c-0.29,0.1-0.46,0.17-0.52,0.2c-0.14-0.03-0.23,0-0.26,0.09
		c0.07,0.07,0.15,0.14,0.24,0.2C19.19,2.35,19.33,2.39,19.48,2.38L19.48,2.38z M18.18,25.91c7.16,0,12.96-5.8,12.96-12.96
		S25.34,0,18.18,0C11.02,0,5.22,5.8,5.22,12.96C5.23,20.11,11.03,25.91,18.18,25.91L18.18,25.91z M5.89,13.29h1.97
		c0.03,0.87,0.16,1.72,0.41,2.55c-0.06-0.01-0.12-0.05-0.15-0.11l-0.06-0.06l-0.22-0.3L7.48,15.5c0,0.2-0.07,0.27-0.21,0.22
		c-0.04-0.05-0.11-0.08-0.17-0.09c-0.21-0.01-0.4,0.15-0.41,0.36c0,0,0,0,0,0.01c-0.03,0.16-0.06,0.33-0.07,0.5l0.3,0.78
		c0.06,0.09,0.14,0.1,0.26,0.04c0.08,0.11,0.17,0.21,0.26,0.3c0.06,0.06,0.14,0.09,0.22,0.09c0.09,0,0.13-0.04,0.13-0.13h0.04
		c0.06,0.06,0.12,0.13,0.18,0.19c0.06,0.08,0.14,0.14,0.22,0.19v-0.04c0.1,0.1,0.23,0.15,0.36,0.15c0.04,0.18,0.13,0.34,0.25,0.48
		c0.09,0.1,0.21,0.17,0.34,0.17c0.07,0,0.13-0.04,0.17-0.09c0.05,0.16,0.12,0.3,0.22,0.43c0.07,0.04,0.15,0.08,0.21,0.13
		c0.06,0.04,0.12,0.08,0.17,0.13h0.09l0,0c0.04,0.13,0.11,0.25,0.21,0.35c0.08,0.08,0.17,0.15,0.26,0.22
		c-0.01,0-0.02,0.01-0.03,0.01c0.01,0,0.02,0.01,0.02,0.01c0.01,0,0.02,0,0.03,0c0.03,0.03,0.06,0.07,0.09,0.1l-1.39,1.39
		C7.17,19.22,5.97,16.32,5.89,13.29L5.89,13.29z M15.38,9.65c-0.04-0.03-0.08-0.05-0.11-0.07l-0.13-0.13
		c0.76-0.66,1.71-1.06,2.72-1.13V9.7c-0.02-0.01-0.04-0.02-0.06-0.03c-0.01-0.01-0.02-0.03-0.03-0.04c0,0-0.01,0-0.01,0
		c-0.03-0.02-0.07-0.03-0.1-0.02c-0.02,0-0.03,0-0.05,0.01c0,0-0.01,0-0.01-0.01c-0.03,0-0.06,0.01-0.1,0.01
		c-0.03,0.01-0.07,0.02-0.1,0.02c-0.02,0-0.04,0-0.05-0.01c-0.05-0.05-0.07-0.12-0.06-0.2l-0.01,0c0,0,0-0.01,0-0.01
		c-0.12,0.06-0.18,0.11-0.2,0.17c-0.01,0.06-0.04,0.16-0.07,0.3c-0.03,0.11-0.11,0.2-0.22,0.24c-0.1,0.03-0.19,0.08-0.26,0.15
		l-0.13-0.09h-0.22c-0.04-0.04-0.08-0.08-0.13-0.11c-0.03-0.02-0.06-0.04-0.09-0.07c-0.03-0.03-0.04-0.03-0.04,0
		c-0.06,0-0.11,0.04-0.11,0.1l-0.13-0.13l0.03-0.01V9.89C15.61,9.8,15.5,9.72,15.38,9.65L15.38,9.65z M14.67,8.99l-1.32-1.32
		c1.24-1.13,2.83-1.79,4.51-1.87v1.87C16.68,7.74,15.56,8.2,14.67,8.99L14.67,8.99z M15.42,15.22c0.07-0.07,0.04-0.19,0.06-0.28
		l-0.15,0.14c0.1-0.09,0.19-0.2,0.26-0.32c0.04-0.08,0.08-0.16,0.13-0.24h0.01c0.05,0.09,0.1,0.18,0.16,0.27L14.68,16
		c-0.49-0.56-0.83-1.23-1-1.95c0.1,0.01,0.21,0.04,0.3,0.08c0.1,0.08,0.19,0.16,0.27,0.25c0.06,0,0.12-0.01,0.17-0.04l0.17,0.13
		c-0.01,0.07,0.01,0.15,0.04,0.21c0,0.03,0.04,0.07,0.13,0.11c0.07,0.03,0.13,0.08,0.18,0.15l0.09-0.04c0-0.06-0.01-0.12-0.02-0.17
		c-0.01-0.09-0.01-0.13,0.02-0.13l0.09,0.3l0.09,0.34l-0.01,0.01C15.27,15.28,15.35,15.27,15.42,15.22L15.42,15.22z M17.99,16.6
		c0.07,0.07,0.11,0.12,0.11,0.15c0,0.09-0.11,0.13-0.34,0.13c-0.09,0-0.14,0.08-0.17,0.25c-0.03,0.16-0.06,0.3-0.09,0.41
		c-0.02,0-0.05-0.01-0.07-0.01c0,0.01,0,0.01,0.01,0.01c-0.85-0.14-1.64-0.51-2.29-1.07l1.17-1.17c0.44,0.42,1.02,0.69,1.63,0.75
		c0,0.06,0.01,0.13,0.04,0.18c-0.06,0.06-0.09,0.13-0.09,0.22C17.89,16.47,17.92,16.52,17.99,16.6L17.99,16.6z M12.25,16.68
		c-0.01-0.25-0.04-0.49-0.09-0.73c-0.03-0.13-0.08-0.26-0.13-0.39c-0.02-0.2-0.06-0.4-0.14-0.58c-0.11-0.2-0.25-0.38-0.41-0.54
		v-0.25c-0.02-0.09-0.05-0.17-0.09-0.25v-0.04c-0.01-0.05,0.02-0.09,0.07-0.11c0.05-0.01,0.2-0.07,0.46-0.16
		c-0.01-0.13,0.01-0.27,0.04-0.4l0.31,0.05c0.09,0,0.13-0.06,0.13-0.18c-0.02-0.09-0.05-0.18-0.09-0.27
		c-0.05-0.1-0.07-0.2-0.09-0.31c0-0.06,0.04-0.11,0.13-0.16c0.08-0.04,0.17-0.07,0.26-0.07c0.12-0.01,0.24,0.05,0.3,0.15
		c0.06,0.1,0.09,0.21,0.09,0.32c0,0.08-0.01,0.16-0.02,0.23c-0.01,0.06-0.02,0.13-0.02,0.19l0.09,0.04
		c-0.06,0.28-0.17,0.43-0.34,0.43c-0.08,0-0.15-0.04-0.19-0.11c-0.03-0.06-0.08-0.1-0.15-0.11c-0.02,0-0.04,0.01-0.04,0.03
		c0,0,0,0.01,0,0.01c0,0.06,0.01,0.12,0.04,0.18c0.03,0.07,0.05,0.14,0.04,0.22c0,0.2-0.09,0.28-0.27,0.22
		c-0.06,0.11,0,0.16,0.18,0.16c0.06,0.17,0.12,0.25,0.18,0.22c0.05-0.09,0.08-0.19,0.09-0.29c0.02-0.12,0.05-0.23,0.09-0.34
		l0.04,0.04l0.18-0.04c0,0.02,0.01,0.04,0.01,0.06c0.02,0,0.04,0,0.05,0c0.17,0.95,0.6,1.83,1.24,2.55l-1.83,1.82
		c-0.08-0.07-0.12-0.18-0.1-0.29c0.04-0.17,0.22-0.28,0.24-0.47l0.04-0.34C12.43,17.04,12.33,16.87,12.25,16.68L12.25,16.68z
		 M11.21,13.98c0.03,0.05,0.04,0.11,0.04,0.17c0,0.09-0.03,0.12-0.09,0.11c-0.01,0-0.02,0-0.03,0c-0.06-0.32-0.1-0.65-0.11-0.98
		h0.36c0,0.06-0.02,0.12-0.04,0.18c-0.03,0.06-0.07,0.12-0.11,0.17c-0.04,0.05-0.06,0.11-0.06,0.17
		C11.16,13.87,11.18,13.92,11.21,13.98L11.21,13.98z M11.02,12.63c0.08-1.67,0.74-3.27,1.87-4.51l1.32,1.32
		c-0.01,0.01-0.02,0.03-0.04,0.04c-0.08,0.02-0.16,0.05-0.23,0.08c-0.06,0.07-0.12,0.15-0.19,0.25c-0.14,0.06-0.28,0.13-0.41,0.22
		c-0.12,0.11-0.23,0.22-0.32,0.34c-0.17,0.09-0.28,0.14-0.32,0.15c-0.06,0.02-0.11,0.06-0.15,0.11c0.06,0.14,0.06,0.22,0,0.24
		c-0.06,0.01-0.2,0.05-0.43,0.11c-0.03,0-0.06,0.02-0.09,0.04l-0.13,0.13c-0.03,0.05-0.04,0.1-0.04,0.15c0,0.05-0.02,0.1-0.04,0.15
		c-0.09,0.06-0.16,0.13-0.21,0.22c-0.05,0.12-0.05,0.26,0,0.39l0.05,0.43c0,0-0.01,0-0.02,0c0.02,0.04,0.03,0.09,0.04,0.13
		L11.02,12.63z M14.67,16.93c0.66,0.58,1.45,0.99,2.3,1.19c-0.06,0.02-0.13,0.04-0.19,0.06c-0.13,0.03-0.24,0.14-0.26,0.28
		c0,0.13-0.08,0.26-0.19,0.33c-0.1,0.04-0.14,0.11-0.11,0.2c0.14,0.14,0.25,0.32,0.3,0.52c0.06,0.2,0.23,0.36,0.43,0.39l0.26,0.09
		c0.09,0.01,0.18,0.04,0.26,0.1c0.08,0.01,0.15,0.02,0.23,0.04c-1.62-0.11-3.15-0.76-4.35-1.86L14.67,16.93z M12.89,7.2l-1.31-1.31
		c1.71-1.6,3.94-2.53,6.28-2.6v1.85C16.01,5.22,14.25,5.95,12.89,7.2L12.89,7.2z M12.42,7.66c-1.25,1.36-1.99,3.12-2.06,4.97H8.51
		c0.08-2.34,1-4.57,2.6-6.28L12.42,7.66z M10.36,13.29c0.01,0.32,0.05,0.64,0.1,0.96c-0.02-0.04-0.05-0.08-0.07-0.13
		c-0.1-0.14-0.19-0.21-0.26-0.21c-0.08-0.01-0.15,0.04-0.17,0.11c-0.03,0.07-0.07,0.14-0.13,0.19c-0.14,0.11-0.31,0.18-0.48,0.22
		c-0.13,0.15-0.22,0.32-0.26,0.52c-0.03,0.06-0.02,0.13,0.02,0.17c0.04,0.06,0.02,0.11-0.07,0.17c0.06,0.12,0.07,0.19,0.04,0.22
		c0.03,0.06,0.02,0.08-0.02,0.07c-0.04-0.02-0.08-0.01-0.11,0.02c-0.03,0.03-0.05,0.06-0.06,0.1c-0.23-0.78-0.36-1.59-0.39-2.4
		L10.36,13.29z M17.85,25.25c-3.03-0.08-5.93-1.28-8.13-3.37l1.39-1.39c1.83,1.72,4.23,2.72,6.74,2.8V25.25z M17.85,22.63
		c-2.33-0.08-4.55-0.99-6.25-2.58c0.11,0.06,0.23,0.09,0.36,0.1c0.12-0.01,0.24-0.04,0.35-0.09c0.14-0.06,0.27-0.12,0.39-0.18
		c0.13,0.01,0.27-0.02,0.39-0.09c0.11,0.03,0.22,0.03,0.32,0c0.1-0.02,0.16-0.12,0.15-0.22c-0.01-0.1-0.07-0.19-0.15-0.24
		c-0.1-0.07-0.15-0.14-0.15-0.19c0-0.03-0.03-0.06-0.09-0.11c-0.1-0.09-0.2-0.2-0.28-0.31l0,0c1.36,1.25,3.12,1.98,4.97,2.06
		L17.85,22.63z M18.2,17.82v-0.01c-0.15,0.01-0.29-0.01-0.43-0.07c-0.01-0.04-0.03-0.07-0.04-0.11c0.06-0.05,0.13-0.09,0.2-0.13
		c0.08-0.06,0.17-0.1,0.27-0.11v-0.11l0.32-0.24c0.03-0.02,0.07-0.03,0.11-0.04c0.08-0.02,0.17-0.05,0.24-0.09
		c0.12,0.04,0.23,0.09,0.33,0.15c0.1,0.06,0.22,0.11,0.33,0.15l0.04-0.17c0.06,0,0.14,0.06,0.26,0.17c0.08-0.01,0.15-0.04,0.22-0.09
		c0.03-0.07,0.03-0.15,0-0.21c0.05,0.01,0.09,0.02,0.13,0.04c0.02,0,0.05,0.01,0.06,0.02c0.02,0.02,0.04,0.02,0.07,0.02h0.04
		c0.09-0.01,0.17-0.05,0.24-0.11c0.08-0.06,0.15-0.11,0.24-0.15c0.02-0.02,0.05-0.03,0.08-0.01c0,0,0.01,0.01,0.01,0.01
		c0.04,0.05,0.05,0.11,0.04,0.17c0,0.23-0.15,0.44-0.37,0.52c-0.2,0.1-0.41,0.18-0.63,0.26c-0.05,0.06-0.08,0.12-0.11,0.19
		c-0.04,0.1-0.09,0.15-0.15,0.15c-0.18-0.01-0.36-0.04-0.53-0.09c-0.06-0.08-0.1-0.17-0.13-0.26c-0.1,0-0.21,0.02-0.31,0.04
		l-0.35,0.09C18.33,17.82,18.26,17.83,18.2,17.82L18.2,17.82z M20.07,16.4c0.01-0.13,0.1-0.23,0.22-0.28
		c0.11-0.04,0.23-0.06,0.35-0.06c0,0.09-0.08,0.17-0.24,0.26c-0.09,0.06-0.18,0.1-0.28,0.13L20.07,16.4z M21.41,15.34
		c0.11,0.07,0.18,0.19,0.17,0.32c0.01,0.08-0.05,0.16-0.13,0.17c-0.01,0-0.03,0-0.04,0c-0.09,0-0.16-0.1-0.22-0.3
		c-0.2-0.06-0.32-0.15-0.35-0.28s-0.01-0.21,0.04-0.24c0.06-0.03,0.11-0.05,0.17-0.06c0.06-0.01,0.07,0.05,0.04,0.19
		C21.19,15.2,21.29,15.27,21.41,15.34L21.41,15.34z M25.56,8.1c0.03,0,0.06,0.02,0.09,0.04c0.11,0,0.21,0.03,0.3,0.09
		c0.2,0.19,0.38,0.41,0.52,0.65c0.03,0,0.07,0.04,0.11,0.13c0.04,0.09,0.1,0.13,0.15,0.13c0.08-0.01,0.15-0.03,0.22-0.07
		c0.01-0.04,0.02-0.08,0.03-0.12c0.53,1.16,0.83,2.41,0.87,3.68h-1.83c0-0.01,0.01-0.02,0.01-0.03c0.01-0.17-0.02-0.33-0.1-0.48
		c-0.09-0.2-0.12-0.42-0.06-0.64c0.04-0.12,0.05-0.24,0.02-0.37c-0.06-0.01-0.12,0.01-0.17,0.04c-0.05,0.06-0.08,0.12-0.11,0.19
		c-0.04,0.1-0.08,0.18-0.11,0.24v0.02c-0.01,0.03-0.02,0.05-0.03,0.08c-0.01,0.04-0.02,0.07-0.04,0.11
		c-0.03,0.12-0.06,0.23-0.09,0.34c-0.02,0.11-0.03,0.23,0,0.35c0,0,0,0,0,0.01c0,0.04,0.01,0.09,0.01,0.13h-0.93
		c0.06-0.06,0.12-0.1,0.2-0.13h-0.03l0.25-0.13c-0.05-0.02-0.09-0.07-0.08-0.13c0-0.08,0.01-0.13,0.04-0.15s0.11-0.05,0.25-0.11
		c0.09-0.12,0.17-0.26,0.23-0.4c0.16-0.26,0.28-0.55,0.34-0.86c0-0.07-0.09-0.15-0.1-0.22c0-0.06,0.01-0.12,0.02-0.18
		c0.01-0.3,0.14-0.83-0.25-0.92c-0.03,0-0.04-0.04-0.04-0.13c0.09-0.08,0.13-0.21,0.09-0.33h-0.27c0.01-0.06,0.03-0.11,0.07-0.15
		c0.04-0.06,0.06-0.12,0.07-0.19c0.01-0.06-0.04-0.12-0.1-0.13c-0.01,0-0.02,0-0.03,0c-0.08,0-0.15,0.01-0.22,0.04
		c-0.04,0.02-0.09,0.04-0.13,0.04c-0.02,0-0.05,0-0.07-0.01c-0.02-0.03-0.04-0.06-0.07-0.09c-0.01-0.16-0.08-0.31-0.19-0.42
		c-0.09-0.11-0.21-0.2-0.35-0.25c0-0.01-0.01-0.01-0.01-0.02c0.02-0.06,0.02-0.12,0-0.18l0.36-0.36l0.52,0.19
		c-0.01,0.12,0.04,0.23,0.14,0.3c0.06,0.05,0.12,0.09,0.18,0.13c0.07,0.05,0.14,0.1,0.21,0.16v0.02C25.49,8.07,25.53,8.1,25.56,8.1
		L25.56,8.1z M23.79,20.64c-0.03-0.03-0.07-0.04-0.11-0.04c-0.04,0-0.07-0.03-0.07-0.09c0-0.06,0.04-0.11,0.13-0.17
		c0.1-0.08,0.18-0.18,0.22-0.3c0.05-0.08,0.08-0.17,0.09-0.26c0.01-0.05-0.02-0.09-0.07-0.11c-0.06-0.02-0.11-0.06-0.15-0.11
		c-0.06-0.03-0.12-0.06-0.19-0.09c-0.08-0.04-0.16-0.08-0.24-0.13c-0.08-0.04-0.13-0.13-0.13-0.22c0.01-0.07,0.03-0.15,0.06-0.21
		c0.01-0.04,0.03-0.08,0.05-0.12c0.03-0.03,0.06-0.06,0.1-0.09l1,1c0,0.12,0.07,0.18,0.2,0.2l0.11,0.11
		c-0.35,0.33-0.72,0.62-1.11,0.9c0.02-0.04,0.04-0.08,0.07-0.11c0.02-0.01,0.03-0.03,0.05-0.03C23.81,20.73,23.8,20.68,23.79,20.64
		L23.79,20.64z M23.18,15.9c-0.09-0.03-0.19-0.01-0.26,0.04c-0.12,0.04-0.22,0.13-0.26,0.25c0,0.02-0.01,0.04-0.03,0.04
		c0,0-0.01,0-0.01,0c-0.06,0-0.12,0.02-0.17,0.04c-0.07,0.02-0.15,0.05-0.22,0.09c-0.09,0-0.13-0.03-0.13-0.09
		c0-0.09,0.13-0.14,0.39-0.17c0.11-0.14,0.18-0.22,0.21-0.25c0.06-0.04,0.13-0.07,0.2-0.08c0.13-0.08,0.24-0.19,0.32-0.32
		c0.07-0.08,0.12-0.18,0.16-0.27h0.04c0,0.14,0.06,0.21,0.18,0.21c0.09,0,0.16-0.1,0.23-0.3c0.12,0.04,0.24,0.07,0.36,0.09
		c0.13,0.01,0.25-0.05,0.32-0.16h0.54l-0.01,0.04l-0.01,0.04h0c-0.3,0.95-0.79,1.83-1.45,2.58c-0.01-0.04-0.01-0.09-0.01-0.13
		c-0.01,0.01-0.13-0.39-0.16-0.39c-0.05,0-0.12,0.1-0.2,0.3c-0.08,0.2-0.14,0.33-0.16,0.39l-0.43,0.09
		c-0.13,0.03-0.26,0.05-0.39,0.04c-0.13-0.03-0.25-0.08-0.37-0.15c-0.11-0.07-0.24-0.12-0.37-0.15c-0.12-0.04-0.24-0.07-0.37-0.09
		c-0.16-0.03-0.24-0.07-0.24-0.13c0-0.09,0.06-0.13,0.17-0.13c0.12,0.01,0.23,0.03,0.34,0.07c0.17,0.04,0.34,0.09,0.52,0.13
		c0.17,0.04,0.33,0.09,0.47,0.13c0.08,0.03,0.17,0.05,0.26,0.06l0.26-0.09c0.01-0.08,0.04-0.17,0.09-0.24
		c0.05-0.07,0.08-0.15,0.09-0.24c0.07-0.15,0.13-0.31,0.16-0.47c0.04-0.17,0.06-0.34,0.07-0.52C23.32,16.01,23.27,15.93,23.18,15.9
		L23.18,15.9z M24.33,13.28h1.02c-0.02,0.42-0.08,0.85-0.17,1.26c-0.05-0.14-0.13-0.27-0.22-0.39l-0.35-0.35
		c-0.03-0.14-0.05-0.24-0.07-0.3c-0.01-0.04-0.03-0.07-0.06-0.1C24.43,13.38,24.37,13.33,24.33,13.28L24.33,13.28z M24.75,18.56
		c-0.09,0-0.13,0.02-0.13,0.06c-0.01,0.09-0.02,0.18-0.04,0.27l-0.64-0.64c0.87-0.95,1.5-2.1,1.82-3.35
		c0.01-0.01,0.02-0.02,0.03-0.03c0.15,0.06,0.24,0.06,0.28,0c0.03-0.04,0.06-0.08,0.06-0.13c0-0.09-0.07-0.2-0.21-0.34h-0.05
		c0.07-0.37,0.11-0.75,0.13-1.12h1.85c-0.08,2.34-1,4.57-2.6,6.28l-0.08-0.08c0-0.01,0-0.01,0-0.02c-0.03-0.2-0.06-0.39-0.1-0.58
		C25.03,18.67,24.92,18.56,24.75,18.56L24.75,18.56z M24.29,9.21c0,0,0,0.01,0,0.01c0,0.07-0.02,0.15-0.04,0.22
		c-0.02,0.07-0.05,0.15-0.09,0.22c0.1,0.12,0.21,0.22,0.34,0.3c0.14,0.09,0.27,0.19,0.39,0.3c0.09,0.16,0.15,0.32,0.19,0.5
		c0.05,0.15,0.09,0.3,0.11,0.46c-0.03,0.11-0.07,0.21-0.13,0.3c-0.09,0.16-0.25,0.26-0.43,0.26l-0.04-0.04
		c0.01-0.09,0.04-0.18,0.09-0.26c0.05-0.08,0.08-0.16,0.09-0.25c0.09-0.05,0.16-0.15,0.17-0.26c-0.06-0.03-0.1-0.05-0.13-0.06
		c-0.08-0.06-0.15-0.12-0.21-0.19c0-0.08-0.09-0.13-0.26-0.13c-0.08,0-0.15,0.02-0.22,0.07c-0.06,0.04-0.13,0.09-0.22,0.15
		l-0.09-0.17c0.03-0.06,0.04-0.12,0.04-0.18l-0.34-0.58c-0.15-0.08-0.31-0.13-0.47-0.15c-0.11-0.02-0.23-0.02-0.35,0.01
		c-0.11,0.02-0.23,0.01-0.34-0.02c-0.12-0.01-0.25,0.03-0.34,0.11c-0.11,0.08-0.2,0.17-0.29,0.28c-0.04,0.05,0.02,0.12-0.11,0.1
		c-0.04-0.03-0.08-0.07-0.11-0.11l1.96-1.96c0.01,0.02,0.03,0.04,0.05,0.06c0.03,0.03,0.09,0.09,0.17,0.19
		c0.06,0.07,0.12,0.15,0.19,0.23C24.03,8.8,24.17,9,24.29,9.21L24.29,9.21z M19.59,22.15c0.16,0.13,0.35,0.23,0.55,0.28
		c-0.54,0.11-1.09,0.18-1.64,0.2v-1.85l0,0c0.07,0.11,0.17,0.21,0.27,0.29c0.12,0.04,0.25,0.06,0.38,0.06
		c0.19,0.01,0.29,0.05,0.29,0.11c0,0.07-0.03,0.14-0.07,0.19c-0.04,0.06-0.06,0.12-0.06,0.19C19.32,21.83,19.42,22.03,19.59,22.15
		L19.59,22.15z M18.51,25.25v-1.97c0.72-0.02,1.44-0.12,2.14-0.29c0.01,0.01,0.01,0.03,0.02,0.04c0,0.02,0.01,0.04,0.01,0.05
		c0.17,0.11,0.32,0.25,0.43,0.41c0.06,0.11,0.22,0.17,0.47,0.17c0.1,0.01,0.2-0.02,0.28-0.09c0.05-0.06,0.1-0.12,0.15-0.17
		c0.06-0.06,0.13-0.1,0.22-0.13c0.07-0.02,0.14-0.06,0.17-0.13c0.13-0.05,0.24-0.14,0.3-0.26c0.12-0.09,0.21-0.21,0.26-0.34
		c0.07-0.01,0.13-0.05,0.17-0.11c0.08-0.14,0.14-0.29,0.17-0.45c0.03-0.01,0.05-0.03,0.07-0.04c0-0.02,0.01-0.04,0.01-0.07
		c0.67-0.39,1.29-0.86,1.86-1.39l1.39,1.39C24.44,23.97,21.54,25.17,18.51,25.25L18.51,25.25z M27.1,21.42l-1.39-1.39
		c1.72-1.83,2.72-4.23,2.8-6.74h1.97C30.4,16.32,29.2,19.22,27.1,21.42L27.1,21.42z M30.48,12.63h-1.97
		c-0.06-2.08-0.76-4.09-1.99-5.77c-0.02-0.07-0.05-0.13-0.1-0.18c-0.03-0.04-0.07-0.07-0.11-0.1c-0.16-0.2-0.33-0.4-0.51-0.59
		c-0.02-0.04-0.04-0.09-0.05-0.14L27.1,4.5C29.2,6.7,30.4,9.59,30.48,12.63L30.48,12.63z M18.51,0.66c3.04,0.08,5.93,1.28,8.13,3.37
		l-1.2,1.2c-0.03-0.06-0.05-0.12-0.07-0.18c-0.1-0.09-0.16-0.13-0.18-0.13c-0.11-0.05-0.19-0.16-0.2-0.28c0-0.1-0.04-0.2-0.11-0.28
		c-0.19-0.07-0.34-0.2-0.43-0.38c-0.12-0.2-0.23-0.3-0.35-0.3c-0.09,0.03-0.2,0.01-0.28-0.03c-0.09-0.04-0.18-0.07-0.28-0.08
		c-0.1,0-0.2,0.01-0.3,0.04c-0.11,0.03-0.22,0.06-0.34,0.08c-0.02,0.01-0.03,0.03-0.04,0.04c-1.31-0.67-2.74-1.05-4.21-1.11
		c0.11-0.18,0.13-0.3,0.04-0.35c-0.02-0.02-0.09,0.01-0.19,0.11L18.51,0.66z M18.51,3.29c1.4,0.05,2.77,0.4,4.01,1.03
		c0,0.01,0,0.02-0.01,0.03c0.05,0.05,0.11,0.11,0.17,0.19c0.07,0.09,0.12,0.14,0.15,0.17c0.03,0.13,0.08,0.26,0.13,0.38
		c0.04,0.07,0.08,0.14,0.13,0.21c-0.03,0.12,0,0.25,0.07,0.36c0.07,0.13,0.15,0.25,0.24,0.36c0.06,0,0.12-0.01,0.17-0.02
		c0.07-0.01,0.14-0.02,0.22-0.02c0.06,0,0.12,0.04,0.19,0.13c0.07,0.08,0.12,0.16,0.15,0.26c0.02,0.05,0.03,0.09,0.04,0.14
		l-0.53,0.53l0,0c-0.05-0.25-0.14-0.49-0.25-0.72c-0.09-0.08-0.22-0.12-0.34-0.11c-0.03-0.03-0.13-0.15-0.3-0.37
		c-0.17-0.22-0.27-0.33-0.3-0.33c-0.05,0-0.09,0.01-0.13,0.04c0.03,0.05,0.05,0.1,0.09,0.15c0.03,0.04,0.09,0.14,0.17,0.28
		c0.01,0.04-0.02,0.08-0.06,0.09c-0.01,0-0.01,0-0.02,0c0.02,0.11,0.11,0.19,0.22,0.22l-0.04,0.09l0.13,0.25
		c-1.25-0.91-2.73-1.43-4.28-1.49L18.51,3.29z M18.51,5.79c1.67,0.08,3.27,0.74,4.51,1.87l-1.32,1.32c-0.88-0.78-2-1.25-3.18-1.32
		V5.79z M18.51,8.33c0.94,0.07,1.84,0.42,2.57,1.01c-0.03,0.01-0.06,0.03-0.09,0.05c-0.03,0.02-0.05,0.05-0.09,0.06
		c-0.03,0.01-0.04,0.05-0.04,0.1c0,0.07,0.1,0.1,0.16,0.11l-0.51,0.51v-0.01c-0.07,0.04-0.13,0.08-0.19,0.14
		c-0.12,0.06-0.18,0.11-0.2,0.15c-0.01,0.03-0.02,0.08-0.04,0.15l-0.17,0.17c-0.02,0.01-0.05,0.01-0.07,0.01
		c-0.06,0-0.15-0.06-0.26-0.18c-0.12-0.12-0.2-0.18-0.26-0.18c-0.07-0.01-0.14,0.02-0.2,0.07c-0.04,0.04-0.1,0.05-0.15,0.02
		c-0.06-0.06,0.01-0.12,0.2-0.2s0.32-0.12,0.37-0.15c0.23-0.16,0.36-0.42,0.35-0.69c0-0.15-0.06-0.22-0.18-0.22l-0.13,0.12
		c-0.11,0.05-0.22,0.12-0.31,0.21c-0.09,0.08-0.16,0.15-0.22,0.21c-0.08-0.03-0.17-0.05-0.26-0.04h-0.26c0,0-0.01,0.01-0.01,0.01
		L18.51,8.33z M18.13,11.29c0.02,0.04,0.05,0.07,0.08,0.07c0.08,0,0.15,0.02,0.21,0.07c0.07,0.04,0.15,0.05,0.22,0.03
		c0.01,0.03,0.02,0.06,0.05,0.08c0.03,0.06,0.1,0.1,0.17,0.09c0.02,0.02,0.04,0.04,0.05,0.06c0.01,0.01,0.02,0.03,0.03,0.05
		c0.02,0.05,0.04,0.1,0.07,0.15c0.01,0,0.01,0,0.02,0.01c0.01,0.01,0.01,0.02,0.02,0.04c0.04,0.03,0.09,0.03,0.14,0.02
		c0.04-0.01,0.08-0.01,0.11,0.01c0,0.03,0,0.06,0.01,0.1h0.03c0,0.04,0.01,0.07,0.02,0.11c0.01,0.06,0.02,0.13,0.02,0.19v0.09
		c0,0.03-0.02,0.04-0.04,0.04c-0.08,0.06-0.13,0.15-0.14,0.26c0,0.06,0.04,0.08,0.11,0.06c0.06-0.02,0.13,0.01,0.16,0.06
		c0.07,0.07,0.1,0.16,0.09,0.26v0.39c0,0.05,0.02,0.1,0.07,0.13c0.04,0.03,0.06,0.06,0.06,0.08c0,0.11-0.02,0.22-0.04,0.32
		c-0.02,0.1-0.06,0.2-0.13,0.28c-0.03,0.03-0.1,0.03-0.22,0c-0.1-0.03-0.21-0.04-0.31-0.04c-0.06,0-0.12,0.09-0.18,0.26
		c-0.05,0.13-0.1,0.26-0.13,0.39c-0.03,0.11-0.09,0.17-0.18,0.17c-0.06,0-0.12,0.01-0.18,0.02c-0.01,0-0.02,0-0.03,0l-0.14,0.23
		l-0.05,0.06c-0.49-0.03-0.95-0.23-1.31-0.57L17,14.61c0.14-0.02,0.28-0.05,0.42-0.1c0.03-0.01,0.05-0.02,0.07-0.03
		c0.23-0.1,0.21-0.29,0.33-0.49c0.08-0.13,0.29-0.28,0.12-0.43c0.19-0.34-0.7-0.34-0.86-0.27c-0.19,0.09-0.07,0.29-0.17,0.43
		c-0.05,0.08-0.13,0.08-0.2,0.13c-0.15,0.12-0.26,0.27-0.33,0.45l0,0c-0.06-0.1-0.11-0.21-0.14-0.33c0.01,0,0.02,0,0.03,0.01
		c-0.02-0.03-0.02-0.06-0.01-0.07h0.04v0.04c0.11,0.03,0.19,0.03,0.22,0c0.03-0.08,0.05-0.16,0.06-0.24
		c0.06-0.18,0.14-0.35,0.24-0.51c-0.05-0.03-0.09-0.07-0.1-0.13c-0.01-0.06-0.05-0.07-0.1-0.04c-0.05,0.02-0.08,0.07-0.08,0.13
		c0,0.07-0.03,0.13-0.08,0.17c-0.04,0.05-0.1,0.08-0.17,0.09c0.01-0.06-0.04-0.12-0.1-0.13c-0.01,0-0.02,0-0.03,0
		c-0.07,0-0.13,0.04-0.17,0.09c-0.06,0-0.19,0.01-0.41,0.04c-0.13,0.03-0.27,0.03-0.41,0c-0.06-0.06,0.01-0.11,0.22-0.17
		c-0.02-0.2,0.06-0.39,0.22-0.52c0.08,0.05,0.17,0.08,0.26,0.09l0.09-0.09h0.04c0.09,0,0.14,0.07,0.15,0.22s0.05,0.22,0.11,0.22
		c0.07,0,0.13-0.04,0.17-0.09v-0.22c0.06-0.23,0.1-0.39,0.13-0.48v-0.13c0.03-0.08,0.08-0.15,0.14-0.21h0.05
		c0.06-0.05,0.13-0.08,0.2-0.09c0.05-0.08,0.08-0.17,0.09-0.27c0.09-0.03,0.24-0.09,0.45-0.18c0.22-0.09,0.32-0.18,0.32-0.27
		c0-0.01,0-0.02,0-0.02c0.1-0.02,0.19-0.03,0.29-0.04C18.08,11.23,18.1,11.26,18.13,11.29z M17.86,0.66v1.97
		c-2.51,0.08-4.91,1.07-6.74,2.8L9.72,4.04C11.92,1.94,14.82,0.74,17.86,0.66L17.86,0.66z M9.26,4.5l1.39,1.39
		c-1.72,1.83-2.72,4.23-2.8,6.74H5.89C5.97,9.6,7.17,6.7,9.26,4.5z"/>
	<path id="Path_468_10_" class="st3" d="M52.84,32V0"/>
</g>
</svg>
