<?xml version="1.0" encoding="utf-8"?>
<!-- Generator: Adobe Illustrator 24.3.0, SVG Export Plug-In . SVG Version: 6.00 Build 0)  -->
<svg version="1.1" id="Layer_1" xmlns="http://www.w3.org/2000/svg" xmlns:xlink="http://www.w3.org/1999/xlink" x="0px" y="0px"
	 viewBox="0 0 316 32" style="enable-background:new 0 0 316 32;" xml:space="preserve">
<style type="text/css">
	.st0{enable-background:new    ;}
	.st1{fill:#1B344A;}
	.st2{fill:#5090CD;}
	.st3{fill:none;stroke:#B7B6B6;stroke-width:0.3163;}
</style>
<g>
	<g class="st0">
		<path class="st1" d="M11.64,10.09c-0.44,0-0.82-0.06-1.13-0.19c-0.31-0.12-0.64-0.36-0.97-0.72c-0.09-0.09-0.3-0.37-0.63-0.83
			c-0.39-0.54-0.7-0.91-0.92-1.09C7.77,7.07,7.56,6.98,7.36,6.98c-0.13,0-0.3,0.07-0.5,0.21c-0.2,0.14-0.37,0.3-0.51,0.48
			C6.21,7.85,6.14,8,6.14,8.13c0,0.17,0.07,0.32,0.21,0.44C6.5,8.7,6.73,8.81,7.04,8.92C7.57,9.1,7.96,9.26,8.21,9.43
			c0.25,0.16,0.44,0.36,0.57,0.59c0.13,0.23,0.19,0.5,0.19,0.81c0,0.73-0.3,1.29-0.89,1.67c-0.59,0.38-1.48,0.57-2.67,0.57H2.49
			c-0.47,0-0.9-0.12-1.28-0.36c-0.38-0.24-0.68-0.58-0.89-1.01C0.11,11.27,0,10.78,0,10.24c0-0.81,0.13-1.6,0.4-2.39h1.64
			C1.94,8.19,1.87,8.52,1.83,8.82C1.8,9.13,1.78,9.51,1.78,9.97c0,0.28,0.07,0.55,0.21,0.8c0.14,0.25,0.32,0.45,0.55,0.59
			c0.23,0.14,0.47,0.21,0.71,0.21H5.4c0.67,0,1.13-0.05,1.37-0.15c0.24-0.1,0.37-0.27,0.37-0.51c0-0.14-0.07-0.26-0.2-0.36
			c-0.13-0.1-0.35-0.19-0.65-0.27c-0.69-0.18-1.17-0.41-1.45-0.71c-0.27-0.29-0.4-0.69-0.4-1.19c0-0.43,0.16-0.88,0.47-1.36
			c0.31-0.47,0.72-0.87,1.21-1.2c0.5-0.32,0.97-0.49,1.43-0.49c0.27,0,0.51,0.05,0.74,0.15c0.23,0.1,0.44,0.26,0.66,0.47
			c0.21,0.21,0.56,0.65,1.04,1.34c0.38,0.54,0.68,0.9,0.92,1.06c0.23,0.16,0.48,0.24,0.75,0.24h0.06c0.04,0,0.07,0.02,0.07,0.05
			v1.38c0,0.04-0.02,0.06-0.07,0.06H11.64z M3.45,16.12c-0.25,0-0.46-0.08-0.6-0.24c-0.15-0.16-0.22-0.38-0.22-0.65
			c0-0.28,0.07-0.5,0.22-0.66c0.15-0.16,0.35-0.24,0.61-0.24c0.25,0,0.45,0.08,0.6,0.24c0.14,0.16,0.22,0.38,0.22,0.66
			c0,0.28-0.07,0.5-0.22,0.66C3.9,16.05,3.7,16.12,3.45,16.12z M5.56,16.12c-0.25,0-0.46-0.08-0.6-0.24
			c-0.15-0.16-0.22-0.38-0.22-0.65c0-0.28,0.07-0.5,0.22-0.66c0.15-0.16,0.35-0.24,0.61-0.24c0.26,0,0.46,0.08,0.6,0.24
			c0.15,0.16,0.22,0.38,0.22,0.66c0,0.27-0.08,0.49-0.23,0.65C6,16.05,5.8,16.12,5.56,16.12z"/>
		<path class="st1" d="M13.82,8.6c0.04,0,0.07,0.02,0.07,0.05v1.38c0,0.04-0.02,0.06-0.07,0.06h-2.24c-0.04,0-0.06-0.02-0.06-0.06
			V8.65c0-0.03,0.02-0.05,0.06-0.05H13.82z"/>
		<path class="st1" d="M13.69,10.09c-0.04,0-0.06-0.02-0.06-0.06V8.65c0-0.03,0.02-0.05,0.06-0.05h1.55V3.96h1.84v6.13H13.69z
			 M16.15,2.9c-0.26,0-0.46-0.08-0.61-0.24c-0.15-0.16-0.22-0.38-0.22-0.65c0-0.28,0.07-0.5,0.22-0.66
			c0.15-0.16,0.35-0.24,0.61-0.24c0.25,0,0.45,0.08,0.6,0.24c0.15,0.16,0.22,0.38,0.22,0.66c0,0.27-0.08,0.49-0.23,0.65
			C16.59,2.82,16.39,2.9,16.15,2.9z"/>
		<path class="st1" d="M22.77,8.6c0.04,0,0.06,0.02,0.06,0.05v1.38c0,0.04-0.02,0.06-0.06,0.06h-3.39V0.68h1.84V8.6H22.77z"/>
		<path class="st1" d="M24.89,8.6c0.04,0,0.07,0.02,0.07,0.05v1.38c0,0.04-0.02,0.06-0.07,0.06h-2.24c-0.04,0-0.06-0.02-0.06-0.06
			V8.65c0-0.03,0.02-0.05,0.06-0.05H24.89z"/>
		<path class="st1" d="M27,8.6c0.04,0,0.07,0.02,0.07,0.05v1.38c0,0.04-0.02,0.06-0.07,0.06h-2.24c-0.04,0-0.06-0.02-0.06-0.06V8.65
			c0-0.03,0.02-0.05,0.06-0.05H27z"/>
		<path class="st1" d="M29.12,8.6c0.04,0,0.07,0.02,0.07,0.05v1.38c0,0.04-0.02,0.06-0.07,0.06h-2.24c-0.04,0-0.06-0.02-0.06-0.06
			V8.65c0-0.03,0.02-0.05,0.06-0.05H29.12z"/>
		<path class="st1" d="M42.04,8.6c0.04,0,0.07,0.02,0.07,0.05v1.38c0,0.04-0.02,0.06-0.07,0.06h-4.18c-0.7,0-1.34-0.31-1.94-0.93
			c-0.46,0.62-1.15,0.93-2.07,0.93H29c-0.04,0-0.06-0.02-0.06-0.06V8.65c0-0.03,0.02-0.05,0.06-0.05h1.55V4.93h1.84V8.6h1.05
			c0.41,0,0.71-0.11,0.9-0.34c0.19-0.23,0.29-0.59,0.29-1.09V4.93h1.84v2.39c0,0.2-0.01,0.39-0.04,0.56c0.2,0.27,0.4,0.46,0.6,0.57
			c0.2,0.11,0.46,0.16,0.78,0.16h0.77V3.96h1.84V8.6H42.04z"/>
		<path class="st1" d="M44.16,8.6c0.04,0,0.07,0.02,0.07,0.05v1.38c0,0.04-0.02,0.06-0.07,0.06h-2.24c-0.04,0-0.06-0.02-0.06-0.06
			V8.65c0-0.03,0.02-0.05,0.06-0.05H44.16z"/>
		<path class="st1" d="M46.28,8.6c0.04,0,0.07,0.02,0.07,0.05v1.38c0,0.04-0.02,0.06-0.07,0.06h-2.24c-0.04,0-0.06-0.02-0.06-0.06
			V8.65c0-0.03,0.02-0.05,0.06-0.05H46.28z"/>
		<path class="st1" d="M51.16,8.6c0.04,0,0.06,0.02,0.06,0.05v1.38c0,0.04-0.02,0.06-0.06,0.06h-5c-0.04,0-0.06-0.02-0.06-0.06V8.65
			c0-0.03,0.02-0.05,0.06-0.05h1.55V3.96h1.84V8.6H51.16z M48.61,2.9c-0.26,0-0.46-0.08-0.61-0.24c-0.15-0.16-0.22-0.38-0.22-0.65
			c0-0.28,0.07-0.5,0.22-0.66c0.15-0.16,0.35-0.24,0.61-0.24c0.25,0,0.45,0.08,0.6,0.24c0.15,0.16,0.22,0.38,0.22,0.66
			c0,0.27-0.08,0.49-0.23,0.65C49.05,2.82,48.85,2.9,48.61,2.9z"/>
		<path class="st1" d="M51.03,10.09c-0.04,0-0.06-0.02-0.06-0.06V8.65c0-0.03,0.02-0.05,0.06-0.05h1.55V0.68h1.84v9.41H51.03z"/>
		<path class="st1" d="M56.51,13.11L57.21,13c-0.17-0.08-0.3-0.19-0.41-0.34c-0.1-0.14-0.16-0.31-0.16-0.5
			c0-0.35,0.12-0.62,0.37-0.82c0.25-0.2,0.58-0.3,1-0.3c0.41,0,0.75,0.07,1.02,0.22l-0.25,0.63c-0.23-0.11-0.45-0.16-0.67-0.16
			c-0.18,0-0.32,0.05-0.43,0.16c-0.11,0.11-0.16,0.25-0.16,0.44c0,0.25,0.12,0.43,0.37,0.56l0.22-0.04c0.4-0.06,0.74-0.11,1-0.13
			v0.72c-0.29,0.02-0.78,0.07-1.46,0.15c-0.68,0.08-1.06,0.13-1.15,0.16V13.11z M56.91,0.68h1.84v9.41h-1.84V0.68z"/>
		<path class="st1" d="M61.23,0.68h1.84v9.41h-1.84V0.68z"/>
		<path class="st1" d="M72.69,13.07c-0.69,0-1.29-0.15-1.8-0.44c-0.51-0.29-0.9-0.7-1.17-1.22c-0.27-0.53-0.4-1.13-0.4-1.81
			c0-0.47,0.06-0.94,0.17-1.43c0.11-0.49,0.27-0.92,0.47-1.31h1.63c-0.13,0.44-0.23,0.91-0.31,1.39c-0.08,0.49-0.11,0.94-0.11,1.36
			c0,0.6,0.15,1.08,0.45,1.44c0.3,0.36,0.7,0.53,1.2,0.53h0.37c0.64,0,1.11-0.17,1.41-0.52c0.3-0.34,0.45-0.83,0.45-1.45V0.68h1.84
			V8.6h1.61c0.04,0,0.06,0.02,0.06,0.05v1.38c0,0.04-0.02,0.06-0.06,0.06h-1.63c-0.15,1.98-1.36,2.97-3.64,2.97H72.69z"/>
		<path class="st1" d="M80.61,8.6c0.04,0,0.07,0.02,0.07,0.05v1.38c0,0.04-0.02,0.06-0.07,0.06h-2.24c-0.04,0-0.06-0.02-0.06-0.06
			V8.65c0-0.03,0.02-0.05,0.06-0.05H80.61z"/>
		<path class="st1" d="M82.73,8.6c0.04,0,0.07,0.02,0.07,0.05v1.38c0,0.04-0.02,0.06-0.07,0.06h-2.24c-0.04,0-0.06-0.02-0.06-0.06
			V8.65c0-0.03,0.02-0.05,0.06-0.05H82.73z"/>
		<path class="st1" d="M84.84,8.6c0.04,0,0.07,0.02,0.07,0.05v1.38c0,0.04-0.02,0.06-0.07,0.06h-2.24c-0.04,0-0.06-0.02-0.06-0.06
			V8.65c0-0.03,0.02-0.05,0.06-0.05H84.84z"/>
		<path class="st1" d="M86.96,8.6c0.04,0,0.07,0.02,0.07,0.05v1.38c0,0.04-0.02,0.06-0.07,0.06h-2.24c-0.04,0-0.06-0.02-0.06-0.06
			V8.65c0-0.03,0.02-0.05,0.06-0.05H86.96z"/>
		<path class="st1" d="M88.24,8.6C88.01,8.1,87.9,7.53,87.9,6.9c0-0.36,0.06-0.75,0.18-1.16c0.12-0.42,0.27-0.77,0.45-1.07
			c0.4-0.23,0.82-0.4,1.27-0.53c0.45-0.12,0.84-0.18,1.18-0.18c0.56,0,1.08,0.12,1.54,0.36c0.46,0.24,0.82,0.58,1.07,1.02
			c0.25,0.44,0.38,0.95,0.38,1.54c0,0.45-0.08,0.88-0.23,1.28c0.15,0.16,0.32,0.27,0.51,0.34c0.19,0.07,0.43,0.1,0.72,0.1h0.07
			c0.04,0,0.06,0.02,0.06,0.05v1.38c0,0.04-0.02,0.06-0.06,0.06h-0.07c-0.44,0-0.81-0.06-1.13-0.18c-0.32-0.12-0.62-0.34-0.91-0.64
			c-0.31,0.27-0.68,0.48-1.08,0.62c-0.41,0.14-0.83,0.21-1.26,0.21h-3.76c-0.04,0-0.06-0.02-0.06-0.06V8.65
			c0-0.03,0.02-0.05,0.06-0.05H88.24z M89.61,7.16c0,0.42,0.09,0.9,0.28,1.45h0.47c0.5,0,0.92-0.17,1.25-0.5
			c0.34-0.33,0.5-0.74,0.5-1.22c0-0.44-0.11-0.79-0.32-1.05s-0.5-0.39-0.85-0.39c-0.37,0-0.76,0.11-1.15,0.34
			C89.67,6.23,89.61,6.68,89.61,7.16z"/>
		<path class="st1" d="M102.52,8.6c0.04,0,0.06,0.02,0.06,0.05v1.38c0,0.04-0.02,0.06-0.06,0.06h-1.57c-0.39,0-0.79-0.07-1.21-0.2
			c-0.42-0.13-0.78-0.3-1.08-0.5c-0.76,0.46-1.53,0.7-2.3,0.7h-1.43c-0.04,0-0.06-0.02-0.06-0.06V8.65c0-0.03,0.02-0.05,0.06-0.05
			h1.24c0.19,0,0.39-0.02,0.61-0.07c0.22-0.04,0.41-0.1,0.55-0.17c-0.25-0.19-0.51-0.49-0.78-0.89c-0.27-0.41-0.51-0.85-0.71-1.34
			c-0.2-0.48-0.34-0.95-0.41-1.4c0.48-0.4,1.04-0.72,1.67-0.95c0.63-0.23,1.23-0.35,1.81-0.35c1.18,0,2.22,0.25,3.11,0.74
			c0,0.89-0.18,1.72-0.54,2.46c-0.36,0.75-0.85,1.32-1.48,1.71c0.31,0.17,0.68,0.25,1.12,0.25H102.52z M98.68,7.6
			c0.97-0.58,1.49-1.39,1.56-2.45c-0.36-0.15-0.82-0.22-1.4-0.22c-0.27,0-0.55,0.05-0.86,0.14c-0.31,0.09-0.55,0.2-0.73,0.33
			c0.12,0.46,0.31,0.88,0.56,1.28C98.07,7.08,98.36,7.39,98.68,7.6z"/>
		<path class="st1" d="M102.4,10.09c-0.04,0-0.06-0.02-0.06-0.06V8.65c0-0.03,0.02-0.05,0.06-0.05h1.55V0.68h1.84v9.41H102.4z"/>
		<path class="st1" d="M108.27,0.68h1.84v9.41h-1.84V0.68z"/>
		<path class="st1" d="M125.53,8.6c0.04,0,0.06,0.02,0.06,0.05v1.38c0,0.04-0.02,0.06-0.06,0.06h-1.61
			c-0.15,1.98-1.36,2.97-3.64,2.97h-0.54c-0.69,0-1.29-0.15-1.8-0.44c-0.51-0.29-0.9-0.7-1.17-1.22c-0.27-0.53-0.4-1.13-0.4-1.81
			c0-0.47,0.06-0.94,0.17-1.43c0.11-0.49,0.27-0.92,0.47-1.31h1.63c-0.13,0.44-0.23,0.91-0.31,1.39c-0.08,0.49-0.11,0.94-0.11,1.36
			c0,0.6,0.15,1.08,0.45,1.44s0.7,0.53,1.2,0.53h0.37c0.64,0,1.11-0.17,1.41-0.52c0.3-0.34,0.45-0.83,0.45-1.45V3.96h1.84V8.6
			H125.53z M120.15,3.95c-0.26,0-0.46-0.08-0.61-0.24c-0.15-0.16-0.22-0.38-0.22-0.65c0-0.28,0.07-0.5,0.22-0.66
			c0.15-0.16,0.35-0.24,0.61-0.24c0.25,0,0.45,0.08,0.6,0.24c0.15,0.16,0.22,0.38,0.22,0.66c0,0.27-0.08,0.49-0.23,0.65
			C120.58,3.87,120.39,3.95,120.15,3.95z"/>
		<path class="st1" d="M127.64,8.6c0.04,0,0.07,0.02,0.07,0.05v1.38c0,0.04-0.02,0.06-0.07,0.06h-2.24c-0.04,0-0.06-0.02-0.06-0.06
			V8.65c0-0.03,0.02-0.05,0.06-0.05H127.64z"/>
		<path class="st1" d="M129.76,8.6c0.04,0,0.07,0.02,0.07,0.05v1.38c0,0.04-0.02,0.06-0.07,0.06h-2.24c-0.04,0-0.06-0.02-0.06-0.06
			V8.65c0-0.03,0.02-0.05,0.06-0.05H129.76z"/>
		<path class="st1" d="M131.88,8.6c0.04,0,0.07,0.02,0.07,0.05v1.38c0,0.04-0.02,0.06-0.07,0.06h-2.24c-0.04,0-0.06-0.02-0.06-0.06
			V8.65c0-0.03,0.02-0.05,0.06-0.05H131.88z"/>
		<path class="st1" d="M131.75,10.09c-0.04,0-0.06-0.02-0.06-0.06V8.65c0-0.03,0.02-0.05,0.06-0.05h1.9
			c-0.31-0.14-0.55-0.37-0.73-0.7c-0.18-0.33-0.27-0.69-0.27-1.09c0-0.93,0.31-1.66,0.92-2.19c0.61-0.53,1.45-0.8,2.51-0.8
			c0.36,0,0.74,0.04,1.14,0.12c0.4,0.08,0.71,0.18,0.94,0.28l-0.52,1.45c-0.32-0.14-0.6-0.23-0.85-0.29
			c-0.25-0.05-0.5-0.08-0.76-0.08c-0.51,0-0.9,0.13-1.18,0.4c-0.28,0.27-0.42,0.66-0.42,1.17c0,0.5,0.14,0.91,0.43,1.23
			c0.29,0.32,0.67,0.48,1.15,0.48h2.27v1.49H131.75z"/>
		<path class="st1" d="M151.22,8.6c0.04,0,0.06,0.02,0.06,0.05v1.38c0,0.04-0.02,0.06-0.06,0.06h-3.75c-1.14,0-2.03-0.27-2.67-0.8
			c-0.63-0.53-0.95-1.28-0.95-2.23c0-0.61,0.15-1.15,0.44-1.62c0.29-0.47,0.71-0.84,1.25-1.09c0.54-0.26,1.19-0.38,1.93-0.38h0.34
			v-0.6h1.86V8.6H151.22z M147.82,8.6V5.45h-0.33c-0.56,0-1,0.14-1.3,0.42c-0.3,0.28-0.46,0.68-0.46,1.2c0,0.49,0.15,0.87,0.45,1.14
			c0.3,0.27,0.73,0.4,1.29,0.4H147.82z M146.67,2.58c-0.25,0-0.46-0.08-0.6-0.24c-0.15-0.16-0.22-0.38-0.22-0.65
			c0-0.28,0.07-0.5,0.22-0.66c0.15-0.16,0.35-0.24,0.61-0.24c0.25,0,0.45,0.08,0.6,0.24c0.15,0.16,0.22,0.38,0.22,0.66
			c0,0.28-0.07,0.5-0.22,0.66C147.11,2.5,146.92,2.58,146.67,2.58z M148.77,2.58c-0.25,0-0.46-0.08-0.6-0.24
			c-0.15-0.16-0.22-0.38-0.22-0.65c0-0.28,0.07-0.5,0.22-0.66c0.15-0.16,0.35-0.24,0.61-0.24c0.26,0,0.46,0.08,0.6,0.24
			c0.15,0.16,0.22,0.38,0.22,0.66c0,0.27-0.08,0.49-0.23,0.65C149.22,2.5,149.02,2.58,148.77,2.58z"/>
		<path class="st1" d="M153.33,8.6c0.04,0,0.07,0.02,0.07,0.05v1.38c0,0.04-0.02,0.06-0.07,0.06h-2.24c-0.04,0-0.06-0.02-0.06-0.06
			V8.65c0-0.03,0.02-0.05,0.06-0.05H153.33z"/>
		<path class="st1" d="M155.44,8.6c0.04,0,0.07,0.02,0.07,0.05v1.38c0,0.04-0.02,0.06-0.07,0.06h-2.24c-0.04,0-0.06-0.02-0.06-0.06
			V8.65c0-0.03,0.02-0.05,0.06-0.05H155.44z"/>
		<path class="st1" d="M157.56,8.6c0.04,0,0.07,0.02,0.07,0.05v1.38c0,0.04-0.02,0.06-0.07,0.06h-2.24c-0.04,0-0.06-0.02-0.06-0.06
			V8.65c0-0.03,0.02-0.05,0.06-0.05H157.56z"/>
		<path class="st1" d="M158.83,8.6c-0.22-0.51-0.33-1.08-0.33-1.71c0-0.36,0.06-0.75,0.18-1.16c0.12-0.42,0.27-0.77,0.45-1.07
			c0.4-0.23,0.82-0.4,1.27-0.53c0.45-0.12,0.84-0.18,1.18-0.18c0.56,0,1.08,0.12,1.54,0.36c0.46,0.24,0.82,0.58,1.07,1.02
			c0.25,0.44,0.38,0.95,0.38,1.54c0,0.63-0.15,1.19-0.44,1.67c-0.29,0.48-0.7,0.86-1.22,1.13c-0.52,0.27-1.09,0.41-1.72,0.41h-3.76
			c-0.04,0-0.06-0.02-0.06-0.06V8.65c0-0.03,0.02-0.05,0.06-0.05H158.83z M160.21,7.16c0,0.42,0.09,0.9,0.28,1.45h0.47
			c0.5,0,0.92-0.17,1.25-0.5c0.34-0.33,0.5-0.74,0.5-1.22c0-0.44-0.11-0.79-0.32-1.05c-0.21-0.26-0.5-0.39-0.85-0.39
			c-0.37,0-0.76,0.11-1.15,0.34C160.27,6.23,160.21,6.68,160.21,7.16z"/>
		<path class="st1" d="M169.89,8.6c0.04,0,0.06,0.02,0.06,0.05v1.38c0,0.04-0.02,0.06-0.06,0.06h-3.39V0.68h1.84V8.6H169.89z"/>
		<path class="st1" d="M172.01,8.6c0.04,0,0.07,0.02,0.07,0.05v1.38c0,0.04-0.02,0.06-0.07,0.06h-2.24c-0.04,0-0.06-0.02-0.06-0.06
			V8.65c0-0.03,0.02-0.05,0.06-0.05H172.01z"/>
		<path class="st1" d="M174.12,8.6c0.04,0,0.07,0.02,0.07,0.05v1.38c0,0.04-0.02,0.06-0.07,0.06h-2.24c-0.04,0-0.06-0.02-0.06-0.06
			V8.65c0-0.03,0.02-0.05,0.06-0.05H174.12z"/>
		<path class="st1" d="M181.6,8.6c0.04,0,0.06,0.02,0.06,0.05v1.38c0,0.04-0.02,0.06-0.06,0.06h-1.57c-0.39,0-0.79-0.07-1.21-0.2
			c-0.42-0.13-0.78-0.3-1.08-0.5c-0.76,0.46-1.53,0.7-2.3,0.7H174c-0.04,0-0.06-0.02-0.06-0.06V8.65c0-0.03,0.02-0.05,0.06-0.05
			h1.24c0.19,0,0.39-0.02,0.61-0.07c0.22-0.04,0.41-0.1,0.55-0.17c-0.25-0.19-0.51-0.49-0.78-0.89s-0.51-0.85-0.71-1.34
			c-0.2-0.48-0.34-0.95-0.41-1.4c0.48-0.4,1.04-0.72,1.67-0.95c0.63-0.23,1.23-0.35,1.81-0.35c1.18,0,2.22,0.25,3.11,0.74
			c0,0.89-0.18,1.72-0.54,2.46c-0.36,0.75-0.85,1.32-1.48,1.71c0.31,0.17,0.68,0.25,1.12,0.25H181.6z M177.76,7.6
			c0.97-0.58,1.49-1.39,1.56-2.45c-0.36-0.15-0.82-0.22-1.4-0.22c-0.27,0-0.55,0.05-0.86,0.14c-0.31,0.09-0.55,0.2-0.73,0.33
			c0.12,0.46,0.31,0.88,0.56,1.28C177.15,7.08,177.44,7.39,177.76,7.6z"/>
		<path class="st1" d="M181.48,10.09c-0.04,0-0.06-0.02-0.06-0.06V8.65c0-0.03,0.02-0.05,0.06-0.05h1.55V0.68h1.84v9.41H181.48z"/>
		<path class="st1" d="M187.35,0.68h1.84v9.41h-1.84V0.68z"/>
		<path class="st1" d="M202.82,8.6c0.04,0,0.06,0.02,0.06,0.05v1.38c0,0.04-0.02,0.06-0.06,0.06h-3.75c-1.14,0-2.03-0.27-2.67-0.8
			c-0.63-0.53-0.95-1.28-0.95-2.23c0-0.61,0.15-1.15,0.44-1.62s0.71-0.84,1.25-1.09c0.54-0.26,1.19-0.38,1.93-0.38h0.34v-0.6h1.86
			V8.6H202.82z M199.43,8.6V5.45h-0.33c-0.56,0-1,0.14-1.3,0.42c-0.3,0.28-0.46,0.68-0.46,1.2c0,0.49,0.15,0.87,0.45,1.14
			c0.3,0.27,0.73,0.4,1.29,0.4H199.43z M198.27,2.58c-0.25,0-0.46-0.08-0.6-0.24c-0.15-0.16-0.22-0.38-0.22-0.65
			c0-0.28,0.07-0.5,0.22-0.66c0.15-0.16,0.35-0.24,0.61-0.24c0.25,0,0.45,0.08,0.6,0.24c0.15,0.16,0.22,0.38,0.22,0.66
			c0,0.28-0.07,0.5-0.22,0.66C198.72,2.5,198.52,2.58,198.27,2.58z M200.38,2.58c-0.25,0-0.46-0.08-0.6-0.24
			c-0.15-0.16-0.22-0.38-0.22-0.65c0-0.28,0.07-0.5,0.22-0.66c0.15-0.16,0.35-0.24,0.61-0.24c0.26,0,0.46,0.08,0.6,0.24
			c0.15,0.16,0.22,0.38,0.22,0.66c0,0.27-0.08,0.49-0.23,0.65C200.82,2.5,200.62,2.58,200.38,2.58z"/>
		<path class="st1" d="M204.93,8.6c0.04,0,0.07,0.02,0.07,0.05v1.38c0,0.04-0.02,0.06-0.07,0.06h-2.24c-0.04,0-0.06-0.02-0.06-0.06
			V8.65c0-0.03,0.02-0.05,0.06-0.05H204.93z"/>
		<path class="st1" d="M207.05,8.6c0.04,0,0.07,0.02,0.07,0.05v1.38c0,0.04-0.02,0.06-0.07,0.06h-2.24c-0.04,0-0.06-0.02-0.06-0.06
			V8.65c0-0.03,0.02-0.05,0.06-0.05H207.05z"/>
		<path class="st1" d="M209.16,8.6c0.04,0,0.07,0.02,0.07,0.05v1.38c0,0.04-0.02,0.06-0.07,0.06h-2.24c-0.04,0-0.06-0.02-0.06-0.06
			V8.65c0-0.03,0.02-0.05,0.06-0.05H209.16z"/>
		<path class="st1" d="M211.28,8.6c0.04,0,0.07,0.02,0.07,0.05v1.38c0,0.04-0.02,0.06-0.07,0.06h-2.24c-0.04,0-0.06-0.02-0.06-0.06
			V8.65c0-0.03,0.02-0.05,0.06-0.05H211.28z"/>
		<path class="st1" d="M213.39,8.6c0.04,0,0.07,0.02,0.07,0.05v1.38c0,0.04-0.02,0.06-0.07,0.06h-2.24c-0.04,0-0.06-0.02-0.06-0.06
			V8.65c0-0.03,0.02-0.05,0.06-0.05H213.39z"/>
		<path class="st1" d="M213.27,10.09c-0.04,0-0.06-0.02-0.06-0.06V8.65c0-0.03,0.02-0.05,0.06-0.05h5c-0.33-0.31-0.58-0.9-0.76-1.77
			c-0.11-0.56-0.28-0.95-0.5-1.17c-0.22-0.22-0.55-0.34-0.99-0.34c-0.29,0-0.56,0.04-0.82,0.11c-0.25,0.07-0.53,0.19-0.83,0.36
			l-0.56-1.36c0.74-0.4,1.6-0.59,2.59-0.59c0.83,0,1.47,0.19,1.93,0.56c0.46,0.37,0.76,0.98,0.91,1.83c0.21,1.23,0.5,2.02,0.86,2.38
			h0.8c0.04,0,0.07,0.02,0.07,0.05v1.38c0,0.04-0.02,0.06-0.07,0.06H213.27z"/>
		<path class="st1" d="M223.04,8.6c0.04,0,0.07,0.02,0.07,0.05v1.38c0,0.04-0.02,0.06-0.07,0.06h-2.24c-0.04,0-0.06-0.02-0.06-0.06
			V8.65c0-0.03,0.02-0.05,0.06-0.05H223.04z"/>
		<path class="st1" d="M225.15,8.6c0.04,0,0.07,0.02,0.07,0.05v1.38c0,0.04-0.02,0.06-0.07,0.06h-2.24c-0.04,0-0.06-0.02-0.06-0.06
			V8.65c0-0.03,0.02-0.05,0.06-0.05H225.15z"/>
		<path class="st1" d="M226.43,8.6c-0.22-0.51-0.33-1.08-0.33-1.71c0-0.36,0.06-0.75,0.18-1.16c0.12-0.42,0.27-0.77,0.45-1.07
			c0.4-0.23,0.82-0.4,1.27-0.53c0.45-0.12,0.84-0.18,1.18-0.18c0.56,0,1.08,0.12,1.54,0.36c0.46,0.24,0.82,0.58,1.07,1.02
			c0.25,0.44,0.38,0.95,0.38,1.54c0,0.45-0.08,0.88-0.23,1.28c0.15,0.16,0.32,0.27,0.51,0.34c0.19,0.07,0.43,0.1,0.72,0.1h0.07
			c0.04,0,0.06,0.02,0.06,0.05v1.38c0,0.04-0.02,0.06-0.06,0.06h-0.07c-0.44,0-0.81-0.06-1.13-0.18c-0.32-0.12-0.62-0.34-0.91-0.64
			c-0.31,0.27-0.68,0.48-1.08,0.62c-0.41,0.14-0.83,0.21-1.26,0.21h-3.76c-0.04,0-0.06-0.02-0.06-0.06V8.65
			c0-0.03,0.02-0.05,0.06-0.05H226.43z M227.81,7.16c0,0.42,0.09,0.9,0.28,1.45h0.47c0.5,0,0.92-0.17,1.25-0.5
			c0.34-0.33,0.5-0.74,0.5-1.22c0-0.44-0.11-0.79-0.32-1.05c-0.21-0.26-0.5-0.39-0.85-0.39c-0.37,0-0.76,0.11-1.15,0.34
			C227.87,6.23,227.81,6.68,227.81,7.16z"/>
		<path class="st1" d="M235.35,8.6c0.04,0,0.07,0.02,0.07,0.05v1.38c0,0.04-0.02,0.06-0.07,0.06h-2.24c-0.04,0-0.06-0.02-0.06-0.06
			V8.65c0-0.03,0.02-0.05,0.06-0.05H235.35z"/>
		<path class="st1" d="M235.23,10.09c-0.04,0-0.06-0.02-0.06-0.06V8.65c0-0.03,0.02-0.05,0.06-0.05h1.55V0.68h1.84V8.6h1.61
			c0.04,0,0.06,0.02,0.06,0.05v1.38c0,0.04-0.02,0.06-0.06,0.06H235.23z"/>
		<path class="st1" d="M240.11,10.09c-0.04,0-0.06-0.02-0.06-0.06V8.65c0-0.03,0.02-0.05,0.06-0.05h1.55V0.68h1.84v9.41H240.11z"/>
		<path class="st1" d="M245.98,0.68h1.84v9.41h-1.84V0.68z"/>
	</g>
	<g class="st0">
		<path class="st2" d="M105.01,25.97v-0.95l3.35-3.73c0.6-0.67,1.01-1.2,1.22-1.6c0.21-0.39,0.32-0.8,0.32-1.21
			c0-0.51-0.15-0.94-0.45-1.29c-0.3-0.35-0.7-0.52-1.19-0.52c-0.71,0-1.23,0.18-1.56,0.54s-0.5,0.87-0.5,1.53h-1.33l-0.01-0.04
			c-0.02-0.88,0.27-1.62,0.88-2.22c0.61-0.6,1.45-0.9,2.53-0.9c0.92,0,1.66,0.27,2.2,0.81c0.55,0.54,0.82,1.22,0.82,2.05
			c0,0.56-0.17,1.12-0.5,1.67c-0.33,0.56-0.8,1.16-1.4,1.81l-2.69,2.93l0.01,0.04h3.64l0.11-1.17h1.17v2.26H105.01z"/>
		<path class="st2" d="M119.66,22.06c0,1.31-0.29,2.31-0.87,3.01c-0.58,0.7-1.38,1.04-2.38,1.04c-1,0-1.8-0.35-2.38-1.05
			c-0.59-0.7-0.88-1.7-0.88-3v-2.43c0-1.3,0.29-2.31,0.87-3.01c0.58-0.7,1.37-1.05,2.38-1.05c1.01,0,1.81,0.35,2.39,1.05
			c0.59,0.7,0.88,1.7,0.88,3.01V22.06z M118.27,19.34c0-0.89-0.16-1.55-0.48-2c-0.32-0.45-0.79-0.67-1.4-0.67
			c-0.6,0-1.07,0.22-1.39,0.67c-0.32,0.45-0.48,1.11-0.48,2v3c0,0.89,0.16,1.56,0.49,2.01c0.32,0.45,0.79,0.68,1.39,0.68
			c0.61,0,1.08-0.22,1.4-0.68c0.32-0.45,0.47-1.12,0.47-2.01V19.34z"/>
		<path class="st2" d="M121.18,25.97v-0.95l3.35-3.73c0.6-0.67,1.01-1.2,1.22-1.6c0.21-0.39,0.32-0.8,0.32-1.21
			c0-0.51-0.15-0.94-0.45-1.29c-0.3-0.35-0.7-0.52-1.19-0.52c-0.71,0-1.23,0.18-1.56,0.54c-0.33,0.36-0.5,0.87-0.5,1.53h-1.33
			l-0.01-0.04c-0.02-0.88,0.27-1.62,0.88-2.22c0.61-0.6,1.45-0.9,2.53-0.9c0.92,0,1.66,0.27,2.2,0.81c0.55,0.54,0.82,1.22,0.82,2.05
			c0,0.56-0.17,1.12-0.5,1.67c-0.33,0.56-0.8,1.16-1.4,1.81l-2.69,2.93l0.01,0.04h3.64l0.11-1.17h1.17v2.26H121.18z"/>
		<path class="st2" d="M129.31,25.08l1.58-0.2v-7.67l-1.61,0.03v-0.87l3-0.65v9.16l1.58,0.2v0.89h-4.54V25.08z"/>
		<path class="st1" d="M149.87,25.97c-0.44,0-0.82-0.06-1.13-0.19c-0.31-0.12-0.64-0.36-0.97-0.72c-0.09-0.09-0.3-0.37-0.63-0.83
			c-0.39-0.54-0.7-0.91-0.92-1.09c-0.22-0.18-0.43-0.28-0.63-0.28c-0.13,0-0.3,0.07-0.5,0.21c-0.2,0.14-0.37,0.3-0.51,0.48
			c-0.14,0.18-0.21,0.34-0.21,0.47c0,0.17,0.07,0.32,0.21,0.44c0.14,0.12,0.37,0.24,0.68,0.34c0.53,0.18,0.92,0.35,1.17,0.51
			c0.25,0.16,0.44,0.36,0.57,0.59c0.13,0.23,0.19,0.5,0.19,0.81c0,0.73-0.3,1.29-0.89,1.67s-1.48,0.57-2.67,0.57h-2.92
			c-0.47,0-0.9-0.12-1.28-0.36c-0.38-0.24-0.68-0.58-0.89-1.01c-0.21-0.43-0.32-0.92-0.32-1.46c0-0.81,0.13-1.6,0.4-2.39h1.64
			c-0.1,0.34-0.17,0.67-0.21,0.97c-0.03,0.31-0.05,0.69-0.05,1.15c0,0.28,0.07,0.55,0.21,0.8c0.14,0.25,0.32,0.45,0.55,0.59
			c0.23,0.14,0.47,0.21,0.71,0.21h2.14c0.67,0,1.13-0.05,1.37-0.15s0.37-0.27,0.37-0.51c0-0.14-0.07-0.26-0.2-0.36
			c-0.14-0.1-0.35-0.19-0.65-0.27c-0.69-0.18-1.17-0.41-1.44-0.71c-0.27-0.29-0.41-0.69-0.41-1.19c0-0.43,0.16-0.88,0.47-1.36
			c0.31-0.47,0.72-0.87,1.21-1.2c0.5-0.32,0.97-0.49,1.43-0.49c0.27,0,0.51,0.05,0.74,0.15c0.23,0.1,0.44,0.26,0.66,0.47
			c0.21,0.21,0.56,0.65,1.04,1.34c0.38,0.54,0.68,0.9,0.92,1.06c0.23,0.16,0.48,0.24,0.75,0.24h0.06c0.04,0,0.07,0.02,0.07,0.05
			v1.38c0,0.04-0.02,0.06-0.07,0.06H149.87z M141.68,32c-0.25,0-0.46-0.08-0.6-0.24c-0.15-0.16-0.22-0.38-0.22-0.65
			c0-0.28,0.07-0.5,0.22-0.66c0.15-0.16,0.35-0.24,0.61-0.24c0.25,0,0.45,0.08,0.6,0.24c0.15,0.16,0.22,0.38,0.22,0.66
			c0,0.28-0.07,0.5-0.22,0.66C142.13,31.92,141.93,32,141.68,32z M143.79,32c-0.25,0-0.46-0.08-0.6-0.24
			c-0.15-0.16-0.22-0.38-0.22-0.65c0-0.28,0.07-0.5,0.22-0.66c0.15-0.16,0.35-0.24,0.61-0.24s0.46,0.08,0.6,0.24
			c0.15,0.16,0.22,0.38,0.22,0.66c0,0.27-0.08,0.49-0.23,0.65C144.23,31.92,144.03,32,143.79,32z"/>
		<path class="st1" d="M152.04,24.48c0.04,0,0.07,0.02,0.07,0.05v1.38c0,0.04-0.02,0.06-0.07,0.06h-2.24
			c-0.04,0-0.06-0.02-0.06-0.06v-1.38c0-0.03,0.02-0.05,0.06-0.05H152.04z"/>
		<path class="st1" d="M154.16,24.48c0.04,0,0.07,0.02,0.07,0.05v1.38c0,0.04-0.02,0.06-0.07,0.06h-2.24
			c-0.04,0-0.06-0.02-0.06-0.06v-1.38c0-0.03,0.02-0.05,0.06-0.05H154.16z"/>
		<path class="st1" d="M156.28,24.48c0.04,0,0.07,0.02,0.07,0.05v1.38c0,0.04-0.02,0.06-0.07,0.06h-2.24
			c-0.04,0-0.06-0.02-0.06-0.06v-1.38c0-0.03,0.02-0.05,0.06-0.05H156.28z"/>
		<path class="st1" d="M158.39,24.48c0.04,0,0.07,0.02,0.07,0.05v1.38c0,0.04-0.02,0.06-0.07,0.06h-2.24
			c-0.04,0-0.06-0.02-0.06-0.06v-1.38c0-0.03,0.02-0.05,0.06-0.05H158.39z"/>
		<path class="st1" d="M160.51,24.48c0.04,0,0.07,0.02,0.07,0.05v1.38c0,0.04-0.02,0.06-0.07,0.06h-2.24
			c-0.04,0-0.06-0.02-0.06-0.06v-1.38c0-0.03,0.02-0.05,0.06-0.05H160.51z"/>
		<path class="st1" d="M162.63,24.48c0.04,0,0.07,0.02,0.07,0.05v1.38c0,0.04-0.02,0.06-0.07,0.06h-2.24
			c-0.04,0-0.06-0.02-0.06-0.06v-1.38c0-0.03,0.02-0.05,0.06-0.05H162.63z"/>
		<path class="st1" d="M164.74,24.48c0.04,0,0.07,0.02,0.07,0.05v1.38c0,0.04-0.02,0.06-0.07,0.06h-2.24
			c-0.04,0-0.06-0.02-0.06-0.06v-1.38c0-0.03,0.02-0.05,0.06-0.05H164.74z"/>
		<path class="st1" d="M166.86,24.48c0.04,0,0.07,0.02,0.07,0.05v1.38c0,0.04-0.02,0.06-0.07,0.06h-2.24
			c-0.04,0-0.06-0.02-0.06-0.06v-1.38c0-0.03,0.02-0.05,0.06-0.05H166.86z"/>
		<path class="st1" d="M168.97,24.48c0.04,0,0.07,0.02,0.07,0.05v1.38c0,0.04-0.02,0.06-0.07,0.06h-2.24
			c-0.04,0-0.06-0.02-0.06-0.06v-1.38c0-0.03,0.02-0.05,0.06-0.05H168.97z"/>
		<path class="st1" d="M171.09,24.48c0.04,0,0.07,0.02,0.07,0.05v1.38c0,0.04-0.02,0.06-0.07,0.06h-2.24
			c-0.04,0-0.06-0.02-0.06-0.06v-1.38c0-0.03,0.02-0.05,0.06-0.05H171.09z"/>
		<path class="st1" d="M172.37,24.48c-0.22-0.51-0.33-1.08-0.33-1.71c0-0.36,0.06-0.75,0.18-1.16c0.12-0.42,0.27-0.77,0.45-1.07
			c0.4-0.23,0.82-0.4,1.27-0.53c0.45-0.12,0.84-0.18,1.18-0.18c0.56,0,1.08,0.12,1.54,0.36c0.46,0.24,0.82,0.58,1.07,1.02
			c0.25,0.44,0.38,0.95,0.38,1.54c0,0.45-0.08,0.88-0.23,1.28c0.15,0.16,0.32,0.27,0.51,0.34c0.19,0.07,0.43,0.1,0.72,0.1h0.07
			c0.04,0,0.06,0.02,0.06,0.05v1.38c0,0.04-0.02,0.06-0.06,0.06h-0.07c-0.44,0-0.81-0.06-1.13-0.18c-0.32-0.12-0.62-0.34-0.91-0.64
			c-0.31,0.27-0.68,0.48-1.08,0.62c-0.41,0.14-0.83,0.21-1.26,0.21h-3.76c-0.04,0-0.06-0.02-0.06-0.06v-1.38
			c0-0.03,0.02-0.05,0.06-0.05H172.37z M173.74,23.03c0,0.42,0.09,0.9,0.28,1.45h0.47c0.5,0,0.92-0.17,1.25-0.5
			c0.34-0.33,0.5-0.74,0.5-1.22c0-0.44-0.11-0.79-0.32-1.05c-0.21-0.26-0.5-0.39-0.85-0.39c-0.37,0-0.76,0.11-1.15,0.34
			C173.8,22.1,173.74,22.56,173.74,23.03z"/>
		<path class="st1" d="M181.29,24.48c0.04,0,0.07,0.02,0.07,0.05v1.38c0,0.04-0.02,0.06-0.07,0.06h-2.24
			c-0.04,0-0.06-0.02-0.06-0.06v-1.38c0-0.03,0.02-0.05,0.06-0.05H181.29z"/>
		<path class="st1" d="M183.41,24.48c0.04,0,0.07,0.02,0.07,0.05v1.38c0,0.04-0.02,0.06-0.07,0.06h-2.24
			c-0.04,0-0.06-0.02-0.06-0.06v-1.38c0-0.03,0.02-0.05,0.06-0.05H183.41z"/>
		<path class="st1" d="M185.52,24.48c0.04,0,0.07,0.02,0.07,0.05v1.38c0,0.04-0.02,0.06-0.07,0.06h-2.24
			c-0.04,0-0.06-0.02-0.06-0.06v-1.38c0-0.03,0.02-0.05,0.06-0.05H185.52z"/>
		<path class="st1" d="M187.64,24.48c0.04,0,0.07,0.02,0.07,0.05v1.38c0,0.04-0.02,0.06-0.07,0.06h-2.24
			c-0.04,0-0.06-0.02-0.06-0.06v-1.38c0-0.03,0.02-0.05,0.06-0.05H187.64z"/>
		<path class="st1" d="M189.75,24.48c0.04,0,0.07,0.02,0.07,0.05v1.38c0,0.04-0.02,0.06-0.07,0.06h-2.24
			c-0.04,0-0.06-0.02-0.06-0.06v-1.38c0-0.03,0.02-0.05,0.06-0.05H189.75z"/>
		<path class="st1" d="M189.63,25.97c-0.04,0-0.06-0.02-0.06-0.06v-1.38c0-0.03,0.02-0.05,0.06-0.05h1.55v-7.92h1.84v9.41H189.63z"
			/>
		<path class="st1" d="M198.9,24.48c0.04,0,0.06,0.02,0.06,0.05v1.38c0,0.04-0.02,0.06-0.06,0.06h-3.39v-9.41h1.84v7.92H198.9z"/>
		<path class="st1" d="M201.01,24.48c0.04,0,0.07,0.02,0.07,0.05v1.38c0,0.04-0.02,0.06-0.07,0.06h-2.24
			c-0.04,0-0.06-0.02-0.06-0.06v-1.38c0-0.03,0.02-0.05,0.06-0.05H201.01z"/>
		<path class="st1" d="M203.13,24.48c0.04,0,0.07,0.02,0.07,0.05v1.38c0,0.04-0.02,0.06-0.07,0.06h-2.24
			c-0.04,0-0.06-0.02-0.06-0.06v-1.38c0-0.03,0.02-0.05,0.06-0.05H203.13z"/>
		<path class="st1" d="M205.24,24.48c0.04,0,0.07,0.02,0.07,0.05v1.38c0,0.04-0.02,0.06-0.07,0.06h-2.24
			c-0.04,0-0.06-0.02-0.06-0.06v-1.38c0-0.03,0.02-0.05,0.06-0.05H205.24z"/>
		<path class="st1" d="M207.36,24.48c0.04,0,0.07,0.02,0.07,0.05v1.38c0,0.04-0.02,0.06-0.07,0.06h-2.24
			c-0.04,0-0.06-0.02-0.06-0.06v-1.38c0-0.03,0.02-0.05,0.06-0.05H207.36z"/>
		<path class="st1" d="M209.48,24.48c0.04,0,0.07,0.02,0.07,0.05v1.38c0,0.04-0.02,0.06-0.07,0.06h-2.24
			c-0.04,0-0.06-0.02-0.06-0.06v-1.38c0-0.03,0.02-0.05,0.06-0.05H209.48z"/>
		<path class="st1" d="M211.59,24.48c0.04,0,0.07,0.02,0.07,0.05v1.38c0,0.04-0.02,0.06-0.07,0.06h-2.24
			c-0.04,0-0.06-0.02-0.06-0.06v-1.38c0-0.03,0.02-0.05,0.06-0.05H211.59z"/>
		<path class="st1" d="M213.71,24.48c0.04,0,0.07,0.02,0.07,0.05v1.38c0,0.04-0.02,0.06-0.07,0.06h-2.24
			c-0.04,0-0.06-0.02-0.06-0.06v-1.38c0-0.03,0.02-0.05,0.06-0.05H213.71z"/>
		<path class="st1" d="M215.82,24.48c0.04,0,0.07,0.02,0.07,0.05v1.38c0,0.04-0.02,0.06-0.07,0.06h-2.24
			c-0.04,0-0.06-0.02-0.06-0.06v-1.38c0-0.03,0.02-0.05,0.06-0.05H215.82z"/>
		<path class="st1" d="M217.94,24.48c0.04,0,0.07,0.02,0.07,0.05v1.38c0,0.04-0.02,0.06-0.07,0.06h-2.24
			c-0.04,0-0.06-0.02-0.06-0.06v-1.38c0-0.03,0.02-0.05,0.06-0.05H217.94z"/>
		<path class="st1" d="M220.06,24.48c0.04,0,0.07,0.02,0.07,0.05v1.38c0,0.04-0.02,0.06-0.07,0.06h-2.24
			c-0.04,0-0.06-0.02-0.06-0.06v-1.38c0-0.03,0.02-0.05,0.06-0.05H220.06z"/>
		<path class="st1" d="M222.17,24.48c0.04,0,0.07,0.02,0.07,0.05v1.38c0,0.04-0.02,0.06-0.07,0.06h-2.24
			c-0.04,0-0.06-0.02-0.06-0.06v-1.38c0-0.03,0.02-0.05,0.06-0.05H222.17z"/>
		<path class="st1" d="M224.29,24.48c0.04,0,0.07,0.02,0.07,0.05v1.38c0,0.04-0.02,0.06-0.07,0.06h-2.24
			c-0.04,0-0.06-0.02-0.06-0.06v-1.38c0-0.03,0.02-0.05,0.06-0.05H224.29z"/>
		<path class="st1" d="M226.4,24.48c0.04,0,0.07,0.02,0.07,0.05v1.38c0,0.04-0.02,0.06-0.07,0.06h-2.24c-0.04,0-0.06-0.02-0.06-0.06
			v-1.38c0-0.03,0.02-0.05,0.06-0.05H226.4z"/>
		<path class="st1" d="M233.88,24.48c0.04,0,0.06,0.02,0.06,0.05v1.38c0,0.04-0.02,0.06-0.06,0.06h-1.57c-0.39,0-0.79-0.07-1.21-0.2
			c-0.42-0.13-0.78-0.3-1.08-0.5c-0.76,0.46-1.53,0.7-2.3,0.7h-1.43c-0.04,0-0.06-0.02-0.06-0.06v-1.38c0-0.03,0.02-0.05,0.06-0.05
			h1.24c0.19,0,0.39-0.02,0.61-0.07c0.22-0.04,0.41-0.1,0.55-0.17c-0.25-0.19-0.51-0.49-0.78-0.89c-0.27-0.41-0.51-0.85-0.71-1.34
			c-0.2-0.48-0.34-0.95-0.41-1.4c0.48-0.4,1.04-0.72,1.67-0.95c0.63-0.23,1.23-0.35,1.81-0.35c1.18,0,2.22,0.25,3.11,0.74
			c0,0.89-0.18,1.72-0.54,2.46c-0.36,0.75-0.85,1.32-1.48,1.71c0.31,0.17,0.68,0.25,1.12,0.25H233.88z M230.04,23.48
			c0.97-0.58,1.49-1.39,1.56-2.45c-0.36-0.15-0.82-0.22-1.4-0.22c-0.27,0-0.55,0.05-0.86,0.14c-0.31,0.09-0.55,0.2-0.73,0.33
			c0.12,0.46,0.31,0.88,0.56,1.28C229.43,22.96,229.72,23.26,230.04,23.48z"/>
		<path class="st1" d="M236,24.48c0.04,0,0.07,0.02,0.07,0.05v1.38c0,0.04-0.02,0.06-0.07,0.06h-2.24c-0.04,0-0.06-0.02-0.06-0.06
			v-1.38c0-0.03,0.02-0.05,0.06-0.05H236z"/>
		<path class="st1" d="M238.12,24.48c0.04,0,0.07,0.02,0.07,0.05v1.38c0,0.04-0.02,0.06-0.07,0.06h-2.24
			c-0.04,0-0.06-0.02-0.06-0.06v-1.38c0-0.03,0.02-0.05,0.06-0.05H238.12z"/>
		<path class="st1" d="M240.23,24.48c0.04,0,0.07,0.02,0.07,0.05v1.38c0,0.04-0.02,0.06-0.07,0.06h-2.24
			c-0.04,0-0.06-0.02-0.06-0.06v-1.38c0-0.03,0.02-0.05,0.06-0.05H240.23z"/>
		<path class="st1" d="M240.11,25.97c-0.04,0-0.06-0.02-0.06-0.06v-1.38c0-0.03,0.02-0.05,0.06-0.05h1.55v-7.92h1.84v9.41H240.11z"
			/>
		<path class="st1" d="M245.98,16.56h1.84v9.41h-1.84V16.56z"/>
	</g>
	<path id="Path_469_11_" class="st2" d="M274.5,6.41c0.35-0.28,0.77-0.63,1.25-1.04c0.17-0.15,0.32-0.28,0.43-0.39
		c0.11-0.11,0.21-0.25,0.28-0.39c0.09-0.18,0.17-0.38,0.23-0.57l0.31-0.93h-0.03c-0.13,0.31-0.32,0.59-0.57,0.81
		c-0.24,0.2-0.49,0.39-0.75,0.57c-0.29,0.2-0.56,0.42-0.82,0.65c-0.31,0.29-0.56,0.64-0.74,1.03V6.12c0.2-0.56,0.34-1.04,0.44-1.43
		c0.1-0.39,0.18-0.73,0.26-1.03c0.07-0.27,0.16-0.52,0.29-0.77c0.14-0.24,0.34-0.46,0.57-0.62V2.24c-0.59,0.16-1.1,0.53-1.44,1.04
		c-0.37,0.54-0.56,1.17-0.56,1.83v2.28C273.87,7.01,274.16,6.68,274.5,6.41z M276.04,3.62c0.3-0.3,0.57-0.63,0.83-0.96
		c0.25-0.33,0.49-0.63,0.72-0.93c0.23-0.29,0.48-0.56,0.77-0.8l-0.03-0.03c-0.21,0.18-0.46,0.32-0.73,0.39
		c-0.33,0.1-0.64,0.24-0.93,0.42c-0.37,0.24-0.7,0.56-0.95,0.93c-0.37,0.57-0.63,1.21-0.78,1.87
		C275.34,4.26,275.71,3.96,276.04,3.62L276.04,3.62z M272.38,12.15c0.22,0.34,0.47,0.66,0.73,0.96c0.3,0.36,0.57,0.75,0.8,1.16h0.02
		c-0.03-0.17-0.04-0.35-0.04-0.52v-0.46c0.02-0.29,0.09-0.58,0.18-0.86c0.12-0.4,0.25-0.85,0.39-1.34c0.13-0.49,0.25-0.98,0.35-1.48
		c0.1-0.44,0.13-0.89,0.09-1.34h-0.03c-0.07,0.29-0.19,0.57-0.34,0.83c-0.16,0.27-0.33,0.55-0.51,0.85
		c-0.18,0.3-0.33,0.62-0.46,0.95c-0.13,0.35-0.2,0.72-0.2,1.09c0.01,0.18,0.03,0.36,0.08,0.54c0.04,0.13,0.06,0.27,0.08,0.41h-0.03
		c-0.08-0.47-0.2-0.92-0.37-1.37c-0.16-0.43-0.32-0.84-0.48-1.21c-0.16-0.37-0.29-0.71-0.4-1.01c-0.09-0.24-0.15-0.49-0.16-0.75
		c0-0.17,0-0.35,0.02-0.52c0.02-0.16,0.02-0.33,0.02-0.49h-0.04c-0.1,0.28-0.19,0.56-0.26,0.85c-0.1,0.34-0.15,0.69-0.16,1.04
		c-0.02,0.53,0.05,1.07,0.2,1.58C271.99,11.44,272.16,11.81,272.38,12.15L272.38,12.15z M278.32,20.98
		c0.12,0.01,0.24,0.02,0.36,0.02c0.16,0,0.33-0.01,0.49-0.03c0.15-0.02,0.35-0.05,0.59-0.1s0.55-0.11,0.93-0.21
		c0.38-0.1,0.88-0.22,1.51-0.37c-0.41-0.11-0.77-0.21-1.07-0.31c-0.34-0.12-0.65-0.31-0.91-0.57c-0.37-0.32-0.74-0.66-1.11-1.01
		c-0.29-0.27-0.59-0.52-0.88-0.79c-0.08-0.07-0.51-0.45-0.63-0.58l-0.03,0.03c0.05,0.08,0.45,0.89,0.45,0.89s0.06,0.09,0.09,0.13
		c0.11,0.19,0.22,0.39,0.32,0.58c0.04,0.08,0.08,0.15,0.12,0.23c0.13,0.25,0.31,0.47,0.54,0.63c0.4,0.32,0.87,0.56,1.37,0.68v0.03
		c-0.28-0.04-0.51-0.08-0.7-0.11c-0.19-0.03-0.37-0.06-0.53-0.08s-0.32-0.04-0.48-0.05c-0.2-0.01-0.39-0.02-0.59-0.05
		c-0.15-0.02-0.3-0.05-0.46-0.07c-0.16-0.02-0.3-0.04-0.45-0.05c-0.08-0.01-0.16-0.02-0.23-0.03c-0.28-0.03-0.55-0.08-0.82-0.15
		c-0.26-0.07-0.51-0.17-0.74-0.31c-0.28-0.17-0.55-0.38-0.79-0.6l-0.03,0.03c0.13,0.22,0.28,0.43,0.44,0.62
		c0.21,0.24,0.44,0.46,0.69,0.66c0.29,0.23,0.62,0.42,0.97,0.56c0.41,0.17,0.84,0.28,1.28,0.33
		C278.01,20.95,278.21,20.97,278.32,20.98L278.32,20.98z M273.23,10.77h0.04c0.02-0.18,0.05-0.35,0.1-0.52
		c0.06-0.19,0.14-0.38,0.24-0.55c0.15-0.27,0.32-0.53,0.5-0.78c0.22-0.3,0.5-0.72,0.87-1.24c0.23-0.35,0.4-0.74,0.52-1.14
		c0.13-0.43,0.21-0.75,0.26-0.95h-0.03c-0.04,0.1-0.09,0.19-0.15,0.28c-0.05,0.08-0.12,0.16-0.21,0.26c-0.09,0.1-0.2,0.21-0.34,0.34
		c-0.14,0.13-0.33,0.3-0.56,0.52c-0.36,0.29-0.64,0.66-0.84,1.08c-0.14,0.35-0.24,0.71-0.32,1.07h-0.03
		c0.01-0.17,0.02-0.34,0.03-0.51c0.01-0.16,0.01-0.37,0.01-0.64c0-0.33-0.02-0.71-0.06-1.14c-0.04-0.44-0.06-1-0.06-1.7
		c0-0.21,0.04-0.42,0.13-0.62c0.09-0.2,0.16-0.38,0.23-0.55h-0.03c-0.41,0.49-0.72,1.05-0.94,1.65c-0.16,0.49-0.24,1-0.25,1.52
		c0,0.59,0.12,1.17,0.34,1.71C272.9,9.49,273.09,10.13,273.23,10.77L273.23,10.77z M276.63,19.22l1.36,0.3l0.71,0.16
		c-0.26-0.28-0.49-0.59-0.69-0.92c-0.17-0.28-0.32-0.58-0.43-0.9c-0.13-0.36-0.32-0.83-0.56-1.42c-0.06-0.18-0.13-0.35-0.21-0.52
		c-0.08-0.15-0.16-0.31-0.26-0.47c-0.1-0.16-0.22-0.35-0.36-0.55c-0.14-0.21-0.32-0.46-0.54-0.77l-0.03,0.03
		c0.06,0.22,0.16,0.61,0.28,1.17c0.12,0.57,0.23,1.1,0.34,1.6c0.07,0.37,0.22,0.72,0.44,1.03c0.26,0.35,0.56,0.68,0.89,0.96
		l-0.03,0.03c-0.29-0.13-0.55-0.31-0.79-0.52c-0.36-0.3-0.76-0.55-1.18-0.75c-0.67-0.32-1.32-0.69-1.95-1.09
		c-0.47-0.32-0.84-0.76-1.06-1.29l-0.03,0.03c0.12,0.52,0.33,1.01,0.61,1.47c0.27,0.43,0.59,0.81,0.97,1.14
		c0.37,0.32,0.78,0.6,1.21,0.81C275.73,18.97,276.17,19.13,276.63,19.22L276.63,19.22z M273.58,15.86l2.41,1.6
		c-0.11-0.22-0.2-0.42-0.27-0.62c-0.08-0.21-0.14-0.43-0.18-0.65c-0.04-0.24-0.08-0.51-0.11-0.8s-0.07-0.65-0.11-1.06
		c-0.08-0.72-0.16-1.27-0.22-1.66c-0.08-0.43-0.19-0.86-0.35-1.27h-0.03c0,0.32-0.01,0.63-0.05,0.95c-0.03,0.24-0.07,0.48-0.13,0.72
		c-0.05,0.22-0.1,0.42-0.13,0.6c-0.04,0.21-0.05,0.42-0.05,0.64c0.02,0.32,0.09,0.63,0.21,0.93c0.11,0.32,0.25,0.63,0.4,0.93
		l-0.03,0.03c-0.32-0.52-0.68-1-1.09-1.45c-0.36-0.38-0.68-0.73-0.98-1.04c-0.27-0.29-0.52-0.6-0.75-0.93
		c-0.22-0.34-0.36-0.74-0.41-1.14c-0.03,0.1-0.05,0.21-0.06,0.31c-0.01,0.1-0.02,0.21-0.02,0.31c0,0.38,0.07,0.76,0.19,1.12
		c0.12,0.37,0.29,0.73,0.49,1.06c0.18,0.31,0.39,0.6,0.63,0.86C273.13,15.51,273.35,15.7,273.58,15.86L273.58,15.86z M293.39,1.73
		c0.23,0.29,0.47,0.6,0.72,0.93c0.26,0.34,0.54,0.66,0.83,0.96c0.33,0.34,0.71,0.64,1.11,0.9c-0.15-0.67-0.41-1.3-0.78-1.87
		c-0.25-0.37-0.57-0.69-0.95-0.93c-0.29-0.18-0.6-0.32-0.93-0.42c-0.27-0.07-0.52-0.21-0.73-0.39l-0.03,0.03
		C292.91,1.17,293.17,1.44,293.39,1.73L293.39,1.73z M295.53,19.35c-0.23,0.14-0.48,0.24-0.74,0.31c-0.27,0.07-0.54,0.12-0.82,0.15
		c-0.08,0.01-0.16,0.02-0.23,0.03l-0.45,0.05c-0.15,0.02-0.3,0.05-0.46,0.07c-0.19,0.03-0.39,0.04-0.59,0.05
		c-0.16,0.01-0.32,0.03-0.48,0.05s-0.33,0.05-0.53,0.08c-0.19,0.03-0.42,0.07-0.7,0.11v-0.03c0.5-0.12,0.97-0.36,1.37-0.68
		c0.23-0.17,0.41-0.38,0.54-0.63c0.04-0.08,0.08-0.15,0.12-0.23c0.1-0.19,0.21-0.39,0.32-0.58c0.03-0.05,0.09-0.13,0.09-0.13
		s0.4-0.81,0.45-0.89l-0.03-0.03c-0.12,0.12-0.55,0.5-0.63,0.58c-0.29,0.26-0.59,0.52-0.88,0.79c-0.37,0.35-0.74,0.68-1.11,1.01
		c-0.26,0.25-0.57,0.45-0.91,0.57c-0.3,0.1-0.66,0.2-1.07,0.31c0.63,0.15,1.14,0.28,1.51,0.37c0.38,0.1,0.69,0.17,0.93,0.21
		c0.24,0.04,0.43,0.08,0.59,0.1c0.16,0.02,0.33,0.03,0.49,0.03c0.13,0,0.25-0.01,0.36-0.02c0.1-0.01,0.31-0.03,0.31-0.03
		c0.44-0.06,0.87-0.17,1.28-0.33c0.35-0.14,0.67-0.33,0.97-0.56c0.25-0.2,0.48-0.42,0.69-0.66c0.17-0.19,0.32-0.4,0.44-0.62
		l-0.03-0.03C296.08,18.98,295.81,19.18,295.53,19.35L295.53,19.35z M297.36,16.6c-0.63,0.4-1.28,0.77-1.95,1.09
		c-0.42,0.2-0.82,0.45-1.18,0.75c-0.23,0.22-0.5,0.39-0.79,0.52l-0.03-0.03c0.33-0.29,0.63-0.61,0.89-0.96
		c0.22-0.3,0.37-0.66,0.44-1.03c0.11-0.5,0.22-1.03,0.34-1.6c0.12-0.57,0.21-0.96,0.28-1.17l-0.03-0.03
		c-0.22,0.3-0.4,0.56-0.54,0.77c-0.14,0.21-0.26,0.39-0.36,0.55c-0.1,0.16-0.18,0.32-0.26,0.47c-0.08,0.17-0.15,0.34-0.21,0.52
		c-0.24,0.59-0.42,1.06-0.56,1.42c-0.11,0.31-0.25,0.61-0.43,0.9c-0.2,0.33-0.43,0.64-0.69,0.92l0.71-0.16l1.36-0.3
		c0.46-0.09,0.9-0.25,1.31-0.46c0.44-0.22,0.85-0.49,1.21-0.81c0.38-0.33,0.7-0.72,0.97-1.14c0.28-0.45,0.49-0.95,0.61-1.47
		l-0.03-0.03C298.2,15.83,297.83,16.28,297.36,16.6L297.36,16.6z M298.34,10.36c-0.16,0.37-0.32,0.77-0.48,1.21
		c-0.16,0.45-0.28,0.9-0.37,1.37h-0.03c0.02-0.14,0.04-0.27,0.08-0.41c0.05-0.18,0.07-0.36,0.08-0.54c0-0.37-0.06-0.74-0.2-1.09
		c-0.13-0.33-0.28-0.64-0.46-0.95c-0.18-0.29-0.34-0.58-0.51-0.85c-0.16-0.26-0.27-0.54-0.34-0.83h-0.03
		c-0.04,0.45-0.01,0.9,0.09,1.34c0.1,0.5,0.22,0.99,0.35,1.48c0.13,0.49,0.26,0.93,0.39,1.34c0.1,0.28,0.16,0.57,0.18,0.86v0.46
		c0,0.17-0.01,0.35-0.04,0.52h0.02c0.23-0.41,0.49-0.8,0.8-1.16c0.26-0.3,0.51-0.63,0.73-0.96c0.22-0.34,0.4-0.71,0.52-1.09
		c0.14-0.51,0.21-1.05,0.19-1.58c-0.01-0.35-0.06-0.7-0.16-1.04c-0.07-0.29-0.16-0.57-0.26-0.85h-0.03c0,0.16,0.01,0.33,0.02,0.49
		c0.02,0.17,0.02,0.35,0.02,0.52c-0.01,0.26-0.07,0.51-0.16,0.75C298.64,9.65,298.5,9.99,298.34,10.36L298.34,10.36z M297.35,8.07
		c-0.2-0.42-0.48-0.78-0.84-1.08c-0.24-0.22-0.42-0.39-0.56-0.52c-0.14-0.13-0.25-0.25-0.34-0.34c-0.07-0.08-0.14-0.17-0.21-0.26
		c-0.06-0.09-0.11-0.18-0.15-0.28h-0.03c0.04,0.2,0.13,0.51,0.26,0.95c0.11,0.4,0.29,0.79,0.52,1.14c0.37,0.52,0.66,0.93,0.87,1.24
		c0.18,0.25,0.35,0.51,0.5,0.78c0.1,0.18,0.18,0.36,0.24,0.55c0.05,0.17,0.08,0.35,0.1,0.52h0.04c0.14-0.65,0.33-1.29,0.57-1.91
		c0.22-0.54,0.33-1.13,0.34-1.71c0-0.52-0.09-1.03-0.25-1.52c-0.21-0.6-0.53-1.16-0.94-1.65h-0.03c0.06,0.17,0.14,0.36,0.23,0.55
		c0.09,0.2,0.13,0.41,0.13,0.62c0,0.7-0.02,1.26-0.06,1.7c-0.04,0.43-0.06,0.81-0.06,1.14c0,0.26,0,0.47,0.01,0.64
		c0.01,0.16,0.02,0.33,0.03,0.51h-0.03C297.6,8.78,297.49,8.42,297.35,8.07L297.35,8.07z M295.91,2.89c0.13,0.24,0.23,0.5,0.29,0.77
		c0.08,0.29,0.16,0.63,0.26,1.03c0.1,0.39,0.24,0.87,0.44,1.43v0.03c-0.18-0.38-0.43-0.73-0.74-1.03c-0.26-0.24-0.53-0.45-0.82-0.65
		c-0.26-0.18-0.51-0.36-0.75-0.57c-0.25-0.22-0.45-0.5-0.57-0.81h-0.03l0.31,0.93c0.06,0.2,0.14,0.39,0.23,0.57
		c0.07,0.14,0.17,0.28,0.28,0.39c0.11,0.11,0.25,0.24,0.43,0.39c0.48,0.41,0.9,0.76,1.25,1.04c0.34,0.27,0.63,0.6,0.85,0.98V5.11
		c0.01-0.65-0.19-1.29-0.56-1.83c-0.33-0.51-0.84-0.89-1.44-1.04v0.03C295.58,2.44,295.77,2.65,295.91,2.89L295.91,2.89z
		 M292.14,21.65c-0.18,0-0.36-0.01-0.54-0.05c-0.16-0.03-0.36-0.07-0.6-0.11v0.01c-0.19-0.06-0.41-0.14-0.66-0.22
		c-0.25-0.09-0.55-0.2-0.9-0.33c-0.61-0.22-1.07-0.38-1.39-0.49c-0.3-0.11-0.61-0.16-0.93-0.16c-0.32,0-0.64,0.04-0.95,0.11
		c-0.32,0.07-0.56,0.13-0.72,0.17c-0.14-0.04-0.36-0.1-0.69-0.17c-0.31-0.07-0.63-0.11-0.94-0.11c-0.32,0-0.63,0.06-0.93,0.16
		c-0.31,0.11-0.78,0.27-1.39,0.48c-0.72,0.26-1.25,0.44-1.6,0.55c-0.35,0.11-0.71,0.16-1.07,0.16c-0.15,0-0.31-0.01-0.46-0.03
		c-0.13-0.02-0.26-0.05-0.39-0.1c0,0-0.31-0.09-0.48-0.16c-0.18-0.08-0.38-0.17-0.62-0.28l-0.03,0.03c0.35,0.33,0.73,0.63,1.15,0.88
		c0.55,0.33,1.17,0.51,1.81,0.52c0.23,0,0.47-0.01,0.7-0.05c0.21-0.03,0.42-0.09,0.62-0.18c0.21-0.09,0.43-0.19,0.68-0.32
		c0.25-0.13,0.55-0.3,0.9-0.52c0.37-0.24,0.68-0.43,0.93-0.57c0.26-0.14,0.56-0.22,0.86-0.21c0.13,0,0.27,0.02,0.39,0.07
		c-0.43,0.24-0.93,0.52-1.48,0.86c-0.6,0.37-1.14,0.82-1.61,1.34l0.55,0.49c0.48-0.57,1.02-1.09,1.6-1.56
		c0.45-0.39,0.95-0.7,1.5-0.93c0.55,0.23,1.06,0.54,1.51,0.93c0.59,0.47,1.13,0.99,1.61,1.56l0.55-0.49
		c-0.48-0.52-1.03-0.97-1.63-1.34c-0.57-0.33-1.07-0.62-1.5-0.86c0.14-0.04,0.28-0.06,0.43-0.07c0.3-0.01,0.6,0.07,0.87,0.21
		c0.25,0.14,0.56,0.33,0.93,0.57c0.33,0.2,0.61,0.36,0.85,0.5c0.21,0.13,0.44,0.24,0.67,0.33c0.2,0.07,0.4,0.13,0.61,0.18
		c0.21,0.04,0.42,0.07,0.64,0.06h0.13c0.51-0.01,1.02-0.12,1.48-0.33c0.56-0.24,1.06-0.61,1.45-1.08v-0.03
		c-0.35,0.17-0.71,0.32-1.08,0.44C292.71,21.61,292.43,21.65,292.14,21.65z M299.35,12.19c0-0.03,0-0.07,0-0.1
		c0-0.05-0.01-0.1-0.01-0.15c-0.01-0.1-0.04-0.2-0.06-0.31c-0.05,0.41-0.19,0.8-0.41,1.14c-0.23,0.33-0.47,0.64-0.75,0.93
		l-0.05,0.06c-0.28,0.3-0.59,0.63-0.93,0.99c-0.4,0.44-0.76,0.92-1.07,1.42l-0.01-0.01c0.15-0.3,0.28-0.61,0.38-0.93
		c0.11-0.3,0.18-0.61,0.19-0.93c0-0.21-0.01-0.43-0.05-0.64c-0.03-0.18-0.07-0.39-0.11-0.6c-0.04-0.22-0.08-0.46-0.11-0.72
		c-0.04-0.31-0.05-0.63-0.05-0.95h-0.03c0,0.01-0.01,0.01-0.01,0.02c0-0.01,0-0.01,0-0.02h-0.03c-0.16,0.41-0.27,0.84-0.35,1.27
		c-0.06,0.39-0.14,0.94-0.22,1.66c-0.04,0.41-0.08,0.77-0.11,1.06c-0.03,0.29-0.07,0.56-0.11,0.8c-0.04,0.22-0.1,0.44-0.18,0.65
		c-0.06,0.17-0.14,0.34-0.23,0.53c-0.02,0.03-0.03,0.06-0.05,0.09l0.01-0.01c0,0,0,0.01-0.01,0.01l0.8-0.54l1.63-1.06
		c0.23-0.16,0.45-0.36,0.64-0.57c0.24-0.26,0.45-0.55,0.62-0.86c0.12-0.21,0.22-0.42,0.31-0.64c0.06-0.14,0.11-0.28,0.16-0.42
		c0.13-0.36,0.19-0.74,0.19-1.12v0C299.35,12.23,299.35,12.21,299.35,12.19z M289.87,2.59c0.06,0.03,0.12,0.06,0.17,0.1
		c0.04,0.04,0.08,0.08,0.11,0.13c0.02,0.04,0.06,0.06,0.11,0.06c0.06,0,0.1-0.02,0.1-0.07s-0.01-0.06-0.02-0.05
		s-0.02-0.01-0.02-0.05c0.01-0.07-0.02-0.14-0.06-0.19c-0.07-0.08-0.19-0.11-0.28-0.07c-0.02-0.02-0.04-0.03-0.06-0.03h-0.03
		c-0.06,0-0.1,0.02-0.1,0.07C289.79,2.54,289.82,2.58,289.87,2.59L289.87,2.59z M286.41,1.81h0.07c0.13-0.05,0.26-0.07,0.39-0.08
		h0.46c0.07,0.01,0.15-0.03,0.2-0.08c0.04-0.05,0.07-0.1,0.1-0.15c-0.1-0.12-0.24-0.21-0.39-0.23c-0.11-0.02-0.22-0.03-0.33-0.03
		c-0.13,0.03-0.27,0.07-0.39,0.12c-0.22,0.08-0.35,0.13-0.39,0.15c-0.11-0.02-0.18,0-0.2,0.07c0.06,0.06,0.12,0.11,0.18,0.15
		C286.19,1.78,286.3,1.81,286.41,1.81L286.41,1.81z M285.43,19.67c5.43,0,9.83-4.4,9.83-9.83c0-5.43-4.4-9.83-9.83-9.83
		c-5.43,0-9.83,4.4-9.83,9.83C275.6,15.26,280,19.66,285.43,19.67L285.43,19.67z M276.1,10.08h1.5c0.02,0.66,0.12,1.31,0.31,1.94
		c-0.05-0.01-0.09-0.04-0.11-0.08l-0.05-0.05l-0.16-0.23l-0.27,0.1c0,0.15-0.05,0.21-0.16,0.16c-0.03-0.04-0.08-0.06-0.13-0.07
		c-0.16-0.01-0.3,0.11-0.31,0.27c0,0,0,0,0,0.01c-0.03,0.12-0.04,0.25-0.05,0.38l0.23,0.59c0.04,0.07,0.11,0.08,0.2,0.03
		c0.06,0.08,0.13,0.16,0.2,0.23c0.04,0.04,0.11,0.07,0.17,0.07c0.07,0,0.1-0.03,0.1-0.1h0.03c0.05,0.05,0.09,0.1,0.14,0.15
		c0.05,0.06,0.11,0.11,0.17,0.15V13.6c0.07,0.07,0.17,0.12,0.28,0.12c0.03,0.14,0.1,0.26,0.19,0.36c0.06,0.08,0.16,0.13,0.26,0.13
		c0.05,0,0.1-0.03,0.13-0.07c0.04,0.12,0.09,0.23,0.16,0.33c0.06,0.03,0.11,0.06,0.16,0.1c0.05,0.03,0.09,0.06,0.13,0.1h0.06l0,0
		c0.03,0.1,0.09,0.19,0.16,0.26c0.06,0.06,0.13,0.12,0.2,0.17c-0.01,0-0.01,0.01-0.02,0.01c0.01,0,0.01,0,0.02,0.01
		c0.01,0,0.02,0,0.02,0c0.02,0.02,0.04,0.05,0.07,0.07l-1.06,1.06C277.07,14.58,276.16,12.39,276.1,10.08L276.1,10.08z M283.3,7.33
		c-0.03-0.02-0.06-0.04-0.09-0.05l-0.1-0.1c0.58-0.5,1.3-0.8,2.06-0.85v1.04c-0.01-0.01-0.03-0.02-0.05-0.02
		c-0.01-0.01-0.02-0.02-0.02-0.03c0,0-0.01,0-0.01,0c-0.02-0.01-0.05-0.02-0.08-0.02c-0.01,0-0.02,0-0.04,0.01c0,0-0.01,0-0.01-0.01
		c-0.02,0-0.05,0-0.07,0.01c-0.02,0.01-0.05,0.02-0.08,0.02c-0.01,0-0.03,0-0.04-0.01c-0.04-0.04-0.06-0.09-0.05-0.15l0,0
		c0,0,0,0,0-0.01c-0.09,0.04-0.14,0.09-0.15,0.13s-0.03,0.12-0.05,0.23c-0.02,0.08-0.08,0.15-0.17,0.18
		c-0.07,0.02-0.14,0.06-0.2,0.11l-0.1-0.07h-0.17c-0.03-0.03-0.06-0.06-0.1-0.08c-0.02-0.01-0.05-0.03-0.07-0.05
		c-0.02-0.02-0.03-0.02-0.03,0c-0.04,0-0.08,0.03-0.09,0.07l-0.1-0.1l0.03-0.01V7.5C283.47,7.44,283.39,7.38,283.3,7.33L283.3,7.33z
		 M282.77,6.82l-1.01-1c0.94-0.86,2.15-1.36,3.42-1.42v1.42C284.29,5.87,283.44,6.23,282.77,6.82L282.77,6.82z M283.33,11.55
		c0.05-0.05,0.03-0.15,0.05-0.21l-0.11,0.1c0.08-0.07,0.14-0.15,0.2-0.25c0.03-0.06,0.06-0.12,0.1-0.18h0.01
		c0.04,0.07,0.07,0.14,0.12,0.21l-0.92,0.92c-0.37-0.42-0.63-0.93-0.76-1.48c0.08,0.01,0.16,0.03,0.23,0.06
		c0.07,0.06,0.14,0.12,0.21,0.19c0.05,0,0.09-0.01,0.13-0.03l0.13,0.1c-0.01,0.06,0,0.11,0.03,0.16c0,0.02,0.03,0.05,0.1,0.08
		c0.06,0.02,0.1,0.06,0.13,0.11l0.07-0.03c0-0.04-0.01-0.09-0.02-0.13c-0.01-0.07-0.01-0.1,0.02-0.1l0.07,0.23l0.07,0.26l0,0
		C283.22,11.6,283.28,11.59,283.33,11.55L283.33,11.55z M285.29,12.6c0.05,0.05,0.08,0.09,0.08,0.11c0,0.07-0.09,0.1-0.26,0.1
		c-0.07,0-0.11,0.06-0.13,0.19c-0.02,0.12-0.04,0.23-0.07,0.31c-0.02,0-0.04-0.01-0.05-0.01c0,0,0,0.01,0.01,0.01
		c-0.65-0.1-1.25-0.38-1.74-0.81l0.88-0.89c0.34,0.32,0.77,0.52,1.23,0.57c0,0.05,0.01,0.1,0.03,0.14c-0.04,0.04-0.07,0.1-0.07,0.16
		C285.21,12.5,285.23,12.54,285.29,12.6L285.29,12.6z M280.93,12.66c-0.01-0.19-0.03-0.37-0.07-0.56c-0.03-0.1-0.06-0.2-0.1-0.29
		c-0.01-0.15-0.05-0.3-0.1-0.44c-0.08-0.15-0.19-0.29-0.31-0.41v-0.19c-0.01-0.07-0.04-0.13-0.07-0.19v-0.03
		c-0.01-0.04,0.02-0.07,0.05-0.08c0.03-0.01,0.15-0.05,0.35-0.12c-0.01-0.1,0-0.2,0.03-0.3l0.24,0.04c0.07,0,0.1-0.04,0.1-0.14
		c-0.01-0.07-0.04-0.14-0.07-0.2c-0.03-0.08-0.06-0.16-0.07-0.24c0-0.05,0.03-0.08,0.1-0.12c0.06-0.03,0.13-0.05,0.2-0.05
		c0.09-0.01,0.18,0.03,0.23,0.11c0.04,0.07,0.07,0.16,0.07,0.24c0,0.06,0,0.12-0.02,0.18c-0.01,0.05-0.02,0.1-0.02,0.15l0.07,0.03
		c-0.04,0.22-0.13,0.32-0.26,0.32c-0.06,0-0.12-0.03-0.15-0.08c-0.02-0.05-0.06-0.08-0.11-0.08c-0.02,0-0.03,0.01-0.03,0.02
		c0,0,0,0.01,0,0.01c0,0.05,0.01,0.09,0.03,0.13c0.02,0.05,0.03,0.11,0.03,0.17c0,0.15-0.07,0.21-0.21,0.17
		c-0.04,0.08,0,0.12,0.14,0.12c0.05,0.13,0.09,0.19,0.14,0.17c0.04-0.07,0.06-0.14,0.07-0.22c0.01-0.09,0.03-0.17,0.07-0.26
		l0.03,0.03l0.14-0.03c0,0.02,0.01,0.03,0.01,0.05c0.01,0,0.03,0,0.04,0c0.13,0.72,0.46,1.39,0.94,1.94l-1.39,1.39
		c-0.06-0.06-0.09-0.14-0.08-0.22c0.03-0.13,0.16-0.22,0.18-0.35l0.03-0.26C281.07,12.94,280.99,12.8,280.93,12.66L280.93,12.66z
		 M280.14,10.61c0.02,0.04,0.03,0.09,0.03,0.13c0,0.07-0.02,0.09-0.07,0.08c-0.01,0-0.02,0-0.02,0c-0.05-0.24-0.07-0.49-0.09-0.74
		h0.27c0,0.05-0.01,0.09-0.03,0.13c-0.02,0.05-0.05,0.09-0.08,0.13c-0.03,0.04-0.05,0.08-0.05,0.13
		C280.1,10.52,280.12,10.57,280.14,10.61L280.14,10.61z M279.99,9.59c0.06-1.27,0.56-2.48,1.42-3.42l1.01,1.01
		c-0.01,0.01-0.02,0.02-0.03,0.03c-0.06,0.01-0.12,0.04-0.17,0.06c-0.04,0.05-0.09,0.11-0.15,0.19c-0.11,0.04-0.21,0.1-0.31,0.16
		c-0.09,0.08-0.17,0.17-0.25,0.26c-0.13,0.07-0.21,0.1-0.25,0.12c-0.04,0.02-0.08,0.05-0.12,0.08c0.04,0.11,0.04,0.17,0,0.18
		c-0.04,0.01-0.15,0.04-0.33,0.08c-0.03,0-0.05,0.01-0.07,0.03l-0.1,0.1c-0.02,0.04-0.03,0.07-0.03,0.11c0,0.04-0.01,0.08-0.03,0.11
		c-0.06,0.04-0.12,0.1-0.16,0.16c-0.04,0.09-0.04,0.2,0,0.29l0.04,0.33c0,0-0.01,0-0.01,0c0.01,0.03,0.02,0.07,0.03,0.1L279.99,9.59
		z M282.77,12.85c0.5,0.44,1.1,0.75,1.74,0.9c-0.05,0.02-0.1,0.03-0.14,0.05c-0.1,0.03-0.18,0.11-0.2,0.21c0,0.1-0.06,0.2-0.15,0.25
		c-0.08,0.03-0.1,0.08-0.08,0.15c0.11,0.11,0.19,0.25,0.23,0.4c0.04,0.15,0.17,0.27,0.33,0.3l0.2,0.07
		c0.07,0.01,0.14,0.03,0.19,0.07c0.06,0.01,0.11,0.02,0.17,0.03c-1.23-0.08-2.39-0.58-3.3-1.41L282.77,12.85z M281.41,5.47
		l-0.99-0.99c1.3-1.21,2.99-1.92,4.76-1.98V3.9C283.78,3.96,282.44,4.51,281.41,5.47L281.41,5.47z M281.06,5.82
		c-0.95,1.03-1.51,2.37-1.56,3.77h-1.41c0.06-1.78,0.76-3.47,1.98-4.76L281.06,5.82z M279.5,10.08c0.01,0.24,0.04,0.49,0.08,0.73
		c-0.02-0.03-0.04-0.06-0.05-0.1c-0.08-0.11-0.14-0.16-0.19-0.16c-0.06-0.01-0.11,0.03-0.13,0.08c-0.02,0.06-0.06,0.1-0.1,0.15
		c-0.11,0.08-0.23,0.14-0.36,0.16c-0.1,0.11-0.17,0.25-0.2,0.39c-0.02,0.04-0.02,0.1,0.02,0.13c0.03,0.04,0.02,0.09-0.05,0.13
		c0.04,0.09,0.06,0.14,0.03,0.16c0.02,0.04,0.02,0.06-0.02,0.05c-0.03-0.01-0.06-0.01-0.08,0.02c-0.02,0.02-0.04,0.05-0.05,0.07
		c-0.17-0.59-0.27-1.2-0.29-1.82L279.5,10.08z M285.18,19.17c-2.3-0.06-4.5-0.97-6.17-2.56l1.06-1.06c1.39,1.31,3.21,2.06,5.11,2.12
		V19.17z M285.18,17.18c-1.77-0.06-3.45-0.75-4.74-1.96c0.08,0.04,0.18,0.07,0.27,0.07c0.09-0.01,0.18-0.03,0.26-0.07
		c0.11-0.05,0.21-0.09,0.29-0.14c0.1,0.01,0.2-0.02,0.29-0.07c0.08,0.02,0.16,0.02,0.25,0c0.07-0.02,0.12-0.09,0.11-0.16
		c-0.01-0.08-0.05-0.14-0.12-0.18c-0.08-0.05-0.12-0.1-0.12-0.15c0-0.02-0.02-0.05-0.07-0.08c-0.08-0.07-0.15-0.15-0.21-0.24l0,0
		c1.03,0.95,2.37,1.51,3.77,1.56L285.18,17.18z M285.45,13.52L285.45,13.52c-0.11,0-0.22-0.02-0.33-0.06
		c-0.01-0.03-0.02-0.06-0.03-0.09c0.05-0.04,0.1-0.07,0.15-0.1c0.06-0.04,0.13-0.07,0.2-0.08v-0.09l0.24-0.18
		c0.03-0.02,0.05-0.03,0.08-0.03c0.06-0.02,0.13-0.04,0.19-0.07c0.09,0.03,0.17,0.07,0.25,0.11c0.08,0.05,0.16,0.09,0.25,0.11
		l0.03-0.13c0.04,0,0.11,0.04,0.2,0.13c0.06-0.01,0.12-0.03,0.16-0.07c0.02-0.05,0.02-0.11,0-0.16c0.03,0,0.07,0.02,0.1,0.03
		c0.02,0,0.04,0,0.05,0.02c0.01,0.01,0.03,0.02,0.05,0.02h0.03c0.07-0.01,0.13-0.04,0.18-0.08c0.06-0.04,0.12-0.08,0.18-0.11
		c0.01-0.02,0.04-0.02,0.06-0.01c0,0,0.01,0.01,0.01,0.01c0.03,0.04,0.04,0.08,0.03,0.13c0,0.18-0.11,0.33-0.28,0.39
		c-0.15,0.07-0.31,0.14-0.48,0.2c-0.04,0.04-0.06,0.09-0.08,0.15c-0.03,0.08-0.07,0.11-0.11,0.11c-0.14-0.01-0.27-0.03-0.4-0.07
		c-0.04-0.06-0.08-0.13-0.1-0.2c-0.08,0-0.16,0.01-0.24,0.03l-0.27,0.07C285.54,13.53,285.49,13.53,285.45,13.52L285.45,13.52z
		 M286.86,12.44c0.01-0.1,0.07-0.18,0.16-0.21c0.08-0.03,0.17-0.05,0.26-0.05c0,0.07-0.06,0.13-0.18,0.2
		c-0.07,0.04-0.14,0.08-0.21,0.1L286.86,12.44z M287.88,11.64c0.09,0.05,0.14,0.15,0.13,0.25c0.01,0.06-0.04,0.12-0.1,0.13
		c-0.01,0-0.02,0-0.03,0c-0.07,0-0.12-0.08-0.16-0.23c-0.15-0.04-0.24-0.11-0.26-0.21c-0.02-0.1-0.01-0.16,0.03-0.18
		c0.04-0.02,0.09-0.04,0.13-0.05c0.04-0.01,0.05,0.04,0.03,0.15C287.72,11.54,287.79,11.59,287.88,11.64L287.88,11.64z M291.03,6.15
		c0.03,0,0.05,0.01,0.07,0.03c0.08,0,0.16,0.02,0.23,0.07c0.15,0.15,0.29,0.31,0.4,0.49c0.02,0,0.05,0.03,0.08,0.1
		c0.03,0.07,0.07,0.1,0.12,0.1c0.06-0.01,0.12-0.02,0.17-0.05c0.01-0.03,0.01-0.06,0.02-0.09c0.4,0.88,0.63,1.83,0.66,2.8h-1.39
		c0-0.01,0-0.02,0.01-0.02c0.01-0.13-0.02-0.25-0.08-0.37c-0.07-0.15-0.09-0.32-0.05-0.48c0.03-0.09,0.04-0.19,0.02-0.28
		c-0.05-0.01-0.09,0.01-0.13,0.03c-0.03,0.04-0.06,0.09-0.08,0.15c-0.03,0.08-0.06,0.14-0.08,0.18v0.02
		c-0.01,0.02-0.02,0.04-0.02,0.06c-0.01,0.03-0.02,0.06-0.03,0.08c-0.02,0.09-0.05,0.17-0.07,0.26c-0.02,0.09-0.02,0.18,0,0.26
		c0,0,0,0,0,0.01c0,0.03,0.01,0.07,0.01,0.1h-0.71c0.04-0.04,0.09-0.08,0.15-0.1h-0.02l0.19-0.1c-0.04-0.02-0.06-0.05-0.06-0.1
		c0-0.06,0.01-0.1,0.03-0.11c0.02-0.01,0.08-0.04,0.19-0.08c0.07-0.09,0.13-0.2,0.17-0.31c0.12-0.2,0.21-0.42,0.26-0.65
		c0-0.05-0.07-0.12-0.07-0.17c0-0.05,0.01-0.09,0.02-0.14c0.01-0.23,0.1-0.63-0.19-0.7c-0.02,0-0.03-0.03-0.03-0.1
		c0.07-0.06,0.1-0.16,0.07-0.25h-0.2c0.01-0.04,0.02-0.08,0.05-0.12c0.03-0.04,0.05-0.09,0.05-0.15c0.01-0.05-0.03-0.09-0.08-0.1
		c-0.01,0-0.02,0-0.02,0c-0.06,0-0.12,0.01-0.17,0.03c-0.03,0.02-0.07,0.03-0.1,0.03c-0.02,0-0.03,0-0.05-0.01
		c-0.02-0.02-0.03-0.05-0.05-0.07c-0.01-0.12-0.06-0.23-0.14-0.32c-0.07-0.09-0.16-0.15-0.26-0.19c0,0-0.01-0.01-0.01-0.01
		c0.01-0.05,0.01-0.09,0-0.14l0.28-0.28l0.4,0.14c-0.01,0.09,0.03,0.18,0.1,0.23c0.04,0.04,0.09,0.07,0.14,0.1
		c0.06,0.04,0.11,0.07,0.16,0.12v0.02C290.98,6.13,291.01,6.15,291.03,6.15L291.03,6.15z M289.68,15.67
		c-0.02-0.02-0.05-0.03-0.08-0.03c-0.03,0-0.05-0.02-0.05-0.07s0.03-0.09,0.1-0.13c0.08-0.06,0.13-0.14,0.17-0.23
		c0.04-0.06,0.06-0.13,0.07-0.2c0-0.04-0.02-0.07-0.05-0.08c-0.04-0.02-0.08-0.05-0.12-0.08c-0.04-0.02-0.09-0.04-0.15-0.06
		c-0.06-0.03-0.12-0.06-0.18-0.1c-0.06-0.03-0.1-0.1-0.1-0.16c0.01-0.06,0.03-0.11,0.05-0.16c0.01-0.03,0.02-0.06,0.04-0.09
		c0.02-0.02,0.05-0.04,0.07-0.06l0.76,0.76c0,0.09,0.05,0.14,0.15,0.15l0.08,0.08c-0.26,0.25-0.55,0.47-0.85,0.68
		c0.01-0.03,0.03-0.06,0.05-0.09c0.01-0.01,0.02-0.02,0.04-0.03C289.7,15.73,289.7,15.7,289.68,15.67L289.68,15.67z M289.23,12.07
		c-0.07-0.02-0.14-0.01-0.2,0.03c-0.09,0.03-0.17,0.1-0.2,0.19c0,0.02-0.01,0.03-0.03,0.03c0,0-0.01,0-0.01,0
		c-0.05,0-0.09,0.01-0.13,0.03c-0.06,0.02-0.11,0.04-0.16,0.07c-0.07,0-0.1-0.02-0.1-0.07c0-0.06,0.1-0.11,0.29-0.13
		c0.09-0.11,0.14-0.17,0.16-0.19c0.05-0.03,0.1-0.05,0.15-0.06c0.1-0.06,0.18-0.14,0.24-0.24c0.05-0.06,0.09-0.13,0.12-0.21h0.03
		c0,0.11,0.05,0.16,0.14,0.16c0.07,0,0.12-0.08,0.17-0.23c0.09,0.03,0.18,0.06,0.27,0.07c0.1,0.01,0.19-0.04,0.24-0.12h0.41
		l-0.01,0.03l-0.01,0.03h0c-0.23,0.72-0.6,1.39-1.1,1.96c0-0.03-0.01-0.07-0.01-0.1c-0.01,0.01-0.1-0.3-0.12-0.3
		c-0.04,0-0.09,0.08-0.16,0.23c-0.06,0.15-0.1,0.25-0.12,0.29l-0.33,0.07c-0.1,0.02-0.19,0.03-0.29,0.03
		c-0.1-0.02-0.19-0.06-0.28-0.11c-0.09-0.05-0.18-0.09-0.28-0.11c-0.09-0.03-0.18-0.05-0.28-0.07c-0.12-0.02-0.18-0.05-0.18-0.1
		c0-0.07,0.04-0.1,0.13-0.1c0.09,0.01,0.18,0.02,0.26,0.05c0.13,0.03,0.26,0.07,0.39,0.1c0.13,0.03,0.25,0.07,0.36,0.1
		c0.06,0.02,0.13,0.04,0.2,0.05l0.2-0.07c0.01-0.06,0.03-0.13,0.07-0.18c0.04-0.05,0.06-0.12,0.07-0.18
		c0.06-0.11,0.1-0.24,0.12-0.36c0.03-0.13,0.05-0.26,0.05-0.39C289.33,12.15,289.29,12.09,289.23,12.07L289.23,12.07z M290.1,10.08
		h0.77c-0.01,0.32-0.06,0.64-0.13,0.96c-0.04-0.11-0.1-0.2-0.17-0.29l-0.27-0.26c-0.02-0.11-0.04-0.19-0.05-0.23
		c-0.01-0.03-0.03-0.05-0.05-0.08C290.17,10.15,290.13,10.12,290.1,10.08L290.1,10.08z M290.41,14.09c-0.07,0-0.1,0.02-0.1,0.05
		c-0.01,0.07-0.02,0.14-0.03,0.2l-0.49-0.49c0.66-0.72,1.14-1.59,1.38-2.54c0.01-0.01,0.02-0.01,0.02-0.02
		c0.11,0.04,0.18,0.04,0.22,0c0.02-0.03,0.04-0.06,0.05-0.1c0-0.06-0.05-0.15-0.16-0.26h-0.04c0.05-0.28,0.09-0.57,0.1-0.85h1.41
		c-0.06,1.78-0.76,3.47-1.98,4.76l-0.06-0.06c0,0,0-0.01,0-0.01c-0.02-0.15-0.04-0.3-0.07-0.44
		C290.63,14.17,290.55,14.09,290.41,14.09L290.41,14.09z M290.07,6.99C290.07,6.99,290.07,7,290.07,6.99c0,0.06-0.01,0.12-0.03,0.17
		c-0.02,0.06-0.04,0.11-0.06,0.16c0.07,0.09,0.16,0.17,0.26,0.23c0.1,0.07,0.2,0.15,0.29,0.23c0.07,0.12,0.11,0.25,0.15,0.38
		c0.04,0.11,0.07,0.23,0.08,0.35c-0.02,0.08-0.05,0.16-0.1,0.23c-0.07,0.12-0.19,0.19-0.33,0.2l-0.03-0.03
		c0.01-0.07,0.03-0.13,0.07-0.19c0.04-0.06,0.06-0.13,0.07-0.19c0.07-0.04,0.12-0.11,0.13-0.19c-0.04-0.02-0.08-0.04-0.1-0.05
		c-0.06-0.04-0.11-0.09-0.16-0.15c0-0.06-0.07-0.1-0.2-0.1c-0.06,0-0.12,0.02-0.16,0.05c-0.04,0.03-0.1,0.07-0.16,0.11l-0.06-0.13
		c0.02-0.04,0.03-0.09,0.03-0.14l-0.26-0.44c-0.11-0.06-0.23-0.1-0.36-0.11c-0.09-0.02-0.18-0.01-0.26,0.01
		c-0.09,0.01-0.17,0.01-0.26-0.01c-0.09-0.01-0.19,0.02-0.26,0.08c-0.08,0.06-0.15,0.13-0.22,0.21c-0.03,0.04,0.01,0.09-0.08,0.07
		c-0.03-0.03-0.06-0.05-0.08-0.09l1.49-1.49c0.01,0.02,0.02,0.03,0.03,0.05c0.02,0.02,0.06,0.07,0.13,0.15
		c0.05,0.05,0.09,0.11,0.14,0.17C289.86,6.68,289.97,6.83,290.07,6.99L290.07,6.99z M286.5,16.81c0.12,0.1,0.27,0.17,0.42,0.22
		c-0.41,0.09-0.83,0.14-1.24,0.15v-1.41l0,0c0.06,0.09,0.13,0.16,0.21,0.22c0.09,0.03,0.19,0.05,0.29,0.05
		c0.15,0.01,0.22,0.04,0.22,0.08c0,0.05-0.02,0.1-0.05,0.15c-0.03,0.04-0.05,0.09-0.05,0.15C286.29,16.57,286.37,16.72,286.5,16.81
		L286.5,16.81z M285.68,19.17v-1.5c0.55-0.02,1.09-0.09,1.62-0.22c0,0.01,0.01,0.02,0.01,0.03c0,0.01,0.01,0.03,0.01,0.04
		c0.13,0.08,0.24,0.19,0.33,0.31c0.04,0.09,0.16,0.13,0.36,0.13c0.08,0.01,0.16-0.01,0.21-0.07c0.04-0.05,0.07-0.09,0.11-0.13
		c0.05-0.05,0.1-0.08,0.16-0.1c0.06-0.01,0.1-0.05,0.13-0.1c0.1-0.03,0.18-0.1,0.23-0.2c0.09-0.07,0.16-0.16,0.2-0.26
		c0.05-0.01,0.1-0.04,0.13-0.08c0.06-0.11,0.11-0.22,0.13-0.34c0.02-0.01,0.04-0.02,0.06-0.03c0-0.02,0.01-0.03,0.01-0.05
		c0.51-0.3,0.98-0.65,1.41-1.05l1.06,1.06C290.18,18.19,287.98,19.11,285.68,19.17L285.68,19.17z M292.2,16.25l-1.06-1.06
		c1.31-1.39,2.06-3.21,2.12-5.11h1.5C294.7,12.39,293.79,14.59,292.2,16.25L292.2,16.25z M294.76,9.59h-1.5
		c-0.05-1.58-0.58-3.1-1.51-4.38c-0.02-0.05-0.04-0.1-0.07-0.14c-0.03-0.03-0.05-0.05-0.08-0.08c-0.12-0.16-0.25-0.3-0.38-0.45
		c-0.02-0.03-0.03-0.07-0.04-0.1l1.03-1.03C293.79,5.08,294.7,7.28,294.76,9.59L294.76,9.59z M285.68,0.5
		c2.3,0.06,4.5,0.97,6.17,2.56l-0.91,0.91c-0.02-0.04-0.04-0.09-0.05-0.14c-0.07-0.07-0.12-0.1-0.14-0.1
		c-0.08-0.04-0.14-0.12-0.15-0.21c0-0.08-0.03-0.15-0.08-0.21c-0.14-0.05-0.26-0.15-0.33-0.29c-0.09-0.15-0.17-0.23-0.26-0.23
		c-0.07,0.02-0.15,0.01-0.21-0.02c-0.07-0.03-0.14-0.05-0.21-0.06c-0.08,0-0.16,0.01-0.23,0.03c-0.08,0.03-0.17,0.05-0.26,0.06
		c-0.01,0.01-0.02,0.02-0.03,0.03c-0.99-0.51-2.08-0.79-3.19-0.84c0.09-0.14,0.1-0.22,0.03-0.27c-0.02-0.02-0.07,0.01-0.14,0.08
		L285.68,0.5z M285.68,2.49c1.06,0.04,2.1,0.3,3.05,0.78c0,0.01,0,0.01,0,0.02c0.04,0.04,0.08,0.09,0.13,0.14
		c0.05,0.06,0.09,0.11,0.11,0.13c0.03,0.1,0.06,0.2,0.1,0.29c0.03,0.06,0.06,0.11,0.1,0.16c-0.02,0.09,0,0.19,0.05,0.27
		c0.05,0.1,0.11,0.19,0.18,0.28c0.04,0,0.09-0.01,0.13-0.02c0.05-0.01,0.11-0.02,0.16-0.02c0.04,0,0.09,0.03,0.15,0.1
		c0.05,0.06,0.09,0.12,0.11,0.2c0.01,0.03,0.02,0.07,0.03,0.11l-0.4,0.4l0,0c-0.04-0.19-0.11-0.37-0.19-0.54
		c-0.07-0.06-0.16-0.09-0.26-0.08c-0.02-0.02-0.1-0.12-0.23-0.28c-0.13-0.17-0.21-0.25-0.23-0.25c-0.04,0-0.07,0.01-0.1,0.03
		c0.02,0.04,0.04,0.08,0.07,0.12c0.02,0.03,0.07,0.11,0.13,0.22c0,0.03-0.02,0.06-0.05,0.07c-0.01,0-0.01,0-0.02,0
		c0.02,0.08,0.08,0.15,0.16,0.17l-0.03,0.07l0.1,0.19c-0.95-0.69-2.08-1.09-3.25-1.13L285.68,2.49z M285.68,4.4
		c1.27,0.06,2.48,0.56,3.42,1.42l-1.01,1c-0.67-0.59-1.52-0.95-2.41-1V4.4z M285.68,6.32c0.71,0.05,1.39,0.32,1.95,0.77
		c-0.02,0.01-0.05,0.02-0.07,0.04c-0.02,0.02-0.04,0.03-0.07,0.05c-0.02,0.01-0.03,0.04-0.03,0.08c0,0.05,0.07,0.07,0.12,0.08
		l-0.39,0.39v0c-0.05,0.03-0.1,0.06-0.15,0.1c-0.09,0.04-0.14,0.08-0.15,0.12c-0.01,0.02-0.02,0.06-0.03,0.11l-0.13,0.13
		c-0.02,0.01-0.04,0.01-0.06,0.01c-0.04,0-0.11-0.04-0.2-0.13c-0.09-0.09-0.16-0.13-0.2-0.13c-0.05,0-0.11,0.01-0.15,0.05
		C286.11,8,286.06,8,286.02,7.98c-0.04-0.04,0.01-0.09,0.15-0.15s0.24-0.09,0.28-0.12c0.17-0.12,0.27-0.32,0.27-0.53
		c0-0.11-0.04-0.17-0.13-0.17l-0.1,0.09c-0.09,0.04-0.16,0.09-0.23,0.16c-0.07,0.06-0.12,0.12-0.17,0.16
		c-0.06-0.03-0.13-0.04-0.2-0.03h-0.2c0,0-0.01,0.01-0.01,0.01L285.68,6.32z M285.39,8.57c0.02,0.03,0.04,0.05,0.06,0.05
		c0.06,0,0.11,0.02,0.16,0.05c0.05,0.03,0.11,0.04,0.17,0.02c0.01,0.02,0.02,0.05,0.04,0.06c0.02,0.05,0.07,0.08,0.13,0.07
		c0.01,0.01,0.03,0.03,0.04,0.04c0.01,0.01,0.01,0.02,0.02,0.03c0.02,0.04,0.03,0.08,0.05,0.12c0.01,0,0.01,0,0.01,0
		c0.01,0.01,0.01,0.02,0.01,0.03c0.03,0.02,0.07,0.03,0.1,0.02c0.03-0.01,0.06,0,0.08,0.01c0,0.02,0,0.05,0.01,0.07h0.02
		c0,0.03,0.01,0.05,0.01,0.08c0.01,0.05,0.02,0.1,0.02,0.15v0.07c0,0.02-0.01,0.03-0.03,0.03c-0.06,0.05-0.1,0.12-0.11,0.19
		c0,0.04,0.03,0.06,0.09,0.05c0.05-0.01,0.1,0.01,0.12,0.05c0.05,0.05,0.08,0.12,0.07,0.19v0.29c0,0.04,0.02,0.08,0.05,0.1
		c0.03,0.02,0.05,0.04,0.05,0.06c0,0.08-0.01,0.16-0.03,0.24c-0.01,0.08-0.05,0.15-0.1,0.21c-0.02,0.02-0.08,0.02-0.17,0
		c-0.08-0.02-0.16-0.03-0.24-0.03c-0.05,0-0.09,0.07-0.14,0.19c-0.04,0.1-0.07,0.19-0.1,0.3c-0.02,0.09-0.07,0.13-0.13,0.13
		c-0.05,0-0.09,0.01-0.13,0.02c-0.01,0-0.02,0-0.02,0l-0.11,0.18l-0.03,0.05c-0.37-0.02-0.72-0.18-0.99-0.43l0.17-0.17
		c0.11-0.01,0.21-0.04,0.32-0.07c0.02-0.01,0.04-0.01,0.06-0.02c0.18-0.08,0.16-0.22,0.25-0.37c0.06-0.1,0.22-0.21,0.09-0.32
		c0.15-0.26-0.53-0.26-0.65-0.2c-0.14,0.07-0.05,0.22-0.13,0.33c-0.04,0.06-0.1,0.06-0.16,0.1c-0.11,0.09-0.2,0.21-0.25,0.34l0,0
		c-0.04-0.08-0.08-0.16-0.11-0.25c0.01,0,0.02,0,0.03,0.01c-0.01-0.03-0.02-0.05-0.01-0.06h0.03v0.03c0.09,0.02,0.14,0.02,0.16,0
		c0.02-0.06,0.04-0.12,0.05-0.18c0.05-0.13,0.11-0.26,0.18-0.38c-0.04-0.02-0.07-0.06-0.08-0.1c-0.01-0.04-0.04-0.06-0.08-0.03
		c-0.04,0.02-0.06,0.06-0.06,0.1c0,0.05-0.02,0.1-0.06,0.13c-0.03,0.04-0.08,0.06-0.13,0.07c0.01-0.05-0.03-0.09-0.07-0.1
		c-0.01,0-0.02,0-0.02,0c-0.05,0-0.1,0.03-0.13,0.07c-0.04,0-0.15,0.01-0.31,0.03c-0.1,0.02-0.21,0.02-0.31,0
		c-0.04-0.04,0.01-0.09,0.16-0.13c-0.01-0.15,0.05-0.3,0.16-0.4c0.06,0.04,0.13,0.06,0.2,0.07l0.07-0.07h0.03
		c0.07,0,0.1,0.06,0.11,0.17c0.01,0.11,0.04,0.17,0.08,0.17c0.05,0,0.1-0.03,0.13-0.07V9.77c0.04-0.18,0.08-0.3,0.1-0.36v-0.1
		c0.02-0.06,0.06-0.11,0.1-0.16h0.04c0.04-0.04,0.1-0.06,0.15-0.07c0.04-0.06,0.06-0.13,0.07-0.2c0.07-0.02,0.18-0.07,0.34-0.13
		c0.16-0.07,0.25-0.13,0.25-0.2c0-0.01,0-0.01,0-0.02c0.07-0.02,0.15-0.03,0.22-0.03C285.35,8.52,285.37,8.55,285.39,8.57z
		 M285.18,0.5V2c-1.91,0.06-3.73,0.81-5.11,2.12l-1.06-1.06C280.68,1.47,282.88,0.56,285.18,0.5L285.18,0.5z M278.66,3.41l1.06,1.06
		c-1.31,1.39-2.06,3.21-2.12,5.12h-1.5C276.16,7.28,277.07,5.08,278.66,3.41z"/>
	<path id="Path_468_11_" class="st3" d="M261.63,25.97V0"/>
</g>
</svg>
