<svg width="31" height="31" viewBox="0 0 31 31" fill="none" xmlns="http://www.w3.org/2000/svg">
<path opacity="0.9" d="M3.65532 5.35991L12.0396 23.9288L5.20861 27.2119C3.63767 25.8352 2.33149 24.0877 1.41363 22.0402C0.478128 19.9926 0.0192004 17.8392 0.0015493 15.7211C-0.0514039 11.9261 1.25478 8.23704 3.65532 5.35991Z" fill="white"/>
<path opacity="0.8" d="M24.819 3.77132L6.83254 12.438L3.6377 5.37756C4.97918 3.77132 6.65603 2.41218 8.6506 1.45903C14.193 -1.20628 20.4945 -0.0942676 24.819 3.77132Z" fill="white"/>
<path opacity="0.6" d="M28.614 8.94308C31.191 14.662 30.1143 21.1576 26.3723 25.6233L17.988 7.07207L24.8367 3.77132C26.3723 5.1481 27.6785 6.89556 28.614 8.94308Z" fill="white"/>
<path opacity="0.7" d="M23.1774 18.5629L26.3722 25.6233C25.0308 27.2296 23.3363 28.5887 21.3593 29.5419C15.8346 32.2072 9.53313 31.0952 5.20862 27.2119L23.1774 18.5629Z" fill="white"/>
</svg>
