<?xml version="1.0" encoding="utf-8"?>
<!-- Generator: Adobe Illustrator 26.0.1, SVG Export Plug-In . SVG Version: 6.00 Build 0)  -->
<svg version="1.1" id="Layer_1" xmlns="http://www.w3.org/2000/svg" xmlns:xlink="http://www.w3.org/1999/xlink" x="0px" y="0px"
	 viewBox="0 0 34.2 28.8" style="enable-background:new 0 0 34.2 28.8;" xml:space="preserve">
<style type="text/css">
	.st0{fill:#5090CD;}
</style>
<path id="Path_469" class="st0" d="M3.5,7.9c0.4-0.4,1-0.8,1.5-1.3c0.2-0.2,0.4-0.3,0.5-0.5C5.7,6,5.9,5.9,5.9,5.7
	C6,5.5,6.1,5.2,6.2,5l0.4-1.2l0,0c-0.2,0.4-0.4,0.7-0.7,1C5.6,5.1,5.3,5.3,5,5.5C4.6,5.8,4.3,6.1,4,6.3C3.6,6.7,3.2,7.1,3,7.6l0,0
	c0.2-0.7,0.4-1.3,0.5-1.8l0.3-1.3C3.9,4.2,4,3.9,4.2,3.6S4.6,3,4.9,2.8l0,0C4.2,3.1,3.6,3.5,3.2,4.1C2.7,4.7,2.5,5.5,2.5,6.3v2.8
	C2.8,8.7,3.1,8.3,3.5,7.9z M5.4,4.5c0.4-0.4,0.7-0.8,1-1.2C6.7,2.9,7,2.5,7.3,2.2c0.3-0.4,0.6-0.7,0.9-1l0,0C8,1.4,7.7,1.6,7.3,1.7
	C6.9,1.8,6.6,2,6.2,2.2C5.7,2.5,5.3,2.8,5,3.3C4.5,4,4.2,4.8,4,5.6C4.5,5.3,5,4.9,5.4,4.5z M0.9,15c0.3,0.4,0.6,0.8,0.9,1.2
	c0.4,0.4,0.7,0.9,1,1.4l0,0c0-0.2,0-0.4,0-0.6v-0.6c0-0.4,0.1-0.7,0.2-1.1c0.2-0.5,0.3-1,0.5-1.6s0.3-1.2,0.4-1.8
	C4,11.3,4.1,10.8,4,10.2l0,0c-0.1,0.4-0.2,0.7-0.4,1l-0.6,1c-0.2,0.4-0.4,0.8-0.6,1.2c-0.3,0.6-0.3,1.3-0.2,2c0,0.2,0.1,0.3,0.1,0.5
	l0,0c-0.1-0.6-0.2-1.1-0.5-1.7c-0.2-0.5-0.4-1-0.6-1.5s-0.4-0.9-0.5-1.2s-0.2-0.6-0.2-0.9c0-0.2,0-0.4,0-0.6c0-0.2,0-0.4,0-0.6l0,0
	c-0.1,0.3-0.2,0.7-0.3,1C0.1,10.8,0,11.3,0,11.7c0,0.7,0.1,1.3,0.2,1.9C0.5,14.1,0.7,14.5,0.9,15z M8.2,25.9c0.1,0,0.3,0,0.4,0
	c0.2,0,0.4,0,0.6,0c0.2,0,0.4,0,0.7-0.1c0.3,0,0.7-0.1,1.1-0.3l2-0.5c-0.5-0.1-0.9-0.3-1.3-0.4c-0.4-0.1-0.8-0.4-1.1-0.7
	c-0.4-0.4-0.9-0.8-1.4-1.2l-1.1-1C8,21.6,7.5,21.1,7.3,21l0,0c0.1,0.1,0.6,1.1,0.6,1.1L8,22.2L8.4,23l0.1,0.3
	c0.2,0.3,0.4,0.6,0.7,0.8c0.5,0.4,1.1,0.7,1.7,0.8l0,0H10l-0.6-0.1l-0.6-0.1c-0.2,0-0.5,0-0.7-0.1s-0.4-0.1-0.6-0.1l-0.6-0.1H6.6
	c-0.3,0-0.7-0.1-1-0.2S5,24,4.7,23.8c-0.4-0.2-0.7-0.5-1-0.7l0,0c0.2,0.3,0.3,0.5,0.5,0.8c0.3,0.3,0.5,0.6,0.8,0.8
	c0.4,0.3,0.8,0.5,1.2,0.7c0.5,0.2,1,0.3,1.6,0.4L8.2,25.9L8.2,25.9z M2,13.3L2,13.3c0-0.2,0.1-0.4,0.1-0.6c0.1-0.2,0.2-0.5,0.3-0.7
	c0.2-0.3,0.4-0.7,0.6-1l1.1-1.5c0.3-0.4,0.5-0.9,0.6-1.4C4.9,7.6,5,7.2,5.1,6.9H5C5,7,4.9,7.2,4.8,7.3C4.7,7.4,4.7,7.5,4.6,7.6
	C4.4,7.7,4.3,7.9,4.2,8L3.5,8.6C3.1,9,2.7,9.4,2.5,9.9c-0.2,0.4-0.3,0.9-0.4,1.3H2c0-0.2,0-0.4,0-0.6s0-0.5,0-0.8S2,9,2,8.5
	S1.9,7.3,1.9,6.4c0-0.3,0.1-0.5,0.2-0.8C2.2,5.4,2.3,5.2,2.4,5l0,0c-0.6,0.6-1,1.3-1.2,2C1,7.6,0.9,8.2,0.9,8.9S1,10.4,1.3,11
	C1.6,11.8,1.8,12.5,2,13.3L2,13.3z M6.2,23.7l1.7,0.4l0.9,0.2c-0.3-0.3-0.6-0.7-0.9-1.1c-0.2-0.3-0.4-0.7-0.5-1.1
	c-0.2-0.4-0.4-1-0.7-1.8c-0.1-0.2-0.2-0.4-0.3-0.6c-0.1-0.2-0.2-0.4-0.3-0.6s-0.3-0.4-0.4-0.7L5,17.5l0,0c0.1,0.3,0.2,0.8,0.3,1.4
	l0.4,2c0.1,0.5,0.3,0.9,0.6,1.3C6.6,22.6,7,23,7.4,23.3l0,0c-0.4-0.2-0.7-0.4-1-0.6C6,22.3,5.5,22,5,21.8c-0.8-0.4-1.6-0.8-2.4-1.3
	c-0.6-0.4-1-0.9-1.3-1.6l0,0c0.2,0.6,0.4,1.2,0.8,1.8c0.3,0.5,0.6,1,1,1.5c0.5,0.4,1,0.7,1.5,1C5,23.4,5.6,23.6,6.2,23.7L6.2,23.7z
	 M2.4,19.6l3,2c-0.1-0.3-0.3-0.5-0.4-0.8S4.8,20.3,4.8,20c-0.1-0.3-0.1-0.6-0.1-1s-0.1-0.8-0.1-1.3c-0.1-0.9-0.2-1.6-0.3-2
	c-0.1-0.5-0.2-1.1-0.4-1.6l0,0c0,0.4,0,0.8-0.1,1.2c0,0.3-0.1,0.6-0.2,0.9c-0.1,0.3-0.1,0.5-0.2,0.8c0,0.3-0.1,0.5-0.1,0.8
	c0,0.4,0.1,0.8,0.3,1.1c0.1,0.4,0.3,0.8,0.5,1.1l0,0c-0.4-0.6-0.8-1.2-1.3-1.8c-0.4-0.5-0.8-0.9-1.2-1.3c-0.3-0.3-0.7-0.7-1-1.1
	s-0.4-0.9-0.5-1.4C0,14.6,0,14.9,0,15.1c0,0.5,0.1,0.9,0.2,1.4c0.2,0.5,0.4,0.9,0.6,1.3s0.5,0.7,0.8,1.1C1.9,19.1,2.1,19.4,2.4,19.6
	z M26.8,2.2l0.9,1.1c0.3,0.4,0.6,0.8,1,1.2c0.4,0.4,0.9,0.8,1.4,1.1c-0.2-0.8-0.5-1.6-1-2.3c-0.3-0.4-0.6-0.8-1-1.1
	C27.7,2,27.4,1.8,27,1.7c-0.3-0.1-0.6-0.3-0.9-0.5l0,0C26.3,1.5,26.6,1.8,26.8,2.2L26.8,2.2z M29.4,23.9c-0.3,0.2-0.6,0.3-0.9,0.4
	s-0.7,0.1-1,0.2h-0.3l-0.6,0.1L26,24.7c-0.2,0-0.5,0.1-0.7,0.1l-0.6,0.1L24.1,25l-0.9,0.1l0,0c0.6-0.2,1.2-0.4,1.7-0.8
	c0.3-0.2,0.5-0.5,0.7-0.8l0.1-0.3c0.1-0.2,0.3-0.5,0.4-0.7l0.1-0.2c0,0,0.5-1,0.6-1.1l0,0c-0.1,0.1-0.7,0.6-0.8,0.7l-1.1,1
	c-0.5,0.4-0.9,0.8-1.4,1.2c-0.3,0.3-0.7,0.5-1.1,0.7c-0.4,0.1-0.8,0.2-1.3,0.4l1.9,0.5c0.5,0.1,0.9,0.2,1.1,0.3l0.7,0.1
	c0.2,0,0.4,0,0.6,0H26h0.4c0.5-0.1,1.1-0.2,1.6-0.4c0.4-0.2,0.8-0.4,1.2-0.7c0.3-0.2,0.6-0.5,0.9-0.8c0.2-0.2,0.4-0.5,0.5-0.8l0,0
	c-0.3,0.3-0.6,0.5-1,0.7L29.4,23.9z M31.7,20.5c-0.8,0.5-1.6,0.9-2.4,1.3c-0.5,0.3-1,0.6-1.5,0.9c-0.3,0.3-0.6,0.5-1,0.6l0,0
	c0.4-0.4,0.8-0.8,1.1-1.2c0.3-0.4,0.5-0.8,0.5-1.3c0.1-0.6,0.3-1.3,0.4-2s0.3-1.2,0.3-1.5l0,0l-0.7,1c-0.2,0.2-0.3,0.5-0.4,0.7
	s-0.2,0.4-0.3,0.6c-0.1,0.2-0.2,0.4-0.3,0.6c-0.3,0.7-0.5,1.3-0.7,1.8c-0.1,0.4-0.3,0.8-0.5,1.1c-0.2,0.4-0.5,0.8-0.9,1.1l0.9-0.2
	l1.7-0.4c0.6-0.1,1.1-0.3,1.6-0.6c0.5-0.3,1-0.6,1.5-1s0.9-0.9,1.2-1.4c0.3-0.6,0.6-1.2,0.7-1.8l0,0C32.7,19.6,32.3,20.1,31.7,20.5
	L31.7,20.5z M32.9,12.8c-0.2,0.4-0.4,0.9-0.6,1.5c-0.2,0.6-0.4,1.1-0.4,1.7l0,0c0-0.2,0-0.3,0.1-0.5c0.1-0.2,0.1-0.4,0.1-0.7
	c0-0.5-0.1-0.9-0.2-1.4c-0.2-0.4-0.4-0.8-0.6-1.2l-0.6-1.1c-0.2-0.3-0.3-0.6-0.4-1l0,0c-0.1,0.6,0,1.1,0.1,1.6
	c0.1,0.6,0.3,1.2,0.4,1.8s0.3,1.1,0.5,1.7c0.1,0.3,0.2,0.7,0.2,1.1V17c0,0.2,0,0.4,0,0.6l0,0c0.3-0.5,0.6-1,1-1.4
	c0.3-0.4,0.6-0.8,0.9-1.2c0.3-0.4,0.5-0.9,0.6-1.4c0.2-0.6,0.3-1.3,0.2-1.9c0-0.4-0.1-0.9-0.2-1.3c-0.1-0.3-0.2-0.7-0.3-1l0,0
	c0,0.2,0,0.4,0,0.6s0,0.4,0,0.6c0,0.3-0.1,0.6-0.2,0.9C33.3,12,33.2,12.4,32.9,12.8L32.9,12.8z M31.7,10c-0.2-0.5-0.6-1-1-1.3L30,8
	c-0.1-0.1-0.3-0.3-0.4-0.4c-0.1-0.1-0.2-0.2-0.3-0.3c-0.1-0.1-0.1-0.2-0.2-0.3l0,0c0,0.2,0.2,0.6,0.3,1.2c0.1,0.5,0.3,1,0.5,1.4
	l1.1,1.5c0.2,0.3,0.4,0.7,0.6,1c0.1,0.2,0.2,0.4,0.3,0.7C32,13,32,13.2,32,13.4l0,0c0.2-0.8,0.4-1.6,0.8-2.3
	c0.3-0.7,0.4-1.4,0.4-2.1c0-0.6-0.1-1.3-0.3-1.9c-0.3-0.7-0.7-1.4-1.1-2l0,0c0.1,0.2,0.2,0.4,0.3,0.7c0.1,0.2,0.2,0.5,0.2,0.8
	c0,0.9,0,1.6-0.1,2.1s-0.1,1-0.1,1.4s0,0.6,0,0.8s0,0.4,0,0.6l0,0C32,10.9,31.9,10.4,31.7,10z M29.9,3.6c0.2,0.3,0.3,0.7,0.4,1
	l0.3,1.3c0.1,0.5,0.3,1.1,0.5,1.8l0,0c-0.2-0.5-0.5-0.9-0.9-1.3c-0.3-0.3-0.6-0.6-1-0.8c-0.3-0.2-0.6-0.5-0.9-0.7
	c-0.3-0.3-0.6-0.6-0.7-1l0,0L27.9,5c0.1,0.2,0.2,0.5,0.3,0.7c0.1,0.2,0.2,0.3,0.4,0.5c0.1,0.1,0.3,0.3,0.5,0.5
	c0.6,0.5,1.1,0.9,1.5,1.3c0.4,0.3,0.8,0.7,1,1.2V6.3c0-0.8-0.2-1.6-0.7-2.2c-0.4-0.6-1.1-1.1-1.8-1.3l0,0
	C29.5,3.1,29.7,3.3,29.9,3.6L29.9,3.6z M25.3,26.7c-0.2,0-0.4,0-0.7-0.1l-0.7-0.1l0,0l-0.8-0.3L22,25.8l-1.7-0.6
	c-0.4-0.1-0.8-0.2-1.1-0.2c-0.4,0-0.8,0.1-1.2,0.1l-1,0.3l-0.9-0.2C15.8,25.1,15.4,25,15,25s-0.8,0.1-1.1,0.2l-1.7,0.6
	c-0.9,0.3-1.5,0.5-2,0.7c-0.4,0.1-0.9,0.2-1.3,0.2c-0.2,0-0.4,0-0.6,0c-0.2,0-0.3-0.1-0.5-0.1c0,0-0.4-0.1-0.6-0.2S6.7,26.1,6.4,26
	l0,0c0.4,0.4,0.9,0.8,1.4,1.1c0.7,0.4,1.4,0.6,2.2,0.6c0.3,0,0.6,0,0.9-0.1c0.3,0,0.5-0.1,0.8-0.2c0.2-0.1,0.5-0.2,0.8-0.4
	s0.7-0.4,1.1-0.6s0.8-0.5,1.1-0.7s0.7-0.3,1.1-0.3c0.2,0,0.3,0,0.5,0.1c-0.5,0.3-1.1,0.6-1.8,1c-0.7,0.5-1.4,1-2,1.6l0.7,0.6
	c0.6-0.7,1.3-1.4,2-1.9c0.5-0.5,1.2-0.8,1.8-1.1c0.7,0.3,1.3,0.7,1.9,1.2c0.7,0.6,1.4,1.2,2,1.9l0.7-0.6c-0.6-0.6-1.3-1.2-2-1.6
	s-1.3-0.8-1.8-1c0.2-0.1,0.3-0.1,0.5-0.1c0.4,0,0.7,0.1,1.1,0.3c0.3,0.2,0.7,0.4,1.1,0.7l1,0.6c0.3,0.2,0.5,0.3,0.8,0.4
	c0.2,0.1,0.5,0.2,0.8,0.2c0.3,0.1,0.5,0.1,0.8,0.1H24c0.6,0,1.2-0.2,1.8-0.4c0.7-0.3,1.3-0.8,1.8-1.4l0,0c-0.4,0.2-0.9,0.4-1.3,0.5
	C26,26.7,25.6,26.7,25.3,26.7z M34.1,15v-0.1c0-0.1,0-0.1,0-0.2s0-0.2-0.1-0.4c-0.1,0.5-0.2,1-0.5,1.4c-0.3,0.4-0.6,0.8-0.9,1.1V17
	l-1.2,1.2c-0.5,0.6-0.9,1.2-1.3,1.8l0,0c0.2-0.4,0.3-0.7,0.5-1.1c0.1-0.4,0.2-0.8,0.2-1.1c0-0.3,0-0.5-0.1-0.8
	c0-0.2-0.1-0.5-0.1-0.7s-0.1-0.6-0.1-0.9c0-0.4-0.1-0.8-0.1-1.2l0,0l0,0l0,0c-0.2,0.5-0.3,1-0.4,1.6c-0.1,0.5-0.2,1.2-0.3,2
	c0,0.5-0.1,0.9-0.1,1.3s-0.1,0.7-0.1,1s-0.1,0.5-0.2,0.8c-0.1,0.2-0.2,0.4-0.3,0.6l-0.1,0.1l0,0l1-0.7l2-1.3
	c0.3-0.2,0.5-0.4,0.8-0.7c0.3-0.3,0.5-0.7,0.8-1.1c0.1-0.3,0.2-0.6,0.3-0.9c0.1-0.2,0.2-0.3,0.2-0.5C34.1,16,34.1,15.6,34.1,15
	L34.1,15C34.1,15.1,34.1,15.1,34.1,15z M22.5,3.2l0.2,0.1c0,0.1,0.1,0.1,0.1,0.2l0.1,0.1c0.1,0,0.1,0,0.1-0.1s0-0.1,0-0.1s0,0,0-0.1
	s0-0.2-0.1-0.2C22.8,3,22.7,3,22.5,3h-0.1l0,0C22.5,3.1,22.4,3.1,22.5,3.2c0,0,0,0,0.1,0H22.5z M18.2,2.2L18.2,2.2
	c0.2-0.1,0.4-0.1,0.6-0.1h0.6c0.1,0,0.2,0,0.2-0.1s0.1-0.1,0.1-0.2c-0.1-0.1-0.3-0.2-0.5-0.3c-0.1,0-0.3,0-0.4,0
	c-0.2,0-0.3,0.1-0.5,0.1l-0.5,0.2c-0.1,0-0.2,0-0.2,0.1C17.7,2,17.7,2,17.8,2.1C17.9,2.2,18.1,2.3,18.2,2.2L18.2,2.2z M17,24.3
	c6.7,0,12.1-5.4,12.1-12.1S23.7,0,17,0S4.9,5.5,4.9,12.1C4.9,18.8,10.3,24.3,17,24.3L17,24.3z M5.5,12.5h1.8c0,0.8,0.2,1.6,0.4,2.4
	c-0.1,0-0.1,0-0.1-0.1v-0.1l-0.2-0.3L7,14.5c0,0.2-0.1,0.3-0.2,0.2c0,0-0.1-0.1-0.2-0.1c-0.2,0-0.4,0.1-0.4,0.3l0,0
	c0,0.2-0.1,0.3-0.1,0.5l0.3,0.7c0,0.1,0.1,0.1,0.2,0c0.1,0.1,0.2,0.2,0.2,0.3c0.1,0.1,0.1,0.1,0.2,0.1s0.1,0,0.1-0.1l0,0l0,0
	l0.2,0.2c0.1,0.1,0.1,0.1,0.2,0.2l0,0c0.1,0.1,0.2,0.1,0.3,0.1c0,0.2,0.1,0.3,0.2,0.4s0.2,0.2,0.3,0.2c0.1,0,0.1,0,0.2-0.1
	c0,0.1,0.1,0.3,0.2,0.4L9.1,18c0.1,0,0.1,0.1,0.2,0.1h0.1c0,0.1,0.1,0.2,0.2,0.3c0.1,0.1,0.2,0.2,0.2,0.2l0,0h0.1l0.1,0.1L8.6,20
	C6.7,18,5.6,15.3,5.5,12.5L5.5,12.5z M14.4,9.1L14.3,9l-0.1-0.1c0.7-0.6,1.6-1,2.5-1.1v1.3h-0.1l0,0l0,0h-0.1h-0.1h-0.1h-0.1
	c0,0-0.1-0.1-0.1-0.2l0,0C16,8.9,16,9,16,9s0,0.1-0.1,0.3c0,0.1-0.1,0.2-0.2,0.2c-0.1,0-0.2,0.1-0.2,0.1l-0.1-0.1h-0.2l-0.1-0.1H15
	l0,0c0,0-0.1,0-0.1,0.1l0,0l-0.1-0.1l0,0V9.3C14.6,9.2,14.5,9.1,14.4,9.1L14.4,9.1z M13.7,8.4l-1.2-1.2c1.2-1.1,2.6-1.7,4.2-1.8v1.8
	C15.6,7.3,14.5,7.7,13.7,8.4L13.7,8.4z M14.4,14.3c0.1-0.1,0-0.2,0.1-0.3l-0.1,0.1c0.1-0.1,0.2-0.2,0.2-0.3s0.1-0.2,0.1-0.2l0,0
	l0.1,0.2L13.7,15c-0.5-0.5-0.8-1.1-0.9-1.8c0.1,0,0.2,0,0.3,0.1l0.3,0.2c0.1,0,0.1,0,0.2,0l0.2,0.1c0,0.1,0,0.1,0,0.2
	c0,0,0,0.1,0.1,0.1s0.2,0,0.2,0.1h0.1c0-0.1,0-0.1,0-0.2c0-0.1,0-0.1,0-0.1l0.1,0.3L14.4,14.3L14.4,14.3
	C14.3,14.4,14.4,14.4,14.4,14.3L14.4,14.3z M16.8,15.6c0.1,0.1,0.1,0.1,0.1,0.1s-0.1,0.1-0.3,0.1s-0.1,0.1-0.2,0.2l-0.1,0.4h-0.1
	c-0.8-0.1-1.5-0.5-2.1-1l1.1-1.1c0.4,0.4,0.9,0.6,1.5,0.7c0,0.1,0,0.1,0,0.2c-0.1,0.1-0.1,0.1-0.1,0.2
	C16.7,15.4,16.7,15.5,16.8,15.6L16.8,15.6z M11.4,15.6c0-0.2,0-0.5-0.1-0.7c0-0.1-0.1-0.3-0.1-0.4c0-0.2-0.1-0.4-0.1-0.5
	c-0.1-0.2-0.2-0.4-0.4-0.5v-0.2c0-0.1,0-0.2-0.1-0.2l0,0c0,0,0-0.1,0.1-0.1l0.4-0.1c0-0.1,0-0.3,0-0.4l0.3,0.1
	c0.1,0,0.1-0.1,0.1-0.2c0-0.1,0-0.2-0.1-0.2c0-0.1-0.1-0.2-0.1-0.3s0-0.1,0.1-0.1s0.2-0.1,0.2-0.1c0.1,0,0.2,0,0.3,0.1
	S12,12,12,12.1s0,0.1,0,0.2c0,0.1,0,0.1,0,0.2h0.1c-0.1,0.3-0.2,0.4-0.3,0.4s-0.1,0-0.2-0.1c0-0.1-0.1-0.1-0.1-0.1s0,0-0.1,0l0,0
	c0,0.1,0,0.1,0,0.2c0,0.1,0,0.1,0,0.2c0,0.2-0.1,0.3-0.3,0.2c0,0.1,0,0.1,0.2,0.1c0.1,0.2,0.1,0.2,0.2,0.2c0-0.1,0.1-0.2,0.1-0.3
	s0-0.2,0.1-0.3h0.1H12v0l0,0c0.2,0.9,0.6,1.7,1.1,2.4l-1.7,1.7c-0.1-0.1-0.1-0.2-0.1-0.3c0-0.2,0.2-0.3,0.2-0.4v-0.3
	c-0.1-0.1-0.2-0.3-0.3-0.5L11.4,15.6z M10.4,13.1c0,0.1,0,0.1,0,0.2c0,0.1,0,0.1-0.1,0.1l0,0c-0.1-0.3-0.1-0.6-0.1-0.9h0.3
	c0,0.1,0,0.1,0,0.2l-0.1,0.2c0,0-0.1,0.1-0.1,0.2C10.4,13,10.4,13.1,10.4,13.1L10.4,13.1z M10.3,11.8c0.1-1.6,0.7-3.1,1.8-4.2
	l1.2,1.2l0,0c-0.1,0-0.2,0.1-0.2,0.1l-0.2,0.2c-0.1,0.1-0.3,0.1-0.4,0.2c-0.1,0.1-0.2,0.2-0.3,0.3l-0.3,0.1c-0.1,0-0.1,0.1-0.1,0.1
	c0,0.1,0,0.2,0,0.2l-0.4,0.1h-0.1l-0.1,0.1v0.1v0.1c-0.1,0.1-0.1,0.1-0.2,0.2c-0.1,0.1-0.1,0.2,0,0.4l0.1,0.4l0,0v0.1L10.3,11.8z
	 M13.7,15.8c0.6,0.6,1.4,1,2.2,1.2l-0.2,0.1c-0.1,0-0.2,0.1-0.2,0.3c0,0.1-0.1,0.2-0.2,0.3c-0.1,0-0.1,0.1-0.1,0.2
	c0.1,0.1,0.2,0.3,0.3,0.5s0.2,0.3,0.4,0.4l0.2,0.1c0.1,0,0.2,0,0.2,0.1h0.2c-1.5-0.1-2.9-0.7-4.1-1.7L13.7,15.8z M12,6.7l-1.2-1.2
	c1.6-1.5,3.7-2.4,5.9-2.4v1.7C15,4.9,13.3,5.6,12,6.7L12,6.7z M11.6,7.2c-1.2,1.3-1.9,2.9-1.9,4.6H8C8.1,9.6,8.9,7.6,10.4,6
	L11.6,7.2z M9.7,12.5c0,0.3,0,0.6,0.1,0.9l-0.1-0.1C9.6,13.1,9.5,13,9.5,13c-0.1,0-0.1,0-0.2,0.1c0,0.1-0.1,0.1-0.1,0.2
	c-0.1,0.1-0.3,0.2-0.4,0.2c-0.1,0.1-0.2,0.3-0.2,0.5c0,0,0,0.1,0,0.2c0,0.1,0,0.1-0.1,0.2s0.1,0.2,0,0.2s0,0.1,0,0.1H8.4
	c0,0,0,0.1-0.1,0.1C8.1,13.9,8,13.2,8,12.5H9.7z M16.7,23.6c-2.8-0.1-5.5-1.2-7.6-3.1l1.3-1.3c1.7,1.6,4,2.5,6.3,2.6V23.6z
	 M16.7,21.2c-2.2-0.1-4.2-0.9-5.8-2.4c0.1,0.1,0.2,0.1,0.3,0.1s0.2,0,0.3-0.1l0.4-0.2c0.1,0,0.3,0,0.4-0.1c0.1,0,0.2,0,0.3,0
	s0.1-0.1,0.1-0.2s-0.1-0.2-0.1-0.2c-0.1-0.1-0.1-0.1-0.1-0.2s0-0.1-0.1-0.1c-0.1-0.1-0.2-0.2-0.3-0.3l0,0c1.3,1.2,2.9,1.9,4.6,1.9
	L16.7,21.2z M17,16.7L17,16.7c-0.1,0-0.3,0-0.4-0.1v-0.1l0.2-0.1c0.1-0.1,0.2-0.1,0.3-0.1v-0.1l0.3-0.2h0.1l0.2-0.1
	c0.1,0,0.2,0.1,0.3,0.1c0.1,0.1,0.2,0.1,0.3,0.1V16c0,0,0.1,0,0.2,0.2c0.1,0,0.1,0,0.2-0.1c0-0.1,0-0.1,0-0.2h0.1h0.1c0,0,0,0,0.1,0
	l0,0c0.1,0,0.2,0,0.2-0.1l0.2-0.1 M19.5,15.6L19.5,15.6c0,0.1,0,0.1,0,0.2c0,0.2-0.1,0.4-0.4,0.5c-0.2,0.1-0.4,0.2-0.6,0.2
	c0,0.1-0.1,0.1-0.1,0.2s-0.1,0.1-0.1,0.1c-0.2,0-0.3,0-0.5-0.1c-0.1-0.1-0.1-0.2-0.1-0.2h-0.3l-0.3,0.1c-0.1,0-0.1,0-0.2,0
	L19.5,15.6z M18.7,15.4c0-0.1,0.1-0.2,0.2-0.3c0.1,0,0.2-0.1,0.3-0.1c0,0.1-0.1,0.2-0.2,0.2C19,15.3,18.9,15.4,18.7,15.4L18.7,15.4z
	 M20,14.4c0.1,0.1,0.2,0.2,0.2,0.3s0,0.1-0.1,0.2l0,0l0,0c-0.1,0-0.1-0.1-0.2-0.3s-0.3-0.1-0.3-0.3s0-0.2,0-0.2l0.2-0.1
	c0,0,0.1,0.1,0,0.2L20,14.4L20,14.4z M23.9,7.6C23.9,7.6,24,7.6,23.9,7.6c0.2,0,0.3,0,0.4,0.1c0.2,0.2,0.4,0.4,0.5,0.6
	c0,0,0.1,0,0.1,0.1S25,8.5,25,8.5c0.1,0,0.1,0,0.2-0.1v0c0.5,1.1,0.8,2.3,0.8,3.5h-1.7l0,0c0-0.2,0-0.3-0.1-0.4
	c-0.1-0.2-0.1-0.4-0.1-0.6c0-0.1,0-0.2,0-0.4c-0.1,0-0.1,0-0.2,0c0,0.1-0.1,0.1-0.1,0.2c0,0.1-0.1,0.1-0.1,0.2l0,0V11v0.1
	c0,0.1-0.1,0.2-0.1,0.3s0,0.2,0,0.3l0,0v0.1h-0.9c0-0.1,0.1-0.1,0.2-0.1l0,0l0.2-0.1L23,11.5c0-0.1,0-0.1,0-0.1l0.2-0.1
	c0.1-0.1,0.2-0.2,0.2-0.4c0.2-0.2,0.3-0.5,0.3-0.8c0-0.1-0.1-0.1-0.1-0.2s0-0.1,0-0.2c0-0.3,0.1-0.8-0.2-0.9c0,0,0,0,0-0.1
	c0.1-0.1,0.1-0.2,0.1-0.3h-0.2c0-0.1,0-0.1,0.1-0.1c0-0.1,0.1-0.1,0.1-0.2c0-0.1,0-0.1-0.1-0.1l0,0c-0.1,0-0.1,0-0.2,0l-0.1,0H23
	l0,0c0-0.1-0.1-0.3-0.2-0.4c-0.1-0.1-0.2-0.2-0.3-0.2l0,0c0-0.1,0-0.1,0-0.2l0.3-0.3L23.3,7c0,0.1,0,0.2,0.1,0.3
	c0.1,0,0.1,0.1,0.2,0.1C23.7,7.5,23.8,7.5,23.9,7.6L23.9,7.6C23.8,7.6,23.9,7.7,23.9,7.6L23.9,7.6z M22.2,19.3h-0.1
	c0,0-0.1,0-0.1-0.1s0-0.1,0.1-0.2s0.2-0.2,0.2-0.3c0-0.1,0.1-0.2,0.1-0.2s0-0.1-0.1-0.1s-0.1-0.1-0.1-0.1L22,18.2
	c-0.1,0-0.2-0.1-0.2-0.1c-0.1,0-0.1-0.1-0.1-0.2l0.1-0.2v-0.1l0.1-0.1l0.9,0.9c0,0.1,0.1,0.2,0.2,0.2l0.1,0.1
	c-0.3,0.3-0.6,0.6-1,0.8C22.1,19.5,22.1,19.4,22.2,19.3L22.2,19.3C22.3,19.5,22.3,19.4,22.2,19.3L22.2,19.3z M21.7,14.9
	c-0.1,0-0.2,0-0.2,0c-0.1,0-0.2,0.1-0.2,0.2l0,0l0,0c-0.1,0-0.1,0-0.2,0s-0.1,0-0.2,0.1c-0.1,0-0.1,0-0.1-0.1s0.1-0.1,0.4-0.2
	c0.1-0.1,0.1-0.2,0.2-0.2s0.1-0.1,0.2-0.1c0.1-0.1,0.2-0.2,0.3-0.3C22,14.2,22,14.1,22,14l0,0c0,0.1,0,0.2,0.2,0.2s0.1-0.1,0.2-0.3
	c0.1,0,0.2,0.1,0.3,0.1c0.1,0,0.2,0,0.3-0.1h0.5V14l0,0c-0.3,0.9-0.7,1.7-1.4,2.4v-0.1L21.9,16c0,0-0.1,0.1-0.2,0.3
	c0,0.1-0.1,0.2-0.1,0.4l-0.4,0.1c-0.1,0-0.2,0-0.4,0c-0.1,0-0.2-0.1-0.4-0.1c-0.1-0.1-0.2-0.1-0.3-0.1l-0.3-0.1
	c-0.1,0-0.2-0.1-0.2-0.1s0-0.1,0.2-0.1c0.1,0,0.2,0,0.3,0.1l0.5,0.1l0.5,0.1c0.1,0,0.2,0.1,0.2,0.1l0.2-0.1c0-0.1,0-0.2,0.1-0.2
	c0-0.1,0.1-0.1,0.1-0.2c0.1-0.1,0.1-0.3,0.1-0.4c0-0.2,0.1-0.3,0.1-0.5C21.8,14.9,21.8,14.8,21.7,14.9L21.7,14.9z M22.7,12.5h1
	c0,0.4-0.1,0.8-0.2,1.2c0-0.1-0.1-0.3-0.2-0.4L23,13c0-0.1,0-0.2-0.1-0.3v-0.1C22.8,12.6,22.8,12.6,22.7,12.5L22.7,12.5z M23.1,17.4
	c-0.1,0-0.1,0-0.1,0.1s0,0.2,0,0.2l-0.6-0.6c0.8-0.9,1.4-2,1.7-3.1l0,0c0.1,0.1,0.2,0.1,0.3,0l0.1-0.1c0-0.1-0.1-0.2-0.2-0.3l0,0
	c0.1-0.3,0.1-0.7,0.1-1H26c-0.1,2.2-0.9,4.3-2.4,5.9l-0.1-0.1l0,0c0-0.2,0-0.4-0.1-0.5s-0.1-0.3-0.3-0.3V17.4z M22.7,8.6L22.7,8.6
	c0,0.1,0,0.1,0,0.2L22.6,9c0.1,0.1,0.2,0.2,0.3,0.3l0.4,0.3c0.1,0.1,0.1,0.3,0.2,0.5c0,0.1,0.1,0.3,0.1,0.4c0,0.1-0.1,0.2-0.1,0.3
	c-0.1,0.1-0.2,0.2-0.4,0.2l0,0c0-0.1,0-0.2,0.1-0.2c0-0.1,0.1-0.2,0.1-0.2c0.1,0,0.1-0.1,0.2-0.2l-0.1-0.1l-0.2-0.2
	c0-0.1-0.1-0.1-0.2-0.1s-0.1,0-0.2,0.1l-0.2,0.1L22.3,10c0-0.1,0-0.1,0-0.2L22,9.3c-0.1-0.1-0.3-0.1-0.5-0.1c-0.1,0-0.2,0-0.3,0
	c-0.1,0-0.2,0-0.3,0c-0.1,0-0.2,0-0.3,0.1c-0.1,0.1-0.2,0.2-0.3,0.3c0,0,0,0.1-0.1,0.1l-0.1-0.1l1.8-1.8l0,0L22.1,8l0.2,0.2
	C22.4,8.2,22.6,8.4,22.7,8.6L22.7,8.6z M18.3,20.7c0.1,0.1,0.3,0.2,0.5,0.3c-0.5,0.1-1,0.2-1.5,0.2v-1.7l0,0
	c0.1,0.1,0.2,0.2,0.3,0.3c0.1,0,0.2,0.1,0.4,0.1c0.2,0,0.3,0,0.3,0.1s0,0.1-0.1,0.2c0,0.1-0.1,0.1-0.1,0.2
	C18.1,20.5,18.2,20.6,18.3,20.7z M17.3,23.6v-1.8c0.7,0,1.3-0.1,2-0.3l0,0l0,0c0.2,0.1,0.3,0.2,0.4,0.4c0,0.1,0.2,0.2,0.4,0.2
	c0.1,0,0.2,0,0.3-0.1l0.1-0.2c0.1-0.1,0.1-0.1,0.2-0.1s0.1-0.1,0.2-0.1s0.2-0.1,0.3-0.2c0.1-0.1,0.2-0.2,0.2-0.3
	c0.1,0,0.1,0,0.2-0.1s0.1-0.3,0.2-0.4h0.1c0,0,0,0,0-0.1c0.6-0.4,1.2-0.8,1.7-1.3l1.3,1.3C22.8,22.4,20.1,23.6,17.3,23.6L17.3,23.6z
	 M25.3,20.1L24,18.8c1.6-1.7,2.5-4,2.6-6.3h1.8C28.4,15.3,27.3,18,25.3,20.1L25.3,20.1z M28.5,11.8h-1.8C26.6,9.9,26,8,24.8,6.4
	c0-0.1-0.1-0.1-0.1-0.2l-0.1-0.1c-0.1-0.2-0.3-0.4-0.5-0.6V5.4l1.3-1.3C27.3,6.3,28.4,9,28.5,11.8L28.5,11.8z M17.3,0.7
	c2.8,0.1,5.5,1.2,7.6,3.2L23.8,5l-0.1-0.2c0-0.1-0.1-0.1-0.2-0.1s-0.2-0.1-0.2-0.3c0-0.1,0-0.2-0.1-0.2C23,4.1,22.9,4,22.8,3.8
	c-0.1-0.2-0.2-0.3-0.3-0.3c-0.1,0-0.2,0-0.3,0c-0.2-0.1-0.4-0.1-0.5,0l-0.3,0.1l0,0c-1.2-0.6-2.6-1-3.9-1c0.1-0.2,0.1-0.3,0-0.3
	s-0.1,0-0.2,0.1V0.7z M17.3,3.1c1.3,0.1,2.6,0.4,3.8,1l0,0l0.2,0.2c0,0.1,0.1,0.1,0.1,0.2s0.1,0.2,0.1,0.4L21.6,5
	c0,0.1,0,0.2,0.1,0.3c0.1,0.1,0.1,0.2,0.2,0.3H22h0.2c0,0,0.1,0,0.2,0.1C22.5,5.9,22.5,6,22.6,6v0.1l-0.5,0.5l0,0
	C22,6.4,22,6.2,21.9,6c-0.1-0.1-0.2-0.1-0.3-0.1l-0.3-0.3C21.1,5.4,21,5.2,21,5.2h-0.1c0,0,0,0.1,0.1,0.1c0,0,0.1,0.1,0.2,0.3
	s0,0.1-0.1,0.1l0,0c0,0.1,0.1,0.2,0.2,0.2V6l0.1,0.2c-1.2-0.9-2.6-1.3-4-1.4L17.3,3.1z M17.3,5.5c1.6,0.1,3.1,0.7,4.2,1.8l-1.2,1.2
	c-0.8-0.7-1.9-1.2-3-1.2V5.5z M17.3,7.8c0.9,0.1,1.7,0.4,2.4,0.9h-0.1c0,0,0,0-0.1,0.1v0.1L19.6,9l-0.5,0.5l0,0
	c-0.1,0-0.1,0.1-0.2,0.1c-0.1,0.1-0.2,0.1-0.2,0.1v0.1L18.5,10h-0.1c0,0-0.1-0.1-0.2-0.2S18,9.6,18,9.6c-0.1,0-0.1,0-0.2,0.1h-0.1
	c0-0.1,0-0.1,0.2-0.2l0.4-0.1c0.2-0.1,0.3-0.4,0.3-0.6c0-0.1-0.1-0.2-0.2-0.2l-0.1,0.1C18.2,8.8,18.1,8.9,18,9l-0.2,0.2
	c-0.1,0-0.2,0-0.2,0h-0.2L17.3,7.8L17.3,7.8z M17,10.6C17,10.6,17,10.7,17,10.6c0.1,0.1,0.2,0.1,0.3,0.1c0.1,0,0.1,0,0.2,0
	c0,0,0,0,0,0.1s0.1,0.1,0.1,0.1V11l0,0l0.1,0.1l0,0l0,0h0.1h0.1v0.1l0,0v0.1c0,0.1,0,0.1,0,0.2v0.1l0,0c-0.1,0.1-0.1,0.1-0.1,0.2
	c0,0.1,0,0.1,0.1,0.1s0.1,0,0.1,0.1c0.1,0.1,0.1,0.1,0.1,0.2v0.4c0,0,0,0.1,0.1,0.1c0,0,0.1,0,0.1,0.1s0,0.2,0,0.3s-0.1,0.2-0.1,0.3
	c0,0-0.1,0-0.2,0h-0.3c-0.1,0-0.1,0.1-0.2,0.2c-0.1,0.1-0.1,0.2-0.1,0.4c0,0.1-0.1,0.2-0.2,0.2s-0.1,0-0.2,0l0,0l-0.1,0.2v0.1
	c-0.5,0-0.9-0.2-1.2-0.5l0.2-0.2l0.4-0.1h0.1c0.2-0.1,0.2-0.3,0.3-0.4s0.3-0.3,0.1-0.4c0.2-0.3-0.7-0.3-0.8-0.3s-0.1,0.3-0.1,0.4
	s-0.1,0.1-0.2,0.1c-0.1,0.1-0.2,0.3-0.3,0.4l0,0c-0.1-0.1-0.1-0.2-0.1-0.3l0,0v-0.1l0,0l0,0c0.1,0,0.2,0,0.2,0l0.1-0.2
	c0.1-0.2,0.1-0.3,0.2-0.5c-0.1,0-0.1-0.1-0.1-0.1s0-0.1-0.1,0l-0.1,0.1c0,0.1,0,0.1-0.1,0.2c0,0-0.1,0.1-0.2,0.1
	c0-0.1,0-0.1-0.1-0.1l0,0l0,0c-0.1,0-0.1,0-0.2,0.1h-0.4c-0.1,0-0.3,0-0.4,0c-0.1-0.1,0-0.1,0.2-0.2c0-0.2,0.1-0.4,0.2-0.5
	c0.1,0,0.2,0.1,0.2,0.1l0.1-0.1l0,0c0.1,0,0.1,0.1,0.1,0.2s0,0.2,0.1,0.2s0.1,0,0.2-0.1v-0.2c0-0.2,0.1-0.3,0.1-0.4v-0.1
	c0-0.1,0.1-0.1,0.1-0.2l0,0c0.1,0,0.1-0.1,0.2-0.1c0-0.1,0.1-0.2,0.1-0.2l0.4-0.2c0.2-0.1,0.3-0.2,0.3-0.2l0,0h0.3
	C16.8,10.5,16.9,10.6,17,10.6L17,10.6z M16.7,0.7v1.8c-2.3,0.1-4.6,1-6.3,2.6L9.1,3.8C11.2,1.9,13.9,0.7,16.7,0.7z M8.7,4.3L10,5.6
	c-1.6,1.7-2.5,4-2.6,6.3H5.5C5.6,9,6.7,6.3,8.7,4.3L8.7,4.3z"/>
</svg>
